<?xml version="1.0" encoding="UTF-8"?><svg id="uuid-163a4e3a-cb22-4575-a551-e54b58147260" xmlns="http://www.w3.org/2000/svg" viewBox="0 0 387.76 361.3"><path d="M387.76,311.75h-1.36c-30.83,0-61.65,0-92.48.02-.86,0-1.33-.23-1.77-1-5.86-10.24-11.76-20.45-17.65-30.66-.18-.31-.34-.62-.57-1.07h57.14c-31.47-54.66-62.82-109.13-94.26-163.73-9.55,16.58-19.04,33.06-28.6,49.65-1.46-2.54-2.87-4.98-4.27-7.42-4.71-8.17-9.41-16.34-14.14-24.49-.4-.69-.36-1.18.03-1.85,15.51-26.89,30.99-53.79,46.49-80.7.15-.25.3-.5.52-.86,50.31,87.36,100.56,174.64,150.93,262.11Z" fill="#f5ba00" stroke-width="0"/><path d="M56.74,229.26h57.08c-.17.36-.26.62-.4.86-6.02,10.45-12.04,20.89-18.04,31.35-.34.6-.76.6-1.3.6-16.16,0-32.31,0-48.47,0H0C50.34,174.64,100.59,87.37,150.9,0c.24.4.43.69.6.98,15.5,26.9,31,53.8,46.5,80.69.28.48.4.85.07,1.41-6.05,10.46-12.08,20.94-18.11,31.42-.12.22-.26.42-.47.76-9.53-16.56-19.01-33-28.57-49.62-31.41,54.57-62.76,109.02-94.18,163.61Z" fill="#f5ba00" stroke-width="0"/><path d="M.05,361.3c1.31-2.28,2.56-4.46,3.82-6.64,14.36-24.93,28.73-49.87,43.09-74.81.31-.54.58-.89,1.33-.89,12.01.03,24.02.02,36.03.02.26,0,.51.02.96.05-9.52,16.53-18.98,32.96-28.51,49.5h188.33c-9.52-16.52-18.98-32.96-28.53-49.55h1.19c11.84,0,23.69,0,35.53-.02.83,0,1.27.24,1.68.96,15.42,26.83,30.87,53.64,46.32,80.46.16.27.29.56.47.92H.05Z" fill="#f5ba00" stroke-width="0"/><path d="M142.64,278.98h1.36c17.34,0,34.68,0,52.01-.02.78,0,1.22.21,1.62.91,5.86,10.23,11.75,20.45,17.64,30.67.19.34.38.68.64,1.13H85.92c21.65-37.61,43.29-75.19,64.99-112.89.35.61.65,1.1.93,1.59,5.83,10.13,11.66,20.27,17.52,30.39.39.67.35,1.12-.02,1.76-8.74,15.13-17.45,30.28-26.17,45.43-.16.28-.3.57-.54,1.03Z" fill="#f5ba00" stroke-width="0"/><path d="M215.97,212.45c-2.63,0-5,0-7.36,0-9.77,0-19.54-.01-29.31.02-.81,0-1.22-.28-1.6-.95-8.74-15.24-17.51-30.47-26.27-45.7-.13-.23-.27-.45-.49-.8-.2.32-.37.56-.52.82-8.75,15.2-17.5,30.4-26.22,45.62-.43.76-.89,1.02-1.76,1.01-11.78-.03-23.55-.02-35.33-.02-.35,0-.7,0-1.23,0,21.72-37.73,43.36-75.31,65.05-112.99,21.7,37.69,43.32,75.25,65.05,112.99Z" fill="#f5ba00" stroke-width="0"/><path d="M171.82,262.01c1.84-3.2,3.59-6.25,5.34-9.29,4.31-7.49,8.64-14.96,12.93-22.46.41-.73.85-.99,1.68-.99,17.34.03,34.68.02,52.02.02.39,0,.77,0,1.3,0-.23-.42-.38-.73-.55-1.04-8.67-15.06-17.33-30.13-26.02-45.17-.47-.82-.48-1.38,0-2.2,5.93-10.23,11.82-20.49,17.72-30.74.18-.31.37-.61.61-1,21.67,37.63,43.29,75.19,64.99,112.87h-130Z" fill="#f5ba00" stroke-width="0"/></svg>