<?xml version="1.0" encoding="UTF-8"?>
<svg id="Calque_1" data-name="Calque 1" xmlns="http://www.w3.org/2000/svg" version="1.1" viewBox="0 0 500 300">
  <defs>
    <style>
      .cls-1 {
        fill: #75683b;
        stroke-width: 0px;
      }
    </style>
  </defs>
  <path class="cls-1" d="M496.8,123.8c-1.5,1.1-2.1,1.8-2.8,2-25,5-40.8,21.4-51.6,43-4.3,8.5-5.6,18.5-9,27.6-2,5.6-4.6,11.2-8.2,15.9-3.2,4.1-8.5,5.5-13.7,3.2-4-1.8-6.2-5-6.1-9.5,0-3.7,1.6-6.7,6.1-7.8-.2,2-.3,3.8-.4,5.5.4.3.7.6,1.1.9,1.4-1.5,4.1-3.1,4-4.5-.2-2-2.1-4.5-3.9-5.3-1.4-.7-4.4.3-5.6,1.6-2.5,2.6-4.2,5.9-6.4,8.8-5.6,7.4-12.8,12.6-21.9,15-5,1.3-5.7,3.4-2.7,7.8,14.1,20.5,50.3,21.1,64.9.8,2.3-3.3,3.6-7.3,6.1-12.6,1.5,4.6,3.2,8.2,3.6,11.9.5,5.2,2.7,7.8,7.9,9.4,11.6,3.5,17.8,12.4,20.3,23.7,2.5,11.6.4,22.4-8.6,31.1-1.1,1.1-2.7,1.7-5.3,3.4,2.7-5.6,4.8-9.6,6.5-13.9,7.2-18.1-4.3-35.4-23.8-36-8.4-.2-16.5,1.1-24.4,4.5-10.6,4.5-21.4,8.3-33.2,7.8-9.5-.4-17.6-3.9-23.9-11-5.3-5.9-4.9-11.1.7-16.7,1,1.7,1.6,3.9,3,5.1,1,.9,3.1.6,4.7.8,0-1.6.8-3.8,0-4.6-2-2-4.5-4.1-7.2-4.6-12.1-2.3-23.5-.5-33.4,7.5-6.2,5-12.3,10.3-18.9,14.7-4.1,2.7-9,4.5-13.7,6.1-4.3,1.5-8.5.5-12.5-3.5,3.5.4,6.4,1.3,9,.8,2.8-.5,6.8-2,7.5-3.9.9-2.7-.8-6.3-1.6-9.4-.2-.8-1.4-1.6-2.3-2-9.7-5-19.3-10.3-29.2-14.8-3.5-1.6-7.8-1.9-11.7-1.8-6.7.2-10.8,7.6-7.4,13.2.9,1.5,4,2.7,5.6,2.3,2.3-.6,4.9-2.4,6-4.5,1.1-2,.5-5,.7-9.3,3.8,4.5,7.4,7.7,9.7,11.7,3.8,6.7,1.2,11.9-4.7,16.8-6.3,5.2-12.2,11.3-16.9,17.9-2.5,3.5-3.1,9.3-2.7,13.8.7,7.1,5.1,11.6,13.6,10.5-8.1,4.6-18.9.3-22.2-8.2-4.3-11.4-1.8-22.2,3.2-32.7,2.6-5.4,4.7-9.7.8-16.1-5.1-8.3,3.3-22,13.1-22.5,4.8-.3,9.9,1.1,14.7,2.4,3.4.9,6.6,2.8,10,4.3,1.8-7.7-1-10.7-14.2-15,1.5-.7,2.4-1.2,3.4-1.5,3.5-1.3,5.2-3.7,5.2-7.5,0-10.8.2-21.5-.1-32.3,0-2.1-1.9-4.1-3.3-6.9,11-6.3,22.7-13,35.2-20.2-3.7,9.4-1,16.5,3.7,24.1,2.6,4.1,3.6,10.7,2.2,15.2-2.5,8.1-6.5,16.1-11.3,23.1-5.3,7.8-12.3,14.4-19.4,22.5,8,2.9,15.7,6.3,23.7,8.4,6.7,1.7,11.8-1.8,14.3-8.3,1.4-3.9,2.1-8.1,3.5-12,2.9-8.3,6.6-15.9,17.5-16.4v-40.7c0-7.5.3-14.9-.1-22.4-.1-2.2-2-4.3-3.1-6.4-2.1,1.2-4.9,2-6.3,3.8-4.2,5.7-4.9,12.2-2.4,18.8,1.4,3.7,3.7,7,5.5,10.6.7,1.3.9,2.9.6,4.6-7.2-5.4-12.5-11.9-13.7-20.8-2.5-17.9,12.4-30.6,30.3-25.9,27.2,7.1,52.9,37.2,55.9,65.2.2,2.4,1.5,6,3.1,6.5,2.1.7,5.6-.5,7.3-2.1,4.1-3.9,7.6-8.5,11.1-13,6.7-8.7,12.5-18.1,19.8-26.1,11.3-12.3,25-20.9,42.4-22,.5,0,1,0,2.7.2h-.4ZM365.3,138.5c-10.3,6.4-11.1,10.2-5.2,19.8,2.6,4.2,5.3,8.6,7,13.3,3.6,9.7,1.1,16.1-7.6,21.6-.5.3-1,.8-2.2,1.8,3.9,3,7.2,6.1,11.1,8.2,6.4,3.4,13.1,3.7,19-1.2,5.8-4.8,6.6-11.4,4.6-18-5.2-17.1-13.6-32.5-26.8-45.3v-.2ZM291.7,177.6h.1c0,6-.1,12.1,0,18.1,0,2.1.8,4.2,1.2,6.2,2-1.1,4.2-2,6-3.5,1.4-1.2,2.4-2.9,3.4-4.5,6.9-11.5,5.5-26.1-3.5-36.1-1.7-1.9-4.1-3.2-6.2-4.8-.4,2.6-1,5.2-1.1,7.9-.2,5.5,0,11.1,0,16.6h.1ZM348.3,124.3c-.4.3-.9.7-1.3,1v21.4c4.4-3.8,9.3-7.9,14.9-12.6-4.1-3-8.8-6.4-13.6-9.8h0ZM288.1,200c.4-.2.9-.3,1.3-.5v-44.5c-.5-.2-.9-.3-1.4-.5-.7,1.5-2.1,2.9-2.1,4.4-.2,11.9-.2,23.8,0,35.8,0,1.8,1.4,3.6,2.1,5.3h.1ZM347.1,192.7c8.9-7.4,8.5-18.6,0-22.7v22.7Z"/>
  <path class="cls-1" d="M370.5,102.3c-1.2-3.9-.5-6.9,3.3-10.3,3-2.8,7-4.5,10.1-7.1,1.6-1.3,3.3-3.6,3.3-5.5.2-19.2.2-38.5.1-57.7,0-3.1.3-7.3-3.6-7.4-2.3,0-5.6,2.6-6.9,5-5.3,9.6-2.1,18.3,3.5,26.7s1.5,3.3,1.6,5.3c-11.2-6.9-16.7-20.4-13.4-31.2,3.3-10.9,12.8-17.3,24.1-16.3,13.1,1.2,24.1,7,32.9,16.3,7,7.4,13.5,15.5,19,24,8.8,13.4,8.8,27.7,1.5,42-1.1,2.2-2.3,4.3-3.3,6.5-2.7,5.9-.2,10.2,6.4,10.8,19.2,1.9,35.7-19,29-36.8-7.3-19.6-.5-40.2,17.1-51.5.5-.3,1.2-.3,3.3-.7-2.2,2.7-3.6,4.4-4.9,6-10,11.9-13,24.9-7.1,39.7,2.1,5.3,4.3,10.7,5.4,16.2,2.8,13.9-3.4,24.3-14,32.4-16.9,12.9-35.9,14.8-55.2,7.3-10-3.9-18.9-10.6-28.3-16.1-2.4-1.4-4.4-3.4-6.9-4.6-7.6-3.8-12.6-1.7-15.6,6.4-.1.4-.7.6-1.1.9l-.3-.3ZM400.9,84.4c3.4,2.7,6.1,5.4,9.3,7.4,7.1,4.5,15,4.3,20.4-.1,5.4-4.3,7.5-12.2,4.3-19.9-4-9.5-8.3-19-13.4-28-3.3-5.9-8.3-10.8-12.6-16.2-1.7,1.2-2.6,1.7-3.4,2.4-7,5.6-7.6,9.2-2.8,16.7,1.7,2.6,3.4,5.3,4.9,8,7.1,12.8,5.4,20.8-6.8,29.8h.1ZM390.6,13.1v22.9c4.3-3.6,9.1-7.7,14.7-12.3-4.1-3-9-6.5-14.7-10.6ZM390.6,81.9c8.9-6.7,8.7-16.3,0-22.7v22.7Z"/>
  <path class="cls-1" d="M262.5,97.8c9.6-1.3,9.7-6.9,9.6-13-.2-10.9,0-21.8,0-32.8s-.5-6.1-6.1-3.8c-1.3-2.8-2.6-5.5-4.1-8.7,4-3.1,7.8-6,11.2-8.6,3.9,3,7.4,7.7,11.4,8.3,4,.5,8.5-3.1,13.1-5.1,2.4,8.2,10,6.7,16.5,6.5,0,16.3,0,32.5.2,48.7,0,1.5,2.2,3,3.7,4.9-1.2,2.3-3.5,5.4-4.4,8.9-.8,3.4-.2,7.2-.2,10.6-4.2-3.2-8.8-6.4-13-10-.9-.7-.8-2.9-.8-4.4,0-15.3.1-30.5-.2-45.8,0-3.2-1.7-6.5-3-9.6-.4-.9-2.3-1.5-3.4-1.4-.6,0-1.2,1.8-1.5,2.9-.3,1.2-.3,2.4-.3,3.6v35.4c0,1.7.2,3.4.4,5.5,2.1-.6,3.6-1,6.2-1.7-6.9,7.7-13,14.7-19.3,21.7-1.1-8.2-7.9-9.5-15.9-12.2h-.1ZM285.4,92.2c.6.2,1.1.3,1.7.5.6-1.5,1.8-3,1.8-4.6.2-13,.2-26,0-39,0-1.5-1.4-3.1-2.1-4.6-.5.2-1,.4-1.5.6v47.1h.1Z"/>
  <path class="cls-1" d="M362.5,89.4c-4.8,7.6-8.9,14.1-13.3,20.9-6.5-8.4-15-14.5-26.9-12.6v-1.5c6.9-1.6,8.6-6.2,8.3-12.8-.5-9.7,0-19.4-.1-29.1,0-3.4,1.2-7.4-5.2-7.8l.9-1.3c9.4-5.9,18.7-11.7,28.6-17.9.5,11.6,9.1,17.5,15.2,25.7-6,5-12.2,9.8-18.1,15.1-1.7,1.5-2.9,4.2-3.1,6.4-.5,4.8-.4,9.7,0,14.5.2,2.2,1.4,4.7,3,6.1.7.6,3.6-1,5.3-2,1.6-.8,3-2.1,5.5-3.8h0ZM345.4,40.8c-2.7,2.1-3.7,14.4-1.9,24.7,2.7-2,3.7-14.6,1.9-24.7ZM348.9,62c3-2.8,5.6-5.1,8.2-7.6-2.7-3.6-5.1-6.9-8.2-11.1v18.7h0ZM345.6,92.2v-18.4c-3.6,3.6-3.7,15.2,0,18.4Z"/>
  <path class="cls-1" d="M223.6,48c-1.2-2.6-2.5-5.2-4-8.3,3.9-3.1,7.8-6.1,11.7-9.2,5.7,6.9,8.8,6.8,15.8-.2,4,3,8,6.1,12,9.1-2.9,7.9-5.1,11.6-9.9,10v40.7c2.2-.6,3.9-1,6.1-1.7-6.7,7.6-12.9,14.8-18.9,21.5-1.2-1.9-2.6-5.3-5-7.4-2.5-2.1-6.2-2.9-10.5-4.8,9.2-1.1,9-7.3,8.9-13.6-.1-10.6,0-21.1,0-31.7s-.6-6.3-6.3-4.4h0ZM245.2,44.5c-.6.2-1.3.3-1.9.5v47.3c.6.1,1.1.3,1.7.4.6-1.7,1.8-3.4,1.8-5.1.2-12.6.1-25.3,0-37.9,0-1.8-1-3.5-1.6-5.3h0Z"/>
  <path class="cls-1" d="M26.2,295.1c-17-11.4-15.7-50.7,8.8-58.2,3.8-1.2,4.8-3.8,5.4-7.4.6-4.1,1.9-8,3-12.6,1.4,1.1,1.8,1.2,1.8,1.4,2.8,14.7,11,20.5,26,18.4,9.7-1.3,18.5-4.6,26.3-10.4,8.5-6.3,11.7-14.8,10.6-25-.5-5.1-2.8-8.8-8-10.4-3.9-1.2-6.1.4-8,5,4.3-3,7.6-3.1,10.2.4,2.1,2.9.9,8-2.5,10.7-5.1,4-11,4.1-16.9,2.7-11.9-3-20.3-10-24.8-21.6-4.8-12.2-9.7-24.4-15.1-36.4-2.2-4.8-5.5-9.3-9-13.3-6.5-7.5-14.8-9.9-24.4-6.5-2.6.9-5.4,1.7-8.1,2.2,15.2-10.1,30.7-7.6,41.6,6.7,6.1,8,11.3,16.6,17.3,24.7,10.6,14.3,23.6,18.7,40.8,14.4,13.3-3.4,20.6-14.4,17.8-27.7-.9-4.5-2.8-8.9-4.6-13.1-.9-2-2.5-3.8-4-5.4-5.1-5.3-13.7-6.8-17.9-3.4-4.3,3.6-3.8,11.8,1.3,17.9,2.3,2.8,5.2,5.2,7.5,8,4.7,5.8,3.8,15.2-1.7,17.9-4,2-8.4,2.7-12.2-.6-3.2-2.8-3.7-8.5-1.2-13.7.5,2.7.4,5.3,1.5,7.2,1.3,2.2,4.5,5.7,5.6,5.3,2.6-.9,5.7-3.6,6.5-6.1,1.7-5.7-2.4-9.5-6.9-12.1-5.9-3.4-8.3-8.6-9-15-1.4-13.1,11.8-24.5,24.5-20.6,5.2,1.6,10.1,4.6,14.6,7.6,2.3,1.5,3.7,1.8,5.8.4,6.8-4.6,13.6-9,20.4-13.6,1.3-.8,2.5-1.6,4.8-2.3-4.2,6.2-3.4,11.9.8,16.8,3.5,4.2,4.1,12.4,13.2,9.6.2.6.3,1.2.5,1.8-5.3,4-10.6,8-16,12.1,3.5,3.1,7.9,6.7,11.8,10.7,6.8,6.8,9.6,15,7.9,24.7-1.3,7.5-5.1,13.1-11.5,17.1-3.3,2-6.7,3.7-9.8,5.9-4.4,3.1-6,7.6-4.8,12.8,1.2,5.3,5.4,7,10,7.6,7.6,1.1,14.9.1,21.8-3.5,6.6-3.5,13.2-6.9,19.8-10.3,1.8-.9,3.8-1.9,5.8-2.3,5.8-1.2,11.9-1.8,15.7,3.7,4.2,6,6.9,13.1,3.2,20-2.4,4.6-1.8,7.9,0,12.1,5.2,11.3,8.1,22.9,3.9,35.3-2.9,8.6-11.5,12.4-20,8.3,7.4,1,11.5-2.8,12-9,.4-5.3.2-11.5-2.3-15.9-3.5-6.4-8.7-12.1-14.2-17-6.4-5.7-8.4-11.9-3.8-19.3,1.7-2.7,4-5,6.4-7.8.8,3.6.7,6.9,2.2,8.8s4.8,3,7.3,3.1c1.1,0,3-3.4,3.3-5.4.9-6.6-2.7-10.4-9.3-10-3.4.2-7.1.8-10,2.3-8.3,4.4-16.3,9.2-24.2,14.2-1.9,1.2-3.3,3.6-4.1,5.7-2,5.5,1.1,9.7,6.9,9.9h5.5c0,.7.1,1.3.2,2-2.9.2-6.3,1.4-8.7.4-5.5-2.3-10.9-5.3-15.7-8.8-4.6-3.3-8.6-7.6-12.7-11.5-8.4-8-18.4-10.1-29.4-8-2.6.5-5.1,2.7-7.1,4.7-.7.8.2,3.2.4,4.9,1.6-.7,3.5-1.1,4.7-2.1.9-.8.9-2.5,1.3-3.8,4.9,4.1,5.7,10.1,1.5,15.8-7.7,10.3-18.3,13.7-30.4,11-7.7-1.7-15.2-4.8-22.5-7.9-8.1-3.4-16.3-4.4-24.9-3.2-6.4.9-10.9,4.2-13.9,9.8-4.5,8.5-6.1,17.3-2.2,26.5,1.6,3.8,3.2,7.7,4.8,11.5-.3.3-.7.6-1,.9l-.2.3ZM141.3,162c-.2,2.2-.4,3.6-.4,5.1,0,11.9,0,23.9.1,35.8,0,1.8,1,4.5,2.3,5,1.3.6,3.9-.6,5.2-1.8,8-6.7,11.5-23.2,6.7-32.6-2.8-5.5-7.2-9.4-14-11.6h0ZM136.4,204c2.2-9.8,1.3-42.5-1.4-46-3.6,11.8-10.5,20.5-22.1,24.8,8.1,7.3,15.5,14,23.5,21.3h0ZM128.8,131.9c1.9,7.8,3.6,14.9,5.3,22h1.4c4-8.3.7-17.3,2.2-27.1-3.8,2.1-6.4,3.6-8.9,5h0ZM150,143.1c-3.1-3.8-5.8-7.2-8.7-10.8v17.5c3.3-2.6,6-4.6,8.7-6.7Z"/>
  <path class="cls-1" d="M18.2,20.7c1.3,0,1.8,0,2,0,8.9,5.9,16.1,24.5,13.2,34.7-1.6,5.6-4.1,11-5.9,16.6-4.8,14.2,2.9,26.7,17.8,29,9.3,1.5,18.1.8,25.1-6.6,1.1-1.2,2.4-2.8,2.4-4.3.2-13.7,0-27.4,0-41.2-3.7-1-7.1-1.9-11.6-3.1,4.1-1.1,7.2-1.9,10.2-2.7v-1.5c-1.3-.7-2.5-1.5-3.8-2.1-8.7-3.6-12.5-8.4-11.4-14.6,1.4-8.3,9.3-15.9,17.3-16.4,7.9-.5,14.2,3.1,19,9,9.4,11.5,11.3,25,9.7,39.3-1.1,10-4.8,19.1-10.9,27.2-1.8,2.4-3.3,5.4-4.1,8.3-.9,3.2.5,5.1,4.3,4,8.6-2.5,15.5-11.7,15.5-20.4,0-18.4,0-36.8,0-55.1,0-9.9,1.9-12.5,11.9-15.1,2.4-.6,5.6-3.3,7.8,1.3-6.4,2.8-7.3,8.5-7.3,14.6v58.8c0,4.5,0,9.2,5,11.3-4.2,7.2-8.3,14.4-12.8,22.1-.5-7-3.9-12.1-10.8-15.6,5.1-1.7,9-3.7,8.6-9.5-8.2,7.2-16,14.3-24,21-7.6,6.4-16.4,10.3-26.1,12.2-27.7,5.4-48.2-15-42.7-42.5,1.1-5.2,2.4-10.5,4.5-15.4,6.4-14.8,6.6-29.1-3.1-43.2h0ZM75.4,89.5c5.8-3.3,10.9-8.5,12.6-14.4,4.6-15.4,4.1-30.8-1.7-45.8-1.8-4.6-5.1-8.1-11.7-10,1.1,4.7.8,9.6,3.1,11.9,5.5,5.5,6.2,7.6,1.1,13.7-1.3,1.5-3.2,3.3-3.2,5-.3,13.1,0,26.2,0,39.6h-.1Z"/>
  <path class="cls-1" d="M137.5,113.4c1.7-7.8-.9-10.6-15.1-15.6,9.6-1.3,9.3-7.4,9.1-13.7-.2-8.8-.2-17.7,0-26.5,0-1.9,1.2-4.3,2.6-5.6,4-3.8,8.4-7.2,13-11-2.5-2.9-5.1-5.6-7.4-8.6-4.8-6.3-5.2-13.1-1.4-19.9,2.9-5.1,7.1-6.3,13-4.2-.2.2-.4.6-.6.7-7.4,1.2-9.8,4.8-6.4,11.9,2,4.2,5.2,8.7,9.1,10.8,16.6,8.8,22.3,26.7,16.8,44.6-4.9,16.2-16.2,27.5-29.9,36.7-.6.4-1.6.3-3,.5h.2ZM149,93.9c10.9-6.4,13.3-15.8,13.8-25.6.4-9.5-2.7-17.9-11.6-24.2-.9,2-2.1,3.4-2.1,4.9-.1,14.5,0,28.9,0,44.9h0ZM146,93.2v-42.9c-3.7,3.6-3.9,38.9,0,42.9h0Z"/>
  <path class="cls-1" d="M171.1,146.6c4.2-3.2,8-6.1,11.8-9.1,5.8,6.9,9.2,6.8,15.7-.3,4.1,3.1,8.2,6.1,12.3,9.2-3.4,8.7-5.4,10.7-10.1,9.8v40.8c2-.6,3.6-1,6-1.6-6.7,7.8-13,14.9-18.8,21.6-1.2-1.9-2.3-5.2-4.7-7.2-2.5-2.1-6.1-3-10-4.8,10-2.3,7.9-10.1,8-16.9v-28.6c0-6-.4-6.3-6.3-4.4-1.2-2.6-2.5-5.2-4-8.4h.1ZM196.3,151.6c-.5.2-1.1.3-1.6.5v47.2c.5.2,1,.3,1.5.5.7-1.6,1.9-3.2,1.9-4.8.2-12.8.2-25.6,0-38.5,0-1.6-1.2-3.2-1.8-4.9h0Z"/>
  <path class="cls-1" d="M212.6,29.8c-3.5,9.6-.9,17.1,4.4,24.7,4.7,6.7,2.9,14.4,0,21.4-6.4,14.9-16.7,26.9-29.6,37.6,1.1-10.9-6.8-13-15.2-15.8,9.2-1.1,8.9-7.3,8.8-13.7-.2-8.5.2-17-.1-25.5,0-2.7-1.4-5.3-2.5-9.1,10.2-5.9,21.9-12.6,34.2-19.7h0ZM209.7,68.8c.5-7.5-4.2-15.3-11.3-21.9-.7-.6-2.1-.8-3-.5-.4.1-.7,1.7-.7,2.6v41c0,1.6.6,3.2.9,4.7,1.7-.6,3.8-.7,5-1.9,6.1-5.7,9-12.9,9.1-24h0ZM191.7,93.7c.7-1.8,1-2.2,1-2.7v-40.5c0-.9-1.2-1.8-1.8-2.7-.6,1-1.7,2.1-1.7,3.1-.1,12.5-.1,24.9,0,37.4,0,1.5,1.3,3,2.5,5.4h0Z"/>
  <path class="cls-1" d="M219.9,156.7c10.3-5.9,21.8-12.6,34.1-19.6-.4,1.5-.6,2.5-.9,3.5-1.6,5.8-1.2,11.8,2.6,16.4,7.4,9,6.4,18.1,2.3,27.8-4.9,11.5-18.1,27.8-29,35.9.9-10.5-6.4-13-15.2-15.4,11-2,8.6-10,8.7-16.9,0-7.3.2-14.6,0-21.8-.1-3-1.5-5.9-2.6-9.8h0ZM237.2,201.9c6.4-1.1,12.2-8.9,13.7-17.9,2.1-12.4-3.3-25.5-13.7-31.4v49.3ZM234.3,155.4c-.5-.3-1-.6-1.5-.9-.8,1.5-2.2,3-2.2,4.5-.2,11.8-.2,23.5,0,35.3,0,1.9,1.6,3.8,2.4,5.6.5-.2.9-.4,1.4-.6v-44h0Z"/>
  <path class="cls-1" d="M27.2,294.1c.3.7.5,1.3.8,2-.2.1-.4.2-.6.3-.4-.5-.8-.9-1.2-1.4.3-.3.7-.6,1-.9Z"/>
</svg>