<?xml version="1.0" encoding="UTF-8"?>
<svg id="Calque_1" data-name="Calque 1" xmlns="http://www.w3.org/2000/svg" version="1.1" viewBox="0 0 500 300">
  <defs>
    <style>
      .cls-1 {
        fill: #75683b;
        stroke-width: 0px;
      }
    </style>
  </defs>
  <path class="cls-1" d="M86.5,201.2c3.1-.2,6.3-.8,9.3-.5,12.6,1.3,22.3-3.6,29.3-13.6,7.3-10.3,14-21,21.9-33-7.4,0-13.3.5-19.2-.1-8.5-.8-14.4,2.1-20.6,8.2-11.4,11.3-23.7,21.9-36.7,31.4-11.1,8.2-24.3,11.9-38.5,10.6-8.7-.8-16.5-3.8-22.2-10.6-4.6-5.5-4.8-13.2-.7-17.7,3.5-3.8,10-4,11.1,0,.5,2,0,4.8-1.2,6.5-.9,1.3-4.1,2.4-5.1,1.7-1.7-1.1-2.5-3.6-3.5-5.4-3.6,4.9-2.4,11.7,3.8,16.6,8,6.4,17.4,8.4,27.5,7,12.4-1.7,23.2-7.6,32.1-15.8,10.9-10.1,20.7-21.2,31.6-32.4-5.7,0-11.2-.2-16.8,0-16.7.9-26.6-10.7-23.1-27.1,4.9-22.7,32.3-42.4,55.4-39.8,11.5,1.3,17.2,10.8,13.2,22.7-1.3,4-3.6,7.6-4.9,11.6-.6,1.9.2,4.3.4,6.5,1.9-.6,4.2-.6,5.6-1.7,20-15.5,42.2-24.9,67.9-24.8,3.1,0,5.9-2.5,9.3-.2,1.2.8,3.7-.4,6.4-.9,4.4,1.9,9.8,4.4,15.2,6.8,0,.2-.2.5-.2.7-4.2-1.2-8.4-2.4-12.6-3.5-17.9-4.7-32.6.7-43.3,15.2-7.5,10.1-13.6,21.3-20.1,32.1-3.3,5.5-6,11.4-9.3,16.8-9.3,15-21.3,27-39.1,32.6,10.6,2.7,22.2.7,29.6-6.3,6.4-6,11.8-13,17.4-19.8,1.1-1.4,1.3-3.7,1.7-5.6,2.1-11.9,12.4-18.8,22.3-14.2,3.4,1.6,6,4.9,9.5,7.9,2.2-3.4,3.7-9,9.8-8.5.7,0,1.3,1.7,2,2.6,10.1-4.5,16.3-4,21.3,1.8,5.1,5.9,5.8,15.3,1.8,22.2-4.3,7.3-11.3,9.2-23.6,6,.6,5.3-3,11.2,3.9,15.3h-11.6c.7-3.7,1.8-7.3,1.9-10.8.3-10.4,0-20.8-.4-31.4-2.1,5.8-6.9,7.2-12,8.3-4.6,1-9.3,2.2-13.7,3.9-4.7,1.9-5,5.6-1.2,9,3.6,3.3,10.2,4,15,1.3,2.5-1.4,4.8-3.2,7.3-4.9-1,5.4-6.7,9.8-13.4,10.7-9,1.1-14.1-2.1-18.5-12.1-3,3.6-5.9,7.1-8.7,10.5-11.1,13.6-24.9,20-42.7,16.1-2.9-.6-6.1.4-9.2.5-3.8.1-7.5,0-11.3,0v-2.5h0ZM104,135.8c0-.3.2-.6.3-.9,1.9-.1,3.7-.3,6.8-.5-2.6-1.1-4-1.7-6.7-2.8,3.6-.2,5.9-.3,9.3-.5-2.3-1-3.6-1.6-5-2.3,0-.5.3-.9.4-1.4,3,.7,6.1,1.4,9.1,2.1-1.1,2.9-1.6,6.4-3.5,8.7-3.8,4.5-8.4,8.4-13.6,13.5,3.6-.6,7.1-.2,8.8-1.8,6.6-6,12.6-12.6,18.9-19.1-4.8-4.8-5.1-10.3-2.8-16.2,1.1-2.7,2.4-5.4,3.6-8,4.6-9.6,1.3-15.7-9.1-17.1-23.3-3.2-51.3,18.8-53.7,42.2-1.1,10.6,5.3,19.2,15.6,20.3,11.8,1.2,21.2-3.5,29.3-12.8-3-1.3-5.4-2.3-7.8-3.4h0ZM192.7,104.1c-33,3.4-53.4,24.6-74.9,47.2h28.4c1.2,0,2.7-1,3.4-2.1,11-17.8,24.7-33.1,43.2-45h0ZM201.2,170.3c0,2.2-.1,4.4,0,6.6.3,4.5,1.6,8.3,6.8,9.4,4.8,1,9.8-1.3,11.9-5.9,2.9-6.5,2.5-12.9-1.2-19-3-5-7.6-5.7-12.8-3.4-5.9,2.7-4.5,7.6-4.6,12.2h0ZM183.5,165.4c-2.5-7.5-7.1-10.3-12.9-8.6-5.3,1.6-8.1,7.2-6.7,13.9,6.4-1.7,12.9-3.5,19.7-5.3h-.1Z"/>
  <path class="cls-1" d="M433.1,175c.9-1.5,2.3-2.9,2.5-4.5.9-7.9,4.5-13.7,12.3-15.8,8.2-2.1,14.3,1.2,18.8,9.8,2.6-8.1,7.6-10.2,14.6-9.1,4.1-.4,8.3-.9,12.5-1.3-.3,5.8-1,6.4-6.8,5.4-4.7-.8-5.9,2.4-6,5.9-.3,6.6,0,13.2,0,20,2.1,0,3.8.2,6,.3-.4,1.1-.4,1.9-.9,2.3-3.6,3-7.6,5.5-11,8.8-10.4,10.1-22.4,16.5-37.3,16.3-8.7-.1-16-2.8-19.7-11.4-3.5-8.2-1.4-15.3,4.8-21.5.9-.9,1.6-2.4,1.7-3.7.2-4,.2-8.1,0-12.1-.2-4.9-4.3-7.8-8.7-5.8-4.5,2-8.2,4.9-7.7,10.7.2,2.7,0,5.5,0,8.3s-1.3,8.1,3.9,10.5h-13c6.2-6.1,2.7-13.7,3.5-20.7.5-4.3.3-8.8-5.7-9.3-4.5-.4-10.1,4-10.5,8.7-.4,5.3-.3,10.7,0,16,.1,1.7,2.1,3.2,3.7,5.3h-11.4c.7-4.1,1.6-7.9,1.8-11.8.3-5.6,0-11.2-.5-17.2-4.5,10.9-15.1,9-23.2,12.1-3.5,1.3-8.6,1.5-7.9,6.6.6,4.6,5.1,7.3,9.5,6.6,5.2-.8,10.2-3.1,14.7-4.6-.3,3.7-6.3,8.3-13.6,9.1-8.7.9-15.3-3.5-17.5-11.6-2.4-9,1.3-18.1,8.8-21.6,7.8-3.7,14.6-1.2,21.3,7.6,4.1-3.5,8.3-7.1,13.3-11.4.6,2.9.9,4.4,1.3,6.4,7.1-4,14.3-7.8,20.7.9,3.3-1.6,6.4-3.6,9.8-4.6,6.9-2.1,12.4,2.1,12.9,9.3.3,3.9.7,7.8,1.1,11.7-2.2,4.6-2.1,8.7,2.6,12.5-3.7.6-7.1.8-10.4.5-4.3-.4-5.4,1.7-5.3,5.5.2,9.1,7.9,16.5,18.4,16.7,17.8.4,30.7-9,42.3-21.6-2.6-.4-4.8-.7-7.9-1.2,4.7-3.7,5.9-15,3.7-29.6-1.5,1.2-3.2,2-3.6,3.1-1.6,4.7-5.2,6.2-9.5,7.1-4.8,1.1-9.6,2.3-14.3,4-5.2,1.9-5.6,6-1.3,9.6,3.9,3.3,9.9,3.6,15,.8,2.2-1.2,4.2-2.7,7.2-4.6-.6,2-.6,3.2-1.3,3.8-4.9,4.9-10.6,7.8-17.7,6.8-6.5-.9-10.4-4.8-12.6-10.8-.5-1.3-2.3-2-3.5-3v-.2ZM461,165.6c-2.5-7.2-7.2-10.2-12.6-8.7-5.6,1.6-8.8,7.7-7.3,14.1,6.5-1.8,12.9-3.5,19.8-5.4h.1ZM366.6,165.5c-2.2-7.2-6.9-10.1-12.5-8.6s-8.5,7.2-7.1,14c6.4-1.8,12.9-3.6,19.6-5.4Z"/>
  <path class="cls-1" d="M234.1,143.4c-4.6,3-7.9,5.1-11.3,7.2-.3-3.9,1.5-6.1,5.2-7.3,4.9-1.5,9.7-3.4,14.4-5.3,7-2.8,8.8-5.6,8.4-12.9,3.3,6.4,1.3,12.8-5.7,14.9-5,1.5-6.2,4.1-5.7,8.7.3,3.2,0,6.4,0,9.9,3.9-1.7,7-3.6,10.5-4.5,6.9-1.8,11.6,1.9,11.8,9,.2,5.3,0,10.7,0,16s.6,7.3,8.1,5.8c-1.8-6-3.3-12.7,3.7-15.8,5.1-2.3,11.2-2.4,18-3.8-1.2-2.6-1.8-6.7-4-7.9-6.4-3.3-10.6,1.7-14.8,6.1,0-5.3,0-10.2,6.4-14.3-1.1,2.9-1.6,4.4-2.1,5.6,4.5,0,9.8-1.4,13.4.4,3.3,1.7,4.8,7,7.5,11.2,3.7-4.8,5.5-13,14.9-12,.1.8.4,2.4.7,3.9,3.3-1.5,6.4-3.4,9.7-4.3,6.4-1.7,11.8,2.4,12.2,9.1.3,4.8.2,9.5.1,14.3,0,3.9-1,8,3.9,10.5h-11.4c.7-3.8,1.6-7.4,1.9-10.9.3-4,0-8.1,0-12.1s-1.9-6.9-6.5-7c-4.7,0-10.1,3.6-10.2,7.3-.2,5.7-.3,11.4,0,17.1.1,1.7,1.8,3.4,3,5.6h-13.1c7.6-4.7,3.6-11.4,4.4-17.2.5-3.7,0-7.6-1.1-12-3.4,4.3-8.3,8.1-9.8,13-1.5,4.8-3.2,11.5,3.4,15.6l-.7,1.5c-3.2-.6-6.4-1.2-9.6-1.8-5.2,2-10.6,2.3-17,.6-4.3-1.1-9.3.6-14,.9-1.9.1-3.8,0-6.3,0,6.3-9.2,3.1-18.5,3-27.3,0-1.1-3.2-2.9-5.1-3.1-6.2-.8-11.1,4-11.1,10.2s-.3,6.6,0,9.9c.3,3.1,1.3,6.1,2.2,9.7h-9.8c.8-4.2,2-8,2.1-11.9.3-10.3,0-20.5,0-32.6h.4ZM282.3,185.4c5.7,0,8.8-3.2,8.8-9.5s-1.9-7-6.5-7-10.5,3.3-10.7,7.9c-.2,5,3.3,8.5,8.5,8.5h0Z"/>
</svg>