<?xml version="1.0" encoding="UTF-8"?>
<svg id="Calque_1" data-name="Calque 1" xmlns="http://www.w3.org/2000/svg" version="1.1" viewBox="0 0 500 300">
  <defs>
    <style>
      .cls-1 {
        fill: #75683b;
        stroke-width: 0px;
      }
    </style>
  </defs>
  <path class="cls-1" d="M308.1,195c12.3.2,23.6-3.1,34.8-6.8.1.4.3.8.4,1.2-1.3.8-2.5,1.6-3.8,2.3-11.6,6.3-24.2,8.8-37.2,9.4-18.3.8-36.1-2.4-53.6-7.2-18.6-5.1-37.5-8.9-57-8.2-8.8.3-17.4,1.7-25.5,5.5-.5.2-1,.4-1.4.5h-2c4.7-4.6,9.9-7.3,15.6-9.4,13.8-5,28.1-5.2,42.6-4,18.8,1.5,36.8,6.9,54.8,11.9,4.4,1.2,8.8,2.2,13.6,3.3v-65.1h-3.8c1.2,5.2.4,7.7-3.3,9.6-4.4,2.3-10.8,1.7-13.5-1.2-2-2.2-2-4.6.6-9.1-3.8,1-6.6,2.7-8.2,5.7-1.3,2.4-2.4,5.2-2.5,7.9-.3,8.6-.1,17.3-.1,26.6h11.8v1.2h-39.6c0-.3,0-.6-.1-.9,1.3-.2,2.7-.5,4-.5h5.3v-38.9h-8.6c-.1-.4-.2-.8-.4-1.1,1-.4,2.1-1.1,3.1-1.1,5-.2,10,0,15-.2,2.9-.1,5.7-.8,9-1.4v8.5c1.9-1.8,3.2-3.1,4.6-4.2,6-4.4,12.4-6.1,19.6-3,1.1.5,2.4.5,3.7.5,4.8,0,9.6-.1,14.4-.5,2.3-.2,4.6-1,7-1.6.5,1.8,1.1,3.9,1.7,6.1,10.8-7.6,21.7-6.9,32.3-1,13.5,7.6,16.6,27.2.1,36.5-7.4,4.2-15.3,5.7-23.5,3.7-3.5-.8-6.6-3-10-4.7v29.8h0ZM332.7,147.7h.6c-.2-3.9,0-7.9-.8-11.8-.4-2.2-1.8-4.8-3.6-6.1-4.3-3.2-9.3-2.5-13.9-.4-4.2,1.9-6.8,5.1-6.9,9.9-.1,5.8-.1,11.6,0,17.5,0,4.9,2.7,8.1,6.9,10.2,9.1,4.4,17,0,17.8-9.9.2-3.1,0-6.2,0-9.3h-.1Z"/>
  <path class="cls-1" d="M76.9,128.9c-3.1-.9-6.3.6-8.9-.9,0-.3,0-.7,0-1,8.9-.5,17.9-1,27.1-1.6v9c5.6-6.6,12.4-8.7,19.9-8.9,7.5-.3,14.4,1,18.5,8.6,6.4-6.9,14.5-9,23.3-8.7,9.8.4,14.6,5.2,14.9,15,.2,7.9,0,15.8,0,23.7v3.2c3.1,1.3,6.4-1.3,9.2,1.4-6.4,1.7-33.4,1.1-34.9-1.3,1.9.1,3.5.1,5,.4,1.7.2,2.5-.3,2.5-2.1,0-9.7.4-19.4,0-29-.3-7.6-3.8-9.2-10.5-7-5.4,1.8-9.4,5.4-9.7,11.4-.4,8.7,0,17.4,0,26.3,2.7.2,5,.4,7.3.6v.8c-.2.1-.5.4-.7.4-9.7.2-19.5.5-29.2.6-.9,0-1.9-.7-2.8-1.1.9-.4,1.8-.9,2.8-1.1,1.4-.2,2.9,0,4.4,0,0-.9.2-1.6.2-2.3,0-8.3.3-16.7.2-25,0-2.3-.9-4.6-1-6.9-.2-3.9-3-4.5-5.9-4.5-6.1-.1-12.1,4.7-13.1,10.8-.5,3.3-.5,6.6-.6,10v17.8c2.6.2,4.7.4,6.9.6v1.2h-22c-.9,7.2-5.4,10.2-11.5,11.3-7.6,1.4-14.5.4-19.6-6.4-9.1,7.5-19.4,8.5-30.2,5.5-3.8-1.1-8.1-3.3-10.3-6.4-4.3-6.1-1.9-13.4,3.1-17.2,2.6-1.9,5.8-3.6,8.9-4.2,6.8-1.3,13.8-1.8,20.7-2.5,2.4-.3,4.7-.3,7.9-.6-.5-5.8-.7-11.4-1.6-17-.2-1.5-2.3-3.4-4-3.9-6.3-2.2-12.7-1.5-19,.6-.7.2-1.2,1-2.3,1.8,1.6.9,2.6,1.6,3.8,2.1,2.7,1.2,4.2,3.2,4,6.3s-2,4.9-4.8,5.9c-3.6,1.3-7,.9-10.2-1.2-3.5-2.3-4.7-6.4-2.1-9.6,2.1-2.6,4.9-5.1,7.9-6.3,12.7-4.9,25.6-4.1,38.1.7,7.3,2.8,8.9,9.3,9,16.3,0,7.1,0,14.2-.2,21.2,0,2.1,0,4.2.3,6.2.2,1.3,1,3.2,1.9,3.4,1.9.5,4.3.6,5.4-1.8.7-1.6,1.4-3.3,1.5-5,0-13.2,0-26.4,0-39.7h.3ZM49.2,150.7c-5.8.6-10.4.9-15,1.6-5.2.9-7,2.9-7.5,8.1-.2,2.6,0,5.2,0,7.8.4,5.9,3,8.6,8.4,9.1,5.7.6,11.3-2.5,12.1-7.5,1-6,1.2-12.2,1.8-19.1h.2Z"/>
  <path class="cls-1" d="M410.3,126.9c9.2-.5,18.3-.9,27.8-1.4v42h6.8v-6.7l.8-.6c.8.7,1.9,1.3,2.5,2.1,2.6,3.6,4.7,7.7,7.8,10.8,5.7,5.5,12.9,7,20.6,4.7,3.8-1.1,7.1-3.1,8-7.8.7-3.9-.2-6.5-4.2-7.5-4.2-1.1-8.6-1.4-12.9-2.1-3.9-.6-7.9-1.1-11.6-2.2-5.4-1.6-10.1-5-11.2-10.8-1.3-6.8.5-13.1,6.1-17.7,6.3-5.2,13.6-6.3,21.5-4.6,2.1.5,4.2,1.2,6.3,1.7,3,.7,5.8.6,7.9-2.1.2-.3.7-.2,1.8-.6v17.4c-1.8.8-2.5-.8-3.1-2.3-2.8-6.4-7.3-10.8-14.2-12.2-4.5-.9-8.9-.7-13.2,1.2-3.9,1.7-5.7,4.6-5.3,8.3.3,3,2.2,4.9,6.6,5.6,6.3,1.1,12.6,1.6,18.8,2.7,2.8.5,5.7,1.3,8.3,2.6,6,2.8,8.6,10,7.4,16.3-2.5,12.7-16.1,20.1-30.7,16.4-2.3-.6-4.6-1.3-6.9-1.8-2.8-.6-5.3-.4-7.5,1.8-.7.7-1.9.8-3.3,1.3v-12.1h-57.7c0-.4-.1-.8-.2-1.2,1.1-.2,2.3-.5,3.4-.6,1.3,0,2.6,0,4.3.2v-4.9c0-7.5.2-15,.1-22.5,0-2.3-.6-4.6-1-6.9-.5-3.2-2.9-4.3-5.7-4.7-7-.9-15.8,6.4-15.4,13.5.5,8.3.1,16.6.1,25.1,2.8.2,5.2.4,7.7.5v1.1h-35.5c0-.4,0-.7-.1-1.1,3.1-.2,6.2-.4,9.5-.6v-64.4c-2.1,0-4.2.1-6.2,0-.9,0-1.7-.8-2.6-1.2.9-.4,1.8-1.1,2.7-1.1,4.6-.1,9.2.2,13.7-.1,3.6-.2,7.1-1.1,10.7-1.7v35.4c1.8-1.8,2.8-3.3,4.3-4.2,8.1-4.8,16.8-5.9,25.8-3.4,6.9,1.9,9.7,5.6,9.8,13,.2,8.1,0,16.2,0,24.4v3.5h6.8v-39.4h-9.5v-1.2h.1Z"/>
  <path class="cls-1" d="M204.8,170.6c-7.7.3-16.2-2-23.2-7.5-5.7-4.4-8.4-10.9-7-18.6,1.3-7.2,6-11.8,12.1-14.7,12.8-6.2,25.9-6.3,38.7.2,7.1,3.6,11.4,9.3,11.6,17.5.2,8.4-4.2,14.1-11.1,18.2-6.1,3.6-12.7,4.9-21.1,4.9ZM195,148.1h0c0,3.7-.2,7.5,0,11.2.2,2.1.6,4.6,1.9,6,3.5,3.8,8.2,4.2,13,2.9,4.4-1.1,6.1-4.5,6.2-8.7.2-7.4.3-14.8,0-22.2,0-2.3-.5-5.2-1.9-6.9-3.4-4.3-8.4-4-13.2-2.9-4.1.9-5.9,3.4-6.2,8.3-.3,4,0,8.1,0,12.2h.2Z"/>
  <path class="cls-1" d="M429.4,117.5c-3.1-1-5.9-1.6-8.3-2.8-3.3-1.6-3.8-7-1.1-10,3.9-4.4,13.5-4.7,17.7-.6,2.9,2.9,2.9,7.8-.5,10.1-2.3,1.6-5.2,2.3-7.7,3.3h-.1Z"/>
</svg>