<?xml version="1.0" encoding="UTF-8"?>
<svg id="Calque_1" data-name="Calque 1" xmlns="http://www.w3.org/2000/svg" version="1.1" viewBox="0 0 500 300">
  <defs>
    <style>
      .cls-1 {
        fill: #75683b;
        stroke-width: 0px;
      }
    </style>
  </defs>
  <path class="cls-1" d="M397.9,60.7c-.9,4-1.6,8.1-2.9,11.9-1.4,4.1-4.8,8-4.9,12.1-.4,31.8-.3,63.5,0,95.3,0,4.2,1.6,8.4,2.3,11.8-9.3,5.4-18.4,10.7-27.6,15.8-1.2.6-3.2.7-4.4,0-2.7-1.4-5.3-3.1-7.7-5.1-11.4-9.5-12.4-15.3-4.9-28.1.5-.9,1.6-1.7,2.6-2,7.6-2.4,15.2-4.7,22.9-7.1,1.5,8.5-4.6,15-18.1,19.3,2.3,2.8,4.5,5.4,6.8,8.2,4.6-2.9,8.9-5.7,13.4-8.5v-63.5c-4.4-1.8-8.7-3.5-12.6-5.1v44.7c-9,2.2-19,4.6-27.8,6.7,2,10.4.8,20,1.1,29.4.2,9.5,0,19.1,1.5,28.6v-16.6c6.6,2.5,13.7,3.2,17.3,7.1,3.4,3.6,3,10.7,4.3,16.1-5.8,3.6-10.8,7.3-16.3,10-2.1,1-5.4,0-7.9-.7-13.1-4.2-13.1-4.3-13.1-18.2v-50.9c-9.8,3.1-19,5.9-28.1,8.8-2.9.9-6,1.8-8.6,3.3-2,1.2-4.3,3-5,5-.8,2.5-1.1,6.3.3,8s5.1,1.3,8.1,1.9c-2,4.3-6.1,5.5-10.8,4.7-5.6-1-9.1-4.6-10.2-10.2-.4-2.2-.4-4.6-.2-6.8.4-3.4.1-5.9-3.3-8.2-1.8-1.1-1.9-4.8-2.5-6.6,4,.7,7,2,9.4,1.4,6.5-1.8,12.8-4.3,19-7.1,1.7-.8,3.6-3.4,3.6-5.2.2-26.2.2-52.4,0-78.6,0-4.3-2-8.6-3.1-13.1,3-2.3,6.6-5,10.3-7.9,5.3,3.8,7.8,9.1,7.8,15.7v41.9c4.1,1.4,8.3,2.9,13.7,4.8-1.8-19,3-37.5-3.9-55.8,3-2.7,6.5-5.8,11.3-10.1,2.2,4.8,5.8,9,5.9,13.3.6,25.4.5,50.7.5,76.1s-1.5,3.4-2.7,4c-3.4,1.4-7,2.1-10.6,3.1-.6-5.1,0-10.7-2.2-14.3-1.9-3-7.3-3.7-11.6-5.6v26.1c12.3-3.8,24.2-7.3,36.1-11.2,1.2-.4,2.6-2.6,2.6-3.9,0-26.4-.3-52.8-.8-79.2,0-3.7-1.8-7.4-2.6-10.5,3.4-2.8,7.3-5.3,10.5-8.6,10.5-10.8,20.7-21.8,31.2-32.6,1.4-1.5,3.7-2.1,5.6-3.1.4.6.8,1.2,1.1,1.8-.9,1.4-1.8,2.7-2.9,4.4,5,1.4,9.6,2.5,14.1,4,10.8,3.6,21.3,8.9,32.4,10.7,11,1.9,22.5.4,33.9.4-1.8,10.3-6.7,13.8-22.7,16.2-.4,6.5-7.5,9.9-19.1,10-2.7,2.2-4.2,4.2-6.2,5-8.3,3.3-15.6.1-22.7-4.2-.4-.3-.8-.6-1.2-1v1.9h-.4ZM396.3,57.7c-3.2-4-6.1-7.7-8.9-11.3.4-.5.7-1,1.1-1.4,1.4.8,3.1,1.4,4.3,2.4,4,3.5,7.5,7.7,11.8,10.7,4.8,3.4,10.4,4.8,17.1.9-8.1-5.2-15.6-10-23.2-14.8.3-.7.6-1.4.8-2.2,13.6,5.4,25.7,19.2,43.9,7.9-12.4-3.7-23.3-6.9-34.1-10.1.2-.8.4-1.6.5-2.4,2.1.1,4.4-.1,6.4.4,6.7,1.8,13.3,4.5,20.1,5.6,8.9,1.5,18.2,2.5,25-3.9-16.2-2.8-32.5-5.7-49.6-8.7-5.7,6.8-14.5,7.4-23.9,6.6-2.8-.2-6.4.2-8.6,1.7-3.9,2.9-7.2,6.7-10.4,10.5-1,1.1-1,3.4-.8,5.1,0,.6,1.9,1.1,2.9,1.5,1.9.9,4,1.6,5.7,2.7,2.2,1.5,3.8,4.1,6.1,5,2.3.9,5.2.1,7.8.1-.4-2.5-.9-5-1.3-7.7,1.3.2,4,.7,7.1,1.2l.2.2ZM363.2,69.1c-.6,1.8-1.4,3.3-1.5,4.8-.2,6,.3,12-.4,17.9-.6,5.5,1.9,8.4,6.5,10.3,2.2.9,4.5,1.8,7.5,2.9,0-5.3-.6-10.1.1-14.6,1.5-9.9-1.7-16.9-11.1-20.9-.2,0-.4-.1-1.3-.4h.2Z"/>
  <path class="cls-1" d="M212.1,198.4c3.4,1,6.9,1.4,8-3,1.3-5-.8-9.2-5.5-11.2-7-2.9-14.3-5.1-21.5-7.6-1.2-.4-2.4-.7-3.5-1.1-8.5-2.8-12.4-9.1-11.7-18.8,3.5,1,7,2,10.4,3,3.3,1,6.6,2,10.2,3.1,1.2-4.5,2.5-8.7,8.8-7.8-.9,1.6-2.5,3.1-2.3,4.1.4,1.9,1.6,4.2,3.1,5.2.9.6,4.1-.8,4.7-2,1.3-2.7,2-5.9,2.1-8.9.1-25.6.2-51.2,0-76.7,0-4.8-1.4-9.7-2.3-15.5,7-2.7,8.6-13.8,19.2-15.1-5.8,11-1.4,22.1-3.3,33.3,15.8-3.1,28.6-10.6,41-19.3,1.1,2.1,1.7,4.6,3.2,5.9,9.8,8.4,11.2,19.2,10.8,31.3-.6,18.3-.3,36.7,0,55.1,0,4-1.1,6.7-4.7,8.4-5.7,2.6-11.4,5.1-18.2,8.2,0-5.5-.3-9.6.2-13.6.1-1.3,1.9-2.9,3.3-3.6,3.9-2,5.6-4.6,5.5-9.3-.3-14.6-.1-29.1-.1-44.1-1.9.6-3.2,1.1-4.5,1.4-6.5,1.5-9.4,4.9-8.8,12.1.7,9,.2,18.1.2,28-4.7-1.7-8.9-3.2-13.4-4.8,0-12.5-.5-24.9.4-37.2.2-2.7,4.5-5.8,7.5-7.5,4.9-2.8,10.3-4.6,15.5-6.8-.1-.7-.3-1.4-.4-2.1-1.7-.1-3.6-.8-5-.3-8.8,3.3-17.5,7-26.3,10.3-4.2,1.6-6.1,3.9-5.9,8.7.4,9.5.3,19,0,28.5-.1,3.8,1.3,5.6,4.6,6.7,7.6,2.5,15.1,5.1,23.7,8,0,8.7-.4,17.5.2,26.3.3,4.1,2.9,8,4,12,.7,2.6,1.2,5.4.9,8-.4,3.6-2.1,7.1-2.4,10.8-.7,6.9-.8,13.9-1,20.9-.1,3.1,0,6.2,0,9.4.7,0,1.4,0,2.2.1.3-3.2.6-6.4.9-10.2,14.9-2.8,28.3-9.4,39.6-19.1-3.3-1.9-6.3-3.6-10.1-5.8,7.6-6.9,13.8-12.5,19.9-18.1.4.4.8.9,1.2,1.3-2.6,4.3-5.3,8.6-7.9,12.8,6.3,5.5,6.5,7.3,2.3,17,2.3-.5,4.2-.9,6.2-1.2,2-.3,4.1-.3,6.6-.4v14.3c-5.4,1.1-10.7,2.1-17.3,3.5,5.7,2.1,10,3.7,14.2,5.3-.8,9.1-5.5,14.1-14.5,14.1s-17.6-1.1-26.4-1.3c-3.6,0-7.2,1.2-10.9,1.5-1.9.2-3.8-.3-5.7-.5-2.4,13.8-5,29.1-7.7,44.4-.8,0-1.6,0-2.4.1-2.1-10.8-5.1-21.5-6-32.4-1.6-19.3-1.8-38.6-2.7-58,0-1.8.4-4.5-.6-5.3-5.5-5-1.7-8.9,0-14.1,2.6-8,3-16.7,4.4-24.9-5.8-1.9-10.1-3.2-15.2-4.8,0,6.9-.2,13.3.1,19.8.1,1.8,1.9,3.6,3,5.4,1.4-1.4,2.8-2.7,4.1-4,3.1,4.6,2.3,6.8-4.7,11,1.8,8.3,2.4,16.6-6.9,21.2-5.1,2.5-10,1.6-13.6-3.2.4-.3.8-.7,1.2-1h0ZM282.8,237.7c0,.5.1,1,.2,1.5,14.8,1.3,17,1,23.4-4.1-8.6.9-16.1,1.8-23.5,2.6h-.1Z"/>
  <path class="cls-1" d="M73,60.4c-11-.9-21-5.6-19.9-11.3-16.3-2.7-19.7-5-23.3-16,8.7,0,17.4,1.4,25.6-.3,14.2-2.9,28-7.6,42-11.6,4.3-1.2,8.6-2.2,13.6-3.4-1.4-1.8-2.4-2.9-3.3-4.1.3-.6.6-1.3.9-1.9,2,1,4.5,1.4,6,2.9,10.8,11.1,21.3,22.5,32,33.5,2.8,2.8,6.3,4.9,9.1,7.1-.7,4.9-2.1,10.4-2.2,16-.5,23.3-.6,46.6-1.1,69.9-.1,5.3,0,9.7,7.1,9.2v14.7c-7.8-1.5-15.5-2.9-22.4-4.2v-45.1c-3.2,1.3-7.4,2.7-11.2,4.9-1.1.7-1.4,3.5-1.5,5.3v74.4c-6.1-2.5-11.4-4.8-16.4-6.8,4.5-35.7,1.4-71.5,1.9-107.2,0-4.6-3.5-9.2-5.2-13.8-1.5-4-2.9-8.1-4.4-12.4-5.6,3.4-12.6,7.1-20.7,4.3-2.4-.8-4.4-2.7-6.6-4h0ZM105.6,56.8c1.8-.1,3.6-.3,4.1-.3v8.1c2.7-.2,5.7.3,7.9-.7,2.5-1.2,4.1-3.9,6.3-5.7,1.2-1,2.9-1.3,4.3-2,1.4-.6,3.5-.9,3.9-1.9.5-1.2,0-3.3-.9-4.4-2-2.6-4.6-4.7-6.7-7.2-3.8-4.4-8-6.1-14.1-5.2-7.8,1.2-15.6.2-21.8-6s-3.6-1-5.3-.7c-8.8,1.9-17.5,4.3-26.3,5.9-6.3,1.1-12.7,1.3-19.1,1.8,0,.6-.3,1.2-.4,1.8,4.6,1.3,9.3,4.1,13.7,3.6,10.9-1.3,21.6-4.1,32.5-6.1,2.1-.4,4.3,0,6.5,0,0,.8,0,1.5.2,2.3-10.8,3.2-21.6,6.4-32.3,9.5,0,1,.2,2,.3,3,4.9.6,10.2,2.7,14.6,1.5,7.4-2,14.2-6,21.3-9.2,1.9-.9,3.8-1.7,5.8-2.5l1.1,2c-7.5,4.8-15,9.6-22.5,14.4.2.6.5,1.2.7,1.8,3.5,0,7.8,1.3,10.5-.3,5.9-3.3,11.1-8,16.6-12.2,1.5-1.1,3.2-2.1,4.7-3.1.4.5.8,1,1.2,1.6-2.5,3.2-4.9,6.4-7.4,9.7-.4.3-.7.7-1.1,1,.6-.1,1.2-.2,1.8-.4h0ZM138.1,67.6c-4.1,2.9-6.2,4.3-8.3,5.9-1.8,1.4-4.9,3-5,4.6-.5,8.7-.2,17.4-.2,26.1.5.4,1.1.8,1.6,1.2,4.1-3,11.1-5.5,11.8-9.1,1.6-8.7.3-18,.2-28.8h0Z"/>
  <path class="cls-1" d="M159.4,209.1c.5,9.6-.6,15.5-3.3,17.7,1.4.9,2.6,1.8,5,3.5.4-52.8,1.4-104.5-.5-155.8,4.3-3.9,9.1-8.3,13.9-12.8.1-.1.2-.5.3-.5,6.7.5,13.8,0,20,1.9,3.4,1.1,5.6,6.4,7.9,10.1.9,1.5,1.2,3.6,1.2,5.4v58.2c-3.3-.6-6.3-1.2-9.4-1.6-11.1-1.4-18.8,5.4-18.8,16.5v71.7c0,13.7-3.9,18-17.7,19.1-1.2.1-2.6-.7-3.8-1.4-1.6-.9-3.1-2-4.7-3-11.1-6.8-11.4-7.3-8.8-20.1.2-1.2,1.3-2.7,2.4-3.1,5.1-2.1,10.3-3.9,16-6l.3.2ZM186.3,76.3c-.8-.1-1.6-.2-2.4-.4-2.6,2.8-7.4,5.5-7.6,8.5-.8,13.2-.4,26.6-.4,40.5,3.9-1.2,7.4-1.8,10.4-3.3s2.8-2.9,2.8-4.5c.2-10.5.3-21,0-31.4-.1-3.2-1.9-6.3-2.8-9.5h0Z"/>
  <path class="cls-1" d="M421.5,145.7c-1.2-2.8-2.4-5.5-4.2-9.6-6.4,13.6-13.7,24.3-25.6,32.4-.2-8.7-1.3-15.9,4.7-23.1,4.8-5.8,7.6-13.6,9.9-20.9,1.7-5.6,3.9-9,9.9-9.4,1.8-.1,3.6-.8,4.5-1,2.3,4.3,4.1,8.5,6.6,12.2,3.4,5.2,3.4,10.7,3.3,16.5-.2,8.5,0,16.9-9.7,20.8,4.7,3.6,8.5,6.5,12.5,9.5,2.8-3.8,5.9-7.3,8-11.2,6.8-12.2,7.1-25.2,3.5-38.4-1.8-6.7-4.3-13.3-5.9-20.1-2.1-8.6,1.8-17.6,9.2-22.5,17-11.1,44.9,2.5,46.2,22.6.4,5.8-1.4,10.9-6.9,15.5,1.1-3.6,2.1-6.1,2.5-8.7,1.3-8.3-1.8-15-8.7-19.7-7.6-5.2-16-6.5-24.6-3.2-5.1,1.9-8,6.6-7.3,11.8.9,6.8,2.3,13.8,5.1,20,8.6,18.8,7,36.8-2.9,54.3-6,10.6-23.3,13.1-32.3,4.8-2.3-2.1-4-5.4-4.6-8.5-1.7-8.6-2.2-17.2,6.3-23.2,1-.7,1.7-1.8,2.5-2.7-.7.6-1.4,1.2-2.2,1.8h.2ZM421.5,166.5c-1.1,0-1.5-.2-1.9,0-.3,0-.6.4-.9.7.4.2.9.7,1.3.7s.7-.6,1.6-1.3h-.1Z"/>
  <path class="cls-1" d="M71.2,135c0-2-.2-4.2.5-6,1.1-3.3,2.9-6.3,4.4-9.5.5.9.8,1.6,1.8,3.4v-9c4,1,7.8,1.6,11.3,2.9,1.5.6,2.9,2.7,3.3,4.3,2.7,10.7,7.8,20,14,29.2,2.9,4.4,2.2,11.2,3.4,18.6-14-7.7-19.8-20.1-27.1-31.2-2.3,2.4-4.1,4.3-6,6.3.6.7,1.4,1.9,2.4,2.8,8.5,7.3,7.8,15.3,4.6,25.5-2.1,6.5-5.5,9.4-10.5,10-8.3,1-17.7,2.5-23.3-6.4-11.3-17.9-13.3-36.5-4.7-56.3,2.8-6.4,4.7-13.6,5.2-20.6.6-7.6-4.9-12.6-12.6-13-3.7-.2-7.5-.2-11,.8-15,4.2-20.4,15.8-14.7,31.1-6.1-4.2-8.2-12-5.4-20.5,5.1-15.9,28.8-25.3,43.6-17.4,8.4,4.5,13,14.1,10.8,23.4-1.6,6.6-3.9,13-5.7,19.5-4.5,16.6-3.2,32.2,8.2,46,.9,1,1.3,2.4,2.3,4.5,4.1-3,8.2-6,12.9-9.4-11.4-6.7-10-17.5-8.2-28.3.2.7.3,1.4.5,2.2.3,0,.6-.2.8-.2-.2-.9-.4-1.7-.6-2.6h-.2ZM80,166.7c-.3,0-.5.1-.8.2.2.7.3,1.3.5,2l.8-.2c-.2-.7-.3-1.3-.5-2Z"/>
  <path class="cls-1" d="M238.3,246s-.3.1-.4,0c-11.4-4.9-23-3.1-34.7-1.6-4.5.6-9.4-.4-13.9-1.7-5.6-1.6-9-5.6-8.2-12.4,4.2-1.5,8.5-3.1,14.1-5.2-5.1-1.1-9-2.6-13-2.7-4.9,0-6.2-2.1-5.6-6.4.4-2.8.6-5.6,1-9,4.8.5,9.2.9,13.7,1.4-5-8.7-4.8-10.5,1.6-16.4-2.2-3.9-4.5-7.9-6.9-12.2,9.2,1,11.5,11,20.8,15.2-4.1,2.7-7,4.6-10.2,6.8,11.2,9.8,25,16.5,41.6,19.1v25h0ZM192.5,234.3c0,.6-.2,1.2-.3,1.8,6,4.5,9.3,5,25.3,2.5-8.3-1.4-16.7-2.9-25-4.3Z"/>
  <path class="cls-1" d="M126.3,185.3c4.4,2.8,7.9,5.1,11.7,7.6,2.3-2.6,4.4-5.1,7.1-8.1-4.1-1.3-7.6-2.7-11.2-3.4-6.3-1.3-8.9-4.7-7.7-11.1.3-1.4,0-2.9,0-4.4,8.3,2.4,16.7,4.1,24.5,7.3,2.3.9,2.8,6,4.7,8.8,4.1,5.9,2.1,10.6-2.4,15.1-2.2,2.2-4.3,4.5-6.7,6.4-8,6.4-11.6,6.2-18.8-.8-.6-.6-1.2-1.6-1.3-2.5,0-4.6,0-9.3,0-14.8h0Z"/>
  <path class="cls-1" d="M210.8,199.4v-1.8c.4.3.8.5,1.2.8-.4.3-.8.7-1.2,1Z"/>
</svg>