<?xml version="1.0" encoding="UTF-8"?>
<svg id="Calque_1" data-name="Calque 1" xmlns="http://www.w3.org/2000/svg" version="1.1" viewBox="0 0 500 300">
  <defs>
    <style>
      .cls-1 {
        fill: #75683b;
        stroke-width: 0px;
      }
    </style>
  </defs>
  <path class="cls-1" d="M4,176.8c10.9-1.8,22.1-10,25.6-19-.8-.3-1.5-.5-2.4-.8.3-.4.5-.8.7-.8,2.7.3,3.8-1.2,4-3.5.3-4.3.6-8.6.6-12.8s-.9-4.5-4.1-4.1c-.4,0-.8-.4-1.9-.9,1.7-.5,2.8-.8,4.2-1.2-5.1-11.1-13.9-17.6-25.4-20.9,8-.3,14.8,2.3,21.2,6.6,1.5,1,3.5,1.6,5.3,1.7,7.1.3,14.3,0,21.4.5,3.4.3,7,1.5,9.8,3.4,4.8,3.2,5.5,8.2,3.6,13.9,11.3-1.1,22,1.2,32.6,4,1.4-5.5.7-6.5-6.6-8.9,2.2-.6,4.3-.6,5.3-1.6,1.1-1.1,1.5-3.1,1.6-4.8.2-4.6-3.4-4.7-7-4.7,0-.3.3-.6.4-.9.5-.1,1.1-.4,1.6-.4h33.4c.7,0,1.4.4,2.1.6v9.6c-.2.1-.4.3-.7.4-.5-.8-1.2-1.6-1.3-2.4-.3-2.7-1.6-4.8-4.2-5-5.6-.3-11.3,0-16.9,0v18.1h6.7c.8,0,1.5.1,2.3.2,6,0,6.3-.2,8.7-5.9,0-.3.9-.4,1.4-.6v10.1c2.7-1.8,4.9-3.3,7.1-4.8,2.3-1.3,4.6-2.7,6.9-4,3.4-2.1,6.7-4.3,10.1-6.4,5.6-3.4,11.3-6.8,17-10.1,9.5-5.5,19.5-9.5,30.4-11.6,15.7-3,35.5,8.6,42.1,21.3.4.8.9,1.6,1.5,2.6,2.1-9.7-7-20.2-24-28.4,9-2.6,22.5,6.6,30.8,21.1,1.1-1.9,2.2-3.7,3.6-6.1,1.3,2.3,2.3,4,3.6,6.3,3.2-7.3,7.8-12.9,14.3-16.8,5.5-3.3,11.4-5.7,18-5.6.6,0,1.1.6,1.7.9-15.1,3.3-30.7,19.1-27.2,28.2.7-1.2,1.1-2.1,1.8-2.9,3.5-4.1,6.4-9,10.6-12.1,6.4-4.7,13.7-8.1,21.8-9.2,13.3-.3,25.3,4,36.7,10.3,1.8,1,3.8,1.4,5.6,2.3s1.6,1.8,2.6,2.4c7.9,5.1,15.9,10.1,23.9,15.1.4.2.8.3.6.3,2.3-3.8,4.1-7.9,6.8-11.1,6.1-7,14.2-8.6,23.1-7.1,5.1,1.8,9.6,4.5,12.5,9.1,1.8,2.8,4,3.6,7,3,.4.1.8.2,1.1.3-1.6.8-3.2,1.7-4.9,2.6.4,1.4.8,2.8,1.3,4.2,3.4-.5,6.6-1,9.7-1.5,6.1,0,12.2.1,18.5.2,0-4,.2-8.8-.2-13.5,0-1.2-2.1-2.3-3.5-3.2-.7-.4-1.8-.3-3-.4.4-.6.6-1,.7-1,8.2,0,16.4-.2,24.6.4,3.4.3,6.7,2.4,10.2,3.7,3.4-2.6,7.3-6.2,11.8-8.5,3.9-2.1,8.5-2.8,12.8-4.1.2,0,.7.7,1,1.1-10.8,3.6-18.9,10-23.3,20.9,1.6.6,2.8,1.1,3.9,1.6-1,.9-2,.8-2.8,1.2-1,.6-2.5,1.5-2.5,2.3-.2,4-.1,7.9.2,11.9.2,2.1,1.8,2.9,3.9,2,1.7,2.3,1.6,2.5-3.3,3.4,3.9,4.4,7,8.8,11.1,12.1,4.1,3.2,9.1,5.3,13.8,8.4-1.2,0-2.5.4-3.5,0-5.6-2.3-11.2-4.8-16.8-7.3-1-.4-2-1.4-2.8-1.3-5.2.6-7.4-3.1-9.7-6.5-1.2-1.8-2.4-3.7-3.5-5.6-.4-.6-.8-1.1-1.2-1.7,0-.2,0-.4-.3-.4-2.1-4.1-5.2-6.9-10.2-7.5,0,5.4-.1,10.4,0,15.5.1,3.6,1.3,4.5,5.2,4.5.5.2,1,.5,1.5.7-.8.3-1.6.9-2.5.9-13.7.4-27.2-.3-40.6-3.5-1-.2-2.2-.4-3.1,0-3.5,1.1-6.9,2.4-10.3,3.8-9.5,3.7-22.5,2.2-28.3-8.2-.4-.7-2.2-1.1-3.1-.9-7.1,2-14.1,4.2-21.1,6.3-.4.1-.7.4-1,.7.4.8.7,1.5,1.3,2.7h-18.5c.2.6.3.9.4,1,.2.2.5.5.8.5,4.1,1.4,7.1,4.2,9.3,7.8,2.3,3.7,3.5,7.9,1.6,12.2-2.4,5.5-11.3,7.2-16.5-.6-.9-1.9-1.9-3.8-2.6-5.7-.1-.3.7-.9,1.1-1.4,2.7,2.3,5.4,4.6,8.1,7,1.6,1.4,3.3,2.6,5.5,1.1,2.1-1.5,2.2-3.6,1.6-5.8-1.3-4.5-3.9-8.4-8.5-9.8s-9.5-2.4-14.2-2.1c-6.9.4-13.7,2.1-20.5,3-8.8,1.2-17,0-23.7-6.5-.4-.4-1.2-.5-1.8-.5h-8.7c.6-.8,1.2-1.7,1.8-2.5.6-1.2,2-2.6,1.7-3.6-.8-3-1.9-6.1-3.6-8.7-2.8-4.2-13.3-4.9-17.2-1.1-2.2,2.2-3.8,5.2-5,8.1-1.3,3.3-.2,4.8,3.2,6.1.5.2.9.6,1.3,1v1c-5.2-1.6-8.7,1.5-12.7,3.6-6.8,3.7-14.3,3.9-21.8,2.5-3.8-.7-7.6-1.4-11.5-2.1-6.6-1.1-13.1-1.6-19.5,1.1-4.8,2.1-8.4,5.5-9.1,10.9-.2,1.6.5,4.3,1.7,5s3.5-.4,5.3-.8c.5-.1,1-.8,1.4-1.3,2.7-2,5.4-4,8.1-6.1-.2.9-.2,2-.5,2.8-1.9,4.8-5.1,8.5-10.4,9.6-4.2.9-6.9-1.6-9-4.8-1.5-5.1.6-9.4,3.2-13.5,2.9-2.3,5.9-4.7,8.5-6.8-14-2-27.8-6.2-41.8-11-1,2.8-2,5.4-2.8,8.1-.5,1.8-1.4,2.3-3.2,2.3h-32.1c-.8,0-1.7-.2-2.5-.3v-.6c1.9-.6,3.9-1.2,5.8-1.7,0-.5,0-.9,0-1.4-2.2,0-4.5-.4-6.7-.1-8.6,1-17.1,2.8-25.7,3.3-11.9.7-23.8.4-35.6.7-1.4,0-3,.5-4.1,1.3-5.8,4.3-12.5,6.3-19.4,7.6-1,.2-2.1-.8-3.2-1.2v-.5ZM66.9,165.7c2.8-.1,5.6-.3,8.5-.4l5.2-.8c2.4-.4,4.7-.8,7.1-1.2v-.8c-5.8-3.1-11.6-6.2-16.6-8.9-1.5,3.8-2.9,7.2-4.2,10.6-.4.4-.8.8-1.2,1.3.4,0,.9.2,1.3.3h-.1ZM463,131.5c-1.3-6.7-7.7-9.6-14.6-6.8v18.4c1.7-.3,3-.6,4.3-.9,8.1.1,11.6-3.6,10.3-10.8h0ZM313,167.3c3.5-.2,6.9-.3,10.4-.5.4,0,.8-.1,1.3-.2.6-.3,1.2-.6,1.8-.9-.4-.9-.6-2.1-1.3-2.8-5.2-5.2-10.4-10.3-15.7-15.4-.4-.4-.9-.7-1.3-1.1,0,.4,0,.7-.1,1.1,0,5.2-.2,10.4,0,15.5.1,3.6,1.3,4.5,4.9,4.2h0ZM116.3,166.3c4.7.4,9.4,1,12.6-3.7.9-1.3,1.8-2.5,2.8-3.8-6.3-3.3-12.3-5.8-18.7-1.1-1.1.8-2.5,1.3-3.9,1.7-2.1.6-2.5,1.9-2.4,3.9,0,2.2,1.5,2.3,3.1,2.5,2.1.2,4.3.4,6.4.6h0ZM378.2,147c.6.3,1.1.7,1.7,1,1.6,1.6,3.4,1.8,5.6.9,5.5-2.1,11.2-3.9,16.8-5.7,1.7-.5,2.3-1.3,1.8-3-.9-3-1.8-6-2.8-8.9-1.6-4.5-5-6.9-9.5-7.7-5.1-.9-10.1,0-12.9,4.6-2.2,3.7-3.3,8.1-4.6,12.2-1,3.1,0,5.5,3.5,6.3,0,.2.2.3.4.2h0ZM59.7,131.9c-.3-1-.5-2.1-1-3-2.7-4.4-12.4-7.1-17-4.7-.5.3-.9,1.2-.9,1.8v15.1c1.7.2,3.2.3,4.7.4,1.4.3,2.7.6,4.1.9,6.5,1.2,11.6-3.9,10.2-10.5h0ZM47.4,166.1c2.2-.2,4.5,0,6.6-.5,4.7-1.1,7.4-4.5,7.5-9,.5-3.7-1.6-6.3-4.2-8.1-5-3.5-10.7-3.1-16.6-2.4v13.6c0,4.3,2.2,6.4,6.6,6.4h.1ZM434,149.4c2-.9,3.9-1.7,5.8-2.8.5-.3.9-1.1,1-1.8,0-.3-.8-1-1.3-1.1-8.9-1.9-17.8-1.5-26.6.6-.4,3.4-.9,6.6-1.3,10,1.5.6,3.1,1.2,4.7,1.8-3.2,1.4-7.3-.1-8,5.8,4.1-1.8,7.6-3.3,11.1-4.8,4.8-2.6,9.7-5.2,14.5-7.8h0ZM99,153.5c2.1-4.5,1.2-6.4-3.3-7.6-1.7-.4-3.3-.9-5-1.2-9.8-2.1-19.5-2.7-29.2-.2,2.4,1.7,4.6,3.7,7.1,5,7.2,3.7,14.5,7.1,21.7,10.8,3.4,1.8,6.3.8,9.5-1-1.3-3-3.8-2.7-6.1-2.7.5-.5.9-1,1.5-1.3,1.3-.7,2.6-1.2,3.9-1.7h0ZM168.3,157.5c.8-.5,1.5-1.2,2.3-1.3,2.9-.3,4.3-1.7,4.1-4.7-.1-2.3,0-4.5,0-6.8,0-4.8-2.2-7.9-6.5-9.2,0,0-.1-.2-.2-.3,1-.3,2-.5,2.8-1,1.4-.9,3.6-1.9,3.6-2.9,0-2.4-.9-4.8-1.5-7.2-1.5.4-3.3.4-4.6,1.2-13.7,8.4-27.4,16.9-41,25.4-.4.3-.8.7-1.2,1.1,6.2,3.6,40.4,14.9,47.7,14.3,2.3-5.8.9-7.9-5.5-8.5h0ZM324,128.6c.7-1.3,2.2-2.9,1.9-3.7-.6-1.3-2.4-2-4.3-3.3h5.9c-.6-.7-.8-1-1-1.1-10.4-5.3-21.3-8.3-33.1-7.3-11.4,1-19.9,6.3-25.6,16.3-4.5,8.1-5.2,16.3-.8,24.6.3.6.9,1.2,1.5,1.5,8.5,4.7,17.4,8.7,27.1,10.4,2.3.4,4.7-1.4,5.2-3.8v-35.3c0-3-2.1-4-4.7-4.3q-1.4-.2-1.4-1.5c5.8,0,11.6,0,17.5.1.9,0,1.8.5,2.6.7,0,.3-.1.7-.2,1-.9,0-1.9,0-2.8.3-1.3.5-3.4,1.4-3.4,2.2-.3,5.9-.2,11.8-.2,18.1,2.6-2.4,4.9-4.6,7.2-6.8,2.8-2.8,5.6-5.6,8.4-8.4l.2.3ZM365,146.9c-.6-1.1-.8-2.6-1.7-3.2-8.9-6-18-11.8-27-17.7-.8-.5-2.3-1.2-2.8-.8-2.8,2.1-5.4,4.6-8.7,7.4,2.6.5,4.1.9,5.7,1.2-3,1.1-6.3,1.1-8.8,2.5-2.6,1.4-4.5,4.1-6.9,6.3,4.3,4.2,8.1,8.1,12,11.8.6.6,1.7.6,2.5.8.3,0,.9.2.9.2-.1,4.3,3.6,5.6,6.1,7.8.7.6,2,1.3,2.7,1.1,9.4-2.7,18.7-5.6,28-8.4-.7-3.4-1.4-6.3-2-9.1h0ZM188.3,166.1c1.8,0,3.7,0,5.5.1,6.2.3,10.6-2.3,13.1-8,.3-.8,1.2-1.4,1.8-2.1-.7,3.3-1.5,6.5-2.3,10.5,3.6-1,6.8-1.9,10-2.7,6.2-2.7,12.4-5.4,18.5-8.1.4-.2.8-.5.9-.9,2.1-5.6,5.3-11,2.4-17.2-.1-.4-.3-.9-.4-1.3,0-.2-.1-.4-.2-.6-3.7-12.6-14.5-21.1-29.7-22.2-10.6-.7-20.4,1.7-29.8,6.2-.7.3-1.3.8-1.9,1.2l.2.8h13.1c-.4.9-.9,1.1-1.4,1.1-5.7.9-6.3,1.5-6.3,7.3v29.5c0,6,.5,6.5,6.6,6.2v.2ZM440.9,149.7c-9.1,4.5-17.6,8.6-26,12.8v1.2c7.6.7,15.2,1.3,22.8,2.1,2.3.2,3.2-.9,3.2-3v-13h0ZM376,156.7c1.5,6.1,5.6,10.3,11,11,5.6.7,10.1-1,13.6-5.8-4.7-2-9.4-3.5-13.5-5.9-4.2-2.4-7.5-1.2-11.1.7h0ZM249.8,132.1c-2.6,6-4.9,11.4-7.4,17,5-.4,9.4-.8,14.2-1.3-2.3-5.2-4.4-10.2-6.8-15.7ZM387.1,152.3c5.6,2.5,10.2,4.6,15.6,7.1.7-4.5,1.3-8.5,2-12.9-2,.5-3.1.8-4.2,1.1-4.2,1.4-8.3,2.9-13.4,4.7h0ZM209.8,168.9c6.7,3.7,22.4-2.4,23.3-8.9-7.6,2.9-15.5,5.9-23.3,8.9ZM269.6,159.8c2.8,7.2,17.4,12.6,23.5,8.8-7.7-2.9-15.5-5.8-23.5-8.8ZM115.7,152.4c-3.4-1.2-6-2.1-8.7-3.1v7.2c2.9-1.4,5.5-2.6,8.7-4.2h0ZM123.6,147.8c-4.3-3.4-8.8-1.7-13.1-1.7,4.2.5,7.8,5.9,13.1,1.7ZM304.3,170.9c-4.7-3-8,0-11.6,1,0,.3,0,.6.1.9,3.6-.6,7.2-1.1,11.5-1.8h0ZM207,172.1c-2.3-3.5-5.1-2.5-7.9-1.6,2.6.5,5.3,1.1,7.9,1.6Z"/>
  <path class="cls-1" d="M139.6,117.8c2.8,2.7,3.2,6,2.5,9.6-.4,2-.9,3.9-1.3,5.9-.5.1-1,.2-1.5.4,0-.4,0-.8.1-1.2.5-4.5-.6-8.6-3.9-11.8-.3-3.3,1.7-3.3,4.1-2.9h0Z"/>
</svg>