<?xml version="1.0" encoding="UTF-8"?>
<svg id="Calque_1" data-name="Calque 1" xmlns="http://www.w3.org/2000/svg" version="1.1" viewBox="0 0 500 300">
  <defs>
    <style>
      .cls-1 {
        fill: #75683b;
        stroke-width: 0px;
      }
    </style>
  </defs>
  <path class="cls-1" d="M141.6,92.5c3.9,5,8.3,6.3,14.5,3.3,3-1.5,5.9-3.6,8.4-5.8,3.7-3.2,7-6.8,10.5-10.2l1.4-1.4c1.3-1.2,1.7-2.7,1.2-4.3-5.5-16.1-10.9-32.1-16.4-48.2-.4-1.2-1-2.3-1.8-3.2-2.4-3.1-2.4-7.4.4-11,.7-.9,1.5-1.7,2.3-2.4,1.8-1.5,3.5-3.1,3.1-5.9,1,2.1,1,3.1,0,5-.6,1.3-1.3,2.7-1.8,4-.2.6-.4,1.3-.4,1.9,0,.5.7.9,1,1.3.3-.4.7-.7.9-1.2.2-.5.3-1.1.5-2.1,1,3,2,5.7,1.2,8.6-.2.8-.1,1.9.2,2.7.3.7,1.2,1.3,1.8,1.5.5,0,1.3-.5,1.8-1,1.3-1.8,1.3-3.6.4-5.8.4.4,1,.6,1.2,1,.6,1.9,1.2,3.8,1.6,5.8.3,1.4.3,3,.7,4.4,1,3.3,4.1,4.1,6.6,1.8,1.4-1.3,2.7-2.7,4.1-3.9,1.9-1.7,4.1-1.8,6-.6-2.1-.2-3.7,1.3-4,3.8-.1,1.6,1.3,3.6,2.9,3.8,2.1.2,3.9-1.1,4.1-3.3,0-1-.2-2-.4-3-.1-.7-.4-1.4-.4-2.1,2.8,4.6,3,5.5,1.9,12.9-.2,1.4,0,2.4,1.2,3.1,1.1.7,2,0,3-.4.6-.4,1.3-.7,1.9-1,0,0,.1.2.2.3-.4.3-.8.7-1.2,1-.9.7-1.4,3.2-.9,4.2.7,1.3,2.1,1.5,3,.4.6-.7,1-1.5,1.4-2.4,1-2.4,3.2-3,5.4-3.6.1.1.2.3.4.4l-.9.4c-2.6,1.8-3.7,5.4-2.6,8.3.2.7.7,1.3,1.2,1.7,1.4,1.3,3,1.4,4,.4,1.1-1,1.3-2.4.4-4-.3-.5-.7-1-1.2-1.8,2.4.9,4.3,1.8,4.7,4.1.4,2.3.6,4.6.7,6.9.1,2.9.7,3.9,2.7,4.4,2.7.7,4.6,0,6-2.2,1-1.5,1.4-3.2,1-5.2.2.3.5.6.7,1,1.8,3.2,2.8,6.6,1.9,10.5-.5,2.4.8,4.1,3.1,4.2,1,0,1.8-.2,2.3-1.1.7-1,1.3-2.1,2.1-3,.5-.6,1.2-1,1.8-1.6.2.3.2.4.2.4-.4,1-1.3,2.1.1,2.9,1.2.6,1.8-.6,2.5-1.4,1.3-1.4,2.6-2.8,3.8-4.4,1.3-1.7,2.6-3.4,3.5-5.2,1.3-2.7,1-5.3-.8-7.7,1.3.3,2.8,2.7,3,4.4.3,2.4-.3,4.7-1.4,6.9-1.1,2.2-1.7,4.6-1.6,7,0,1.5.7,2.6,2,3.3,1,.6,2.1.6,3.1-.2,1-.7,1.6-1.8,1.1-2.9-.8-1.7-1.8-3.2-2.7-4.6,2.5-.1,5.6,2.4,5.7,5.3,0,2-.4,3.9-.4,5.9,0,1,.1,2.1.7,2.8.9,1.3,3,1.3,3.7-.2,1.5-3.2,2.8-6.5,3.9-9.8.5-1.5.2-3.2-1-4.6h0c1.1-.1,2,.4,2.4,1.8.3.9.4,1.9.6,2.8.3,1,.5,2.4,1.8,2.3,1,0,2.1-.8,2.7-1.5,1.4-1.9,1.4-4.4,1.3-6.6-.2-3.4,1.1-6.1,3.1-8.6.2-.3.5-.6.8-.9.1-.1.3-.1.4-.2-.6,1.9-1.3,3.7-1.8,5.6-.2.8,0,1.8.1,2.5.7,2.4,3.3,3.2,5.4,1.8,3.1-2.3,3.5-5.9,1-9.1,0,0,.1-.2.3-.3.8.7,1.8,1.3,2.4,2.2,1.7,2.2,3.8,2.4,5.1,0,1-1.7,1.5-3.8,1.8-5.7.5-3.2,2-5.6,4.6-7.4.1,0,.3-.1.4-.1,0,0,0,0,.2,0-1.2,1.6-1.9,3.4-1.2,5.5,1,2.7,3.6,3.6,6,1.8,1.3-1,2.5-2.2,2.7-4.1,0-.4.2-.7.3-1.2,0,0,0,.1.1.1.4.7.7,1.5,1,2.2.6-.7,1.3-1.3,1.8-2.1,1-1.8,1.7-3.8,2.7-6,.4,1.1.7,2.1.9,2.1.7,0,1.5-.3,2.1-.7.7-.5,1.4-1.3,1.7-2.1,1.4-3.2,2.1-6.5,1.2-10.3.7.6,1.1,1.2,1.7,1.5.4.3,1.3.9,1.5.7.5-.4,1-1.1,1-1.7,0-3-.8-5.8-3.5-7.7-2.2-1.5-2.5-2.4-1.7-5.2-.4,2.9,1.5,3.9,3.5,5,3.2,1.7,3.8,4.9,4.4,8.1,0,.5,0,1.1.2,1.5.3.5.8,1.2,1.3,1.2s1.4-.4,1.7-.8c.6-1.2.9-2.5,1.4-3.7.7-1.5,1.5-3,2.3-4.4.3-.5,1-.8,1.3-1-.4,1.5-.8,3-1,4.6-.1,1,.3,1.9,1.5,1.8,1.3-.1,1.4-1.1,1.2-2.2,0-.4-.2-.9-.2-1,.9.2,2,.9,2.9.7.9-.3,1.6-1.3,2.4-2.1.8-1,1.5-2,2.4-3,.7-1,1.6-1.8,2.3-2.9,1.9-3,1.5-5.4-.9-8-.4-.4-.7-.7-1.3-1.4,2.9.8,5.5,4.7,4.9,7.3-.8,3.3-1.8,6.5-2.9,9.7-5.6,17.6-11.1,35.1-16.8,52.7-.3,1-.1,1.5.7,2.1.8.5,1.5,1.2,2,2.1-1-.6-2-1.3-3-1.8,0,.1-.1.2-.3.4,3.5,2.6,6.2,5.9,8.6,9.4,0,0-.1.1-.2.2h-1.8v.3c-.7-.3-1.5-.6-2.2-1-.3,0-.7,0-1-.1v.2c.3,0,.5,0,.8.1l4.9,3.3c0,.1,0,.2-.1.4-.4-.2-.9-.5-1.3-.6-.4,0-.7,0-1.1,0,0,.1.2.3.3.4h0c-.2-.3-.3-.9-.6-1-2.7-.7-4.9-2.7-8-1.6,1.3.4,2.5.7,3.9,1.1-1.8,0-3.4-.3-4.8,0-1.5.4-2,1.9-2.1,3.5.4,0,.8.1,1.3.2-.7.2-1.3.4-1.8.5v.4c.6.2,1.1.4,1.8.7-.4,0-.8.2-1.5.4.8.8,1.3,1.8,2.1,2.1,6.3,2.9,12.8,5.6,19.1,8.5,4.1,1.8,8.3,2.4,12.8,1.9,2.7-.3,4.9-1.5,6.9-3.3,1.3-1.3,2.4-2.7,3.5-4,.4-.4.7-1,.8-1.7-3.3,3.4-6.3,7.2-11.5,7.5.2-.1.4-.3.8-.6-1.1,0-2-.2-2.7-.3,2.1-.6,4.3-1.2,6.4-1.8,0-.1,0-.3-.1-.4-2.8.2-5.6.4-8.4.6v-.4c3.5.2,6.9.4,9.7-2.1,0-.3-.1-.7-.2-1.2,2.6-.9,4.4-2.7,5.8-4.8-3.8,3.6-8,5.2-13.3,4.3-5.1-.9-8.5-4.2-11.8-7.8.2.1.5.3.7.4,2.2,1.6,4.3,3.3,6.6,4.9,1,.7,2.2,1,3.3,1.4,5.2,1.5,8.9-.2,10.6-5.4.7-2.1,1-4.4,1.5-6.5.1-.6.2-1.2.4-1.8.4-1.3.4-3,2.4-3s2.9,1.3,3,3.1c.2,2.7.4,5.5-.1,8.2-1.1,5.2-4.1,9.4-8,12.8-3.6,3.2-7.8,3.8-12.2,2.7-4.1-1.1-8.2-2.5-12.2-4.1-3.3-1.3-6.4-3-9.6-4.5-.9-.4-1.8-.6-2.9-.6.7.7,1.4,1.5,1.9,2.1-2.8,1.1-5.6,2.2-8.1,3.2,1.8,4.5,3.3,8.6,4.9,12.6,1.2,2.9,4.1,3.9,6.4,2.3.6-.4,1-1.2,1.7-2,0,1.4.2,2.7,0,3.9-.6,3.1-2.7,5.2-5.3,6.6q-2.1,1.2-1.4,3.5c.1.7.4,1.3.6,1.8.5,1.3,1.3,1.5,2.1.4,1-1.1,1.8-2.4,2.9-3.3,1.8-1.7,3.5-2.4,5.5-2.4-1,.8-1.8,1.5-2.7,2.1-1.8,1.5-2.4,3.4-1.5,5.7.4,1,.4,2.1.9,3,.4.7,1.1,1.3,1.7,1.9.6-.6,1.3-1.1,1.8-1.8.3-.5.3-1.3.4-2.1,1.6,1.3,1.4,3.1,1.3,4.9,0,.7,0,1.4.4,2,.6,1.3,1.6,1.2,2.6.4.5-.4,1-1,1.3-1.5,1.2-1.6,2.3-3.3,3.4-5,1.3-1.9,2.3-3.8,1.2-6.3.3.2.6.4.7.7,1.3,1.8,1.5,3.9,1,6.1-.6,2.3-1.1,4.5-1.5,6.8-.1,1,0,2,0,3h.4c.2-.4.4-.8.6-1.2,1.2,2.2,2.5,2.3,3.8,0,.6-1,.6-2.4.7-3.6,0-.5-.2-1-.3-1.5.1,0,.4,0,.5-.1.4,1.3,1,2.4,1.2,3.8.3,2.1.4,4.2.5,6.3,0,.1,0,.3,0,.4.4,2.3,1,3.2,2.2,3.1,1,0,1.3-.8,1.2-3.5,1.5,1.4,1.6,3.1,1.8,4.8.4,2.5,1.7,3.9,4.1,4.1,1.9.2,3-.8,3.9-2.3,1.1-2.1,1.3-3.8.6-7.5,1.7,1.8,2.4,3.8,2.1,6-.1.9-.3,1.8-.4,2.7-.4,2.1-.2,4,1.3,6,3,3.8,6.4,3.5,9.7,1.4,3-1.9,4.3-4.9,4.4-8.4v-.7l.3-.2c.6,2.8,1.1,5.4-.1,8-.7,1.5-1.5,3.1-2.1,4.7-1,2.6,0,5,2.1,5.9,1.8.7,3.9-.7,3.8-2.7,0-.5,0-1.1-.2-1.8,1.2.8,1.8,1.7,1.7,3-.2,1.6-.4,3.2-.8,4.8-.3,1.2.2,2,1.2,2.5,1,.5,1.8,0,2.4-.7.7-1,1.2-2.2,1.7-3.3.7-1.4,1-3,1.8-4.3.7-1,1.7-1.8,2.7-2.7l.3.3v.2c-2.7,2.4-2.7,5.2-1,8.1,1.7,3.2,2.7,6.5,1.5,10.1-.9,2.7-1.3,3.2-4.1,3.2-12.5,0-25,.1-37.5.1s-1.7,1.3-2.1,2.1c2.7.8,5.2,1.8,8,2.4,1.5.3,3.1,0,4.6-.5,3.5-1.2,6.9-1.8,10.6-1.3-4.2,1.8-6.7,5.2-9.3,8.6-2.5,3.5-4.6,7.2-3.6,11.9-.7-.4-1.5-.7-2.2-1.3-1.3-1-2.5-2.1-3.6-3.2-3.5-3.9-7.9-4.9-12.8-3.5-4.4,1.3-8.8,2.7-13.1,4.4-3.8,1.4-6.6,4.1-8.9,7.4-.1.1-.2.3-.4.4,0,0-.1,0-.5.1-.6-3.7,1.4-6.4,2.9-9.3-1.1-.9-2.2-1.8-3.5-2.9-1.1.8-2.6,2.1-4.4,3.1-1.6.9-3.5,1.6-5.3,2.1-2.6.6-4.9-.1-6.9-1.8-.5-.4-1.4-.6-2.1-.7-1.7,0-3.4,0-4.4-1.5-1.8.2-3.6.5-5.3.6-1.9,0-3.3-1-4.6-2.7-.9,1.3-1.8,2.5-2.4,3.8s-1,2.6-1.7,4.3c-1-2.6-1.8-4.9-4.4-6.2-9.4,29.3-18.9,58.5-28.3,87.6h-.4c-1.1-3.4-2.2-6.8-3.4-10.2-8-24.3-16.2-48.7-24.2-73-.2-.7-.8-1.3-1.3-1.9-1.3-1.5-2.8-2.9-4.1-4.3-.7,1.5-1.3,3.2-2.2,4.5-2.5,3.5-6.1,4.1-10,3.5-1.3-.2-2.6-.4-3.9-.7-1.3-.2-1.9.2-2.1,1.5-.5,2.7,1.1,5,3.8,5.1,1.5,0,3-.4,4.4-.6-1.1,1.3-2.7,2.3-4.4,2.4-2.7.1-5.5,0-8.1-.6-3.2-.8-4.9-3.2-5.3-6.5-.2-1.8,0-3.6,0-5.7-6,2.2-12.1,3.4-17.9-.3-5.6-3.5-8.2-9.1-10.2-15.3-.1,2-.3,3.9-.4,5.9-.4,5-2.5,8.9-6.9,11.5-2,1.2-3.8,2.4-5.8,3.7-2.7,1.8-4.3,4.2-4.8,7.5-.3,2-.8,4-1.3,6.3-1-2.9-1.8-5.3-2.6-7.8-.6-1.8-1.8-3-3.4-3.9-.3-.1-.9-.3-1.1-.1-.4.3-.7.8-1,1.2.4.3.9.7,1.4,1-1.6,1.2-3.4,1-5.2.1-5.1-2.2-6.2-9.6-2-13.4,3.2-2.9,7-3.8,11.1-2,.3.1.5.2,1.2.4v-8.4c0-.8,0-1.6-.1-2.8-2.3.3-4.4.7-6.6.8-.8,0-1.6-.4-2.4-.4-8.7,0-17.5,0-26.2.2-1.5,0-2.1-.6-2.1-1.8.1-2,.3-4.1.8-5.9.7-2.4,1.6-4.7,1-7.2-.4-1.4-1-2.7-1.5-4.1,1.3.3,2.1,1.3,2.7,2.5.5,1.2.8,2.4,1.3,3.5.4.9.7,1.9,2.1,1.9s1.5-1.1,1.8-1.9c.7-1.8,1.4-3.6,2.1-5.5.1,0,.3,0,.4,0,0,.4,0,1,.1,1.4.2,1.7,1.4,2.3,2.7,1.2.7-.6,1.5-1.5,1.7-2.4.7-3.2-.2-6-2.5-8.6.7.4,1.5.5,2,1,1.1,1.3,2,2.7,3,3.9.5.6,1.2,1.1,1.8,1.3.2,0,.9-1,1.2-1.5.4-.8.8-1.7,1.2-2.5.1,0,.2,0,.4,0,0,.2,0,.5,0,.7.3.4.6,1.1,1,1.3.4,0,1.2-.4,1.3-.8.4-1.1.4-2.3.6-3.4.1-1,.4-2.1.5-3.1h.4v1.3c0,1.3.7,2.3,1.9,2.4.6,0,1.5-1,1.7-1.7.6-2.4.9-5,1.3-7.5.3-2,1-3.8,2.6-5.2-.3,1.3-.7,2.6-.7,3.8,0,.6.4,1.3.7,1.8.6-.4,1.3-.6,1.7-1.1,2.6-3.2,1.5-9.7-3.3-11.1-.1,0-.3-.2-.6-.4,1.4-.8,2.7-.4,3.8.2,2.5,1.3,4.3,3.4,5.3,6,.4.9.6,1.8,1,2.7.8,1.8,2.1,2,3.2.2.6-1,.9-2.2,1.3-3.4.4-1.3.7-2.5,1.1-3.7.1,1.4,0,2.8,2.1,3.5.3-1.3.6-2.5.8-3.8.2-1.3.3-2.6.4-3.8h.4c.4,2,.7,3.9,1,5.9,1.5-1.8,2.2-3.7,1.9-5.9-.4-2.5-.7-5-.9-7.5,0-1,0-1.9.1-3h.4c.2,1.5.4,3,.7,4.5.3,1,.6,2.2,1.3,3,.5.6,1.8,1,2.5.8.5-.1,1-1.3,1.3-2,.2-.6.1-1.3.5-2,0,.2.1.6.3.7.6.7,1.3,1.8,1.8,1.7.9,0,1.9-.8,2.5-1.5.8-1.1.6-2.4-.1-3.6-1.3-2.2-1.6-4.4-.7-6.8.3-.7.3-1.5.7-2.3,0,.7.3,1.4.1,2-.4,1.5,0,2.7,1.1,3.7.5.5.9,1.2,1.4,1.5.4.4,1.3.7,1.6.6.6-.3,1.1-1,1.3-1.6,0-.3-.5-1-1-1.3-1.6-1-3.4-2-3.5-4.3,0-.4,0-.7.1-1.6,1.6,3,3.8,2.4,6,1.6,2.1-.7,3.5-2.3,4.1-4.6.2-.9,0-1.5-1-1.4-5,.2-6-4.4-5-8.3.8-3.2,3.2-4.8,6.1-5.8.8-.3,1.2-.6,1.3-1.4.1-2.7.4-5.2.7-8.1-1.5.5-3.2.9-4.6,1.5-.5.3-.7,1.4-1,2.3.1,0,0,0,0,0-.9-1.5-2.1-1.3-3.4-.5-2.7,1.5-5.4,2.8-8,4.3-5.2,2.9-10.7,4.4-16.7,4.1-6.3-.4-12.4-4.7-13.9-11.2-.9-3.9-1.6-7.7-.5-11.7,0-.2.1-.4.2-.7.4-1.3,1.4-2.1,2.5-2,.8,0,1.8,1.1,2.1,1.9.7,1.7.9,3.5,1.3,5.3l-.2.2c-.7-1.8-1.4-3.5-2.1-5.3-.7-1.5-1.3-1.5-2.5-.4-.1,0-.3.2-.4.3,0,0,0,.1,0,.1l.5-.2c.4,0,1.3,0,1.4,0,.7,1.5,1.3,3,1.9,4.5-.1,0-.2,0-.4.1-.3-.5-.6-1-.9-1.5,0,0-.1,0-.2,0,0,.7.1,1.3.3,2h-.2c-.7-1.3-1.4-2.6-2.1-3.8-.7.4-1,.8-.7,1.6,1.4,3.8,3.2,7.1,6.9,9.1.4.2,1,1,1.5-.1.1-.3.9-.6,1.3-.5,1.4.3,2.8.7,4.2,1.2h0c0,.1-4.4.1-4.4.1,3,.5,5.9.7,8.6-1.1-5.2,1.2-9.5,0-12.2-5.1,0,0,.2-.1.3-.3l.7.2ZM215.6,81.4c-.1,0-.3.1-.4.1,0,0,0,0,0,.1l.3-.3c0,.1,0,.3-.1.4h.4c0,.1,0,.3-.1.5h.2c0-.1,0-.4,0-.5s-.2-.3-.3-.4h0ZM250.1,74.3c-.1,0-.3,0-.4,0-1,.5-1.6.1-2.2-.6h-.1c.2-.4.5-.7.9-1.1-1,.1-1.8.3-3,.5.5-.6.7-.9,1-1.2-.4-.1-.7-.2-1.1-.4,0,0-.1-.1,0,0-.1,0,0,0,0,0-.4,0-.8-.2-1,0-1.2.8-2.4,1.6-3.5,2.5.3.4.5.7.7,1,.5,1.5.9,3,1.4,4.6.3,1,1,1.2,2,.8,3.5-1.2,6.7-1,9.4,1.8s.4.2.7.4v-.4c1.5-.4,3.2-.8,4.7-1.3.8-.2,1.7-.4,2.4-.9,3.2-2.4,6.4-4.9,9.7-7.2,1.4-1,1.8-2.1,1.4-3.8-1.3.7-2.7,1.4-3.9,2.1,0,0,.1.1,0,.1-.8.7-1.6,1.4-2.5,2.1-1.6,1.4-3.3,2.8-4.9,4.2-1.4,1.2-2.9,2.5-4.9,1.9-1-.3-2.1-.7-3.1-1,.1-.3.4-.7.7-1.2-1.4.7-1.5.7-2.4-.1-.4-.4-.4-1-.7-1.6-.3-.3-.8-.7-1.3-1,.1,0,.3-.1.4-.2v-.4s0,.1-.1.2h0ZM214.5,81v-.5c-.4-.3-.8-.5-1.1-.8-.1-.1-.4-.3-.5-.4-1-.7-2.1-1.4-3.2-2.1,0,0,.1-.2.1-.3.7.3,1.4.7,2.1,1h.4l-.2-.2c-.3-.8,0-.7.6-.4,1,.6,2,1.2,3,1.8.1.1.3.3.5.4.1.1.2.3.4.4,0,0,.1,0,.1,0,0-.1-.2-.4-.3-.5l-.4-.4c-1.3-1-2.7-1.8-4-2.8,0,0,.1-.2.2-.3,2.8,1.8,5.6,3.5,8.5,5.3.5.3,1,.6,1.5.9,0-.2.2-.4.3-.6-5.7-4.9-12.1-8.5-19.5-9.7-6.6-1.2-13,.8-19.1,3.2.7.1,1.4,0,2.1,0,1.9,0,3.8-.2,5.8,0,3.5.6,6.7,2.2,9.6,4.3.8.6,2.7,1.2,3,.9.8-1,1.3-.4,1.8,0,1.2.7,2.3,1.5,3.5,2.2.3.2.7.3,1,.4,0,0,.1-.2.1-.3-1.4-1.3-2.7-2.6-4.1-3.9,0-.1.1-.2.2-.4,1.8,1,3.7,2.1,5.5,3.2,0-.1.2-.3.3-.4-.4-.5-.9-1-1.5-1.8.7.2,1.2.4,1.7.5l.4.4c.4.2.7.5,1,.7l.3.3c0,0,.2.1.3.2v-.2h-.4,0ZM203.8,152.8c-.1.2-.3.4-.4.6-.2.1-.4.2-.7.4,0-.4,0-.9,0-1.3,0-.5.2-1.1.4-1.6-.1,0-.3,0-.4,0-.7.7-1.3,1.5-1.9,2.2h-.4v-2.5h0c-.2,1.1-1.2.4-1.7.7,0-.2-.2-.4-.4-.7-.4.4-.8.9-1.3,1-1.6.4-2,.8-1.6,2.4.2,1,.7,2.1.9,3,1.6-.4,3.1-1.2,4.4-.9,1.7.3,3.3,1.4,5.2,2.2-.6-1.5-1.1-2.7-1.5-3.6-.4-.4-.7-.6-.9-.7,0-.2.1-.5.2-.7h0v-.2ZM178,78.6c-.2,0-.4.1-.7.2-.4.2-.7.5-1.1.7-.7.7-1.5,1.3-2.2,2.1-5.5,5.7-11,11.2-17.6,15.6-5,3.3-11.6,4.7-17.4-.3-1.3-1.1-2.4-2.4-3.8-3.8.1,1,.1,1.9.4,2.8.9,3.4,1.7,6.7,4.7,9.1,5.1,4.1,10.8,4.6,16.8,3.3,6.8-1.5,12.3-5.8,18.2-9.1,0,0,0-.1.1-.2-.3-1.1-.7-2.1-.9-3.2-.1-.8-.5-1.3-1.4-1.3,0,0,0-.1-.1-.3.3-.1.6-.3,1-.5-.4-.1-.7-.3-1-.4.4-.2.7-.4,1.4-.7-1.3,0-2.1,0-2.8,0-.8.1-1.5.5-2.3.8h0c-.6-.3-1.3-.6-2-1,.6-.4,1.3-.7,1.8-1.2.5-.4,1-.8,1.8-1.5h-1.5s0-.1-.1-.1l3.1-1.8c0-.1-.1-.3-.1-.4-1,.4-2,.8-3,1.2-.1,0-.2-.1-.4-.2,2.5-2.8,5.1-5.6,7.6-8.3.4-.2.7-.5,1-.7.1-.1.3-.3.5-.4,0,0,.1-.1.2-.2h-.1v.3h0ZM282.3,83c.5-.4,1.1-.7,1.6-1.1-.1-.1-.2-.3-.4-.4-.5.4-1,.9-1.5,1.4,0,0-.1.2-.1.3.1,0,.2,0,.4-.1h0ZM180.9,134.4c-.8.7-1.6,1.5-2.6,2.3,1.9,0,2.7-.8,2.6-2.3,0,0,0,.1,0,0,.1.1,0,0,0,0ZM282.5,87.3c.9-1.1,1.8-2.3,2.7-3.4-.7.3-1.3.7-1.6,1.2-.4.7-.7,1.5-1,2.2,0,0-.1-.1-.2-.2h0s.1.1.2.2ZM268,214.5c.4-.1.9-.2,1.3-.4v.9h.2c.3-.5.5-1,1-1.9-1.4.4-2.4.6-3.5.8,0,.1,0,.3,0,.4.3.1.6.3.8.4,0,0,.1-.2.3-.3h0ZM191.7,153.8c-.8.4-1.7.7-2.4,1-.3.1-.6.7-.5,1,.2.5.6,1,1,1.3,0,0,.8-.3,1-.7.4-.8.7-1.8,1.1-2.7v-.6h0c0,.1,0,.3-.1.4h0ZM185.6,79.5c.2.1.4.5.7.5,2.4,0,4.8-.2,7.2-.3-1.7-.3-3.5-.3-5.2-.3s-1.8,0-2.7.1c.6-.3,1.3-.7,1.9-.9.9-.1,1.8,0,2.7,0v-.3h-2.4v-.3h5.4c-1-1.6-2.7-.8-4.2-.8s-3.1.5-4.6.7c0,.2,0,.4-.1.6.4.3.9.7,1.3,1h0ZM182.9,94.4c-1.2-.2-2.3-.4-3,.9-.6,1-1.3,1.9-1.9,2.9,1.3,0,2.1-.4,3.1-.6,2.4-.7,2.5-.8,2.7-3.7-.4.2-.7.4-1,.7h0ZM261.2,160.8c-.1,0-.4-.1-.5-.3,0,0,0,.1,0,.1l.4.4c0,.3.1.5.1.7-.5,0-1-.1-1.5-.2,0,0-.1.1-.2.1-.1-.2-.4-.4-.7-.9,0,.7.1,1.1.1,1.5,0,0-.1,0-.1.1-.4-.2-.7-.4-1.1-.7,0-1.3-.4-2.5-.2-3.8.4-2.2.9-4.4,1.5-6.5,1.3-4.6,3.3-9.1,3.6-13.9,0-1.8,0-3.5,0-5.5,1.5,2.3.2,4.9,1.1,7.2,2.5-.7,1.8-3.3,3-4.8.1,0,.3,0,.4.1-.4,1.8-.8,3.5-1.3,5.5.7,0,1.5,0,2.1-.3,1.1-.6,2.2-1.4,3.2-2.2,3.2-2.7,6.3-5.3,9.7-8.1-2.1-.5-3.8-1.3-4.3-3.5-2.5,2.4-3,5.5-4.2,8.6-.5-.8-.9-1.4-1.3-2-3-5.2-8.9-6-13-1.8-2.6,2.7-4,6-4.9,9.5-.4,1.8-.8,3.7-1.3,5.6-.5-.7-.7-1.5-1-2.3-1-3.4-2-6.9-4.5-9.5-1.6-1.8-3.5-3.4-5.2-5.1-.7-.7-1.3-.7-2.2-.2-2.3,1.1-4.6,2.3-7.1,3-1.5.5-3.4.4-5.2.6,3,3.6,6.5,6.3,10.8,8.3-.7-1.8-2.1-3.1-1.9-5.3,2,3,3.5,4.5,4.4,4.4-.6-4.8-.4-6.3,1-7-1,4.4,0,8.6,2.1,12.4,1.6,3.1,2.7,6.3,3.2,9.7.4,2.4.7,4.9,1,7.5-.1,0-.3,0-.5,0-.5.1-1,.3-1.5.4,0-.7.1-1.5.2-2.2h-.2c-.3.7-.5,1.4-.7,1.9-2.1-.6-3.3.4-4.5,1.7l-.3-.6-.3-.2c1-1.1,2.1-2.2,3-3.4.7-.9,1.4-1.9,1.7-3,.8-3.5.6-7.1-1.6-10.2-.5-.7-1.3-1.5-2.1-1.9-1.7-.8-3.5-1.5-5.2-2.1-.1,0-.4.2-.7.4-.3-.6-.5-1.1-.8-1.5-.2.1-.6.4-.7.4-1.3-1-2.4-2.1-3.6-3.2-.6-.5-1.3-1.1-1.8-1.6-.5-.4-1-.9-1.4-1.3-.9-.9-1.7-2-2.7-2.7-.7-.6-1.8-1.1-2.7-1.3-1.7-.2-3.4-.2-4.9-.3.2-.2.7-.6.8-.7-.7-1.5-1.3-2.8-1.9-4-.3.6-.5,1.2-.4,1.7.7,2.5.4,4.9-1,7.2-1.1,1.7-2.1,3.5-3.3,5.1s-1,3.1,0,4.6c.4.5.7,1,1.1,1.6,1.6,3,1,5.9-1.7,6.9,1.1,3.1,2.1,6.2,3.2,9.4.1,0,.4,0,.5,0,.3-.4,1-1,.9-1.4,0-.7-.6-1.5-1-2.1.1,0,.2.1.4.2-.1,0-.2-.1-.4-.2-.3-.8-.6-1.6-.9-2.4,0,0,.1.1,0,0,.2.1.1,0,0,0h-.1c-.1-1.9.7-3.2,1.6-4.5.4-.5.7-1.3.7-2,0-1.3-.2-2.7-.2-4,0-2.1-1-3-3.3-2.4.9-.9,1.3-1.7,2-2,2.1-.9,4.2-1.7,6.3-2.3,2.4-.7,4.5,0,6.3,1.7,3.5,3.2,7.4,5.5,12.4,5,1.9-.1,3.5.9,4.3,2.6.4.9.6,2,.8,3,.4,2.3-.7,4.3-2.8,5.1-1.1.4-2.1.9-3.3,1.1-1.8.4-3.2,1.2-4.4,2.5-.2.3-.6.4-1,.7,0,0-.1-.2-.3-.3.8-1.3,1.7-2.5,2.5-3.8-2.9-.9-5.5-1.7-8.2-2.6,0,.2-.1.5-.2,1-.7-.3-1.3-.5-1.8-.9-2.9-2.1-4.5-5-4.6-8.6,0-1.4,0-2.7-.2-4.1,0-.3-.4-.8-.6-.8-1,.2-2,.5-3,.8.1.4.1.6.2.7,1.4,3.6,1.5,7-.7,10.4-1.1,1.7-.2,4.6,1.7,6.2.9-2.9,1.7-5.7,2.5-8.5,1.2,3.3,2.4,6.6,3.5,9.8,3.2-1.2,4.1-.7,5.5,2.1.1.3.5.4.7.7,1.7,1.7,3.4,3.4,5,5.2.7.9,1.2,2.1,1.8,3.2,1.5-3,4.1-4.8,6.7-6.5,1.2-.7,2.4-1.5,3.6-2.2,2.3-1.4,3.8-3.3,4.5-5.9.4-1.5.7-3.1.8-4.6.2-1.8.3-3.5.4-5.3h.4c.2,1.2.4,2.4.7,3.6.7,3.8,1.5,7.5,4.4,10.3,1.5.9,3,2,4.6,2.7,1.8.7,3-.5,2.7-2.4,0,0,0,0,0,.1.4,0,.9.2,1.3,0,1.8-.8,3.5-1.8,5.4-2.7-2.1-.7-4.3-1.3-6.3-2-.9-.3-2.1-.7-2.5-1.5-2.2-3.9.4-9.7,4.8-10.4,4-.7,7.4-2.3,10.5-4.7,2.5-2.1,5.5-2.5,8.6-2.1,1.9.3,3.8,1,4.6,3.2-2.1.7-3.5,2.1-3.4,3.5.3-.1.7-.4.9-.4.4.4.8.8,1,1.3.2.5,0,1.1.2,1.6.8,2.2,1.5,4.4,1,6.9v.3c.1,1.3.4,2.4.5,3.7h.5c.4-1.4,1-2.7,1.3-4.1.4-1.4.8-2.9,1.3-4.5-1.4.9-1.9.1-2.2-.8-.7-2.1-.3-4.1.5-6,.8-2.1.4-3.9-1.2-5.5-1.6-1.5-3.2-3.1-3.7-5.8-1.2,1.5-2.1,2.7-3.4,4.3-.4-1.3-.9-2.4-1.2-3.5-.2-.9-.4-1.1-1.5-1-1.3.2-1.7,1.2-2.5,1.8-2.7,2.1-5.2,4.4-8,6.4-1.7,1.3-3.6,2.3-5.5,3-1.6.7-3.4,1-4.1,2.8-.4,1-.9,2.1-1.3,3.2-1.5,4.1-.4,7.6,3,10.3.9.7,1.7,1.3,2.7,2.1-.5.2-.8.3-1.1.4.1,0,.2-.1.4-.1h0c-.1,0-.2,0-.4,0-1.4,0-2.5-.7-3.5-1.5h0ZM210.4,149c-.2-.2-.4-.4-.6-.7-.6-1.2-1.2-2.4-1.6-3.6-.3-.8-.4-1.8-.1-2.7.4-1.5,1.1-3.1,2.1-4.5.6-.8.7-2,1-3-.9.6-1.5,1.3-1.9-.1-3,.8-1.7,3.9-3.1,5.8-.4-1.3-.7-2.4-1.1-3.6-.6,1.3,2.1,10.5,4.2,14.9.4-.2.8-.4,1-.7.2-.4.3-1,.4-1.5,0-.1.2-.3.3-.4,0,0-.1-.1-.2-.2,0,.1-.2.3-.3.4h0ZM162.7,149.9c-.4.4-.9.9-1.3,1.4-1,1.3-2.9,2.1-3.2,4.4,7.9-5.8,15.6-11.4,23.2-17,0-.1-.1-.3-.3-.4-3.2,0-4.9,3-7.7,3.8.1.2.3.5.4.7-.7.1-1.2,0-1.6.3-.7.4-1.3,1-1.8,1.5-.4.4-.5,1.2-.9,1.2-1,.1-1.5.8-2.2,1.4-.5.5-1.4.6-1.9.7-.3.3-.4.4-.7.6-.6.4-1.2.7-1.8,1.1l-.2.2h0ZM357.7,97.8c.2,0,.4,0,.6,0,4.1-2.4,6.7-5.8,7.9-10.3.3-1.3,0-3-.4-4.3-.6-1.5-2.1-1.5-3,.1.9-.3,1.8-1,2.3.3.1.4.2.9.4,1.8-.5-.5-.7-.7-1-1,0,.6-.1,1.1-.3,1.8-.2-.6-.4-1-.5-1.5-.4.3-.6.5-.8.8,0-.2,0-.4-.1-.5,0-.1-.2-.2-.4-.4,0,.3-.1.4-.1.6-.8,4.5-1.3,9.1-4.6,12.6v.2h-.2s0,.1,0,.1c0,0,0-.1,0-.2h.1ZM297.9,136.1c0,0-.2-.2-.3-.3-.1-.5-.1-1-.4-1.5-.4-.6-.8-1-1.5-1.8.6.1.8.2.9.2,0-1,0-2.1.1-3.6-.8,1.5-2.7,1.8-1.9,3.7-.7,0-1.3,0-1.8.1.4,1.6.8,3.2,1.1,4.4.4.4,1,.7,1,.9,0,1.6,0,3.2-.1,4.8-.3,2.1-.9,4.2-1.3,6.1.4.1.8.3,1.3.4,1.3-4.2,2.6-8.3,3.9-12.5.3-.9-.1-1.3-1-1h0ZM108.5,190.2c-.5,1-1.1,1.9-1.6,2.9,0,0,.2.1.3.2.4-.2.7-.4,1.1-.7,4.8-3.6,9.5-7.2,14.3-10.8,5.8-4.4,11.7-8.7,17.6-13,1-.7,1.4-1.6.8-2.7-.7.2-1.3.4-1.9.7-.1,1.3-2.2,1-2.6,2.6-.4,1.3-2.1,1.3-3,2.3,0-.4-.1-.6-.1-.7-.5.7-1.4,1.2-1.6,2-.4,1.1-1,1.5-2,1.9-.8.4-1.4,1.1-2.1,1.6-.6.4-1.3.6-1.8.9-.2-.1-.3.1-.4.4-.7,1.2-2.1,1.6-3.2,2.5-.9.8-2.5,1-3.2,2.4-.1-.3-.2-.4-.2-.5-.6.5-1.3.8-1.5,1.3-1.4,2.7-4.3,3.2-6.6,4.4-1.1.6-2.2,1-2.1,2.4h0ZM289.9,80.5c0,.1.1.2.2.4,0,.2,0,.5.1.5,2.7,0,5.2-.1,7.9-.4.7,0,1.5-.4,1.9-1,1.8-2.2,2.6-4.9,2.8-7.8-6.1-.6-23.5,7.1-24.5,10.7,2.1-1.3,4.2-2.9,6.6-4.1,2.3-1.2,4.8-2,7.2-3,0,.1,0,.3.1.4-2.7,1.5-6.1,1.6-7.9,4.6-.2.1-.4.4-.7.5v.2c.4-.1.7-.3,1-.4,2.7-1.8,5.3-3.8,8.6-4.4-1.9,1.3-4,2.2-5.9,3.4-1.9,1.3-3.7,2.7-5.5,4,0,0,.1.1.2.2,2.6-1.3,5.2-2.7,7.8-4.1h0ZM216.5,62.9c6.5,4.6,13,9.3,19.6,14,.4-1.1.7-2,1.2-3-1-.4-1.9-.7-2.8-1-1.7-.8-3.2-2.1-5.1-2.4-1.4-.3-2-1.4-3.2-1.8-.6-.2-1.3-.9-1.5-1.5-.9-1.8-2.7-2.6-4.3-3.4-1.2-.6-2.5-.7-3.8-1.1.2-.2.4-.5.6-.7-1.5-.3-4.1-3.4-4.6-5-.3-.4-.5-.7-.8-1.1-.1.2-.3.5-.3.4-1.4-.7-2.8-1.4-4.1-2.1-.8-.4-1.5-1.1-2.1-1.8-.6-.6-1-1.5-1.6-1.8-1.1-.6-2.4-.8-3.5-1.3-.4-.1-1-.4-1-.6-.2-1.4-1-2.2-2.4-2.6-1.1-.3-1.5-1.9-3-1.5,0-.7-1.3.4-1-.9,0-.4-.7-1-1-1.5,0,0-.1,0-.1-.1v-2.5c-.4.2-.8.4-1.3.6-.1-.9-.6-1.2-1.3-.4-.2-.4-.4-.7-.7-1.1,0,.3-.1.5-.1.4-1-.9-2.1-1.8-3-2.7,0,0-.3.2-.4.4-.1-.6-.2-1.1-.4-1.9-.3.8-.5,1.3-.8,2-.4-.9-.7-1.5-1-2.2-.2.4-.4.8-.6,1.4,0-.7,0-1.3-.1-2.1-.3.7-.5,1.1-.8,1.8,0-.6,0-.9-.1-1.3-.1.3-.3.5-.4.7-.4-.4-.7-1.1-1-1.1-3.2,0-5-2.4-7.1-4.2-1-1-1.5-2.7-3.3-2.6h-.6c-.8-1.3-2.9-1.4-3.2-3.2,0,0-.4-.1-.5-.2-1-.3-1.6-.7-1.4-1.9,0,0,0-.2-.2-.5-.4.3-.6.5-.9.7,0-.3,0-.7-.1-1-.6.2-1.2.4-2.1.7.9.9,1.6,1.7,2.4,2.4,4.9,3.6,9.9,7.2,14.8,10.6,13.1,9.3,26.2,18.6,39.3,27.9h0ZM324.9,31.8c-.8.4-1.7.7-2.6,1.1-.4,0-.8,0-1.3-.1,0,.4,0,.8.1,1.6-.4-.7-.7-1-1-1.4-.1.3-.4.5-.6,1v-1.2h-.1c-.1.7-.4,1.5-.5,2.4-.3-.4-.4-.6-.7-1,0,.7,0,1.1,0,1.6-.3-.2-.5-.3-.7-.5,0,.4-.1.8-.2,1.2,0,0-.1-.2-.3-.3-.3.2-.7.4-1,.7-.2.2-.3.9-.4.9-1.5,0-1.4,1.4-2.1,2.1-.6.6-.9,2-1.9,1-.8.7-1.5,1.4-2.3,2.1-.2-.2-.3-.4-.5-.6-.2.6-.4,1.1-.7,1.6-.1-.1-.2-.3-.3-.4-.7.7-1.1,1.8-1.9,2.2-1.9,1.2-3.8,2.3-5.1,4.2-.1.2-.7.1-1,.3-1.5.7-3.2,1.3-4.6,2.3-1.1.7-1.9,2-2.9,3,0,0-.1,0-.2.1-.7.4-1.5.8-1.8,1.4-.9,1.5-2.7,2.7-4,2.3,0,0-.1,0-.4.2.3.1.5.2.9.4-1,.2-1.7.4-2.4.6-1.2.5-1.6,2-3.1,2.1h0c.1,1.5-.9.6-1.3.8-.3.4-.6.9-1,1.5-.1-.4-.2-.7-.3-.9-.5.6-.8,1.4-1.3,1.6-2.4.7-3.2,2.4-2.4,4.8,22-16,43.9-32,65.9-48-.9-.7-1.5-.7-1.8.1-.5,1.3,0,0,0,0-.7.2-1.5.5-2.3.7h0c0,0,.1.1.1.2,0,0-.1.1-.2.2h-.4c-2.1,1.5-4.2,3-6.3,4.5h-.1c-.1-.1-.3-.3-.4-.4-.7,1.3-3,1-3.1,2.9-.7-.1-1,.2-.9.9,0,0-.1.2-.3.3h0ZM181.8,151.5s.1.1.1.2c-2.1.9-4.3,1.8-6.7,2.7.4.1.6.3,1.2.6-.9.2-1.4.4-2.1.5.4.2.6.4,1,.7-1.2.4-2.2.8-3.4,1.3.3.2.5.4.6.4-.8.3-1.6.6-2.6,1,1.4,1.6,1.4,1.4,3.2,1.5,2.1,0,4.1.7,6.3,1,1.6.2,3.5,1.1,4.4-1.3.1-.4.4-.9.7-1.3,1-1.7,2-3.4,3-5,0-.1.2-.4.3-.5.3.2.6.4,1,.7.4-1.2,1-2.1,2.3-2.3,1.5-.3,2.1-1.5,2.2-3.2,0-.7.3-1.5.4-2.3h.4c.2,1.3.4,2.7.7,4.5.7-2.3,2.1-1,3.2-1.2,0-.4-.1-.7-.2-1.1.7.2,1.4.4,2.1.6,0-.4.1-.7.3-1.2,1,.4,1.8.8,2.8,1.3-.7-2.1-1.4-4.2-2.1-6.1-1.5.3-3.1.3-4.2,1-1.2.7-2.4,1-3.6,1.2-.2,0-.4.3-.6.4-1.1,1-2.8.9-3.8,2.3-.7.9-2.4.9-3.7,1.4-.6.2-1,.7-1.6,1-.8.4-1.6.7-2.5,1,0,.1,0,.3,0,.4h1ZM304.7,151.1c-.7,0-1.3.3-1.9.2-1.3,0-2.4.5-2.7,1.5-.2.7-.7,1.4-1,2.1-.7,1.4-1.4,2.8-2.1,4.2.1,0,.3.1.4.2.7-.4,1.3-.7,2-1.1.1.2.2.5.3.5.7-.3,1.3-.5,1.9-.7,1.5-.4,2.9-.9,4.4-1.3.7-.2,1.5-.4,2.4-.7,0,.6-.1.8-.2,1.1.9,0,1.6-.1,2.5-.3-.1.4-.3.7-.4,1h2c.4,0,1,.2,1.3.5,1.3,1.7,3.5,2.3,4.9.9,1.7-1.5,2.4-3.7,3.1-5.8-2.3-1.5-4.4-3-6.4-4.4.1,0,.3-.1.8-.4-1.4-.7-2.7-1.3-3.8-2,0,0,0-.1,0,0-3.1-1.7-6.1-3.3-9.3-5.1-.8,2.6-1.5,5.1-2.2,7.3,2-.2,3.8-.4,5.7-.6-.3.4-.4.7-.4.7,1.3.4,2.4.7,3.8,1.2-.4.2-.6.4-1.1.6,2.4,0,3.5,1.6,4.8,3,0,0-.2.1-.3.1h-1.5c0-.1,0-.4-.1-.7h-1c.1-.4.3-.6.5-1-.9,0-1.7.2-2.4,0-1.3-.3-2.4-.8-3.7-1.3,0,0-.1-.2-.2-.3v.6ZM261,237.5c-2-1.5-2.4-3.3-1.5-6,.6-1.5.8-3,0-4.4-.4-.9-1.2-1.1-1.8-.3-.7,1-1.5,2.1-1.8,3.2-.7,3.5,0,6.7,2.7,9.1,2.2,2,2.7,4.3,1.8,7-.3.7-.5,1.5-.8,2.3-.1.4-.4.7-.7,1,0-2.6.4-5.1-1.8-7.2-1.2,1.2-.9,2.5-.4,3.6.8,2.3,1.1,4.6.3,6.9-.6,1.8-1.3,3.5-2.1,5.2-1.1,2.4-1.3,4.9-.7,7.6v.7c-.1,0-.2.1-.4.2-.1-.2-.2-.4-.4-.7-2.2-2.8-2.1-6-1.6-9.3.3-2.3,1-4.6,1.2-6.9.1-1.3-1-3-1.7-2.6-.7.4-1.4,1.4-1.5,2.3-.4,2.1-.4,4.1-.7,6.2-.1,1.2-.4,2.3-1.8,3.1,1-3.2.4-6-.5-8.9-.7-1.9-.6-3.8.2-5.6,1-2.2,1.9-4.4,2.9-6.5,1.2-2.4,1.6-4.9,1.4-7.7-.1-1.5-1-2.7-2.1-3.5s-1.8-.7-2.2.6c-.2,1-.2,2-.1,3,0,2.4.3,4.6.1,7-.2,2.9-1.7,5.1-4.9,6.4.4-.5.5-.8.7-1,2.2-2.1,2.6-3.9,1.1-6.6-.7-1.5-1.6-3-2.6-4.3-1.7-2.2-1.8-4.5-.9-7,.4-1.2.9-2.4,1-3.6,0-.5-.6-1.4-1.1-1.6-1.6-.7-2.7.2-2.7,2s.4,3-.5,4.4c-.4-1-.6-2-1.2-2.8-1.3-2.1-2.3-4.3-2.2-6.9,0-1.4-.4-2.6-1.8-3.3.4-.1.7-.3,1.2-.6-.8-.9-1.3-1.7-2.1-2.3-.4-.3-1.3-.4-1.6,0s-.6,1.3-.4,1.7c.3.9,1,1.6,1.5,2.4-.2.7-.3,1.3,0,1.8,6.9,20.9,13.9,41.7,20.9,62.6.3.8.6,1.5.9,2.4h.4c7.7-23.9,15.5-47.9,23.3-72.1-.8.4-1.2.7-1.5.9,0,0,0-.3,0-.3-2.5.2-4.4,1.5-6.1,3.2.6,0,1.2.2,1.6,0,1.5-.9,3.1-1.9,4.6-2.9,0-.2,0-.4,0-.7.1.1.4.3.5.5-.4.5-.7,1.2-1.3,1.6-1.9,1.7-2.4,3.8-2.3,6.3,0,2.4-.7,4.6-2.3,6.4-1,1.2-1.5,2.6-1.5,4.1s0,.6-.1,1c-1.9-1.8-.3-4.3-1.3-6.2-.4.7-.9,1.4-1,2.1-.1,3.2-1.3,6-3.3,8.4-1,1.2-1.2,2.7-.7,4.1,0,0-.1.1-.2.2h0ZM372.7,196.8c-1.9-.2-3.8.7-5.8,1.3-1.6.5-3.5,1-5,.7-3.2-.7-6.2-2.4-9.9-1.7.2-.6.2-1,.4-1.2,2.3-4.1,2.4-8.3,2.1-12.8-.3-3.4-.4-6.8-.4-10.2s1-3.2,2.9-4.1c1.8-.7,3.1-.2,4.4,1.1.6.7,1.3,1.3,2.1,2,1.4-4.6-2.4-10.5-7.3-10.5-1.5,0-3.2.1-4.7-.1-1-.1-2.1-.8-2.8-1.5-.6-.6-.9-1.5-1.2-2.4-.7-1.8-1.3-3.8-1.9-5.6-.7,2.4-1.3,4.8-2.1,7.2-.7,2.1-2.4,3.2-4.6,3.3-2.1,0-4.3.4-5.2-2.4-1,.4-1.8.8-2.7,1.3-3.4,1.6-5.2.8-6.3-2.7-.5-1.7-1.1-3.3-1.7-5.1-.9,1.8-1.7,3.5-2.4,5.2-.9,1.9-2.4,2.7-4.4,2.6-1.2,0-2.4-.2-3.6-.1-5.8.6-10.1,3.6-13.2,8.5-.4.7-.8,1.3-1.3,2.1-4.9-5.4-7.9-11.6-9.7-18.7-.1.6-.2.7-.3,1,0,.4-.1.7-.2,1-.7,3.6-1.9,7.1-4.7,9.7q-2.4,2.3-4.6,0l-.5-.5c-3.7-4.2-10.5-2.4-12.5,1.3-.2.4-1,.7-1.4.7-3.2.2-5.8-1-7.6-3.6-1.5-2-2.6-4.3-3.9-6.4-.2.7-.4,1.4-.7,2.1-1,2.9-2.4,5.4-5.1,7-1,.6-2,1.3-3,1.8-3.2,1.8-5.5,4.4-7.1,7.5-.2.4-.4.8-.7,1.4-.3-.6-.4-1-.6-1.3-1.8-5.5-5.5-9.4-11-11.4s-2.9-2.2-3.5-4c-.4-1.2-.9-2.4-1.4-3.8-.5,1.6-.9,3-1.4,4.3-.7,1.9-1.8,3.5-3.6,4.6-1.8,1.1-3.5.5-4.1-1.5-.4-1.3-.8-2.6-1.2-4-.2.3-.4.5-.5.8-.6,1.5-1.6,2-3.2,1.9-1.3,0-2.5.3-3.7.7-2.4.7-4.4-.1-5.3-2.4-.4-1.3-.8-2.5-1.2-3.8-.4-1.5-.8-3.1-1.3-5-.6,2.3-1,4.1-1.6,5.8-.8,2.2-2.4,2.4-3.9.7-.1-.2-.4-.4-.6-.7-.4.7-.7,1.3-1,1.9-3,4.7-3.7,5.3-9.2,3.5-2-.7-4-1.3-5.8.2-1.4-1.2-2.7-2.3-3.7-3.2-1,1.4-1.5,3-2.6,3.7-1.9,1.3-4.4.6-5.6-1.5-1-2-1.7-4.2-2.5-6.3-.5-1.3-.8-2.7-1.2-4.1-.5,1.5-.7,2.9-1,4.3-.7,3-1.3,6-2.1,9-.7,2.2-2.6,3-4.4,1.9-1.5-.8-2.5-1.9-2.6-3.7-.1-1.5-.2-3-.4-4.6-1.5,1.3-2.4,2.8-2.6,4.5-.4,3.1-.7,6.3-1,9.4,0,1.4-.4,2.1-2,2.4-2.9.5-5.5,1.8-6.8,4.6-1.8,3.8-1.6,7.7-.1,11.5.4,1,1,1.8,1.5,2.7.3-.6.3-1.1.3-1.6.2-3.6,2.8-6.6,5.9-6.9,1.6-.1,2.4.4,2.4,2,0,5.3,0,10.5.1,15.9v4.9c-.8-.4-1.3-.5-1.7-.8-3.4-1.9-6.6-1.2-9.7.8-2.8,1.8-3.9,4.6-3.2,7.6.6,2.8,2.8,4.6,6.3,5.2,0-.2.1-.4.1-.6.1-2.3,1.8-3.3,3.7-2.1,1.2.7,2.2,2,2.9,3.2.9,1.6,1.4,3.4,2.2,5.4.2-1,.4-1.9.6-2.8.4-3.6,2.3-6.3,5.4-8.2,1.5-1,3.2-1.8,4.6-2.9,4.7-3.1,7.5-7.4,7.3-13.2,0-4.1,0-8.1,0-12.2v-1.6h2.7v6.9c.2,6.7,3.2,12.1,8.4,16.2,1.4,1.1,3.2,1.9,5,2.4,4.4,1.1,8.6.2,12.6-1.5.6-.3,1.3-.2,2.1-.4,0,.7.1,1.5.1,2.3s-.1.5-.1.7c-.9,3.2-.6,6.3,2,8.7,2.1,2,7.4,3,9.9,1.9-3.2-.7-4.4-2.3-4.3-5.5,0-2.4,1.1-3.2,3.5-2.8,1.6.2,3.2.5,4.8.7,3.8.4,7.1-1.4,8.6-4.9.9-2.1,1.5-4.2,2.4-6.4,1.5,4.8,4.1,8.6,9.4,10-.9-2.5-.8-4.1.4-4.6,2.2-1,3.3.8,4.5,2.1,1.1-2.6,2.1-5.1,3.2-7.7,7.8,7.2,16.2,8.4,25.7,4.1-1.4,5.2-1.8,10,1,14.5.3-.9.4-1.8.6-2.7.8-5.1,3.2-8.9,8.2-10.8,5-2,9.7-.7,12.8,3.7,0,0,.2.1.2.1,1.2-1.7,2.3-3.4,3.5-5,.6-.8,1.3-1.2,1.8.1.7,1.5,2,2.4,3.6,2.2,1.8-.1,3.6-.6,5.5-.9.5,1,1.5,2.2,3,1.8,1.3-.3,2.3-1.3,3.6-2,.1.4.6,1,.7,1.5,0,.3-.6.7-1.2,1.3,1.3.6,2.5,1.3,3.8,1.6,3,.8,5.5-.6,7.8-2.1,2-1.3,3.8-2.8,5.5-4,1.6,1.5,3.2,2.8,4.7,4.3-.5.9-1.3,1.9-1.8,3s-1,2.2-1.5,3.1c2.8-1.8,5.5-4,8.6-5.5,3.8-1.8,7.7-3,11.7-4.3,1.7-.5,3.6-.6,5.4-.7,3.3-.1,6.1,1,8.4,3.5,1.3,1.4,2.8,2.7,4.2,4,.1,0,.3-.1.4-.2-.4-2.9.4-5.5,2.1-7.7,2.4-3.2,4.9-6.3,7.4-9.4v.2ZM206.2,136.2c.8-2.1,1.5-4,2.3-5.8,1.2-2.5,3-4.3,5.8-4.9,1.5-.3,2,0,2,1.5s.7,2.3,2,2.7c1.3.4,2.5.3,3.5-.7.4-.4.9-.9,1.4-1.3.1,0,.3,0,.4.1v2.1c6.3,2.7,11.6.3,16.4-3.3,5.1,4.1,9.8,8.3,11.4,14.8.4-.7.7-1.3.8-2,1-3.8,3-6.9,5.5-9.8,3.1-3.5,8.6-3.5,11.5-.4.8.9,1.8,1.7,2.7,2.5,1-2.7,2.1-5.4,4.7-7.2,1.5,4.3,4.8,4.3,8.2,3.6-.1,2.2-.4,4.3-.5,6.3h.4c.5-.4,1-1,1.5-1.7,1.5-1.9,3.5-3.5,5.8-3.9,3-.7,6.2-.9,9.4-1,1.8-.1,3.3.8,4.6,2.1.8.9,1.6,1.8,2.6,2.9.7-2.8,2.1-4.9,4.1-6.8,1.8,2.4,4.9,3.4,7.8,2.4,4.4-1.5,7.7-5.2,7.5-8.4-4.4,2.4-6.9.4-8.6-3.6-.6-1.4-1.1-2.8-1.5-4.3-.9-2.6-1.2-5.4-4.1-7.5,3-1.5,5.7-2.9,8.3-4.2-5.5-5.6-8-12.7-8.4-21.1-.4.7-.6.9-.7,1.1-1.5,2.6-3,2.9-5.5,1.2-1.7-1.2-2-3-2.5-4.7-.4-1.3-.6-2.6-1-4.2-.7,2.1-1.1,3.8-1.8,5.4-1,2.7-2.4,4.1-5.3,3.8-1.6-.1-3.2,0-4.9.1-3.5.1-6.3,1.5-8,4.7-.5,1-1,2.1-1.5,3.2-2.9-2.3-4.7-5.2-6-8.5-1.3-3.2-2.1-6.6-3-9.7,0,0,0,.3-.1.6-.8,2.9-1.5,5.8-2.4,8.6-.4,1.2-1.3,2.3-2,3.3-.6.8-1.3.8-2.2.1-2.3-1.7-4.7-3.2-7.7-2.7-1.7.3-3.3,1.2-5.2,1.8-1.8-3.2-5-3.2-8.5-2.4-2.5.6-3.6.1-4.5-2.4-.6-1.6-1-3.4-1.4-5.1-.1-.7-.3-1.3-.6-2.1-.7,2.1-1.1,3.8-1.8,5.4-.9,2.3-2.7,3.7-5.2,3.9-1.4.1-2.8.2-4.3.3-6,.3-11.7,4.8-12.5,10,0,.2-.1.4-.4,1.1-.3-.9-.4-1.3-.5-1.8-1.7-4.6-4.2-8.4-9.4-9.3-1.6-.3-3.2-.4-4.9-.4-4,0-7.9.2-11.9,0-4.6-.2-10.3,3.8-12,8.2-1.1,2.8-1,8.3.5,9.8,2.1-5.8,6.1-7.7,8.9-6.6-2.4,4.9-1.9,10.5-2.8,15.7-.2,0-.4.1-.6.1-4.5.9-7.2,4.5-6.7,9,.2,1.5,1.1,2.7,2.6,3,.7.1,1.5-.1,2.1-.2,1.2,0,1.5.9,1.4,2.1-.3,3.8-2.7,6.3-6.6,6.6h-3.5c2.2,2.2,4.6,2.7,7.2,2.3v3.5c1.8-1.3,3.2-2.6,4.9-3.5,3.7-2.1,7.5-3.6,11.9-3.2,5.1.6,8.4,3.3,10.5,8.1h0ZM331.8,35.4c-.8.5-1.2.7-1.5,1-16.9,12.2-33.8,24.4-50.7,36.6-1.3,1-3.2,1.8-3.6,3.1-.4,1.3.8,3.1,1.3,4.6h.1c.3,0,.6-.2.8-.4,7.2-5,15.1-8.4,24-9.2.8,0,1.1-.4,1.3-1.2.1-.7.4-1.3.7-1.8.1,0,.2,0,.4,0,.2,1,.4,1.9.6,2.9,4.9.4,9.7.7,14.3,2.7,4.1-12.7,8.1-25.4,12.3-38.5h0ZM230.9,79.9c0-.1.1-.2.2-.4-20.2-14.4-40.3-28.8-60.6-43.1l-.4.4c4.2,12.3,8.4,24.6,12.6,37,7.5-3.3,15.1-4.8,23-2.7,6.2,1.6,11.6,4.7,16.5,8.8.5.4,1.1,1,1.6.9,2.3-.2,4.6-.6,6.9-.9h0ZM327.7,157.2c1.1,1.2,1.9,2,2.8,3,1.8-.7,3.9-2.1,6.7-1.4-.7.4-1,.6-1.4.8-.7.5-.7,1,0,1.6,1.5,1.3,4.9.3,5.6-1.8-11.9-8.6-23.8-17.3-35.7-26-.7,1.9-1.2,3.7-1.8,5.4-.4,1,0,1.8.7,2.2,1.4.9,3,1.8,4.4,2.5,2.9,1.5,6.5,1.5,8.4,4.9.7,1.2,2.4,1.8,3.4,2.5.3.6.6,1,1,1.8.4-1.7.7-2.9,1-4.1h.4c.3,1.5.7,3.1.8,4.7.2,2.1,2,3.6,3.7,3.8h0ZM362.7,181.6c.4,1.1.5,1.7.7,2.3l-.4.4c-1.5-1.1-3-2.1-4.8-3.5,0,1.1.1,1.8.2,2.7-1-.4-1.7-.7-2.5-1v5.5h24.3c0-.1,0-.2,0-.4-8-5.8-15.9-11.5-23.9-17.3-2.2,3-1.5,5.3,1.3,6.6,2.7,1.2,5.2,2.6,7.6,4.1,1.3.8,2.1,2.1,3.2,3.2l-.4.4c-1.7-1-3.4-2-5.4-3.2h0ZM197.4,133.1c-10.8,7.9-21.5,15.6-32.3,23.5,3.2,1.7,4.9,1.5,6.6-.7.1-.1-.1-.7-.1-.9,3-1.6,5.9-3.2,8.9-4.9.1,0,.4-.4.4-.4-.6-1.1.5-.8.9-1,.5-.2,1.2-.3,1.8-.4-.5-.7,0-1.8,1-2.1,3.6-.7,7-1.8,10-4.1,1.5-1.1,3.3-1.7,5.1-2.6-.7-2.1-1.4-4.1-2.3-6.6h0ZM270.7,157c.1,1.1,1.3,2.9,2.7,3.2,2.5.7,4.6,1.9,6.4,3.8.2.2.8.1,1.3.2v-1.5c-.1-.7-.6-1.5-.5-2.2.2-1.6,2.4-3.8,4.1-3.8s2.1-.8,2.3-2.1c.2-1.5.6-3,.8-4.5,0-.5,0-1.1-.1-1.6-.1-1.8-.4-3.7-.4-5.5,0-.9-1.2-2.3-2.2-2.1-1.2,0-1.1,1-1.1,1.9.2,3.5-.3,7-2.6,9.9-.6.7-1.3,1.3-2.1,2.1-.3-.7-.5-1-.6-1.1-2.7,1.2-5.2,2.3-7.8,3.5h0ZM261.9,223.2c0-1.3,0-2.1-.3-3-.2-.8-.6-1.6-1-2.3,0-.1-1.4.4-1.5.4-.7-1.3-.8.4-1.3.3-1.3-.2-2.6.2-3.9.1-4.1-.1-8-.8-11.6-3-1.1-.7-2.3-1.2-3.7-.7,1,.9,2,1.8,3,2.7-.1,0,0,0,.3-.1.3.8.6,1.7.9,2.4,0,0,.2-.3.1-.2.7,1.6,1.4,3.3,2.1,5h.3c-.1-.7-.2-1.3-.3-1.8.7,0,1.3,0,1.8.1,0,.2,0,.5.1,1,.5-.7,1-1.2,1.3-1.7,0,.3,0,.6,0,.5.9,0,2.2,0,2.2,0,.2,1.3,2.2,1.6,1.8,3.2,0,.1.1.4.2.7.1,0,.2-.1.4-.2v-1.5c.1,0,.3-.1.4-.2.3.4.6,1,.9,1.4.1-.9.4-1.8.5-2.8.3.4.5.7.7,1.2.2-.7.4-1.1.4-1.4,1.3.4,1.8-.3,2.1-1.2,1,1,1.5.4,2.1-.7.4.7.8,1.3,1.4,2.1h.3ZM395,190.6l1.5-.5c-.7-.3-1.2-.1-1.8-.3-.4,0-1-.4-1-.7,0-1.8-.7-2.8-2.7-3-.5,0-1-.5-1.5-.8l.2-.2c-1.5-.7-3-1.3-4.3-2.1-.7-.4-.9-1.8-1.5-1.9-2.7-.7-3.5-3.5-5.9-4.5-1-.4-1.9-1.1-2.7-1.8s-.7-1.4-1.9-1.5-1.8-2-3.3-2.1c0,0,0-.2,0-.3-1.5-1-3.2-2.1-4.8-3-.1,0-.4,0-.4,0-.6,2,.8,2.7,2,3.6,8.3,6,16.7,12,25,18.1,1,.7,2.1,1.4,3.3,2.4-.1-.7-.3-1-.4-1.3h0ZM242,214.2c1.7,1.6,3.6,1.9,5.5,2.4,4,1.1,8,1,12,0,1.1-.3,1.3-1,1-1.8-.2-.9-.7-1.8-1.1-2.7-1.6.8-2.7-1.3-4.5-.7-1.1.4-2.5-.2-3.8-.4-.2,0-.6,0-.7,0-.7,1.1-2.4.4-3,1.6,0,0-.6-.2-.7-.3-1.4.8-2.7,1.8-4.7,1.8h0ZM311.8,131.3c10.7,7.7,21.1,15.3,31.6,22.9.9-2.7.5-3.5-1.1-3.3-.8-1.3-1.5-2.5-3-3-1.3-.4-2.7-.8-4.1-1.3,0-.3,0-1-.2-1.3-1.3-1-2.6-2.3-4.1-2.7-2.2-.6-3.5-2.1-4.4-3.6-.7-1.1-1.3-1.5-2.3-1.4-1.7.1-2.4-1.3-3.5-2.1-1.4-1.1-2.2-3-4.4-2.9-.1,0-.3-.2-.4-.3-.9-.4-1.7-1-2.6-1.4-.3-.1-.7,0-1.4.2h0ZM234,213.4c1.7.1,3.1.6,4.3.3,3-.7,5.8-1.7,8.7-2.7.4-.1.7-.4.8-.4-3.5-1.8-7-3.5-10.7-5.4-.9,2.4-1.8,5-3.1,8.2h0ZM240.4,150.4c-.9-1.4-1.9-1.5-3.2-1-6.1,2.2-9.9.6-12.6-5.3,0,0,0-.2-.1-.3-.8-.2-1.6-.7-2.4-.7-1,.1-.6,1-.4,1.8,1.3,4.6,4.6,7,9,8,3.5.8,6.8-.1,9.7-2.4h.1ZM270.1,152.2c5.2,0,9.7-3.2,11.1-8.1.1-.4,0-1.3-.3-1.3-.6-.2-1.4-.2-2,0-.4.1-.5.8-.7,1.3-2,4.1-4.6,5.8-8.7,5.5-.8,0-1.7-.6-2.5-.5-.7,0-1.3.7-2,1.1.4.4.6,1.2,1,1.3,1.3.4,2.7.5,4,.8h0ZM125.9,188.5c1.5-3,5.8-3.2,5.5-7.4-3.7,2.7-7.2,5.4-11.1,8.1h11.3c0-.1.1-.3.2-.4-.8-.7-1.6-1.4-2.4-2.1-1.2.6-2.3,1.2-3.6,1.8h0ZM305.2,72.3c.3,2.1.6,4.1.9,6.4,3.5-4.5,8-4.3,12.5-4-4.2-2.1-8.6-2.9-13.4-2.4ZM347.7,154.4c-.1.1-.3.2-.4.4.2.7.4,1.3.7,1.9,1.5,3.7,1.8,3.8,5.8,3.5.6,0,1.2-.3,1.8-.4-.1-.3-.3-.3-.4-.3-1.3-.7-2.9-.5-3.9-2-.9-1.3-2.4-2.1-3.5-3h0ZM160.1,160.2c.7.7,1.3,1.5,2,1.8.5.2,1.3-.3,2-.4,1.5-.1,2.4-1.4,1.8-2.8-.7-1.7-1.3-1.9-2.7-.9-1,.7-1.8,1.4-3,2.3h0ZM140.2,186.1c-1.8-.4-3.3.8-3.6,3.2h5.8c0-1,0-1.8-.1-3-.9.7-1.5,1.2-2.5,1.8.2-.9.4-1.5.5-2h0ZM299.4,135.2c.4-1.2.7-2.1,1.1-3.1.8-2.1-.1-3.3-2.9-3,.2,1.5.4,2.9.7,4.4.2.4.6.9,1,1.6h0ZM181.2,137.5v.5c.7-.1,1.3-.1,1.7-.4,1.5-1,3-2.1,4.4-3.2,1.5-1.1,3-2.3,4.6-3.4,0-.1-.1-.2-.3-.4-3.5,2.3-7,4.6-10.5,6.9h.1ZM355.6,176.7c-.6,3.8-.2,4.9,1.3,4.7,0-.5,0-1,.1-1.7,1.3.2,2.4.4,3.6.7,0-.1,0-.3.1-.4-1.6-.7-3.2-1.5-4.7-2.1-.1-.4-.4-.7-.5-1.2h0ZM310.8,78.4c-1.5.3-2.5.4-3.5.7-.1,0-.4.5-.4.6.4.6.7,1.4,1.3,1.8,1,.7,2.1.6,2.9-.3.4-.4.4-1.2.3-1.8,0-.4-.4-.9-.6-1h0ZM153.2,158c-1.3.8-2.4,1.5-3.4,2.2-.7.4-1.2,1-1.8,1.5-1,.6-1,.6-.4,1.6,3.5-2,5.5-3.8,5.6-5.2h0ZM266.4,82.8v.5c.7.1,1.6.6,2.1.4,1.3-.7,1.7-2.2,1.9-3.9-1.5,1.1-2.8,2.1-4.1,3.1h0ZM364.6,92.8c1.7,1.3-.5,2.6,0,3.8,1.3-1.5,2.1-4.9,1.6-7-.6,1.1-1.2,2.1-1.7,3.2h0ZM329.8,160.3c-.9-.3-2.2-.4-2.3-.9-.3-1.4-1.3-1-2.1-1.4,1.5,2.7,2.5,3.2,4.4,2.2h0ZM188.7,130.2l-.4-.4c-.9.4-1.8.9-2.6,1.5-.2.1-.2.7-.4,1,.4,0,.9.3,1.1.1.8-.7,1.5-1.4,2.3-2.1h0ZM260.9,208.9c-1,.4-1.8.7-2.9,1.2,1,.4,1.7.7,2.7,1.1,0-.9.1-1.5.2-2.3ZM203.1,132.7c-.1,0-.2,0-.4.1.4,1,.8,2.1,1.3,3.5.6-1.8-.3-2.7-1-3.6ZM364.8,93.3c-.1,0-.2-.1-.4-.2-.4.6-.8,1.1-1.2,1.7.1,0,.2.1.4.3.4-.6.7-1.1,1.2-1.7h0ZM151.7,158.2h0c0,0,0,0,0,.1h0c0,0,0,0,0,0h0ZM263.9,161.9h0,0Z"/>
  <path class="cls-1" d="M405.9,59.1c1.9,1.5,2.5,3.4,1.7,5.9-.4,1-.7,2-1.4,2.9-6,7.7-7.4,16.7-7.4,26s.6,10.1,1,15.2c.4,4.7,3.7,5.6,7.5,5.1,1.4-.2,2.7-1,4.1-1.6,2.4-1.2,4.8-2.7,7.3-3.8,2.8-1.3,3.8-.8,5.5,1.9-1.5,0-3.6-.7-3.9,1.6-.2,2.4,2,2.4,3.4,2.9-.4.7-.8,1.3-1,2-.2,1.2,0,2.2,1.5,2.6,1,.3,2.1.7,3.2,1,1,.3,2.1.5,3.4.8-2.1.7-3.8,1.5-5.7,2-2.5.7-2.7,3.2-1.3,4.9-2.6.5-3.7,1.3-3.6,2.7,0,1,.4,1.3,3.5,1.7-1,1.3-3,1.9-5,1.3-1.3-.4-2.4-1.1-3.5-1.8-1.9-1.1-3.8-2.4-5.8-3.2-1.2-.6-2.7-.8-4-.9-1.3,0-2.6.3-4,.1,1-.3,1.8-.7,2.8-.8,3.7-.4,6.8,1,9.8,3,1.8,1.1,3.8,2,5.8,2.9.5.2,1.3,0,1.9,0-.8-.6-1.7-1-2.1-1.6-.7-1.3,0-2.5,1.1-3.1,1.5-.7,1.8-1.8,1.5-3.2-.1-1.1.3-1.7,1.3-2.1,1.5-.6,3-1.3,4.4-1.8-1.3-.4-2.7-.9-4-1.3-1.7-.5-2.3-1.6-2-3.2.2-1.1,0-1.7-1.1-2.3-1.8-1-2.2-2-1.4-3.5.4-.8,1.5-1.3,2.4-2-.4,0-1.1-.3-1.7-.1-1.8.7-3.7,1.4-5.5,2.3-1.6.7-3.1,1.8-4.6,2.6-1.9,1-4,1.3-6,1-2.4-.3-4.4-1.6-4.9-4.1-.5-2.3-1-4.6-1.1-6.9-.1-4.8-.1-9.5,0-14.3.2-7.2,1.7-14.2,6-20.2,1.3-1.8,2-3.9,2.9-6,.2-.6,0-1.3,0-2-.1,0-.2,0-.4,0-.1.2-.4.5-.5.7-.5,1.5-1.6,2.2-3.2,2.1-1.7,0-2.8-.9-3.3-2.4-.3-1-.7-1.3-1.7-1.2-2.1.1-3.2-1.2-4-2.7-.5-1.1-.9-2.2-1.4-3.6-.3.9-.5,1.6-.7,2.4-1,3.5-1.5,3.9-5.2,3.8-1,2-1.8,4.4-4.7,3.9-1.6-.2-2.1-1.3-2.5-4.5-1.3,1.6-1.3,3.4-.8,4.9.4,1.4,1,2.8,1.9,3.9,4.1,5,5.5,11.1,6,17.3.5,6.1.4,12.2.4,18.4,0,2.2-.7,4.5-1.3,6.6-1,3.2-3.5,4.5-6.9,4.1-3.6-.5-6.6-2.4-9.4-4.6-1.8-1.5-3.7-2.1-6.3-1.1.3,0,.6,0,.8.3,1.7,1.7,1.5,3.7-.8,4.6-1.1.5-1.4,1.1-1.3,2.3,0,3-.9,4-5.2,5,1.3.4,2.1.6,3,.9,2.4.7,2.7,1.2,2.5,3.7,0,.6-.1,1.2-.2,1.8,1.3.9,3,1.5,2.8,3.4-.1,1.8-1.8,1.8-3.2,2.3,1.8,1,3.2,1.2,4.9.2,3-1.6,6-3.2,9-4.7,1.3-.6,2.9-1,4.4-1,4.2-.3,7.2,3.2,5.8,7.2-1.3,3.6-3.3,7-4.9,10.5-.5,1.1-1,2.2-1.3,3.4-.1.5,0,1.1,0,1.6.1.1.3.2.5.4,0-.3.1-.7.3-.8,1.6-1.6,3.8-1.4,4.7.7.7,1.3,1.4,2,2.9,1.8,1.6-.3,2.5.6,3,2.1.4,1.4.9,2.7,1.3,4.1h.2c.5-1.5,1.1-3,1.6-4.6.3-1,.9-1.5,2-1.4,1.4,0,2.7,0,3.3-1.8.4-1.1,1.4-1.7,2.7-1.5,1.5.2,1.9,1.3,2.2,2.6h.4c0-1.1.5-2.3.2-3.2-.6-1.9-1.5-3.8-2.4-5.5-1.3-2.4-3.2-4.4-3.3-7.2,0-1.8.2-3.5.4-5.2,0-.5.6-1,1-1.8,0,.5.2.7.1.8-2,4-1,7.7,1.1,11.3,1.3,2.1,2.5,4.2,3.5,6.4,1.2,2.7.4,4.8-2.2,6.8,0-.7.2-1.1.2-1.5.1-1,0-2.1-1.2-2.3-.7,0-1.8.4-2.4,1.1-.6.7-.7,1.8-1,2.8-1.5-1.5-3.3-1.3-4.2.7-1,2.1-1.6,4.4-2.4,6.8-.3-.9-.5-1.7-.7-2.5-.4-1.3-.8-2.6-1.1-4-.4-2.6-3.4-2.8-4.9-1.2-.4-1-.6-2-1-3s-1.1-1.6-2.3-1.3c-1.1.3-2,.9-1.8,2.2v1.3c-1.9-2-2.4-4.3-1.3-6.6,1.4-2.7,3-5.4,4.4-8.1.6-1.3,1.1-2.7,1.3-4,.6-4.1-2.1-6.8-6.2-6-1.8.4-3.5,1-5.1,1.8-2.5,1.3-4.9,2.9-7.4,4.2-2.6,1.3-5.3.1-6-2.1,1.1-.2,2.3-.3,3.4-.7.2,0,.4-1,.3-1.3-.7-1.5-1.9-2.3-3.5-2.1.4-1,.9-1.8,1.1-2.9.4-1.4-.3-2.3-1.8-2.7-2.2-.5-4.4-1.1-6.5-1.6,1.8-.4,3.6-.7,5.4-1.3,2.9-1,3.5-3.5,1.3-6,.9,0,1.7,0,2.3-.3.8-.4,1.7-1,2.1-1.8.2-.4-.4-1.6-1-2-.6-.4-1.5,0-2.3,0,1-2,4.2-2.9,6.7-1.6,1.1.6,2.2,1.3,3.2,2.1,2.2,1.7,4.6,2.9,7.3,3.5,3.8,1,6.3-.4,7.2-4.2.6-2.3.9-4.7,1-7.1.3-8.2.3-16.4-1.6-24.5-.9-3.7-2.7-6.7-4.9-9.7-1.1-1.6-2.1-3.3-2.1-5.5s1-3.8,3-4.4c-.1.8-.4,1.5-.4,2.3,0,1.1.4,2.1,1.5,2.5s2.3,0,2.9-1c.7-1.2,1.1-2.6,1.6-3.8.3,1,1.3,1.5,2.3,1,.8-.3,1.7-1,2-1.8.8-2.2,1.3-4.5,1.8-6.6.7,1.8,1.3,3.9,2.2,6,.4.8,1,1.7,1.8,2.1,1.3.7,2.4.1,3.4-1.5,0,.9,0,1.5.2,2.1.2.7.3,1.8.8,2.2.8.7,2.1,1.3,3,1.1.7-.1,1.5-1.3,1.9-2.3.3-.7.1-1.6.2-2.4h.4Z"/>
  <path class="cls-1" d="M116.1,152.3c-.3,1.3-.6,2.5-.9,3.8-1.7-1.8-3.5-1.5-4.4.7-.8,2.2-1.4,4.5-2.1,6.8-.7-2.2-1.5-4.4-2.3-6.7-.5-1.5-1.5-2.1-3-1.8-.6.1-1,.7-1.5,1.1-.2-.8-.4-1.7-.7-2.5-.7-1.6-1.6-2.1-3.1-1.6-1.3.4-1.5,1.1-1,3,0,.1,0,.4.1.6-2-1.5-2.7-3.5-1.9-5.7.5-1.5,1.4-2.9,2.1-4.4,1.3-3.1,2.8-6,3.6-9.3,1-3.8-1.8-6.5-5.5-5.8-2.2.4-4.3,1.4-6.3,2.4-2.3,1.2-4.4,2.8-6.7,3.9-2.4,1.2-5.2.7-6.4-2.4.6.1,1,.4,1.5.3.8-.1,1.5-.4,2.3-.7-.3-.8-.3-1.9-.8-2.4-.7-.6-1.8-.8-2.6-1.1.3-.7.9-1.3,1-2.1.4-2.4.1-2.7-2.2-3.5-2-.6-4-1-6-1.5,1.8-.4,3.5-.8,5.4-1.2,2.8-.6,3.5-4.2,1.1-6,.9,0,1.8-.1,2.6-.3,1.5-.3,2.2-1.4,2-2.6-.2-1.1-1.3-1.5-2.8-1.3-.2,0-.5,0-.8,0,1.3-2.3,5.2-3,7.7-1.5,1.4.8,2.7,1.8,4.1,2.7,2.2,1.4,4.6,2.3,7.2,2.5,3.5.2,5.2-1.9,5.6-4.2.5-2.4.8-4.8.8-7.2.2-8,.1-16-1.7-23.9-.9-3.7-2.4-6.9-4.9-9.9-1.5-1.8-2.4-4-2.4-6.4s1.2-3.4,2.7-3.8c0,1.3,0,2.7.4,4,0,.4,1,.8,1.6,1,1.7.4,3-1.5,3.6-4.9.7.3,1.5.8,2.4.8,1.2,0,1.8-1,2.1-2.1.5-2.1,1.1-4.4,1.7-6.8.4,1.2.6,2.1.9,3,.4,1.3,1,2.6,1.4,3.8.7,2,3.7,2.9,5.2.3.1,1,.2,1.8.4,2.6.4,2,1.9,3,3.6,2.6,1.7-.4,2.5-1.8,2.1-3.8,0-.4-.1-.7-.4-1.3,2,1.5,2.7,3.3,2.1,5.5-.4,1.4-1,3-1.8,4.1-4.6,6-6.1,13.1-6.6,20.4-.4,6.7-.3,13.5,1,20.1,0,.2,0,.4.1.6,1.1,4.1,3.6,5.7,7.7,4.4,2-.6,3.8-1.7,5.8-2.6,2.1-1,4.3-2.1,6.6-2.8,1.5-.5,3.2-.4,4.4,1.3,0,0,0,.1,0,0-1.1.3-2.1.6-3.2,1-.3.1-.5.7-.6,1.2,0,1.5,1.1,2.4,3.7,2.8-2,2.4-1.5,4.1,1.4,5.1,1.7.5,3.5.7,5.5,1.2-2,.8-3.8,1.7-5.8,2.3-2.3.7-2.5,3.5-.7,4.8-1.5.6-4.1.1-3.6,2.9.3,2,2.2,1.2,3.5,1.5-1.1,1.5-3.3,2.1-5.5,1.3-1.4-.5-2.8-1.3-4-2.1-2.7-2-5.8-2.9-9-3.4-2.7-.4-4.6,1-5.5,3.5-.7,2.5-.7,4.9.6,7.2,1.5,2.7,3,5.3,4.5,7.9.9,1.5,1.2,3.3.5,4.9-.4,1-1.2,1.8-1.8,2.8-.1,0-.2-.1-.4-.2v-1.3c0-2.2-1-3-3-2.2h-.6c.7-.4,1.3-1.1,2.1-1.2,1.8-.2,1.8,1.7,2.7,2.8.9-1.5,1-3.1.2-4.6-.6-1.3-1.3-2.5-1.9-3.8-1.2-2.2-2.4-4.4-3.5-6.6-1-2.1-1-4.4,0-6.5.9-2.1,2.4-3.4,4.9-3.5,3.8,0,7.1,1,10.2,3,1.3.9,2.7,1.8,4.2,2.4,1,.4,2.2.2,3.1.3-.7-1-1.8-1.8-1.9-2.6-.2-1.8,1.3-2.6,2.7-3.2,0-.7,0-1.5,0-2.1-.1-1.1.2-1.8,1.3-2.2,1.4-.5,2.7-1.3,4.2-1.9-1-.3-2.1-.6-3-1-2.5-.9-2.5-1-2.6-3.5,0-1-.3-1.5-1.3-2.1-.8-.6-1.5-1.8-1.6-2.8-.1-1.2,1-1.8,2.2-2.1.2,0,.4-.1.6-.2-1-.4-2-.5-2.8-.3-1.5.4-2.9,1-4.2,1.6-1.4.7-2.7,1.5-4,2.2-1,.5-1.9,1-2.9,1.3-5.2,1.9-9-.2-9.9-5.7-1.1-6.9-1.4-13.8-.9-20.8.5-7.3,2.7-14,6.9-20,.7-1,1.3-2,1.6-3.1.3-1.1.2-2.4.3-3.5-.1,0-.4,0-.5-.1-.2,2.2-1.6,3.2-3.6,3.3-1.9.1-2.9-1.1-3.7-2.7-.2-.4-1-.9-1.5-.8-2.6.1-3.9-1.3-4.7-3.5-.3-.8-.6-1.7-1-2.6-.4,1.5-.8,2.9-1.3,4.2-.4,1.2-1.3,2-2.4,2s-2.4.7-3,2.2-2.1,2.1-3.5,1.7c-1.5-.4-2.7-1.3-2.4-3,0-.4,0-.7-.1-1.1-.6.6-.9,1.2-1,1.8-.5,2.7.5,4.9,2.1,6.9,3,3.6,4.6,7.8,5.5,12.4,1.4,8.3,1.3,16.7,1.1,25.1,0,1.5-.4,3.1-1,4.6-.9,2.8-2.7,4.1-5.7,4.1s-2.9-.1-4.1-.7c-2.5-1.3-4.9-2.7-7.4-4.2-2-1.3-4-1.5-5.5-.5,2.8,2,2.4,4-1.4,5.8.6,3.5-.6,6-4.6,6.4.4.2.7.3,1,.4,4.1.9,4.1,1,4.1,5s.4,1.2.9,1.7c.7.8,1.4,1.9,1.5,2.9.2,1.8-1.5,1.7-2.9,2.1,1.8,1.3,3.5,1.1,5.1.2,1.6-.8,3.1-2,4.7-2.8,2.4-1.2,4.8-2.5,7.3-3.2,4.1-1.2,7.4,1.5,7.1,5.8-.1,1.8-.7,3.6-1.3,5.2-1.2,2.7-2.7,5.2-4,7.8-.9,1.8-1,2.9-.2,4.2,2-2.7,4.1-2.5,5.7.4.2.4.9.8,1.4,1,.6.1,1.3.1,2,.1s1.3.3,1.5,1.1c.6,1.8,1.3,3.6,1.9,5.4.7-1.7,1.2-3.4,2-5,.3-.7,1.2-1.3,1.9-1.4,1.5-.1,2.8-.4,3.2-2.1,0,0,.2-.1.4-.2l-.3.5Z"/>
  <path class="cls-1" d="M392.6,60.3c.4.6.7.9.8,1.3.7,1.5,1.7,2.2,3.5,2.1.5,0,1.3.5,1.5,1,.8,1.3,1.5,2.8,2.4,4.4.5-.7.8-1.2,1.1-1.6,0,0,.2,0,.3,0-.1.5-.2,1.1-.4,1.5-3.8,7.2-5.1,15-5.2,23.1,0,4.9,0,10,.3,14.9,0,1.5.4,2.9.9,4.3,1.4,4.6,4.6,6.6,9.3,5.6,2.4-.5,4.6-1.8,7-2.7.9-.4,1.8-.7,2.3-.8.5.7.7,1.3,1.2,1.6,1.4.9,2.5,1.8,2.4,3.7,0,.5.7,1.1,1.2,1.5.5.5,1.2.9,1.9,1.4-1.2.6-2.5.9-3,1.6s0,2.1-.4,3.1c0,.4-.8.8-1.3,1.2-.6.4-1.3.8-1.9,1.3.3.3.5.5.7.7,0,0,0,.1-.1.3-.7-.2-1.4-.5-2.1-.7-2.6-1-5.2-2.3-7.8-2.8-7.2-1.3-11.6,3.7-9.5,10.8.7,2.3,1.8,4.5,2.7,6.7.4.9.6,1.8.8,2.9-.8-1-1.4-.9-2,.1-.5,1-1,1.8-1.5,3-2.9-1-4.1.8-5.1,3.1-.2,0-.4-.1-.4-.2-1-2.1-2.6-3.4-5.1-3.2-.3,0-.7-.4-1-.7-.5-.7-1-1.5-1.5-2.2-.2-.2-.7-.2-1.3-.4,0-.2.2-.9.5-1.5,1.1-2.6,2.4-5.1,3.3-7.7,1.1-2.8,1-5.5-1-8-2.4-3-5.5-3.6-8.9-2.4-2.4.8-4.5,2-6.8,3-1,.4-2,.8-3.3,1.3.4-.8,1-1.3.8-1.6-.1-.4-.7-.9-1.2-1-1.6-.4-2.3-1.3-2.1-3,.2-3.2.3-2.6-2.4-3.5-.2,0-.4-.1-.9-.3.4-.3.7-.4.9-.5,2.1-.7,3.2-2,2.9-4.3-.1-1.1.3-1.8,1.5-2.1.7-.1,1.5-.6,2.4-1-.6-.4-1-.7-1.3-1v-.3c.8.3,1.5.5,2.1.9,3.8,2.4,7.7,4.1,12.2,3.7,2.4-.2,4.1-1.4,4.7-3.5.9-2.8,1.8-5.7,1.9-8.6.2-6.6.3-13.2-.1-19.8-.4-5.7-1.7-11.2-4.9-16.1-.1-.2-.2-.5-.4-1,.5.2.9.4,1.5.6.9-1.3,1.7-2.6,2.7-3.8.4-.4,1.1-1,1.6-1,1.7,0,2.8-.5,3.3-2.2,0-.4.4-.7.7-1.3h-.1ZM392.7,61.3c-.5.9-.7,1.5-1.1,1.9-.4.4-1,1-1.5.9-1.5-.2-2.4.4-3.1,1.6-.4.7-.8,1.4-1.4,2-1,1.1-.8,2.1-.4,3.5,1.1,3,2.2,6.1,2.9,9.2,1.5,7.3,1.3,14.8,1,22.1,0,3.1-.6,6.3-1.4,9.3-1.3,4.9-5.4,6.8-10.2,5.4-1.9-.5-3.8-1.1-5.5-2.1-1.8-1-3.2-1.1-5.1-.3-1.2.5-1.7,1-1.6,2.3,0,1.8-.2,3.5-2.6,4,2.3,1.1,2.4,1.2,2.3,2.6-.3,2.4.7,3.8,3,4.6,1.1.4,1.8.5,3,0,2.3-1,4.6-2.1,7-2.8,5.3-1.5,10,2.3,10.2,7.8,0,3-.9,5.8-2.4,8.2-1.4,2.2-1.3,4.2.3,6.1.4.4,1,1,1.5,1,2.2-.2,3.6.7,4.5,2.7,0,0,.1,0,.2,0,.4-.6.7-1.3,1.2-1.8.4-.4,1.2-1,1.7-.9,1.5.2,2.1-.4,2.7-1.6.2-.5.6-1.1.9-1.5.5-.7.5-1.4.1-2.4-1-2.3-2-4.6-2.4-7-1-7.2,2.7-12.8,11.3-10.8,2.1.5,4.2,1.4,6.3,2.1,1.9.7,4.7-1,4.6-3,0-1.5.4-2.5,1.9-2.9.2,0,.4-.2.4-.2-.8-.9-2-1.7-2.1-2.6-.2-1.9-1.3-2.9-2.7-3.8-.9-.5-1.5-.4-2.4,0-1.8.9-3.8,1.8-5.8,2.4-6.7,1.7-10.6-.8-11.8-7.7-.5-2.9-.9-5.8-.9-8.8,0-9.1-.1-18.4,3.4-27,1.4-3.5,1.1-6.2-.8-9.1,0-.1,0-.3-.2-.4-.2-.2-.6-.5-.8-.5-2.1.2-3.5-.6-4.3-3v.3Z"/>
  <path class="cls-1" d="M337.6,90.8c-2.6-2.6-5.2-5.2-7.8-7.7.1-.1.3-.3.4-.4,2.6,2.7,5.1,5.3,7.7,7.9,0,0-.1.1-.2.2h0Z"/>
  <path class="cls-1" d="M329.8,82.7c-.3-.3-.5-.6-.8-1h0c.3.2.6.5.9.8,0,0,0,0-.1.1h0Z"/>
  <path class="cls-1" d="M332.2,87.4c0,.2.1.4.1.6-.1-.1-.3-.2-.4-.4,0,0,.1-.1.2-.2h0Z"/>
  <path class="cls-1" d="M140.9,91.3c0,.2.2.4.3.6l-.2.2c0-.2-.2-.4-.3-.6l.2-.2Z"/>
  <path class="cls-1" d="M141.2,91.9c.1.1.2.4.4.5,0,0-.2.1-.3.3,0-.2-.2-.4-.3-.6l.2-.2h0Z"/>
  <path class="cls-1" d="M262.8,61.6c0,0,0-.1,0-.3,0,0,0,.1.1.1,0,0-.1,0-.2,0h0Z"/>
  <path class="cls-1" d="M405.9,59.1h-.3c0-.1.1,0,.2,0h0Z"/>
  <path class="cls-1" d="M338.1,90.8c0,.1.1.3.2.4-.1,0-.2-.1-.4-.2,0,0,.1-.1.1-.2Z"/>
  <path class="cls-1" d="M337.9,91.1c0,0-.2-.2-.3-.3,0,0,.1-.1.2-.2,0,0,.1.1.3.2,0,0-.1.1-.1.2h0Z"/>
  <path class="cls-1" d="M330.3,90.8h0Z"/>
  <path class="cls-1" d="M325.9,89.6s0,.1,0,.1h0c0,0,0,0,0,0h0Z"/>
  <path class="cls-1" d="M189.4,170.6c2.8-3.4,3.9-7.2,4.5-11.5.4,1.8.7,3.3,1.1,4.7.7,2.4,2.1,3,4.4,1.8,1-.4,2-.7,3.1-.8-2.7,2-3.1,4.9-3.1,7.7,0,9.5.1,19,.2,28.5,0,.5.1,1.1.3,1.9.8-.2,1.5-.4,2.4-.7-1,2.2-2.3,3.9-4.2,5-1.2.7-2.4.2-3-1.2-.4-.8-.5-1.8-.8-2.7-.8.5-1.5,1-2.3,1.5-10.8,6.9-22.6.3-24.3-11.9-.4-2.7-.2-5.5.1-8.2.9-6.2,4.6-10.5,9.9-13.6.8-.4,1.5-.9,2.4-1.3-5.9-2.1-7.7-1.8-9.6,4-.4-1.1-.7-1.8-.8-2.5-.3-2.2.5-4.2,1.8-5.9.9-1.2,2.2-1.4,3.5-1.1,1.4.4,2.7.9,4.1,1.3,4.4,1.5,6.9.1,8.3-4.4,0-.3.2-.5.6-.8v2c0,5.3.2,10.6.2,16s.7,1.9,1.8,2.1c2.7.6,4.2-.6,4.1-3.3,0-1.6,0-3.2-.1-4.9,0-2-.9-2.6-2.8-2.2-.5,0-1,.2-1.9.4h0ZM181,171.9c-11.2,6.3-9.7,25-3.3,28.8,1.1-.7,1.8-1.6,1.8-2.9,0-1.5.3-3,.2-4.6,0-4.9-.1-9.8-.4-14.8,0-2.2.1-4.4,1.6-6.6ZM187.3,169.3c-1.8.9-2.9,3-2.9,5.2s0,6.3.1,9.4c0,2.8.1,5.6.3,8.3.2,4.3-1.6,7.6-4.8,10.5,2.4,1.6,4.8,1.5,7.2,1.1v-34.5h0ZM188.4,203.1c.2,0,.4.2.7.3,1.5-1,3-2,4.3-3.2.6-.5,1-1.5,1-2.3.1-3.2,0-6.3,0-9.6s-.8-2.1-1.9-2.1-2.4.4-3.6.9c-.2,0-.4.6-.4,1v15.1h0ZM188.6,185.6c2.1,0,3.9-.2,5.8-.3v-4h-5.8v4.3Z"/>
  <path class="cls-1" d="M134.9,187c-2.7-4.8,1.7-9.7,9.7-10.7,0-1.9.2-3.8.3-5.8v-5.8h.4c.1.4.3.7.4,1,1.3,3.8,5.3,4.7,8.1,1.8,1.4-1.4,2.2-3.1,2.4-5.2,0-1.7.2-3.5.6-5.2.2,1.2.4,2.3.7,3.5.8,5.2,4.6,7.3,9.4,5,1.2-.6,2.2-1.3,1.8-3,1.5,1.6,1.5,3.2.4,4.9-1.9,3-4.8,3.7-8.1,3.5-.7,0-1.3-.1-2-.2v5.2h5.7c-.9,2-1.5,3.7-2.4,5.3-.2.4-1.2.4-1.8.4-1.5-.1-1.8.5-1.8,1.8.2,5.1.3,10.3.5,15.3.2,4.4-1.8,7.5-5,10-1.6,1.3-3.4,2.4-5.1,3.6-2.6,1.8-5.5,3.2-5.2,7.2l-.4-.2c-.2-.5-.4-1-.7-1.5-1-2.5-2.9-4-5.4-4.6-2.6-.7-3.9.4-3.9,3-2.3-1.2-2.4-4.5-.1-6.5,2.5-2.2,6-2.4,8.6-.4.8.6,1.5,1.3,2.7,2.1.4-1,1-1.8,1-2.5,0-8,0-16.2,0-24.2,0-2.6-1-3.4-3.5-3.5-4.1-.2-5.7.9-6.9,4.8,0,.2-.2.4-.3.7h0ZM153.3,170.9c-2.7.2-2.8.2-2.7,2.4.1,5.3.4,10.6.4,15.9s-.1,10.1-.5,15.2c-.1,1.9-.9,3.8-1.4,5.8,2.8-1.8,4.1-4.4,4.1-7.5v-31.8h0Z"/>
  <path class="cls-1" d="M308,191.5c-1.5-1.8-3-3.5-4.4-5.2-3.8-4.6-4.4-9.6-2-14.9s6.9-7.7,12.6-7.7,3,.2,4.6.4c1.8.1,2.5-.4,3-2.1.3-1,.4-2.1.8-3.1,0,.9.2,1.8.3,2.7.3,2.7,1.8,3.9,4.6,3.5.9-.1,1.8-.4,3-.6-.6.5-.9.8-1.2,1-1.8,1.6-2.7,3.5-2.5,5.9,1,10.1,2,20.3,4.4,30.2.2.9.7,2,1.4,2.3.7.4,1.8-.1,2.7-.3-.3,1.8-2.7,3.7-5.2,3.7s-3.8-1.3-4.8-6.4c-.4.3-.7.5-1.1.8-2.8,2.4-5.5,4.8-8.4,7-1.8,1.4-3.5,1.4-5.3,0,.7,0,1.3-.1,1.8-.1,1.6-.2,2.4-1.5,1.5-2.8-.6-1-1.5-1.8-2.4-2.4-1.4-.7-3-1.2-4.6-1.5-1.9-.4-2.5.5-2.2,2.4.1.8,0,1.7-.4,2.4-.1.4-1,.8-1.4.7-.4,0-1-.8-1.1-1.3,0-.9,0-2,.4-2.8,1.9-3.9,4-7.7,6-11.7.1-.3.3-.6.5-1-.2.1-.4.3-.6.4h0ZM308.9,189.4c.1-.1.3-.3.4-.4,1.8-3.3,3.6-6.7,5.3-10,.1-.3.2-.8.1-1.2-.2-1.6-2.1-3-3.8-2.8-1.9.1-3.1,1.3-3,3.2,0,.9.2,1.8.4,2.8-.3-.2-.5-.3-.6-.4-3-3-1.3-8.7,3-9.9,2.7-.7,5.4-.6,8,.9.2-.5.4-.9.5-1.3-3.6-3.2-10.1-2.5-12.9,1.3-4.1,5.5-2.8,13.6,2.7,17.9h0ZM306.8,196.5c4.9,1.5,9.8,3.2,13.5,7,1.5-1.3,2.9-2.4,4.2-3.5.2-.2.5-.7.4-1-.2-1.9-.5-3.9-.8-5.9-4.4,0-8.5.2-12.6,0-2.6-.1-3.9.7-4.6,3,0,0,0,.2,0,.4h0ZM320.3,170.7c-3.1,5.8-5.9,11.1-8.9,16.7h11.9c-.6-5-1-9.9-1.7-14.8,0-.6-.7-1.1-1.3-1.9h0Z"/>
  <path class="cls-1" d="M197.6,218.8c-3.3-1.1-3.4-4.7-2.4-7.2,1.2-2.9,3.6-4.1,6.6-4.4.7,0,1.4-.1,2.1-.3,3.8-.7,5.8-3.5,5.1-7.3-.4-2.1-3.2-3.1-4.9-1.8-.6.4-1.1,1.1-1.7,1.8-.7-1.7-.1-3.2.9-4.5,1.5-1.8,3.4-1.1,5.2-.7.5-2.1-.2-4.4-1.8-5.4-1.5-1-3-.8-5.1.8-.3-1.2.5-3.2,1.9-3.8,1.3-.5,2.9-.6,4.4-.9.2-4.1-1.3-4.9-6.7-3.9.5-2.5,2.7-3.6,7.2-3.5v-12h.5c1.8,3.2,3.2,3.6,6.2,1.4,2.7-2,3.7-3.3,4.5-6.3.4,2.6,2.3,3.7,4.2,4.5,9.3,3.7,11.1,16.9,7.6,23.3-1.7,3.2-3.3,6.3-4.9,9.6s-.6,1.6-1,2.6c1-.1,1.7-.4,2.5-.4,1.2,0,2.4,0,3.5.6,1.2.5,1.8.4,2.5-.7.3-.4.7-.8,1.4-1-.9,2.5-1.8,5-2.7,7.6-1-.7-1.8-1.3-2.6-1.8-1.6-1-3.6-.4-4,1.3-.1.7.1,1.5.3,2.3-1.6-.4-3.1-1.8-3.2-3.6,0-1.8,0-3.8.4-5.5,1-3.6,2.3-7.2,3.5-10.6.5-1.4,0-2.1-1.2-2.7-3.4-1.8-6.6-1-9.7.9-.4.2-.7,1.1-.7,1.7,0,5.1,0,10.2-.1,15.2,0,6.3-4.5,8.5-9.5,8.3-1.5,0-3-.4-4.5-.6-1.8-.3-3.3.2-4.4,1.8-1,1.5-.9,3.2,0,4.7,0,.1.1.4.2.5h0c0,.1.1.2.1.2ZM216.3,169.3v8.6c0,.9.3,1.4,1,1.8,3,1.5,5.9,1.2,8.9.2,2.4-.7,2.4-.9,1.6-3.3-1.8-5.2-6.3-8.3-11.4-7.3h0ZM211.9,207.1c2.3-.9,2.8-2.8,2.9-4.9.1-10.3.3-20.6.4-30.9,0-.4,0-.7,0-1.1-.1,0-.4,0-.5-.1-.2.8-.7,1.7-.7,2.5-.1,9.8-.2,19.6-.3,29.4,0,1.9-.5,3.7-1.7,5.2h0ZM216.4,180.2v5.4c4-1.6,7.9-2.8,11.9.7.1-2.3.3-4.2.4-6.4-4.3,2.1-8.3,2.4-12.3.3h0Z"/>
  <path class="cls-1" d="M290.6,200.2c-2.1,2.6-3.9,5-5.9,7.5-2.9-3.2-6.7-3.8-10.8-3.2-4.2.6-6.7,3.6-9.4,6.7.4-1.3.6-2.7,1.3-3.8,1.8-3,4.2-5.3,7.5-6.7.4-.1,1-.7,1-1,0-2.4,0-4.9-.2-7.3-.6-5-3.5-8.3-8.3-9.8,0,0-.1-.1-.3-.3,2.4-2.2,4.8-4.4,7.2-6.6,1.5-1.4.7-3.1.4-4.5-.2-1-1.4-1.9-2.4-2.3-1.2-.4-2.3.2-2.8,1.5-.4.9-.7,1.8-1,3-.7-2.6-.7-4.7.8-6.8,1.6-2.1,3.8-2.2,6-1.7,3.2.7,5,2.7,4.9,6.4,1-.7,1.7-1.3,2.4-1.8.3-.2.5-.4.8-.7,3.5-2.4,6.5-5.1,6.2-10,.4,6.8,5.2,11.3,8.3,16.7-2.8,2.2-5.6,4.5-8.5,6.8.3.3.4.5.7.7,3.5,1.8,4.9,5,5.6,8.7.4,2.4,1,4.8,1.5,7.2,0,.5.3,1,.4,1.5,1,2.7,2.1,3.2,5.2,2.4-.9,2.6-3.1,4.2-5.5,4.1-3-.1-3.8-1-5.2-6.5h.2ZM291.8,177.7c-2.4-3.3-4.6-6.6-7.2-10-1,1.2-2.6,2.1-2.7,3.2-.3,4.9-.1,9.7-.1,14.8,3.4-2.7,6.6-5.3,9.9-8h0ZM281.9,186.7v14c2.1.1,4.1.4,6.1.4,1.1,0,2.7-.7,2.4-2-.4-2.8-1.2-5.6-2.1-8.3-1-2.8-3.5-3.6-6.4-4.1h0ZM280.2,200.3c.1,0,.2-.1.4-.2v-28.5c-1.4.7-1.9,1.3-1.9,2.7.2,6.8.3,13.6.4,20.4,0,1.5,0,3,.2,4.4,0,.4.6.8.9,1.3h0ZM273.6,181.6c0-1.8-.1-3.3-.2-5.1-1.2,1-2.1,1.8-3.1,2.7,1.1.7,2.1,1.5,3.4,2.4h0Z"/>
  <path class="cls-1" d="M342.4,202.5c3.7-3.8,4.8-8.6,4.5-13.7-.1-3.2-.7-6.3-.9-9.5-.3-4.3,0-8.4,3-11.9,2.2-2.6,4.8-4.1,8.3-3.2,1.5.4,2.4,1.4,2.6,2.9-3.2-2.1-7.6,0-8.1,4-.3,2.7,0,5.5,0,8.2.3,5.1.7,10.3-1.4,15.1-.9,2.1-2.1,4.1-3.2,6.3.7-.1,1.3-.1,2-.4,3.5-1,7.1-.6,10.5.7,2.6,1,4.9,1,7-1,.1-.1.4-.1.5-.3,0,0,.1.1.2.2-.7.9-1.4,1.8-2.2,2.7-1.6,1.9-3.1,3.9-3.1,7.1-3-4.6-7.2-5.7-11.9-5.7s-8.8,1.3-12.8,3.2c-1.2.5-2.4,1.1-3.7,1.4.6-.5,1.1-1,1.7-1.5,2.1-2,4.4-4.1,5.1-7,.4-1.6.6-3.6.1-5.2-1-3.2-3.8-3-5.8-1.3-.4.3-.7.7-1,1.1-.7-4.5,1.8-6.9,6.5-6.1-.4-1.8-.2-4-2.2-4.9-3.1-1.3-4.7.8-6.2,3.5,0-5.5,2.7-8.3,7.7-8.4,0-3.2.7-6.1,2.9-8.6-2.1-.4-4.1-.9-6-1-3-.3-3.5.1-5,3.2-1.7-2.5-.8-5.7,1.8-7.1,2.4-1.3,4.9-.9,7.5-.9s3.2-.5,3.8-2.3c.1-.4.3-.9.4-1.3.1-1,.3-1.9.5-3.3.1,1.3.3,2.1.4,3,.2,2.3,1.4,3.5,3.5,3.7-.7.9-1.3,1.8-1.9,2.6-3.7,4.6-4.1,10-2.9,15.6,1.3,5.8,1.3,11.6-1.1,17.1-.4.9-.9,1.7-1.3,2.6,0,.1-.1.4-.1.5.1,0,.3-.1.4-.3h0Z"/>
  <path class="cls-1" d="M265.2,200.8c-8,9.1-20.4,7.2-25.7.4-1.9-2.4-3.1-5.2-3.4-8.3-.4-4.5-.4-9,1-13.4,1.6-4.9,4.9-8.6,9.2-11.3.7-.4,1.4-.7,2.3-.9-4.1,3.4-6.8,7.7-7.5,12.9-.7,5-1.6,10.2,1,15.3,2.2-1.9,4.4-3.7,4.2-6.9-.2-5.2-.5-10.4-.7-15.6,0-.5.1-1.3.5-1.5,4-2.3,5.5-6,6.2-10.3,0-.5.2-1,.4-1.8,1.8,6.3,4.8,10.5,12.2,9.7-2.4,3.2-4.6,6-6.9,9.1h4.9c-.8,1.8-1.4,3.4-2.2,4.9-.1.3-.9.4-1.3.4h-6.5c0,1-.1,1.5-.1,2.1.1,5.4.3,10.8.4,16.2,0,1.2.4,1.5,1.5,1.5,3.7,0,7-.9,10.2-2.7,0,0,.1.2.2.3h0ZM252.1,203c-.1-11.7-.4-23.1-.5-34.7-1.3,1.1-1.8,2.1-1.7,3.5.3,4.4.5,8.8.6,13.2,0,3.4-1,6.3-3.3,8.9-1.3,1.3-2.4,2.7-3.8,4.1,1.9,3.1,5.1,4.1,8.7,5.1ZM260.3,173.5c-3.4-.6-5.6-2.6-7.7-4.9.1,4.4.4,8.9.5,13.2.1,0,.2,0,.4,0,2.2-2.7,4.4-5.5,6.9-8.4Z"/>
  <path class="cls-1" d="M367.1,199.8c0,0,.1-.1.3-.2v.4c0,0-.1-.1-.2-.2h0Z"/>
  <path class="cls-1" d="M265,200.5h.4c0,0-.1.2-.2.3,0,0-.1-.2-.2-.3h0Z"/>
  <path class="cls-1" d="M179,129.6c1.3-1.3,2.7-2.6,3.9-4,1.8-2.1,2.7-4.5,2.4-7.3-.1-1.7-1.5-3-3.1-3.2-1.4,0-1.8.4-2.1,2.6-1.4-.7-2.1-2-1.5-3.6,1-2.9,2.3-3.8,6.9-3.2.1-2.1.1-4.3.4-6.3.2-2.6.5-5.2.9-7.7.5-3.3,2.2-5.9,5.5-7.5-4.4-1.3-10.6.6-14.1,4.4.2-1,.2-1.7.4-2.3,1.6-4.4,5-6.6,9.6-7.1,3.8-.4,7.7-.5,11.5-.7.9,0,1.8.1,2.7.3,6.4,1.3,9.3,4.4,9.7,11,.3,5,.4,10,.7,15,.2,3.9.7,7.9,1.2,11.8,0,.4.2.9.4,1.5-3.6,1-6.8,2.8-8,6.9-6.6-6.6-13.7-5.8-21.3-2.1.4-.4.7-.8,1-1.2,2.7-2.4,5.3-4.8,6.1-8.5.5-2.4.8-4.8,1-7.2.2-4.6.4-9.4.4-14,0-3.6,1-6.4,4.1-8.5-3.1-.4-5.2.7-5.8,3.5-.7,2.8-1,5.7-1.1,8.6-.1,4,.1,8,.1,12,0,7.4-3.7,12.6-9.9,16.3-.5.3-1.2.5-1.8.7,0,0,0-.2,0-.3h-.1ZM199.2,88.7v16.4c0,.4.5.8.9,1,2.2.9,4.4.7,6.4-.5.4-.2.8-.8.8-1.3,0-2.8-.2-5.6-.5-8.3-.4-4.4-3.1-6.9-7.7-7.2h0ZM197.8,89.7c-.4.2-.5.2-.6.4-1.8,1.5-2.7,3.5-2.8,6-.2,6.7-.4,13.4-1,20.1-.1,2.1-1,4.2-1.5,6.2,1.8-.5,3.8-1.1,5.9-1.7v-30.9h0ZM199,120.8c3,.7,6,1.4,8.9,2.1-.2-3.3-.4-6.7-.6-10,0-.5-.4-1.3-.8-1.5-2.3-.9-4.6-1.3-6.8.3-.4.2-.7.8-.7,1.2v7.9h0ZM207.2,106.5c-2.7,1-5.4,1.3-8.1.2v4c2.7-1.5,5.5-1.3,8.1-.3v-3.9Z"/>
  <path class="cls-1" d="M254.9,121.7c-.4.6-.7,1.3-1.3,1.7-2.6,2.4-4.1,5.3-3.5,9.4-3.4-3.7-8.5-5.5-8-11.7-2.2,1.8-3.9,3.2-5.6,4.6-1.3,1-2.7,2.1-4.2,3-1.8,1-3.8,1-5.7-.2h.5c1.2,0,2.4,0,2.8-1.3s-.4-2.1-1.3-2.8c-1.9-1.3-3.9-2.4-6.3-1.7-1.3.4-1.7,1-1,2.2.5,1,.7,1.9,0,2.7s-1.2.6-1.7.4c-.4,0-.8-1-.7-1.4.1-1,.4-2.1.9-3,1.8-3.7,3.5-7.4,5.5-11,.6-1.1.4-1.6-.6-2.3-5-3.7-7.5-8.7-6.7-14.9.7-6,5.8-10.8,12-11.7,1.5-.2,3-.3,4.6-.3,2.5,0,3.5-.7,4.2-3.1.2-.7.4-1.5.5-2.4.4,1.9.7,3.7,1,5.5,0,.4.2.8.4,1.2.7,1.9,1.1,2.6,3,1,1.5-1.3,3.3-2.1,5.5-1.5.5.1.9.5,1.3.8,0,0-.1.2-.2.3-3.2-.9-5.1.4-5.2,3.8,0,1.6,0,3.2.1,4.9.6,7.7,1.2,15.3,1.8,23.1.1,1.9.7,3.8,1.2,5.6.5,1.8,1.9,2.4,3.5,1.5,1.1-.7,2.1-1.5,3.1-2.4,0,0,.2.1.3.2h0ZM223.8,100.9c-1.3-1.8-1-4.5.8-6.9,2.4-3,5.5-3.7,9.7-2.1,1.5-2,1.3-2.6-1-3.2-3.8-1-7,0-9.5,3.1-3.8,4.6-3.8,11.7,0,16.3.6.7,1.4,1.3,2.1,1.8.3-.2.5-.3.6-.4,1.6-3.5,3.3-7.2,4.9-10.8.1-.4,0-.9-.1-1.3-.4-1.3-1.3-2.1-2.7-2.1-1.6,0-2.9.7-3.5,2.1-.4,1-.7,2.2-1,3.4h-.1ZM240.6,107.9c-.5-4.7-1-9.1-1.4-13.6-.1-1.7-1-2.7-2.5-3.5-2.8,5.8-5.5,11.7-8.4,17.8,4.3-.2,8.2-.4,12.3-.7h0ZM224,117c2.2,1,4.5,1.8,6.4,3,2,1.3,3.7,3,5.6,4.6.7-.6,1.6-1.3,2.4-1.9q3.4-2.7,2.8-7c-.1-1.2-.6-1.6-1.8-1.5-4.3.3-8.6.6-12.9.8-1.5,0-2.4.7-2.6,2.1h0Z"/>
  <path class="cls-1" d="M252.4,101.8c2.7-2.3,5.2-4.5,7.8-6.6,2.1-1.8,2.2-2.1,1.4-4.7-.4-1.5-2-2.4-3.2-2.1-1.3.4-2.1,1.8-1.9,3.4,0,.2,0,.5.1.7l-.4.2c-.4-.7-1-1.5-1.1-2.2-.5-4,3.2-6.6,7.5-5.3,2.4.7,3.9,2.3,4.1,5.1,4-2.4,7.2-5.2,7.2-10.3.4,7,5.7,11.2,9,16.6-2.4,1.9-4.9,4-7.6,6.2,4.6,2.1,5.9,6.2,6.8,10.5.4,2.3,1.3,4.6,2.1,6.8.7,2.1,2.1,2.4,3.9,1.1.5-.4,1-.8,1.7-1-.4.7-.7,1.6-1.3,2.1-1.3,1.2-2.6,2.3-4,3.2-1.5,1-2.6.7-3.8-.6-2.2-2.4-2.8-5.5-3.6-8.4-.5-1.9-.7-3.9-1.3-5.8-.6-2-1.8-3.5-4.1-3.9-1.7-.3-2.4.2-2.4,1.9,0,3.5,0,7.1-.2,10.6,0,1.3.4,1.9,1.7,2.2,1.5.3,3.2,0,5.8-1.2-1.8,2.6-4.6,4.1-5.2,7.5-1.5-2.4-3.6-3.2-6-3.5-3.3-.4-6.2.5-8.6,2.9-2.3,2.3-3.8,5.1-5.1,8.1v-2.2c0-6.4,3.3-10.4,9-12.7,1-.4,1.3-.8,1.2-1.9-.3-1.8-.4-3.8-.7-5.6-1-5.1-3.5-9-8.8-11.2h0ZM278.5,99.1c-2.2-3.2-4.3-6.3-6.4-9.3-.4-.4-1-.7-1.4-1.1-.4.7-1.3,1.3-1.3,2,0,4.7,0,9.4,0,14.2s0,.7.1,1.3c3-2.4,5.9-4.6,8.9-7h0ZM267.6,120.3c.2,0,.4-.1.6-.2v-29.6c-.1,0-.3,0-.4-.1-.3.6-.7,1.2-.7,1.8,0,8.9,0,17.9,0,26.8s.4.9.7,1.3h0ZM257.4,98.9c1.6,1.3,3.1,2.4,4.6,3.5v-7.2c-1.7,1.3-3.2,2.4-4.6,3.6Z"/>
  <path class="cls-1" d="M304.1,96.4c4.1-2.4,8.5-4.3,8.6-10-.2,5.4,2.7,9.4,5.2,13.6-2.7,1.7-5.2,3.4-8.1,5.3,3.4,1.5,5,3.8,6,6.8.9,2.8,2,5.5,3,8.3,1.2,3.2,1.6,3.4,4.8,2.4.3,0,.6-.1.9-.3-.4,1.6-3,3.6-5.2,3.8-3.5.2-4.6-2.6-6-5.6-1.8,2.5-3.5,4.8-5.1,7.1-2.1-2.6-5.3-2.9-8.6-2.9s-6.3,1.2-9.1,2.8c-.8.4-1.6,1-2.5,1.3.7-1.2,1.1-2.2,2.4-3,3.1-1.8,5.3-4.4,6-8,.1-.7.1-1.3,0-2-.3-2.7-2.4-3.9-4.9-2.8-.4.1-.7.4-1.1.5-.3-2.7,2.3-4.6,7-5.3.1-2.6-.9-5.2-2.5-5.8-2.3-.8-4.2.4-6.4,1.7.7-2.2,1.8-3.5,3.5-4.3,1.3-.6,2.7-.9,4.1-1,1.2,0,1.6-.4,1.6-1.6,0-1.7.1-3.4.4-5,.3-1.4.9-2.7,1.3-4.1-2.7,1.4-5.8.6-8.8.7-1.9,0-3.1,1-4,2.6-.3.6-.6,1.1-.9,1.8-.8-2.8,1.1-6.6,4.2-8,1.6-.7,3.6-.7,5.5-.9,1.2,0,2.4.1,3.5.2,2.4.1,3.7-1,4.2-3.2.1-.7.3-1.5.5-2.7.4,1.8.4,3.5,1.3,4.4.9,1,2.7,1.2,4.2,1.8-4.3,2.6-4.9,6.8-5,11.5h.1ZM301.1,120.9c3-.2,6,0,9.1,1.1.5.2,1.6-.5,2.2-1,.4-.3.5-1.1.4-1.5-.5-1.8-1-3.6-1.8-5.3-1-2.2-2.6-3.8-4.8-4.6-1.4-.5-1.8-.1-2.1,1.3,0,.7,0,1.5-.3,2.2-.9,2.7-1.8,5.3-2.7,7.9ZM308.6,94.5c-1.5,1-2.7,1.7-3.9,2.5-.2.1-.4.5-.4.7v10.6c2.8-2,5.2-3.7,7.6-5.5.2-.1.4-.7.3-1-1.1-2.4-2.3-4.9-3.5-7.5h0ZM299,120.5c0,0,.2.1.3.2.4-.4.7-.8,1-1.3,2.2-3.8,3.2-8,3.1-12.3-.1-3.9-.2-7.8-.2-11.7s1.1-6.9,3.6-9.6c.2-.2.4-.5.6-.7,0,0-.1-.2-.2-.3-.7.5-1.4.9-1.9,1.5-1.8,1.9-2.4,4.3-2.6,6.9-.1,4.9-.3,9.8-.4,14.8,0,4.5-.6,8.9-3.2,12.7h0Z"/>
  <path class="cls-1" d="M184.1,128.7c.3-.1.6-.4.9-.6,0,.2,0,.4,0,.4-.3.1-.6.3-.9.4,0,0,0-.1-.1-.2h.1Z"/>
  <path class="cls-1" d="M254.6,121.5c0,0,.1-.2.2-.3v.5c0,0-.2-.1-.3-.2h0Z"/>
  <path class="cls-1" d="M250.2,84.6c0,0,0,.2.1.3h-.4c0,0,.1-.2.2-.3Z"/>
  <path class="cls-1" d="M239.9,163.4c-.1,0-.4.2-.5.3v-.2c0-.1.1-.2.2-.4l.3.2h0Z"/>
  <path class="cls-1" d="M261.2,237.3c0,0,.1.2.1.3h-.4c0,0,.1-.1.2-.2h0Z"/>
  <path class="cls-1" d="M147.4,106.6c4.4.7,8.5.5,12.5-.4-4.9,2.1-9.9,2.4-14.9.4-4.9-2-7.7-5.9-8.9-11.5,4.2,4.9,9,7.5,15.3,6.3v.5c-1.5.5-3,1-4.6,1.5.7.1,1.5.3,2.4.4s1.7.1,2.5.5c-2.2.1-4.4.2-7.1.4,2.6,1.2,4.9.2,7.2.6-1.4.4-2.8.9-4.4,1.4h0ZM148.5,102.3c-2.2-.4-4.5-.7-7.2-1.1,2.5,1.4,4.8,1.7,7.2,1.1ZM141.3,101s0,0,0,0h0s0,0,0,0h0Z"/>
  <path class="cls-1" d="M156.5,102c.2.4.4.7.6,1.1-1,.2-2,.5-3.1.8v-.3c.7-.5,1.5-1,2.4-1.5h0ZM156.7,102.8c0,0,0-.2-.1-.3-.1,0-.4.2-.5.3,0,0,.1.2.1.2.1,0,.4-.1.5-.2Z"/>
  <path class="cls-1" d="M165.3,92.4c.9-.8,1.8-1.6,2.7-2.4.1.1.2.3.4.4-1,.7-1.9,1.5-2.9,2.2,0,0-.1-.1-.2-.2h0Z"/>
  <path class="cls-1" d="M165.9,96.2c-.5.3-1,.5-1.5.8v-.2c.3-.2.7-.5,1.3-.7,0,0,.1.1.2.2h0Z"/>
  <path class="cls-1" d="M166.2,95.5c.4-.3.8-.6,1.2-1,0,0,.1.1.2.2-.4.3-.8.6-1.2,1l-.2-.2Z"/>
  <path class="cls-1" d="M167.5,94.5c.4-.2.7-.5,1-.7,0,0,.1.1.2.2-.4.2-.7.5-1,.7,0,0-.1-.1-.2-.2Z"/>
  <path class="cls-1" d="M169.5,89.6c-.1.1-.4.2-.5.4h-.1c.2-.3.4-.4.6-.6,0,0,0,.1.1.1h0Z"/>
  <path class="cls-1" d="M164.9,92.9l.4-.4.2.2-.5.4h-.1q0-.1,0-.1Z"/>
  <path class="cls-1" d="M167.3,92.8h-.5c.1,0,.3,0,.4-.1v.2h0Z"/>
  <path class="cls-1" d="M165,93.1c-.2,0-.4.1-.6.2v-.2c0,0,.3,0,.4-.1h.1Z"/>
  <path class="cls-1" d="M169.2,93.6c-.1.1-.3.3-.5.4l-.2-.2c.1-.1.3-.3.5-.4,0,0,.1.1.2.2Z"/>
  <path class="cls-1" d="M166.4,95.7c-.1.1-.4.3-.5.4l-.2-.2.4-.4.2.2h0Z"/>
  <path class="cls-1" d="M169.4,93.2c0,.1-.1.2-.2.4,0,0-.1-.1-.2-.2.1,0,.3,0,.4-.1h0Z"/>
  <path class="cls-1" d="M168.9,90c-.1,0-.3.1-.4.2,0,0,.1-.2.2-.3h.1c0,.1,0,0,0,0Z"/>
  <path class="cls-1" d="M168.4,89.1h-.5c0,0,.1-.1.3-.2,0,0,.1.1.2.2Z"/>
  <path class="cls-1" d="M168.2,88.9c.1,0,.2-.1.4-.2,0,.1,0,.3-.1.4,0,0-.1-.1-.2-.2Z"/>
  <path class="cls-1" d="M169.2,88.4c-.1,0-.3.1-.4.2v-.4c.1,0,.2.1.4.2h0Z"/>
  <path class="cls-1" d="M290.6,155.7v-.4c0,0,.2.1.3.2h-.3Z"/>
  <path class="cls-1" d="M304.1,151.9c0,.2-.1.5-.3.7,0,0-.4,0-.6-.1h0c.3-.1.6-.4.9-.5h0Z"/>
  <path class="cls-1" d="M313.7,153.9c0,.2.1.4.2.7,0,0-.1,0-.2,0,0-.1-.1-.3-.2-.5,0,0,.1-.1.2-.3h0Z"/>
  <path class="cls-1" d="M304.7,151h.3c0,.1,0,.4-.1.5,0,0-.1-.1-.2-.2v-.3h0Z"/>
  <path class="cls-1" d="M304.4,151.7c0,0,.2-.2.3-.3,0,0,.1.1.2.2,0,0-.2.2-.3.3,0,0,0-.1-.1-.2h0Z"/>
  <path class="cls-1" d="M304.6,151.9h-.5c0,0,.2-.2.3-.3,0,0,.1.1.1.2h0Z"/>
  <path class="cls-1" d="M303.2,152.5c.1,0,.2.1.4.2,0,0,0,0-.1.1,0-.1-.1-.2-.1-.4h0Z"/>
  <path class="cls-1" d="M313.5,153.7c0,0,.1.1.2.2,0,0-.1.1-.2.3,0,0-.2-.2-.3-.3,0,0,.2-.1.3-.1h0Z"/>
  <path class="cls-1" d="M181.8,151.5c.2,0,.4-.1.7-.2v.2c-.2,0-.4.1-.6.2,0,0-.1-.1-.1-.2Z"/>
  <path class="cls-1" d="M336.7,23.4c.1,0,.4,0,.5,0v.2h-.7c0,0,.1-.1.2-.2h0Z"/>
  <path class="cls-1" d="M325.2,31.5c0,0,0,.2.1.3h-.4c0,0,.1-.2.3-.3h0Z"/>
  <path class="cls-1" d="M329.8,28.1c0,0-.1,0-.3.1,0,0,0-.2.1-.3h.1q0,.1,0,.1Z"/>
  <path class="cls-1" d="M338.8,22.5s0,.1.1.2h-.1v-.2h0Z"/>
  <path class="cls-1" d="M206.5,78.4c-.1,0-.3-.1-.5-.1h0c.2-.1.4-.1.7-.1,0,.1-.1.2-.2.4h0Z"/>
  <path class="cls-1" d="M212,75.9c-.1,0-.3-.1-.4-.2h0c.2-.1.4-.1.7,0,0,0-.1.2-.2.3h0Z"/>
  <path class="cls-1" d="M191.7,42.4c0,.1,0,.4-.1.5h-.1c0-.2,0-.4.1-.7,0,0,.1,0,.1.1Z"/>
  <path class="cls-1" d="M246.8,74c.2-.1.4-.2.6-.4h.1c-.2.3-.4.4-.6.5h-.1Z"/>
  <path class="cls-1" d="M246.1,74.5s-.1,0-.2,0c0,0,0,0,0,0,0,0,.1,0,.2,0h0Z"/>
  <path class="cls-1" d="M246.9,74.1c-.1,0-.3,0-.4.1l.3-.3h.1q0,.1,0,.1Z"/>
  <path class="cls-1" d="M290.3,80.3c.2,0,.4,0,.6-.1-.1.1-.2.3-.4.4,0,0-.1-.2-.2-.3h0Z"/>
  <path class="cls-1" d="M289.9,80.5c.1,0,.2,0,.4-.1,0,0,.1.2.2.3-.1,0-.2.1-.4.1,0-.1-.1-.2-.2-.4h0Z"/>
  <path class="cls-1" d="M108.5,190.2c0,0,.1,0,.3-.1h0c0,.1-.1.1-.3.1h0Z"/>
  <path class="cls-1" d="M297.9,136.1c0,.2-.2.5-.3.7-.1,0-.3,0-.4-.1.1-.3.3-.6.4-.9,0,0,.2.2.3.3h0Z"/>
  <path class="cls-1" d="M163,149.7c.1.1.3.2.4.4,0,0,0,.1,0,.1-.1,0-.4-.1-.5-.3l.2-.2h0Z"/>
  <path class="cls-1" d="M259.6,161.4c0,.2.1.4.2.6-.1-.1-.3-.3-.4-.4,0,0,.1-.1.2-.1h0Z"/>
  <path class="cls-1" d="M258.9,162.2v.4c0,0-.1-.1-.2-.2h.1c0-.1,0-.1,0-.1Z"/>
  <path class="cls-1" d="M182.8,94.5l.2.2h-.1v-.3h0Z"/>
  <path class="cls-1" d="M267.7,214.8c0-.1,0-.2,0-.4h.4c0,0-.1.2-.3.3h0Z"/>
  <path class="cls-1" d="M133.5,114.5c-.4.3-.7.5-1.3,1,1,.7,1.8,1.3,2.6,2,.4.4,1.1,1.1,1,1.6-.2,1.7.7,2.4,2,2.9.4.1.7.3,1.3.6-.5.3-.9.6-1.3.7-1.7.3-2.1,1.4-1.8,2.9.2,1.2,0,1.9-1.3,2.4-.6.2-1.1.6-1.5,1-.3.3-.3.8-.5,1.4-.2,0-.7-.1-1.2-.4-3.3-1.9-6.9-2.9-10.7-2.9s-7.4,3-7.6,7.4c0,3.5,1.4,6.6,2.8,9.7.5,1.1,1,2.1,1.3,2.9-.8.3-1.3.4-1.8.6-.2,0-.3.4-.4.6-.6,1.6-1.7,2.5-3.5,2.4-.4,0-1,.4-1.4.9-.6.8-1,1.7-1.5,2.6-.2-.1-.4-.2-.4-.4-.7-2.2-2.1-3.4-4.6-3.1-.4,0-1.1-.6-1.5-1-.6-.8-1.1-1.8-1.7-2.8-.4.4-.7.7-1,1,0,0-.2,0-.3-.1.1-.6.3-1.2.5-1.8,1-2.3,2.1-4.5,3.1-6.8.9-2.1,1.1-4.3.5-6.4-1.1-4.1-5.1-6.5-9.2-5.2-3.1,1-6,2.5-9.1,3.8-.6.2-1.2.4-1.8.4.3-.3.7-.5,1.3-1-.9-.5-1.5-1-2.2-1.3-1.2-.5-1.6-1.3-1.6-2.6q0-3.3-3.7-3.8c1.1-.6,2.1-1,3-1.7.4-.3.9-1,.8-1.5-.4-2.3.5-3.6,2.7-4.2.4,0,.7-.4,1.4-.8-.7-.4-1.1-.7-1.5-.9,0-.1,0-.2.1-.4.7.3,1.5.5,2.2,1,3.3,2,6.8,3.6,10.8,3.5,3.5,0,5.2-1,6.3-4.4.7-2.1,1.3-4.4,1.4-6.6.4-8.6.5-17.2-1-25.7-.7-4.1-1.9-8-4.4-11.4-.4-.5-.5-1.1-.4-1.8.4.5.8,1,1.5,1.7,1-1.5,1.6-2.7,2.5-3.9.4-.5,1-1.2,1.5-1.2,1.9,0,2.9-.9,3.5-2.5.1-.3.4-.6.7-1,.2.4.4.6.5.9.5,1.9,1.8,2.6,3.8,2.4.4,0,1.2.4,1.5.9.7.9,1,2,1.6,3,.3.4.7.8,1.1,1.4.3-.7.5-1.2.7-1.6,0,0,.2,0,.3,0-.1.7-.2,1.3-.5,1.8-3.8,7.5-5.1,15.6-5.2,24,0,5.4-.3,10.8,1,16.1.7,3.1,1.9,6,5.2,7.4,2.4,1,4.7.4,7-.3,1.9-.7,3.7-1.6,5.5-2.4.9-.4,1.8-.7,2.7-1.2,0,.1.1.2.1.4h-.1ZM137.9,122.6c-.6-.3-1-.6-1.5-.8-.7-.3-1-.7-1-1.6,0-2.6-3.5-4.7-5.8-3.7-2.1.9-4.1,1.8-6.2,2.4-4.8,1.3-8.4-.7-10.3-5.2-.5-1.3-.9-2.6-1.2-3.9-1.3-6.4-.9-12.8-.4-19.3.4-5.1.7-10.2,2.8-14.9,1.5-3.4,1.2-6.1-.8-9h0c-.5-.4-1-1-1.5-1-2.1.2-3.3-.5-3.7-3-.4.8-.6,1.4-1,1.7-.5.5-1.3,1.3-1.8,1.3-1.6,0-2.5.7-3.2,2.1-.4.8-1,1.5-1.5,2.3-.6.8-.4,1.5,0,2.4,1.3,3.5,2.7,7.1,3.4,10.8,1.4,8,1.3,16.1.9,24.1,0,2.1-.5,4.4-1.2,6.4-1.4,4.5-4.7,6.5-9.2,5.5-2.5-.6-4.9-1.6-7.2-2.6-1.5-.6-4.8.1-5.6,1.5-.1.3-.2.7-.1,1,.4,1.9-.3,3.3-2.1,4.1,1.4.7,2.1,1.8,2.1,3.3v.3c0,2.7,3.4,4.6,5.9,3.5,2.4-1.1,4.9-2.4,7.4-3,5.8-1.3,10.2,2.9,9.7,8.9-.3,3.3-1.8,6.2-3.1,9.1-.4.7-.4,1.4.1,2.1.4.4.7,1,.8,1.4.5,1.3,1.5,2,2.8,1.7,1.7-.3,2.5.6,3.1,1.9.1.3.3.5.5.8.2-.3.4-.4.4-.7.4-1.9,1.5-2.5,3.4-2.4.5,0,1.2-.6,1.6-1,.3-.3.4-.8.7-1.2,1-1.5,1-2.7,0-4.4-1.6-2.9-2.6-6-2.2-9.4.4-4.2,3.4-7,7.6-7.2,3.5-.2,6.9.7,10,2.1,2,.8,3-.9,4.5-1.5.4-.1.5-1.3.4-2-.1-1.3.4-2.1,1.6-2.5.3,0,.5-.2,1-.4h0Z"/>
  <path class="cls-1" d="M393.6,66.7c1.2-1.3,2.4-1.1,3.3.3,1.3,2.1,1.2,4.1.3,6.4-1.9,4.8-2.7,10-2.8,15.2-.1,5.6-.1,11.1,0,16.7,0,2.4.5,4.9,1,7.4.7,4.5,5.7,7.1,9.9,6.8,3-.2,5.6-1.2,8.2-2.7,1.3-.7,2.8-.3,3.7,1.2.7,1.1.4,2.6-.7,3.4,0,0,0,.1-.1.2,1.9,1.7,1.8,3.7-.3,4.6-.6.3-1.5.1-2.1-.1-3-1.2-6.1-2.1-9.4-2.1-5.5,0-9.2,3.6-9.4,9.1,0,3.4.4,6.6,2.1,9.7.7,1.3.2,3.8-.8,4.5-.9.6-3.1,0-4.1-1-.9,1.3-2.5,1.8-4,1.4s-1.9-3-1.5-4.1c1-2.6,2-5.2,2.7-7.9.7-2.6.2-5.2-1-7.5-1.8-3.4-5.4-4.8-10-4.2-2.7.4-5.2,1.3-7.5,2.7-.7.4-3.2-.2-3.5-1-.3-1-.1-2,0-3,0,0,.4-.2.6-.3,0,.7,0,1.4,0,2.1,0,1.2.5,1.5,1.2,1.3.2-1,.4-1.5.5-2.1,0,0,0,0-.3,0v-.4c.9-.2,1.8-.4,2.7-.6-.4,0-.8-.1-1.2-.1,0-.4.2-.7.3-1.1.4,0,1.1,0,1.5,0-1-.3-2.3-.7-3.5-1l.5-.4c0-.9-.1-1.7-.2-3-.7.6-1.5.9-1.6,1.3-.5,1.8,1,2.7,2.3,4-1,.1-1.6.2-2.2.3,0-.3.2-.8.1-.9-1.1-.7-.9-1.9-.8-2.9,0-2.1,2-3.1,3.8-2.1,3.7,2.1,7.5,3.5,11.9,2.7,3.7-.7,5.7-3.1,6.6-6.3.7-2.8,1.2-5.8,1.2-8.7,0-7.3-.1-14.6-.5-21.9-.2-3.9-1-7.7-2.7-11.3-1-2.1,1.1-5.2,3.2-5.2s1.8.6,2,1.8c.4-.4.8-.7,1.2-1,0,.3,0,.5,0,.8-.1.8-.3,1.6-.4,2.4.4-.3.4-.6.4-.9,0-.4.2-.7.4-1.2.1.4.3.6.4.9.4-1,1.3-1.1,2-.4,0-1.9-.5-2.2-2.3-1.5-.1,0-.3,0-.5-.1h0ZM390.9,70.1c1.3-1.1,1.5-2.4.4-3.1-.6-.4-1.7-.2-2.3.1-.7.4-.2,1,.4,1.3.2,0,.2.5.4,1,0-.4.1-.7.3-1.4.3.9.5,1.5.7,2.1h0ZM387.6,144.4l-.4.2c.4.8.5,2,1.1,2.3,2.2.9,3.2-.7,3.8-2.9,1,2.8,1.4,3.1,3.2,2.8.8-.1,1.3-.6,1-1.5,0,0-.4.1-.6.2-.1-.4-.4-1-.7-1.8-.4.8-.5,1.3-.7,1.8-.2-.4-.4-.8-.6-1.3,0,.1-.2.3-.4.5-.1-2.1-.6-2.4-1.8-1.6,0-.4,0-.9-.1-1.3h0c-.1,1.3-.3,2.6-.4,3.8h-.2c0-.8,0-1.5,0-2.4h-.1c-.1,1-.3,1.8-.4,2.8h-.2c0-.7,0-1.4-.1-2.4-.2,1-.4,1.5-.5,2.1-.4-.5-.7-1-1.1-1.4h-.1ZM414.8,124.9v.5c.5-.1,1.3-.1,1.5-.4,1.3-1.8-.8-2.4-1.7-3.3,1.8-1.4,2.3-2.4,1.5-3.4-.6-.7-1.3-1.4-2.4-.5.5.1,1,.4,1.8.6-.5.6-.9,1-1.3,1.4.2.4.3.7.1,1-.3.3-.7.5-1.1.7.4.3.7.7,1.2,1,1,.6,1.1,1.8.2,2.5h0ZM396.6,122.8c.8-1.5.3-3.3-1.3-4.6-1.3,3-1.2,3.5,1.3,4.6ZM389.9,117.5c2.1,2.3,3.3,2.2,4.7-.2-1.6-.9-3.1-.4-4.7.2ZM389,118.4c-1.3,1.3-1.5,2.8-1.1,4.5,2.7-1.6,2.8-2,1.1-4.5ZM392.9,125.7c1.7,0,2.7-.6,3.5-2.1h-3c-.1.6-.3,1.2-.6,2.1h0ZM388.7,124c0,.2-.1.4-.1.6,1,.5,2.1,1,3.1,1.5,0-.1.1-.3.2-.4-.2-.6-.4-1.2-.6-1.8-1,0-1.8.1-2.7.2h0ZM393.7,121.7c-.6-.4-1-.9-1.4-.8-.4,0-.9.7-.9,1,0,.5.5.9.8,1.3.4-.4.8-.9,1.4-1.5h0ZM370.5,123.5c.1,0,0,0,0,0,0,0,.1,0,0,0Z"/>
  <path class="cls-1" d="M109,148.1c-.4,0-.9,0-1.1.2-1.3,1.6-3.4,1.3-4.4-.4-.7-1.3-.7-2.3-.1-3.7.9-2.3,1.7-4.6,2.2-7.1.8-3.6-.2-6.9-2.8-9.5-1.9-2-4.5-2.3-7.1-2.1-2.8.2-5.5,1-7.9,2.5-1.3.8-3.8.5-4.5-.5-.6-.9,0-3,.8-3.8-.4-1.1-.9-2.1-.9-3,0-2.4,1.7-3.3,4-2.4,2.2,1,4.4,2.1,6.8,2.5,6.7,1.3,10.4-1.6,11.7-8.2.6-3.2.7-6.4.7-9.7,0-8,0-15.9-1.6-23.8-.4-2.2-1.3-4.4-2.1-6.5-.7-1.7-.4-2.9,1.2-4.3.4,1.1.9,2.2,1.5,3.5,0-1,0-1.7-.1-2.4h.3c.3,1.2.6,2.4.9,3.5.4-.9.6-1.8.6-2.7s0-1.6-.4-1.9c-.4-.4-1.4,0-2.1,0-.2,0-.4,0-.6.1.3-.4.5-1,.8-1,.8,0,1.7.3,2.5.5.2,0,.4.6.6,1,.4-.4.7-.7,1-1,1-1.2,2.7-1,3.5.3,1.1,2.1,1.3,4,.4,6.4-1.3,3.8-2.2,8-2.5,11.9-.6,8.6-.7,17.3.7,26,.8,4.9,4.2,7.8,9.1,8,3.3.1,6.3-1,9.1-2.5,1.5-.9,3.3-.4,4.2.9.6,1,0,2.7-1.3,3.8,1.8.5,1.9,1.8,1.5,3.2-.1.4-.8.5-1.3.7.3-.7,1.5-1.3.7-2.3-.6-.7-1.4-1.2-2.1-1.8,2.1-1.3,2.5-2.1,1.7-3.1-.6-.7-1.3-1.6-2.5-.6.6.1,1,.3,1.8.5-.5.7-.9,1.2-1.3,1.6.1.1.3.2.3.3-.4.4-.8.9-1.3,1.3.5.4,1,.9,1.5,1.3-.1,0-.4.1-.7.2.5.1,1,.2,1.3.4-.1.8-.2,1.5-.4,2.2h-.8v.4c.2-.1.4-.3.7-.4h1c-.7,1-1,1-2.2.7-2.6-.7-5.2-1.6-7.9-2.1-4.1-.6-7.7.7-9.8,4.5-.6,1-1,2.1-1,3.2-.4,4.2.2,8.1,2.4,11.9.4.7-.7,2.3-1.1,3.5,0,0-.2-.2-.3-.3-.3-.9-.6-1.8-1-2.8,0,.9,0,1.5,0,2.1-.4-.7-.8-1.4-1.3-2.1-.2.2-.3.4-.5.6,0-.9,0-1.6-.1-2.2-.6.4-1.1.7-1.8,1,0-1,.1-2,.2-2.9h-.3c-.1,1.6-.3,3.2-.4,4.9h-.3c0-.4-.1-.9-.2-1.6-.1,1.1-.3,2-.4,2.9h-.2c0-.7,0-1.3-.1-2.2-.3.7-.4,1.2-.5,1.5-.4-.2-.7-.4-1.3-.9.3,1.7.7,2.7,2.1,2.7s1.7-.9,1.9-2c0-.4.4-.7.7-1.5.3,1.1.5,1.8.7,2.5,0,0-.1.1-.2.2v-.4ZM86,123.7c-1.8,1.1-2.6,2.3-2,3.3.2.4,1,.4,1.3.6,0-1-.3-1.8,0-2.3.7-1.1,1.8-1.9,2.9-1.7-.8-.4-2-1-3.2-1.6.8-1.1,1.4-2,2.1-2.9-1.3-.3-3.1.1-3.3.8-.7,2,1,2.8,2.3,3.8h0ZM111.8,119.5c-1.9,3.2-1.5,4.4,1.5,4.4-.5-1.5-1-3-1.5-4.4ZM110.6,119c-1.3-1-3-.9-4.5.1,1.8,2.2,2.3,2.2,4.5-.1ZM104,124.3c2.4-1.3,2.6-1.9,1-4.3-1.3,1.1-1.6,2.4-1,4.3ZM104.6,126c1,.5,2.1,1,3.2,1.5,0-2.4-.4-2.7-3.2-1.5ZM109.3,127.2c1.5.1,2.2-.9,3.2-2-3.2-.3-3.5-.1-3.2,2ZM109.6,123.2c-.6-.4-1-.7-1.3-1-.3.4-.7.8-.8,1.3,0,.4.4.7.7,1.1.4-.4.8-.8,1.5-1.4ZM111.3,69.6c.1,0,.2-.1.4-.2-.3-.5-.6-1.3-1-1.4-1-.2-1.5.3-1.7,1.5.8,0,1.5-.1,2.1-.3,0,0,0,.1,0,.3h0ZM112.5,146.8h0c0-.1,0,0,0,0Z"/>
  <path class="cls-1" d="M112.6,148.5c-1.3.8-2.4.7-3.5-.3,0,0,.1-.1.2-.2,1,0,2,.1,3,.2l.3.3Z"/>
</svg>