<?xml version="1.0" encoding="UTF-8"?>
<svg id="Calque_1" data-name="Calque 1" xmlns="http://www.w3.org/2000/svg" version="1.1" viewBox="0 0 500 300">
  <defs>
    <style>
      .cls-1 {
        fill: #75683b;
        stroke-width: 0px;
      }
    </style>
  </defs>
  <path class="cls-1" d="M220,278.6c1.9-3.9,1.4-7.9-.1-11.7-1.6-3.8-3.5-7.4-5.6-10.9-.6-1-2.1-1.7-3.3-1.9-6.8-1.2-13.8-1.8-20.5-3.6-10.5-2.7-18.9-8.8-25.5-17.5-.4-.5-.9-1-1.5-1.8-.7,9.1-.9,18-4.4,26.4,0-5.5.4-10.9,0-16.4-.9-11.4-2.4-22.8-10.1-32.1-2.1-2.6-4-5.6-7.9-6.1-5.8-.7-9.6,1.4-11.5,7-.1.4-.3.8-.5,1.2-1.5-3.6-1.1-5.1,2.6-10h-9c.4,10.4.7,20.6,1.1,30.7h-.7c-2.6-10-5.2-20.1-7.9-30.5-10.5.4-20.9.7-31.3,1.1v-.9c10-1.5,20-3,29.9-4.5v-11.1c-4.5,3.8-9.1,6.1-15.4,5.7,10.1-4.1,14.4-12.6,19-20.9-.2-.2-.3-.4-.4-.4-4-1.2-6.8.2-8.4,4.2-.8,2.1-1.7,4.1-3,6.1v-11.9c0-1.3,0-2.2-1.6-2.7-1.4-.4-2.4-.6-3.6.7-4,4.5-8.3,8.7-12.3,13.2-1.5,1.7-2.8,3.7-3.9,5.7-2.5,4.6-2.3,6.8.6,10.9-3.3.3-6.1-1.9-6.1-5.2s.8-4.5,1.2-6.8c0-.2,0-.4.2-.6h-.6c-5.3,1.5-10.5,2.6-16,1.1-9.8-2.6-17.1-11.5-17.8-22.2-.2-3.7,0-7.4.4-11,.5-4.4,2.7-8.2,6.1-11,4.4-3.7,9-7.1,13.5-10.6.2.2.5.4.7.6-1.4,2.7-2.7,5.4-4,7.9,3.6-1.8,7.3-3.6,10.8-5.4,1.4-.8.9-3.6-.6-4.8-4.9-3.8-8.9-8.3-8.3-15,.2-2.3,1.5-4.4,2.4-6.6,0-.3.9-.3,1.4-.4h0c-2.7,4.7-.3,9.7,5.8,12,0-5,.2-9.8,0-14.7,0-1.5-1.5-3.3-2.8-4.2-9.5-6.6-28.2-7.4-37.2,4.5,0-.2-.3-.3-.4-.5,1.9-5.8,6.4-9.2,11.7-11.6.5-.2.9-.4,1.4-.6.4-.1.7-.3,1.1-.9-14.1-2-28.2-4.1-42.3-6.1v-.5c9.4-.4,18.7-.9,28.1-1.3,9.4-.4,18.9-1.2,28.7,1.3-.2-1.3-.3-2.1-.4-2.9-.5-3.1-.3-6.1,1.8-8.5.8-.9,2.3-1.1,3.6-1.6h0c-2.6,2.8-3.1,5.6-1.2,8.8,2,3.5,5,6,8.8,7.6,6.1,2.5,12.1,5.3,18.4,8-1.9-11.3-8.1-20.9-11.6-31.8,4.3,4.5,8.6,9.1,13,13.6,4.6,4.7,6.5,10.8,8.8,16.8,2.9-3.1,5.8-6.1,8.5-9.2.8-.9,1.2-2.1,1.6-3.2,1.1-3.5,0-5.4-3.7-6.2-.6-.1-1.2-.2-1.8-.3,4.6-2.6,7.1-2.1,9.8,2.4,1.1-2.1,2.3-3.8,3.1-5.7,1.5-3.7,2.6-7.6,4.2-11.3,1.4-2.9,3.5-5.4,6.9-6.5-5.1,5.2-6.2,11.7-6.7,19.2,3.5-2.7,6.7-4.8,9.5-7.3,3.8-3.5,7.7-6.4,12.9-7,1.2-.1,2.4,0,3.6.1,2.3.3,3.3-.8,3-3.1-.6-4.5-.9-9-3.6-13-2.5-3.7-4.7-4.5-8.4-2.7,0-.1-.2-.2-.3-.3,2.3-3.3,4.6-4,8.1-2.1,1.6.9,3.1,2.2,4.8,3.5,2.2-6.8,4.3-13.6,6.5-20.5h.8c0,4.3-.1,8.6,0,12.9.2,4.6.6,9.3.9,13.9.6,6.6,3.8,11.7,8.7,15,4.2-4.4,8.4-8.7,12.6-13,.2.1.4.2.7.3-1.2,5-2.4,10-3.4,14.3,2.8,1.5,5.2,2.5,7.3,4,1.2.9,2.2.9,3.4.4,6.8-2.5,13.6-4.8,20.3-7.4,6.3-2.5,12.4-2.1,18.1,1.4,4.7,2.9,9.3,6.3,13.5,9.9,5.8,5.1,7,5,12.9,0,4.6-3.9,9.6-7.6,14.8-10.7,4.7-2.8,10-3.1,15.4-1,7,2.7,14.2,5,21.3,7.6,1.7.6,2.8.3,4.2-.6,1.9-1.3,4.1-2.2,6.7-3.5-1.3-4.6-2.8-9.8-4.2-15,.2-.1.3-.2.5-.4,4.4,4.6,8.9,9.2,13.6,14.1,4.7-3.1,8-7.9,8.7-14,.7-6.3.8-12.7,1.1-19.1.1-2.8,0-5.6,0-8.4h.7c2.1,6.6,4.2,13.3,6.3,20,7.9-5.9,10-6.2,13.1-1.7-.1.1-.2.2-.3.3-3.6-1.7-5.9-1.4-7.9,2.1-1.7,3-2.6,6.4-3.6,9.7-.4,1.2-.4,2.5-.5,3.8-.3,2.2.5,3.3,2.7,3.1,6.5-.7,11.4,2,16.1,6.2,3,2.7,6.4,5.1,9.9,7.4-.2-7-1-13.6-6.7-18.8.8.4,1.7.6,2.4,1.1,3.7,2.7,5.6,6.6,7.1,10.7,1,2.9,2,5.8,3.1,8.7.4,1,1.2,1.8,1.7,2.5,1.5-1.1,2.7-2.7,4.1-3,1.9-.3,3.9.3,5.9,1.1-.1,0-.2.2-.4.2-5.7,1-7.2,5-3.4,9.5,2.7,3.1,5.6,6.1,8.8,9.5,2.4-13.7,12.9-21.3,21.4-30.4-3.3,10.6-9.6,20.1-11.6,31.6,1.2-.5,2-.9,2.8-1.2,5.4-2.4,10.8-4.7,16.2-7.1,3.7-1.7,6.7-4.2,8.5-7.9,1.6-3.2,1.1-5.6-1.5-8.4h0c1.2.5,2.8.7,3.6,1.6,2.1,2.4,2.3,5.4,1.8,8.5-.1.7-.3,1.5-.5,2.6,18.8-3.3,37.2.2,55.7.2v.7c-13.7,2-27.4,4.1-41.1,6.1,6.2,2.9,11.7,6.3,14,13.1-.1.2-.3.3-.4.5-9-11.8-27.4-11.3-37.7-4.1-1.2.8-2.2,2.6-2.3,4-.3,4.9-.1,9.7-.1,14.7,6.2-2.4,8.5-7.3,5.9-12.1h0c.8.5,2,.9,2.4,1.6,2.2,4.3,2.4,8.8-.2,13-1.4,2.3-3.1,4.6-5.1,6.4-2,1.7-4.5,2.7-7.2,4.2,5.1,3.2,11.7,2.6,15.4,7.7.2.3.4.5.5.8.2.2.4.5.5.7,0,0,.2,0,.3-.1-.1-.3-.3-.6-.4-.9l-.5-1.1c-1.2-2.6-2.5-5.3-4-8.5,1,.6,1.7.8,2.2,1.2,2.6,1.9,5.1,4.1,7.9,5.9,7.6,4.7,10.7,11.7,11.1,20.3.5,11.3-5.1,21.6-14.3,26-6.6,3.1-13.2,2.7-19.8.4h-.6c0,.2.1.4.2.6.5,1.9,1.2,3.8,1.3,5.7.3,4.1-2.4,6.5-6.8,6.4,3.7-2.7,3.8-6.4,1.8-9.6-2.5-4.1-5.8-7.8-9-11.5-3-3.4-6.2-6.7-9.4-10.1-2.5.6-3.7,2.3-3.7,5v10.1c-.1,0-.3.1-.4.2-1.7-4-3.3-8-5-12.1-2.2.6-4.2,1.2-6.4,1.9,4.3,8.6,9,16.7,18.1,21.3-5.6,0-10.2-2.1-14.5-5.9v11.1c9.7,1.5,19.6,2.9,29.6,4.4v1h-3.3c-8.7-.4-17.4-.7-26.1-1.1-1.5,0-1.9.6-2.2,1.8-2.4,9.5-4.8,18.9-7.2,28.4,0,.3-.3.7-1,.9.4-10.4.9-20.8,1.3-31.3h-9.2c2.8,2.8,4.6,5.9,2.9,10-.2-.4-.6-.7-.6-1.1-1.7-8.2-12.4-9.8-17.7-3.7-6.4,7.4-9.6,16-10.8,25.4-1.1,8.2-1.4,16.6-2.1,24.7-2.5-8-2.9-16.4-3.4-25.4-.9,1.1-1.6,1.9-2.3,2.7-8.7,10.8-20.2,16.6-33.7,18.5-4,.6-8,1-12,1.6-.9.1-1.9.6-2.4,1.2-3.1,4.6-5.7,9.3-6.9,14.8-.7,3-.5,5.8.8,8.6l-.2.2c-3-2-3.7-5.2-4.1-8.4-.2-1.8,0-3.6,0-5.6-7.7,2.2-15.1,4.4-22.9,6.7.9.7,1.6,1.2,2.2,1.7-3.7-1.2-7.2-1-10.6.8,0-.2-.1-.4-.2-.6.8-.6,1.6-1.1,2.7-1.8-7.7-2.3-15.1-4.5-22.7-6.7-.3,5,.3,10.4-4.4,14l-.2-.2h-.7ZM309,150.2c0-.2,0-.5.1-.7-.1.1-.3.3-.4.4-.2.2-.4.3-.6.5-.5.3-1,.7-1.5,1-4.5,3.6-9.6,5.2-15.4,4.8-4.7-.3-8.2-2.8-9.2-6.9-.3-1.2-.2-2.6-.4-4.3-2.3,3.3-1.3,6-.2,8.9,1.2,3.1,2.7,6.3,2.8,9.5.4,9.6.2,19.3.1,29,0,2.8-1.1,5-4.1,6.2.7.4,1.1.6,1.6.8,9,4.5,10.8,8.4,8.3,18-.9,3.6,0,7,2.1,10,.5.8,1.5,1.5,2.4,1.7,1.5.4,3.2.4,4.8.6,0,.2,0,.3.1.5h.2c-.1-.2-.3-.3-.4-.4,0-.7-.3-1.6,0-2.1,1.9-3.1,1.5-6.7-1.3-9.1h-.6c.1.1.2.3.4.4.2.3.5.6.5.9,0,1.6.1,3.3-.4,4.7-.3.7-2.5,1.4-2.9,1-1.2-1-2.1-2.5-2.7-4-.3-.7.1-1.9.6-2.7.8-1.4,1.6-2.9,2.7-4,5.4-5.2,10.8-10.4,16.3-15.4,3-2.7,3.3-4.3.9-7.4-1-1.3-1.7-3-2.4-4.4-1.6,1.5-1.6,2.9,0,5.3.5.8.7,1.8.9,2.7,0,.1-1.1.7-1.2.7-.7-.8-1.3-1.7-1.8-2.6-.2-.4-.2-1-.2-1.5v-7.8c0-2.7.3-5.4.4-7.9-.9.7-1.9,1.5-2.9,2.1-2.9,1.7-5.9,3.2-8.6,5.1-3.6,2.5-4.4,8.4-1.8,11.7.1-6,1.3-8.4,4.6-9.3v16.2c-3.7-2-7-3.9-7.4-8.1-.3-3.3,0-6.7.2-10.1,0-.5.2-1.1.6-1.3,4.5-2.8,9-5.7,13.7-8.2,2.2-1.2,4,.7,3.5,3.3,0,.5-.2,1-.4,1.7,3.3-2.3,3.4-5.5,0-7.8-1.6-1-2.3-2.1-2-4,.1-1.1.1-2.2,0-3.4-.2-2.1.3-3.7,2.7-4.5-.9-.3-1.5-.5-2-.7-3.1-.9-3.8-2.3-2.4-5.1.6-1.2,1.4-2.3,2.2-3.5.1-.2.3-.4.4-.6h0ZM152.5,133.5c-.2,0-.3,0-.5.1v.2l.4-.4.5-.4c-.1,0-.3,0-.4-.1v.6h0ZM129.4,75.3c-.2.1-.4.2-.6.3-.3.3-.6.5-.9.8-9,6.8-17.6,14.1-23.9,24,1.5-.3,2.7-.6,4.2-1,0,1.3.2,2.3.2,3.3,0,9.1.2,18.3.4,27.4,0,3.4-.4,6.2-3.8,6.9,2.1,1.1,4.6,2.2,6.8,3.6,3.5,2.2,4,5,2.1,8.7-1.4,2.7-2.7,5.5-4.1,8.2.2.1.5.3.7.4.4-.7.9-1.3,1.3-2,4.8-8.3,11.3-15.2,19.1-20.7,2.5-1.8,4.4-1.8,5.4,0,.4.8.5,1.8.7,2.8,1.3-2.4,1.1-4-1.1-5-3.7-1.7-4.9-4.6-4.6-8.4,0-1.2.2-2.4,0-3.6-.4-3.7.5-6.8,3.3-9.3.9-.8,1.4-2.2,2-3.3-2.4,1.2-4.4,2.6-6.3,4-2.6,2-5.3,3.8-7.8,6-3.9,3.4-4.7,9.3-1.9,13.3,0-3.2-.5-6.6,2.8-9.3-.6,5.3,1.3,10.6-2.8,14.6-3.6-1.7-5.1-4.4-4.6-8.2.2-2,.2-4,0-5.9,0-1.8.6-3,1.8-4.3,5.1-5.3,10.9-9.6,17.5-13.3-3.9-.9-4.4-1.6-4.1-5.5.2-2.2.6-4.4.8-5.9-2.4-1.7-4.6-3-6.5-4.7-2.4-2.2-2.7-4.2-1.1-6.9,1.1-1.9,2.6-3.6,4-5.4.2-.2.4-.5.6-.7.2-.2.3-.4.5-.5l.5-.4c-.2,0-.5.1-.7.2v-.2ZM370.9,75.5c.2.2.3.4.5.5.2.2.4.5.6.7.3.4.6.8,1,1.2,5.5,6.6,5.1,11.4-1.5,16.9-2.2,1.9-4.7,3.4-6.5,4.7-.8,4.2-3.4,8.1,0,12.3-.4-4.4,0-8.1,4.1-10.8,0,.7.2,1.1.2,1.5,0,7.1.1,14.1.3,21.2,0,4.1-.9,7.4-5,9.3-2.2,1-2.3,2.9-.9,4.8.6-4.1,2.6-5.1,5.8-2.9.3.2.5.4.8.6,7.9,5.8,14.5,12.9,19.5,21.4,0-.9,0-1.7-.4-2.4-.8-1.7-1.8-3.3-2.6-5-2-3.8-1.4-6.7,2.3-9.1,2-1.3,4.2-2.4,6.5-3.6-3.4-.9-3.7-3.5-3.6-6.3,0-1.3.2-2.6.2-3.9v-12.5c-9.1,3.2-15,11.2-11.8,16.3,1-4.8,1.5-5.6,4.1-6.6v13.9c-1.7-1.5-2.9-2.8-4.3-4-4.3-3.7-2.5-8.6-2.7-13.1,0-.3.5-.7.8-.9,4.1-2.9,8-5.9,12.2-8.6,2.7-1.7,4.9-.5,5.7,2.7,1.2-1.8.7-3.5-.9-4.2-4-1.8-3-5.3-3.2-8.4-.1-1.8,1-2.5,2.7-1.4.5.3,1,.7,1.5,1h.7c0-.2-.2-.3-.3-.5-5.8-10.2-14.8-17.3-23.8-24.3-.3-.3-.6-.5-.9-.8l-.6-.3c-.2,0-.3-.2-.5-.3,0,0,0,.1-.1.2.2.1.3.2.5.3l-.4.4ZM314.6,72.5c0-.2.2-.4.3-.5-.2,0-.3.2-.5.3l-.6.3c-.4.3-.7.7-1.1,1-2.7,3.4-5.5,6.8-8.1,10.3-1.8,2.4-3.8,4.4-6.9,5.1-5.3,1.2-9.4,4.1-12.5,8.5,0,.2,0,.4-.1.6.2,0,.3-.2.5-.3,1.5-.6,2.9-1.2,4.1-1.7-1.7,2.8-3.9,5.4-4.9,8.5-1.1,3.1-.3,6.5,1.7,9.6.4-9.2,1.7-12.5,5.8-14.5v24.3c0,2.7-.4,5-3.9,6.5,4.7.4,7.2,2.9,9.2,5.9,1.1,1.6,2.2,3.3,3.4,4.8.5.7,1.5,1,2.2,1.5v.4h.3c-.1,0-.2-.2-.3-.3-2.5-5.3-.7-9.6,2.9-13.6,4-4.4,8.8-7.5,15.4-8.5-1.5-.5-2.6-.7-3.4-1.3-1-.8-2.4-1.9-2.4-2.9-.1-3.3.4-6.6.5-9.9,0-.9-.1-1.7-.2-2.5-1.7,1.5-3.1,2.7-4.5,3.9-2.3,1.9-4.7,3.7-6.9,5.8-1.8,1.7-2.4,4-1.7,6.6,1.6-3.4,3.1-5.4,4.5-5.9.5,4.3.3,8.5-3.3,11.6-.6.6-1.8,1.2-2.4.9s-1.6-1.5-1.6-2.3c-.2-3.1,0-6.2,0-9.3s.2-.9.5-1.1c4-3.7,7.8-7.8,12.2-11,3.3-2.5,5.6-1.1,6.1,3,1.7-3.3.9-4.9-3.5-7.2.6-3.5-1.5-7.5,2.6-10.6-1.2.1-1.8.2-2.4.2-5.1,0-8.2-4.5-6-9.1.9-1.9,2.3-3.6,3.5-5.4.3-.4.7-.7,1-1.1.2-.2.4-.3.5-.5h0ZM222.9,257.5c-.2-.1-.4-.3-.6-.4,0,.2,0,.5.1.7l.7.8c.1,0,.2-.1.3-.2-.2-.3-.4-.6-.6-.9h.1ZM277.4,258.5c.6-.2,1.2-.3,1.8-.5-.5-.5-1-1-1.5-1.4-.2.5-.4,1-.7,1.5-.3.1-.6.2-.9.4,0,.1,0,.2.1.3.4,0,.7-.1,1.1-.2h.1ZM167.3,97.1c-2.2,1.5-4.4,2.9-6.6,4.4.2.3.4.6.6.9,2.2-1.6,4.3-3.2,6.5-4.8.2-.2.3-.5.5-.7-.3,0-.7.2-1,.3h0ZM171.6,95.1c-.2,3,.1,6.1-.7,8.9-.8,2.8-2.9,5.1-4.4,7.6,1.7.9,3.1,1.6,4.8,2.4.6-.8,1.7-1.5,1.7-2.4.1-6,0-12,0-18.8-.8.9-1.2,1.3-1.5,1.7-.3,0-.6.1-1.5.3.9.1,1.2.2,1.5.2h0ZM290.4,249.1c5-2.2,10.1-4.4,15.2-6.7-3.9-6-8.6-9.3-12-9-1.2,5.2-2.3,10.2-3.4,15.3l-.3.3h.6-.1ZM210.2,249c.2,0,.4,0,.6.1,0-.2-.2-.3-.2-.5-1.2-5-2.3-10.1-3.6-15.5-1,.2-2.8,0-3.9.7-3,2.3-5.8,5.1-9.1,8.1,6.1,2.6,11.1,4.8,16.2,7h0ZM172.4,172.8c-1.8,2.6-4.4,2.9-7.1,3,1.6-1.5,3.3-2.7,4.5-4.3,2.6-3.6,2.2-5.3-1.3-7.9-.7-.5-1.3-1.1-2-1.7-2.3-1.9-7.7,0-7.9,3.1-.3,4.8,0,9.6,0,14.6,4.4-.4,8.4-.7,12.4-1.2.5,0,1.3-.5,1.3-.9.2-1.6,0-3.2.1-4.7,0,.1.2.3,0,0,.3.3.1.1,0,0ZM316.3,78.3c.7-.6,1.4-1.3,2.3-1.7,1-.4,2.3-.8,3.3-.6.5.1.8,1.7.8,2.6,0,1.3.4,1.9,1.5,2.5,3.7,1.9,6.7,4.6,8,8.7.5,1.6.4,3.4.6,5.1.8-.5,1.1-1.2,1.3-1.8,1.1-3.9,0-7.4-2.1-10.7-2-3.1-1.8-5.3.6-8.1,2.1-2.5,4.1-5.1,6-7.7,3.6-5.2,5.4-14.5,3.8-19.1-.6,11.6-8.5,17.9-16.5,24.4-.7-2.9-1.3-5.5-1.9-8.2-.6.9-.6,1.6-.6,2.3.1,3.5-.5,6.4-4.1,8.1-1.4.7-2.3,2.4-3.4,3.7,0,.2-.2.3-.3.5h.7ZM244.9,132.2c-2.2,2.4-2.7,5.8-1.2,8.8s1.7,2.6,2.4,3.9c.7,1.3,1.7,2.7,0,3.9-1.6,1.2-3.4,1-4.6-.6-.8-1-1.5-2.4-1.6-3.6,0-1.3.7-2.6,1.2-4.6-1.5,1.3-2.7,2.3-3.9,3.4-2.7-1.5-4.6-1.4-6.1.8,4.9-.3,6.8,1.5,7.1,6.7.1,2.7,0,5.3.1,8,.1,2.4-.5,4.2-3.4,4.8,1.8,1,3.2,1.7,4.6,2.5,5.8,3.9,11.8,7.7,10.8,16.2,1.8-3.8,1.6-7.4,0-11.1-.9-1.9-2.1-3.6-2.8-5.5-1.6-3.8-2.9-7.7.7-11.3s.8-1.9,1-2.8c.6-4.1-.7-7.8-2.7-11.3-1.5-2.5-2.5-5.1-1.4-8,.1-.2.2-.3.4-.5-.2,0-.5,0-.7.1v.2ZM235.2,206.3c-1,1.5-2.4,2.9-2.9,4.5-1.3,4.2.9,7.4,3.9,10.2-5.3,2.7-7.2,7.2-4.7,10.7.1-4.1,2.2-7,6-7.8,1.1-.2,2.8.1,3.4.9,1.4,2,2.6,4.2,3.4,6.5.3.8-.5,2.3-1.1,3.1-.4.5-2,.6-2.2.3-.6-.8-.7-1.9-1-2.9,0-.1.2-.3.3-.4-.2,0-.4,0-.6.1-2.1.9-2.5,2.9-1.5,4.5,1.7,3,4.6,2.1,7.8,1.2v13.7c.8-.7,1.2-1.5,1.4-2.3,1.6-5.8,1.7-11.7,1.1-17.6-.6-5.9-1.7-11.8-1.8-17.7-.4-11.9-.2-23.8-.3-35.6,0-.8.2-1.8-.2-2.3-3.1-4.1-6.9-7.2-12-8.8,3.2,3.7,4.5,8,4.5,12.8-.1,12.1-.1,24.1-.2,36.2,0,.2-.2.4-.5,1.2-1-1.1-2.4-2-2.5-2.9-.2-2.4.1-4.8.2-7.2,0-.2,0-.4.1-.6-.2,0-.4.2-.5.3h0ZM335.1,126.8c.2.1.3.2.5.3,0-.2-.1-.4-.2-.5-.8-2.9,0-5,2.6-6.1,2.1-.9,4.2-.1,6.5,2.4,1.8,2.1,3.6,4.2,5.4,6.3.2,0,.5,0,.7-.1-2.8-4.4-4.2-8.8.9-12.6-3.9-.2-5.4-1.3-5.5-4.6-.2-5.6-.4-11.2.3-16.7.2-1.7,3-3.2,4.8-4.6.3-.2,1.8.6,2.1,1.3.5,1,.7,2.3.7,3.5v28.2c0,1.7-.4,3.1-2.9,1.8.7,1.3,1.5,2.3,2.2,3.3,1.3,1.9,2.6,3.7,3.8,5.7,1.2,1.9,1.9,4.1,3.3,5.7,2.3,2.7,6.2,2.4,8-.2h-.8c-4.9,1.8-7.2,0-7.4-5.2-.1-4.2,1.7-7.6,4.5-10.8-3.8-.6-3.2-3.4-3.2-5.7,0-7.1,0-14.1.1-21.2q0-3.6,3.5-2.8s.2-.2.6-.5c-.5-.7-1-1.5-1.6-2.2-1.9-1.9-3.9-3.6-5.7-5.6-1-1.1-1.6-2.6-2.2-4-1-2.3-1.9-4.6-2.9-6.8-.2,0-.5.2-.7.3,1.7,6.3-.7,11.8-6.9,14,.8-1.7,1.6-3.4,2.5-5.3-.6-.4-1.6-1.1-2.5-1.7-1.7-1.2-2.5-2.8-1.9-4.7.9-2.8,1.8-5.5,3.1-8.1,1.1-2.3,3.2-3.6,5.8-3.8,1.8-.1,3.7,0,5.6,0-3.7-3.5-10.4-2.9-13.1,0-2.2,2.4-4,5.3-5.9,8-1.6,2.3-3.2,4.7-4.8,7.2,3.2,2.8,4.4,7,4.1,11.8-.2,3.2-.2,6.4-.3,9.6,0,2.2-.2,4.3,0,6.4.6,4.5-1,8.2-3.7,11.7-2.2,2.9-1.9,4.7.7,6.5v-.2ZM268.1,96c3.1-1.9,6.1-3.9,9.2-5.6,3.1-1.6,4.2-1,4.7,2.3,2-3.6,1.3-4.5-5.3-5.8.6-1.4,1-2.7,1.7-3.9s1.7-2.3,2.5-3.5c-2.9,1.3-5,.7-7-1-1.8-1.5-3.7-2.9-5.6-4.4,3.4-4.8,8-8.1,13.9-9.7-1.3-.1-2.5-.2-3.7,0-5.9,1.2-10.7,4.5-15.3,8.1-3.7,2.9-7.2,6-10.8,9,2,1.6,1.8,4.2,1.8,6.8,0,9,0,17.9-.2,26.9,0,.9-.6,1.9-1,2.7-1.5,2.7-3.4,5.2-4.5,8-1.4,3.6-1.1,7.3,1.5,10.4.2-.9,0-1.7,0-2.5-.8-5.3,1.5-9.9,6.7-11.3,4-1.1,8.4-1.7,12.4-1.2,3.7.5,7.2,2.7,10.7,4.1,0-.4-.1-1.4-.5-2.2-1-2-2.8-3.8-3.1-5.9-.3-2.2.9-4.7,1-7,.2-4,0-7.9,0-11.9s.8-2.4,1.2-3.6c.4-1.1.8-2.1,1.1-2.9-3.7,2.3-7.1,4.5-10.6,6.5-2,1.1-4.4,2-6.1-1.1l-.5.6c.6,1.5,1.2,3,1.9,4.8-1.8,3.6-1.4,6.6,1.4,7.9.1-5.2.6-6.2,3.5-7.3,1.2,5.8-1.6,13.8-7,14.5v-31.5c0-1.1.6-2.3,1-3.5.8,2,1.5,3.7,2.2,5.3.2,0,.4-.2.7-.3-.9-4.4.1-6.6,3.4-7.1,0,3,.2,6.1,0,9.1-.2,2-1,3.8-1.6,5.8-.1.2-.3.3-.4.5h.8-.1ZM132.8,139.6c-.3-.2-.5-.3-.8-.5,0,0-.1.2-.2.3l.7.6c2,2.3,4.6,2.8,7.3,2,5.4-1.7,9.2-5.3,11.1-10.6.5-1.3.4-2.9.7-4.6-2.8,1.7-3.6,1.4-4.4-1.2-.3-.9-.4-1.9-.4-2.8,0-3.6.3-7.3,0-10.9-.4-3.8,1.7-5.6,4.3-7.3,3.3,2.3,4.2,3.1,3.8,6.3-.9,7.3,1.5,14.8-2.4,22.4,3.5-2.4,6.3-4.4,9.2-6.3,1.8-1.2,3.8-2,5.5-3.3,1.8-1.3,2.4-3.4,1.6-5.3-.5-1.1-2.1-1.6-3.3-2.4l-.5.7c.3.2.9.4,1,.7.3,1.6.8,3.2.6,4.7,0,.6-1.5,1.1-2.3,1.6-.6-1.3-1.3-2.6-1.9-3.9-.2-.4,0-.9,0-1.3.2-4.4-.9-9,3.1-12.8-7,.5-9.3-.2-12.3-3.7,4.7-3.4,9.5-6.8,14.5-10.4-2.9.3-4.6-.5-5.2-3.1-1.1-4.8-.2-8.3,2.4-9.9-1.4-2.3-2.7-4.7-4.3-6.8-2-2.5-4-5.1-6.5-7.1-2.5-2.1-9-1.9-11.1,1h1.1c4.5-.9,8.7.8,10.3,4.3,1.5,3.2.5,5.4-3.6,8.8-6.1,5-12.1,10-17.2,16.6,2-.8,3.5-1.4,5.5-2.2,0,1.6.2,2.6.2,3.6,0,9.1-.1,18.1,0,27.2,0,2.9-.1,5.2-3.3,6.1,1.7.8,3.2,1.4,4.6,2.3,2.6,1.7,2.7,4.1.6,6.3-2.3,2.3-4.9,2.6-8.2,1.1l-.2-.2ZM220.1,255.6h.6l-.4-.7c-1.1-1.6-2.3-3.2-3.2-4.9-7.2-13.3-2.8-29.6,8.5-39.7.1-.1.5,0,.2,0,1,2.3,1.8,4.4,2.7,6.5h.7c-1.7-5.6.6-9.3,5-12.4,2.8-1.9,2.9-4.1,1.8-7.6-.8-2.4-1.1-5-1.6-7.3-.2.3-1.1,1.1-1.1,2-.1,1.8,0,3.8.5,5.6.5,2.4,0,4-2.9,4.8v-13.4c0-.8,0-1.6.1-2.3.5-1.8,1-3.6,1.9-5.2.9-1.7,1.1-3.1,0-3.9-1.5,1.2-2.6,2.2-3.8,2.9-2.4,1.5-5,2.7-7.3,4.4-4.7,3.5-5.4,9-2,14.1.3-3.9-1.2-8.3,3.6-11,0,4.9.1,9.4,0,13.9,0,1.7-1,3.4-1.5,5.1-5-2.3-6.1-6.2-6.2-10.5,0-3.3-.2-6.6,0-9.8.1-1.4.8-3.1,1.8-3.9,3-2.4,6.3-4.4,9.6-6.4,3-1.8,6.2-3.3,9,.9.3-4-2.1-5.1-5.1-5.8v-11.3c0-3.3.5-6.4,4.3-8.3-5.6-1.9-8.5-5.7-10-10.7-2-6.7.7-11.8,7.4-13.8.6-.2,1.2-.3,2.1-.6-10.9-1.9-17.5,10.1-14.3,17.7,1.2,2.8.4,4.7-1.6,6.4-4.1,3.4-8.3,6.6-12.5,10-1.6,1.3-3,2.7-4.5,4.1.2.2.4.5.6.7.4-.3.9-.6,1.3-.9,1.9-1.6,3-1.2,3.7,1.1.2.6.3,1.2.3,1.8,0,9.1.3,18.3-.3,27.4-.4,6.1.9,11,5.4,15.1,2.7,2.4,3.2,5.4,1.9,8.9-2.2,5.8-3.4,11.9-2.8,18.2.7,7.1,2.9,13.7,8.2,18.9h0ZM355.9,137.6c.1.1.3.2.4.3,0-.2,0-.4-.1-.6-3.7-3.2-7.3-6.4-11-9.5-1.1-.9-2.4-1.5-3.6-2.3-.5-.1-1-.3-1.5-.4v.3c.4.2.7.4,1.1.6.7.6,1.5,1.2,2.2,1.8,3.1,3,3.4,3.9,2.5,7.6-5.5-3.5-10.7-7.8-17.8-8.3,3.7,5.6,3.3,10.5-.7,15.9-1,1.3-1.7,2.8-2.1,4.3-.6,2.8.9,5.1,3.2,5.6-2.2-4.7-1.6-8.2,2-9.4,1.5-.5,3.4-.6,5-.2,3.2.9,3.9,3.9,4.7,7,2.7-4.6-2.4-8.3-1-12.6,6.2,2.4,7.1,3.7,7,9.9v10.1c-4.7-2.6-9.2-5.1-13.8-7.6-.4,0-.8,0-1.2-.1v.3c.3.1.6.2.9.3,1.8,1.2,3.7,2.4,5.9,3.8-1.5.7-2.3,1-3,1.3,4.5-.1,7.2,2.8,9.8,5.5.8.9,1.4,2.4,1.5,3.6.1,7.7.1,15.5,0,23.2,0,2.6-.3,5.2-.7,7.7-1.6,9.2-5.4,17.6-10.1,25.6-6.2,10.5-14.3,19.1-25.9,23.8-.9.4-1.8,1-2.6,1.5-.5,0-.9.1-1.4.2v.3c.6,0,1.1,0,1.6-.1,9.6-2.4,17.7-7.3,23.8-15,4.7-6.1,9-12.6,13.1-19.1,3.5-5.5,6.9-10.9,13-13.9,1-.5,2.1-.9,3.3-1.5-4.2-1.7-6.2-3.8-6.3-7.4-.1-11.4,0-22.9,0-34.9,4.5,5.6,5.5,11.8,6.9,18,0-4-.2-7.9-1-11.7-.8-3.8-2.2-7.4-3.4-11.2,15.1,10.8,24.6,24.9,26.2,43.7,1.3-10-1.7-19.1-6-27.9h7.5c-8.9-3-13.3-11.1-20.1-16.3,4.8-6.9,13.1-4.4,17.6,4.9.6-6.3-5.5-13.2-13.7-10.6-4.5,1.4-8.2.8-12.1-1.7-2.5-1.6-2.7-3.3-2.1-5.9.8.4,1.5.7,2.2,1h-.2ZM202.1,218.8c-2.4,2.2-2.8,5.6-1.1,8.6.4.7.5,1.5.6,2.2.9-.1,2,0,3.1-.4,1.2-.4,2.6-.8,3.2-1.6,2.5-3.5,3.8-7.5,1.9-11.6-1.5-3.3-3.6-6.4-5.8-9.3-2.4-3.2-3.9-6.5-3.9-10.6v-23.8c0-5.5-.6-11.2,5.2-14.9-6,1.6-10.2-.6-14-5.3,3.9-1.2,7,.8,9.5,1.3-.2-3.9-.4-7.9-.6-11.6,2.1-.9,3.7-1.5,5.3-2.2-5.2.1-9.3-2.4-13.1-5.2-3.2-2.4-6.1-5.1-9.2-7.5-3.1-2.4-6.3-4.8-10.5-5.1-.2,0-.4.2-.7.3.5.3.8.5,1.4.9-.9.4-1.6.6-2.8,1.1,3.2.3,5.4,1.2,6.2,4-4.7,1.8-6,6.4-3.1,11.6,0-2.1-.2-4,0-5.9.1-.7,1.3-1.2,2-1.8.3.7,1,1.4,1,2,.2,12.9.3,25.9.3,38.8s0,7.3-3.5,9.7c6,3.6,6.5,5.5,4.3,12.2-1.3,3.8-2.3,7.7-2.9,11.7-.9,5.4,1,11.5,4.1,14.5-5.3-15.3,1.5-26.9,11.1-38-4.6-1.4-5.4-4.8-5.1-9,.2-3.4,0-6.9,0-10.3v-6.6c4.6,2.7,8.7,5,7.4,11-.5,2.1,0,4.5,0,6.7,0,6,0,12.1-.2,18.1,0,1.1-1,2.2-1.6,3.2,0,0-1.3-.4-1.2-.5.3-1.1.5-2.2,1.1-3.2,1.3-2.1,1.2-3.8-.3-5-.6,1.3-1,2.8-1.9,3.9-3,3.9-2.9,5.4,1.1,8.5,6.3,4.9,12.2,10.1,16.9,16.6,1,1.4,1.9,3.2,1.9,4.9s-1.2,2.9-2.2,4c-.4.4-2.4.2-2.7-.3-.8-1.3-1.2-2.9-1.5-4.4,0-.4.5-1,.8-1.5.2-.2.4-.4.6-.6,0,0-.1-.2-.2-.3-.3.2-.5.4-.8.5v.2ZM203.1,96.6h0c-.2-.3-.3-.8-.6-1-2.9-2.3-3.1-3.7-1.5-6.4-1.8-1.9-3.5-3.6-5.1-5.4-2.9-3.5-5.8-7.1-8.7-10.7-.5-.3-1-.5-1.6-.8,0,.1-.1.2-.2.4.4.3.9.6,1.3.9,1.4,2.1,3,4,4.1,6.2,1.8,3.6.5,6.3-3.6,7.4.5.5.9.9,1.4,1.2,3.1,1.9,4.2,4.7,4.1,8.3-.2,4.6-.1,9.3-.1,14s-2.8,4.8-4.2,4.3c-1.3-.4-2.3-1.9-3.2-3.2-.4-.6-.3-1.7-.3-2.5v-15.3c0-2.8-.1-5.7,0-8.5,0-1.1-.2-3.1,2.2-2.4l.4.9c.2-.1.3-.3.5-.4-.2-.3-.3-.5-.5-.8-.7-.7-1.3-1.6-2.1-2.2-5.2-4.2-9.4-8.9-8.7-16.3h-.7c-.5,2.4-1,4.8-1.6,7.8-3.9-3.7-8.2-6.8-11.1-10.8-2.8-4-4.2-9-6-13.1-.5,7,.9,14.1,5.7,20.3,2.8,3.6,5.8,7.1,8.9,10.4,3.4,3.6,5.2,7.7,5.2,12.5.1,7,0,14,.1,21,0,2.3-.8,3.7-2.8,4.8-.9.5-1.6,1.2-2.9,2.1,6.4-.2,9.8,4.2,14.2,6.8.2-4,3.2-7.8,7-8.8-.3,2.9-.6,5.7-.9,8.6-1.5-.4-2.4-.6-3.6-.9,3.2,5,7.7,7.8,12.5,10.5.2-4.3,3.6-8.4,7.4-8.8-.1,1.5,0,3-.5,4.4-.4,1.2-1.4,2.2-2.2,3.3,5.5,1,9,4.8,11.9,9.3-.5-4.8-1.2-9.4,2.3-13.3-4.3-1.2-6-8.7-3-11.6,2.9-2.8,4.7-6,4-10.1-.2-1-.8-1.9-1.3-2.9-.2,0-.4.2-.6.3,1.8,4,.5,7.9-3.3,9.8v-10.9c0-1.1.1-1.7,1.4-1.1.2,0,.4.1.6.2l-.4-.4c-3.7-4.8-1.1-8.5,2.3-12.1-4.6-.7-7.2-3.7-9.9-6.7-1.5-1.6-3.2-3-4.8-4.6-.5-.1-.9-.3-1.4-.4,0,.1,0,.3-.1.4.3.1.6.3.9.4.6.8,1.3,1.6,1.9,2.4,3.2,4.2,2.5,6.8-2.4,8.9,2.6,1.5,4.5,3.5,4.5,6.7,0,7.2,0,14.5-.1,21.7,0,1.6-3.7,4.7-5.3,4.4-2.4-.3-2.6-2.3-2.6-4.1,0-2.7,0-5.3.4-8,.1-1,.8-2.1,1.3-3,1.2-2,2.7-3.7,3.6-5.8,1.1-2.8,0-5.9-2.3-7.1v-.2ZM405.6,166.5c.1.1.3.2.4.3v-.2h-.5c-.8-4.6,1.5-7.5,5.6-9.8-3.5-.7-3.9-3-3.9-5.6s.5-5.7,0-8.5c-.6-4.3,1-7.1,4.6-9l1.2-.6c.6,2.1,1.6,4,1.6,5.9.2,9,.2,17.9.2,26.9s-.1,3.1-.9,4.2c-.7,1-2.3,1.4-3.4,2.1,1.2,1.1,2.5,2.3,3.9,3.4,4.4,3.7,9.5,5.9,15.2,6.3,8.6.6,15.9-3.5,19.1-11.6,3.5-8.6,4.1-17.4-2.1-25.4-.1-.3-.3-.6-.4-.8-.2.1-.3.3-.5.4.1.3.3.6.4,1,.4,1.2.8,2.5,1.2,3.7,2.4,7.7,1.1,14.6-3.8,21.1-5.8,7.7-13.4,6.7-20,2.2-.6-.4-1.1-1.4-1.1-2.1v-25.9c0-2.4,1.5-3.8,4-3.8,3.6,0,6.8,1.1,9.2,5.1-.3-2.7-1.2-4.2-3-5.1-2.1-1-4.2-1.9-6.4-2.5-4.2-1.2-7.8-3.3-10.8-6.8,4.1-2.4,8.1-4.8,12.4-7.4-4-.6-5.2-1.8-5.2-5.5-.1-4.8,0-9.7,0-14.5s1.5-5.5,4-7.2c1.8-1.3,3.8-2.4,5.8-3.2,5.4-2.3,10.9-4.5,16.2-6.7h-2.4c-13.6,1.9-26.3,6.4-38,13.6-1.2.7-2.6.9-4,1.4-.3-1.3-.9-2.6-.8-3.8.1-3,.6-6,.9-9.4-3.6,5.6-2.6,13.1-8.6,17.1,2.3,1.2,3.7,3,3.7,5.7,0,10.3,0,20.5-.1,30.8,0,1.4-.3,2.9-.5,4.3-.3,1.9-1.3,3.3-3.3,3.3s-3.9-1.2-4.6-3.4c-.3-.9-.4-1.8-.6-2.8-1.7,2.2-1.8,4.3,0,6.4,5,5.6,10.1,11,15.2,16.5h0ZM255.7,132.1h-.7c.1.2.2.3.3.5,1.3,3.2-.2,5.7-1.6,8.4-2.7,5.2-4.8,10.5.3,15.6.2.2.3.4.3.7v8.1c-.3.2-.6.4-.9.5-1.6-1.4-3.1-2.7-4.6-4,.2,2.7,1.1,5.3,3.7,7.2.8.6,1.5,1.8,1.5,2.8.2,9.6.5,19.1.2,28.7-.2,8.8-1.2,17.7-1.8,26.5-.3,4.9-.8,9.8-.5,14.7.3,3.6,1.8,7.2,2.8,10.8.1.3.3.5.4.8h.3c0-.5-.2-.8-.2-1.2-1.4-5-1.9-9.9-.2-14.9,3.9,1.2,6.5.8,7.3-1.3.6-1.7.6-3.3-1.5-4.5-.2,1.8-.2,3.9-2.7,3.4-1.7-.3-2.4-2.5-1.6-4.7.6-1.4,1.3-2.8,2.1-4.1,1.7-2.8,3-3.1,6-1.7,2.7,1.3,4.2,3.5,5,6.4.3-1.5.8-3.1.2-4.2-1.3-2.2-3.1-4.1-4.8-6.2,4.7-5.1,4.9-11.6.3-14,1.3,6.4.4,9.3-3.1,9.6v-38c0-4.5,2.5-7.3,7.2-8.1v31.7c-2.9-1.3-3.3-2.2-2.3-5.8.6-2.2.9-4.2-1.1-6.5,0,1.8,0,3.1-.2,4.3-.3,1.3-1,2.6-1.4,3.8-1,2.8-.5,5.2,2,6.8,4.4,2.8,6.5,6.5,5.1,11.9h.8c.8-1.9,1.6-3.9,2.5-6.1,6.3,5.8,10.7,12.6,11.9,21.4,1.2,8.8-1,16.7-6.2,23.9,1.6-1.5,3.1-3.1,4-5,6.5-13.3,6.2-26.3-2.3-38.7-.9-1.4-1.6-3.3-1.6-4.9s2.3-1.2,3.6-1.9c-1.1-.7-2.4-1.5-3.7-2.3-2.6-1.7-3.8-4-3.8-7.1v-35.2c0-2.5.5-4.6,3.2-5.3v-.7c-.1-.3-.3-.7-.5-.9-2.4-2.7-2-5.2,0-8.1,4.3-6.4-.5-16.1-6.6-18.3-2.1-.7-4.4-.7-6.6-1.1v.6c7,1.2,10.1,4.7,9.7,10.9-.1,1.8-.7,3.7-1.4,5.4-1.7,4.1-4.7,7.1-8.9,8.7,5.5,2.8,3.7,7.8,4.1,12-2.5,1.4-4.8,2.8-7.4,4.2v-16.3c.1-5.6,1.9-7.4,7.2-7.5-1.7-2-3.1-2.2-6.1-.7-1.1-1-2.2-2-3.3-2.9-.1,1.1.2,1.7.5,2.4.9,2.4-.2,5.4-2.7,6.2-1.1.3-2.7.2-3.5-.4-.6-.5-.5-2.2-.1-3.2.5-1.4,1.7-2.6,2.4-3.9,1.8-3.1,1.5-6.6-.8-9.3h-.2ZM110.2,143.6c-.2.1-.4.3-.6.4.5,2.9-.9,5.3-3.7,5.9-2.3.5-3.8-.7-4.6-4,0-.6-.2-1.2-.2-1.8,0-10.2-.3-20.5-.4-30.7,0-3.2.6-6.1,4.1-7.7-3.8-1.6-4.3-5-5.3-8.1-2.2-7-2.6-7.9-3.6-8.3.3,3,.8,6.2,1,9.4,0,1-.3,2.9-.7,3-1.1.2-2.5-.1-3.5-.7-9.1-5.6-18.8-9.6-29-12.2-1.4-.4-2.9-.6-4.3-.8-1.5-.3-3-.6-4.6-.8-1.3-.2-2.7-.2-4.1-.2,7.9,2.2,15.3,5.3,22.3,9.4,2.9,1.7,4.7,4.3,4.8,7.8,0,4.8,0,9.7,0,14.5,0,3.8-1.3,5-4.9,5.4,0,.1,0,.3.2.4.3.3.6.6,1,.8,3.5,1.1,4.3,3.6,3.7,6.9,0,.5-.2,1.1,0,1.5.4,1.9-.7,2.9-2.2,3.5-2.1.9-4.3,1.7-6.4,2.7s-4,2.3-4.3,4.5c1.9-1.1,3.9-2.6,6-3.3,4.4-1.5,6.9.5,6.9,5v23.8c0,.8-.2,1.9-.7,2.3-5.5,4.6-13.7,6-19.4-.5-5.8-6.7-7.2-14.2-4.8-22.6.3-.9.4-1.9.5-2.9-.2,0-.5-.1-.7-.2-.6,1.3-1.4,2.5-1.9,3.8-1.8,4.3-1.9,8.7-1.4,13.2,1.5,14.7,13.7,22.4,27.7,17.8,6-2,10.6-5.9,14.8-10.5,5.9-6.5,11.9-12.9,17.7-19.6,1.1-1.2,1.4-3.2,1.7-4.9,0-.6-.7-1.4-1.1-2.1h0ZM136.5,149.8c-6.8,5.4-11.2,13.5-20.2,16,0,.2.2.5.2.7,2.4-.1,4.9-.3,7.5-.4-4.3,8.3-7,16.7-6.2,26,2.8-17.7,11.8-31.5,26.4-41.6-3.2,7.3-4.9,14.8-4.3,22.7,1.1-6.2,2.2-12.4,6.8-18.1v30.7c0,5.1-.4,9.7-6.8,11.7,6.2,1.7,10,5.4,13.2,9.9,1.6,2.2,3,4.6,4.3,7,4.7,8.2,10.1,15.8,16.9,22.4,5,4.8,11.1,7.8,17.8,9.5-.4-.7-.9-1.1-1.5-1.4-10.9-4.5-18.5-12.6-24.6-22.4-7.9-12.6-12.6-26-11.8-41.1.2-4.4.6-8.8,0-13.2-.6-5.1,1.7-8.2,5.6-10.6,1.6-1,3.7-1.4,5.5-2l-2.6-1.3c1.8-1.4,3.3-2.5,4.9-3.7-5.2,1-9,4.6-13.4,7.6v-14.6c0-.6,0-1.4.4-1.6,2.1-1.6,4.3-3.2,6.6-4.9,1.3,4.8-3.6,8.4-1.1,12.8,2.8-6.6,6.2-8.9,10.1-6.5,1.3.8,2.8,2.5,3,3.9.2,1.8-.7,3.7-1.2,5.6,1.6,0,2.4-1.3,2.9-2.8,1-2.8,0-5.2-1.7-7.5-1.1-1.6-2.2-3.3-2.8-5.1-1.3-3.6-.5-7.1,1.9-10.7-1.5.2-2.5.2-3.4.6-3.2,1.4-6.5,2.8-9.4,4.6-4.8,3-9.5,6.3-14,9.7-4,3-8,3.9-13,2.2-6.9-2.5-14.3,3.5-13.6,10.6,4.9-9.5,11.8-11.5,17.5-4.8h.1ZM246.8,96.6c-3.9,3.1-7.9,6-11.5,9.2-.9.8-1,2.7-1.4,4.1h.5c1.1-1.2,2.2-2.3,3.3-3.5.2.2.4.3.5.5v11.2c-4.6-1.1-8.5-7.8-7-12.1,0-.2.2-.5.4-.6,4.1-3.2,8.2-6.4,12.5-9.4.9-.6,2.6-.6,3.6-.2.9.3,1.3,1.8,2,2.7,1.2-1.8.6-3.4-1.1-4.5-2.4-1.6-2.5-3.9-2.5-6.4s-.4-4.9,2.2-5.8c-3.1-2.4-6.1-4.9-9.2-7.1-4.1-3-8.2-6-12.5-8.5-2.3-1.3-5.2-1.5-7.8-2.1-.1.3-.2.6-.3.9,5.9,1.4,10.5,4.7,13.8,10-4.8.7-6.7,8.1-13.3,4.1.7,1.3.9,1.9,1.3,2.2,2.5,2.1,3,4.8,2.9,7.9-.1,7.5-.1,15,0,22.5,0,2.3.6,4.5.9,6.5-1.4,2.7-2.8,5.3-4.1,8,.2.2.5.3.7.5,3.3-3.6,7.2-5.5,12.1-5.3,5,.3,8.9,2.4,11.5,7.1.7-5.2,2.2-9.8,6.1-13.3-4.1-1.2-4.4-1.5-4.3-5.7,0-4.1.4-8.1.6-12.5v-.4ZM310.5,182.9c9.1,11.1,16.5,22.4,11.2,37.5.6-.5,1.2-1.1,1.6-1.8,2.2-4,3-8.3,2.2-12.7-.8-4.4-2.2-8.8-3.5-13.1-1.4-4.6-.6-6.9,3.4-9.3.5-.3,1-.6.9-.6-.9-2-2.4-3.7-2.5-5.5-.3-6.9-.2-13.8-.2-20.6s.6-2.2,2.5-1.2c-1-2.3-1.9-4.1-3.1-5.9-4.8-7.4-13.8-7.4-18.9-1.6-.8.9-1.8,1.7-2.7,2.3-1.4.9-3,1-3.7-.7-.3-.7.7-1.9,1.1-2.9-1.1-.1-2.6,0-3,2-.4,1.8.7,2.9,2.2,3.7,2.4,1.1,4.3,0,6.2-1.4,1.7-1.2,3.2-2.7,5-3.6,2.5-1.3,4.4-.5,5.3,2.2.6,1.9.9,3.9,1,5.8.1,6.5,0,12.9.1,19.4.1,3.9-1,6.7-5.1,8.1h0ZM158.9,181.8c-2.7,20.6,14.6,53.5,34.8,59.6.3-1.5.5-3,1-4.4s.1-2.1-1.3-2.8c-3.9-1.8-7.7-3.8-11.6-5.6-3.6-1.7-6.5-4.2-8.3-7.8-2.3-4.8-3.5-10-2.6-15.3.8-4.7,2.3-9.3,3.6-13.9.4-1.5.8-2.8-1.2-3.5-3.9-1.5-8.8,1-9.5,5-.3,1.6,0,3.2,0,4.9-.3,0-.6.2-.9.2-.9-2.2-2.3-4.3-2.4-6.5-.2-3.8,3.3-5.3,6.3-7.2-2.9-1-5.3-1.8-7.8-2.7h-.1ZM306.9,241.5c20.4-6.4,37.6-39.4,34.7-59.7-2.6.9-5.1,1.8-7.8,2.8,7.5,4.8,8.4,9.2,2.9,13.5,0-.6.1-1.1.2-1.6.7-5.4-2.7-9-8.2-8.6-2.8.2-3.3,1.2-2.6,3.8,1.3,4.5,3,9,3.5,13.6,1.1,9.9-1.8,19.6-12.4,23.9-2.1.8-4,2-6,3-3.8,1.9-5.2,5-4.3,9.3h0ZM278,240.3c6.2-6.2,4.8-14.4-1.9-22.2-1.3,1.2-2.7,2.4-3.8,3.4.6,1.9,1.4,3.6,1.8,5.4.8,3.3-.7,6-2.3,8.7-2.9,4.8-4.4,9.7-.9,14.9,0,0-.1.3-.3.5-4.1-1.1-5.4-4.3-5.8-8.7-1.9,2-3.5,3.5-4.9,5.3-.6.7-1,2.1-.7,2.9,1.4,3.7,3.1,7.3,4.8,10.9,11.1-4.7,19-14.8,18.3-23-1.4.6-2.9,1.2-4.3,1.9h0ZM235.9,242c-1.5,6.7-3.3,8.9-6.5,8.6.5-1.1,1.3-2.3,1.7-3.6,1.4-4.1,0-8-2.3-11.2-3.4-4.8-3.4-9.4-.4-14.2-1.5-1.3-2.9-2.5-4.7-4.1-1.7,4-3.9,7.6-4.9,11.5-1.1,4.1.4,8,3.6,11.3-1.5-.6-3.1-1.3-4.7-1.9,1.6,11.7,9.1,18.3,18.8,23.2,1.7-3.9,3.4-7.6,4.8-11.3.3-.7.1-1.9-.3-2.4-1.5-1.9-3.2-3.6-5.2-5.8h0ZM427,144.9v24.6c6.3,4,10.7,2.8,14.7-3.5,4.9-7.7,3-15.1-.8-22.4-.1-.2-.5-.2-.3-.2-.4,2.2-.6,4.4-1.3,6.4-1.5,4.2-3.7,8.2-2.9,13.2-2.7-2.3-3.3-4-3.3-7.8s-.3-4.6-.8-6.9c-.5-2.6-2.4-3.5-5.2-3.5h-.1ZM331.2,114.8c-.2-.8-.6-1.6-.6-2.4,0-5.5-.5-11.1.3-16.5,1.2-7.8-7.1-14.9-13.8-14.2-1.1.1-2.1.6-3.1,1,6.2.7,8.7,3,8.9,9.2.2,6.2,0,12.4-.2,18.6,0,2.9-1,5.4-3.5,6.6,2,.8,4.3,1.4,6.3,2.5,2,1.2,3.7,2.9,4.9,3.9,1.3-2.5,2.5-5.1,3.9-7.5,1.8-2.9,2-4.9.4-7-.2,4.5-.5,5.2-3.6,5.8h.1ZM59.6,143.6c-3.2,7.2-5.8,14.5-.7,22.4,4,6.2,8.4,7.4,14.7,3.5v-24.6c-2.8,0-4.7,1.1-5.2,3.7-.5,2.5-.6,5.1-.8,7.6-.2,2.8-.7,5.3-2.8,6.5-.6-2.9-1-5.8-1.8-8.6-1-3.6-2.3-7-3.4-10.5ZM287.3,88.5c3.3-1.2,6.7-2.4,10-3.8,1.1-.4,2.1-1.2,2.8-2.1,2.9-3.7,5.6-7.6,8.5-11.6-7.5-.7-14.9-1.3-22.2-2-.8,5.3-1.5,10.1-2.3,15.3.9,1.1,2.1,2.8,3.2,4.2h0ZM304.6,232.5h.9c3-3.3,5.9-6.7,9-9.9,6.2-6.5,5.8-15.5,2.3-22.3-2.2,2-4.4,3.9-6.5,5.8,2.5.8,4.8,1.6,7,2.4,0,.3-.1.5-.2.8-6.2-.5-12,.1-16.3,5.5,3.6,3.1,4.4,6.9,3.9,11.3-.3,2.1,0,4.2,0,6.3h0ZM183.6,200.2c-3.4,8.2-3.3,15,.9,20.4,3.3,4.2,6.9,8.1,10.9,12.6.3-2.4,1.1-4.3.7-6-1-4.7-.3-8.8,3.3-12.3-4-5.7-10-6.1-16.2-5.8v-.8c2.3-.7,4.6-1.5,7.1-2.2-2.3-2-4.4-4-6.7-6h0ZM364.3,164c.3,1.5.7,2.9.7,4.3.4,6.8,1,13.7-5.2,18.8-.9.7-1.6,2.3-1.5,3.4,0,1.8,1.7,2.6,3.4,2.9,5.4.9,10.8,1.8,16.5,2.7.3-6.4-1.4-12.2-4.1-17.6-.5,2.1-.6,4.3-1.1,6.2-.6,2.2-2.1,3.8-4.8,4.1,4.2-7.1,1.9-21.6-3.8-24.8h-.1ZM122.5,196.1c5.6-.9,11-1.6,16.4-2.8,4.1-.9,4.6-3.2,1.9-6.2-2.1-2.4-4.5-4.6-4.8-8-.3-3.8-.3-7.5-.4-11.3,0-1.2.1-2.4.2-3.6-4.7,7.7-8.9,15.5-3.6,24.6-4-.9-5.4-3.3-5.9-10.1-2.6,4-4.4,12.1-3.8,17.4h0ZM341.9,179.6v-13.8c0-.7-.3-1.5-.8-2.1-3.1-3.7-4.4-3.8-8.2-.9-.4.3-.8.6-1.2.9-3.2,2.3-3.5,3.2-1.6,6.7.7,1.4,2,2.5,3,3.7.4.5.8.9,1.2,1.3-.2.3-.3.5-.5.8-2-.8-4-1.7-5.9-2.5,0,1-.2,2.1,0,3.1.2.7.8,1.6,1.4,1.7,4.1.5,8.2.8,12.5,1.2h.1ZM323.7,145.2v-10.8c0-.8.7-1.6,1.1-2.5.7.8,1.8,1.5,2,2.5.3,1.4,0,3,0,4.7,2.4-3.8,2-9.4-3.8-11.4,1.5-1.2,2.8-2.1,3.9-3-3.7-.6-7.1.5-10.3,2.6-2.8,1.8-5.7,3.4-8.8,5.3,2.5.2,4.8.4,7.1.5,1.6,3.7-.8,5.5-3.7,7.3,4.9-.5,8.9.7,12.4,4.7h0ZM238.6,262.8c3.8,2.3,7.2,4.4,10.6,6.4.5.3,1.4.5,1.8.2,3.6-2.1,7.1-4.3,10.5-6.3-4.1-3-7.9-5.9-11.5-8.6-1.3,1.3-2.9,3-4.8,4.4-2,1.4-4.2,2.5-6.6,3.9h0ZM144.5,78.5c1.7-1.4,3.5-2.7,5.1-4.2,1.7-1.6,1.4-3.6-.8-4.4-1.1-.4-2.7-.7-3.7-.3-2.3,1-4.6,2.2-6.4,3.9-3.4,3-6.5,6.4-9.6,9.7-.5.6-.9,2-.6,2.4.8,1,2.2,2.3,3.2,2.2,1.7-.2,3.7-1.1,4.9-2.4,3.2-3.4,5.4-7.5,6.4-12.3.5,1.7,1.1,3.5,1.6,5.3h0ZM191.8,71c1.3,2.9,3.4,3,5.8,2.7,4.3-.6,8,.8,11,3.8s3.6,3.9,5.5,5.8c1.4,1.3,3,2.5,4.9,4-1.5-3.5-3-6.1-3.7-8.9-.7-3-.7-6.1-1-9.5-7.5.7-14.9,1.3-22.6,2h.1ZM369.2,91.2c4.3-3.6,4.6-6,.9-9.9-3.1-3.3-6.5-6.4-9.9-9.4-2.3-2.1-4.3-2.5-6.9-2.2,1.6,1.4,3.1,2.8,5.1,4.6.7,6.7,6,11.7,10.8,16.9h0ZM296.6,142.4c-1.7-2.4-3.5-4.9-5.5-7.7-1.5,3.3-2.6,5.9-3.8,8.5-.2.4-.4.8-.5,1.2-1.9,4.6,0,7.4,5.1,7.5-.8-4.5.2-6.6,4.7-9.5h0ZM271.2,139c1.1-4.6-.7-7.5-4.8-8.2-2.2-.3-4.4-.7-6.4-1,.6,1.9,1.4,3.6,1.6,5.5.2,2.2,1.7,2.7,3.2,2.9,2,.4,4.1.5,6.5.7h-.1ZM229.3,138.9c2.2-.2,4.4-.2,6.6-.7,1.1-.2,2.5-1.1,2.9-2,.8-1.8,1-3.9,1.5-5.9-8.6-.6-12.4,2.5-10.9,8.6h-.1ZM205.2,152.6c3-1.7,5.2-2.9,7.4-4.2.5-.3,1-1.5.8-1.8-.8-1.4-1.6-2.9-2.9-3.8-1.9-1.5-5.8.2-5.8,2.5s.3,4.5.5,7.4h0ZM281.3,114.8c0,.4-.6,1.6-.3,2.6,1.2,3.2,2.7,6.2,4.1,9.5.8-.2,1.8-.5,3.1-.9-.2-1.7.1-3.6-.7-4.7-1.8-2.4-4.2-4.4-6.2-6.5h0ZM277.5,76.4c3-2.6,5.5-4.8,8.6-7.5-5-.2-8.4,1.3-11.1,4.2.8,1.1,1.6,2.1,2.5,3.3ZM214.5,68.9c2.3,2,4,3.5,5.8,5,1.9,1.7,3.7,1.4,5.4-.7-2.8-3-6.2-4.5-11.1-4.3h0ZM166.5,87.3c2-.6,3.6-1.2,5.3-1.7-1.8-4.2-2.6-4.5-5.3-2.9v4.6h0ZM128.5,150.5c-2.4-.2-4.7,1.9-5,5.9,1.9-2.2,3.6-4.3,5-5.9h0ZM371.2,150.5c2,2.1,3.9,4.1,5.9,6.2-.1-3.9-2.4-6.2-5.9-6.2ZM289.1,135c-1.6-.5-2.8-.8-4.2-1.3.1,1.2.2,2.3.3,3.8,1.5-.9,2.5-1.6,3.9-2.5h0ZM115.4,158.1c-.7,1.4-1.2,2.5-1.9,4,1.4-.3,2.3-.6,3.4-.8-.5-1.1-1-2-1.5-3.2ZM386.9,162.1c-.4-1.1-.6-1.6-.9-2.1-.2-.5-.5-.9-1-1.7-.5,1.2-.9,2-1.4,3,1.1.3,1.9.5,3.3.8h0ZM62.4,139.8c0-.2-.3-.4-.3-.4-.2,0-.4.2-.7.3,0,.1.2.3.3.3.2,0,.4-.2.7-.3h0ZM233.4,166.2h0c0,.1,0,.2.1.3v-.3h-.2,0Z"/>
  <path class="cls-1" d="M467.3,103.8c.2.3.3.6.5.9,0,0-.2.1-.3.2-.2-.2-.4-.4-.6-.6.1-.2.3-.3.4-.5h0Z"/>
  <path class="cls-1" d="M33.6,104.3c-.2.2-.4.4-.6.6,0,0-.2-.1-.3-.2.2-.3.3-.6.5-.9,0,.2.3.3.4.5h0Z"/>
  <path class="cls-1" d="M433.8,71.1v-.4.4h0Z"/>
  <path class="cls-1" d="M432.7,106.8c0-.1.1-.3,0,0,.2-.2,0,0,0,0h0Z"/>
  <path class="cls-1" d="M67.9,106.8c0-.1-.2-.3,0,0,0-.2,0,0,0,0h0Z"/>
  <path class="cls-1" d="M141.8,40.6h-.6c.1-.1.2-.3.3-.4l.3.3h0Z"/>
  <path class="cls-1" d="M359,40.3c.1.1.2.3.3.4h-.6c0-.1.2-.2.3-.3h0Z"/>
  <path class="cls-1" d="M66.7,71.1c0-.1-.2-.2-.2-.4v.2s0,.1,0,.2h0Z"/>
  <path class="cls-1" d="M220.3,278.9c-.1.1-.3.2-.4.3,0-.2.1-.4.2-.6l.2.2h0Z"/>
  <path class="cls-1" d="M280.5,278.6l.2.6-.4-.3.2-.2h0Z"/>
  <path class="cls-1" d="M85.8,165.5v-60.1c5.1,2.7,7.5,6.6,7.5,12,0,9.4,0,18.8-.2,28.2v3.6c0,6.4-2.4,11.9-7.3,16.4h0Z"/>
  <path class="cls-1" d="M407.5,133v-26c3.2-1,4.8-.3,5.9,2.6.5,1.4.9,3,1,4.5.3,3.9.5,7.9.5,11.8s-.8,2.5-1.7,3.3c-1.6,1.4-3.5,2.4-5.6,3.8h0Z"/>
  <path class="cls-1" d="M203.1,96.6c2.2,5,1.5,7.8-2.7,10.4v-11.5c.9.4,1.8.8,2.7,1.2h0Z"/>
  <path class="cls-1" d="M188.8,142.5c1.1-.7,2.3-1.4,3.4-2,1.6,4.9-.1,7.5-6.9,10v-16.9c5.2,1.9,6.5,5,3.3,8.3.1.2.2.4.3.6h-.1Z"/>
  <path class="cls-1" d="M218.4,157.2c3,2.6,2.6,5.7,1.3,8.8.2.1.5.2.7.4.9-1.5,1.9-3,2.9-4.8v11c0,.5-.5,1.1-.9,1.4-2.1,1.6-4.3,3.2-6.6,4.9v-9c0-2.7.1-5.5-.1-8.2-.2-2.2.4-3.6,2.7-4.5h0Z"/>
  <path class="cls-1" d="M292.6,179v-18.2c3.6,1.5,4.6,3.7,4.3,8.3.8-1.6,1.7-3.1,2.5-4.7,1.9,2.8,1.3,6.5.3,9.2-.8,2.2-4.3,3.4-7.1,5.4h0Z"/>
  <path class="cls-1" d="M377.2,116.7v-22c3.4,1.3,4.3,4,2.7,7.6.2.1.4.2.5.3.6-1.2,1.3-2.4,2.2-4.1.6,1.8,1.4,3.3,1.6,5,.3,2.3.2,4.6,0,7,0,.6-.5,1.2-.9,1.6-1.9,1.5-3.8,2.9-6.2,4.7h0Z"/>
  <path class="cls-1" d="M146.9,83.9c3.7.4,4.9,2.9,3.1,6.3.2.1.4.2.6.4.8-1.2,1.6-2.3,2.4-3.5,1.8,2.7,2.6,6.4,1.4,9.2-1.3,2.9-4.6,5-7.5,8v-20.4Z"/>
  <path class="cls-1" d="M116.3,92.8c4.7,1.5,6.8,4.8,7.2,9.4.4,4.6-.7,8.1-4.7,10.6-.8.5-1.5,1.3-2.5,2.2v-22.2Z"/>
  <path class="cls-1" d="M231.3,100.7v-20c3.2.8,4.2,3,3.2,7,2.1-.9,2.5-2,2-4.8.2,0,.5-.2.7-.2.4,1.2,1.1,2.4,1.2,3.6.6,8.7-.4,10.8-7.1,14.4h0Z"/>
  <path class="cls-1" d="M300.1,109.3v-18.5c2.9.2,4,2.1,3.7,6,.8-1.1,1.5-2.3,2.3-3.4,1.9,2.6,1.6,5.9,1.5,9,0,.5-.6,1-1.1,1.4-2,1.8-4.1,3.6-6.4,5.5Z"/>
  <path class="cls-1" d="M171.5,95.2v-.6c.1.2.2.4.3.5h-.3Z"/>
</svg>