<?xml version="1.0" encoding="UTF-8"?>
<svg id="Calque_1" data-name="Calque 1" xmlns="http://www.w3.org/2000/svg" version="1.1" viewBox="0 0 500 300">
  <defs>
    <style>
      .cls-1 {
        fill: #75683b;
        stroke-width: 0px;
      }
    </style>
  </defs>
  <path class="cls-1" d="M377.6,135.2c4.1-5,10.2-5.4,15.6-7.1,2.6-.8,4.3.9,4.5,4.1.3,4.9.5,9.7.6,14.6v5.1c4.3-4,9.7-5,13-10.2,4.7-7.5,11.7-12.8,21-14,4.9-.7,9.5.4,13.6,3.2,2.7,1.8,2.7,3.9,0,5.7-2.3,1.6-4.7,1.6-7.2.7-2.9-1-5.8-2-8.8-2.7-4.8-1.1-11.4,4.1-11.7,9-.1,2.4,1.3,2.9,3.2,2.8,5.3,0,10.6,0,15.9-.1,16.4-.7,32.8-1.5,49.1-2.3,2.7-.1,5.5-.1,8.2.1.8,0,1.6,1.2,2.4,1.8-.7.6-1.4,1.6-2.2,1.7-7.8,1.1-15.7,2.1-23.6,3.2-2.2.3-4.4.9-6.3,2-1.3.7-2.7,2.5-2.7,3.9,0,8-4.7,13-10.7,16.9-8.3,5.5-17.8,6.5-27.2,4.8-8.6-1.6-17.1-9.9-17.7-19.7-.3-3.8-3.9-6-7.3-4.2-.8.5-1.4,2.1-1.4,3.2-.2,4.7-.2,9.3-.1,14,0,2.8-1.2,4.8-3.6,6.2-4.9,2.8-7.6,1.5-7.7-4.1,0-7.8,0-15.7.2-23.5.1-3.6-.7-6.6-3.4-9.1-2-1.9-3.7-4-5.7-6.2v.2ZM419.1,153.2c0,1.3-.1,2.2,0,2.9,1.6,9.2,12.3,17,21.7,16.2,8-.6,12.3-5.7,15.9-12,2-3.6,1.8-4-2-5.4-11.7-4.5-23.6-.3-35.6-1.8h0Z"/>
  <path class="cls-1" d="M166.2,174.4c-.9.4-2.4,1.1-4,1.6-4.4,1.2-8.8,2.3-13.1,3.4-9.2,2.3-24.4-10.5-21-23,1.5-5.6,3.3-10.9,7.7-15,.4-.4.7-1,1.6-2.3-2.6-.4-4.7-.6-6.7-1-.9-.2-1.8-.7-2.7-1,.4-.9.6-1.8,1.1-2.6,1.6-2.3,3.9-2.9,6.7-2.7,5.7.4,11.4.4,17.1.8,1.4,0,2.8,1.1,4.1,1.6-1.1,1.3-1.9,3-3.2,3.8-1.5.9-3.4,1.1-5.1,1.4-4.9.8-7.8,3.3-8.2,8.2-.3,3.8-.4,7.6.2,11.4,1.6,10.4,13.4,16.9,21.9,12.1,1.8-1,3.8-3.3,3.9-5.2.7-7.7.7-15.4.8-23.1,0-1.1-1-2.5-1.9-3.4-2-2-1.6-3.5.6-4.8,1.5-.8,3-1.7,4.5-2.2,6.7-2.2,10.9,1.5,10.3,8.5-.8,9-1,17.9-1.5,26.9,0,1.7-.3,3.4-.5,5-.7,4.5-3.7,6.9-8,5.8-1.6-.4-2.8-2.6-4.5-4.4v.2Z"/>
  <path class="cls-1" d="M219.5,167.6c5.6-8.2,8-16.7,9.2-25.5.2-1.6-.7-3.5-1.4-5.1-.8-1.7-2.8-3.1-.6-5.3s4.5-3.1,7.4-1.8c3.8,1.7,6.6,6.4,5.4,10.8-1.5,6.1-3.3,12.2-5.8,18-1.5,3.5-4.5,6.3-6.9,9.3-1.2,1.6-2.3,3.4-3.8,4.6-2.9,2.3-6,4.4-9.2,6.4-.5.3-2.2-.5-2.8-1.3-2.4-3.3-4.9-6.6-6.9-10.2-3.5-6.5-6.6-13.2-10.1-19.7-2.2-4.1-4.7-8-9.3-10-2.1-.9-1.9-2.3-.2-3.6,4-3.2,8.9-3.3,13.5-.2,5.1,3.5,7.9,8.6,10.7,13.9,3.4,6.4,7,12.7,10.8,19.5v.2Z"/>
  <path class="cls-1" d="M259.2,149.4h6.9c6.4-.3,12.9-.6,19.3-.9,1,0,2.1,0,3.1.3.7.2,1.7.9,1.7,1.5s-.5,2-1.2,2.3c-1.5.7-3.2,1.2-4.8,1.4-5.7.6-11.4.9-17.1,1.5-2,.2-4,.8-6.5,1.4,4.1,7,9.2,11.9,16.6,13.6,2,.4,4.5-1.1,6.6-2,1.8-.8,3.3-2.4,5.1-2.9,1.1-.3,2.6.8,3.9,1.2-.4,1-.6,2.1-1.1,3-6.7,10.8-23,12.1-33.9,4.4-5.4-3.8-8.1-9.1-10.2-14.9h-7.3c-.9,0-1.7-.6-2.5-.9.4-.9.5-2.1,1.2-2.6,1.7-1.3,3.6-2.8,5.6-3.3,2.2-.6,3.3-1.8,4.2-3.8,3.5-7.8,8.9-13.8,16.6-17.6,5.3-2.6,10.3-1.4,15.1,1.2,2.5,1.3,2.5,3.1.2,5-3.1,2.5-6.8,2.7-10.7.6-4.5-2.4-6.3-2-8.4,2.6-1.1,2.5-1.6,5.4-2.7,9.1l.3-.2Z"/>
  <path class="cls-1" d="M338.9,135.8c-4.8-.7-8.5-1.5-12.2.9-1.7,1.1-3.5,2.1-5.3,2.7-1.2.4-2.6-.1-3.9-.2.5-1.3.6-3,1.5-3.9,3.7-3.2,7.7-6.1,12.7-6.6,3.2-.3,6.5,0,9.8,0,8.5.3,16.9.7,25.4,1.2,1.6,0,3.7-.2,3.8,2.3,0,2.3-1.4,3.6-3.5,3.8-5.8.6-11.6,1.1-17.4,1.6-8.3.7-10.8,3.4-10.7,11.7,0,10.8,5.2,18.2,15.3,22.1,5.7,2.2,10.9.6,15.4-3.1,2.5-2.1,4.5-4.8,6.8-7.1.8-.8,2-1.2,3-1.8.3.2.6.5.8.7-.6,1.6-1,3.3-1.9,4.8-6.7,11.5-25,17.9-37.1,12.2-14.5-6.9-19.4-21.9-6.5-36.9,1.1-1.3,2.2-2.5,4-4.4h0Z"/>
  <path class="cls-1" d="M103.6,179.9c-4.8-.9-8.7-1.7-12.6-2.5-3.8-.7-4.8-3.2-4.9-6.6,0-6.8-.3-13.5-.5-20.3,0-1.3,0-2.5,0-3.8,0-3.5-1.1-6.2-4.4-8.1-2.9-1.6-2.8-2.9,0-4.4,3.1-1.7,6.4-3.2,9.8-4.5,3.3-1.2,5.8.1,6.4,3.5.6,2.9.7,5.9.8,8.8.3,7.6.3,15.2.6,22.8.2,4.7.5,5,5,6.2,2.6.6,5.2,1.4,7.8,1.2,2.9-.3,5.8-1.4,8.6-2.4,2.1-.7,4.5-2.4,5.9,0,.6,1-1.2,3.6-2.2,5.2-.4.7-1.5,1.2-2.4,1.4-6.2,1.2-12.4,2.4-17.9,3.4h0Z"/>
  <path class="cls-1" d="M312.9,152.1c-.3,5.5-.4,11-.8,16.5-.4,4.9-2.6,8.6-7.5,10.4-2,.7-3.1.1-3.7-1.6-.5-1.4-.7-2.9-.8-4.3-.2-9.5-.5-19-.5-28.5s-1.1-5.5-4.2-6.7c-.8-.3-1.5-.8-2.2-1.3-1.8-1.1-2-2.2-.3-3.7,4.2-3.5,9-5.3,14.3-4.5,1.6.2,3.6,2.1,4.1,3.6.9,2.8,1.1,6,1.3,9,.2,3.7,0,7.4,0,11.1h.3Z"/>
  <path class="cls-1" d="M61.4,131c-8.2,6.3-9.9,7.4-18.6,0-3.5-3-7.7-3.3-11.9-1.2-4.1,2.1-5.8,5.6-6,10.1,0,2.5.8,3.9,3.4,3.9,5.6,0,11.2,0,16.8-.3,4.5-.1,9.1-.5,13.6-.7,1.1,0,2.3.4,3.3.6.4,3.1-1.3,4.9-5.3,5.4-5.6.7-11.2,1.2-16.7,2-3.4.5-6.7,1.1-10,1.8-1.7.4-2.5,1.3-1.8,3.2,3.1,7.9,18.2,16.2,26.4,14.4,6.1-1.3,9.8-5.5,12.2-11,1.3-3,2.4-6.1,4-9,.6-1.2,2.4-1.7,3.6-2.5.8,1.5,1.7,2.9,2.4,4.4,0,.2,0,.7,0,.9-3.1,7.5-5.4,15.4-12.9,20.1-8,4.9-16.6,7.2-25.9,7-9.2-.2-21.4-8.6-24.4-17.3-.6-1.8-.6-3.9-.7-5.9-.3-3.3-1.1-4.1-4.4-3.7h-.6c-1.7-.2-3.4-.3-5-.5,1-1.6,1.6-3.9,3-4.7,4.6-2.7,7.5-5.9,10-10.9,4.2-8.2,12.2-13.5,21-16.5,7.6-2.6,18.9,1.6,23.5,8.2.4.6.6,1.3,1,2v.2Z"/>
</svg>