<?xml version="1.0" encoding="UTF-8"?>
<svg id="Calque_1" data-name="Calque 1" xmlns="http://www.w3.org/2000/svg" version="1.1" viewBox="0 0 500 300">
  <defs>
    <style>
      .cls-1 {
        fill: #090907;
      }

      .cls-1, .cls-2, .cls-3 {
        stroke-width: 0px;
      }

      .cls-2 {
        fill: #020201;
      }

      .cls-3 {
        fill: #75683b;
      }
    </style>
  </defs>
  <path class="cls-3" d="M255.1,130.5v-27.7c0-1.3.3-2.2,1.2-3.2,2.7-2.9,5.1-6,6.8-9.6,1.9-3.9,2.4-7.9,1.1-12.1-.6-2.8-1.8-5.3-3.9-7.3-1-1.5-1.7-3-.4-4.6h2.2c1.1.6,2.3,1.2,3.4,1.8.9.5,1.9,1.1,2.8,1.6.3.2.6.5.9.7h0c.6.5,1.2,1.1,1.8,1.6,1.2,1.4,2.4,2.8,3.6,4.3.5,1,.9,2,1.4,3,2.9,5.7,3.4,11.6,1.9,17.8-1.6,6.5-3.3,12.9-4.9,19.4-.4,1.7-.4,3.5-.6,5.3.3.2.5.3.8.5.2-.4.3-.8.5-1.1.3-.3.6-.6.9-.9.2-.2.4-.4.7-.7.6-.8,1.5-1.6,1.7-2.5.3-1.1.1-2.3.2-3.5.8-.2,1.6-.7,2.5-.7,6.6,0,13.2.5,19.7-.2,6.6-.7,13.2-.1,19.8-.4.7,0,1.4.4,2.2.6,0,.1.2.2.2.3.2.2.3.4.5.6.3.4.6.8.9,1.3,1,1.6,2.1,3.1,3.1,4.7.2.3.4.6.6,1h0c.2.5.4,1,.7,1.6,1.4,3.2,2.7,6.4,4.1,9.7.3.5.6,1.1.8,1.6v1.2c0,.4,0,.7.2,1.1,1.9,5.9,1.9,12,.7,18-.4,1.8-1.2,3.4-1.8,5.1v.6c-.2.2-.4.4-.6.7v.3c-.5.6-1,1.3-1.5,1.9v.3c-.4.4-.8.9-1.2,1.3v.3c-1.2,1-2.4,2.1-3.5,3.2,0,0,.5.6.7.9h.8c.3.1.7.2,1,.3h.6c.1-.1.2-.3.4-.4h.1c.3.2.6.6,1,.7.8.3,1.7.4,2.6.6,4.1,1.1,8.2,2.1,12.2,3.2.9.2,1.8.5,2.7.7.4.2.9.3,1.3.5.3.1.6.2.9.3h.6c2.7.9,5.3,2.1,8,2.7,6.4,1.4,12.9,2.6,19.5,2.8,13.3.4,26.5.4,39.2-4.7,3.6-1.5,7.2-3.1,10.2-5.6.1,0,.3-.2.4-.2.4-.3.8-.7,1.2-1,.3-.2.5-.4,1-.7-1.3-.6-2.3-1-3.3-1.4-.6-.4-1.3-.7-1.8-1.2-1.9-1.9-3.8-3.8-5.7-5.8-1.9-1.9-2.7-1.9-4,.4-2,3.7-4.9,6.6-8,9.3-1.4,1.3-3.1,2.3-4.7,3.3-1.3.8-2.2.4-2.7-1-.3-.9-.7-.8-1.4-.6h-.9c-1.5-1.5-1.6-2.1-.6-4,.6-1.3,1.2-2.5,1.9-3.8,2.7-5.4,3.5-11.1,2.2-17-.9-2.5-1.8-5-2.8-7.6-1.8-3.3-3.6-6.7-5.4-10-.2-.3-.4-.6-.6-1h0c-.3-.4-.6-.8-.9-1.3h0c-1.1-1.6-2.1-3.2-3.3-4.7-2.3-3-4.7-6-7.1-9.1-2.3-3-4.7-6.1-7-9.1-.3-.4-.6-.9-.8-1.3-.9-1.6,0-3.1,1.8-3.2h16.3c1.1,0,2.3.6,3.4.9,1.1.3,2.1.8,3.2.9,2.3.1,4.7,0,7,0h8.8v-.4c-3.3-1.3-6.6-2.6-9.8-4-3.8-1.6-7.5-3.4-11.2-5.1-.4-.2-.9-.3-1.3-.4-.6-.5-1.2-1.1-1.9-1.6-.3-.4-.6-.9-.8-1.3-.8-1.6-.2-2.8,1.6-3.1,8.8-1.8,17.8-2.4,26.8-2.6,22.7-.5,44.9,3.1,66.9,8.4,4.4,1.1,8.7,2.1,13.1,3.3.7.2,1.3.7,2,1.1v1.4c-.2.3-.4.7-.5.8.4.6.7,1.1,1,1.6-.5.3-.9.6-1.4.9-.3.1-.6.2-.9.2-5.2.3-10.5.6-15.7,1s-5.2.5-7.8.5-2.7-.3-3.7-1c-.7-.5-1.1-.9-1.9-.8-.4-.1-.8-.2-1.2-.4-.4-.5-.8-.9-1.2-1.4v-.2c.2-1.2-.3-1.7-1.5-1.8-5.6-.3-11.2-.6-16.9-.9-.6,0-1.2.3-2.2.6,6.3,5.3,11.9,10.5,16.7,16.6,1,1.6,1.9,3.1,2.9,4.7.4.6.9,1.1,1.4,1.7h0v.6c.2.6.3,1.3.6,1.9.7,1.7,1.5,3.5,2.3,5.2,0,.2,0,.4.1.6,2.2,5,2.9,10.3,3.2,15.6.4,6.1-1.2,11.8-4,17.3-.2.3-.2.7-.3,1v.3c-.5.6-1,1.3-1.5,1.9v.3c-.2.2-.4.4-.6.7v.3c-.8,1-1.6,1.9-2.5,2.9v.3l-1.3,1.6-.3.3c-1.8,1.8-3.6,3.5-5.4,5.3-.7.4-1.5.8-2.2,1.3-1.4,1.2-2.7,2.4-4.1,3.7-1.5.9-3.1,1.8-4.6,2.7-.6.4-1.1.9-1.7,1.4-.5.2-1,.4-1.5.7-.5.3-1,.7-1.6,1h-.5c-.3.2-.5.3-.8.5-.6.3-1.3.6-1.9.9-.4.2-.8.4-1.3.6-.3.1-.6.2-.9.3-.4.2-.8.4-1.3.6h-.3c-.5.2-1.1.4-1.6.6-.8.2-1.6.5-2.5.7-.9.4-1.7.8-2.6,1.2h-1.5c-.5.3-1.1.6-1.6.9h-.6c-.6.2-1.3.4-1.9.6h-.6c-.2,0-.4.2-.7.3h-.6c-.3,0-.6.2-1,.3h-.9c-.2,0-.4.2-.7.3h-.9c-.4,0-.8.2-1.3.3h-.9c-.3,0-.6.2-1,.3h-3c-.5.2-1.1.4-1.6.6h-1.6c-.9-.4-1.8-.8-2.5.3h-5.9c-.7-1.1-1.6-.6-2.5-.3h-2.2c-.9-1.1-1.9-.6-2.8-.3h-2.2c-.5,0-1.1-.2-1.6-.3h-1.5c-.4,0-.9-.2-1.3-.3h-.9c-.4-.9-1-.7-1.6-.3h-.9c-.4,0-.8-.2-1.3-.3h-.9c-.4,0-.9-.2-1.3-.3h-.6c-.3,0-.6-.2-1-.3h-1.2c-.3,0-.6-.2-1-.3h-.6c-.3-.2-.7-.4-1-.5h-1.2c-.6-.5-1.2-.7-1.6.2-1,0-1.9,0-2.2,1.2h-1.2c-.4.2-.8.4-1.3.6h-.6c-.6.2-1.3.4-1.9.6h-.6c-.3,0-.7-.2-1-.3-1.7-.2-3.4,0-5-.6-3.3-1.1-5.6.7-8.1,2.1h-.9c-.3,0-.6.2-1,.3h-5.1c-.3,0-.6-.2-1-.3h-.9c-1.3-.6-2.6-1.1-3.9-1.7-1.2-.7-2.4-1.3-3.6-2-1.3-1.3-2.6-2.7-4-4h-.4c-.9-1.5-1.9-3-2.8-4.5-.4-1.1-.9-2.1-2.4-2.1-3.9,0-7.7.8-11.1,2.7-1.5.8-2.7,2-3.2,3.7-.4,1.5-.2,1.7,1.5,1.7h.4c.5,0,1.2,0,1.6-.3,3.8-2.8,7.6-2.8,11.5-.5.6.5,1.3,1,1.9,1.5.2.3.5.6.7.9.3.5.6,1.1.9,1.6.4.9.8,1.9,1.3,2.8,3.1,5.6.5,12.5-5.6,14.3-2.1.6-4.4.5-6.6.4-4.2,0-8.1-1.1-11.7-3.4-1.3-.9-2.7-1.7-4.1-2.5-1.1-1-2.3-2.1-3.4-3.1-.4-.5-.8-.9-1.1-1.4-.2-.3-.5-.6-.7-.9s-.4-.6-.6-.9c-.2-.2-.4-.4-.5-.6-.3.4-.7.8-.8,1.2-1.4,4.2-3.7,7.1-8.6,7.3-2.5.1-3.2,1.4-2.6,3.8.5,1.9.6,3.8-.2,5.7-1.8,4.3-5.1,6.6-9.6,7.3-1.9.3-3.7.7-4.8,2.3-2.7,3.8-6.3,6.6-10,9.4-1.1.8-2.2.8-3.3,0-1.3-.8-2.5-1.6-3.8-2.4h0c-.3-.2-.6-.4-.9-.7-2.1-1.8-4.2-3.5-6.3-5.3-.4-.4-.8-.9-1.2-1.3-.2-.3-.4-.6-.6-.9-.2-.3-.4-.6-.6-.9-.5-.3-1-.7-1.5-.9-1.5-.6-3.1-1.1-4.6-1.6-.6-.2-1.1-.4-1.7-.7-.5-.2-1-.5-1.5-.7-.5-.3-1.1-.6-1.6-.9-.7-.7-1.5-1.5-2.2-2.2-.3-.6-.6-1.3-.9-1.9-.3-1.8-.7-3.5-1-5.3.2-.9.7-1.8-.7-2.3-4.1-1.3-6.7-4.4-9.1-7.7l-.3-.9c-.2-.4-.4-.9-.6-1.3,0-.5-.2-1-.2-1.6-.3.2-.5.2-.5.2,0,.1-.1.3-.2.4-1,3.6-2.9,6.5-5.9,8.9-5.5,4.5-11.8,5.2-18.5,4.6-1.7-.2-3.2-1-4.8-1.6-.7-.3-1.4-.7-2.1-1-.5-.3-1.1-.6-1.6-1-.6-.8-1.1-1.6-1.7-2.5-1.3-2.3-1.7-4.9-1.5-7.5v-.9c.1-.3.2-.6.3-.9s.2-.6.4-.9h0c.1-.2.3-.4.4-.6.4-.6.8-1.2,1.2-1.9h0c.8-.7,1.6-1.3,2.3-2,.8-.4,1.6-.8,2.4-1.2,3.2-.9,6.1-.2,8.9,1.7,2.3,1.7,5.1.4,5.5-2.4v-1.5c-.2-.4-.4-.9-.6-1.3-.4-.4-.7-1-1.2-1.1-2.8-.7-5.6-1.5-8.4-2-2.5-.4-4.6.4-5.7,3-.4.9-.9,1.6-1.4,2.4-2.2,3.6-4.9,6.8-8.8,8.6-4.8,2.2-9.7,1.6-14.3-.7-1.5-.7-2.9-1-4.5-.3-1,.4-2.2.6-3.3.7-3.1.2-5.9-.6-8.7-2-1.2-.6-2.6-.9-3.9-.7-5.1.6-10.2,1.4-15.3,2.1-7.4,1-14.7,1.3-22.1.6-6.4-.6-12.7-1.8-18.8-3.7-7.8-2.5-15.3-5.8-22.1-10.5-1.2-.8-2.5-1.4-3.8-2.1-.6-.4-1.3-.8-1.9-1.2-.6-.4-1.3-.9-1.9-1.3-.6-.6-1.2-1.2-1.9-1.8-.7-.8-1.5-1.6-2.2-2.5-2.7-3.1-5.5-6.1-8.2-9.2-1.2-2.1-2.5-4.2-3.7-6.3-.4-.7-.9-1.5-1.3-2.2v-.3c0-.1-.2-.2-.3-.4-.7-3.2-1.5-6.4-2.2-9.6-1.6-8.1-.5-15.9,2.7-23.5,3.4-7.8,8.4-14.3,14.6-20.1,1.8-1.7,3.6-3.3,5.4-5,.4-.3.9-.7,1.3-1,.6-.4,1.1-.8,1.7-1.3.4-.3.7-.5,1.1-.8-.6-.4-1.1-.5-1.6-.4-2.7.2-5.5.3-8.2.6-3.1.3-6.2.8-9.2,1.2s-2.3,1.1-2.3,2.8,0,2.6-2.4,2.5c-6.1-.3-12.2-.6-18.2-1-2.2-.1-4.5-.3-6.7-.6-.7,0-1.9-.4-2-.8-.3-1.1-1-1.1-1.8-1h-2.1c-.3-.6-.7-1.3-1.1-1.9.4-1.2,1.3-1.7,2.6-2,5.3-1.2,10.6-2.6,16-3.9,21-5.1,42.3-8.1,64-7.5,8.6.3,17.2,1.5,25.8,2.2,1.9.2,3.6.7,4.3,2.8,0,.1.3.1.5.3.8-2.6,2.9-2.8,5.2-2.9,3.9-.2,7.7-1,11.5-1.1,4-.1,7.9.2,11.9.4.5,0,.9.7,1.3,1.1v2.3c-.4.2-.7.5-1,.7.7.3,1.3.6,1.9.8-.2.4-.3.9-.6,1.2-1.5,1.6-3.1,3.2-4.5,4.9-3.8,4.6-7.6,9.3-11.4,14-2.9,3.6-5.7,7.3-8.5,10.9-1.2,1.5-2.3,3.1-3.4,4.6,0,0,.2.2.3.3.8-.7,1.7-1.5,2.5-2.2l.3-.6h0c.9-.6,1.9-1.2,2.8-1.8.5-.3,1-.6,1.6-.9.9-.5,1.8-1,2.8-1.6,2.7-1,5.4-2,8.1-2.9,1.2-.4,2.2,0,2.4,1.4-.1.8-.2,1.5-.3,2,.6.5,1.4.8,1.5,1.3,0,.5-.5,1.3-.9,1.7-.5.6-1.2,1-1.9,1.4-4.8,3.1-7.9,7.4-9.5,12.7-1.7,5.7-1.2,10.9,3.5,15.2.8.7,1.5,1,2.2,0,4.4-3.4,7-8,8.9-13,1.8-4.8,3.2-9.8,2.9-15.1,0-1.2-.3-2.5-.6-3.7-.4-2.2.3-3.2,2.6-3.2h21.2c1.8,0,3.5.5,4.4,2.4h.4c2.6-2.2,5.7-2.4,9-2.3,9.5.1,18.9,0,28.4,0s1.8.6,2.7.9v1.8c-.5.4-.9.9-1.5,1.4.7.1,1.3.1,1.7.3.9.3,1.3,0,1.3-.9.3-.5.7-.9,1-1.4,1-1.9,2.6-2.2,4.7-2.2,6.9.1,13.8,0,20.6,0s2.4.4,3.1,1.7c.3.5.5,1,.8,1.5,2.2,3.8,4.6,7.5,6.6,11.4,1.6,3.2,2.8,6.6,4.3,10v-6.4l.2.7ZM242.7,180.4h0c.1.1.2.2.3.3,2.7,2.3,4.6,5.2,5.5,8.7.3,1.1.6,2.3.9,3.4-.1,2.8-.3,5.7-.4,8.5-.3.9-.6,1.9-.9,2.8-.2.3-.3.6-.6,1-1-1.1-1.9-2.1-2.7-3.2-3.6-4.8-4.4-10.2-2.9-16,0-.1.5-.2.7-.3,0,1.2-.2,2.5-.3,3.7-.3,4.4.4,8.6,3.2,12.2.4.5,1.1.9,1.7.8.4,0,.8-.9.9-1.4,1.3-5.6.1-10.7-3.1-15.4-1.3-2-2.8-3.8-5.1-4.8-1.2-.7-2.4-1.4-3.6-2-.6-.3-1.2-.6-1.8-.8-2.9-.7-5.8-.7-8.6.4-3.7,1.4-6.6,3.6-8.6,7,.5-.2.8-.4,1.1-.8,1.6-2.1,3.6-3.7,6-4.8,3.6-1.6,7.3-1.6,11-.7.2,0,.3.1.5.2h.3c1.2.5,2.3,1,3.5,1.5,1.6,1.7,3.1,3.4,4.7,5,3,5,4.1,10.2,2.4,15.9-1-1.3-2.1-2.7-2.6-4.2-1.2-3.4-1.6-6.8-1-10.4.1-.6-.2-1.3-.4-2-.3-.4-.7-.9-1.1-1.5-3.5,7.8-.4,18.9,6.1,22.3.2-.6.4-1.1.7-1.7.3-1.1.6-2.2.8-3.2.7-2.8.9-5.6.3-8.5-.6-4-1.6-7.8-4.6-10.8-.2-.2,0-.6-.1-.9,1.4.5,1.4-.9,2-1.5.9-.9,1.8-1.9,2.8-2.7.7-.6,1.5-.8,2.2.1s1.6,1.8,2.4,2.6c.6,1.1,1.3,2.3,1.9,3.4-.4.3-1,.4-1.2.8-.9,1.7-1.6,3.4-2.5,5.1-1.9,5.9-1,11.6,1.2,17.5.9-1,1.5-1.8,2.1-2.5,1.8-1.9,3.6-3.9,4.3-6.5,1.6-3.3,1.3-11.6-.7-12.7,1.4,4.4,1.3,8.5,0,12.6-1.3,2-2.6,4-3.8,6-.5.5-1,.9-1.7,1.5-1.2-3.7-2.1-7.3-1.6-11,.2-1.6.5-3.3.8-4.9.7-1.5,1.5-3,2.2-4.5.2,0,.5.2.7.3-.1.6-.1,1.3-.3,1.9-.7,2.2-1.5,4.3-2.3,6.4-.1.3-.3.7-.3,1,.2,2.5.4,4.9.6,7.4,0,.4.5.9.7,1.3.4-.3.8-.5,1.2-.8.4-.4.8-.8,1.1-1.3,2.3-3.3,3.1-7,2.6-11-.5-2-1-3.9-1.6-5.9-1-1.6-2-3.2-3.1-4.8-.8-.9-1.7-1.7-2.5-2.6-.9-1.1-1.8-1-2.7-.3-1.1.9-2,2.1-3,3.1-.3.4-.5.8-.8,1.1-.8-.6-.8-1.4-.1-2.5,1.5-1.8,3-3.5,4.6-5.4,1.9,1.7,3.2,2.9,4.5,4,.1-.5,0-.9-.2-1.1-1-.9-2-1.8-3-2.8-.7-.7-1.2-.6-1.9,0-1.5,1.6-3.1,3.1-4.6,4.6s-1.7,1.9-1.1,3.3c-.6-.4-1.2-.8-1.9-1.1-.2-.2-.3-.4-.6-.5-4-2.6-8.5-3.5-13.2-3-5.6.6-10.2,3-13.2,8-2,3.1-2.8,6.5-2.1,10.1l.9,3.1c.7,2.5,2.2,4.2,4.8,4.7,2.8,1.1,5.1.7,6.8-1.4,1.5-1.8.6-3.6-.4-5.3-1.1-2-.4-4.3,1.4-4.6,1.5-.3,3.1-.2,4,1.1,1.2,1.7,2.1,3.6,3.2,5.6h1.8c0-4.6-2.7-8.6-6.1-9.3-3.2-.6-6.1.3-6.9,2.6,3.1-2.3,6.2-3.1,9.2-.6,1.9,1.5,3.1,5,2.5,7-.6-1.4-1-2.5-1.4-3.5-1.1-2.7-3.2-4.1-5.8-3.9-1.8.1-3.3,1.6-3.2,3.4.1,1.2.6,2.5,1.2,3.6.7,1.3.5,2.4-.5,3.4-1.7,1.8-3.8,1.8-5.9,1.2l-4.3-4.2c-.3-1-.5-2.1-.8-3.1,0-.2,0-.4-.1-.6h0v-.3c-.1-3.2.9-6,2.4-8.8,4.5-6.4,10.7-8.8,18.3-7.3,2.7.5,5.2,2,7.8,3.1h0c.1.1.2.2.3.3l.7.8ZM468,147.7h0c0-.2.1-.4.2-.6.2-1.7.4-3.4.6-5v-4.7c-.3-2.1-.6-4.2-.9-6.3,0-.2,0-.4-.1-.6h0c0-.1,0-.3-.1-.3-.2-.9-.4-1.9-.7-2.8-.9-2.2-1.8-4.4-2.8-6.6-.6-1.2-1.3-2.5-1.9-3.7-.4-.8-.8-1.6-1.3-2.3-.8-1-1.8-1.9-2.6-2.8-.1-.2-.3-.4-.4-.6-.1-.3-.2-.5-.3-.8,0,0,0-.1-.1-.2-.5-.7-1-1.4-1.4-2h0c-2.4-2.4-4.8-4.7-7.1-7.1-1-.8-2.1-1.7-3.1-2.5-3.7-2.6-7.4-5.2-11.4-8,1.4,0,2.5-.2,3.6-.2s.3-.1.5-.2h3.7c.7,0,1.5,0,2.2-.1h5.5c2.1,0,4.2.2,6.2.3h.2c.7,0,1.3.1,2,.2h1.2c2,.4,4,.7,6,1.1h.6c.3,0,.6.2,1,.3.7.5,1.4,1,2.1,1.4.6,1.9-1.1,2.3-2.5,3.4,4,.5,7.5,0,11-.3h.2c3.6-.3,7.1-.5,10.7-.8.5,0,.9-.2,1.4-.2s.5,0,.8.1c1.7-.1,3.4-.2,5.1-.3v-.2c-1.7-.4-3.4-.7-5.1-1.1-3.6-.9-7.2-1.8-10.8-2.6-1.3-.3-2.6-.6-3.9-.9-1.4-.3-2.7-.6-4.1-.9-1.3-.2-2.5-.4-3.8-.6-.6-.1-1.2-.3-1.8-.4-.5-.2-1-.4-1.6-.6-1.8-.3-3.6-.6-5.4-.8-.1,0-.3-.2-.4-.2-5.7-.8-11.4-1.6-17.1-2.4h-.9c-.1,0-.2-.1-.3-.2h-1.3c-1.8-.1-3.6-.2-5.3-.3h-2.6c-1.1,0-2.1,0-3.2-.1h-21.3c-.7,0-1.3.1-2,.2-2.1.2-4.2.4-6.3.6-3.1.4-6.2.9-9.2,1.3,0,.2-.1.3-.2.5.7.6,1.3,1.5,2.1,1.9,6.5,2.8,13.1,5.5,19.7,8.1.6.2,1.4,0,2,0,0,0,.1-.2.2-.2,0-.1,0-.2.1-.3,1-.6,2.1-1.3,3.1-1.9.6,0,1.2.2,1.8.3,6.3.9,12,3.1,17.4,6.4.5.3.8,1,1.2,1.5h-38c-2.4,0-4.9.2-6.8-1.6-.2-.2-.4-.2-.7-.3h-17.3v.4c.8,1,1.5,2.1,2.3,3.1,2.7,3.4,5.4,6.8,8,10.2,3.3,4.4,6.5,8.9,9.8,13.3.8,1.2,1.5,2.4,2.3,3.6v.5c1.7,3.8,3.4,7.5,5.2,11.3.4,2.5.8,5,1.2,7.5-.1,1.5-.2,2.9-.4,4.4v.6c0,.4-.2.8-.3,1.2-.9,2.6-1.8,5.2-2.7,7.8-.7,1.3-1.4,2.6-2.2,3.9.2,0,.3.2.5.3,4.8-2.5,8.6-6.2,11.7-10.7,1-1.9,2-3.9,3-5.8.3-.5.6-.9.9-1.4.4.3.8.5,1.2.9.5.5.9,1,1.3,1.5,1.7,1.8,3.3,3.6,5,5.4,1.4,1.4,2.9,2.8,4.3,4.3,1.1,1.2,2.1,1.3,3.4.4.7-.4,1.4-.9,2.2-1.3,1.2-.8,2.5-1.5,3.7-2.3.3-.2.7-.3,1-.5.9-.6,1.7-1.2,2.6-1.8.4-.4.8-.7,1.2-1.1l2-1.1c-1.9,4.2-4.4,7.8-7.7,10.9-1,.9-2.1,1.8-3.1,2.7-.6.5-1.3,1.1-1.9,1.6-1.3.8-2.5,1.7-3.8,2.5-.8.4-1.5.9-2.3,1.2-3.3,1.4-6.6,2.7-9.9,4.1-.5.1-1,.3-1.6.4-3,.7-6,1.4-9,2h-.9c-.1,0-.2.2-.4.3-.2.1-.4.2-.6.4-1.4,0-2.7-.2-4.1-.3h-1c-1.7.2-3.4.3-5.1.5l-2.1-.2h-6.6c-.9,0-1.8.2-2.7.1-1.3,0-2.6-.3-3.9-.4-4.5-.6-9-1.3-13.5-1.9-.2,0-.3-.1-.5-.2h-1.4c-.5-.2-1-.3-1.6-.5-3.2-1.1-6.5-2.1-9.7-3.2-.7-.3-1.5-.5-2.2-.8-.9-.2-1.7-.4-2.6-.7-2.7-.7-5.4-1.4-8.1-2.1-3-.6-6.1-1.3-9.1-1.9-3.6-.2-7.1-.4-10.7-.6-.6,0-1.3,0-1.9.1h-1.3c-1.5.3-2.9.6-4.4.9-.4.2-.8.4-1.3.6-3.7,1-6.7,3-9.4,5.8-3.6,3.7-5.4,8.1-4.9,13.2.2,1.9,1.1,3.7,1.7,5.5,1,1.4,2,2.7,3.1,4.1.7.6,1.5,1.2,2.2,1.9,1.1.6,2.1,1.3,3.2,1.9,1.8.6,3.6,1.2,5.4,1.8,1.8.1,3.6.3,5.4.4.5,0,1,0,1.5.1,2.2.2,4.3-.2,5.9-1.9.5-.6,1.1-1.2,1.6-1.8,1.9-1.6,2-3.8,1.7-6-.1-.7-.3-1.5-.4-2.2-1.3-3.6-4.2-5.8-7.6-5.6-2.2.2-4.2,1.1-5.9,2.5-2.1-.3-4.1-.7-6.2-1-1.5-2.1-1.2-4.5-1-6.9.1-.3.2-.6.4-.9.1-.2.3-.4.4-.7h.2c.3-.3.7-.6,1-.8.2-.1.4-.3.5-.4,2.2-.8,4.4-1.9,6.8-2.5,2.5-.6,5.1-.7,7.7-1,2.8.4,3.4.8,3.7,2.6.1.2.3.4.4.6h0c1.3,2.1,2.7,4.2,4,6.3,1,.9,2.1,1.9,3.1,2.8,4.5,3.8,9.5,3.6,14.7,1.8.7-.3,1.5-.7,2.2-1,0-.2,0-.3-.1-.5h-2.1c-2.6-1.1-5.2-2.2-7.8-3.2-.8-.5-1.6-1-2.4-1.5-.3-.7-.6-1.4-1-2.1-.2-.3-.4-.6-.6-.9-.3-.5-.6-1-.9-1.5-.1-.3-.2-.6-.4-.9v-.8h1c.6.1,1.2.2,1.8.3.7.2,1.5.4,2.2.6.5.2,1.1.4,1.6.5.7.2,1.4.4,2.1.6.8.5,1.7.9,2.5,1.4,1.9,3.1,3.9,6.1,7.6,7.4,4.3,1.7,11.5,1,12.7-1.4-3.3,0-6.4-.7-9.1-2.7.5,0,1-.2,1.5-.3.4,0,.8.1,1.2.2,1.7.5,3.4,1,5.1,1.5,1.6.3,3.1.6,4.7.8,1.8.4,3.6,1,5.4,1.2,3.3.4,6.6.7,9.9,1,1.7.2,3.4.4,5,.5h2.2c1.2.1,2.4.4,3.6.4h9.2c1.7-.1,3.5-.2,5.2-.4,9.4-1.1,18.3-3.7,26.9-7.7l2.2-1c2.4-1.4,4.8-2.8,7.2-4.2.8-.6,1.6-1.2,2.4-1.9.7-.6,1.5-1.2,2.2-1.8.3-.2.6-.4,1-.6.6-.5,1.3-1,1.9-1.6,1.3-1.2,2.5-2.5,3.8-3.7.5-.6,1.1-1.3,1.6-1.9,2-2.3,4-4.6,5.9-6.9,1.4-2.8,2.7-5.7,4.1-8.5v-.3c0-.2.1-.5.2-.7.1-.4.2-.8.4-1.2v-.4l.2.5ZM256.8,211.2l-.5.5c-.8.7-1.7,1.4-2.5,2.2-3.5,2.7-2.6,2.5-5.1.5,0,0-.2,0-.3-.2-.6.4-1.2.8-1.9,1.3.5.4.8.6,1.1.9,1.2,1.1,2.3,2.1,3.6,3.3.8-.7,1.5-1.4,2.1-2,.7-.6,1.3-1.2,2-1.8.3-.3.7-.7,1-1,0,0,.1,0,.2-.2.9-.7,1.8-1.4,2.7-2.1,1.8-1.3,1.8-1.5.4-3.6-.4.4-.9.7-1.3,1-.2.2-.5.4-.7.6s-.5.3-.7.5h-.1ZM220.2,171.3c-.3-.2-.6-.4-.9-.6-1.4-.9-2.7-1.9-4.1-2.8h0c-.2-.2-.4-.4-.6-.6-.5-.5-1.1-1-1.6-1.6-.4-.4-.8-.9-1.2-1.3-.7-1.1-1.6-.6-2.3,0-2.6,2.4-5.5,4.4-8.9,5.6-.3.1-.5.5-.7.7.3.2.5.4.8.6s.7.4,1,.6c.3.1.6.3.9.4,1.1,1,2.3,2.1,3.4,3.1,1.4,2.1,2.8,4.3,4.2,6.4.7,2.6,1.4,5.1,2.2,8.2.4-1.3.6-2.2.8-3.1.3-.7.5-1.3.8-2h0c2.2-3.8,5.3-6.4,9.1-8.4.3-.1.6-.2.9-.3,1.1-.3,2.3-.6,3.4-.9l1-.2c1.9,0,3.7.1,5.6.2,1.6.4,3.2.9,4.8,1.3,1.5.7,2.9,1.5,4.4,2.2l-.5-.6c2.3-2,4.7-4,7-6,1-.9,1.8-1,2.8,0,2.2,2.1,4.5,4.2,6.9,6.5,4.3-2.3,9-3.8,14.1-3.6,1,.2,1.9.5,2.9.7,1.3.5,2.7,1,4,1.5.6.4,1.3.8,1.9,1.2,1.3,1.2,2.5,2.3,3.8,3.5,1.2,2,2.5,4.1,3.9,6.4.2-1.2.4-2.1.5-3v-.6c1-2.1,1.9-4.1,2.9-6.2l.9-1.3,1-2.3c-.2-.1-.3-.2-.5-.3-.4.2-.8.3-1.3.5l-1.2-.2c-1.4-.9-.9-2.1-.7-3.4.8-3.9.8-7.8-.7-11.6-.6-1.5-1.2-2.9-1.9-4.4-.9-1.4-1.9-2.9-2.8-4.3-.3-.3-.6-.6-1-.9h0c-3-3.5-6.8-6.1-10.8-8.3-1.3-.8-2.9.5-3,2.2v4.2c.2,3.4.2,6.8.7,10.1.5,3,2,5.6,4.4,7.7.6.5,1.1,1.1,1.7,1.6l3.7,3.7v.7c-.1.2-.2.3-.3.5.2.6.3,1.1.5,1.9-.7,0-1.4.2-2,0-3.3-1.3-6.6-2.7-9.9-4.1-4-1.7-8-3.4-12-5.1-.4-.2-.8-.4-1.3-.6-.2-.1-.4-.2-.6-.3-.3-.1-.6-.2-.9-.4-.3-.3-.6-.6-.9-.9,0-.8,0-1.6-.1-2.4.2-1.4.3-2.9.5-4.3-.5.1-.6.3-.6.4-3,7.2-8.2,12.4-14.8,16.4-1.9,1.1-2.5.7-2.6-1.6-.6.2-1.1.4-1.6.7h-.9c-1.8-1.1-1.9-1.9-.6-3.7,5.2-7,6.4-14.9,4.7-23.3-.2-.8-.3-1.6-.6-2.4-1.3-2.7-2.7-5.4-4-8.1-.4-.8-.9-1.6-1.4-2.4,0-.2-.2-.4-.3-.6-.1-.2-.2-.4-.3-.6-.1-.2-.2-.4-.3-.7-.9-1.2-1.8-1.1-2.7.4-1.9,3.4-3.7,6.9-5.5,10.3-2.7,5.1-4,10.5-3.7,16.2.1,3.3.9,6.5,2.8,9.2.7,1.3,1.5,2.7,2.2,4,0,.4.2.9.3,1.3v1.6c-.6,0-1.2,0-1.7-.1-.9-.3-1.7-.8-2.5-1.2h0c-.3-.2-.6-.4-.9-.6h0l.3-.5ZM267.3,178.2c-.4.1-.9.3-1.3.4-1.3.6-2.6,1.2-3.9,1.8-.4.2-.9,0-1.3,0,.4-.5.6-1.3,1.1-1.5,4.4-1.9,8.9-3,13.7-1.7,5.2,1.4,9.2,4.2,11.5,9.2.3,1,.6,2,.9,3,1.3,5.4-.9,10.1-5.5,12.3h-.8c-2,.8-3.4-.2-4.7-1.6-1.2-1.3-.6-2.7,0-4.1.2-.4.5-.8.6-1.3,0-.9.3-2,0-2.8-.9-2.2-3.3-2.8-5.6-1.6-2.6,1.3-3.7,3.6-4.2,6.3-.1,1.8-.2,3.6-.4,5.3-.2.4-.3.9-.5,1.3-.1,0-.2-.1-.3-.2v-4.3c.3-1.7.5-3.4.8-5,1.1-1.3,2.1-2.7,3.2-4,2-.4,4.1-.8,6-1.2-2-1-4-.3-6,.5-2.1.9-2.9,2.9-3.7,4.8-.3,1.7-.6,3.4-.9,5v3.5c.3,1.6,0,2.8-1.9,3.4-1.5.6-1.4,1.3,0,2.9.4-.3.8-.8,1.3-.8,1,0,2.3-.3,3.1.1,1.1.6.6,1.7,0,2.6-.4.7-.5,1.5-.8,2.2l.4.2c.2-.2.5-.4.6-.7.3-.6.3-1.3.7-1.9.7-1,.6-2,0-2.9-.7-1-1.7-1.4-2.9-1.1-.8.2-1.6.6-2.4.9.2-1.3,1.7-2.2,3.3-1.9.9.2,1.8.6,2.4,1.2s1,1.5,1.1,2.3c0,.8-.3,1.7-.5,2.6h.6c.2-1,.7-2.1.6-3.2-.2-2.2-1.9-3.2-3.4-3.7v-3.4c.2-1.5.3-3,.5-4.4.5-2.5,1.4-4.7,3.8-5.9,1.4-.7,3.3-.5,4,.6.9,1.2,1,2.4,0,3.9-1.8,2.8-1.1,5,1.8,6.6,1.4.8,2.8.5,4.2.2.7-.3,1.5-.5,2.2-.9,5-3,4.9-11.2,3.1-15.1-.8-1.4-1.5-2.9-2.6-4.1-4.3-5-9.9-7.1-16.4-6.2-2.7.4-5.4,1.6-8,2.5-.8.3-1.6,1-.7,2.1.2.5.4.9.6,1.4,1.8-1,3.6-2,5.3-2.9.3,0,.6,0,.9-.1.5-.2,1-.4,1.6-.7,1.7.1,3.5.1,5.2.4,3.9.6,7,2.7,9.5,5.7.8,1.5,1.8,2.9,2.4,4.5,1.5,3.7.8,9.4-3.7,10.9h-3.2c-.8-1-.8-2-.3-3.1.3-.7.6-1.5,1-2.2,1-2.6-.1-5.1-2.8-5.2,2,1.2,2.9,2.7,2.4,4.8-.5,1-1.1,1.9-1.5,2.9-.6,1.4,0,2.7,1.3,3.5h3.5c2-.7,3.4-2,4.1-4,1.7-4.8.2-8.9-2.9-12.6-3.9-4.8-8.8-7-15-5.8-.4,0-.8.2-1.3.3h0ZM123.5,141.5h0c-.2-.5-.4-.9-.6-1.3-.3-1.2-.6-2.3-1-3.5.2-2.2.4-4.4.6-6.6.5-1.7,1.1-3.3,1.6-5,1.1-1.3,1.6-3,2.7-4.3,2.5-3,5.4-5.2,8.6-7.2.1,0,.2-.2.3-.3-.2,0-.3,0-.5.1-2.9,1.2-5.9,2.3-8.7,3.7-1.5.7-2.7,2-4.1,3-1.4.9-2.7,1.9-4.1,2.8l-1.2.9c-.6.8-1.3,1.7-1.9,2.5-.9,1.5-1.7,2.9-2.6,4.4h0c0,.1-.2.2-.3.3-.4.9-.8,1.9-1.2,2.8,0,.5-.3,1-.4,1.5-1,3-1.2,6.1-.7,9.2.3,1.3.7,2.7,1,4,0,.3.2.7.2,1,.3,1,.6,2,1,3.1l.3.6c0,.3.2.6.3,1,.4.9.9,1.8,1.3,2.7.4.6.9,1.3,1.3,1.9,1.3,1.7,2.7,3.4,4,5.1h0c0,0,.2.2.3.4.3.3.6.5,1,.8.9.7,1.8,1.5,2.9,2.4.3-1.4.6-2.5.9-3.7.4-2,1.7-3.2,3.5-4.1,1.9-1,3.6-2.2,5.4-3.3.6-.4,1.2-.8,1.8-1.2,0,0,.2-.2.3-.2s.2-.2.3-.2c.7-.6,1.5-1.2,2.2-1.8,1.4-1.4,2.9-2.7,4.3-4.1.7-.8,1.5-1.6,2.2-2.4.7-.9,1.4-1.8,2.2-2.7.7-1,1.4-2.1,2.2-3.1.8-1.2,1.5-2.5,2.3-3.7,1.1-2.3,2.3-4.6,3.4-6.8.9-1.6,1.9-3.3,2.8-4.9.3-.4.6-.7.9-1.1,0-.1.2-.2.3-.3l1.6-1.5c.5-.5,1.1-1,1.6-1.6.5-.5,1-1,1.6-1.5,2-1.3,4-2.6,6-3.9v-.5c-.8-.2-1.7-.5-2.5-.7h-13.2c-1.7,0-3.3.1-5,.1h-3.4c.2,1.6.3,3,.4,4.4,0,.4.1.8.2,1.2-.1,1.8-.3,3.5-.4,5.3-1.5,4.6-2.9,9.2-4.4,13.8-.5.9-1.1,1.9-1.6,2.8-.5.7-1,1.4-1.5,2.2-1.2,1.4-2.5,2.7-3.7,4.1l-.8.7c-.1,0-.2.2-.4.3-2.2,1.4-2.9,1.4-4.7-.7-1.5-1.7-2.8-3.5-4.1-5.3-.2-.3-.4-.7-.6-1,0-.1,0-.2,0-.3,0,0,0-.2-.2-.3h0ZM99.1,109.6c.2-.3.5-.6.7-.9.3-.4.6-.9.9-1.3.3-.5.6-1,.9-1.4h0l.3-.3c.4,0,.7-.2,1.1-.3-.2-.2-.4-.5-.6-.7-.4,0-.8.1-1.1.3-2.5,1.3-5.1,2.5-7.6,3.9-1,.5-1.8,1.2-2.7,1.8h-.2c-2,.7-4,1.3-5.9,2.2-2.6,1.2-5.2,2.6-7.8,3.9-.9.5-1.6,1.1-2.4,1.7h-.2c-1.5.6-2.9,1.2-4.4,1.6-.6.2-1.2,0-1.8.1v-1.7c-.4.2-.7.4-1,.6-.3.1-.6.2-.9.4h-1.2c-1.9-1.6-1.9-2.7,0-4.4.3-.3.6-.6.9-.9.2-.2.4-.4.6-.6.3-.3.6-.7,1-1,0,0,.2-.2.4-.3.5-.4,1-.9,1.5-1.3-.3-.2-.6-.6-.9-.6-2.6,0-5.3.1-7.9.3-.8,0-1.5.6-2.2,1-1.6,1.1-2,3.1-2.8,4.7-1.7,3.8-2.3,7.8-1.9,11.9,0,1.2.8,2.4,1.2,3.6.8,1.4,1.7,2.7,2.5,4.1.7.8,1.5,1.6,2.2,2.4.7.5,1.4,1.1,2.2,1.6.7.3,1.5.7,2.2,1,1.6.4,3.2,1.2,4.8,1.3,6.2.2,12-1.5,17.2-4.9.4-.3.7-.9.8-1.4,1.6-5.9,3.6-11.5,6.9-16.7,1.9-3,3.7-6,5.6-9v-.2l.3-.6h-.6ZM160.9,136.1v-3.1c0-.5.2-1,.3-1.5.1-.7.3-1.3.4-2l.6-2.1c-.2,0-.3-.1-.5-.2-1.4,2.3-2.9,4.5-4.2,6.8-1.1,2.1-1.8,4.4-2.9,6.5-2.5,4.9-5.8,9.4-9.9,13.2-3.4,3.1-7.2,5.8-11.1,8.4-2.9,2-5.9,3.6-6.2,7.7,0,1.1-1.3,1.3-2.3.7-.4-.3-.9-.3-1.3-.5h-.9c0-.1-.2-.2-.4-.3-.5-.4-1-.9-1.5-1.3-.5-.5-1.1-.9-1.6-1.4-.4-.4-.8-.7-1.2-1.1-1.8-2.4-3.5-4.9-5.3-7.3h0c0-.2-.2-.4-.3-.6-.5-.9-1-1.9-1.5-2.8-1.5-4.6-3.2-9.1-2.9-14.1l.2-3,.7-4c-.2,0-.4-.1-.7-.2-1.5,3.3-3.2,6.6-4.5,10-2.8,7.4-2.6,14.7,1.2,21.8.7,1.3,1,2.8,1.4,4.3,0,.4,0,.9,0,1.4-.6-.1-1.3,0-1.8-.4-1.9-1-3.8-2.1-5.6-3.2-.2-.2-.5-.4-.7-.6-2.8-3-5.6-6.1-8.4-9.1-.8-1.5-1.1-1.6-2.2-.5-2.8,2.8-5.5,5.7-8.2,8.5-1.2,1.2-2.6,1.8-4.2,1-.8-.4-1.6-.8-2.3-1.1-.4-.3-.8-.7-1.2-.8-.3,0-.8.2-1.2.4.2.4.4.7.6,1.1,1.3.9,2.5,1.9,3.8,2.8.9.6,1.8,1.1,2.7,1.7l2.9,1.5c6,3.5,12.5,5.3,19.3,6.2,13.5,1.7,27,1.7,40.4-1.3,1.6-.4,3.3-.4,4.7-1,10-3.8,20.4-6.1,30.7-8.6h.9c.7,0,1.4-.2,2.4-.3-2.2-1.8-4.2-3.2-6-4.8-1.8-1.6-3.4-3.4-5.1-5.2-1.4-2.3-2.8-4.6-4.2-6.9-.4-.8-.9-1.6-1.1-2.5-.6-2.8-1.1-5.6-1.6-8.4v-3.8ZM331,149.3c0-.5.2-1,.2-1.6v-5.9c-.2-2-.4-4-.6-6-.5-1.6-.9-3.1-1.4-4.7-.2-.4-.4-.8-.6-1.3-.2-.6-.4-1.2-.6-1.9l-3-6c-.3-.6-.6-1.3-.9-1.9-.4-.7-.9-1.4-1.3-2.1-.7-1.2-1.4-2.3-2.2-3.5-.3-1-1-1.3-2-1h-17.1c1.5,2,2.9,3.8,4.3,5.6.6.8,1.2,1.7,1.8,2.5l2.5,3.4c.9,1.4,1.8,2.7,2.7,4.1.9,1.8,1.8,3.5,2.7,5.3,1.3,3.3,2.7,6.5,4,9.8v.3c0,.6.2,1.3.3,1.9,0,1.5.1,2.9,0,4.4-.2,2.5-.4,5-.6,7.5-.1.4-.2.8-.3,1.3-.3.8-.6,1.7-.8,2.5-.3.9-.6,1.8-.9,2.8-1.5.6-1.9,1.9-2.1,3.2l.4.4c1.5-1.2,2.9-2.3,4.4-3.5.5-.4,1-.9,1.5-1.3,2.1-2.3,4.1-4.5,6.2-6.8.2-.2.2-.6.3-.9.3-.5.6-.9.8-1.4.6-1.7,1.3-3.3,1.9-5,0-.1,0-.3.1-.4l.3.2ZM190.1,205.4h.6c3.9,0,7.4-1.3,10.7-3.3,2.7-1.7,4.8-3.9,6.2-6.7,1.4-3,2.1-6.1,1.6-9.4-.2-.8-.3-1.5-.5-2.3-.2-.5-.4-1-.6-1.6-.4-.8-.9-1.7-1.3-2.5-1.3-1.5-2.5-3-3.8-4.5-1.9-1.3-3.5-3-5.9-3.3-1-.5-2.1-1-3.1-1.5-1.3-.2-2.6-.4-3.9-.6-.3-.1-.6-.2-.9-.4-1.8,0-3.6-.2-5.3-.3-.6,0-1.1.2-1.7.2-2.4.1-4.7.2-7.1.4-1.1,0-2.2.5-3.3.8-1,.2-2.1.5-3.1.7h-.3l-2.9.6c-1.6.4-3.1.8-4.7,1.2-.8.2-1.6.5-2.5.7-1,.3-2.1.7-3.1,1-.2,0-.3.2-.5.2h0c-1.6.5-3.2,1-4.7,1.5-.8.2-1.7.5-2.5.7-.1,0-.3,0-.4.1h0c-.8.3-1.6.6-2.4.9-2.1.4-4.2.8-6.3,1.2-.8.2-1.7.3-2.5.5-.5.1-1.1.3-1.6.4-2.2.2-4.4.4-6.6.6-4.2.1-8.4.2-12.6.4-1.6,0-3.1,0-4.7-.1-2.3-.1-4.6-.2-6.9-.3h-.6c-2.2-.4-4.4-.7-6.6-1.1-4.1-1.2-8.1-2.3-12.2-3.5-1.1-.4-2.1-.8-3.2-1.2l-1.2-.9c-.7-.4-1.5-.7-2.2-1.1-1.8-1.2-3.5-2.3-5.3-3.5-.6-.5-1.3-1-1.9-1.5-.2-.1-.4-.2-.5-.3-1.7-1.7-3.3-3.4-5-5.1-.7-1-1.4-2-2-3-.2-.3-.5-.6-.7-.8-.7-1.2-1.4-2.4-2.1-3.6,0-.1.3-.3.4-.4.4.3.9.5,1.3.8.4.3.8.6,1.1,1,3.5,2.2,6.9,4.3,10.4,6.5.2,0,.6-.2.7,0,1,.9,1.8.3,2.6-.4,2-2,3.9-4,5.9-6s1-1.1,1.5-1.6c.4-.5.8-1.1,1.2-1.6.4-.4.8-.8,1.2-1.1.8-.7,1.6-1.5,2.3-2.2l3.6,7.2c.7.9,1.4,1.9,2.1,2.8,0,0,.2.2.2.3s.2.2.2.3c2.5,2.4,5,4.7,7.4,7,1.4-.8,1.1-1.6.7-2.5-1-2.2-1.9-4.4-2.8-6.7-.2-.7-.4-1.5-.6-2.2v-11.9l.9-2.8c.6-1.6,1.3-3.1,1.9-4.7.7-1.5,1.4-3,2.1-4.5.4-.7.8-1.4,1.2-2.1.5-1,1.1-2,1.6-2.9l3.5-5c.4-.6.9-1.3,1.3-1.9,1.9-2.5,3.8-5,5.6-7.5.4-.4.8-.7,1.1-1.2.7-1,1.4-2.1,2-3.2.9-1.3,1.9-2.5,2.8-3.8.7-.8,1.5-1.6,2.1-2.4.9-1.3,1.7-2.6,2.6-3.9.3,0,.7,0,.9-.2,1.8-2.1,3.6-4.3,5.4-6.4,2.6-3.2,4.8-6.8,8.4-9.2,0-.2-.1-.3-.2-.5h-7c-2.5.1-5,.2-7.5.3h-.7c-2.2.2-4.4.4-6.5.6h-2.5c-1.2,0-1.8.6-1.9,1.8v1.9c-.8,1.5-1.6,3-2.5,4.5,0,0,0,0,0,.2-3.3,5-6.6,9.9-9.9,14.9l-2.3,3.5c-.8,1.1-1.6,2.2-2.5,3.3-.2.3-.5.6-.7.9l-2.5,4.1-1.9,3.1c-.8,1.7-1.7,3.4-2.5,5.1-.3.6-.6,1.3-.9,1.9-.7,2.3-1.5,4.6-2.2,6.9-.6,1.4-.3,3.4-2.1,4.2-2.1,1-4.2,2.1-6.3,3.1-.8.2-1.7.5-2.5.7,0,0-.2,0-.4.1-.5,0-1.1.2-1.6.3-2.4.3-4.8.6-7.1.8h-1.6c-1.5-.4-2.9-.9-4.4-1.3-1.4-.7-2.7-1.4-4.1-2.2l-2.7-2.3h0c0-.2-.3-.4-.4-.6-.5-.7-.9-1.4-1.4-2.1-2-3.7-3.7-7.4-4-11.7-.2-.5-.6-1-.6-1.4.2-1.5.6-3,1-4.4.9-1.7,0-3.8,1.3-5.4,1-1.3,1.8-2.7,2.6-4,.7-1.1,1.7-1.7,3.1-1.6h2.6c2.5,0,5-.2,7.4-.3h2.2c1.9.1,3.7.2,5.6.4-.2.4-.4.9-.7,1.2-.6.7-1.2,1.2-1.8,1.9-1.8,1.5-3.5,3-5.3,4.5-.9.8-1.7,1.6-2.6,2.3l.3.4c.5-.2,1.1-.5,1.6-.7,2.7-1.3,5.5-2.6,8.2-3.9,1.9-.9,3.7-1.8,5.6-2.6,1.3-.6,2.6-1.3,3.8-1.9,1.5-.7,2.9-1.4,4.4-2,.4-.2.8-.4,1.2-.6.6-.3,1.1-.5,1.7-.8,2.1-1,4.1-2,6.2-3l3.1-1.4c0-.1,0-.2-.2-.3h-4.5c-2.3.2-4.6.4-6.9.6-.2-.2-.4-.5-.6-.5-5.2,0-10.5.2-15.7.3h-12c.4-.6.9-1.2,1.3-1.9.5-.4,1.1-.9,1.6-1.3,1.9-.9,3.8-1.9,5.6-2.8,1.5-.6,2.9-1.3,4.4-1.9,2.4-.5,4.8-1,7.1-1.5,2.4-.5,3.8.1,5,2.1.7.1,1.6.6,2.2.3,2.2-.8,4.2-1.9,6.3-2.9,5.6-2.4,11.5-4.2,17-6.8,0-.2,0-.4,0-.5l-3.5-.7c-1.7-.2-3.3-.4-5-.7-.8-.1-1.7-.2-2.5-.4h-.3c-.8,0-1.7-.1-2.5-.2-.5,0-1-.1-1.4-.2-1.7-.1-3.3-.3-5-.3-3.2-.1-6.4-.3-9.6-.4h-1.6c-2.5,0-5,.1-7.5.2h-5.9c-.3,0-.6.5-1,.8-1.6-1.3-3.3-.5-5-.3-2.4.3-4.8.6-7.3.9-1.2.2-2.4.4-3.7.6-.5.1-.9.3-1.4.3h-2.4c-2.8.4-5.7.8-8.5,1.4-6.8,1.5-13.7,3-20.5,4.6-3.9.9-7.7,1.8-11.6,2.7v.7c4,.2,7.9.5,11.9.7,2.2.2,4.4.4,6.6.5h3.5c1.4.7,4.4.5,5.2-.3-.3-.1-.6-.1-.7-.3-.5-.6-1.3-1.3-1.3-1.9s.8-1.3,1.4-1.6c1.3-.5,2.7-.9,4-1.1,2-.4,4.1-.6,6.2-.9h1.2c.8-.1,1.5-.2,2.3-.3.5,0,1,0,1.5-.1,2.5-.1,5.1-.3,7.6-.4,1.2,0,2.5.2,3.7.2s2.5.1,3.8.2c.9.2,1.8.3,2.8.5-.6.5-1,.9-1.5,1.3-1.1.6-2.3,1.3-3.4,2-.3.2-.4.8-.5,1.2-.4,0-1-.1-1.3,0-1.1.6-2.1,1.3-3.1,2.1-1.2,1-2.3,2.1-3.5,3.2-1.7,1.5-3.3,2.9-5,4.4-1,1.2-2.1,2.3-3.1,3.5-.8.8-1.6,1.7-2.5,2.5,0,.3-.3.6-.4.8-.4.7-.8,1.4-1.2,2.2-.6.8-1.2,1.6-1.8,2.4h0c0,.2-.2.4-.3.5,0,0,0,.1,0,.2l-1.5,2.6-1,2.2c-1.9,3.4-2.9,7.1-3.4,11,0,2.8-.2,5.6-.3,8.4.7,3.5,1.5,7.1,2.2,10.6,1,2,2,4,2.9,6,.2.6.5,1.3.7,1.9,1.5,2,2.9,4,4.4,6l3.9,4.3c1.4,1.3,2.7,2.7,4.1,4,1.9,1.4,3.7,2.8,5.6,4.2,1,.6,1.9,1.2,2.9,1.8,1.2.8,2.5,1.6,3.7,2.3.5.2,1,.4,1.5.7,1.3.7,2.6,1.3,3.9,2,.4.1.8.3,1.2.4,3,1.2,6,2.3,9,3.5.6.2,1.3.5,1.9.6,3,.7,6.1,1.4,9.1,2,1.4.2,2.7.5,4.1.7,1.4.1,2.9.3,4.3.4h.4c.6,0,1.3,0,1.9.1,4.2-.1,8.4-.2,12.6-.3h1.9c.2,0,.4-.1.6-.2.9,0,1.8-.1,2.6-.2,2.8-.3,5.5-.5,8.3-.8,3.4-.6,6.7-1.2,10.1-1.9,1.8-.4,3.6-.8,5.4-1.2h0c.3-.1.6-.2.9-.3,1.4-.4,2.9-.8,4.3-1.3.2.2.3.4.5.5-.5.3-.9.8-1.4.9-2.6.8-5.1,1.6-7.6,2.4,3.9,2.1,8.1,3.4,12.6.8.9-.6,1.9-1.3,2.8-1.9.8-.8,1.6-1.6,2.4-2.4,1.5-1.6,2.3-3.9,4.8-4.4.9-.3,1.9-.5,2.8-.8,1.9-.4,3.8-.9,5.7-1.3,0,.1.2.2.3.3-.8,1.5-1.6,3-2.5,4.6-.4.5-.9,1-1.3,1.5-.7.6-1.5,1.2-2.2,1.9-.7.4-1.5.8-2.2,1.3-1.5.5-3,.9-4.5,1.5-.5.2-1,.6-1.4.9.5.3,1,.6,1.5.9,2.1.3,4.2.6,6.3.9,1.3-.2,2.5-.4,3.8-.6,1.1-.6,2.2-1.3,3.3-1.9.7-.6,1.4-1.1,2.1-1.7,1-1.1,2-2.3,3-3.4,1-1.7,1.9-3.3,2.9-5,.1-.2.2-.4.4-.6.5-1.6,1.4-2.2,3.2-2,2.6.3,5.1.3,7.7.5.6.2,1.3.4,1.9.6l6,3c.6.8,1.2,1.5,1.8,2.3v4.6c-1.6,3.3-5.7,4.3-8.7,2.2l-3.4-1.3c-.7,0-1.5-.1-2.2-.2-3.9.1-7.3,4.6-6.9,8.1,0,.8.1,1.7.2,2.5.2.5.4,1.1.5,1.6h0c1.5,3.8,6,6,10.2,5h1.6l.7.3ZM240.6,223h0c1.4,1.4,2.8,2.9,4.2,4.3,2.1,1.6,4.3,3.2,6.4,4.9,1.1-.8,2.1-1.6,3.1-2.3,0-.2-.2-.3-.3-.5-.5.3-1.1.4-1.4.8-1,1-2,.9-3,0-1.4-1.1-2.8-2.1-4.2-3.2-1.4-1.4-2.8-2.8-4.3-4.1-.8-1.2-1.4-2.6-2.6-3.6-.1.1-.3.2-.4.3.7,1,1.4,2,2.2,3,.1.1.2.2.3.3h0ZM104.1,102.3c.4-.5.9-1,1.3-1.5,2.1-3.2,4.3-6.3,6.4-9.5.3-.6.7-1.3,1.2-2.2-.5,0-.8,0-.9.2-6.4,2.6-12.7,5.3-19.1,7.8-1.2.5-3.1.6-4.1,0-2.2-1.3-4.2-2.1-6.8-1.4-2.7.8-5.4,1.5-8.1,2.3,0,.2,0,.3,0,.5h5c2.8,0,5.6,0,8.4-.1h6.9c.2,0,.5-.1.7-.2,1.9,0,3.8.1,5.7,0,1.5,0,2.3.6,2.5,2.1-.2.4-.3.9-.5,1.3,0,.3-.2.7-.3,1,.6-.1,1.1-.3,1.7-.4h0ZM248.2,207.9c-.3-.3-.8-.9-.9-.8-.8.4-1.6.9-2.3,1.5-.1,0,.3.8.5,1.2.4,0,1,0,1.3-.2.5-.5.9-1.1,1.4-1.7ZM243.5,216.5c1.1-.9,2.3-1.7,3.4-2.6,1.4-1,2.7-2,4.1-2.9.4.2.7.3,1.1.6,1.6,1.1,1.8,1.1,3.3-1-1.4-1-2.9-1.9-4.3-2.9-2.1,1.6-4.2,3.3-6.3,4.9h-.6c.3-.6.6-1.1.9-1.8-1.5-1.2-3.1-2.4-4.7-3.6-.9-.8-1.7-1.5-2.6-2.3-.2,0-.3.2-.5.3.2,1,.5,2.1.7,3.1,1,.8,1.9,1.7,2.9,2.5,1,.7,2.1,1.2,3.1,1.8-1.3,1.2-2.5,2.3-3.8,3.5-.9,1.1.3,1.5.7,2.3.9-.7,1.7-1.3,2.5-2h.1ZM165.3,148.9h0c1.2,2.1,2.5,4.3,3.7,6.4.9,1,1.7,2,2.6,3,.6.6,1.3,1.3,1.9,1.9,1.9,1.3,3.8,2.7,5.6,4,3.2,1.6,6.5,2.5,10.1,2.8.2,0,.5.3.7.3,6.7.2,12.6-1.8,17.4-7.2-1.9.5-3.4,1-4.9,1.4-3.5,0-7.1,0-10.3-1.6-1.6-1-3.1-2.1-4.7-3.1-.9-.6-1.9-1.3-2.8-1.9-.3-.5-.6-1.1-.9-1.6-.2-.3-.5-.6-.7-.9.3-.7.7-1.4,1-2.1.8-1,1.7-2.1,2.5-3.1,1.5-2.6,2.9-5.2,4.4-7.8.2-.3.4-.7.6-1,.4-.8.8-1.7,1.1-2.5l1.6-3.4c.2-.3.3-.7.5-1,.6-1.6,1.1-3.1,1.7-4.7.2-.5.5-1,.6-1.6.3-1.7,1.3-2.7,2.7-3.5,1.1-.6,2.1-1.5,3.2-2.2,2.5-1.7,5.1-3.4,8-5.3h-6.1c-5,0-10.1,0-15.1.1h-10c-1.2,0-2.6-.2-3.5.3-2.3,1.4-4.4,3.2-6.6,4.9-.3.3-.6.7-.9,1-4,3.2-5.2,7.7-5.9,12.5v3.2c.3,2.6.6,5.2,1,7.8.3,1.1.6,2.3.9,3.4v.3c0,.1.1.2.2.3v.3c0,.2.2.4.2.6h.2ZM232.2,195.4c0-.2-.2-.5-.3-.7-.1-.3-.3-.5-.4-.8-1-.9-2.2-.7-3.3.7-1,1.2-.7,3.8.5,4.4.2,0,.4-.1.7-.2l.6-.3c.9-.3,1.8-.6,3-.9-.3-.6-.6-1-.8-1.5v-.7ZM343.3,184.7c-.9-1.5-2.5-1.7-4.6-.6.6.3,1.1.6,1.7.9,1.4.7,2.8,1.4,4.2,2.2.1-.2.2-.3.4-.5l-1.6-2h-.1ZM215.1,193.9c.5,1.4,1.1,2.7,1.6,4.1,1,1.7,2.5,2.5,4.3,2.8,2.2.4,4.2-1.2,3.7-3.2-.3-1.1-1-2.1-1.6-3.2-.2,0-.3.2-.5.3.4.8.9,1.5,1.1,2.3.1.7.1,1.8-.3,2.3-.4.5-1.6.9-2.2.6-1.5-.6-2.8-1.5-4.2-2.3-.4-1.3-.9-2.5-1.3-3.8l.6-5.8h-.8c-.2,2-.3,4-.5,6h0ZM247.5,227.1c.8.6,1.6,1.2,2.3,1.8,1.1,1,2,.9,2.8-.2.5-.3,1-.5,1.4-.9,2.5-2.3,4.9-4.6,7.3-6.9.2-.2.7-.3,1-.4,0,.3,0,.5-.1.8-.7.9-1.4,1.7-2.1,2.6-1.5,1.6-3,3.2-4.5,4.7.1.1.2.2.3.3,1.6-1.7,3.2-3.3,4.8-5,.7-.9,1.5-1.7,2.2-2.6.3-.4.6-.8.9-1.2,0-.2-.1-.3-.2-.5-.9,0-2.2-.2-2.6.2-2.4,3.2-5.5,5.6-8.6,8-.5.3-1.1.5-1.5.7-1.2-.7-2.3-1.3-3.3-2-1.8-1.6-3.6-3.3-5.3-4.9,0,.1-.2.2-.3.3,1.2,2.3,3.3,3.5,5.3,4.9l.2.3ZM257,136.8v19.1c-.2,1.9-.3,3.9-.5,6,1,.4,2.1.8,3.2,1.2,1.5.9,3.3,1.2,4.9,2,3.2,1.6,6.5,2.8,9.7,4.1,1.7.7,3.5,1.3,5.2,1.9v.2h.2s-.2,0-.2-.1c-1.3-1.2-2.5-2.3-3.8-3.5-.7-.7-1.3-1.5-2-2.2,0,0-.2-.2-.2-.3s-.2-.3-.3-.4c-2.7-4.2-4.4-8.7-4.8-13.7v-14c.1-1.3,1-.4,1.5-.5,1.3.6,2.6,1.1,3.9,1.7,1.2.7,2.3,1.5,3.5,2.2.5.3,1,.7,1.5,1,.9.7,1.9,1.4,2.8,2.1.4.3.8.7,1.2,1,.8.5,1.7,1,2.3,1.6,1.5,1.7,3,3.4,4.3,5.3,3.2,4.7,4.6,10,4.8,15.6-.2,1.5-.5,3-.7,4.7,1.6-1.3,4.2-5.9,4.5-8.1.1-.4.3-.8.4-1.2.4-1.8.8-3.6,1.2-5.3,0-.2.2-.5.2-.7.4-4.5-.6-8.7-2.8-12.6-1.3-2.3-2.2-4.9-4.6-6.6,0,0-.1-.2-.2-.3,0,0-.1-.2-.2-.3-.8-.8-1.7-1.7-2.5-2.5-2.9-2.1-5.8-4.3-8.6-6.4-.3-.2-.3-.7-.5-1.1.7-.6,1.4-1.3,2.1-1.9,1.3-1.1,2.6-2.3,3.9-3.4l6.4-3.7c2.4-.9,5-1.5,7.3-3.4h-20.3c-.8-.2-1,.1-.7.8.7,2.5-.6,4.1-2.2,5.7-.3.3-.6.6-.9.9-2.3,1.9-4.6,3.7-6.9,5.6v-9.2c.4-2.5.7-5.1,1.1-7.6.2-1.2.4-2.4.6-3.6,0-.1,0-.3.1-.4v-.3c1.3-4.6,2.6-9.2,3.8-13.8.2-2,.3-4,.5-6,0-9.2-6.8-16.6-14.3-18.4,2.6,3.4,4.8,6.8,5.6,10.9,0,1.1.1,2.1.2,3.2v2.8c0,.6-.2,1.2-.2,1.9-1.2,2.7-2.4,5.4-3.7,8.2-.8,1.1-1.7,2.3-2.5,3.4-.6.6-1.3,1.2-1.9,1.9-.8.9-1.9,1.7-1.4,3.2v33.6-.3ZM245.4,121c-.2-.4-.5-.8-.7-1.2-1.6-3.5-3.4-6.8-8.3-5.6h-17.9c-.8,0-1.6,0-1.7,1.2-1,1.6-2,3.1-2.9,4.7-1.5,2.9-2.8,5.8-4.2,8.7-.9,2.3-1.8,4.6-2.7,7-.4,2-.8,4-1.2,5.9,0,2.1,0,4.3.2,6.4.5,4.5,2.1,8.7,5.1,12.2.6.7,1.2,1.4,1.8,2.1,1.1,1.1,2.3,2.2,3.4,3.2.2.1.3.2.5.4h.1c1.8,1.4,3.5,2.8,5.3,4.1.1,0,.3,0,.4.1,0-.1-.1-.3-.2-.4-.8-1.3-1.6-2.7-2.4-4l-1.5-3.4c-.6-1.4-1.1-2.9-1.7-4.4v-.7c0-1.3,0-2.5-.1-3.8v-3.7c.1-.9.2-1.9.3-2.8h0c.5-1.8,1-3.5,1.6-5.3.5-1.2,1-2.3,1.5-3.5,1.9-3.5,3.8-7.1,5.7-10.6,1.1-1.6,2.2-3.1,3.4-4.9.8,1.2,1.5,2.1,2.2,3.1,2,3.2,3.9,6.5,5.9,9.7.6,1.3,1.2,2.7,1.8,4,1.9,4.8,2.6,9.8,2.3,15-.7,2.7-1.4,5.4-2.1,8.2-1.2,2.2-2.4,4.4-3.8,6.9,4.7-2.2,8.2-5.6,11.3-9.3.7-1,1.3-2,2-3.1.9-1.8,1.8-3.6,2.6-5.5.3-1.7.6-3.3.9-5-.2-.5-.4-1-.6-1.5.2-.3.7-.7.7-1.1,0-2.4-.3-4.7-.5-7.1-.5-1.5-.9-2.9-1.4-4.4l-1.3-3.4c-.7-1.6-1.4-3.1-2.1-4.7-.6-1.2-1.2-2.3-1.8-3.5h0ZM275.2,195.4c.1-.2.2-.4.4-.7.1-.3.3-.7.4-1-.3,0-.8-.2-1,0-1.2,1-2.4,2-3.4,3.1-.4.4-.5,1.4.6,1.4.7.6,1.4,1.1,2.1,1.6.3-1.7.6-3.1.9-4.5h0ZM254.7,208.9c1.5,1.6,2.2,1.6,3.8-.3.2-.2.2-.7.4-1-.3,0-.8,0-1,.2-.9.7-1.6.6-2-.6,0-.1-.5-.1-.8-.2-.9-.1-1.8-.2-3-.4,1,.8,1.8,1.6,2.7,2.3h0ZM254.9,182.9s.1-.2.2-.3c-.1-.5-.3-1-.4-1.5-.3-1-1-1.3-1.9-1-2.1.5-4.2,3.8-3.6,5.9.4,1.5,1.3,2.9,2.2,4.6.2-.8.4-1.2.5-1.6v-.7c.2-.4.4-.8.6-1.1l2.4-4.4h0ZM290.1,132.1c.2.2.4.4.6.6.3.3.6.5.9.8,1.8,2.1,3.6,4.3,5.5,6.4,1.2,2.5,2.5,4.9,3.7,7.4,2.4,4.8,3.2,9.8,1.9,14.9-.8,3.1-1.8,6-2.8,9.1h-.1.1c.6-.3,1.2-.6,1.8-.8l1.3-.7,1.2-.4h.6c2.7-.6,5.3-1.3,8-2,.3,0,.6-.4.7-.7,3.8-6.8,6-13.9,4.1-21.8-.1-.6-.2-1.2-.4-1.8-2.3-4.8-4.7-9.5-7-14.2-.4-.6-.8-1.3-1.3-1.9h0c-1.7-2.4-3.4-4.7-5.1-7.1-.6-1.4-1.5-1.6-2.7-.9-.4.2-.9.4-1.3.5-4.9,1.8-9.4,4.2-13,8-1,1.1-1,1.7.4,2.3.4.3.9.6,1.3,1,.4.3.9.7,1.3,1,0,.1.1.2.2.2h0ZM285.4,193.8v-2.5c-.3-.8-.5-1.7-.8-2.5-.7-1.1-1.3-2.3-2-3.4-.8-.8-1.6-1.6-2.4-2.3-.5-.4-.9-.9-1.5-1.2-5.1-2.1-9.7-.6-14.1,2-1.7,1-2.1,2.5-1.6,4.4.7,2.7,1.1,5.4.6,8.1-.1.5-.2,1.3.8.8.5-1.3.9-2.5,1.4-3.8l.9-2.5c.3-.3.6-.7.9-1,2.6-3.3,8.1-4.1,11.6-1.2.2.3.4.6.6.9.4.8.8,1.5,1.2,2.3,0,.6.1,1.3.2,1.9.1.8.5,1.7.5,2.5s-.5,1.6-.9,2.9c.8-.4,1.3-.7,1.9-.9.8-.9,1.5-1.8,2.3-2.7.2-.6.3-1.3.5-1.9h-.1ZM235.9,191.7c1.3,2.4,1.6,5.5,4.5,6.9.2-.1.3-.2.5-.3-.3-.4-.5-.7-.8-1.1-.1-1.2-.3-2.4-.4-3.6.2-2.6.5-5.2.7-7.8.1-.5.2-1.1.4-1.6.7-1.1-.4-1.3-.9-1.5-3.6-1.5-7.2-2-11.1-.5-6.8,2.6-10.2,7.2-10.6,13.7,0,1.2.3,2,1.5,2.4.6.3,1.1.5,1.7.8,1.7,0,2.1-.3,1.6-1.9-.5-1.8-1-3.6-1.6-5.4,1.1-1.3,2.2-2.6,3.4-3.9,3.5-1.5,6.7-.9,9.5,1.5.6.8,1.2,1.5,1.8,2.3h-.2ZM234.9,207.9v1.2c.1.7.2,1.5,1.2,1.4s1.2-.7,1-1.7c-.4-2.6-.7-5.3-1-7.9-.2,0-.4-.1-.6-.2h-.6c-.3.2-.9.4-.9.6.2,2.1.5,4.3.8,6.4v.2ZM227.7,216.1c1.1,1.5,2.8,2,4.5,2.5,1.5.3,3,.6,4.7.9-.5-1.6-.9-2.4-2.4-2.5-3.1-.3-5.6-2.1-6.7-4.8-2.7-6.3,1.4-11.9,7.6-12,3.2,0,5.7,1.8,5.2,4.9-.2,1.3.5,2,1.6,2.4,1.2-3.7.3-6.7-2.4-8.3-2.7-1.5-7.3-1.4-8.7.3.6,0,.9-.2,1.3-.2h5.2-.5c-1.8.4-3.7.7-5.5.9h-1c0-.3.2-.6.4-1.2-3.4,1.4-5.3,3.8-6.2,6.9-1.1,3.9,0,7.2,3,10v.2ZM417.8,100.1h11.4v-.4c-4.4-.9-8.8-3.9-13.2.5.6,0,1.2,0,1.8-.1h0ZM270.1,200.8c4,1.6,5,5.1,5.6,8.9.5-2.5,0-4.7-1.3-6.7,0-.1.1-.2.2-.3.8,1.2,1.5,2.5,2.3,3.7,1,4.5-.7,7.9-4.2,10.7,1.4-.8,2.6-1.8,3.4-2.9,1.8-2.3,2-5,1.1-7.7-.3-3.2-2-5.3-5-6.2-1.1-.5-2.1-.9-3.2-1.4-.4,1.3,0,1.8,1,2h.1ZM263.2,198.8c-2.8,1.2-4,3.3-3.8,6.3.2,3.2,1.5,5.8,4.4,7.6,0-1.2-.2-2.3-.7-3.3-1-2.4-2.6-4.7-1.2-7.4.6-.4,1.2-1.1,1.9-1.3,1.3-.4,1.3-1.2,1-2.5-.6.2-1.1.4-1.7.6h.1ZM251.3,227.6c1.5-1.1,3-2.2,4.4-3.3,1.2-1.1,2.5-2.3,3.7-3.4.3-.5.6-1,.9-1.6-.2-.2-.3-.4-.5-.6-1,.4-2,.8-2.9,1.3-.6.3-1.1.9-1.7,1.4-1.1.9-2.1.8-3.2,0-1-.8-2.1-1.5-3.3-2.1-1.3-.7-3.5.3-4.4,1.9-.8,1.4.3,1.9,1.2,2.5.7.6,1.5,1.3,2.3,1.9,1.1.8,2.3,1.4,3.4,2.1h0ZM210.8,121.7c.2-.2.3-.4.5-.7.4-.7.7-1.5,1.1-2.2-3,1.7-5.6,3.5-8.2,5.4-1.2.9-2.3,2.1-3.4,3.1-.2.2-.4.4-.6.7-1.6,4.1-3.1,8.3-4.9,12.4-1.9,4.2-4,8.4-7.1,11.9-1,1.1-.8,2.1.6,3l1.7,1.3c.9.5,1.9,1,2.8,1.6,4.6,2.3,9.2,2.2,13.7-.1-.7-2-1.7-3.8-2.1-5.8-1.1-5.7-1.4-11.4.6-17,1.3-3.7,2.9-7.3,4.4-11,.2-.3.4-.7.5-1,.2-.5.4-1,.6-1.5h-.2ZM258.7,215.5c0-.2.1-.4.2-.6.5.3,1.1.5,1.6.8,3.8,2.6,8.4,2.8,11.8.2.8-.6,1.5-1.6,2.2-2.4-.1-.1-.3-.2-.4-.4-.2.2-.5.3-.6.5-3.2,3.9-8.9,4.3-13,1.3-1.7-1.2-1.8-1.2-3,.7,5.6,4.2,11.2,5.1,13.9,1.8-4.8,2.3-9,1.2-12.7-2h0ZM233.7,205.1c-2.4,1.2-3.3,3.1-2.8,5.3.3,1.4,2.6,3.3,4.1,3.5,2.2.3,4.5-.9,5.2-2.6-.8-.9-1.5-1.2-2.8-.6-1,.4-2.5.2-3.5-.2-.4-.2-.2-1.8-.2-2.8v-2.6h0ZM267.5,207.7c-1.6.4-2.6.8-2.7,2.5,0,1.5-.6,3-.9,4.6,0,.4-.1.8-.3,1.5,1-.2,2.3-.1,2.5-.6,1.1-2.5,1.5-5.1,1.3-8h.1ZM274.1,210.3c.2-2,.5-3.7-.6-5.2-.2-.3-.9-.5-1.3-.4-.3,0-.8.8-.7,1,.7,1.5.7,3.4,2.6,4.6ZM254.9,230.9c3.5-2,6.8-4.1,8.6-8-2.9,2.7-5.7,5.3-8.6,8ZM217.3,189.7c2.2-4.5,5.5-7.5,9.8-9.4-3.6,0-9.6,5.6-9.8,9.4ZM246.5,192.5c-1.3,1.5-1.1,5.3.2,7.1.8-2.4.4-4.6-.2-7.1ZM235.5,214.6c.4.8.8,1.6,1.1,2.4,0,0,.2,0,.3-.1v-1.6c.1,0,.2-.1.3-.2,1.1,1.8,2.2,3.5,3.3,5.3.1-.1.3-.2.4-.3-.7-1.3-1.5-2.7-2.2-4.1q-1-2-3.4-1.4h.2ZM229.7,210.9c-.1,2.5.6,3.7,3.2,4.6h1c-.1-.3-.2-.7-.4-.9-1.2-1.2-2.5-2.4-3.7-3.6h-.1ZM269.7,197c1.1-2.3,2.5-4.4,5.5-5.3-3.5-.1-5.7,2.2-5.5,5.3ZM255.9,177.4c1.3,1.9,2.5,3.8,3.8,5.6.3-1.2-2-5-3.8-5.6h0ZM262.5,182.4c2.7-1,5.4-1.9,8.2-2.9-2.5,0-6,1.1-8.2,2.9ZM242.3,213.3c-.8-1.1-1.5-1.1-2.3-.3-.6.6-1.4,1.2-.2,2.2.8-.6,1.7-1.3,2.5-1.9h0ZM259.9,213.4c1,.7,1.8,1.3,2.7,1.9.7-1,.5-1.5-.2-2.1-.8-.6-1.5-1-2.5.2ZM284.3,202.7c2.3-.2,3.8-1.9,4.2-4-1.4,1.4-2.9,2.7-4.2,4ZM271.6,219.4c1.9,0,3.8-1.3,4.3-3.1-1.5,1.1-2.8,2-4.3,3.1ZM207,163c.1.2.3.4.4.5.7-.5,1.4-1,2.1-1.5l-.4-.6c-.7.5-1.4,1.1-2.1,1.6ZM226.2,193.2c1-.6,1.7-1.1,2.5-1.6-1.1-.1-2.2-.3-2.5,1.6ZM248.4,179.6c.2.1.3.3.5.4.6-.6,1.2-1.2,1.8-1.9-.1,0-.2-.2-.3-.3-.6.6-1.3,1.1-1.9,1.7h-.1ZM249.5,213.1c.1.2.2.4.3.7l1.5-1c-.1-.2-.2-.3-.3-.5l-1.5.9h0ZM279.9,197c-.2,0-.3-.1-.5-.2-.2.4-.3.8-.5,1.2.1,0,.3.1.4.2l.5-1.2h.1ZM248.1,181s-.2-.2-.3-.3c-.2.2-.4.4-.5.6,0,0,.1.1.2.2.2-.2.4-.3.6-.5h0ZM276.6,215.8s0-.2-.1-.2h-.2c0,.1,0,.2.1.3,0,0,.1,0,.2-.1h0ZM230,179.5h-.1q0,.1.1.1h0ZM109.6,132.8h0q0-.1,0,0h0Z"/>
  <path class="cls-3" d="M329.7,114.7c-1.4-2.5-.6-3.9,2.3-3.9,5.6,0,11.2,0,16.8.1.6,0,1.4.4,1.9.8,1.4,1.4,2.8,2.9,4.2,4.4,1-.7,1.9-1.2,1.3-2.7-.6-1.4.6-2.5,2.5-2.5h16.9c.6,0,1.1.2,1.7.3.6.8,1.3,1.5,1.9,2.3.4.6.9,1.2,1.3,1.9.1.3.2.6.3.8,2,3.8,4,7.6,6,11.4.2.2.3.5.5.7v.9c.3.6.5,1.3.7,1.9,2.6,6.5,3.7,13.3,2.2,20.2-.5,2.4-1.6,4.7-2.5,7v.3l-.9,1.6h0c-.2.2-.4.4-.6.7v.3l-.6.6c-.1.2-.2.4-.4.6-.2.3-.4.6-.6.9l-.3.3c-.5.4-1.1.8-1.6,1.2-2,1.7-4,3.5-6.1,5-1.8,1.3-2.1,1-3-1.6-.2.6-.4.8-.5,1.1h-.7c-.3,0-.6.1-.9.2-.2,0-.4-.2-.6-.3,0,0-.1-.1-.3-.1-1.2-1-1.1-2.2-.5-3.4.6-1.3,1.4-2.6,2-3.9,2.9-6,3.2-12.2,1.8-18.6,0-.4,0-.8-.2-1.1-2.4-4.8-4.9-9.6-7.3-14.3-.7-1-1.3-2.1-2-3.1-.3-.4-.5-.7-.8-1.1-.4-1.1-1-.8-1.7-.3-1.8,1.3-2.3,3.5-1.6,5.7.6,1.7,1.1,3.5,1.7,5.3.3.5.6,1.1.8,1.6v.6c0,.3.2.6.3.9v.6c-.4.6-.7,1.2.3,1.6v.6c-.4,1-.8,2,.3,2.8v4.1c-1.1.7-.7,1.6-.3,2.5v.6c-.2,0-.5.2-.5.3-.7,2-1.3,4-1.9,6v.6c-.5.9-1,1.9-1.6,2.8h0c-.3.3-.6.7-.9,1-.2.3-.4.6-.6.9s-.4.6-.6.9c-1.2,1.2-2.5,2.3-3.7,3.5s-.6.6-1,.9c-.3.2-.6.4-.9.6l-.6.6c-.2.1-.4.2-.6.3l-.6.6c-.5.2-1,.5-1.5.7h-1.3c0-.5-.1-.9-.2-1.5-.4,0-.7.2-1.1.3-.5,0-1,.1-1.4.2-1.8-.5-2.2-2.1-1-4.1,4.3-6.9,5.3-14.3,3.6-22.2-.1-.5-.2-1-.4-1.5-3.7-9.7-9.6-18.1-16-26.1-.2-.2-.3-.5-.5-.7l-.4.4ZM362.9,119.5c.3.4.6.9,1,1.3.7.7,1.5,1.4,2.2,2.2.1.5.2,1.1.5,1.6,2.1,3.8,4.3,7.6,6.4,11.3,2.2,4.9,3.6,9.9,3.6,15.3-.1,1.3-.3,2.5-.4,3.8-.5,2-1.1,4-1.6,5.9-1.1,2.1-2.3,4.3-3.4,6.4.1.1.3.2.4.3,2.5-1.1,4.7-2.6,6.5-4.8,3.2-3,5.8-6.3,7.6-10.3,1.8-3.8,1.9-7.9,1.7-12,0-.8-.1-1.7-.2-2.5,0-.5,0-1.1-.1-1.6,0-.2,0-.5-.1-.7,0-.4,0-.9-.2-1.2-2-4.7-4-9.4-5.9-14-.9-1.5-1.9-2.9-2.8-4.4-.8-1.2-.8-3.4-3.1-3.1h-1.6c-2.2,0-4.4,0-6.6-.1h-8.9c.4.7.7,1,.9,1.4l-.5,1.2c-.3.4-.7.8-1,1.2-.5.6-1,1.3-1.6,1.9h-3.1c-.1-.1-.2-.2-.3-.3h0c-1-1.6-1.9-3.3-3-4.9-.2-.3-.9-.5-1.3-.5h-17.4c.7.9,1.2,1.6,1.7,2.2,4.2,5.5,8.4,11,11.6,17.1,3.1,6,5.8,12,5.3,19-.3,4.7-1.2,9.2-3.7,13.2-.6.9-1,2-1.5,3,.2.1.3.3.5.4,1.6-1.1,3.4-2.2,4.8-3.5,1.9-1.7,3.6-3.7,5.4-5.6,2.2-2.3,3.6-5.1,4.5-8.1.2-.7.4-1.5.6-2.2.1-3.4.5-6.7.4-10.1,0-2-.8-3.9-1.2-5.9-.6-1.7-1.3-3.3-1.9-5-.4-1-.8-1.9-1.2-2.9.1-.6.2-1.2.4-1.7.5-.8,1.1-1.6,1.7-2.3.2-.3.5-.6.7-.9l1.8-2.3h.7c.6.8,1.2,1.5,1.8,2.3h0Z"/>
  <path class="cls-3" d="M61.1,160.3c0,.2.2.4.4.6.5.6.9,1.3,1.4,1.9,1.8,1.9,3.6,3.9,5.4,5.8.6.5,1.1,1.1,1.7,1.6.2.1.4.3.6.4,2.2,1.4,4.4,2.9,6.6,4.3.5.3,1,.5,1.5.8.3.2.7.4,1,.5,1.4.6,2.7,1.2,4.1,1.8,3.8,1.1,7.5,2.1,11.3,3.2,2,.3,4,.6,6,1,.8.1,1.7.2,2.5.4,2.8.1,5.7.3,8.5.4h3.8c4.6-.2,9.1-.3,13.7-.5,1.1,0,2.2-.3,3.2-.4,1.5-.2,2.9-.4,4.4-.6.6-.1,1.1-.3,1.7-.4,1.5-.3,3.1-.6,4.6-.8,1.4-.4,2.8-.8,4.1-1.1.9-.4,1.9-.8,2.8-1.3,1.9-.5,3.7-1.1,5.6-1.6.2,0,.4-.1.7-.2h.4c.7-.2,1.4-.4,2.1-.6.8-.2,1.7-.4,2.5-.7,1.2-.4,2.5-.9,3.7-1.3,1-.2,2.1-.4,3.1-.6h.6c.3,0,.6-.1.9-.2,3.5-.5,6.9-1.2,10.4-1.5,2.6-.2,5.2,0,7.8,0h0c.1,0,.2,0,.3.1,1.5.3,2.9.6,4.4.8,1.1.4,2.1.7,3.2,1.1,2.1,1.3,4.2,2.6,6.2,4,.9,1,1.7,2,2.6,3.1.4.7.8,1.5,1.3,2.2.4.9.7,1.9,1.1,2.8.1.4.2.8.4,1.2v4.1c-.5,1.4-.9,2.9-1.4,4.3,0,.1-.1.3-.2.4,0,.1,0,.2-.1.3-1.5,1.5-2.9,3.1-4.5,4.4-3.3,2.6-7.2,3.8-11.4,3.8s-1.9,0-2.8.1c-3.4.3-5.8-1.2-7.3-4.2-.1-.4-.2-.8-.3-1.3.2-1.6.3-3.2.8-4.7.6-1.9,2.2-2.8,4-3.5h2.5c.9.5,1.9.9,2.8,1.4,3.3,2.7,9.1,1.3,10.9-2.8.7-2,1.2-4,.2-6s-.9-1.5-1.3-2.3c-1.7-2.3-4.2-3.4-6.8-4.1-1-.3-1.9-.5-2.9-.8-3-.3-6-.8-8.9-1-2.1-.1-2.9.7-3.7,3.1-.2.3-.4.6-.5,1-1.1,1.8-2.2,3.5-3.2,5.3-.7.8-1.4,1.7-2.2,2.5-.9.7-1.8,1.3-2.7,2h0c-1,.4-1.9.8-2.9,1.1-1.3.2-2.5.4-3.8.6-.3-.3-.6-.6-.9-.9.7-.3,1.4-.6,2.1-.9.4-.2.9-.4,1.3-.6.7-.6,1.5-1.3,2.2-1.9.5-.5,1-1.1,1.5-1.6.8-1.2,1.7-2.3,2.4-3.6.4-.6.5-1.5.5-2.2,0-1.3-1-2.3-2.3-2-2.2.4-4.3,1-6.5,1.6-.6.2-1.3.4-1.9.6-2,.3-3.4,1.4-4.6,3.1-1,1.6-2.4,2.9-3.7,4.4-.8.5-1.7,1-2.5,1.5-1.5.4-3.1.9-4.6,1.3,0-.2-.2-.4-.2-.6,1.1-.7,2.2-1.2,3.2-2.1.9-.7,2.2-1.5.8-3-.3-.2-.7-.4-1-.6h0c-1.1,0-2.1,0-3.2.1-1.6.4-3.1,1-4.6,1.5-1.8.4-3.6.8-5.4,1.2h-.3c-.3,0-.6.2-.9.3-2.6.5-5.1,1-7.7,1.4-4.3.4-8.5.7-12.8,1.1h-.6c-3.3,0-6.7.2-10,.3h-3.5c-.2,0-.4-.1-.6-.2h-2.5c-2-.2-4-.4-6-.6-3.4-.8-6.7-1.7-10.1-2.5-2.9-1-5.8-2.1-8.7-3.1-.4-.2-.8-.3-1.2-.5-1.6-.8-3.2-1.5-4.7-2.3-.2,0-.4-.2-.6-.3-1.5-.8-2.9-1.6-4.4-2.4-1.2-.8-2.4-1.6-3.5-2.4-1.3-.9-2.7-1.7-4-2.6-1.3-1.3-2.5-2.6-3.8-4-1.4-1.4-2.7-2.8-4.1-4.2-1.1-1.5-2.3-3.1-3.4-4.6-.8-1-1.5-2.1-2.3-3.1-.2-.4-.4-.8-.6-1.3-.5-1.1-1-2.1-1.5-3.2,0-.5-.2-1-.4-1.5v-.3c-.4-1.4-.9-2.9-1.2-4.3-.5-2.3-.9-4.7-1.4-7,0-1.1,0-2.3-.2-3.4v-.3c0-.8.2-1.7.4-2.5v-1c1-3.5,2-6.9,3-10.4.3-.9.7-1.8,1-2.8.2-.4.4-.8.7-1.3h0c.5-.7,1-1.5,1.6-2.2.4-.8.8-1.5,1.2-2.3.5-.5,1-1.1,1.5-1.6.4-.6.9-1.3,1.3-1.9.5-.6,1.1-1.2,1.6-1.8.8-1,1.6-1.9,2.5-2.9,1.7-1.7,3.4-3.4,5.2-4.9,1.2-1,2.6-1.8,3.9-2.8,1.1-1,2.1-2.1,3.2-3.1,2.2.2,3.5-1.5,5.1-2.5.6-.4,1.3-.7,1.7-1.3.9-1.1.6-2.1-.7-2.6-1.2-.5-2.6-.6-3.9-.8-1.5,0-2.9-.1-4.4-.2h-7.2c-.7-.1-1.5-.2-2.2-.3,1.2-.2,2.5-.4,3.7-.7.9-.1,1.7-.2,2.6-.3,2.2-.2,4.4-.4,6.6-.6,1.6,0,3.1-.2,4.7-.3.7,0,1.5,0,2.2-.1h2.2c3-.1,6.1-.2,9.1-.3h3.5c3.7.2,7.3.4,11,.7,1,.1,2.1.2,3.1.3.9,0,1.9.2,2.8.3.5,0,1,.1,1.4.2.5,0,.9,0,1.4.1h1.2c.6.1,1.2.3,2,.5-3.2,1.3-6.2,2.5-9.2,3.8-2.9,1.2-5.8,2.4-8.8,3.6-2.7-2.9-6-3-9.6-2-1.6.4-3.3.9-4.9,1.3-1.9.8-3.7,1.6-5.6,2.3-1.2.7-2.3,1.4-3.5,2.1-.7.5-1.3.9-2,1.4-.8.6-1.6,1.1-2.3,1.8-1.3,1.3-.9,3,.8,3.4,0,0,.3.1.4.2h11.7c.4,0,.8,0,1.2-.1h.9c5.2,0,10.5,0,15.7-.1h1.8c0,.2,0,.4.2.6-.5.3-1.1.5-1.6.8s-1,.5-1.6.8c-.9.5-1.9,1-2.8,1.4-.8.4-1.7.7-2.5,1.1l-6,3c-.7.3-1.4.6-2.1.8-.2,0-.5-.1-.7-.2,1.2-1,2.3-1.9,1.6-3.7-.6-.5-1.3-1-1.9-1.4h-6.6c-2.3.2-4.7.5-7,.6-1.3,0-2.6-.2-4-.3-.4,0-.8,0-1.2.1-.5.1-1.1.3-1.6.4-.8,1-1.7,2.1-2.5,3.1-1.9,3.1-2.9,6.5-3.7,10v6.6c.3,4.7,2.2,8.7,5.2,12.2.5.7,1.1,1.4,1.6,2.1.4.5.8,1,1.2,1.4,1.3.7,2.5,1.5,3.8,2.2,1.2.5,2.3,1,3.5,1.5,0,0,.2,0,.4.1h.6c2,1.2,4.2.5,6.3.6h1c.2,0,.4,0,.6-.1,1.8-.3,3.6-.6,5.4-.9,1.3-.4,2.5-.8,3.8-1.3,1.8-.9,3.6-1.9,5.4-2.8,2.5-1.1,3-3.3,3.3-5.7.7-2,1.3-4,2-6,.4-.8.7-1.7,1.1-2.5.7-1.4,1.4-2.7,2.1-4.1.6-1.2,1.3-2.5,1.9-3.7.7-1,1.4-2.1,2.2-3.1.4-.6.8-1.3,1.2-1.9.6-.9,1.3-1.8,1.9-2.8.9-1.5,1.9-2.9,2.8-4.4h0c0,0,.2,0,.3-.1,1.5-2.1,3.1-4.2,4.6-6.4,1.7-2.5,3.2-5.1,4.8-7.6l.6-1.2c.4-.7.8-1.5,1.2-2.2.5-1.2,1-2.5,1.4-3.7.3-.1.5-.2.8-.3,2.4-.1,4.8-.3,7.2-.4,0,0,.3,0,.4-.1h.3c.9-.1,1.9-.2,2.8-.4,2.5,0,5-.1,7.5-.2,1.3.2.4.7.1,1.1-1.8,2.3-3.7,4.6-5.5,6.9-.3.4-.6.8-.9,1.2-.6.8-1.3,1.6-1.9,2.5h0l-.6.6c-.3.5-.6,1.1-.9,1.6-.3.3-.6.6-1,.8,0,.1-.2.2-.3.4h0c-.3.4-.6.8-1,1.2h0c0,.1-.2.2-.3.4h0c-1.8,2.3-3.7,4.6-5.5,6.9-.9,1.1-1.8,2.3-2.6,3.4-2.4,3.1-4.8,6.3-7.2,9.4-.2.2-.4.5-.6.7-1.2,1.7-2.4,3.5-3.6,5.2-.6,1.1-1.3,2.3-1.9,3.4-.5,1-1,1.9-1.5,2.9-.7,1.5-1.4,2.9-2.2,4.4-.6,1.4-1.2,2.7-1.8,4.1-.3,1.5-.6,2.9-.9,4.4-.5,4.4-.7,8.8.6,13.2,0,.2,0,.4.2.7.3,1.1.7,2.1,1,3.2l-.2.2c-.9-.8-1.8-1.6-2.6-2.5-1-1.3-2.1-2.7-3.1-4-1-2.1-2-4.2-3-6.3-.3-.6-.9-1.1-1.4-1.6-.8.2-1.8.1-2.3.6-.9.7-1.6,1.8-2.4,2.8-.8.9-1.6,1.8-2.5,2.6-.5.6-1.1,1.2-1.6,1.9-1.6,1.5-3.1,3.1-4.7,4.6-.4.4-1.2.5-1.8.7-3.4-2.2-6.9-4.3-10.3-6.5-.7-.6-1.4-1.2-2.2-1.7-1-.6-2.1-.5-2.6.4-.4.6-.4,1.7,0,2.4.5,1.1,1.3,2.1,1.9,3.2,0,0,0,.1,0,.2h0c.2.2.4.4.5.7l-.8-.7Z"/>
  <path class="cls-3" d="M24.4,92.3h-.9c-2-.2-4-.4-6-.6-.3,0-.7-.1-1.2-.2.6-.2,1.1-.4,1.5-.5,4.3-1,8.6-2.1,13.1-3.2-.9,1.6-1.5,2.9-2.2,4.1,0,0,.2.2.3.2-.5.1-1,.3-1.4.4h-1.6c-.5,0-1,0-1.6-.1h0Z"/>
  <path class="cls-3" d="M330.8,178.1c.1.5.2,1,.4,1.6.2.3.4.6.5,1,.3.6.6,1.2,1,1.9.3.4.6.9.9,1.3.2.3.5.6.7.9,1.4,1.1,2.7,2.3,4.1,3.4.8.5,1.6,1.1,2.8,1.9-3.4.3-6.1-.4-8.5-2.3-.3-.2-.6-.3-.9-.5-1-.9-1.9-1.8-2.9-2.8-1.2-2-2.4-4-3.7-6,0-.1-.2-.2-.3-.4-1-3-1.5-3.4-4.7-3.4s-1.1,0-1.7.1c-3.7,0-7.2.5-10.6,2-1.2.6-2.3,1.3-3.5,1.9-1.9,1.1-3.1,2.7-3.4,4.8-.6,2.5,0,4.8,1.4,6.9,2,2.4,4.6,2.6,7.5,2.3.8-.3,1.7-.5,2.4-1,4-3.2,9.3-.9,9.9,3.8v3.1c-.3.7-.5,1.4-.8,2.1-.1.2-.2.3-.3.5-.1.2-.2.3-.3.5-1.6,1.9-3.9,2.1-6.2,2.2h-5.9c-1.9-.6-3.7-1.3-5.6-1.9-.3-.2-.6-.4-1-.5-1-.6-1.9-1.3-2.9-1.9-1.2-1.6-2.4-3.2-3.6-4.7-2.2-6.5-2.1-10.9,3.2-16.4,2.2-2.3,5.3-3.7,8.1-5.5.5-.2,1-.3,1.6-.5,1.6-.3,3.1-.6,4.7-1,.8-.1,1.7-.2,2.5-.3,3.7.3,7.3.5,11,.8,2.4.5,4.8,1.1,7.2,1.6h0c.1,0,.2,0,.3.1,3.3.8,6.7,1.7,10,2.5.6.2,1.3.4,1.9.6,3.8,1.2,7.5,2.4,11.3,3.5.9.2,1.9.4,2.8.7h.5c4.7,1.3,9.4,2,14.2,2.1,2.7.1,5.4.2,8.2.4h12.5c.9,0,1.9-.2,2.8-.3,2-.3,4-.6,6-.9,2.4-.6,4.8-1.1,7.2-1.7.5-.1,1.1-.3,1.6-.4,4.3-1.1,8.2-3,12.1-5.1,0,0,0-.2.1-.3,1-.6,2.1-1.2,3.1-1.8,1.1-.8,2.1-1.6,3.2-2.4,1.1-1,2.2-2,3.3-3,3.3-3.1,6.2-6.6,8.3-10.7.5-1.1.6-2-.3-2.8-1-.8-2-.5-2.9,0-1.2.8-2.3,1.7-3.4,2.5-.4.3-.8.6-1.3.9-1.8,1.1-3.6,2.3-5.3,3.4-.6.3-1.3.7-1.9,1-.6-.1-1.3,0-1.7-.4-1.5-1.3-2.8-2.7-4.2-4.1-1.6-1.7-3.1-3.3-4.7-5-.8-1-1.5-2.2-2.5-3.1-1.1-1-2.7-.2-3.5,1.6-.7,1.4-1.3,3-2.2,4.3-1.6,2.3-3.4,4.6-5.1,6.8h0c-.2.1-.3.3-.5.4-.3.2-.7.4-1,.6.6-2.9,1.3-5.9,1.9-8.8,0-1.9.1-3.8.2-5.7v-.3c0-.2-.1-.5-.2-.7-.3-1.5-.7-3.1-1-4.6-1.7-3.9-3.3-7.8-5-11.7-.9-1.6-1.9-3.1-2.8-4.7-2.3-3.2-4.6-6.4-7-9.6-3.2-4.3-6.5-8.5-9.8-12.8-.3-.4-.6-.7-.9-1,0-.1-.2-.3-.3-.4v-.5h5.4c2.3,0,4.5,0,6.8.1.9,0,1.8.4,2.6.6,1.2.4,2.4,1.1,3.6,1.1,5.1.1,10.1,0,15.2,0h8.4c3,0,6,0,9,.2.5,0,.9.2,1.4.3-2.4,1.2-4.9,2.4-7.3,3.7-2.1,1-4.2,2-6.3,3-1.5.6-2.9,1.2-4.4,1.9,0,0,0-.1-.1-.2.3-.3.7-.6,1-.9.6-.8,1.5-1.7.9-2.9s-1.6-1.9-3-1.9h-4.8c-2.1.1-4.3.2-6.4.5-2,.4-2.5,1.8-1.4,3.5,1.6,2.4,3.3,4.8,5,7.2,1,2,2.1,4,3.1,5.9,1.3,3.3,2.6,6.5,3.9,9.8.1.3.2.6.3.9.2,1.1.2,2.2.6,3.2.3.8.7,1.7,1.3,2.2,1.7,1.2,3.6,2.1,5.4,3.1,3,.9,6.1,1.9,9.1,2.8,4.7.8,9.2.6,13.5-1.6.1,0,.2-.2.3-.3h0c2.8-1.5,5.4-3.4,6.9-6.4,1-2.8,2.1-5.6,3.1-8.4.2-1.1.3-2.1.5-3.2-.4-2.3-.8-4.6-1.2-6.9-.6-1.8-1.3-3.5-1.9-5.3-.1-.2-.2-.4-.3-.6h0c-.8-1.5-1.6-3-2.4-4.5-.4-.6-.8-1.2-1.2-1.9-.3-.5-.7-1-1-1.6-.8-.9-1.7-1.9-2.5-2.8-.4-.3-.8-.6-1.3-1-5.3-4.6-11.4-7.5-18.2-9-.5-.1-1-.3-1.5-.3-1.8,0-3.6.2-5.3.3-.9.7-1.7,1.3-2.6,2-1.6-.6-3.3-1.3-4.9-1.9-4.1-1.7-8.2-3.3-12.2-5-.3-.1-.6-.3-1.3-.6,2.5-.3,4.6-.6,6.8-.8,1.7-.2,3.3-.3,5-.5h1.9c5.1-.1,10.3-.3,15.4-.4h4.7c.9,0,1.9.2,2.8.3h3.1c1.6,0,3.1.2,4.7.3.7,0,1.5,0,2.2.1,3.8.5,7.5,1.1,11.3,1.6v.4c-.5,0-1,.1-1.5.2h-1.3c-.1,0-.2,0-.3-.1h-7.8c-.3,0-.7,0-1,.1h-4c-2.6.4-3.5,1-3,2.7.2.7,1,1.4,1.7,1.9,3.2,2.2,6.5,4.4,9.8,6.5.8.7,1.7,1.5,2.5,2.2,2.4,2.3,4.8,4.6,7.2,6.9,1.4,1.8,2.9,3.6,4.3,5.3h0c0,.1,0,.2.1.3.7,1.1,1.4,2.1,2.1,3.2.5.9,1.1,1.8,1.6,2.8,1.1,2.7,2.3,5.4,3.4,8.2v.3c.2,1.1.3,2.1.5,3.2.3,2.6.6,5.1.9,7.7,0,.8.1,1.5.2,2.3-.3,1.6-.6,3.1-.9,4.7-.7,2-1.3,4-2.1,6-.7,1.6-1.7,3.1-2.5,4.7-1.8,2.4-3.7,4.8-5.5,7.2l-.6.6c0,.1-.2.2-.2.3h0c-1.1,1-2.1,2-3.2,3l-.3.3h0c-1.2,1.1-2.5,2.1-3.7,3.2-.3.2-.6.4-.9.6-.8.6-1.7,1.2-2.5,1.9-.6.4-1.2.8-1.9,1.3-1.8,1-3.6,2.1-5.3,3.1-.9.4-1.9.9-2.8,1.3-2.2.9-4.4,1.8-6.6,2.7-8.3,3.3-17.1,5-26,5.5h-5c-2.3-.1-4.6-.2-6.9-.4-1,0-2.1-.2-3.1-.3-1.2,0-2.3-.2-3.5-.3-5.1-.8-10.2-1.6-15.3-2.3-2-.4-4-.8-6-1.2-1.3-.3-2.5-.6-3.8-.9-.8-.2-1.7-.5-2.5-.7h0c-.1,0-.2-.2-.3-.3-2.3.1-3.1,1.3-2.1,3.1,0,0,.1.2.2.3,0,.1.2.2.3.3.5.4,1,.7,1.5,1.1.5.3,1,.6,1.5.9,0,.1,0,.3-.1.4-1.7-.3-3.4-.6-5.1-.9-2.2-2.4-4.4-4.8-6.6-7.1-.5-1.3-1.7-1.5-2.8-1.8-.6-.2-1.3-.5-1.9-.7-.5-.2-1-.4-1.6-.6-.7-.2-1.4-.4-2.1-.5-.7-.2-1.3-.3-2-.5-1.4-.2-2.9-1-3.9.8,0,.1-.1.3-.2.4v.9Z"/>
  <path class="cls-3" d="M279.9,140.5c-.4-.3-.8-.6-1.2-.9-1.5-.9-2.9-1.8-4.4-2.8-1.1-.5-2.1-1.1-3.2-1.6,0,0-.2,0-.3-.1-.2,0-.4-.1-.6-.2-1.7-.9-2.3-.8-3.3.9,0,1.4-.1,2.8-.2,4.1,0,4.7.2,9.4.3,14,0,.6.2,1.1.4,1.7,1.3,3.5,2.7,6.9,4,10.4-3.5-1.4-7.1-2.8-10.7-4.3-2.7-.4-1.8-2.7-2.2-4.3,0-3.3.2-6.7.3-10v-4.4c0-.6,0-1.2.1-1.7v-3.5h0v-13.1h0v-18.3h0c0-.1,0-.3-.1-.4v-3c0-.3.1-.6.2-.9,1.7-2,3.3-4,5-6,1.2-2.5,2.5-5,3.7-7.5.2-.9.4-1.9.6-2.8,0-1.4,0-2.7.1-4.1-.3-2.1-.7-4.2-1-6.3,0-.6-.3-1.1-.4-1.6,0,0,.1-.1.2-.2,3.9,2.5,5.4,6.4,6,10.7,0,.2.1.5.2.7v4.6c0,.4-.1.8-.2,1.2v1.3c-1.3,4.6-2.6,9.1-3.9,13.7-.3,1.5-.5,3-.8,4.5-.4,2.4-.8,4.8-1.2,7.2-.1,3.1-.5,6.1-.3,9.2.2,2.6,2,3.2,4,1.5,1.7-1.4,3.3-2.9,5-4.4,2.4-1.7,4.6-3.5,5-6.7,0-.3.4-.6.6-1h7.2c.5,0,1.1.2,1.6.3v.3c-1.5,1-3,2.1-4.4,3.1-1.1.9-2.3,1.9-3.4,2.8-.3.3-.7.6-1,.9h0c-1.1,1.2-2.9,1.9-2.8,3.9.4.6.6,1.3,1.2,1.7,2.8,2.2,5.7,4.3,8.6,6.5,1.1,1.2,2.2,2.3,3.2,3.5,1.5,2.5,3.1,5,4.5,7.6,1.3,2.5,2,5.2,1.9,8.1-.3,2.4-.7,4.8-1,7.2-.2.6-.5,1.2-.7,1.9-.2.1-.3.2-.5.3h0c-.9-7.5-3.8-13.9-9.9-18.6-.6-.5-1.1-1-1.7-1.5-.4-.3-.8-.6-1.2-1-1.1-.8-2.2-1.6-3.3-2.4v-.2Z"/>
  <path class="cls-2" d="M267.2,73.6v-.4s.2.1.3.2c0,0-.1.1-.2.2h0Z"/>
  <path class="cls-3" d="M243.1,120.5c.5.9,1.1,1.9,1.6,2.8.3.5.6,1.1.8,1.6.8,1.7,1.5,3.3,2.3,5,.4,1,.8,2.1,1.2,3.1.4,1.5.9,2.9,1.3,4.4.1,3.3.2,6.7.4,10-.3,1.5-.6,2.9-1,4.4-.9,1.7-1.7,3.4-2.6,5-.3.5-.6,1-.9,1.5-1.7,1.7-3.4,3.5-5,5.2.6-2.8,1.2-5.6,1.8-8.3.5-3.8.3-7.5-.6-11.2-.4-1.8-1.3-3.6-2-5.4-.9-1.7-1.8-3.4-2.7-5.1-2.1-3.7-4.2-7.4-6.5-10.9-.4-.6-1.5-.8-2.3-1.2-.6.5-1.4.8-1.8,1.4-2.2,3.3-4.4,6.7-6.5,10.1-.7,1.2-1,2.5-1.5,3.8-.6,1.3-1.3,2.5-1.9,3.8-.6,2.1-1.2,4.2-1.8,6.3-.1,2.8-.3,5.7-.4,8.5.6,2.5,1.2,5.1,1.8,7.6,0,.3.2.7.3,1.4-1-.8-1.7-1.4-2.3-1.9-1-1.3-2-2.5-3-3.8-2.8-3.9-4.1-8.4-4.4-13.1v-.9c.3-2.3.5-4.6.8-6.8,0-.1,0-.3.1-.4v-.6c.2-.6.5-1.3.7-1.9,0,0,.1,0,.1-.2s.1-.3.2-.4c.7-1.7,1.3-3.3,2-5,2.1-4,4.2-7.9,6.2-12,.5-1.1,1.2-1.3,2.3-1.3h15.9c3.5-.8,5.5.9,6.8,4,0,.2.3.3.4.5h.2Z"/>
  <path class="cls-3" d="M232.2,217.9c-1.4-.7-2.8-1.5-4.1-2.2-1.4-1.7-2.7-3.5-3-5.9-.5-3.9,2-8.3,5.5-9.4-.5.5-1,1-1.5,1.4-4.6,3.7-3.4,12.6,2.5,14.9.9.4,1.9.6,2.8.9.4.1.8.3,1.2.5,0,.1,0,.3-.1.4-1.1-.2-2.2-.4-3.3-.6h0Z"/>
  <path class="cls-3" d="M437.1,102.9c.3,0,.6,0,.9-.1.6.4,1.2.8,1.8,1.2.7.8,1.5,1.6,2.2,2.4.4.5.8,1.1,1.2,1.6.5.8.9,1.6,1.4,2.4.6,1,1.2,2.1,1.8,3.1,1,2.5,1.9,5,2.9,7.5.2,1.8.4,3.6.6,5.3-.1,1-.2,2.1-.3,3.1-.4,1.4-.9,2.9-1.3,4.3-.4,1.2-.8,2.3-1.3,3.5-1.9,1.6-3.7,3.2-5.6,4.9-1.4.6-2.7,1.2-4.1,1.8-2.8,1.2-5.8.6-8.7.6-3.3-1-6.7-1.9-10-2.9-1.4-.8-2.8-1.6-4.2-2.5-.4-.3-.8-.7-1-1.1-.4-1.4-.6-2.8-.9-4.2,0-.3-.2-.6-.3-1v-.3c0-.1-.1-.3-.2-.4-1.6-3.5-3.2-7-4.8-10.5-.5-1.2-1-2.3-1.5-3.5,3.6-1.8,7.3-3.6,10.9-5.4,2.4-1.1,4.7-2.3,7.1-3.4,4.4-2.2,8.9-4.4,13.3-6.6v.2ZM415.8,118.6h0c-1,.5-2.1,1.1-3.1,1.6h-.3c-.2.2-.4.4-.7.6-.2.2-.4.4-.6.6-1.2.3-1.2,1-.6,1.9.3.8.6,1.5,1,2.3,1,2.5,2.1,4.9,3.1,7.4.5,1.3,1,2.6,1.5,3.8,0,.8.1,1.6,1.2,1.6.3.2.7.4,1,.6.6.3,1.3.6,1.9.9.3.2.6.5.9.5,3.3.8,6.7,2,10,2.2,6,.4,11.2-1.7,14.3-7.3,2.6-4.6,3.1-9.5,1.7-14.6-.9-3.8-2.6-7.3-5-10.4-.3-.5-.6-1.1-.9-1.6-.1-.2-.2-.4-.4-.6-.3-.2-.6-.4-.9-.7,0-.2-.2-.3-.3-.5-.1.2-.3.3-.4.5h-1.2c-.9.5-1.7,1-2.6,1.5h-.9c-.2.3-.4.5-.7.7l-.6.3c-.3.2-.6.4-1,.6h-.9c-.2.2-.4.4-.7.6-.4.1-.8.2-1.2.4-.9.5-1.7,1-2.6,1.5-.7.2-1.4.5-2.1.7-.4.3-.9.6-1.3.9h-.6c-.2.2-.4.4-.7.6h-.6c-.9.5-1.7,1-2.6,1.5-.9.3-1.8.7-2.8,1-.2.2-.4.4-.7.6l.4.3Z"/>
  <path class="cls-3" d="M476,92.3c.7.2,1.5.4,2.2.6,1.8.5,3.7.9,5.9,1.5-3.2.3-6,.5-8.7.7-1.3,0-2.7.2-4,.2-.3-.9-.6-1.7-.8-2.5-.5-.6-.9-1.1-1.5-1.8.9.2,1.7.3,2.5.4,1.5.3,3,.6,4.5.9h-.1Z"/>
  <path class="cls-3" d="M190,137.5c-.3.6-.6,1.1-1,1.7-1.5,2.5-2.9,5-4.4,7.5-.8,1.1-1.6,2.1-2.4,3.2-.1.2-.2.3-.3.5-1.4,1.2-.7,3.4,1,4.9.5.3,1,.7,1.5,1,1.1.9,2.1,1.9,3.2,2.8,1.6.9,3.1,1.8,4.7,2.7,2,.5,4,1,5.9,1.6.4.1.7.4,1.1.6-3.7,1.2-7.4,1.8-11.3,1.2-2.5-.7-5-1.4-7.6-2.2-1.9-1.4-3.8-2.7-5.7-4.1-.6-.6-1.3-1.3-1.9-1.9-.9-1.1-1.8-2.1-2.7-3.2-.4-.5-.9-1-1.4-1.6.4-1.2-.7-2.1-1.4-3.1,0,0-.1-.2-.2-.3,0-.1-.2-.3-.2-.4-.3-.9-.6-1.9-.9-2.8-.1-.6-.3-1.2-.4-1.8,0-.1,0-.3-.1-.4v-.5c-.2-2.3-.5-4.6-.7-6.9,0-.9,0-1.9.1-2.8v-.9c.4-1.5.5-3,1.2-4.3.9-2,2.2-3.8,3.4-5.7l2.9-2.9c.4-.2.8-.5,1.1-.7,2-1.7,4.2-3.2,7-2.7h14.1c1.5-.2,3-.4,4.5-.4s1.3.4,2,.5h3.7c-1.2,1-2.2,1.7-3.2,2.5,0,0-.2,0-.3.1-.1,0-.2.1-.3.2-.5.4-1,.8-1.5,1-2.8,1.3-3.9,3.7-4.6,6.5-.6,1.5-1.2,3-1.7,4.4-.3.7-.6,1.5-.9,2.2-.3.7-.7,1.5-1,2.2s-.7,1.5-1,2.2h-.3ZM186.1,135.6c0-.1.1-.3.2-.4.3-.9.7-1.9,1-2.8,0-.3.2-.6.3-.9v-.2c0-.1.1-.3.2-.4.1-.5.2-1,.4-1.6l.6-2.8c0-1.2,0-2.4.1-3.5-.6-1.3-1.6-1.7-2.9-1.4-.4,0-.8.2-1.2.2-1.9,0-3.7-.2-5.6-.1-.7,0-1.5.5-2,1-.7.9-1.1,2-1.6,3l-.5,1.8-.2.4c0,.2-.1.4-.2.5,0,.2,0,.4-.1.7-.1.4-.2.8-.4,1.2,0,1.7-.2,3.4-.2,5.1.2,1,.4,2.1.6,3.1.7,1.8,1.4,3.5,2.1,5.3,1.3,1.7,2.7,1.9,4.2.5.9-.8,1.5-2,2.2-3,.8-1.6,1.7-3.2,2.5-4.8.1-.3.2-.6.4-.8h0Z"/>
  <path class="cls-3" d="M113.2,149.6c0-.3-.2-.6-.3-.9v-.6c0-.1,0-.3-.2-.4-.3-1.7-.5-3.5-.8-5.2.2-2.2.5-4.4.7-6.6,0-.3.2-.6.4-.9.5-1.3,1-2.5,1.5-3.8.7-1.3,1.5-2.5,2.2-3.8.6-.7,1.2-1.5,1.8-2.2.3-.3.6-.6.8-.8,1-.9,2-1.7,3-2.6.6-.2,1.3-.4,1.9-.6-.4.9-.8,1.9-1.3,2.8-.6,1.7-1.2,3.3-1.9,5-.3,1.8-.6,3.6-.9,5.4v2.2c.7,2.2,1.4,4.4,2.2,6.5.2.2.3.5.5.7,1.5,2.9,3.7,5.3,6.2,7.4,1.7,1.3,2.8,1.2,4.5-.1.8-.6,1.5-1.3,2.2-2,1.2-1.3,2.3-2.5,3.5-3.8.8-1.1,1.7-2.3,2.5-3.4.4-.8.9-1.6,1.3-2.5,2.2-4.2,3.6-8.8,4.4-13.5.2-1.6.3-3.2.5-4.7v-4.9c.6,0,1.2-.1,1.7-.2h11c1.1-.1,2.1-.2,3.2-.3.4.2.7.3,1.2.5-.9.8-1.9,1.6-2.8,2.3-.2.2-.5.4-.7.6-.5.5-1.1,1-1.6,1.5-.8.9-1.7,1.7-2.5,2.6-1.2,1.9-2.4,3.8-3.6,5.7-1.5,2.8-2.9,5.6-4.4,8.5-.8,1.2-1.5,2.5-2.3,3.7-.7.9-1.4,1.9-2.1,2.8-.3.3-.6.7-.9,1-.8.9-1.5,1.9-2.3,2.8,0,0-.2.2-.3.2s-.2.2-.3.3c-1.3,1.1-2.5,2.3-3.8,3.4-1.3.9-2.5,1.9-3.8,2.8-.4.3-.8.6-1.3.9-2.5,1.6-5.1,3.1-7.5,4.8-.4.3-.6,1-1,1.5-.4.8-.8,1.5-1.2,2.4-.6-.5-1.2-1-1.7-1.5-1.1-1.3-2.2-2.6-3.3-3.9-.5-.8-1.1-1.7-1.6-2.5,0-.1,0-.3-.2-.4h0c-.5-1-.9-2-1.4-3s-.5-1.3-.8-1.9c0-.4-.3-.8-.4-1.2h0Z"/>
  <path class="cls-2" d="M124.6,120.8c0,.1-.3.2-.4.3,0-.1.3-.2.4-.3Z"/>
  <path class="cls-3" d="M239,211.4c-1,1.4-2.3,1.8-3.8,1.7-1.4,0-3.3-1.7-3.6-3.1-.3-1.3.2-2.5,1.7-3.7-.6,2-1.5,3.9.6,5.2,1.7,1.1,3.4.4,5.2,0h0Z"/>
  <path class="cls-3" d="M327.5,153.7c0,.2-.2.4-.3.6-2,3.2-4.2,6.2-7.2,8.6.3-.9.5-1.9.8-2.8.2-.7.3-1.5.5-2.2v-.2c0-.1,0-.3.1-.4v-.9c.7-3.3.6-6.5.1-9.8-.2-.8-.3-1.6-.5-2.4,0-.2-.1-.4-.2-.6v-.6c-.5-1.4-.9-2.9-1.5-4.3-.8-1.7-1.7-3.4-2.6-5.1-.7-1.4-1.4-2.8-2.1-4.1s-1.5-2.7-2.2-4c-.9-1.3-1.9-2.5-2.8-3.8-.7-.9-1.4-1.9-2.2-2.8-.6-1-1.3-2.1-1.9-3.1h13.5c.2.2.4.5.5.7s.3.4.4.6c.6.9,1.2,1.9,1.9,2.8.2.4.4.8.6,1.2.3.5.6,1.1.9,1.6.9,1.9,1.9,3.8,2.8,5.7.3.7.6,1.5.8,2.2.2.5.4,1,.6,1.5.5,1.9,1,3.8,1.5,5.6.1,1.8.2,3.6.3,5.3v2.8c0,.5,0,1-.1,1.6-.6,2.2-1.2,4.4-1.9,6.6l.2-.3Z"/>
  <path class="cls-3" d="M273.4,201.9c-.2-.1-.4-.2-.7-.4v-.2c.3,0,.6.2.8.2,0,.1-.2.2-.2.3h.1Z"/>
  <path class="cls-3" d="M273.7,201.6l.3.3s-.1.2-.2.3c-.1,0-.2-.2-.3-.3,0-.1.2-.2.2-.3Z"/>
  <path class="cls-3" d="M274,201.9c0,.1.2.2.3.3h-.5s.1-.2.2-.3Z"/>
  <path class="cls-3" d="M274.5,203c0-.1,0-.3-.1-.4.1,0,.2,0,.4.1,0,.1-.1.2-.2.3h0Z"/>
  <path class="cls-3" d="M264.9,215.4c.3-2,.5-4,.8-6,0-.2.4-.4.7-.6.1,0,.3.1.4.2-.4,2.2-.7,4.3-1.1,6.5h-.8Z"/>
  <path class="cls-3" d="M257.6,184.7c.5,1.7,1,3.4,1.4,5.1.4,4.2-.9,7.9-3.1,11.4-.2.3-.5.7-.9,1.3-1-3.1-.9-5.8-.9-8.6,1-2.6,2.1-5.1,3-7.7.2-.4-.1-1-.2-1.5s-.2-1-.3-1.5c.3.5.7,1.1,1,1.6h0ZM258.4,192.9l-.9-.3c-.4,1.7-.9,3.5-1.3,5.2.2,0,.4.1.6.2.5-1.7,1.1-3.4,1.6-5.1h0Z"/>
  <path class="cls-1" d="M244.4,180.6c.3.2.6.4,1,.6-.3-.2-.6-.4-1-.6Z"/>
  <path class="cls-3" d="M238.4,207.9c0-.4,0-.7.1-1.2.5.3,1,.6,1.4.9,1.3,1.1,2.6,2.2,3.8,3.3,0,.1,0,.3-.1.4-.4-.1-.9-.2-1.2-.4-1.4-1-2.7-2-4-3.1h0Z"/>
  <path class="cls-3" d="M246.9,213.2c-1.3.9-2.5,1.9-3.8,2.8-.5.3-.9.7-1.4.9-.2,0-.5-.3-.7-.5,1.4-1.1,2.8-2.3,4.2-3.4,1.9-1.6,3.9-3.2,5.8-4.8,1.1.9,2.1,1.7,3.2,2.6,0,.2,0,.3-.1.5-.4,0-.9,0-1.3-.1-.6-.2-1.2-.5-1.8-.7-1.4.9-2.7,1.8-4.1,2.8h0Z"/>
  <path class="cls-3" d="M256.3,214.4c-.1.1-.2.2-.3.3-.3.3-.6.6-.9.9-.7.6-1.4,1.1-2.1,1.7-1.2.9-2.4.9-3.6-.2-.3-.3-.7-.5-1.1-.8-.1-.3-.2-.7-.3-1,.3,0,.7-.1,1,0,.8.4,1.7,1.3,2.4,1.2.8-.1,1.5-1.1,2.2-1.7.3-.3.6-.6.9-.9.6-.8,1.3-1.5,1.9-2.3.2,0,.5-.2.7-.2.3-.2.5-.3.8-.5.2-.1.3-.2.5-.3h1.4c-.2.4-.3.8-.6,1.1l-2.7,2.7h-.2Z"/>
  <path class="cls-3" d="M358.5,145.2c-.1,1-.3,2.1-.4,3.1-1.6,5.4-4.5,9.9-8.8,13.5,0,0-.2-.1-.2-.2,2.5-6.9,3-13.9.8-20.8-1-3.3-2.8-6.5-4.4-9.7-2.5-5.3-6.1-10-9.6-14.6-.4-.6-.9-1.1-1.6-1.9h7c1.7,0,3.5.2,5.2,0,1.4-.1,2.3.4,2.8,1.6.2.4.5.7.7,1,1,2.4,2.6,3.8,5.2,3.2-.4,1.4-.7,2.7-1,4,.7,1.6,1.4,3.1,2.1,4.7.5,1.5,1,2.9,1.6,4.4.3,3.9.5,7.7.8,11.6h-.2Z"/>
  <path class="cls-2" d="M349.3,161.9s-.2.1-.3.2v-.4s.2.1.2.2h0Z"/>
  <path class="cls-3" d="M373.1,114.7h1.2c.7.7,1.5,1.4,2.2,2,.8,1.4,1.6,2.7,2.3,4.1,1.9,4.3,3.9,8.7,5.8,13,.3.7.4,1.6.5,2.4.2,2.3.3,4.6.5,6.8,0,3.1-.6,6.2-1.7,9.1-1.4,2.3-2.8,4.6-4.3,6.8-.8,1.1-2.1,2-3.1,3h-.3v-.7c.5-2.2,1.1-4.4,1.6-6.6,0-.4.1-.8.2-1.3.8-6.6-.5-12.7-3.7-18.5-2-3.6-4-7.3-6-10.9-.2-.4-.6-.7-.9-1-.6-.8-1.2-1.7-1.7-2.5-.5-.6-1.1-1.3-1.6-1.9-.4-.6-.8-1.2-1.2-1.9-.5-.4-1.1-.8-1.6-1.2h0c-.1,0-.2-.1-.3-.2,0-.2.2-.4.3-.6h11.9,0Z"/>
  <path class="cls-3" d="M404.8,116.7h-.2c-1.5-2.4-3.1-4.7-4.8-7.5h11.5c.4,0,.8.3,1.2.5-.2.3-.4.7-.6.9-1.7,1.6-3.4,3.1-5,4.6-.2.2-.5.5-.7.7,0,0-.2.1-.3.2-.1.1-.2.2-.4.3l-.6.3h-.1Z"/>
  <path class="cls-2" d="M412.3,112.9c-.2.1-.4.2-.5.3v-.2c0-.1.2-.2.4-.3,0,0,0,.1.1.2Z"/>
  <path class="cls-3" d="M186,131.1c-.1.3-.2.6-.4.9-.4,1.2-.8,2.3-1.3,3.5-.2.5-.4,1-.6,1.5-.4.7-.8,1.5-1.2,2.2-.7,1-1.4,2.1-2.2,3.1-.4.4-1,.6-1.5.9-.8-1.9-1.7-3.8-2.5-5.6-.1-.7-.3-1.4-.4-2.2,0-1.8.2-3.6.3-5.4v-1.2c.2-.5.5-1,.7-1.6.2-.5.4-1,.6-1.5.8-2.4,2.5-2.8,4.7-2.6,1.6.2,3.2,0,4.9,0,0,1.2-.1,2.2-.2,3.2-.1.7-.3,1.4-.4,2.1-.2.9-.4,1.7-.5,2.6h0ZM181,137.8c1.8-2.8,2.8-5.9,3.4-9.2v-1.4c-.3,0-.8-.2-1.1,0-.8.5-1.6,1-2.1,1.7-2,2.9-2.3,6.3-2.1,9.7,0,.3.3.6.6,1.3.5-1,.9-1.6,1.2-2.2h.1Z"/>
</svg>