<?xml version="1.0" encoding="UTF-8"?>
<svg id="Calque_1" data-name="Calque 1" xmlns="http://www.w3.org/2000/svg" version="1.1" viewBox="0 0 500 300">
  <defs>
    <style>
      .cls-1 {
        fill: #75683b;
        stroke-width: 0px;
      }
    </style>
  </defs>
  <path class="cls-1" d="M249.8,4.8h78.5c4.1,0,6.1,1,6,5.6-.9,68.2-9,135.2-32.4,199.5-10.9,30-25.7,57.8-47.8,81.5-4.8,5.1-4.8,5.2-9.4,0-21.9-24.3-36.3-52.9-47.4-83.4-14.4-39.4-22.8-80.3-26.9-122-2.4-24.5-3.2-49.1-4.5-73.7-.4-7.3,0-7.3,7.1-7.3h77v-.2ZM250.4,12h-72.5c-4.4,0-6.5,1.2-6.1,6.1.6,7.1.6,14.4,1.1,21.6,3.1,50,10.2,99.4,25.3,147.3,10.1,32.2,23.5,62.8,45.7,88.9,5.2,6.1,5.4,6.1,10.5.2,20.5-23.5,34.2-50.9,44.4-80,20.3-57.7,28-117.5,30-178.4.2-4.6-1.9-5.7-6-5.7-24.2,0-48.3,0-72.5,0h0Z"/>
  <path class="cls-1" d="M283.2,86.3c-5.5-19.8-17.6-33.2-30.1-46.7-.6.3-1.3.5-1.9.8,1.9,6,3.8,12,6,18.9-4.1,2-6.8,6.2-5.7,12.3-4.8-4.1-5.6-9.6-3.7-15.7,1.6-4.9,2.4-10.2,2.4-15.8-9.9,10.1-18.4,20.8-23,34-4.7,13.6-1.2,27.5-1.6,41.7,10.1-6.6,19.6-13.4,24.8-23.6,8.6,8.2,17.4,16.2,25.8,24.4,4.9,4.8,7.3,10.3,7.6,14.6-3-2.6-7-5.8-10.8-9.3-2.6-2.3-4.6-2.5-7.4-.2-5.1,4.2-11.3,5.8-17.8,5.7-9.3,0-12-2.8-11.4-11.8-7.4-1.6-11.6,1.5-11.5,8.6.2,15.1.5,30.2.7,45.2,0,4.1.8,6.5,5.9,6,7.4-.8,12.3,3.4,15.9,9.4,1.3,2.3,2.4,4.7,4,7.8,1.5-2.5,2.6-4.2,3.7-6,4.4-6.5,9.4-11.8,18.3-10.9,1,0,2.8-2,3-3.3.4-3.1,1.1-6.9-5.8-5.6,4.7-2.2,9.1-6.9,13.3-13.9v49.1c-.2,0-.4.2-.5.3-.6-1.9-1.1-4-1.9-5.9-1.3-3.1-2.5-6.3-4.4-9-4.1-5.8-10.3-5.7-13.8.4-2.3,4-4.4,8.6-4.9,13.1-2.6,20.1-4.7,40.3-7,60.4-.2,1.8-.3,3.5-.4,5.3h-1.3c0-1.9,0-3.8-.3-5.6-1.3-18.3-2.4-36.4-4.2-54.6-.5-5.6-2.6-11.1-5.1-16.1-4.1-8.3-12.8-8.6-18-.9-2.4,3.5-3.8,7.7-5.7,11.8v-15.2c0-31.8,0-63.8-.4-95.6-.2-13.7,3.8-25.7,11.6-36.7,1.9-2.6,3.8-5.1,5.6-7.8,6.4-9.4,12.9-19,19.3-28.3,0,0,.6,1.2,1.2,2.3,6.9,10.9,13.5,22,20.7,32.6,6.6,9.7,10.7,19.9,8.8,33.4h.2ZM236.3,112.4c9.5,1.8,18.7,3.4,28.8,5.3-9.7-12.7-19.5-14.2-28.8-5.3ZM249.7,122c0-.6,1-3.1.4-3.6-1.9-1.5-4.3-2.6-6.7-3-1.4-.3-3.2,1.2-4.8,1.9,1.7,1.1,3.3,2.6,5.1,3.4,1.5.7,3.4.7,6.1,1.2h0ZM253.1,116.9c-.5,3.1-1,5.5-1.5,9.1,4.4-1.9,7.8-3.3,11.4-4.8,0-.5-.2-1.1-.3-1.6-3.1-.9-6.2-1.8-9.5-2.7h0Z"/>
</svg>