<?xml version="1.0" encoding="UTF-8"?>
<svg id="Calque_1" data-name="Calque 1" xmlns="http://www.w3.org/2000/svg" version="1.1" viewBox="0 0 500 300">
  <defs>
    <style>
      .cls-1 {
        fill: #75683b;
        fill-rule: evenodd;
        stroke-width: 0px;
      }
    </style>
  </defs>
  <g id="surface1">
    <path class="cls-1" d="M73.9,44.9C21.5,62.4,3.5,89.4,4.3,119.3c1.6,25.1,32.3,59.8,62.8,68.6,9,1.9,12.7,10.8,8.3,18.3-17.5,23.9-18.6,48.7-2.9,42.6-7.2,0-8.4-7.7-6.1-9,3.4-2.4,7.2-4.8,10.6-6.9,1.3,2.9,2.4,5.6,3.9,8.4-.5-3.1-1.3-6.9-1.9-9.8,15.3-11.7,41.3-11.1,59.8-8.4,9.8,1.3,11.4,7.4,26.2,12.5,9.2,3.1,28.3,0,35.8-27.5,3.7,3.4,7.4,6.6,11.1,10-3.4,9.2-1.3,13,2.7,15.3-4.5-6.9-2.7-10,.3-13.8,4.5,1.9,9.8,2.9,17.8,0,1.3-.5,2.2,1.6,1.1,3.4-3.9,13.3,1.1,21.2,7.7,27.3,2.7,2.2,3.7,6.9,5,9.8,1.1-2.4,1.9-5.3,2.9-7.7,1.3-2.7,15.6-11.9,9.8-29.4-.8-2.4,0-4.5,1.3-3.9,3.4,1.1,15.9,2.9,18.3.5,2.9,3.1,2.7,8.4-.5,13.5,3.7-.8,6.4-8.3,2.9-14,5.8-1.9,11.1-6.1,15.9-11.4,5.8,18.6,16.9,27.5,28.1,28.3,13,1.1,16.9-1.9,33.4-11.9,18-10.6,52.6-5.8,71.7,6.4,0,7.2-2.4,9.8-4.2,13.5,2.4-2.7,4.8-4.8,7.2-11.4,2.4,1.1,4.8,2.7,7.4,5.3-.8,3.9-3.9,7.2-6.9,9.2,19.8-3.7,9.5-25.6,3.4-40-1.6-3.1-1.3-5,2.9-5.6,19.5-3.1,33.9-18.6,42.9-33.4-5.6,4.5-10.8,1.6-11.1-4.8v-40.3c5.3-1.1,11.7-5,17.8-10.8,6.9,20.6.5,31.5-3.1,43.4,21.4-30.7,2.4-65.4-19.8-77.8-5.8-3.1-17.5-9.8-30.7-15.9-11.9-5.6-17.5-15.1-22-22v51.1c-5.6-4.8-8.4-12.7-12.5-26.7-5.6,29.4-18.8,38.9-33.9,43.4,4.5,2.7,7.4,5.3,7.4,9.8,0,21.7-.3,43.7,0,65.4,0,6.9-3.1,11.4-6.6,13,4.2,1.3,9,3.7,12.2,5.8,1.3-6.6,7.4-8,7.2-14-3.4,3.9-6.6,5.3-6.1,2.2v-81c6.6-5.3,13.5-12.2,19.5-22,3.7,6.4,7.2,11.9,11.4,16.1,0,15.9-.3,31.7-.5,47.6-11.7-7.4-14.3-16.4-10.8-26.7-6.1,9.8-5.3,20.6,5.3,32.3,9.2,10,6.1,17.8-5.8,20.3,18,1.1,36.2-12.5,34.7-33.1-1.3-18.8-9.2-31.7-14.3-39.5v-42c11.4,8.4,28.3,9.5,43.7,20.6v39.7c-17.2,11.7-19.5,24.7-15.6,30.9-2.2-8.4,1.9-19.1,15.9-25.6v15.9c0,7.2-6.9,11.4-10.3,16.4-5,7.7-2.7,14.8,1.9,14.5-6.1-6.9,0-12.5,8.4-17.5v20.1c-9.2,14.3-40.3,16.4-58.7,7.7,3.7,15.9,30.2,29.4,33.9,40.8.8,2.4,1.1,5,1.3,7.7l-8.4-5.3c-2.4-32-62.5-24.1-99.3-21.4-17.8,1.6-28.1-3.7-22-10.3,2.4-2.4,4.8-4.5,7.2-6.9l-8.4-4.2v-49.5c6.9,5.3,6.4,11.1,4.5,16.9,9-6.4,11.7-17.5,3.4-30.7-2.4,3.1-5,7.2-7.4,10.6v-5.6c-1.9-1.6-4.2-3.4-6.1-5-1.6,4.8-6.4,10-9.8,12.5,2.4,1.9,4.2,3.4,4.2,6.4,0,15.3-.3,30.7-.3,46.4-1.1,1.9-2.4,3.9-3.4,5.8,3.4.5,3.9,1.9,4.8,3.1,7.4,12.7,11.9,19.5,18.8,22.8,7.4,3.7,17.8,2.9,37.3,1.6-7.7,5.3-21.7,12.7-32,10-11.4-2.9-22.2-13-25.1-31.7-6.9,8.7-15.6,16.9-20.1,18-3.1-3.1-6.9-6.1-7.4-8.7-.3-1.9,1.6-5,2.7-6.1,1.9-2.2,2.4-2.4,4.5-.8,14.5-18.3,14.3-21.4,10.6-28.1.8,7.2-1.6,11.9-5.3,15.3-3.7-1.6-7.4-3.1-12.5-4.2v-11.4c6.4-5.8,11.7-10.6,19.5-24.1,2.2-4.2.8-7.4-.8-10-4.2-6.4-9.5-11.4-16.1-16.7-6.1,6.9-12.2,11.7-18,13.5,2.7,5.6,3.1,50.6,0,54.8,14.3-.8,12.2,13.5,4.5,22.5-4.8-3.4-9.8-7.7-14.5-11.1-4.8,3.9-9.8,7.7-14.5,11.7-8.3-7.4-7.4-15.9-2.9-23.9-1.3-1.9-2.7-3.7-4.2-6.6v-47.3c0-2.4,1.3-5.8,3.4-8-3.4-1.1-6.1-2.4-8.7-5.6-2.4,3.9-5.6,7.2-9.8,10,2.2,1.3,4.5,2.9,4.5,4.8v45.5c-1.3,1.6-2.9,3.9-3.9,5.6,5.8,6.6,9.2,12.7,10.3,19.3-1.9,3.1-3.9,6.1-6.1,8-5.8-3.7-11.4-9.8-16.4-17.2-8.3,44.7-39.2,31.2-46.1,25.1,21.7,1.3,31.7-2.7,39.2-23.3,2.7-7.7,10-13,15.1-19.5,0-11.1-.3-22.5-.5-33.6-2.2-1.6-4.2-3.4-6.4-5,2.2-3.9,5.6-6.9,6.9-11.9,1.3-4.8-.8-9.5-6.1-9.8,3.1,1.6,5.3,5.8,3.9,8.3-.5,1.3-1.9,2.2-5.6.5-3.4-1.6-6.9-3.7-9.8-7.4-6.4,8-12.2,14.3-17.5,17.2,0,10.8,3.1,21.2,6.4,29.4-7.4,13.5-9.2,27.5,1.3,30.7-4.2-4.2-6.9-5.6-5.6-13.5,4.2,3.7,9,8,13.3,11.9-1.6,8.7-9.2,10.3-18,10-75.7-10.8-90.6,1.1-92.6,21.2-2.9,1.9-5.8,3.4-8.7,5.3,0-8.7,7.7-21.2,23-29.1,10.6-5.6,21.4-14.8,24.8-24.4-30.9,7.2-48.4-.8-72.5-15.1-19.5-11.7-34.7-28.9-35-46.1-.3-27.8,19.1-48.7,56.9-61.7,2.4,24.8-11.1,30.9-20.9,42.9-18,18.3-22,33.6-15.3,41.5-4.2-14.8,4.5-28.3,18.6-38.6,6.6-5,13.3-10.3,18.8-16.9v16.1c-11.1,13.3-24.8,23.3-18.8,29.7-1.9-9,14-19.8,18.6-20.3v31.2c-17.8-.8-25.6,2.7-29.1,8.4,15.1-9.8,34.4-3.1,52.2,7.2,12.7,8,23,12.5,34.7,11.9,2.2-2.2,3.7-5.8,4.2-11.1-3.7,2.9-7.7,3.7-12.2,2.2-15.1-4.8-26.4-10-39.7-15.9v-19.1c2.9-2.7,7.4-1.9,14.3,2.2,5.6-2.7,11.1-5,16.7-7.7-9,2.4-13,3.9-17.5-2.7,14.3-8.7,29.1-17.2,43.4-25.9-15.6-10-20.9-25.6-22-46.6-8.7,10-31.5,15.6-36.2,28.6v-29.1h.3-.6ZM75.2,124.1c14.3-9,28.6-18.3,42.9-27.3-8-10.6-14.5-23-14.5-40-17.8,5.6-29.4,16.9-28.9,27,.3,13.8.3,26.4.8,40.3,0,0-.3,0-.3,0ZM130.6,218c-14,.5-22.8-3.9-50.6,8.3,3.7-9,9-20.1,48.4-19.5,19.3.3,30.2,6.9,52.4,4.5-1.1,8.7-20.1,9.8-38.9,8.4-24.4-16.9-47.9-6.6-57.7,3.7,11.9-7.2,32.8-13,46.6-5l-.3-.3h0ZM135.9,201.1c-2.4-3.7-5.6-6.9-9-9.8,1.6-1.6,4.5-3.9,4.2-7.4,0-14,.3-29.1,0-42.9,0-2.4-1.9-3.9-3.9-5.8,2.9-3.9,6.4-8.3,9.5-12.2,2.4,1.3,4.2,3.1,6.6,4.5l-.8,5c3.4-.5,5.3-3.4,8.3-9.8,4.8,3.1,10.8,6.1,16.9,6.4-2.7,3.4-3.7,6.1-3.7,8.4v44.7c0,2.7,2.4,5.6,4.2,7.2-3.7,3.4-6.6,7.7-9,11.9-2.2-2.4-4.8-5-6.9-7.4.5-3.1,1.1-6.1,1.1-8.7v-38.6c0-2.4.5-5.3,1.6-7.2-4.2-1.3-8.4-3.1-12.5-4.8v47.3c0,3.1,1.9,6.4,3.7,7.7-5.3,2.9-9.5,11.4-9.5,11.1l-.8.3h0ZM197.3,142.5c-3.7,4.8-7.4,9.5-11.1,14-3.7-6.6-4.5-13.8-4.5-20.3s.5-3.1,2.4-2.2c4.2,2.9,8.7,6.4,13,8.4h.3ZM191.7,152.8c.8-1.1,3.4,1.9,3.4,3.4,0,10.3.3,19.3.5,29.4,0,1.3-1.3,1.9-2.4.8-4.8-4.5-9.5-9.2-14-13.8-.5-.8-1.1-1.9-.3-2.9.8-1.3,11.9-15.9,12.7-16.9h0ZM218.2,96.5c2.9,4.5,6.1,9,9.8,12.5-4.8,5-3.9,10-3.9,14.8-.8-.8-1.6-1.3-2.7-1.9.5-2.4-.5-16.7-3.4-25.4h.3,0ZM261.3,94.1c4.5,12.7-1.1,10.8-10,2.4-5.3,6.4-10.6,12.5-16.9,14.8,1.3,6.1,1.6,13.5,1.1,20.1-2.4,2.9-4.5,5-6.9,8.3,2.2-.8,5.3-1.9,7.7-1.6,0,23.3-.3,46.8-.3,70.4,2.9-2.7,6.4-5,10-7.2,0-21.2.3-41.5.5-63.3,2.9,0,5.8,0,8.7.5,0-3.9,0-7.4.8-11.1-2.9.8-5.8,1.1-9.2.5v-19.5c3.1,2.2,6.1,3.9,9.2,6.1,2.7-3.1,5.6-6.6,7.7-10,2.7-4.5-1.1-9-2.7-10.3h.3ZM223.4,212.5c1.3.8,3.1,2.2,4.5,2.9-3.7,2.4-7.7,2.4-10.8,1.3,1.1-.8,4.8-3.1,6.4-4.2h0ZM269.7,212.5c-1.3.8-3.1,2.2-4.5,2.9,3.7,2.4,7.7,2.4,10.8,1.3-1.1-.8-4.8-3.1-6.4-4.2h0ZM246.5,211.7c-3.1,2.2-5.8,5-8,8,3.7,5,6.9,10.3,8,15.9,1.3-5.6,4.5-11.1,8.3-15.6-1.9-2.9-6.9-7.4-8.3-8.3h0ZM236.3,223.3c5.8,6.4,9,15.6,7.7,27.8-6.6-7.7-13-14.3-7.7-27.8ZM256.3,223.3c-5.8,6.4-9,15.6-7.7,27.8,6.6-7.7,13-14.3,7.7-27.8ZM272.1,136.7c14.8,14,13.3,24.1,0,32.8v-32.8ZM335.6,121.6c2.7,3.1,5.8,4.8,8.7,6.6-2.2,1.6-3.4,4.8-3.4,9.5v45.3c2.2,1.9,4.5,3.4,6.6,5.3,1.3-1.3,2.9-2.7,4.2-3.9,0-14.5,0-29.1-.3-43.9,0-5.6-1.3-5.8-4.2-8,3.7-3.4,7.7-6.4,10-10.6,2.2,2.7,5.6,5,8.4,6.4-2.4,2.7-3.4,5.8-3.7,9.2v45.5c1.3,1.9,2.7,3.1,4.2,5-3.4,3.9-6.6,9.2-9,13.8-2.9-5.3-5-8.3-8-11.9-3.9,2.7-7.7,7.4-10.3,11.4-2.9-5-6.4-8.7-12.7-10.6,1.9-2.2,3.1-4.8,3.7-8.7v-44.7c0-2.2-2.9-3.7-4.5-4.8,1.9-1.3,9.5-9.2,10-11.1v.3h.2ZM382.8,215.6c15.6.3,14.3-.3,45.5,9.8-4.2-7.4-9.5-19.1-53.7-18.8-21.7,0-33.9,6.6-58.7,4.5,6.9,8.3,32,6.1,53.2,5,20.3-10.8,47.1-4.8,54.8,5.6-13.5-6.1-23.9-10.3-41.1-6.1h0ZM421.7,118.8c11.1,18.6,10.8,34.7,0,44.2,0,0,0-44.5,0-44.2ZM472,91v25.9c5.6-2.7,11.9-10.3,12.2-14-1.1-3.4-8.7-10.6-12.2-11.9"/>
  </g>
</svg>