<?xml version="1.0" encoding="UTF-8"?>
<svg id="Calque_1" data-name="Calque 1" xmlns="http://www.w3.org/2000/svg" version="1.1" viewBox="0 0 500 300">
  <defs>
    <style>
      .cls-1 {
        fill: #75683b;
        stroke-width: 0px;
      }
    </style>
  </defs>
  <path class="cls-1" d="M496.3,200.7c-1-.5-2-.9-2.9-1.4-1.6-.8-3.1-1.8-4.7-2.3-2.4-.8-4.8-1.9-7.4-2-1,0-2-.7-3.1-.9-1.6-.4-3.1-.8-4.7-1.2-.5-.1-1-.2-1.4-.4-3-1.4-6.1-2.1-9.3-2.4-.7,0-1.3-.4-1.9-.5-1.3-.2-2.5-.4-3.8-.5-.4,0-.9,0-1.3-.2-1.7-.5-3.3-.8-5.1-.7-1,0-2.1-.3-3.2-.6-.1,0-.2-.1-.3,0-1.3,0-2.7.1-4,.2-1.4,0-2.8.2-4.1,0-1.2-.2-2.3-.2-3.4,0-1.7.5-3.5.2-5.3.8-1.5.5-3.3.3-4.9.5-.7,0-1.4.5-2.1.5h-3c-.9,0-1.9.1-2.8.3-1.1.2-2.1.5-3.2.7-.3,0-.5.1-.8.2-2.2,1.1-4.6,1.5-7,1.9-2,.3-4.1.3-6.2.6-.9.1-1.7.5-2.6.7-.6.2-1.2.5-1.9.6-1.6.3-3.2.6-4.8.8-.9.1-1.9,0-2.8,0s-1.1.4-1.6.8c-1.4,1.2-2.9,1.1-4.1-.3-.4-.5-.8-1-1.3-1.5s-.9-.8-1.4-1.1c-.9-.5-2.1-.8-2.6-1.5-.9-1.3-2.1-1.9-3.3-2.7-2.1-1.4-4-3.1-5.9-4.8-.9-.8-1.9-1.6-3.3-1.7-.4,0-.7-.4-1-.6-.9-1-2.2-1.4-3.4-1.7-.3-1.1.4-2.1,1.8-1.8,1.1.2,2.3.1,3.4.4.8.2,1.5.6,2.3.9s1.7.6,2.6.8c.8.2.9.7.9,1.4.6,0,1.1.3,1.7-.2.3-.3,1.1,0,2,0l-2.3-2.3c-1.1-1.1-2.1-2.2-3.1-3.3-.6-.7-1.4-1.2-1.8-2-.6-1.1-.7-2.4-.6-3.7v-9.5c0-1.1.1-2.3.2-3.4v-2.9c0-1.4,0-2.7-.5-4.1-.2-.5,0-1.1,0-1.7s-.3-1.2-.4-1.7c0-.2,0-.5.1-.7,1.1-1,2.2-1.9,3.4-2.9,1.3-1.1,2.6-2.3,3.9-3.3.9-.7,1.9-1.2,2.8-1.8.8-.6,1.7-1.2,2.5-1.7.7-.5,1.4-1.1,2.4-1.1s.4,0,.5-.2c.5-1.4,2.2-1.5,2.9-2.8.5.5.9.9,1.4,1.3,1.5,1.1,2.1,2.9,3.3,4.2.9,1,2.1,1.9,3.1,2.9.7.8,1.3,1.7,2,2.5.9,1,1.7,2.1,2.7,3s.7,2-.6,2.7c-1.9,1-3.9,2-5.9,3s-1.3.4-1.9.6c-.6.2-1.2.5-1.7.8-1.4.8-2.7,1.7-4,2.5-.3.2-.6.3-.9.5-1.4.9-2.9,1.7-4.3,2.6-.3.2-.5.7-.5,1.1v5.5c0,1.4-.4,2.8.6,4-.3,1.3,1.1,1.6,1.7,2.3.6.8,1.6,1.2,2.4,1.8.8.5,1.5,1.1,2.4,1.5s1.9,1,3,.4c1-.5,2.1-1.2,3.2-1.6,1.8-.7,3.6-1.3,5.5-1.7,1.6-.4,3.2-.6,4.9-1,0,0,0,.2.1.3-.6.4-1.2.9-1.9,1.3-3.2,1.9-6.4,3.6-9.5,5.6-1.7,1.1-3.4,2.4-5,3.6-.2.1-.4.2-.9.4.4.2.7.3,1,.3s.6,0,.8.2c.8.3,1.5.3,2.3.4,1.5,0,3,.5,4.4.7h.9c.6,0,1.1,0,1.7.2.4,0,.8-.2,1.2-.2,2-.2,3.9-.4,5.9-.6.7,0,1.4,0,2.1-.1.6,0,1.1-.3,1.7-.4.8-.2,1.7-.4,2.5-.5,1.4,0,2.5-.6,3.2-1.6-1.3-.5-2.6-1-3.9-1.6-1.1-.5-2.1-1-3.1-1.5-.1,0-.3-.2-.4-.4,0,0,.1-.3.2-.4,1.5-1,3.1-2,4.5-3.1.5-.4.8-1.3.9-2,.1-1.4,0-2.8,0-4.2,0-2.1.1-4.1.2-6.2v-8.8c0-1.6.2-3.2.1-4.8,0-1.1-.2-2.3-.3-3.4,0-.4.2-.8.2-1.2s0-.7-.2-.9c-.3-.6-.2-1.1.4-1.4,1.4-.8,2.7-1.7,4-2.6.9-.6,1.9-1.2,2.7-1.8.3-.2.4-.6.7-.9.2-.2.4-.2.8-.5-.5-.6-.8-1.3-1.3-1.8s-1-1-1.6-1.5c-.2-.2-.5-.4-.6-.4-1.2.3-2-.5-2.7-1.1-1.8-1.4-3.5-2.9-5.2-4.4-.6-.5-.7-1.3-.9-1.9-.3-1.1-.5-2.3-.8-3.5-.2-1.1-.3-2.2.3-3.2.4-1,.6-2.1,1-3,.6-1.3,1.3-2.5,2-3.8.4-.7.8-1.4,1.2-2.1.9-1.6,1.9-3.2,3.3-4.5.6-.6,1-1.4,1.6-2.1,1.2-1.2,2.5-2.4,4.2-3,.6-.2,1.1-.3,1.4.3-.5,1-1,2-1.4,2.9-.6,1.3-1.3,2.6-1.8,3.9-.4.9-.7,1.9-.7,2.8s.4,1.7.4,2.5c0,1.4.8,2.5,1.3,3.7.5,1.3,1.6,2.2,2.5,3.2.6.6,1.2,1.2,1.8,1.9.8.9,2,1.2,3.1,1.5,2.3.7,4.5,1.4,6.5,2.6s2.2.8,3.3,1.3c.7.3,1.3.6,1.9,1,.8.5,1.6,1,2.3,1.5,1,.7,2.2,1.3,3.1,2,1.5,1.2,3,2.5,4.4,3.8.7.6,1.2,1.5,1.7,2.2,1.2,1.7,2.4,3.3,3.5,5.1.6,1,.9,2.2,1.1,3.3.3,2.2.4,4.4.6,6.5,0,.6.5,1.1.5,1.6,0,2.5,0,5-.2,7.5,0,.6-.2,1.2-.1,1.8.2,1.6-.7,2.8-1.5,4.1-.9,1.4-1.8,2.7-2.7,4-.5.6-1.1,1.2-1.7,1.8,0,0-.1.2-.2.2-1.6-.2-1.8,1.2-2.5,2.1-.2.3-.5.5-.7.7-1.1,1.1-2.2,2.2-3.4,3.3,0,0-.2,0-.3.2-.2.2-.6.5-.6.5.2.3.5.8.8.8,1.6.2,3.1.5,4.7.5s4.2.4,6.3,1c1.9.5,3.8.8,5.7,1.2.9.2,1.9.4,2.8.7,2.3.7,4.6,1.4,6.8,2.4,1.2.5,2.5.6,3.7,1.1,1.5.6,3.1,1.2,4.5,1.9,2,.9,3.9,1.9,5.9,2.9s2.3,1.2,3.5,1.8c1.5.7,3,1.2,4.4,2,2.3,1.2,4.4,2.6,6.4,4.3.2.2.3.6.5.9.1.5-.3.3-.5.4v-.2h-.1ZM428,176.1c.8.4,1.6.8,2.3,1.2,2.1,1.2,4.3.6,6.3-.1,1.1-.4,2.1-1.4,3-2.2,1.3-1.2,2.6-2.4,3.9-3.7,0,0,.2-.2.2-.4.4-1.3.8-2.5,1.1-3.8.5-2.2,1.3-4.3,1.1-6.6,0-1.1-.3-2.2-.3-3.3,0-1.8-.5-3.5-1.3-5.1-.4-.9-.7-1.9-1.1-2.8-.3-.8-.5-1.8-1.1-2.4-1.6-1.4-3.4-2.7-5.2-3.9-1.4-.9-2.9-1.6-4.3-2.6-1.4-.9-3-1.3-4.2-2.5-.9-.9-2.3-.9-3.6-.9s-1.8.4-1.9,1.4c-.2,1.7-.3,3.4-.4,5.1v3.1c0,1,.1,2,0,3s0,1.9,0,2.9v18.3c0,1.3.2,1.4,1.4,1.9.9.3,1.8.8,2.5,1.4.5.4.8,1.2,1.2,1.8.1-.1.3-.2.4-.3-.1.2-.2.4-.2.4h.2ZM376.8,148.3c.1.3.5.7.6,1.1.1.7,0,1.5.2,2.2.4,1,0,2,.2,3,.1.4.5.9.8.9.7,0,1.5,0,2.2-.2,1-.3,1.9-.9,2.9-1.3,1.7-.7,3-2,4.1-3.4.3-.5.1-1.2-.3-1.4s-.8-.4-1.1-.7c-1.1-1.1-2.3-2.3-3.3-3.5-1.2-1.5-2.9-2.1-4.5-3-.7-.4-1.2,0-1.2.8v2.9c0,.8-.3,1.6-.5,2.6h-.1Z"/>
  <path class="cls-1" d="M106.5,104.7c1.1,1.2,2.1,2.4,3.2,3.5.5.6,1.1,1.1,1.6,1.6.8.9,1.4,1.9,2.2,2.8,1,1.3,2,2.5,3,3.8.4.5.8,1,1.1,1.6,0,.2,0,.6-.2.7-1,.9-2,1.9-3,2.8-1.1,1-2.3,2-3.5,2.9-.2.2-.5.4-.7.6-.5.4-.9.9-1.8.7-.6-.1-1.4.2-2.1.5-.6.2-1.1,0-1.7-.3-.9-.4-1.9-.8-2.9-1.1-.6-.2-1.3-.3-2-.4-1.6-.2-3.3-.4-4.9-.5s-3.3-.1-4.9-.2c-.8,0-1.6.1-2.4.2h-15.7c-1.2,0-2.5.1-3.7.2-.4,0-.6.2-.6.6v5.5c0,1.8.3,3.6.3,5.4s.7.9,1.2.9c1.1.2,2.2.2,3.3.2,2.4,0,4.9-.1,7.3-.2,1.8,0,3.7.2,5.5.1,1,0,2.1-.3,3.1-.4,1.6,0,3.2,0,4.8-.2.5,0,1-.3,1.5-.3h4c2.1,0,4.2-.2,6.3-.3h.7c1.5,0,3,.2,4.5.2s2.7,0,4.1-.2c2.3-.2,4.7,0,6.8,1,1.7.7,3.2,1.9,4.3,3.5v.7c-.6-.2-1.1-.3-1.4-.6-.9-.8-2-.6-3.1-.6-3.2,0-6.1,1.1-9.1,1.9s-3.1.7-4.7.9c-1.9.3-3.8.6-5.7.8-.6,0-1.2-.2-1.7,0-1.6.7-3.3.5-5,.5-2.7,0-5.4-.2-8.1-.3h-11.3c-1.9,0-3.7-.2-5.6-.3-.6,0-1.3.1-2.1.2-.5,1.1-.4,2.4-.4,3.7v1.4c0,2.2.2,4.5,0,6.7,0,3.2-.2,6.4-.3,9.6,0,1.2-.3,2.3-.3,3.5,0,1.8.2,3.6,0,5.5,0,3.4,0,6.8-.2,10.2v.8c.2.9.9,1.3,2.3,1.4,4.5.2,8.7-.8,12.8-2.5,2.4-1,4.7-2.1,7-3.2,1.6-.8,3.2-1.7,4.8-2.6,1.1-.6,2-1.3,3.1-1.9,1.6-.8,3.2-1.4,4.9-2.1.5-.2,1-.6,1.6-.9.9-.4,1.8-.8,2.7-1.1.2,0,.4-.1.6-.1,1.4,0,2.8.1,4.2.1s.5,0,.6-.2c1.5-1.4,3.5-2.4,4.3-4.5.8-1.9,2.6-2.8,3.7-4.2v-3c-.5-1.7-.4-1.9,1.1-2.6.6,1,1.2,1.9,1.8,2.9.4.7.5,1.5.8,2.3.3.7.7,1.4.9,2.2.2.6.3,1.2.6,1.8.8,1.9,1.6,3.8,2.4,5.6.5,1.2,1.1,2.4,1.7,3.7.2.3-.7,1.3-1.2,1.5-1.4.5-2.7,1-4.1,1.5-.6.2-1.2.3-1.7.5-1.9.9-3.7,1.8-5.5,2.7-.5.2-1,.4-1.5.5-.4.2-.9.3-1.3.5-1.4.5-2.6,1.3-3.8,2.2-1.9,1.4-4,2.5-6,3.6-2.1,1.1-4.1,2.4-6.3,3-2,.5-3.6,1.7-5.5,2.2-1.4.4-2.8.8-4.3,1.1-1.3.3-2.6.5-3.8.7-.4,0-.8.1-1.1.2-.9.3-1.8,0-2.6-.3-.6-.2-1.2-.3-1.5.2h-3c-.2,0-.5-.1-.7-.2-.2,0-.4-.2-.5-.2-.7.6-1.2.1-1.7-.2h-.3c-1.8.3-3.4-.5-5.1-.7-1.2-.2-2.1-.7-3-1.5-.7-.6-1.3-1.4-2.4-1.5-.6,0-1.1-.7-1.6-1-.7-.4-1.4-.6-2.1-.9-.2-.1-.4-.4-.6-.5-.7-.5-1.6-.9-1.9-1.6-.5-.9-1-1.3-1.9-1.7-.8-.3-1.4-1.2-2.2-1.8-.5-.4-1.1-.6-1.6-.9-.4-.2-.7-.4-1.1-.6-.7-.5-1.4-.9-2-1.4-.9-.7-1.9-1.5-2.7-2.3-.3-.4-.4-1-.6-1.5,0-.2-.3-.4-.4-.6-.9-.7-1.8-1.4-2.7-2.2-.2-.1-.3-.4-.5-.4-2.1-.2-3.2-1.8-4.5-3.1-.9-.8-1.8-1.6-2.8-2.4-.7-.6-1.5-1-2.4-1.6.8-1.5,1.6-2.9,2.3-4.3.6-1.3,1.1-2.6,1.7-3.9.6-1.6,1.3-3.2,2.3-4.5.2-.3.5-.7.7-1,1.3-2.8,3-5.3,4.9-7.7.6-.7.9-1.6.5-2.7-.5-1.2-.7-1.4-2-1.4h-3.5c-.9,0-1.8-.2-2.7-.3-.8,0-1.5-.2-2.3-.3-2.1-.2-4.1-.4-6.2-.7h-1c-1.8-.2-3.7-.4-5.5-.5h-3.4c-1,0-2.1-.3-3.1-.3-1.8-.1-3.6-.2-5.4-.4-1.3-.1-2.6-.3-3.9-.5v-.3c.2,0,.5-.2.7-.2,2-.1,4-.3,6.1-.3h5c1.6,0,3.1-.1,4.7-.2.6,0,1.3,0,1.9.2,1.4.4,2.6-.2,4-.3h2.6c.5,0,.9-.2,1.4-.3.2,0,.4-.2.7-.2,2.1,0,4.1-.1,6.2-.2h4.6c2.6,0,5.2-.2,7.8-.4.3,0,.7-.4,1.2-.7-.7-.5-1.2-.8-1.6-1.2-1-.8-1.9-1.7-2.9-2.5-.9-.7-1.8-1.4-2.6-2.1-.3-.2-.6-.5-.9-.8-.9-1.3-2.4-2.2-3.1-3.7-.3-.7-.9-1.3-1.4-1.9-.2-.3-.3-.7-.5-1-.2-.4-.5-.8-.9-1-1-.5-1.1-1.2-.2-1.8,1-.7,2-1.4,3.2-1.8,1-.3,1.8-.9,2.7-1.3.3-.2.5-.6.8-.8,1-.6,2-1.2,3.1-1.8,1.5-.9,3.2-1.2,4.9-1.6.2,0,.5,0,.7.1,1.1.9,2.5,1,3.8,1.4,1.4.4,2.9.6,4.3.6h20.3c.9,0,1.8-.2,2.7-.2s1.6.2,2.5.1c1.8,0,3.6-.1,5.4-.2h4.3c2.2-.2,4.4-.3,6.5-.7,1.7-.4,3.3-1.4,4.2-3,.5-.9.7-2,.9-3,.2-.8.2-1.6.2-2.3,0,0,.2-.1.3-.2h-.4.3,0ZM61.7,144.9c-.5.4-.9.7-1.4,1.1-.4.3-.9.6-1.4.9-.3.3-.6.6-.9.9-2,1.5-3.2,3.6-4.3,5.7-.3.6-1,1.1-1,1.7,0,1.2-.9,2-1.4,3-.5,1.1-1.3,2.1-2.4,2.7-.3.2-.6.7-.7,1.1-.3,1.1-.3,2.3-1.1,3.3-.3.3-.3.9-.4,1.3,0,.9-.3,1.8-1,2.5,0,.1-.2.3-.2.5-.5,1.7,0,3.4.3,5.1,0,.6.6,1.2,1.1,1.6.8.6,1.8,1,2.7,1.6.8.5,1.4,1.2,2.1,1.8.3.3.7.6,1,.9.6.5,1.4.9,1.8,1.6.4.5.7.6,1.2.6s.6,0,.9.1c1.3.5,2.7,1.1,4,1.6,1.1.4,1.4.1,1.4-1.1v-5.1c0-2.8,0-5.5-.2-8.3,0-2.9,0-5.8-.2-8.7v-16.5h.1ZM61.3,136c0-.4.5-.9.4-1.3-.4-1.5.6-3,0-4.4v-5.8c0-.2-.4-.6-.6-.7-.9,0-1.8-.2-2.6,0-2.1.6-4.3,1.3-6.4,2.1-.8.3-1.4,1.5-.9,2.3.2.4.7.5,1.1.8,1,.9,2.1,1.9,3.1,2.8.6.5,1.4.9,1.8,1.5,1,1.4,2.3,2.3,4.1,2.6h0Z"/>
  <path class="cls-1" d="M177.6,158.2c.3,0,.5.1.8.2-.2.5-.4.9-.6,1.3h.3c0,.4.2.7.2,1.1v2.6c0,1.5.2,2.9.3,4.4,0,1.4,0,2.8.2,4.1,0,.4.4.8.7,1.2.8,1.2,1.8,2.3,3.4,2.4h1.9s.2.3.3.5v.2c-1.5.8-2.7,2.1-4,3.2-1.1,1.1-2.5,1.9-3.8,2.9-1,.8-2,1.7-3,2.5-.8.6-1.2.6-1.8-.2-.1-.2-.3-.3-.5-.5-.5-.4-.8-.7-.8-1.5s-.3-1-1.2-.9c-.2,0-.5-.1-.7-.3-1.2-1.2-2.4-2.2-4.1-2.7-.7-.2-1.3-.7-1.6-1.5.6-.4,1.1-.8,1.6-1.2.5-.4,1-.9,1.6-1.2.9-.4.8-1.5.9-2.4v-2.4c0-1.6.2-3.2.2-4.8,0-2.3-.1-4.5-.2-6.8,0-1.5.2-3,.2-4.4s-.2-3.2-.1-4.8c.1-1.2,0-2.3-.4-3.4-.6-1.4-1.7-2.3-3.3-2.4-.3,0-.7,0-1-.3-1-.9-2.1-.8-3.4-.6-1.1.1-2.2.2-3.1.9-.4.3-.9.7-1.2,1.1-.8,1-1.6,1.9-2.2,3-.4.7-.2,1.6-.3,2.4v.9c0,2.6,0,5.2-.1,7.8v1.4c-.3,1.4-.3,2.8,0,4.3,0,.4.1.8,0,1.1-.5,1.1-.3,2.1-.2,3.2.2,1.8.1,3.6.4,5.3.1.7.8,1.3,1.3,1.8.6.7,1.2,1.2,1.8,1.9,0,.1-.1.6-.3.8-1.5,1.5-3.1,2.8-5.1,3.5-.7.3-1.1,1.1-1.7,1.4-.7.3-1.1.9-1.3,1.5-1.3.2-1.8-.9-2.6-1.5-1.2-1-2.3-2.2-3.7-2.9-1.4-.7-2.4-1.8-3.5-2.7-.1-.1-.2-.3-.4-.5.6-.4,1.2-.7,1.7-1,1.7-.9,2.8-2.2,2.6-4.3,0-1,0-1.9-.4-2.8,0-.1.1-.4.1-.6,0-.8-.1-1.6-.1-2.3,0-1.6,0-3.1.2-4.7,0-.2.2-.5.3-.6.5-.4.3-.9.3-1.5-.1-1-.4-2.1.2-2.9-.2-.6-.3-1.1-.5-1.6-.8-1.7-.4-3.4-.4-5.1s-.5-4.1-1.9-5.7c-.3-.3-.8-.5-1.1-.5-1.3.2-2.7.5-4,.8-.7.1-1.3.4-2,.6-.1,0-.4-.1-.4-.2,0-.3,0-.7.2-.9.4-.5,1-.8,1.5-1.2,1.4-1.2,2.7-2.6,4.2-3.7,1.5-1.1,2.7-2.4,4-3.7s.9-1.1,1.4-1.6c.6-.7,1.2-.7,1.9-.2,1,.6,2,1.2,3,1.8.3.2.6.4.8.7.6,1,1.1,2,1.7,3,.7,1.2,1.3,2.4,2.7,3.1,1,.5,2.1.2,2.9-.5,1.3-.9,2.4-2.1,3.5-3.1,1.1-.9,2.3-1.7,3.5-2.5,1.3-.8,2.7-1.5,4-2.2.2-.1.6-.1.9,0,2.2.8,4,2.1,5.7,3.6,1.1,1,2.4,1.7,3.6,2.6,1.1.8,2.1,1.7,3.1,2.6.5.5.3,1.3-.3,1.6-.2,0-.3.3-.5.4-.8,1.1-1.1,2.3-1.1,3.6v7.2c0,.8,0,1.7-.9,2.2,0,0,0,.2-.1.4l-.2.2h0Z"/>
  <path class="cls-1" d="M300.7,184.2c-.3-.1-.8-.3-1.1-.4-.2-.1-.6-.3-.6-.5,0-1-.8-1.1-1.3-1.4-2.2-1.5-4.3-3.2-5.6-5.6-.3-.5-.7-.8-1.4-.5-1.7.9-3.5,1.6-5.3,2.4-.6.3-1.1.8-1.6,1.1-1.8,1.2-3.5,2.3-5.3,3.5-.8.5-.9-.4-1.3-.6-1.6-1.2-2-3-2.5-4.8-.3-1.3-1-2.4-1.7-3.6-.9-1.3-1.5-2.7-2.2-4.1s-1.3-2.9-1.9-4.3c-.1-.2-.2-.5-.2-.7-.1-1.3-.3-2.5-.4-3.8,0-1.9,0-3.7,1-5.5.9-1.7,1.8-3.4,2.7-5.2.7-1.3,1.4-2.7,2.3-4,1.2-1.7,2.6-3.3,4.1-4.8,1.2-1.2,2.8-2.1,4.2-3.1,2.2-1.6,4.5-3.1,6.7-4.7.6-.4,1.1-1,1.8-1.6.5.4,1.3.9,1.9,1.5,2.2,1.8,4.3,3.6,6.5,5.4.9.7,1.9,1.3,2.8,2,.4.3.6.7,1,.9.8.4,1.7.7,2.5,1.1.5.3,1.1.6,1.5,1,.2.2.2.7.1.8-.5.6-1,1.2-1.6,1.7-1.2,1.2-1.5,2.7-1.4,4.3,0,1.1.3,2.2,0,3.1-.6,1.5-.3,2.9-.3,4.4s-.2,3.8-.1,5.6c0,1.6.2,3.2.4,4.7v.5c0,.6-.3,1.3,0,1.7.6,1,1.4,2,2.7,2.1.7,0,1.5,0,2.2-.2,1-.2,2-.6,3-.9.3.7,0,1.5-.8,2.2-1.4,1.2-2.8,2.4-4.1,3.7s-1.5,1.9-2.3,2.7c-.7.7-1.5,1.2-2.2,1.9-.6.6-1.2,1.1-2,1.8l-.2.2h0ZM283.7,141v.2c-.2,0-.4,0-.6.1-1.2.7-2.4,1.5-3.5,2.2-.4.3-.9.7-1.2,1-.4.4-.9.9-1.2,1.4-.7,1.4-1.4,2.9-1.8,4.4-.4,1.4-.7,3-.6,4.4,0,1.4.7,2.7,1.1,4.1,0,.3.2.6.3,1,.2.6.3,1.2.5,1.8.5,1.2,1.6,2,2.1,3.3.4,1.3,1.4,2.4,2.1,3.5,1.3,1.9,2.4,3.9,4.7,4.9.7.3,1.5.5,2.2.6.5,0,1.1-.3,1.6-.5,1.4-.6,2.6-1.5,3-3.1.2-1,.4-2,.5-3,.3-2.6.6-5.2.7-7.8,0-2.4-.1-4.8-.1-7.2s.5-2.9-.1-4.3c-.5-1.1-.7-2.4-1.9-3.1-1.2-.7-2.2-1.6-3.4-2.2-1.3-.7-2.8-1.1-4.2-1.7h-.2Z"/>
  <path class="cls-1" d="M318.1,176.5c-.8-1.6.5-2.3,1.6-3.3s2.1-2.1,2-3.9c0-1,.4-2.1.6-3.1,0-.4.1-.8,0-1.2-.3-1.1-.4-2.3-.2-3.5.2-.7,0-1.5,0-2.3,0-1.2.2-2.5.2-3.7,0-2.2-.3-4.4-1.3-6.5-.7-1.6-1.2-3.3-1.9-4.9-.3-.8-.9-1.4-1.4-2.1,0-.1-.1-.3-.2-.5-.8-1.6-1.1-3.1,0-4.8,1-1.6,2-3.1,3.3-4.5h.3c.1,1.3.3,2.5.4,3.6,1.3.9,2.5,1.8,3.7,2.6.9.6,1.9,1.1,2.8,1.8,1.4.9,2.4,2.1,3.2,3.6.7,1.2.6,1.4,2,.7s2.1-1,3.1-1.5,1.6-.7,2.3-1.1c.7-.5,1.3-1.1,2-1.6,1.2-1,2.3-2.1,3.5-3,1.4-1.1,2.8-2,4.3-2.9.2-.2.6-.3.8-.2.2,0,.3.5.4.7v1.7c0,.3.3.6.4.9.2.4.4.9.4,1.3,0,1.6,1.1,2.7,1.9,3.9,1.4,2,2.8,3.9,3.7,6.1.7,1.8,1,3.8,1.7,5.6.5,1.2.5,2.5.5,3.7,0,2,.1,3.9-.1,5.9-.1,1.1-.9,2.1-1.3,3.2-1,2.7-2.8,4.9-5.1,6.5-1.7,1.2-3.2,2.6-4.8,3.8-.6.5-1.3.9-1.9,1.4-.8.6-1.5,1.2-2.2,1.9-.8.9-1.6,1.8-2.4,2.7-.9,1-1.4,1.1-2.5.3-1.3-.9-2.6-1.5-4.1-1.8-.8-.1-1.5-.7-2.2-1-2.5-1.1-4.9-2.4-7.5-3.3-1.8-.6-3.9-.7-5.9-1.1h0ZM340.9,176.6v-.3c.4,0,.8.2,1.1.2.6,0,1.4,0,1.9-.3,1.1-.6,2.2-1.4,3.1-2.2,1.1-.9,1.8-2,2.2-3.4.4-1.3.7-2.6,1.3-3.8.5-1.1,1-2.2.7-3.3-.4-1.7-1-3.3-1.7-4.9-.8-1.7-1.8-3.2-2.7-4.8-.4-.8-.9-1.5-1.2-2.4-.7-1.8-1.7-3.3-3-4.6-.1-.2-.3-.3-.4-.5-.5-.7-.9-1.5-1.4-2.2-.1-.2-.6-.3-.7-.2-2.4,1.2-5,1.9-7.1,3.5-.4.3-.7.9-.7,1.3,0,2.7-.4,5.3-.3,8,.2,2.5,0,5,0,7.5s-.1,2.2-.1,3.4,0,1.9.1,2.8c0,.8-.3,1.8.5,2.3,1.2.8,2.6,1.5,3.9,2.2.4.2.8.5,1.2.6,1.1.4,2.1.8,3.2,1.2h.1Z"/>
  <path class="cls-1" d="M265.5,170.5v.6c.4,1.5.3,1.9-1,2.6-1.7.9-3.4,1.6-5,2.5-1.5.8-2.9,1.8-4.3,2.8-.6.4-1.1.7-1.8.3-.9,1.6-2.6,2.3-3.9,3.4-.9.7-1.8,1.4-2.8,2.1-.2.1-.5.2-.7.1-1-.3-2-.7-3.1-1.1h-.2c.1-.5.3-.9.4-1.5h-1.8c-.6-1.3-1.4-2.3-2.7-2.9-.1,0-.3-.2-.3-.3-.4-1.5-1.6-2.4-2.5-3.6-.1-.2,0-.7.2-.9.5-.4,1.1-.8,1.7-1,1.1-.5,1.8-1.5,2.4-2.5.1-.3.2-.6.2-.9v-11.8c0-2.9-.2-5.8-.3-8.7,0-1.6-.2-3.2-.2-4.9,0-3,.1-5.9.2-8.9,0-2.6.1-5.1,0-7.7-.1-1.3-.6-2.6-1.8-3.4-.6-.4-1.1-1.1-1.8-1.7,0-.1.1-.4.2-.7.8-.1,1.6-.2,2.4-.4.4,0,.7-.3,1-.5.4-.2.9-.2,1.3-.4.6-.3,1.3-.6,1.9-1,.6-.3,1.1-.7,1.7-.9.3-.3.6-.6.9-.8.6-.4.9-.9,1.3-1.4.6-.8,1.6-1.4,2.4-2.1,1.4-1,2.7-2,4.2-2.8,1.3-.8,2.7-1.4,4-2,.2-.1.9,0,.9.2,0,.3,0,.9-.2,1.1-1.6,1.5-3.1,3-4.2,4.9-.6,1-.9,2.2-1.2,3.3-.3,1-.2,2.1-.6,3.1-.9,2.4-.4,4.9-.5,7.3v12.7c0,2.2,0,4.5-.2,6.7,0,1-.3,2.1-.3,3.1s.3,1.1.3,1.6c0,1.6.2,3.1.2,4.7s-.2,2.8-.1,4.2c0,1.3.4,2.5.6,3.8,0,.4.2.7.2,1.1,0,2.3,1.7,3.4,3.3,4.5.7.5,1.4,1.3,2.4,1,1.6-.5,3.2-.9,4.8-1.5.7-.3,1.3-.8,2-1.2.2,0,.4-.1.6-.2h-.2,0Z"/>
  <path class="cls-1" d="M194.9,159.6c-.5-1.5-.6-2.9-1.3-4.1-.8-1.4-.8-3-1.2-4.4-.3-1-.5-2-.8-3v-.4c.6-.6,1.2-1.4,2-1.8,1.5-.8,2.1-2.4,3.3-3.5,1.7-1.6,3.3-3.3,5.4-4.5,2-1.1,4-2.2,6.1-3.2,1.1-.6,2.2-1.1,3.4-1.6.7-.3,1.1-.1,1.5.4.9,1.4,1.8,2.8,3.3,3.7.6.4,1.3.7,2,.9.8.3,1.6.4,2.4.6,1.3.3,2.5-.3,3.5-.9.9-.5,1.7-1.1,2.5-1.6.3-.2.6-.2,1-.4.1,2.3-.5,4.2-1.8,5.8-.5.7-1.5,1.1-2.3,1.4-1.6.7-3.2,1.1-5,.7-.9-.2-2,0-2.9-.2-1.5-.3-3-.8-4.5-1.2,0-.3.1-.6.2-1h-.2c-1.7,0-3-.8-4.2-1.8-1.1-.9-2.4-.7-3.6.2-1.8,1.4-1.7,3.3-1.9,5.1v.3c-.6,1.4.4,2.5,1,3.6.3.7.7,1.4,1,2.1.5,1.3,1.8,1.6,2.8,2.1.5.3,1.2.3,1.9.4.9.1,1.6,0,2.4-.5.6-.4,1.3-.5,2-.7,1.8-.4,3.6-1.1,5.2-2.1,1.4-.8,2.9-1.4,4.4-2,.4-.2.8-.2.8.4.1,1.3,1.4,1.9,2,2.9.8,1.2,1.9,2.1,2.8,3.3,1.4,2,2.2,4.1,2.9,6.3.4,1.1.3,2.4.4,3.6,0,.3-.3.6-.5.9-.5.7-.6,1.5-.6,2.4s-.4,1.4-.7,2.1c-.4.9-1,1.7-1.4,2.6-.6,1.3-1.6,2.2-2.5,3.1s-.8,1-1.3,1.4c-.4.3-.9.6-1.3.9-1,.6-2.1,1.1-3.1,1.7-1.4.8-2.7,1.7-4.1,2.5-.5.3-.9.8-1.7.6-.4,0-1,.5-1.5.7-.4.1-1,0-1.4,0h-1.3c-.9-.4-1.8-.8-2.6-1.3-1.2-.8-2.3-1.7-3.4-2.5-.3-.2-.5-.5-.7-.6.2-.2.4-.4.6-.6-.2,0-.4-.1-.6-.2-.3-.1-.8-.1-1-.4-1-1-2.4-1.1-3.5-1.8-1-.6-2-.9-3.1-.7-1,.2-2.2,0-2.4,1.4,0,.1,0,.2-.2.3-1.3,1-1.5,1.4-2.2,3.1-.2.5-.7.9-1.1,1.2-.1.1-.4,0-.6,0v-.5c.2-1,.4-1.9.8-2.8.7-1.7,1.5-3.3,2.4-4.9,1-1.9,2.1-3.9,3.2-5.8.4-.7.9-1.5,1.4-2.3.6.4,1.2.7,1.6,1.1,1,.9,2,1.8,3,2.7.2.2.5.2.7.3,2,.3,3.5,1.7,5.3,2.6.6.3,1.2.4,1.7.7.9.5,2.2.4,2.8,1.5,0,.1.3.3.3.4,0,1.5.7,2.8,1.4,4.1,1,1.7,2.6,1.9,4,.6.5-.4.9-.9,1.3-1.4.8-.9,1.5-1.8,2.2-2.7.3-.5.7-1,.8-1.6.3-2.2,1-4.3,0-6.6-.3-.8-.2-1.7-.6-2.4-1.1-1.9-2-4-4.1-5.2-.4-.2-.7-.5-.9-.8-1-1.4-2.4-1.8-3.9-2.2s-3.1-.8-4.6-1.2h-.5c-1.5.3-3,.5-4.4,1-1.4.5-2.7,1.2-4,1.8-1.2.6-2.4,1.2-3.6,1.8h-.6,0Z"/>
</svg>