<?xml version="1.0" encoding="UTF-8"?>
<svg id="Calque_1" data-name="Calque 1" xmlns="http://www.w3.org/2000/svg" version="1.1" viewBox="0 0 500 300">
  <defs>
    <style>
      .cls-1 {
        fill: #75683b;
        stroke-width: 0px;
      }
    </style>
  </defs>
  <path class="cls-1" d="M413.5,199.1c-5.7-3-10.8-5.7-15.7-8.3-.4.2-.6.2-.7.3-3.4,7.2-9.2,9.7-16.9,9-1.6-.2-3.3-.2-4.9-.4-3.8-.5-7.2-.3-8.9,4-.2.6-1.2.9-2.2,1.5-.5-5,.9-8.8,4.8-11.3,2.4-1.5,5-2.7,7.6-4,11.2-5.4,12.8-19,3.2-26.8-2.2-1.8-4.6-2.6-7.4-1.6-.3,3.9.5,4.8,5.9,6.8-2.1,2.4-4.2,4.9-6.4,7.2-1.6,1.6-3.2.8-4.6-.4-2.1-1.8-4.1-3.7-6.4-5.9-1.6,1.5-3.6,3.1-5.1,5.1-1.8,2.4-3.6,2.7-6,1.1-3.8-2.5-5.9-5.8-5.9-10.5v-20.3c0-2.8-.1-5.3-3.2-6.8,1.8-1.9,3.5-3.5,4.9-5.4,1.7-2.4,3.3-1.8,5-.2,2.5,2.2,3.3,5.1,3.2,8.3,0,6.8-.1,13.5,0,20.3.1,5.1,2.5,7.2,7.6,6.6,0-7.3.2-14.7,0-22,0-2.8-1.1-5.5-1.9-9,1.4-1.1,3.7-3,6.1-4.6.6-.4,2.5-.2,2.7.3,1.3,2.4,2.9,4.9,3.1,7.4.5,5.3.1,10.6.1,16.4,2.8-.9,5.3-1.5,7.5-2.6s1.5-1.9,1.5-3c-.3-11.4,4.9-20,14.1-26.1,6.4-4.3,13.4-7.9,20.2-11.6,1.1-.6,3.1-.3,4.2.3,3.5,2,5.4,5.2,5.9,9.2.1.9.2,1.8.4,3.3,5.7-4.1,11-8,16.7-12.1-36.5-47.7-82-82.7-138.9-102.3,2.3.7,4.7,1.2,7,2,28.6,9.6,56.1,21.3,81,38.7,16.3,11.4,29.9,25.6,42.9,40.4,11,12.5,21.3,25.5,31.9,38.3.8.9,1.4,1.9,2.2,3.2h-8.4c.8,2.6,1.6,5,2.4,7.3,3.6,9.8,4,19.6.4,29.5-.9,2.4,0,4.1,1.5,5.9,9.6,11.9,19.2,23.8,28.8,35.6.9,1.1,1.8,2.2,3,3.9-1.2-.3-1.8-.4-2.3-.6-32.5-14.6-64.6-13-96.2,2.5-35.1,17.3-66.5,39.6-93.2,68.4-.9,1-1.8,1.9-2.7,2.8,0,0-.2,0-1-.3,13.8-20.3,29.7-38.4,48.6-53.8,19-15.5,40.1-27.4,64.2-35.6h.3,0ZM435.8,181.9c.8-.1,1-.1,1.2-.2,21.1-12.4,23.3-45.9,3.9-60.9-2.6-2-4.5-1.3-4.7,2-.3,3.8-.2,7.6-.2,11.4v13.6h6.3c-4.5,4-6.3,9-6.4,14.6-.2,6.4,0,12.9,0,19.6h0ZM399,157.1v22.4c0,2,1,3.2,2.9,3.8,2.8.8,5.7,1.8,8.5,2.5s3.5.1,3.6-2.8v-25.9h-15ZM414,147.7c0-7.3.4-14.3-.2-21.1-.2-2.3-2.8-4.5-4.4-6.7-.2-.3-1.3-.5-1.6-.3-3.6,2.3-7.5,4.6-7.9,9.5-.5,5.6-.7,11.2-1,16.9-.1,2.4,0,4.8,0,7.5,2.3-2.1,4.1-4.7,6.5-5.5,2.5-.9,5.6-.2,8.7-.2h-.1ZM396.4,180.4v-52.3c-3.4,3-4.3,6.9-4.4,10.9-.2,12-.2,23.9-.3,35.9,0,2.9,1.1,4.7,4.7,5.4h0ZM425.9,157.1v24.8c0,1.3,1.1,3.6,1.6,3.6,1.7,0,3.6-.7,4.8-1.8.9-.8,1.1-2.6,1.2-3.9.1-5.2,0-10.4,0-15.6v-7.1h-7.8.2,0ZM433.4,123.2c-6.2,2.4-8.9,6.4-8,12.9.5,3.7,0,7.4,0,11h7.9v-23.9h.1ZM456,183.9c-3.8,3.5-7.4,6.8-11.4,10.4h18.3c-2.4-3.6-4.6-6.9-7-10.4h.1ZM391.3,183.4c-2.2,2.5-4.1,4.7-6.2,7.1,5.6.7,7.1,0,9-4-.8-.9-1.7-1.9-2.8-3.2h0Z"/>
  <path class="cls-1" d="M112.4,175.4c-1.5,2.8-2.5,6.1-4.6,8.4-5,5.8-11.5,9.8-18.4,13.2-1,.5-2,1-3.6,1.8,48.7,16.5,84.8,48,112.8,89.8-.9-.8-1.9-1.5-2.7-2.3-12-11.9-23.9-24-37.4-34.3-21.3-16.1-43.9-30-68.7-39.8-27.4-10.8-55-9.4-82,2.1-.9.4-1.8.7-3.7,1.5,1.1-1.5,1.6-2.3,2.2-3,9.7-12.1,19.4-24.2,29.1-36.2,1.7-2,2-3.9,1.2-6.5-3.7-11.5-2.9-22.8,2.3-33.8.4-.8.8-1.6,1.3-2.7h-8.3c.5-.8.7-1.4,1.1-1.8,18.6-24.4,38.4-47.8,61.2-68.5,18.6-16.9,40.4-28.6,63.6-37.9,7.6-3,15.2-5.9,23-8.6-10.1,5-20.3,9.5-30.1,15.1-9.9,5.6-19.6,11.7-28.7,18.3-9.1,6.6-17.8,13.8-26.1,21.5-8.3,7.7-16.2,16-23.8,24.5-7.5,8.5-14.4,17.5-21.5,26.4.2.4.4.8.5,1.2,3.5,0,7.1.3,10.6-.1,2.2-.3,4.5-1.4,6.3-2.7,4.3-3.2,8.3-6.6,12.4-10.1,1.7-1.4,3.3-1.7,5.3-.8,7.2,3.3,14.6,5.9,22.7,5.9s1.9.7,1.9,1.1c0,.8-.4,1.8-1,2.4-3.9,4.2-8,8.3-11.9,12.4-1.5,1.5-2.8,3.1-4.9,5.3,3.5,0,6.1-.2,8.7,0,2.1.2,5.1-1.7,6.3,2,6.2-.9,11.5-3.5,15.7-8.8,4.3,2.2,8.7,4.4,12.4,6.2v56.6c-1.8-1.6-2.7-2.6-3.8-3.6-2.8,3-5.4,6.1-10.6,6,3.7-3.3,4.2-7.3,4.1-11.6v-12.5c-2.6-1.2-4.6-.5-5.9,1.4-1.8,2.7-4,3.6-7,2.5-4.7-3.1-5.9-7.6-5.6-13,.3-6.6,0-13.3,0-20s0-1.5-.3-2.9c-1.3,2.1-2.5,3.4-3.1,5-1.5,3.8-4.2,4.8-8,4.6-5.2-.3-10.4,0-15.7,0v37.7c2.6-.2,5.1-.3,7.5-.7,9.4-1.3,17.5-5.6,25.2-10.8h0ZM76.4,119.2c-4.8,2.4-7.1,5.6-6.8,11.1.5,7,.2,14.1.2,21.2s-2.6,12.1-8,16.1c-2.6,2-5.1,4.1-7.8,6.4,5.8,7.3,13.2,11.5,22.5,12.9v-67.7h0ZM56.9,133.7c-1.6,0-2.9-.1-4.2-.2-4.8-.4-5.1-.2-6.3,4.4-3,11.3-1,21.9,4.6,31.9.4.8.8,1.6,1.1,2.5,1.2-1.1,1.4-1.3,1.6-1.5,2.6-3.2,3.3-6.8,3.2-10.9-.2-8.7,0-17.3,0-26.2h0ZM117,138.1v24.9c0,2.1,4,5.7,5,4.9,1.5-1.2,2.2-3.3,3.1-5.1.2-.3,0-.8,0-1.2v-15.6c0-5.1-.4-5.7-5.3-7.1-1-.3-2-.5-3-.7h.2ZM79.6,144c6.1-5.8,11.8-11.2,17.7-16.9-6.1-2.2-11.8-4.2-17.7-6.4v23.2h0ZM55,194.3c-4.1-3.7-7.6-6.7-11.3-10-2.3,3.4-4.4,6.5-6.8,10h18.1Z"/>
  <path class="cls-1" d="M264.2,175.7c-3.2-2.4-7-5.3-10.8-8.3-.5-.4-.8-1.4-.8-2.1.2-11.1.5-22.3.7-33.4v-16.1c1.6.8,2.9,1.5,4.4,2.2,2.6-2.4,4.6-6.1,9.5-5.5-2.8,2.9-2.8,6.3-2.7,9.8.1,4.9,0,9.8,0,15,4.8-.6,7.2-4.1,10.2-7,4.6,3.3,7.4,7.1,6.7,13.1-.5,4.5-.3,9.2-.1,13.8.2,4.8-1.5,8.1-5.9,10.5-3.9,2.1-7.2,5.1-11.2,8h0ZM271.2,167.3v-25.4c0-1-.9-2.6-1.6-2.8-1-.3-2.7.2-3.4,1-.9,1-1.5,2.7-1.6,4.1-.2,5.3-.1,10.7,0,16,0,4.4,1.8,6.3,6.8,7.2h-.2,0Z"/>
  <path class="cls-1" d="M162.7,167.4c0-8.6.1-16.9,0-25.3,0-1.6-1.3-3.1-2.2-4.9,2.1-1.7,4.3-3.7,6.8-5.3.6-.4,2.5-.1,2.7.4,1.2,2.6,2.7,5.4,2.9,8.1.5,6.3.2,12.7.3,19,.1,6.1.4,6.4,6.2,9.1-1.4,1.8-2.6,3.7-4.1,5.4-2.4,2.9-4.7,3.1-7.6.5-1.8-1.6-3.3-3.6-4.8-5.2-1.8,1.7-3.6,3.4-5.4,5-2.9,2.7-5.5,2.6-8.3-.2-2.7-2.6-4-5.8-4-9.6v-20.3c0-2.6,0-5-3.2-6.1,2.5-2.6,4.7-5,7-7.4,4.8,1.9,6.5,5.6,6.5,10.2v20.9c0,4.4,2.4,6.3,7.4,5.9l-.2-.2h0Z"/>
  <path class="cls-1" d="M209.8,116.3c1.9,1.1,3.1,1.8,4.5,2.6,2.6-3,5-6.7,10.7-6.1-4.6,2.9-3.7,7-3.7,10.8v40.6c0,1.9,1,3.8,1.8,6.4-1.5,1.3-3.7,3.2-6.1,5.4-2.6-2.4-5-4.7-7.4-7-.4-.4-.5-1.1-.5-1.6.2-12.3.6-24.5.8-36.8v-14.2h-.1Z"/>
  <path class="cls-1" d="M297.2,176c-2.8-2.6-5.5-5-8-7.6-.5-.5-.7-1.6-.6-2.5.2-8,.5-15.9.5-23.9s-1.3-3-2.1-4.8c2.1-1.9,4.5-4.1,7.3-6.5,1.3,1.4,2.7,3.1,4.3,4.5.6.5,2.4.5,2.7.1,3.7-5.5,9-3.9,14.7-3.6-2.9,3.5-5.5,6.6-8.7,10.5-.5-.9-.8-2-1.4-2.2-1.2-.5-2.8-1.2-3.8-.8-1.1.4-2.4,1.9-2.5,3-.2,7-.1,13.9,0,20.9,0,2.9,2.1,4,5.4,4.1v-5.1c0-1.1.3-2.2.5-3.4,1.1.7,2.8,1.3,3.1,2.3.9,2.7-.4,5-2.4,6.9-2.8,2.7-5.8,5.2-9,8.1Z"/>
  <path class="cls-1" d="M329.4,176.1c-2.5-2.1-5-4.1-7.3-6.3-.6-.5-.7-1.7-.7-2.6.2-7.9.8-15.9.7-23.8,0-1.9-2-3.7-3.2-5.9,1.8-1.9,4.1-4.4,6.5-6.9,3.1,2.1,6.1,4.1,8.4,5.7-.5,3-1.2,5.5-1.2,8-.1,6.1,0,12.3,0,18.4s0,3,.6,4.2c1.3,2.6.7,4.6-1.4,6.4-.9.8-1.6,1.8-2.5,2.9h.1Z"/>
  <path class="cls-1" d="M186.2,137.3c1.7-1.8,4-4.3,6.3-6.7.5.3.9.5,1.2.7,5,2.6,7.9,5.3,6.4,12.2-1.5,6.5-.3,13.6-.3,20.5s0,1,.2,1.5c.9,3.9-.3,7.4-3.7,10.5-2.3-2-4.7-3.9-6.8-6s-.8-1.9-.8-2.9c.3-7.7.9-15.5.8-23.2,0-2-1.9-3.9-3.3-6.5h0Z"/>
  <path class="cls-1" d="M229.9,137.6c1.8-2,4.1-4.4,6.5-7,3.2,2.1,6.2,4.2,8.6,5.8-.6,2.9-1.4,5.3-1.4,7.7-.2,6.2-.2,12.5,0,18.7,0,2.4,1,4.7,1.8,7.9-1.1,1.2-2.9,3.2-4.9,5.5-2.5-2.2-5-4.1-7.3-6.3-.6-.6-.5-2-.5-3,.2-7.9.8-15.7.7-23.5,0-1.8-2.1-3.6-3.4-5.7h-.1Z"/>
  <path class="cls-1" d="M326,124c-4.7-6.8-3.7-9.2,4.9-10.6,1.5-.2,3-.4,4.6-.6-3.3,3.8-6.4,7.5-9.6,11.2h.1Z"/>
  <path class="cls-1" d="M193.2,124.2c-.6-1-1.8-2.6-2.5-4.3-.9-2.2-.2-4.2,2.1-4.9,2.9-.9,5.9-1.4,9.4-2.3-3.3,4.2-6.1,7.8-9,11.5Z"/>
  <path class="cls-1" d="M237,124.3c.6.3.5.3.4.2-5.3-6.7-4.3-9.3,4-10.9,1.4-.3,2.8-.3,4.3-.5-3,3.8-5.8,7.4-8.7,11.2Z"/>
</svg>