<?xml version="1.0" encoding="UTF-8"?>
<svg id="Calque_1" data-name="Calque 1" xmlns="http://www.w3.org/2000/svg" version="1.1" viewBox="0 0 500 300">
  <defs>
    <style>
      .cls-1 {
        fill: #75683b;
        stroke-width: 0px;
      }
    </style>
  </defs>
  <path class="cls-1" d="M222.5,165.1c3.5-1.4,7-2.8,10.4-4.3,4.3-1.9,9.2-3.3,12.8-6.2,7.9-6.3,9-14.9,5.9-24.2-.6-1.9-1.8-3.7-2.7-5.6-.3-.4-.7-.7-1-1.2-3-4.7-7.8-5.3-12.7-4.9-3.8.3-6.9,2.4-8.5,6.2-.5,1.4-.9,2.9-1.4,4.3,0,1.3,0,2.7.1,4,.5,4.3,2.5,7.7,6.2,10,3.3,3,7.3,3.3,11.5,3.2.2.5.3,1.1.5,1.6-6.4,2-12,.4-16.7-4.3-2-2.1-3.6-4.6-5.4-6.9-.2-.6-.3-1.2-.5-1.9-.2-.4-.3-.8-.5-1.2-.1-.4-.3-.9-.4-1.3,0-2.3-.2-4.6-.2-6.8,1.8-3.8,2.8-8.1,6-11,1.3-1.2,2.9-2.1,4.5-2.9.4-.2,1.3.3,2.1.6,2.6-3.4,10-3.2,13.4.9.7-.6,1.5-1.3,2.6-2.3,3.1,2.5,6.2,5,9.9,8,2.9-1.6,6.3-3.5,9.6-5.4,3.3-1.9,6.6-3.9,10.3-6,1,6.8,3,12.9,0,19.2.7.2,1.5.4,2.6.7,0-.7-.3-1.3-.1-1.7.5-1.6.9-3.3,3.4-2.5,2.9.9,6,1.6,8.9,2.5-4.9,3.3-9.8,6.6-15.1,10.1,1.6.6,3.1,1.2,4.6,1.8h0c0,.1.2,0,.2,0,.7.4,1.5.9,2.2,1.3h0c.6.4,1.3.9,1.9,1.3,1.7,1.8,3.4,3.6,5.1,5.5.2.2.4.5.5.7h0c.9,2.2,1.7,4.4,2.9,7.5-3.8-.3-6.9-.4-9.9-.8-.7,0-1.8-1.7-1.6-2,2.2-4.2-2.4-4.4-3.7-6.5,0,1.2-.1,2.3-.2,3.7-.7-.2-1-.3-1.2-.5-4.2-3.1-8.9-4.1-13.9-3.4-.9.1-2.1,1.2-2.4,2.1-1.6,5.4-4.9,9.4-9.7,12.1-2.8,1.6-5.8,2.9-9,4.5,2.5,1.4,4.7,2.7,7,4,6.1,4.3,13.1,6.4,20.9,7.4,2.1-1,5.2-2,7.4-4,2.3-2.1,3.7-5.2,5.1-7.1,0-1.4,0-2.3-.1-3.2.2-.2.3-.5.5-.7l.2-2.5c.6-1.1.9-2.1,2.7-1.9,2.4.3,4.9,0,7.5,0,1.5,8.4-12.2,22.9-18.8,20.9-2.3.8-3.6,1.4-5,1.9-5.1,1.5-10.3,2.3-15.5.6-1.6-.5-3.1-1.1-4.7-1.7h0c.9-2,1-3.6-1.9-3.7-.9,0-1.7-.9-2.6-1.5-2.1,0-4.1-.5-6.2-1.1-5-1.6-9.8-5.9-15.1-.6.2,1,.4,2.1.7,3.2-.1.2-.1.3-.1.5-1-.7-2.4-1.1-3-2.1-.6-1.1-.5-2.7-.8-4.1,0-.4.1-.8.2-1.2.1-.4.3-.9.4-1.3v.2ZM261.8,128.9c.4,2.3.8,4.7,1.3,7,.5,1.8,1.6,2.5,3.4,1.3,2.4-1.7,4.9-3.4,7.3-5.1.9-.5,1.8-.9,2.9-1.5-1.8-3.2-3.4-6.2-5.2-9.1-1.9-3-3.2-3.1-6-1.2-1.8,1.2-3.7,2.5-5.6,3.8.6,1.6,1.2,3.2,1.9,4.8h0Z"/>
  <path class="cls-1" d="M375.4,185.2c.4-.6.7-1.2,1.1-1.7,3.2-4.3,2.4-11.2-1.8-15.5-5.3,2.8-9,8.7-15.6,8.3-3.3-6.5-6.4-12.6-9.5-18.7v-1.8c1.8-.2,3.5-.5,5.3-.7v-.9c-2-.1-4-.2-6-.3v-2.4c.7-.6,1.5-1.1,2.2-1.7l-.9-.2c0-.6-.1-1.3-.2-1.9.1-.1.2-.3,0-.4.2-.3.4-.5.5-.8.9-1.6,1.7-3.1,2.6-4.7.4-.5.8-1.1,1.2-1.6,2.9-2.7,5.8-5.3,8.7-8,.7-.6,1.2-1.3,1.8-2,.2-.2.5-.4.7-.6.6,0,1.2-.2,1.8-.3.4.1.7.3,1.1.4h0c1.5.9,2.9,1.7,4.4,2.6h0c4.3,1.7,8.6,3.5,13,5.3-.9,1.8-2.2,4.3-3.1,6.9-.9,2.5-1.3,5.3-1.9,8.2.1.2.7.9.9,1.7.8,3.5,1.5,7,2.2,10.5,1.1,5.3,3.7,10.6.3,16-1.5,2.4-3,4.8-4.7,6.9-1.2,1.5-2.9,3.6-4.5,3.7-4.6.2-9.5,3.9-14-.4-4.8.2-7-3.7-9.7-6.6-.9-1-1.8-2-2.7-2.9.6-.4,1.2-.8,1.9-1.3,2.3,0,4.6,0,6.9.1h0c.8,1.4,1.7,2.9,2.5,4.4l1.2,1.2c1,.9,2,1.7,3,2.6h.2s-.1,0-.2-.1h2.7c1,0,1.9.1,2.9.1h.9c1.5-1,3.1-2.1,4.6-3.1l.2-.3ZM362.1,141.1l-1.2,2.1c-.2.4-.4.8-.6,1.3-.2.4-.3.8-.5,1.2-.4,1.9-.8,3.7-1.2,5.6v1.4c.1,1.5,0,3.1.3,4.6.8,4,2.8,7.2,6.2,9.7,2.1-1.4,4.2-2.8,6.2-4.2.4-.4,1.1-.9,1.1-1.3-.4-5.9,1.2-11.5,3.1-17,.2-.6-.5-1.9-1.2-2.3-2.1-1.3-4.4-2.3-6.6-3.4-2.7-1.4-4.5-.6-5.5,2.2-.2,0-.3.2-.2.4v-.3Z"/>
  <path class="cls-1" d="M95.9,192.7v-.7c.5-.8,1-1.6,1.6-2.4h0c.4-.6.9-1.3,1.3-1.9h0c.4-.6.9-1.3,1.3-1.9h0c.4-.7.8-1.3,1.3-2h0c3.5-5.3,6.4-10.9,7.6-17,1.9-9.4-1-17.5-8-24.4-1.9,1.4-3.7,2.6-5.3,4-.5.5-1.1,1.3-1.1,1.9,0,5.2-.2,10.4,0,15.6,0,2.2.8,4.3,1.2,6.5,2.6-.9,4.7-1.7,6.9-2.4h0c-.7,1.1-1.3,2.2-2.2,3.2-2.5,3-5.2,5.8-8.1,9.1-2.7-1.3-4.1-6.5-9.3-5.6.4-1,.6-1.7.9-2.3,2.7-2.1,3-4.8,2.8-8.1-.4-11.3-.5-22.6-.4-34,0-5.4.3-10.6-4.8-14.6,4-1.2,6,1.4,8.3,2.9,1.8-1.5,3.5-2.9,5.2-4.3,1.3-.3,2.6-.6,4.3-.9-1.8,4.6-4.1,8.5-4.8,12.7-.8,4.5-.2,9.2-.2,14.5,1.3-1,2-1.5,2.7-2,2.7-1.7,5.3-3.5,8-5.2.9-.6,2.1-.7,3.2-1.1-.5,2.9.5,5.4,2.4,7.6v1.1c-.4.2-1.1.4-1,.5.2,1.3.6,2.6.9,4,.6-1,1.1-1.7,1.5-2.4.3.4.7.9,1,1.3.9,3.3,2.1,6.5,2.6,9.8,1.1,9.3-1.6,17.9-5.7,26.2l.2.2v-.2c-3.6,3.9-7.1,7.8-10.6,11.8-1.1,1.3-2.1,1.3-3.3.3l-.4.2Z"/>
  <path class="cls-1" d="M446.5,126.9c.5.5,1.1.9,1.6,1.4.3.2.6.4.9.6,4.9,2.7,9.7,5.5,10.9,11.7.1.5,1.1.9,1.6,1.4.3,3,.7,6,.9,9,.4,6.2-1.1,7.3-6.5,5.6-.1-10.3-4-18-14.9-22-.9,2.6-2.2,5-2.6,7.6-.3,2.3.6,4.7.8,7,0,1.5-.3,3.1-.5,4.9,0,0,.4.3.9.7-.7.5-1.4,1.1-2,1.5,2.9.4,1.9,2.7,1.8,4.5-.2,5,0,5.4,4.6,6.9.6.2,1.2.5,1.9.7.3.2.6.5.7.5,2.4-.9,3.4,1.1,3.9,2.5.3.8-.9,2.3-1.7,3.4-1.1,1.5-2.4,2.9-3.7,4.5-4.4-6.4-11.6-6.5-18.3-8.9.9-1,1.5-1.7,2.1-2.4.5-.4,1-.8,1.4-1.2.4-.7.8-1.4,1.1-2.1,0-.4.1-.8.2-1.2v-16.9c-.2-2.3-.5-4.6-.7-6.9.2-.5.4-.9.7-1.4,1.8-1.6,3.5-3.3,5.4-5-5.4-2.3-9.1-5.4-9.7-11.2v-3.6c.2-.2.4-.5.5-.7,1.5-3.9,4-6.7,8.2-7.6.3-.2.6-.3.9-.5.9,0,1.8.1,2.7.2,1.2.4,2.4.8,3.6,1.2-.3,1.1-.6,2-1,3.2-1.1-.3-2.1-.5-3.4-.8-1.1,1.3-3.1,2.7-3.6,4.5-.5,2,.6,4.3,3.1,5,.8.4,1.5.8,2.3,1.1,2,1,3.9,2,5.9,3v-.2Z"/>
  <path class="cls-1" d="M158,138.2c2.2-1.8,4.3-3.6,6.6-5.3,1.1-.8,2.3-1.5,3.5-2.2.8.2,1.7.5,2.5.7l.6.6c1.9.9,3.8,1.8,5.8,2.7,2.4,1.1,4,0,5.2-2,1.6-2.6.7-6.8-1.5-8.5s-5.2-.9-7.7,1.8c-.8.8-1.5,1.7-2.5,2.3-.3.2-1-.1-1.5-.2.1-.9.2-1.8.4-2.6,0-.2.5-.3.7-.4-1.9-2.5.5-3.4,1.9-3.7,2.4-.5,5.2-1.1,7.3-.3,3.4,1.4,6.3,3.9,7.5,7.8,0,5.3-2.9,9.1-6.4,12.5-4.8,4.7-9,1.1-13-1.6-2.7-1.8-4.7,0-6.3,1.3-1.8,1.4-.7,3.3.6,4.8h0c.4.6.9,1.3,1.3,1.9h0c.5.6.9,1.2,1.4,1.9.1.2.3.3.4.5,1.2,1.6,2.4,2.3,3.5,0,1.2-1,2.5-2.1,3.7-3.1,3.2-.4,6.1-.1,8.7,2.1.5.6,1.1,1.1,1.6,1.7,1.3,2.1,3.5,4.2,3.9,6.4.8,5.3-.4,10.3-5.2,13.6-3.5,2.4-7.3,4.4-10.7,6.9-2.9,2.1-4.7,2.1-7.5-.8-3-3.1-7.5-4.6-11.4-6.9,1.8-1.6,3.6-3.2,5.3-4.9.9-.9,1.5-1.9,2.2-2.9.6.7,1.2,1.5,1.8,2.2,0,.2,0,.4.1.6.4.7.7,1.4,1.1,2.1.6.6,1.2,1.1,1.7,1.7,3.8,3.5,7.5,3.9,11.6,1.2.6-.6,1.2-1.2,1.8-1.8.2-.3.4-.5.7-.8v-.2c.1,0,0-.2,0-.2.3-2.2,1.1-4.6.8-6.7-.5-3.2-2.8-6.1-6-6.4-1.7-.1-4.2,2-5.5,3.7-1.8,2.4-3.7,2.2-5.5.8-1.8-1.3-3.4-3-4.7-4.8-1.8-2.4-3.3-5-5-7.7.3-.6.7-1.5,1-2.3h0c.6-.9,1.3-1.7,1.9-2.6l2.4-2.4c.4-.3.8-.6,1.2-.9l-.3.4Z"/>
  <path class="cls-1" d="M118,173.8c1.7-3.4,2.7-6.8,2.7-10.8s-1.5-6.2,1.6-7.3c-.6-1.7-1.3-2.7-1.4-3.7-.5-3.8-.7-7.6-1.1-11.8,3.1-1.5,6.9-3.3,10.7-5,1.2-.2,2.4-.4,3.7-.6,0-.3,0-.8.1-1.3h0c2.5-.7,4.9-1.5,7-2.1.9,1.8,1.5,3.3,2.2,4.7h0c.4.6.9,1.3,1.3,1.9h0c.4.7.9,1.4,1.3,2-.2,0-.2.2,0,.4.9,1.3,1.7,2.6,2.6,3.9h0c.6,1.5,1.4,3,1.9,4.6,1.2,4.2,2,8.5-.6,12.5-3.6,5.5-7,11.1-11,16.3-1.1,1.5-3.8,2-5.9,2.5-.6.1-1.6-1.5-1.9-1.9-1.5-.2-2.9,0-3.7-.7-2.7-2.2-5.6-3.7-9.2-3.4l-.3-.2ZM138.6,146.1v-.2h-.2c-1.4-2.2-2.7-4.4-4.4-6.3-.5-.6-2.2-1-2.9-.7-1.2.6-2.9,1.8-3,2.9-.4,2.9,0,5.9,0,8.9-.1,1.4-1.5,2.8-.3,4.3h0c-.3.3-.8.7-.8.9.5,4.1,1.1,8.1,1.7,12.2,0,.3.5.6.9.7,2,.9,3.9,1.8,6,2.4.8.2,2.2,0,2.7-.6,2.3-2.4,4.6-4.8,4.4-8.5v-4.7c-.6-2.4-1.2-4.9-1.8-7.3-.8-1.3-1.6-2.7-2.4-4h.1Z"/>
  <path class="cls-1" d="M74.1,150c1.2.2,2.4.4,3.8.7-.3,2.4-.5,4.7-.8,7.1h-2.7c0,.1,0,.3-.2.4.7.4,1.4.7,2.1,1.1-.3.7-.5,1.4-.8,2.1v1.3c-.2.6-.5,1.1-.7,1.7-.7,1.1-1.3,2.1-2,3.2h0c-.3.3-.7.5-1,.8-7.5,10.1-17.9,13.5-29.8,11.9-5.6-.8-11.2-2.8-16.4-5.2-9.4-4.4-15.2-12.3-18.4-22.1-.3-.8-.4-1.6-.7-2.9,1,.6,1.6.9,2.1,1.2,1.2-2.5,3.1-.1,4.6-.6.2,0,.8.6,1,.5,2.3-.9,4.5-.4,6.7.5,0,.2,0,.3.1.5.8,2,1.6,4,2.4,5.9v.2h0c0,.1,1.7,3.4,1.7,3.4h0c.5.6.9,1.2,1.4,1.8h0c.4.6.9,1.2,1.3,1.9h0c.4.6.9,1.3,1.3,1.9.2.4.5.7.7,1.1.2.2.4.5.6.7.3.4.6.8,1,1.2.7.9,1.4,1.7,2.1,2.6.4.4.8.8,1.2,1.2.6.5,1.2.9,1.9,1.4h0c2.8,1,5.5,2,8.3,3,.6,0,1.2.1,1.8.2.5,0,1,0,1.5.1.8-.1,1.5-.2,2.3-.3.5-.1.9-.2,1.4-.4.4,0,.7-.2,1.1-.3.3-.2.5-.4.8-.6h.5c.2-.2.5-.4.7-.6,5.3-1.5,8.6-5.2,10.6-10.1,2.1-5.2,2.8-10.6,1.1-16.1,2.5,0,5-.1,7.4-.2v-.2Z"/>
  <path class="cls-1" d="M69.8,135.3c4.3,3.7,7.6,7.8,7.6,14.1-1.2-.1-2.2-.3-3.1-.4-1.8-.3-3.7-.8-5.5-.8s-3.2-.8-4.6-2.3c-2.1-2.2-4.8-4.3-7.6-5.5-2.1-.9-4.9-.2-7.4-.3,0-.4,0-.9,0-1.1,1.4-1.1,2.9-2.2,4.3-3.3.7-.4,1.5-.9,2.2-1.3.3-.2.6-.4.9-.6.7-.4,1.3-.9,2-1.3l3-3.1c2.2-1.4,2.2-2.9.4-4.8-1.6-1.6-3-3.5-4.6-5.1-2.9-3-5.8-5.7-9.6-3.1-1.3-1.3-2.2-2.4-3.3-3.2-5.7-4.1-11.8-5.5-18.2-1.1,0,2.5-1.9,4.1-4.9,3.9,0-.9,0-1.7-.1-2.6,0-.3-.1-.6-.2-1,.2-.4.4-.9.6-1.3.2-.1.3-.2.5-.3,2.5-.8,5-1.7,7.6-2.5.4-.1.7-.2,1.1-.3,6.9-.4,13.2.8,18.1,6.4,1.2-.9,2.3-1.7,3.4-2.5h0c.9-.7,1.7-1.3,2.6-2,0,.1.3.1.4,0,.7-.6,1.4-1.2,2-1.8h0c.6-.4,1.2-.9,1.8-1.3h.5l1.4,1.4c1.9,2.5,3.7,5.3,6.6,6.8.9.9,1.8,1.8,2.6,2.7.2.1.4.2.6.4.8.7,1.7,1.4,2.5,2h0c.7.4,1.3.8,2,1.2h0c-1,1.3-1.8,2.8-3,3.7-2.7,2.2-5.7,4.2-9.1,6.6,2,1,3.3,1.6,4.5,2.2h0c.7.4,1.3.9,2,1.3v.2Z"/>
  <path class="cls-1" d="M198.1,122.6c.2-.2.4-.5.7-.7.2,0,.3,0,.5-.1-.1-.2-.3-.3-.4-.5.2-.6.4-1.1.6-1.7.2-.2.4-.5.5-.7s.1-.3.1-.5c.2-.2.4-.5.5-.7.2-.4.5-.8.7-1.2.4,0,.9,0,1.3-.1-.5,3.8-1.1,7.6-1.6,11.4-.2,1.9,0,3.9,0,6.1h7.7v7.4c-1.9,0-3.8.3-5.6,0-2.5-.3-3,1-3.1,3v4.7c0,.8.2,1.7.2,2.5v16.4c.4.6.7,1.2,1.1,1.9.6,0,1.2.2,1.8.2,1.4-.3,2.7-.8,4.1-1,.6,0,1.3.4,1.9.6-3.4,3.4-6.8,6.8-9.9,9.8-2.9-2.2-5.3-4-8-6.1v-32h-6.3c1.3-1.5,2.2-2.5,3.1-3.6,1.6-1.8,3.3-3.7,4.9-5.5.2-.3.4-.5.6-.8v-.2c.1,0,0-.2,0-.2.2-.3.4-.6.6-.8.8-1.8,1.6-3.5,2.5-5.3.2-.3.4-.6.6-1,.1-.1.2-.3,0-.4.2-.3.4-.5.5-.8h.4Z"/>
  <path class="cls-1" d="M387.2,155.1c3.1-.3,6.2-.7,9.5-1,.7,5,2.1,9.4,5.9,12.4.7.6,2.1.7,3,.4,1.9-.7,3.9-1.5,5.5-2.7.8-.6,1.3-2,1.4-3,.2-2,0-4.1,0-6.2,1.5-.1,2.9-.2,4.4-.3.4-.3.8-.5,1.1-.8.4.7,1.1,1.3,1.2,2,.6,3.4.9,6.9,1.5,10.3.2,1.1.4,3,2.5,1.7.4-.2.8-.5,1.2-.7.4-.2.8-.5,1.2-.7.2.4.5.8.7,1.3-2.4,3.5-4.8,7.1-7.5,11-2.7-3.6-4.9-6.6-7.3-9.8-4.6,3.1-9.3,6.4-13.6,9.3-2.9-4-5.8-7.2-7.5-10.9-1.8-3.8-2.3-8.1-3.4-12.1l.2-.2Z"/>
  <path class="cls-1" d="M466.6,139.5c1.6-1.5,3.2-3.1,4.9-4.5,2.9-2.5,5.9-5,8.8-7.4.8,0,1.6.1,2.5.2h0c.4.6.9,1.3,1.3,1.9.2.4.5.8.7,1.2.2.3.3.6.5.9v.2h.1c.2.4.4.6.5.9h0c.4.6.9,1.2,1.3,1.9h0c.4.6.8,1.3,1.3,1.9h0c.4.7.9,1.4,1.3,2.1v.2h0c.2.4.3.6.5.9h0c1.1,2.1,2.1,4.1,3.2,6.2.2.8.3,1.6.5,2.4-1.7,1.1-3.4,2.3-5.1,3.3-4.7,2.6-8.2,7.9-14.7,6.7-1.9-.3-3.8-.5-5.7-.8-.5-.8-1.3-1.7-1.4-2.5-.2-5.1-.3-10.2-.4-15.4v-.3ZM474.7,155.7c4-3,7.2-5.5,10.3-7.9-2.2-4-4.2-7.8-6.6-12.1-6.5,5.7-2.6,12.8-3.7,20h0Z"/>
  <path class="cls-1" d="M12.6,120.2c.1-.2.3-.3.4-.5,3-2.1,6.3-2.6,10.1-2-1,2.8-2.3,5.3-2.7,8-.7,3.9-.8,8-1.2,11.9v1.8c-.3,0-.7.1-1,.2-.3,0-.6.2-.9.3l.2.2c.3-.1.5-.3.8-.5,0,.8.1,1.6.2,2.4.2.6.4,1.2.6,1.8,0,.1.1.2.2.4,0-.1-.2-.2-.2-.3.3.6.7,1.2,1,1.8.2.8.3,1.7.5,2.5v1.1c-4.7-.3-9.3-.5-14.5-.8,0-3.6-.2-7.3,0-10.9.4-6.5,3.6-12.1,6.7-17.6l-.2.2Z"/>
  <path class="cls-1" d="M296.3,142.1c1.5-2.7,2.8-5.6,4.6-8.1,3-3.9,3.1-3.8,7.1-.7,1.9,1.5,4,2.8,6,4.2-.3.5-.6,1-.9,1.5,1.4-1.2,2.9-2.3,4.3-3.6,1.3-1.2,2.6-2.4,4-3.7,2,2.4,3.9,4.7,5.9,7,0,.9.1,2-.3,2.6-1.1,1.6-2.7,2.9-3.9,4.4-1.3,1.6-2.7,1.6-4.1.3h0c.4-1.3.9-2.6,1.3-4-.2,0-.4-.2-.6-.2-.4.6-.8,1.2-1.3,2-1.1-1.2-2.1-2.2-3-3.2-3.3,1.5-2.7,4.2-2.9,6.8-.2,2.7-.5,5.3-.8,8-2.1.6-4.6-.8-6.1,1.6-1.3,0-2.1-.2-1.9-1.8.1-1.1,0-2.2,0-3.3-.1-1.7-.2-3.4-.4-5.1,0-.6-.1-1.2-.2-1.8-.6-3.9-1.1-4.2-4.8-3.3-.7.2-1.4.2-2.1.3h0Z"/>
  <path class="cls-1" d="M397,149.4c-.4.6-.8,1.2-1.5,2.2-2,.1-4.7.2-7.8.4.9-6.8,4.7-11.8,9-16.1,1.4,0,2.5.1,3.7.2v-3.5h2.7c.4-3.5.7-3.7,4.9-2.2,4.7,1.7,9.4,3.5,14,5.4.7.3,1.2,1.1,1.8,1.7-5.9,3.1-3.8,9.1-4.7,14.2-2.3-.2-4.4-.4-7.1-.6,1.9-7.7-1.1-12.7-8.8-14.9-3.2,2.1-4.6,4.9-6.2,13.2h0Z"/>
  <path class="cls-1" d="M330.7,139.1c2.5-2.7,5-5.4,7.5-8.1.5-.5,1.1-1,1.6-1.5.5.6,1,1.1,1.4,1.8,1.4,2.3,2.8,4.7,4.3,7-3,4-3.1,8.5-2.3,13.2,0,.8,0,1.6.1,2.4-1.2.3-2.3.6-3.5.8-1.8.4-3.7.9-5.1-.9,0-.8,0-1.6-.1-2.5,0-.2.1-.4,0-.6-.4-3.4,1.6-7.7-3.7-9.2-.3,0-.1-1.6-.1-2.5h0Z"/>
  <path class="cls-1" d="M334.1,173.2c0-.5,0-1.1-.1-1.6l.6-.8v-2.4c.2-1.7.6-3.3.6-5,.1-7.7,0-7.7,7.8-7.3.3,1.2.5,2.4.8,3.6v6.9c.1.6.3,1.3.4,1.9.5-.2,1-.4,1.5-.6.4,0,.8,0,1.2-.1.2-.2.5-.4.7-.6.5.2,1.1.4,1.6.5-2.5,3.9-5.1,7.7-7.8,11.9-2.8-2.3-5.1-4.3-7.5-6.3h.2Z"/>
  <path class="cls-1" d="M489.7,163.9c.6-.4,1.2-.8,1.8-1.2-.2,3.7-2.3,6.3-5,8.5-2.3,1.9-4.5,4-7,6.2-2.2-1.4-4.9-2.9-7.3-4.8-1.8-1.4-3.9-3-4.6-5-.9-2.5-.5-5.5-.6-8.3,0-.3.9-.6,1.4-.9,1.9,0,3.8.2,5.7.3,1.1.2,2.2.4,3.4.6-2.6,3.5-2.7,6.4,0,7.5,2.1.8,4.8.3,7.2.4.4,0,.8,0,1.2-.1.2-.2.5-.4.7-.5.4-.2.8-.5,1.2-.7.2-.2.5-.4.7-.5l.6-.6c.2-.2.4-.5.6-.7v-.2Z"/>
  <path class="cls-1" d="M298.9,171.3c0-.4,0-1.2.2-1.2,3.5-.7,3.7-3.5,4.1-6.2,0-.6.1-1.2.2-2.2h5v-.7h-4.7c-.2-2-.2-3.4,2.1-3.5h6.2c.1.2.2.5.3.7-1,.7-2,1.5-2.8,2.1,1.4,2.4,2.6,4.5,3.8,6.6,1.2,2.4,3.3.9,4.9,1.2-2.6,3.4-5.3,6.9-7.8,10.1-4.3-2.6-7.9-4.9-11.5-7.1v.2Z"/>
  <path class="cls-1" d="M339.3,126.5c-1.4-1.9-2.2-3.1-3.2-4.4,1.8-.8,3.2-1.4,5.2-2.2-.7,2.2-1.2,4-2,6.6h0Z"/>
  <path class="cls-1" d="M104.5,114c1.1,2.8-1.4,2.3-2.5,2.4-1.9,0-2.6-1.2-2-3h2.4c.7.2,1.3.3,2,.5h0c0,.1.2.1.2.1h0Z"/>
  <path class="cls-1" d="M455.1,159.5v-.7c1.8-.3,3.7-.6,5.5-.9.2.3.4.7.7,1-1.2,1.2-2.5,2.4-3.6,3.7-.5.6-.7,1.5-1.1,2.1-1.1,1.6-2.2,3.2-3.4,4.7,0,.1-1.4-.5-1.4-.7.1-1.6.4-3.2.7-4.9.8-1.2,1.6-2.3,2.4-3.5.1-.3.2-.6.4-.9h-.2Z"/>
  <path class="cls-1" d="M52.3,153.9c0,.4,0,.8-.2,1.1-.8.3-1.6.6-2.6,1,3.2,1.7,1.1,3.5,0,4.7-3,3.4-6.3,6.6-9.6,9.7-.4.4-1.4.2-2.1.2,1.1-1.8,2.1-3.6,3.2-5.4.2-.3.4-.5.6-.8v-1.2c1.4-3.8.8-7.2-1.9-10.3v-.2c0,0,0-.2,0-.2,3.3-.3,6.5-.6,10.6-.9-3.7-.7-6.7-1.2-9.6-1.8-1.2-.2-2.6-.5-3.4-1.2-4.1-3.8-7.8-7.8-8.8-13.6v-2.5c1.4-5.1,5.5-7.8,9.6-10.6,1-.7,2-1.3,3-2,.2-.2.5-.4.7-.5.2,0,.4,0,.5-.1.2.5.8,1.1.6,1.4-.8,1.6-2,3.1-2.7,4.8-.3.8,0,1.8,0,2.7-.7,2.7-.2,5.2,1.3,7.5.4.7.9,1.3,1.3,2,0,.2.3.4.4.6.7.8,1.4,1.7,2.1,2.5.4.6.9,1.2,1.3,1.8.4.5.8,1,1.2,1.4.2.4.5.7.7,1.1.2.2.4.5.6.7.2.4.5.8.7,1.1.2.2.4.5.6.7.2.4.5.8.7,1.2.5,1.3-1.6,3.4,1.1,4.1v.2c0,0,0,.1,0,.1v.6h.1Z"/>
  <path class="cls-1" d="M46.5,117.2c0,.1-.3.3-.4.3s-.3-.2-.4-.3l.2-.2c.2,0,.4.1.6.2Z"/>
  <path class="cls-1" d="M66.8,150.2c-.2-.2-.3-.4-.5-.6.2.2.3.4.5.6Z"/>
</svg>