<?xml version="1.0" encoding="UTF-8"?>
<svg id="Calque_1" data-name="Calque 1" xmlns="http://www.w3.org/2000/svg" version="1.1" viewBox="0 0 500 300">
  <defs>
    <style>
      .cls-1 {
        fill: #75683b;
        stroke-width: 0px;
      }
    </style>
  </defs>
  <path class="cls-1" d="M1.5,125.9v-3.7c0-.4.2-.9.3-1.3,0-.6.2-1.3.3-1.9,0-.4.3-.9.4-1.3,4.6-15.2,16.2-22.5,30.3-26.7,4.7-1.4,9.8-1.8,14.8-1.8,23.1-.3,46.3-.2,69.4-.4,4,0,8-.8,12-1.3,2.3-.3,2.1.5,1.2,2-9.1,8.7-19.8,12.6-32.4,12.2-12.7-.3-25.4,0-38.1,0s-1.5,0-2.3.1v.5c2.1.9,4.3,1.8,6.5,2.6,7.9,4.1,15.7,8.4,20.5,16.1,2.7,4.3,4.5,9.3,6.2,14.1.8,2.5,1.7,3.5,4.4,3.1,9-1.4,16.5-5.3,21.8-13.6.2.9.4,1.4.5,1.9-2.2,9-4.3,18-6.5,27h-.9c-1.2-3.1-2.4-6.1-3.6-9.2-2.8.8-5.1,1.5-7.4,2.2-4.2,1.2-6.4,4-6.6,8.3,0,1.2-.3,2.3-.3,3.5-.8,18.4-10.6,30.6-27,37.4-13.1,5.4-27,4.6-40.7,1.6-3.3-.7-6.7-1.7-9-4.6-1.3-1.6-2.4-3.2-3.6-4.8-3.2-7.2-4.5-14.6-3.5-22.5,1.3-10.2,6.2-17.5,15.8-21.2,5.9-2.2,12.1-3.3,18.2-4.9h29.3c1.7,0,2.7-.3,2.1-2.3-1.8-7.1-4.5-14-9.1-19.6-8.2-9.8-19.1-13.9-31.8-13.5-10.2.4-18.3,4.7-24.2,13-1.8,2.5-3.4,5.1-5.2,7.6-.4.6-1.2,1-1.7,1.5h0ZM26.2,188.6c2.2,1.2,4.2,2.8,6.6,3.7,12.8,4.5,28.1,2.8,36.3-12.8,4.6-8.7,5.7-17.8,5-27.4.3-2,.5-3.8-2.5-3.8-13,.2-26.1,0-39.1.7-9.7.6-20.8,7.9-18.3,22.6,1,6,4.2,10.7,8.8,14.5.4.4.9.7,1.3,1.1l1.9,1.4h0Z"/>
  <path class="cls-1" d="M461.1,96.5c.6-1.2,1-2.6,2-3.5,3-2.8,6.1-5.6,9.3-8.1,3.7-2.9,7.8-3.6,12.1-1,.7.5,1.4.9,2.1,1.4h0c.6.5,1.3,1,1.9,1.5,1.4,1.4,2.9,2.9,4.3,4.3.5.7,1,1.4,1.5,2.1,5.1,6.9,5.4,14.1,1.3,21.4-1.9,3.3-4,6.6-6.6,9.3-7.7,8.2-14.9,16.8-20.7,26.5-5.7,9.6-11.6,19.3-16.3,29.4-4.5,9.6-1.9,17.8,5.9,24.8h0c.9.7,1.7,1.4,2.6,2,9.4,6.8,21.9,5.2,29.3-3.8,1.8-2.2,3.5-4.5,5.3-6.7.5-.7,1.2-2.1,1.6.1-.5,2.3-.7,4.8-1.6,7-2.7,6.8-8.3,10.3-14.9,12.2-12.3,3.4-24.7,2.8-37.1.6-6.5-1.2-11.1-4.7-13.7-10.7,0-.4-.2-.8-.2-1.2-.1-.4-.3-.9-.4-1.3,0-.8-.2-1.7-.3-2.5v-4.4c1.3-8.5,6.2-15.1,11.4-21.5,4.1-5,8.7-9.7,13.1-14.5,2.1-1.1,2-2.4.8-4.4-9.1-15.3-17.7-30.9-29.1-44.7-4.4-5.4-8.8-9.3-16.2-7.4-1.6.4-3.4.6-5,1-3.8,1.1-7.6,2.4-11.4,3.6.7-1.1,1.2-2.5,2.2-3.3,7.5-5.7,14.7-11.9,22.7-16.8,8.1-5.1,16-2.6,22.3,6.5,8.1,11.6,15.7,23.6,23.5,35.4,2,3,4.3,5.9,6.8,9.3,3.9-5,7.4-9.7,8.3-15.8.1-.6.3-1.3.4-1.9,0-.4.1-.8.2-1.2.7-6.3-1.6-11.5-6.1-15.4-3.4-3-7.4-5.2-11.1-7.7l-.2-.6Z"/>
  <path class="cls-1" d="M313.7,204.2c4.1,3.1,8.7,3.9,13.7,3.1,1.2-.2,2.5.2,3.8.3.3,2.2-.7,3.4-2.9,3.5-6.8.5-13.7,1.2-20.5,1.6-2.9.2-5.4-1.2-7.5-3.2-5.5-5.1-11.2-10.1-16.5-15.4-9.2-9-18.2-18.1-27.2-27.2-1.4-1.4-8.2-2.2-9.6-1-.4.4-.7,1.1-.7,1.6,0,7.3,0,14.6.2,21.9,0,2.2.7,4.7,3.5,5.4.4.2.9.4,1.3.6.4.1.9.3,1.3.4,2.4.5,4.7,1,7.1,1.4-1,.4-1.9,1.1-2.9,1.1h-37.3c.4-.6.6-1.5,1.1-1.9.4-.3,1.2,0,1.9,0,6.5-.8,10.2-2.5,10.1-10.6-.2-15.3,0-30.6,0-45.9s-.5-2.3-.8-3.5c0-3.8-1.2-5.4-4.9-6.2-2.4-.5-4.8-.6-7.3-.8-.1-.2-.2-.4-.4-.6,0-.4.2-.9.3-1.3,16.1,0,32.2.1,48.3.3,6.7,0,12.9,1.8,18.6,5.5.8.7,1.7,1.4,2.5,2.1.1.2.3.3.4.5,1.1,2.7,3,5.3,3.3,8,.8,7.6-2.4,12.8-9.7,16-3.8,1.7-7.9,2.8-12.2,4.3,2,1.9,4,3.7,6,5.5,1.1,1,2.1,2,3.2,3,1.9,1.8,3.8,3.6,5.7,5.4,1.9,1.8,3.9,3.6,5.8,5.5,1.7,1.6,3.4,3.2,5,4.7,4.7,4.5,9.5,8.9,14.2,13.4,1,.7,2,1.4,2.9,2.1l.2.4ZM276.2,149c.2-.5.4-1,.5-1.5.4-4.6-3.5-10.7-8.5-13.1-6.5-3.1-13.3-2.8-20.2-1.6-.7.1-1.7,1.5-1.8,2.4-.1,8.2,0,16.3-.1,24.5,0,2,.9,2.7,2.7,2.6,1,0,2.1-.4,3.1-.6,4.5-.7,9.3-.9,13.6-2.3,5.1-1.6,9.5-4.6,10.7-10.5h0Z"/>
  <path class="cls-1" d="M122.6,170.6c0-1.3,0-2.5-.2-3.8v-.6c-.5-15.1,6.9-25.5,19.6-32.7,16.4-9.3,44.1-9.4,60.3,4.8,1.8,1.6,3.5,3.3,5.3,5,4.6,5.8,7,12.6,7.2,19.9.3,10.6-3.4,19.7-11.4,26.9-11.5,10.3-25.2,13.4-40.1,12.3-8.5-.6-16.5-2.8-23.9-7.1-5.5-3.3-9.6-8-12.9-13.3-.5-1-1-2.1-1.6-3.1-.6-1.7-1.2-3.4-1.8-5.1,0-.4,0-.8-.2-1.2,0-.7-.3-1.3-.4-2h0ZM193.2,144.2c0-.2,0-.3-.2-.3-5.5-7.7-12.8-12-22.3-12.6-13-.8-25,5.2-29.7,18.6-2.7,7.8-2.7,15.8-1.4,23.8,1.2,7.7,4.8,14,10.9,18.9,1.6,1,3.3,2,4.9,3,.5.2,1,.4,1.5.6,5.9,2.9,12.2,2.8,18.3,1.6,7.5-1.4,14.3-4.9,18.1-11.8,7.1-12.6,6.8-25.8,1.3-39.1-.5-.9-1-1.9-1.5-2.8h0Z"/>
  <path class="cls-1" d="M380.8,191c0-.4-.1-.8-.2-1.2-.5-1.3-1-2.6-1.6-3.8-7-12.5-14.1-24.9-21.1-37.4-.8-1.5-1.7-3-2.7-4.9-5.5,10.4-10.8,20.2-15.9,30-2.7,5.1-5.2,10.2-7.7,15.3-1.3,2.8-.5,5,2.5,6.1,1.3.4,2.6.6,3.8,1.1.9.4,1.7,1.1,2.5,1.7-.9.2-1.8.5-2.7.6-8.4.1-16.8.2-25.3.3.1-.9.2-2.4.4-2.5,7.3-.8,10.5-6.2,13.5-11.8,9.7-18,19.3-36.1,28.9-54.2.2-.5.5-.9.8-1.4,1.6-2.8,3.8-2.9,5.4-.1,5.9,10.3,11.8,20.6,17.6,31,5.2,9.1,10.4,18.2,15.5,27.4,2.8,4.9,6.1,9,12.3,9.3.6,0,1.1.9,1.6,1.4-1.6.3-3.2.8-4.8.8h-31.3c-2-1.1-1.3-1.8.4-2.3,1.5-.4,3.1-.4,4.6-1,1.1-.4,1.9-1.5,2.8-2.2.2-.8.4-1.5.7-2.3h0Z"/>
  <path class="cls-1" d="M375.6,116c-.7-.1-1.4-.3-2.5-.5,1.2-1,2.1-1.8,3.2-2.8-3.7-4.2-7.3-8.3-10.8-12.5-1.1-1.3-2.1-2.6-3.2-4-.3.1-.5.2-.8.3v14.9c0,.6.8,1.1,1.2,1.7.9.9,1.7,1.8,2.6,2.6h-7.6c-.9,0-1.9-.1-3.8-.2,5.9-2.4,4.2-7,4.3-10.9.1-2.9,0-5.7,0-8.6.1-2.8.2-5.5-2.6-7.6,3.7-.2,7.3-1.5,10.2,2.4,2.7,3.5,6.1,6.5,9.2,9.7,1.6,1.9,3.3,3.7,5.5,6.2v-14c-.2-.5-.3-.9-.5-1.4-.6-.9-1.1-1.8-1.9-3.2h7.8c.1,0,.2.8.4,1.3-.5,1.2-1.4,2.3-1.4,3.5-.2,5.7-.2,11.3,0,17,0,1.3,1.3,2.6,1.9,3.9.5.6.9,1.2,1.4,1.8h-3.2c-2.2,0-4.3.1-6.5.2h-3.1l.2.2Z"/>
  <path class="cls-1" d="M316.3,114.9v.9c-3.4,0-6.8,0-10.2.1-.5,0-1-.1-2.2-.3,4-2.7,3.6-6.3,3.3-10v-4.2h-14.7c0,2.9-.3,5.7.1,8.5.2,1.7,1.5,3.2,2.3,4.8,0,.2,0,.4.2.5-3.4.3-6.8.6-10.2.8-.1-.5-.5-1.1-.4-1.6.5-1.7,1.7-3.4,1.8-5.1.2-5,.2-10,0-14.9,0-2-1-3.9-1.6-5.9h10.1c-.8,1.2-2,2.3-2.2,3.7-1,6.8-.8,6.9,6.1,6.7,1.9,0,3.8,0,5.7.1,2.1.1,3.2-.5,3-2.9-.2-2.8.7-6-3.3-7.3.1-.3.3-.6.4-1,3.9.4,7.8.7,11.6,1.1-2.2.5-3,2.1-3,4.2,0,5.3,0,10.5-.1,15.8,0,2.7.7,4.7,3.2,6h.1Z"/>
  <path class="cls-1" d="M139.7,115.8c-.2-.5-.8-1-.7-1.3.6-1.8,1.7-3.6,1.8-5.4.3-4.9.2-9.8,0-14.6-.1-2.1-1-4.1-1.6-6.1h11.2c-4.4,2.1-3.6,5.5-3.5,8.6,0,.7,1.2,1.8,1.9,1.8,3.7.2,7.4.1,11.1,0,.6,0,1.4-.6,1.6-1.1,1-2.4-.3-7.1-2.3-9.7,3.9.3,7.7.7,11.6,1-2.4.6-3.4,2.1-3.3,4.7.1,5.5,0,11,.1,16.5,0,1.4,1.2,2.7,1.9,4,.3.4.6.8,1.1,1.5h-12.2c4.6-3.6,2.9-8.4,3.1-12.6,0-.6-1.4-1.7-2.2-1.8-3.4-.2-6.8-.2-10.2,0-.8,0-2.3,1.1-2.3,1.7,0,4.5-1.2,9.2,2.9,12.7-3.4,0-6.8,0-10.2.1h.2Z"/>
  <path class="cls-1" d="M177.2,116c-.8-.1-1.6-.3-2.4-.4v-.5c.5-.2,1-.5,1.5-.6,2.3-.2,3.4-1.6,3.4-3.8,0-5.9.3-11.9-.1-17.8-.1-1.7-2.4-3.2-3.6-4.8h22.1c4.9,0,5.4.7,4.1,6.3-3.7-7.4-10.2-3.7-15.5-4.5h-.3c-2.8,2.3-1,5.5-1.3,8.3,0,.6,1.6,1.9,2.5,1.9,1.8,0,3.6-.8,5.4-1.1.7-.1,1.4,0,2.1.1-.2,1.5-.3,3-.5,4.7-.8-.2-1.2-.3-1.5-.5-6-2.9-8.2-1.6-8.1,4.9v2.2c0,2.5,1,3.8,3.7,3.3,1.7,0,3.4,0,5,.2,4.6.5,7.9-1.7,10.8-5.8.3,1.2.4,1.8.6,2.4-.3.5-.8,1-.9,1.6-.7,3.1-2.8,3.7-5.6,3.5-3-.2-6.1.2-9.2.3h-12.3.1Z"/>
  <path class="cls-1" d="M210.5,115.8c-.7-.1-1.3-.2-2.6-.5,5.9-2.9,7.2-8.6,10.1-13.1,2.4-3.7,4.3-7.8,6.6-11.6,1.8-3.2,2.5-3.2,4.4,0,3.8,6.2,7.4,12.6,11.4,18.7,1.6,2.5,4.2,4.3,6.3,6.4-4.4,0-8.8.1-13.2.2-.7-.5-.2-1.2,1.3-2.1.2-.4.4-.8.6-1.1-.8-1.5-1.6-3-2.4-4.5-.4-.7-.8-1.5-1.3-2.2-.2-.3-.4-.7-.6-1-.4-.7-.9-1.4-1.3-2.2-.6-.8-1.1-1.6-1.7-2.4-.7-1.6-1.5-3.1-2.5-5.4-3.4,6.1-6.5,11.5-9.4,16.9-.2.4,1.3,1.7,2.1,2.6.2.4.4.8.6,1.2-2.8,0-5.5,0-8.3.1h-.1Z"/>
  <path class="cls-1" d="M324,116c-.9-.2-1.8-.3-2.7-.5,5.8-.8,4.5-5.2,4.6-8.8v-11.8c0-3.1-.3-5.8-4.2-6.6,1.1,0,2.1-.2,3.2-.2h19.4c5,0,5.4.6,4.1,6.3-3.6-7.2-9.9-3.8-15.2-4.4h-.3c-3.2,2-1,5.2-1.5,7.8-.1.7,1.5,2.4,2.3,2.4,2.4-.1,4.8-.9,7.5-1.4v4.7c-2.5-.4-4.9-.9-7.4-1.3-1.8-.3-2.6.6-2.5,2.4v.3c0,10.7-.7,8.5,8.4,9,4.9.3,8.2-1.8,11.7-5,0,.7-.1,1.5-.2,2.2-1,3.4-2.9,5.1-6.8,4.7-3.7-.4-7.5,0-11.3.2h-9.1Z"/>
  <path class="cls-1" d="M256.4,116c.1-.5.2-1.4.4-1.4,2.2-.4,2.7-1.9,2.7-3.7v-18.1c0-1.9-.9-2.5-2.7-2.6-3.6-.2-6.6.3-7.8,4.6-.2-.2-.4-.4-.6-.7v-6h25.9c.7,0,1.3,1,2,1.5v4.7c-.2.1-.5.2-.7.3-1.5-4.1-4.6-4.6-8.2-4.6s-2.7.8-2.7,2.8v17.5c0,2.7.9,4.3,3.9,4.1.1.4.3.7.4,1.1-4.2.1-8.4.2-12.6.3v.2Z"/>
</svg>