<?xml version="1.0" encoding="UTF-8"?>
<svg id="Calque_1" data-name="Calque 1" xmlns="http://www.w3.org/2000/svg" version="1.1" viewBox="0 0 500 300">
  <defs>
    <style>
      .cls-1 {
        fill: #75683b;
        stroke-width: 0px;
      }
    </style>
  </defs>
  <path class="cls-1" d="M377.5,163.4c-1.8,3-3.2,5.8-5,8.2-2.9,3.9-6,7.6-9.1,11.3-2,2.5-4.2,4.8-6.1,7.3-.6.8-.8,2-1.2,3.1-.2.7-.6,1.1-1.4,1.1-5.7-.4-10.9-1.7-14.9-6.1-3.1-3.4-4.9-7.5-5-11.9-.4-9.6-.3-19.3-.4-29,0-.7.2-1.6-1.2-1.7.9,12.1-5.3,20-15.5,25.5.9.8,1.5,1.6,2.3,2.1,1,.7,2.2,1.3,1.9,3.2.8-.4,1.3-.6,1.8-.9,4.1-2.5,7.8-.4,8.5,4.3.3,2.2.1,3.5-2.2,4.1-.6.2-1.1,1.1-1.3,1.8-.5,2.5-1,5.1-1.3,7.7-.1.9-.4,1.2-1.3,1.2-13.4.4-25.3-7.2-30.6-19.5-1.7-3.9-2.2-8-1.9-12.6-.9,2-1.5,3.7-2.4,5.2-2.7,4.6-5.4,9.2-8.2,13.7-2.2,3.5-3.8,7.2-4.6,11.2-.4,2.2-.4,2.1-2.4,1.8-6.3-.9-12-3.2-16.9-7.2-5.1-4.1-8.7-9.1-10.4-15.5-1.3-5-1.4-9.9-.4-14.9,0-.2,0-.5-.3-.9-.2.3-.6.5-.7.9-.4,1.4-.9,2.8-1,4.2-.2,4.3-.3,8.6-.3,12.9s.2,1.1.5,1.6c1.9,2.7,1.3,6.5-1.5,8.3-2.7,1.7-4.5,4.1-6.3,6.6-.3.4-.5.9-.8,1.2-.9.9-1.1,2.7-2.7,2.8-2.6.1-5.4.4-7.2-2.1-.7-.9-1.2-2.2-1.2-3.3v-40.1c0-1.2,0-2.3-1.5-2.7-.5-.1-.9-.8-1.8-1.5.4,5.8-.4,11.1-3.3,15.9-2.9,4.8-7.3,7.9-12.2,10.8.9.8,1.5,1.6,2.3,2.2,1,.7,2.2,1.3,1.8,3.2.9-.5,1.4-.8,1.9-1.1,3.6-2.3,8-.2,8.3,4.1v.3c.1.9.6,2.1.2,2.8-.4.7-1.7.8-2.5,1.3-.5.3-.9.9-1,1.5-.5,2.6-1,5.2-1.4,7.8-.1,1.1-.5,1.4-1.5,1.4-13.4.2-25.3-7.3-30.4-19.5-3-7.2-2.7-14.6.3-21.8,2.6-6.3,6.6-11.6,11.3-16.4,1.2-1.2,2-2.3,2.5-3.9.9-2.5,2.4-4.7,4.5-6.3.4-.3.9-.5,1.4-.5,3.5-.1,6.5,1.3,9.1,3.6,3.7,3.3,6.3,7.2,7.7,11.9,0,.3.2.5.3.8.2-1.1.4-2.1.6-3.1.4-1.6,1.7-2.4,3.1-3.2,2.5-1.5,3.9-4,5.6-6.2.2-.3.4-.6.6-.8,2.1-3.1,3.3-3.5,7-2.5,2.6.7,4.3,3,4.3,6v12.9c3.2-.3,5.2.8,6.1,3.4,2.7-4.2,5.5-8.4,8.3-12.7.2-.3.1-1.1-.1-1.5-2.3-3.5-4.6-6.9-5.3-11.2-1.3-7.4.3-14,4.8-19.8,4.9-6.3,11.4-9.5,19.5-9.1,3,.1,6.1.5,8.6,2.2,4.1,2.8,6.6,6.5,5.7,11.6,1.2.7,2.5,1.2,3.5,2,1.7,1.5,1.6,4.1,0,5.7-4.4,4.5-10.5,5.5-15.8,1.9-1.8-1.2-2.8-2.9-3.1-5.1-1.9,1.7-1.3,3.8-.9,5.7,1.1,5.3,4.6,8.9,8.7,12.1,1.2.9,2,1.7,1.3,3.2-.5,1.2,0,2,.8,2.8,3.6,4.2,6.6,8.9,7.5,14.5.4,2.2.3,4.4.4,6.4,1.2-4.8,3.4-9.4,6.6-13.5,2.2-2.9,4.8-5.5,7.1-8.2.5-.6,1-1.4,1.3-2.2,1-2.9,2.5-5.5,5-7.4.8-.6,2.3-.5,3.4-.3,5,.9,8.3,4.2,11.1,8.1.9,1.3,1.7,2.7,2.3,3.8,1.2-.9,2.6-1.8,3.6-2.9,2.2-2.4,4.4-4.8,6.2-7.4,1.8-2.8,2.9-2.7,6.8-1.9,2.5.5,4.1,2.8,4.1,5.3v4.9c1.6-1.9,2.6-3.6,3.2-5.6.4-1.3.6-2.7,1-4.1.1-.3.5-.8.8-.9,3.5,0,7.1-.5,10.4,1.3,4.7,2.4,7.7,6.3,9.6,11.1,1.6,3.9,2.4,8,2.4,12.2s0,3.2.2,4.8c.4-.9.7-1.9,1.1-2.8,2.7-6.2,6.4-11.7,11.2-16.5.3-.3.6-.5.9-.8.7-.8,1.4-1.7,1.9-2.6.9-1.5,1.6-3.1,2.4-4.7.6-1.1,1.7-1.2,2.8-1.2,4.6-.2,8.5,1.6,12,4.4,6.6,5.2,10.9,11.8,12.3,20.1.6,3.9.3,8-.9,11.9-2,6.9-5.8,12.8-10.5,18-2.7,3-4.9,6.2-6.3,10-1.5,4.1-1.8,4.2-6,3.4-4.6-.8-8.7-3-12.2-6-5.1-4.3-8.2-9.8-9.7-16.2-.5-2.2-.5-4.6-.8-6.9v-2h.2ZM275.9,103.5c-6.4,3.2-7.3,5.2-7.2,16.2-2.7-3.6-2.7-10.4.2-13.8,2.2-2.5,5.2-3,8.3-3.2,1.4,0,3,0,3.5,1.5.3,1-.1,2.3-.4,3.4-.3,1.2-1.1,2.3-1.4,3.5-.5,1.9-.4,3.8,1.2,5.3,3.5,3.3,11,2.8,13.9-1,.9-1.2.9-2.3,0-3.3-1-1-2.4-1-3.4-.2-.6.5-1.4.8-2,1.2-.1,0-.2-.2-.3-.3.3-.6.5-1.3.8-1.9.4-1.1.9-2.3,1-3.4.3-4.2-2.6-8.1-6.9-9.5-3.7-1.2-7.5-1.4-11.2-.6-14.2,3.4-21.6,19.9-14.3,32.5,1.2,2.1,2.6,4,3.9,5.9-2,3-4.1,6-6.1,9.1-3.3,5.1-5.5,10.5-5.9,16.6-.6,10.1,3.1,18.3,11.1,24.6,4.6,3.6,9.8,5.6,15.6,6.4.1-.2.3-.3.3-.5.6-4.2,2.5-8,4.7-11.6,3-4.8,6.1-9.6,8.6-14.6,3.6-7.2,3.4-14.5-.8-21.4-1.8-3-4-5.8-6.1-8.7q1.1-2.1-.9-3.8c-3.2-2.7-6-5.7-7.6-9.6-1.7-4.1-2.1-8.1,1.3-11.7.3-.3.5-.6.7-.9,1.8-2.7,1.7-3.7-.7-6.1h0ZM353.6,144.8c1.2-.8,2.3-1.7,3.5-2.3s1.1-.2,1.4,0c2.4,1.5,4.2,3.6,4.8,6.5,1,4.7.9,9.4.3,14-.7,5.3-2.5,10.2-5.8,14.5-.9,1.1-1.7,1.3-2.9.8-1-.5-2.3-.6-2.3-2.2,0-4.1-.4-8.3,0-12.4.5-4.6,3-8.1,7.5-9.8,1.7-.6,2-1.1,1.6-2.9-.3-2-2.2-3.1-4-2.5-3.1,1-5.3,3.1-7,5.8-.2.4-.5.9-.9,1.6v-23.9c0-1.4-.3-2.8-1.6-3.3-1.2-.5-2.7-.7-4-.7s-1.2,1-1.7,1.7c-2.2,3-4.1,6.3-7.5,8.2-1.6.9-2.4,2.7-2,4.3.4,1.8,1.7,2.3,3.4,2.2v28.4c0,1.9.2,3.9.6,5.8,1.9,9.8,9.4,14,17.4,13.9.5-2.7,2.3-4.6,4-6.7,4.4-5.2,8.9-10.4,12.9-15.9,4-5.4,6.3-11.5,6.1-18.4,0-1.9-.3-3.9-.6-5.8-.6-4.2-1.9-8.1-4.4-11.5-3.6-4.9-8.3-7.3-14.7-6.2-.6,4-2.4,7.5-5,10.6-.2.3-.4.8-.4,1.2.3,1.7.7,3.4,1.2,5.2v-.2ZM205,171.1c2.6-1.7,5.1-3.1,7.3-4.7,6.3-4.6,9.5-10.9,9.5-18.6s-2.1-9.5-5.2-13.4c-2.1-2.6-4.7-4.8-8.1-5.7-1.7-.4-3.2-.4-4.1,1.3-1,1.9-1.9,3.8-2.9,5.7-.3.5-.5,1.2-.9,1.5-3.8,3.4-7,7.3-9.6,11.6-6.3,10.5-7.3,21.1,0,31.5,5.7,8.1,13.8,12.2,23.7,12.5,1,0,1.2-.3,1.4-1.3.3-2.2.6-4.5,1.2-6.7.2-.9,1-2,1.8-2.3,1.9-.6,1.7-1.7,1.4-3.1-.5-2.4-2.5-3.4-4.7-2.4-.6.3-1.2,1-1.8,1.1-1,.2-2,.1-3,0-.2,0-.2-1-.5-1.4-.2-.5-.6-1-1-1.5-1.4-1.4-2.9-2.8-4.4-4.3v.2ZM320,177.9c.3-1.5-.5-2.4-1.6-3.3-1.4-1.1-2.5-2.5-3.7-3.8,2.5-1.6,4.9-3,7.1-4.6,6.3-4.5,9.5-10.6,9.6-18.3,0-5.9-2.4-10.9-6.4-15.2-2-2.2-4.4-3.8-7.3-4.5-1.3-.3-2.5-.2-3.5,1.1-1.5,1.9-2.7,3.9-3.2,6.2-.1.5-.5,1.1-.9,1.4-4,3.6-7.4,7.8-10.1,12.5-3.2,5.6-5.1,11.5-4.3,18,1.3,10.2,7,17.3,15.9,22,4.3,2.3,9,3.3,13.8,3.1.4-2.4.9-4.7,1.3-6.9.3-1.8,1.2-3.1,2.9-3.8.3-.1.7-.5.7-.7-.1-1.5-.2-3.2-1.7-4.1-1.4-.9-2.9-.6-4.1.4-1.4,1.1-2.8,1.3-4.5.5h0ZM242.2,149.2v-16.7c0-2-1.1-3.2-3-3.8-2-.6-3.2-.2-4.4,1.5-2.2,3.1-4.2,6.5-7.7,8.4-1.5.8-2.2,2.6-1.9,4.2.3,1.5,1,2,3.3,2.3v42.5c0,13.6,0,.6,0,.9,0,1.9,1.1,3.3,2.8,3.8,2.4.7,3.3.4,4.7-1.4,2.4-3.3,4.6-6.8,8.3-9,1.7-1,1.6-4.2.1-5.6-.2-.2-.5-.6-.5-.9.2-5.5.3-11,.6-16.4.1-1.8.6-3.7,2.3-4.6,1.6-.9,1.7-2.3,1.6-3.8,0-1.8-1.7-3-3.5-2.6-1,.2-1.8.8-3,1.3h.3ZM403.1,192.9c.7-1.4,1.4-2.6,1.8-3.9,1.1-3.2,3.1-5.8,5.3-8.3,3.3-3.7,6.4-7.6,8.6-12,2.9-6.1,4.5-12.4,3-19.1-1.4-6.3-4.8-11.5-9.5-15.8-2.8-2.5-5.9-4.5-9.7-5.2-3.1-.6-3.9-.2-5.3,2.7-.4.8-.6,1.7-1,2.6-.2.5-.5,1.1-.9,1.4-5.8,5-10.1,11.1-13,18.1-3.5,8.2-3.8,16.4.1,24.6,4.2,8.6,11,13.6,20.7,15h-.1ZM362,156.8c0-1.2-.4-1.5-1.6-1.1-3.1,1.2-4.8,3.6-5.6,6.7-1.1,4.2-.9,8.5-.2,12.8,0,.4.5.8.9,1,.3,0,.8-.2,1-.5.9-1.3,1.7-2.6,2.4-3.9,2.4-4.7,2.9-9.8,3.1-14.9h0ZM352,146.5v2.3c2.4-1.1,4.8-2.3,7.2-3.4-1.1-1.4-1.4-1.4-2.8-.4-1,.8-2,1.5-3,2.3-.3.2-.7.3-1.1.4-.1-.5-.2-.8-.4-1.3h0ZM223.6,144.2s0-.1-.1-.2h0v.2s.1,0,.2-.1h0ZM377.6,162.8s.1-.1.1-.2h0c0-.1-.2-.1-.2-.1v.3h.1Z"/>
  <path class="cls-1" d="M120.2,239.2h-12.5c-.3-.2-.5-.4-.8-.5-8.3-1.6-14.5-6.3-18.3-13.7-1.3-2.5-1.7-5.6-2.5-8.4,0-.3,0-.6,0-.9,0-.3-.2-.5-.3-.9-1.4,1-2.7,2-4.1,2.8-3.8,2.2-7.7,2.3-11.7.6-2.5-1.1-3.6-3.3-3.2-6.1.3-2.1,2.3-4.2,4.7-4.7,2-.4,3.4.7,4.9,2,1.6-1.1,3.1-2.3,4.1-4.1h0q0-.1,0,0c-4.4.1-8.8,0-13.1-1.2-7.8-2.3-13.5-6.8-15.7-14.9-1.8-6.4-1.3-12.7,2.3-18.5.2-.3.4-.7.7-1.3h-1.9c-4,.4-7.9.7-11.8-.3-6.6-1.7-11.9-5.2-14.9-11.5-.4-.9-1-1.4-2-1.6-5.3-1.1-9.9-3.4-13.5-7.4-3-3.2-4.7-7-5.2-11.4-.4-3.1-.4-6.1.9-9,2.6-5.7,7.5-9.6,14.6-7.9,1.6.4,3,1.7,4.5,2.6.3.2.6.5,1,.8.2,0,.3-.1.5-.2-.4-3.1-.8-6.3-1.3-9.7,1.4.9,2.6,1.7,3.8,2.5,1.8,1.2,3.6,2.5,5.4,3.7,1.4.9,2,1.7,1.7,3.5-.6,3.4-2.2,6.1-4.8,8.2-3.2,2.5-8,2.1-11.5-.8-2.3-1.9-2.9-1.8-4.2.8-2.1,4.3-1.4,7.9,2.7,11,1.6,1.2,3.5,2,5.3,2.9.8.4,1.3.2,1.6-.7,1.6-3.9,4.2-6.9,8.1-8.8,4.4-2,8.7-1.9,13.1-.2,3.7,1.5,6.7,3.7,8.4,7.4,1.4-1.6,1.4-2.6.4-4-3.8-5.1-5.4-10.8-3-16.9,1-2.6,2.7-5.1,4.6-7.2,1.9-2,1.8-4.3,2-6.6.7-5.7,2.6-11,5.8-15.8,2.6-3.8,5.9-6.8,10-8.8,2.4-1.2,4.9-1.8,7.5-1.9.5,0,1.2-.3,1.3-.6.2-.6.3-1.4,0-1.8-2.1-2.7-1.9-5.6-.9-8.7,0-.4.4-.8.4-1.2,0-3.5,3.2-5.7,7.1-4.6,1.3.4,2.4,1.3,3.8,2.1,3.2-2.2,6.9-4,11-4.8,5.6-1.1,11.4-1.9,16.9-.1,4.1,1.3,7.9,3.4,11.8,5.2,2.7,1.2,5.3,2.8,8.4,2.6.5,0,1.2-.3,1.3-.6,1.3-2.9,2.6-5.9,3.8-8.9h2.9c.3,2.6.7,5.2.9,7.8.2,2,.2,4,.3,6.2.3-.2.7-.4,1-.6,5.1-3.6,11.8-1.6,13.3,5.8,1.2,6.2-4.1,11.3-9.2,12.6-1.7.4-3.5.3-5.4.5,1.9,2.9,3.1,6,3.8,9.5s0,6.8-.8,10.6c3.6-1.7,6.9-3,10-4.8,2.1-1.2,3.9-2.9,5.8-4.5,1.4-1.2,1.3-1.9.4-3.5-2.1-3.4.7-8,4.9-8.3,3.4-.3,5.2,2.3,5.5,5.8.5,5.4-1.4,10-5.3,13.7-.2.2-.4.5-.7.8,1.2.7,2.4,1.3,3.5,2,2.9,2,3.5,6.9,1.3,9.5-2.3,2.7-6.4,2.5-7.9-.8-1-2.1-2.4-2.2-4.2-2.1-4.2.4-8.3,1.1-12.3,2.7-.3.1-.5.3-.8.4,2.2,1.2,4.4,2.3,6.3,3.6,9.6,6.4,15.6,15.2,18.9,26.2,1.2,4.1,1.9,8.2,1.9,12.4s-.3,10-1.8,14.8c-.3.9-.3,1.5.6,2.2,2.2,1.9,2.1,4.5,1.5,7.1-.8,3.1-2.8,5.5-4.9,7.8-.7.8-1.5,1.6-2.5,2.6,1.2.4,2.1.6,2.9,1,2.3.9,4.1,2.3,4.7,4.9.6,2.4-.7,5.3-2.7,6.3-2.3,1.1-5.5.5-6.9-1.7-.8-1.2-1.8-1.3-3-1.1-2.9.6-5,2.7-7.3,4.3-1.4,1-2.6,2.2-4,3.1-1.8,1.2-1.8,3-2.3,4.3.9,1.5,1.9,2.7,2.4,4.1.8,2.6-.5,5.3-3,6.3-1.2.5-2.6.6-3.9.6-1.9-.1-3-1.4-3.6-3.2-.3-.8-.8-1.6-1.2-2.3-2.9,1.8-5.5,3.5-8.2,5.1-5.1,3-10.6,5-16.4,6.2-.3,0-.6.3-.9.5h-.7ZM88.3,208.9l.2.2c-.2,1.1-.6,2.2-.6,3.3-.3,7.8,2.4,14.3,8.3,19.3,7,5.8,15.3,6.7,23.9,5.3,8.7-1.4,16.4-5.4,23.5-10.5,1-.7,1.9-1.4,3.1-2.3-.1,2,1,3,2.4,3.7-.3,1.7,0,2.5.9,3,1.6.9,4.2,0,5.3-1.6,1-1.6.6-3.5-1.1-4.7-.6-.4-1.3-.8-1.7-1.1.5-1.7,1-3.3,1.5-4.8.1-.4.4-.7.8-1,2.9-2.3,5.7-4.7,8.7-6.8,1.6-1.1,3.5-1.9,5.3-2.4,2-.6,3.4.2,4.6,1.9.3.5.8.9,1.3,1.1,1.8.7,3.5.3,4.3-1.1,1-1.7.7-4-.8-5.2-.8-.6-1.7-1.2-2.7-1.4-2.1-.5-4.3-.8-6.5-1.3.4-.4.9-.8,1.4-1.3,1.8-1.8,3.8-3.5,5.5-5.4,1.3-1.6,2.6-3.4,3.3-5.3,1.3-3.4.2-5.4-2.8-6.1,3.5-12.1,4-24.1-1.4-35.8s-13.8-20-26.5-23.6c4.5-2.8,9.3-4.4,14.4-5.1,2.5-.3,5-.3,7.5-.3s2,.4,2,1.9,1.2,2.2,2.5,2.4c2.1.2,4-2.2,3.5-4.6-.4-2-1.8-3.3-3.6-4.1-1.6-.6-3.4-1-5.1-1.6.4-.3.8-.5,1.1-.8,1.8-1.8,3.8-3.4,5.2-5.4,2.3-3.2,3-6.9,1.9-10.8-.2-.8-.9-1.7-1.6-2.1-1.1-.7-3.5.3-4.5,1.5-.9,1.2-.9,3,.2,4.1.9.9.9,1.7.4,2.7-.6,1.1-1.2,2.3-2,3.3-2.1,2.5-4.9,4.1-7.8,5.4-4.4,2.1-8.9,4-13.3,6l-.2-.2c3.4-4.4,4.3-9.4,3.4-14.8-1.2-6.7-5.1-11.4-11-14.4-1.1-.6-1.5-1.2-1.1-2.4h0c.4.3.9.5,1.3.8,2.9,2.6,6.2,4.2,10.1,4.6,4.2.4,9.3-2.2,11.1-6,1.5-3.2.5-7.7-2.3-9.5-3.4-2.3-9.5.2-10.3,4.3-.4,2.1.3,3.6,2.1,4.2,1.9.6,3.3-.1,4.2-2.2.3-.7.6-1.3.9-2.1,1.5,2.4,1.1,4.3-1.2,5.3-1.2.5-2.6.9-3.9.9-5.9-.3-9.3-4.5-13.3-8.4,1.5.1,2.7.3,3.8.3,3.1.1,5.8-1.9,6-4.9.2-2.9-.4-5.8-.6-8.9q-.4.3-.4.4c-.8,1.7-1.5,3.4-2.3,5.2-1.2,2.8-2.7,3.4-5.7,2.9-3.6-.6-6.7-2.3-9.9-4-6.4-3.5-13-5.3-20.5-4.3-6.2.8-11.8,2.8-16.8,6.8-.2-.4-.4-.9-.7-1.3-1-1.6-2.5-2.4-4.4-2.3-1.9.1-3,1.3-2.9,3.2,0,.4,0,1-.3,1.3-1.4,2.2-1.5,6.4,1.7,7.9-.6,1.5-1.1,3-1.7,4.5-5.3.2-8.3,1-11.4,3.1-8.2,5.7-11.9,13.9-12.8,23.5-.2,2.6,0,5.3,0,7.9-.6-.7-1.3-1.4-2.1-2.2-6.6,6.7-7.2,14.7-1.5,22,1.1,1.4,1.8,2.6.6,4.2-.3.4-.4,1.1-.5,1.6-.3,1.4-.5,2.7-.7,4.1-.8,0-1.5-.2-2.2-.2-2.3-7.5-7.2-11.4-14.2-11.4s-12,3.7-13.7,11.7c-3.6-.3-9.2-3.4-11.8-6.6-2.9-3.6-2.4-10.2,1.1-13.4,1.3-1.2,2.4-1.3,3.9-.3,1.1.8,2.2,1.6,3.4,2.3,2.8,1.6,5.9,1.2,8.2-1,1.8-1.8,2.9-4,3.2-6.5,0-.2,0-.6-.2-.7-2-1.4-3.9-2.7-6.1-4.2.2,1.8.6,3.3.6,4.9s-.2,1.6-.7,2.1c-1.1,1.3-2.4,1.3-3.7-.2-3.3-3.9-9.7-3.8-12.9-.4-1.5,1.6-3.1,3.5-3.7,5.6-2,7.2.2,13.4,5.4,18.5,3.4,3.3,7.7,5.1,12.4,5.9.7.1,1.3.1,1.7,1.1,1.5,4.4,4.6,7.4,8.6,9.7,6,3.4,12.5,3.2,19.1,2.2,2.2-.3,4.3-.7,6.6-1.1-1.5,1.2-3,2.2-4.2,3.5-5.6,6-6.1,16.9-1.5,24.2,5.2,8.3,18.4,10.7,25.7,8.8,1.4-.4,2.9-.7,4.3-1.1-3,3.9-5.5,8.2-9.7,9.9-1.5-1-2.5-1.9-3.7-2.2-1.6-.4-3.3,1-3.7,2.7-.5,1.9.4,3.7,2.4,4.4,3.7,1.3,7.4,1.1,10.5-1.4,2.4-1.9,4.5-4.3,6.8-6.5h.4ZM148.5,78c-1.3.7-2.6,1.4-4.1,2.1,1.3.9,2.5,1.8,3.7,2.6.1-1.6.3-3.2.4-4.7h0Z"/>
  <path class="cls-1" d="M449.8,93.6c-.4,2.4-.8,4.8-1.3,7.3-.1.7-.1,1.1.7,1.2,3.9.7,7,2.8,9.7,5.7,0,.1.2.2.3.2,1.8-2,3.4-4,5.2-5.8,4.5-4.2,9.7-6.8,16.1-6.5,4.8.2,9.7,3.2,10.5,8,0,.3.2.6.1.9-.5,2.6.7,4.6,2.5,6.3,1.9,1.9,1.9,5.3-.3,7.3-3.3,3.1-9.5,4.8-13.8,1.6-1.7-1.3-2.6-3.1-3.2-5.1-.2-.5-.3-1-.8-1.6-.5.9-1.3,1.8-1.6,2.8-.9,2.8-1.7,5.7-2.3,8.5-.3,1.5.1,1.9,1.7,2,7.7.1,14.5,5.2,16.4,12.6,1.3,4.7,0,8.8-2.8,12.6-1,1.4-2.2,2.6-3.4,3.7-.7.7-.7,1.2-.1,1.9,2.8,3.5,3.8,7.7,4.2,12,.1,1.5.3,3,.5,4.7,1.2-.4,2.3-.7,3.6-1.2.7,2.9,1.5,5.7,2.1,8.5,0,.3-.5.9-.9,1.1-3.3,2.2-6.2,4.8-8.2,8.3-.6,1-1,2-1.6,2.9-.2.4-.6.8-1,.9-3,.8-6.4-.6-8.2-3.2-1.6-2.4-2.2-5.2-2.7-8.1,0-.4-.1-.8-.2-1.1-4.8,2.3-7.4,6.5-10.3,10.6-.7,1-1.4,1.4-2.5,1.3-1.1,0-2.2,0-3.2-.1-2.7-.6-4.5-3-4.5-6.1v-68c0-3.2-.5-6.4-3.3-8.7-.8-.7-1.7-1.2-2.9-2.1-.5,1.6-1.2,2.8-1.4,4.2-.4,3.2-.8,6.4-.9,9.7-.1,7.3,0,14.7,0,22s.2,1.8,1.7,1.8c3,0,4.7,1.7,4.8,4.8,0,2.2-.3,4-2.5,5.3-1.6.9-1.4,3-1.6,4.6-.3,3.5-.2,7-.4,10.5,0,.5-.2,1.1-.2,1.6,0,.8,0,1.8.5,2.4,1.9,2.6,1.6,6.7-1.1,8.4-3.1,1.9-5,4.8-7.1,7.5-.3.3-.5.7-.8,1.1-1.9,2.5-3.4,2.8-6.9,1.7-2.3-.7-3.8-2.8-3.9-5.4v-67.6c0-2.5-.5-5.1-2-7.1-.9-1.2-2.2-2.1-3.5-3-1-.7-1.4-1.4-.7-2.5.7-1.1,1.3-2.3,1.8-3.5.5-1.3,1.4-1.3,2.6-1.2,3.4.4,6.2,2,8.8,4.1.2.1.4.3.8.6,1.9-3.5,3.8-7,7.2-9.2,3.3-2.1,6.8-3.9,10.2-5.8h0v-.3ZM459.6,111.8c-.8-.9-1.3-1.7-2-2.4-2.3-2.5-4.9-4.6-8.3-5.2-.5,0-1.2,0-1.5.4-.6.9-1,2-1.6,3.1,2.6,1.5,4.7,3.4,5.4,6.3.5,2.2,1,4.6,1,6.9v67.7c.2,1.7,1.3,2.8,3,3.2,1.6.4,3.2.6,4.3-1.3.9-1.6,2-3.1,3.3-4.5,1.4-1.5,2.9-2.9,4.6-4.2,1.8-1.3,2.4-3.9,1-5.7-.2-.2-.4-.5-.4-.7-.6-4.3-.1-8.5.4-12.5,1.3-.2,2.4-.4,3.6-.6.1,1.6.3,3.2.3,4.8.1,4.5.1,8.9.3,13.4.1,3,.6,6,2,8.7,1.1,2.3,3,3.4,5.5,3.3.4,0,1-.4,1.2-.7,2.1-4.4,5.3-7.8,9.2-10.6.3-.2.6-1,.5-1.4-.3-1.5-.8-3-1.2-4.6-1.3.5-2.5,1-3.9,1.5-.2-1.8-.3-3.6-.5-5.4-.5-5.8-1.2-11.5-6.3-15.2,1.8-1.7,3.6-3.3,5.2-5.1,2.1-2.3,3.2-5,3.4-8.2.3-6.6-4.9-13.5-13.6-14.6-2.4-.3-4.4-.5-5.5,2.4,0-1.3,0-2.5.2-3.7.4-2.5.7-5.1,1.4-7.5.8-2.6,2-5.1,3.3-7.5.8-1.5,2.3-2.5,4.4-2.2,0,.5-.1.9-.2,1.3-.8,4.2,2.1,8,6.4,8.3,2.3.1,4.4-.6,6.3-1.8,2.8-1.9,2.9-4.3.3-6.4-1.3.7-2.5,1.5-3.8,2.2l-.4-.4c.3-.7.6-1.5,1-2.1,3.6-6.1,0-12.7-7.2-13.1-5.6-.3-10.2,1.8-14.3,5.3-2.9,2.4-5.1,5.4-6.8,8.9h0ZM440.4,149.4v-30.8c0-5,1.3-9.7,4.4-13.7,1.1-1.4,2.4-6,2.2-7.7-6.9,2.8-11.5,7.8-13.9,15.1-3-3.6-6.3-6.1-11-6.6-.6,1.3-1.2,2.4-1.8,3.7,3.6,1.9,5.4,4.9,6,8.7.2,1.6.4,3.2.4,4.8v64.9c0,2.7.7,3.8,2.8,4.5,2.3.8,3.3.4,4.9-1.8.9-1.3,1.7-2.6,2.8-3.7,1.4-1.5,3-3.1,4.7-4.3,2.1-1.6,2.5-4.3.6-6.1-.2-.2-.4-.6-.4-1,.2-5.4.4-10.9.7-16.3.1-1.8.8-3.5,2.3-4.6,1.4-1,1.9-2.5,1.5-4.1-.4-1.7-1.7-2.6-3.4-2.2-1,.2-1.8.7-2.9,1.2h0ZM470.8,165.1h-.7v8.8c0,.5.3.9.4,1.4,0,0,.2,0,.2-.1v-10.1h.1Z"/>
  <path class="cls-1" d="M234.5,126c-3.8.2-7.6-2.3-8.3-5.9,0-.4-.8-.7-1.3-.9-2.1-.6-3.7-1.5-4.1-3.8-.3-1.9.7-3.4,1.9-4.7,3.7-3.8,8.1-6.4,13.4-6.8,3.6-.3,7.7,2.2,8.2,6.3.1.9.4,1.2,1.4,1,2.6-.5,5,1.5,5,4.1v.7c0,2.4,0,2.3-2.2,3.3-1,.5-1.9,1.2-2.8,1.8-2.7,1.9-5.5,3.8-8.9,4.6-.8.2-1.6.2-2.4.3h.1ZM242.1,114.4l-.2-.2c1.6-5.1-1.4-9.1-6.3-8.3-4.7.7-8.6,3-11.8,6.6-1.3,1.4-1.4,2.8-.5,3.8.9,1.1,2.2,1.2,3.9.2.2-.1.4-.2.6-.4,0,.1.2.2.2.3,0,1.2-.2,2.5.1,3.6.7,2.7,3.5,4.2,6.8,4,3.2-.2,5.7-1.9,8.3-3.5,1.7-1.1,3.4-2.1,5.1-3.2.2-.1.5-.4.5-.6.2-2.2-.9-3.9-3.2-3.5-1.2.2-2.3.8-3.5,1.3h0Z"/>
  <path class="cls-1" d="M449.8,93.6h0q0-.1,0,0h0Z"/>
  <path class="cls-1" d="M275,190.4c-4-.9-7.7-2.2-11-4.4-9.2-6.1-13.3-14.7-12.3-25.6.5-5.7,3-10.7,6.1-15.4,2-3.1,4.2-6.1,6.2-9.1-1.6-2.3-3.3-4.6-4.8-7.1-6.6-11.1.4-26.7,13.1-29.4,3.3-.7,6.6-.6,9.9.3,4,1.1,6.5,4.8,5.8,8.5-.3,1.3-1,2.6-1.4,3.9-.5,1.9.9,3.2,2.8,2.6.7-.2,1.4-.7,2-1.1.4-.2.8-.3,1.3,0-.2.3-.3.6-.5.8-2.6,2.5-7.2,2.9-10.2.9-1.2-.8-1.8-1.9-1.4-3.3.4-1.2.8-2.5,1.4-3.6,1.7-3.4.7-6.4-2.5-7.4-6.7-2-14,3.1-14.7,10-.5,5.5,1.5,10,4.9,13.9,3.4,4,7.3,7.7,10.9,11.5,2.9,3,5.5,6.1,7.4,9.9,3.1,6.1,3.3,12.4.3,18.5-2.6,5.2-5.8,10.1-8.9,15.1-2,3.2-3.7,6.6-4.5,10.5h.1ZM266,137.5c-2.8,2.9-5.7,5.6-6.7,9.5-.8,3-1,6-.5,9.1,1.4,8.9,5.6,16.1,12.7,21.5,1.6,1.2,3.6,1.9,5.6,3,1.1-2.9,2.2-5.3,3-7.8s1.3-5.1,1.9-7.7c1.2-5.9,0-11.3-4.1-15.7-3.8-4-7.8-7.8-11.8-11.8h-.1Z"/>
  <path class="cls-1" d="M276,105.8c-.3,1-.3,1.7-.6,2.3-.5.9-1.2,1.8-1.8,2.6-2.4,2.8-2.4,5.9-1.7,9.3,1.2,5.5,4.6,9.5,8.6,13.1.4.4.8.7,1.2,1v.5c-.4,0-1,.1-1.2,0-4.3-4.3-8.4-8.7-9.7-15-.6-2.9-.4-5.9.5-8.8.7-2.3,2.3-3.7,4.8-4.9h0Z"/>
  <path class="cls-1" d="M355,141.3c-.9-1.3-.4-2.2.4-3.2,1.8-2.3,3.1-4.9,3.7-7.8.2-.8.5-1,1.3-1,4.6,0,7.8,2.2,10.4,5.7,2.5,3.3,3.6,7.1,4.2,11.1.7,5.1.8,10.1-1.2,15-1.9,4.7-4.7,8.9-7.9,12.8-3.4,4-6.9,7.9-10.3,11.9-1.1,1.3-1.9,2.9-3,4.4-7-.1-12.7-5.2-13.9-12.8-.4-2.3-.6-4.6-.6-6.9v-29c-.6.2-1,.3-1.4.4h-1.8c.2-.8.2-1.7.7-2.3.6-.7,1.7-1,2.3-1.7,2-2.3,4.1-4.7,5.9-7.2.8-1.1,1.5-1.3,2.7-1s1.5,1.2,1.5,2.3v38.7c0,6.2,3.3,8.7,8.8,9.8.4,0,.9-.3,1.2-.7,4-4.5,6.3-9.8,7.2-15.7.8-5,.9-10,0-15.1-.7-4.1-3.1-7-6.7-8.9-.6-.3-1.6.2-2.4.4-.4.1-.8.5-1.3.7h.2Z"/>
  <path class="cls-1" d="M350.1,173.8c-.1-.3-.3-.6-.4-.9-.2-5-.2-10,1.4-14.8,1.2-3.5,3.1-6.5,6.8-7.8.5-.2,1.2,0,1.6.3.5.5.5,1-.4,1.4-5.8,2.3-8.3,7-8.8,12.9-.2,2.9,0,5.9,0,8.8h-.3,0Z"/>
  <path class="cls-1" d="M206.2,168.1c-.4-.6-.6-1.1-.9-1.5,1.6-1.4,3.3-2.7,4.8-4.1,4.3-3.7,4.1-9.1,1.6-13.2-1.7-2.9-4-5.3-6.7-7.1-.8-.5-1.6-1.1-2.6-1.8-2.8,2.3-4.7,5.4-5.8,9.1-3.6,12.1.1,21.9,9.9,28.9,1,.7,2.3,1.3,3.5,1.7,2,.7,3.8.9,5.7-.7,1.6-1.4,2.3-1,2.9,1.2-4.2,2.2-3.5,6.6-4.6,10.4-3.5,0-6.9-.9-10.2-2.3-10.3-4.6-16.7-14.7-16-25.4.4-5.2,2.5-9.9,5.3-14.2,2.5-3.9,5.5-7.5,9-10.6.5-.4.7-1.1,1-1.7.7-1.6,1.3-3.3,2.2-4.8,1.1-1.8,1.4-1.8,3.4-1,3.3,1.2,5.6,3.6,7.5,6.4,6.7,9.7,3.4,21.6-5.1,27.6-1.6,1.1-3.2,2.1-5,3.3v-.2Z"/>
  <path class="cls-1" d="M207.6,178.2c-2-2.3-4.3-4.4-6-6.8-2.3-3.2-2.9-6.9-2.2-10.8.4-2.1.9-4.2,1.8-6.2,1-2.2,2.8-3.7,5.3-4,.4,0,.9,0,1.1.3.2.3,0,.9,0,1.2-.3.5-.8,1.2-1.3,1.3-3.1.7-4.1,3.1-4.8,5.8-1.8,7.3.7,13.1,6.4,17.7.3.2.3.8.5,1.2-.3.1-.5.2-.8.3h0Z"/>
  <path class="cls-1" d="M209.6,149.8c2.5,3.2,2.9,7.8,0,10.6-2,1.9-4.1,3.6-6.4,5.3-.4-3.1-.4-6,1.1-8.6.4-.7,1.2-1.4,2-1.7,2.4-.9,3.3-2.1,3.3-4.6v-.9h0ZM209.7,156c-1.1.4-2,.8-2.9,1.1-.2.1-.5.3-.6.5-.5,1.2-.9,2.5-1.3,3.7.1,0,.3.1.4.2,1.9-1.5,3.8-3,4.4-5.6h0Z"/>
  <path class="cls-1" d="M209.1,148.2c-7.1.8-10.1,3.6-11.5,10.8-.8-3.9.9-12.3,5.3-16.2,2.1,1.8,4.1,3.6,6.2,5.4h0ZM202.9,145.4c-.5.9-1,1.6-1.4,2.3l.3.2c.9-.4,1.8-.8,2.9-1.3-.6-.5-1.1-.8-1.7-1.3h-.1Z"/>
  <path class="cls-1" d="M315.8,167.9c-.3-.6-.6-1.1-.8-1.5,1.6-1.4,3.3-2.7,4.8-4.1,3.8-3.6,4.4-8.2,1.9-12.8-1.7-3.1-4-5.5-6.9-7.5-.9-.6-1.7-1.2-2.6-1.9-3.4,2.8-5.4,6.8-6.4,11.3-2.7,11.4,1.8,20.6,10.3,26.6,1.7,1.2,3.9,1.8,6,2.4.6.2,1.5-.2,2.2-.4.5-.2.9-.6,1.3-.9,1.7-1.1,2.3-.8,2.7,1.3-4.1,2.2-3.5,6.5-4.6,10.5-1.7-.2-3.6-.3-5.3-.8-10.4-2.8-17.4-9.2-20.2-19.8-1.8-6.9,0-13.3,3.4-19.3,2.7-4.7,6-8.9,10.1-12.5.6-.5.9-1.4,1.3-2.1.8-1.6,1.6-3.3,2.4-4.9.6-1.2,1.6-1.3,2.8-.9,3.5,1.1,5.8,3.6,7.8,6.5,6.8,9.8,3.5,21.8-5.2,27.8-1.5,1.1-3.2,2.1-4.9,3.2v-.2Z"/>
  <path class="cls-1" d="M316.9,150.1c.1.3.5.9.4,1.2-.3.6-.8,1.5-1.3,1.6-3.2.7-4.2,3.2-4.9,5.9-1.7,7.2.7,13,6.3,17.6.3.2.4.7.6,1.1-.4,0-1,0-1.3-.3-1.9-1.9-3.9-3.8-5.5-6-2.3-3.1-2.7-6.7-2.3-10.5.3-2.5.8-4.8,2.1-7,1.3-2,3-3.4,5.9-3.6h0Z"/>
  <path class="cls-1" d="M319.3,149.4c2.8,4.3,2.6,8.4-1.2,11.8-1.7,1.4-3.4,2.8-5.4,4-.3-3.3-.3-6.5,1.7-9.3.3-.4.7-.7,1.1-.8,3.2-1.3,3.7-2.1,3.6-5.5,0,0,.1,0,.2-.1h0ZM319.2,155.8c-3.7,1.4-4.8,2.8-4.4,5.8,1.7-1.8,3.8-3.1,4.4-5.8Z"/>
  <path class="cls-1" d="M307.1,158.9c-.2-6,.8-11.7,5.3-16.5,2.2,1.9,4.2,3.7,6.2,5.4,0,.2-.1.3-.2.5-3.1-.4-5.8.4-7.9,2.8-2,2.2-2.9,4.9-3.5,7.9h.1ZM314.2,146.5c-.7-.5-1.1-.8-1.7-1.2-.5.8-1,1.6-1.4,2.3,0,0,.2.1.2.2.9-.4,1.8-.8,2.9-1.3Z"/>
  <path class="cls-1" d="M319.2,149.5c0-.2-.2-.3-.3-.5h.2c0,.1.2.3.3.4,0,0-.1,0-.2.1Z"/>
  <path class="cls-1" d="M230.6,142.3c-.7.2-1.1.3-1.6.4h-1.7c0-.6,0-1.3.1-1.9,0-.2.2-.3.4-.4,3.8-2.1,6.1-5.6,8.4-9.1.8-1.2,1.6-1,2.6-.8,1.1.3,1.4,1,1.4,2.1v45.6c.1,0,.3.1.4.2.2-.4.4-.9.4-1.3v-13c0-4,.2-8,1.8-11.8.3-.8,1-1.6,1.8-2.2.4-.3,1.2,0,1.8,0,0,.7.2,1.9-.1,2.2-3.3,2.4-3.7,5.8-3.8,9.4-.2,5.4-.4,10.8-.6,16.1.7.2,1.3.4,1.8.6-.2.7-.2,1.9-.7,2.2-3.7,2.2-5.9,5.7-8.3,9-.7,1-1.4,1.3-2.5.9s-1.6-1.1-1.6-2.3v-44.4c0-14.8,0-.8,0-1.4h0Z"/>
  <path class="cls-1" d="M381.3,165.8c.1-6.9,2.8-12.9,6.3-18.6,2.5-4.1,5.6-7.8,9.4-10.8.4-.3.6-.8.8-1.3.3-.6.4-1.3.6-1.9,1.1-2.8,1.6-3.1,4.5-2.3,4.2,1.1,7.4,3.7,10.2,6.9,3.5,4,6.1,8.5,6.9,13.8.7,4.8-.2,9.4-2,13.9-1.9,4.7-4.7,8.8-8,12.5-3,3.4-5.9,6.9-7.3,11.4-.5,1.5-1.3,1.5-2.6,1.2-9.6-2.7-15.3-9.1-17.9-18.6-.5-2-.6-4.1-.9-6.2h0ZM413.1,164.6c-.4-2.6-.6-5.3-1.3-7.8-1.9-6.9-5.6-12.6-12.3-15.8-1.6-.7-2.8-.6-4.2.3-2.1,1.4-3.4,3.4-4.4,5.7-2,5.1-2.6,10.3-1.5,15.6,1.6,8,5.9,14,13.5,17.3q2.5,1.1,4.2-1.1c.2-.3.5-.6.7-.9,3.4-3.7,5.2-8.1,5.2-13.2h0Z"/>
  <path class="cls-1" d="M136.7,80c1.1,2.5,1.7,5.1,1.6,7.9,0,.4.4.9.8,1.1,1.4.9,3,1.6,4.4,2.6,6.1,4.3,8.8,12.5,6.7,19.6-2.7,8.9-14.6,12-21.4,4.7-1.4-1.5-2.7-3.2-4.1-4.8-2.9,1.3-6.1,2-8.1,4.9-.4.6-.9,1.3-1.2,2-1,2.1-.5,3.2,1.5,4.2s1.9.9,2.9,1.3c1.2.5,1.6,1.4,1.2,2.7-2.6.4-6.2-1.4-7.3-3.8-1.3-2.7-.2-5.7,3.6-9.1-6.9,0-12.1-2.9-16.3-8.2-3,2.1-5.9,4.2-7.6,7.6-.2.4-.3,1.2,0,1.6,2.3,3.5,4.6,7,7.2,10.3,0-1.7-.5-3.4-.3-5,.2-1.4,1-2.7,1.8-4,.2-.4,1.3-.6,1.8-.4.5.1.8.9,1,1.4.2.7,0,1.2-.9,1.4-1.7.3-2.8,3.2-1.8,4.6.3.3,1.3.2,1.9,0,.4,0,.7-.5,1.4-1.1.6,1.4,1.6,2.7,1.4,3.7s-1.8,1.7-3,2.8c1.7,2.7,3.4,5.5,5.2,8.4.9-.7,1.6-1.3,2.4-2,5.5-4.5,11.9-6.7,18.8-7.8,3-.5,6.1-.6,9.1-.9.4,0,.9-.1,1.2-.4,6.7-5,14.2-8.5,21.8-11.6,3.5-1.4,6.7-3.4,9.3-6.1,1.7-1.8,2.9-3.8,3.2-6.3.1-.9-.1-1.6-.9-2.3-.4-.3-.8-1.4-.6-1.7.5-.6,1.4-1,2.1-1.3,0,0,.7.7.8,1.2,1,4.3-.4,7.9-3.4,11-3.3,3.5-7.6,5.5-11.9,7.9,1-.1,2-.3,3-.3s2,0,3-.2c2.7-.3,5.3.1,7.7,1.4,1.7.9,2.2,2.3,1.5,3.8-.2.4-.7.8-1,.8s-.9-.5-1-.9c-.9-2.8-1.7-3.4-4.9-3.6-6.5-.2-12.6,1.2-18.4,4-2.6,1.3-5.1,2.9-7.6,4.5,7.5.9,14,4,19.5,8.9,6.9,6.2,11.4,13.9,13.2,22.9,2.9,14.8,0,28.6-9,40.9-.4.5-.9,1-1.3,1.5-.4.5-.9.9-1.2,1.6.3-.1.7-.2,1-.4,3-2.9,6.1-5.8,9.1-8.8s2-2.1,1-3.9c-.2-.3.9-1.3,1.4-2.1.3.3.7.6.8.9.3,2.3-.6,4.3-2.1,6-2.5,2.6-5.1,5.2-7.8,7.7-5,4.4-10.1,8.7-15.1,13-.5.5-1,1.1-1.5,1.6,0,.1.2.2.3.3.3-.2.6-.3.9-.6,3.3-2.7,6.5-5.4,9.8-8,4.2-3.3,8.8-3.5,13.6-1.7,1.8.7,2.3,1.8,1.8,3.1-.2.4-.6.9-.9.9-.6,0-1.5-.2-1.6-.6-.7-2.2-2.5-2.4-4.2-2.6-2.6-.4-4.9.4-7,1.9-3.2,2.3-6.3,4.8-9.5,7.2-.5.4-1.1.9-1.6,1.3-.2.2-.5.4-.6.6-.5,1.8-1,3.6-1.5,5.3-.4,1.2,0,2,1.1,2.5.3.1.5.3.8.4,1,.5,1.7,1.2,1.4,2.4-.3.9-1.4,1.3-2.8,1,.9-2,.9-2.1-1.1-3-1.2-.5-1.5-1.3-1.2-2.4.3-.9.7-1.8,1-2.7.2-.5.3-1,.5-1.9-.6.4-.9.6-1.1.8-6.1,4.9-12.2,9.5-19.5,12.4-7,2.8-14.1,4.3-21.6,2.8-9-1.9-15-7.1-17.4-16.1-.9-3.3-.8-6.6.2-9.9.5-1.8.8-3.8,1.1-5.7,0-.5-.2-1-.4-2-1.1,1.5-1.8,2.7-2.7,3.8-2.3,2.7-4.5,5.5-7,7.9-2.7,2.6-6.1,3.1-9.6,2.1-1.5-.4-2.1-1.7-1.2-2.7.3-.4,1-.8,1.4-.7.4,0,1,.7,1.1,1.1.2.8.6.9,1.3,1,1.9.2,3.5-.5,4.9-1.7,3.9-3.2,6.7-7.3,9.7-11.2-1.6-1-2.9-1.3-5.5-.4-5.9,2-11.7,1.5-17.3-.5-6.9-2.5-10.9-7.3-11.7-14.8-.4-3.6,0-7.1,1.5-10.3,2.2-4.7,6-7.4,11.2-7.8,2.4-.2,4.8-.2,7.2-.2s4,1.2,5.3,3c.5.7,1,1.5,1.5,2.3.7,1.1,1.7,1.9,3,1.5.9-.3,1.5-1.2,2.5-2,1.1.4,1.6,1.6,1.2,3.7-1.2,4.8-5.4,6.6-9.6,3.8-.8-.5-1.2-.4-1.9,0-.8.6-1.8,1-2.6,1.6-.7.4-1.3.3-1.5-.4,0-.4.3-1.1.6-1.3,1-.6,2.2-.9,3.5-1.5-1.4-1.8-2.6-3.5-4-5.2-.8-.9-2-1.3-3.3-.8-1.5.6-2.4,1.8-2.7,3.3-.4,1.7,0,3.4,1.4,4.3,2.1,1.4,4.3,2.7,6.6,3.8,2.1,1,4.5,1.4,6.7,2.2,4.7,1.7,8.9,4.3,12.6,7.5.8.7,1.5.9,2.6.5,4.9-1.9,10-2.8,15.2-2.3.5,0,1,.1,1.5.2-.2-2.3-.5-4.6-.6-7,0-3.6.8-7,2.2-10.3,1.7-3.9,3.6-7.7,6.1-11.1,1.5-2,2.9-4.2,3.1-6.9,0-1.6-.4-2.9-2-4.1-1.8,5-3.6,9.8-5.3,14.6-.9,2.4-1.4,5-2.4,7.4-1.8,4.8-4.7,8.7-9.3,11.2-2,1.1-4.1,1.6-6.6.9.9-.5,1.7-1.1,2.7-1.4,3.5-.9,5.1-2.7,5.1-6.4,0-7.6-1.5-11.9-6.4-17.3-.5,1.2-.6,2.1.2,3.2,3.5,4.7,4.6,10.1,3.8,15.8-.3,2.1-.9,4-3.6,3.7-1.5-10.9-13.9-21.6-26.8-20.6-5.4.4-10.8,1.4-16.2,2.2-4.6.7-9.3,1.7-14,.7-7-1.4-12.5-4.8-14.8-12.1-.1-.4-.8-.8-1.3-.9-2.2-.6-4.6-1-6.7-1.8-6.2-2.4-10.2-6.9-11.4-13.6-.8-4.4,0-8.5,3.6-11.6,2.9-2.6,7-2.6,9.7,0,1.4,1.4,2.8,2.7,5,1.8,2.3-1,3.3-2.7,3.1-5.4.7.5,1.2.8,1.9,1.3-.5,1.1-.9,2.2-1.6,3.2-2.2,3.3-4.8,3.7-8.1,1.5-.8-.5-1.6-1.1-2.4-1.7-2-1.3-4-1.2-5.9.3-4.6,3.8-5.2,12-1.3,16.5,3.5,3.9,8,6,13,7.2.5.1,1,.2,1.6.3h.3c.2-4.1,1.7-7.5,5.1-10,2.3-1.7,5-2.3,7.8-2.2,6.3.4,10.4,4.4,11.4,11.3,1.4.1,2.7.3,4.1.3s2.1-.6,2.1-2c0-2.9.8-5.6,2.6-8-8-7.5-7.4-15.5-2.5-21,.3.4.6.7,1,1.2-2.5,3.1-3.2,6.7-2.4,10.5.6,3.3,2.4,6,4.9,8.2,4.4-2.3,5.6-2.2,9.8,1.5-.4.3-.9.6-1,.7-1.6-.9-2.9-2.1-4.4-2.5-.9-.2-2,.8-3.4,1.3,6.9,5.7,15.1,8.1,22.3,12.4h.4s0-.2-.2-.2c-2.5-2.3-5-4.6-7.5-6.8-6.2-5.6-11.4-12-13.9-20.1-3.2-10.5-2.7-20.8,3.7-30.1,2.8-4.1,6.4-7.4,11.5-8.6,2.1-.5,4.4-.5,6.7-.7.8-2.2,1.8-4.8,2.8-7.5-.3-.1-.6-.4-1-.5-2-.9-2.7-2.4-2-4.5.4-1.1,1.2-.8,1.9-.5.8.3,1.5.7,2.2,1.1,0-.2.2-.3.4-.5-.6-.6-1.3-1.3-2-1.9-.4-.4-.9-.5-1.3-.9-.6-.7-.3-1.6.7-1.7,1.2-.1,2.2.4,2.8,1.5.6,1.2.9,2.5,1.3,3.8.8-.7,1.7-1.7,2.8-2.5,4.2-3.3,9-5.1,14.3-5.8,6-.8,11.8-.4,17.2,2.5,2.1,1.1,4.2,2.3,6.4,3.2,2.5,1,5,1.9,7.7,2.5,2.8.6,5.4-.1,6.9-3.2.4,3-1.8,5.4-4.6,4.8-2.7-.5-5.3-1.4-8-2.1-.5-.1-1.1-.3-1.6-.5-.1.2-.3.3-.4.5,3.5,3.3,6.9,6.8,10.5,10,2.4,2.2,5.2,3.7,8.5,4.1,2.5.3,4.8-.3,6.9-1.8,2.3-1.7,2.7-5,.9-7.2-1.3-1.6-2.9-1.5-3.8.4-.3.7-.6,1.3-.8,2-.3,1-1.1,1.2-1.8.8-.5-.3-.9-1.2-.8-1.7.4-2.1,3.4-4,5.6-3.8,2.2.2,3.8,2.1,3.9,4.7.2,3.4-2.5,6.7-6.3,7.6-4.1,1-7.8-.1-11-2.7-2.5-2-4.9-4.2-7.4-6.3,0,0-.2-.1-.3-.2v.3l-.4.3ZM146.7,220c0-.1.2-.2.3-.3,0,0,.1-.1.2-.2h-.1v.2c-.1,0-.3,0-.4.1,0,.1,0,.3-.1.4,0,0,.2-.2.3-.3h-.2ZM142.7,223.4c.2-.1.3-.3.5-.4.3-.2.7-.5,1-.7.2-.1.3-.3.5-.4.4-.3.9-.7,1.3-1v-.4s-.2.2-.3.2c-.4.3-.9.7-1.3,1-.1.2-.3.3-.4.5-.3.3-.6.6-.8.9-.2,0-.4.2-.6.2,0,0-.2.1-.3.2h0c.1,0,.2-.1.3-.2h.1ZM99.4,194.5l-3,.3v.4c.3.3.7.6,1,.9.7-.6,1.3-1.1,2-1.7v-.3h0s0,.2.2.2v.2ZM129.6,221.9c1.1-1.4,2.2-3,3.5-4.3,1.8-1.7,3.6-3.7,5.8-4.7,4-2,7.9-.9,11.5,1.7,4-3.6,7.9-7.3,11.9-10.9-12.4,8.4-25.1,6.4-38.1,1.1,4.4,4.5,6.3,9.6,5.4,15.6v1.5s-.1-.1-.2-.2c0,0,0,.1-.1.2h.3ZM98.2,171.9c-.5-.7-1.1-1.4-1.6-2.1-3.8-5.4-8.6-9.6-14.5-12.4-4.9-2.3-10-3.7-15.4-4.5-1.9-.3-3.8-.4-5.6-.6,0,.2,0,.3-.2.5,1.1,1,2.2,2.2,3.4,3.1,3,2.2,6.5,3.4,10,4.4,3.4,1,6.9,1.5,10.2,2.8,7.7,3.1,12.7,9,16.2,16.3.3.6.6,1.2.9,1.8,0-1.4,0-2.7,0-4,0-.3,0-.7,0-1-1.7-8.4-6-15.1-13.6-19.5-8.5-4.9-17-9.7-25.6-14.6-1.6,2.1-2.3,4.7-2.1,7.5,0,.9.4,1.2,1.3,1.3,5.7.4,11.4,1.4,16.9,3.2,9.2,3.1,16.4,8.4,20.3,17.6,0,0-.2.2-.3.2h-.1ZM120.6,202.4h.4s0-.2-.2-.2c-2.9-2.5-5.3-5.3-6.6-9,0-.2-.4-.5-.6-.5-1.5-.1-3.1-.3-4.6-.2-3.8.4-6.8,2.6-9.6,5.1-.3.3-.4,1-.3,1.4,0,1.5.6,3,.5,4.4,0,2-1,3.7-2.4,5.2-1.5,1.5-3.4,2.1-5.5,2.2-1.8,11.7,8.1,19.8,14.6,21.1,0-.2-.2-.4-.3-.6-.5-1.4-.3-2.7.6-3.8.9-1.1,2-.7,3.1-.4.5.1.9.3,1.4.3,1.3,0,1.8.7,2,1.8,0,.4.2.9.4,1.7.6-2.3,1-4.2,1.6-6,.4-1.2,1.3-1.3,2-.3.3.4.5,1.1.5,1.6,0,2.7-1.1,4.9-3.3,6.4-.3.2-.5.4-1.1.8,5.5-.7,9.4-3.4,12.3-7.6,2.5-3.6,4-7.6,2.6-11.9-1.5-4.7-4.8-8-9.3-10-4.7-2-10.6-.7-14,3.1-2.6,2.9-3.1,6.4-1.6,9.8,1,2.4,4.9,3.3,6.7,1.1,1.2-1.4,2.6-2.8,4.2-3.7,4.4-2.6,8.3-.6,9.7,4,0,.4-.2.9-.3,1.4-.5-.1-.9-.2-1.4-.4-.2,0-.3-.3-.4-.4-1.6-1.7-1.9-1.6-3.7-.1-1.6,1.4-3.2,2.7-4.8,3.9-1.5,1.1-3.2,1.3-5,.8-6.5-1.7-9.9-10.7-6.2-16.3,3.2-5,11.8-8.3,18.5-4.9v.2ZM130.2,170.4c.9-.2,1.7-.7,2.2-.5.6.2,1.2,1,1.3,1.7.3,1.1-.6,1.9-1.5,2.4-1.6.8-3.2,1.5-4.8,2.5-2.4,1.5-4.6,3.2-5.3,6.2-1.3,5.4,1.2,10.6,6.6,13.7,6.2,3.5,15,2.2,20.5-3.3,6.8-6.8,8.6-15.3,7.4-24.4-1.7-12-12.6-23.2-24.3-25.8-1.6-.4-3.2-.4-4.9-.5v.5c.2.1.5.2.7.3,2.7,1.4,5.5,2.8,8.1,4.4,1.9,1.2,3.3,2.9,3.8,5.1.3,1.2.2,2.6,0,3.8-.2,1.1-1.2.7-1.9.4-.8-.4-.9-.9-.3-1.6,1.1-1.5,1.1-2.6-.4-4.3-.2.6-.5,1-.8,1.9-1.4-2.1-2.7-4-4-5.9-.1,0-.2.2-.3.2,0,.3,0,.7.1,1,.2,1.6,0,2-1.7,2.1-.6,0-1.2,0-1.7.2-1.2.7-2.2.3-3-.5-.8-1-.8-2.1-.3-3.3.3-.6.7-1.1,1-1.7-2.2,1.3-2.8,3.7-4,5.7,2.9,2.5,3.4,4.7,1.9,8.4-.8,2-2.3,3.8-3.6,5.9.5-.2.8-.4,1.1-.6,2.8-2,5.8-3.1,9.2-3.6,9.8-1.2,18.6,5.9,18.2,15.5-.2,5.6-2.3,8.6-7.9,10.3-1.8.6-3.6,1-5.5,1.4-1.7.4-2.5,1.3-2.4,2.8,0,1.6,1.2,1.9,2.4,2.2.7.2,1.4.3,2.5.5-.7.6-1.1,1.2-1.6,1.2-2.5.2-5.5-.2-7.4-3-2.1-3.2-1.6-8.6,2.3-10.6,1.6-.8,3.2-1.6,4.8-2.4,2.1-.9,4.2-1.7,6.3-2.7s2.9-3.1,2.4-5.3c-.6-2.9-2.4-4.9-5-6.2-3.9-1.9-7.9-2.1-12-.7-10.7,3.5-17.1,16.7-13.3,27.3,0,.4.5.8.9.9,2.2.9,4.5,1.7,6.8,2.5.3,0,.5.2,1.1.3-2.2-2.7-3.6-5.4-3.7-8.7,0-3.9.7-7.4,4-9.7,1.7-1.1,3.5-2,5.4-2.8,1.8-.9,2-1.6.1-3.1h.5ZM85.8,89c-3.9-.9-7.4,0-10.5,2.2-6.3,4.4-9.5,10.8-10.4,18.2-1,7.8.9,15.1,4.7,21.9,2.2,4,5.1,7.6,8.4,10.7,0-.6-.4-1-.6-1.5-2.1-3.6-4.5-7-6.1-10.8-2.3-5.4-2.1-10.8,1.7-15.6,1.6-2.1,3.2-4.3,4.8-6.4,1.7-2.1,1.7-2.8,0-5-.8-1-1.2-2.1-1-3.4.3-1.6,2.1-2.8,3.2-2.2-1.9,1.7-2.2,3.5-.7,5.3,2,2.4,1.6,4.3,0,6.5-2,2.7-4,5.3-6,8-1.2,1.7-1.7,3.7-1.7,5.9,0,4.9,2,9.2,4.5,13.3,5.7,9.3,13.3,16.9,21.5,24,.5-1.1.4-2.1-.6-3.1-.8-.8-1.4-1.7-2.1-2.6-4.3-5.2-8.3-10.6-10.5-17.1-3.1-9.1-2.8-17.8,3.9-25.4.3-.3.3-1.1,0-1.5-2.7-6.9-3.8-14-2.5-21.5h0ZM116.9,193.5c0,.2-.3.4-.4.5,1.2,1.6,2.2,3.5,3.7,4.9,6.8,6.6,15.1,8.3,24,5.7,8.7-2.5,14.3-8.7,17.6-16.8,2.8-6.8,3.2-13.9,2.2-21.2-1-6.6-3-12.9-6.6-18.5-5-7.8-11.9-13-21.3-14.4-.6,0-1.4-.1-1.7.2-1.9,2.2-3.7,4.4-5.6,6.8,1,.2,1.8.3,2.5.4,12.5,2.4,21.4,9.5,26.2,21.1,4,9.7,2.2,19.3-3.2,28-4.3,6.9-10.8,10.1-18.9,9.7-3.7-.1-7.1-1.4-10.4-3-2.6-1.3-5.4-2.3-8-3.4h0ZM136,87.8c-.1-.9-.2-1.5-.3-2.2-1.2-8.3-5.7-14-13.4-17.2-11.1-4.5-29.8-.2-34,19.3,2.1,1.5,3.6,3.4,4.6,5.8.4.9.2,1.5-.8,1.7-2-3.6-2.7-4.4-4.3-5.2-.9,6.6.2,12.8,2.9,18.8,2.9-2.3,5.7-4.6,8.6-6.8-.2-.4-.3-.8-.5-1.2-2.8-6.3-1.7-11.9,2.6-17.2,1-1.2,1.8-2.6,2.7-3.9.4-.6.8-1.1,1.3-1.6,1.3-1.3,1.9-1.3,3.1.1,2.3-.8,4.7-.9,7.1,0,1.4.5,2.7.4,3.6-1.3.4.6.9.9,1,1.3,1,2.8,3,4.9,5.6,6.1,3.2,1.4,6.7,2.2,10.3,3.3v.2ZM125.2,94.8c-2.5,4.4-5.3,6.2-9.5,5.9-1.5-.1-3-.4-3.8-2,.6,0,1.2,0,1.8.2,4.6.8,7.8-.4,9.4-4.7.3-.9.3-1.5-.4-2.3-2.6-2.9-4.2-6.2-4.2-10.2s-.5-1.2-.9-1.4c-2.5-1.4-5.2-1.6-8-.6-1.6.6-2.1,1.7-1.3,3.3.3.6.6,1.1,1.1,1.5,3.8,3.5,2.7,12.5-1.2,15.4-1.8,1.3-3.5,2.8-5.6,4.5.7.6,1.5,1.1,2.1,1.7,3.5,3.1,7.5,4.9,12.2,5,1,0,1.5-.2,1.8-1.3.3-1.3,1.2-2.6,2.2-3.4,1.9-1.6,4.2-1.9,6.7-1.4.4.1,1.2,0,1.4-.3,1.5-1.8,2.8-3.6,4.2-5.4-2.7-1.6-5.3-3-7.9-4.5h0ZM84.2,198.5c-1.4-.5-2.7-1-4.1-1.5-5.1-1.9-9.9-4.2-13.3-8.7-4.4-5.7-4.5-12.4,0-17.5.9-1,1.9-1.9,2.9-2.8-2.4-.2-4.8.4-7,1.8-8.1,5.1-9,17.9-1.6,24.5,6.7,5.9,14.6,6.6,23.1,4.2ZM70.6,161h0c-.2-.1-.4-.2-.7-.3-4.2-1.8-8-4.1-10.4-8.2-.2-.3-.8-.5-1.2-.5h-4.9c-1,0-1.5.3-1.8,1.3-1.9,5.6-7.1,7.2-11.8,5.8-2.8-.8-4.7-3-5.6-5.7h-3.9v.6c1.7,5.4,5.5,9,11,9.7,4.1.6,8.5,0,12.7-.4,5.6-.6,11.1-1.5,16.7-2.4h-.1ZM35.1,150.8c5.1-.2,10.1-.4,15.2-.7.2-4.1-1.9-6.8-5.2-8.6-3.5-1.9-7.2-2.2-10.6.3-3.1,2.3-4.4,5.5-4.6,9.5,1.5-.1,2.7-.2,3.9-.4,1.5-6.3,6.1-7.6,9.5-5.1-.7,0-1.4,0-1.9-.2-1.3-.8-2.4-.5-3.5.3-1.6,1.2-2.3,2.9-2.7,4.8h0ZM148.6,216.2c-1.8-2.5-4.8-3.5-7.8-2.7-2.6.7-4.6,2.3-6.2,4.3-2.7,3.3-5.2,6.8-7.8,10.1-1.2,1.5-2.6,2.8-4,4.3,7.7-1.4,19.8-9,25.8-16.1h0ZM91.8,117.8c0,.1-.2.2-.2.4-.6,5.5.2,10.7,3.5,15.3,2.1,3,4.4,5.9,6.5,8.9.4.5.8,1,1.2,1.5,1.5-2,2.9-3.8,4.4-5.8-5.1-6.7-10.3-13.5-15.5-20.2h0ZM130.8,106.1c.9,1,1.8,1.9,2.5,2.9.8,1,1.4,2.2,2.1,3.3.7,1,1.4,2,2.1,2.9,1.4,1.8,3.2,2.2,5.3,1.7,4-1,5.7-5.6,3.4-9.4-2.1-3.6-5.4-5.7-9.2-7.3-1-.4-1.7-.2-2.3.6-1.4,1.8-2.7,3.5-4,5.3h0ZM113.1,144c4-2,8.2-3.2,12.7-3.3.4,0,1-.2,1.2-.5,1.6-2.2,3-4.5,4.7-7-7.6.5-14.9,1.1-21.1,6,.8,1.6,1.6,3.1,2.5,4.8ZM100.7,101.4c1.6-1.3,3.1-2.5,4.7-3.6,2-1.5,2.5-3.5,1.8-5.8-.3-.8-.6-1.6-.9-2.4-.9-2-1.8-4-2.7-5.9-4.6,3.9-7.3,11.3-2.7,17.7h-.2ZM124.7,144.2c-3.8-.5-7.3-.1-10.2,1.1,1,4.4,2,8.7,3,13.1,1.2-2.5,2.3-4.9,3.4-7.3,0-.1-.2-.2-.3-.3-.5.2-1,.6-1.5.7-.5.1-1.3.1-1.4-.1-.2-.4-.3-1.2,0-1.6.3-.4,1-.4,1.5-.6,1.1-.4,2.5-.5,3.3-1.2,1-.9,1.4-2.4,2.2-3.8h0ZM115,164.8c1.1-2,1.6-3.9,1.1-6.2-.9-4.1-1.9-8.2-4-12.2-1.5,1.2-3,2.3-4.4,3.4,3.3,4.7,6.4,9.2,7.3,15h0ZM35.3,152.9c1,3.5,4.1,5.6,7.6,5.3,3.3-.2,6.4-3,6.9-6.4-4.8.3-9.6.7-14.5,1h0ZM109,140.5c-.9,1-1.7,1.7-2.3,2.6-2.7,3.6-2.4,2.3.2,5.5h0c1.5-1.3,3-2.6,4.6-3.9-.8-1.3-1.6-2.7-2.5-4.3h0ZM95,204.2c-1.8,1.4-2.3,3.4-3.1,5.3,3.2-.4,4.3-2,3.1-5.3ZM123.3,109.2c-1.7-.8-2.7-.4-3.6,1.5,1.3-.5,2.3-.9,3.6-1.5Z"/>
  <path class="cls-1" d="M94.3,187.4c6.4,2.1,11.6.4,16.2-4.1,0,2,.3,3.8.4,5.2-4,.6-7.9.9-11.7,2-2.8.8-4.7.6-6.9-1.3-4.5-3.7-9.9-5.9-15.6-7.3v-.5c.5,0,1.1-.2,1.6,0,6.6,3.2,11-1.2,11.8-6.6.5-3.4-1.6-5.4-5.6-5.3,0,.7,0,1.5-.2,2.7-.6-.5-1.1-.8-1.4-1.2-1.1-1.3-2-2.8-3.2-4-.8-.8-2-1.3-3.3-2.2,1.7.3,3.2.4,4.6.8,7.2,2.3,12.6,6.8,15.9,13.7,0,.2.2.4.3.7,1.3,3.3,1.2,3.5-1.2,5.9s-1.1.9-1.7,1.5h0ZM92.4,175c-.9,1.9-1.4,3.5-2.2,4.8-.8,1.3-2,2.4-3.1,3.6,1.7,1,3.4,2,5.4,3.2,1-1.1,2.1-2.2,3-3.3.3-.3.5-1,.3-1.3-1.1-2.3-2.2-4.5-3.4-7h0Z"/>
  <path class="cls-1" d="M117.9,127.8c-2.9,1.8-5.7,3.6-8.6,5.4-1-1.5-2-3.1-3.2-4.7.4-.2.7-.4.9-.6,2.1-1.4,2.4-3.7.9-5.6-.4-.5-.8-1.1-1.1-1.7-.6-.9-.8-1.7-.2-2.8.7-1.3-.2-3.5-1.5-4.3-1.3-.9-3.2-.8-4.4.5-1,1.1-1.8,2.6-2.7,4-.8-1.3-1.8-2.7-2.7-4.2,0-.3,0-.9.3-1.1,1.5-1.7,3.1-3.4,4.8-5.2,3.6,3.8,7.5,6.5,12.6,7.4-1.4,2.5-2.3,5.1-1.2,7.9,1.1,2.8,3.5,4.1,6.2,5.2v-.2ZM108.9,129.3c.2.3.5.8.9,1.2,1.3-.9,2.5-1.7,3.7-2.5-1-.8-1.8-1.6-2.6-2.2-.7,1.2-1.3,2.3-2,3.6h0ZM108.4,120.1c.2,0,.5,0,.7.1.2-1.3.5-2.7.7-4,0-.1-.6-.3-.9-.5-.2,1.6-.3,3-.4,4.4h0ZM97.5,114c1.4-1.2,2.5-2,3.8-3.1-.6,0-1.2-.4-1.4-.2-.9.9-2.1,1.5-2.4,3.3Z"/>
  <path class="cls-1" d="M142.5,121.2c-1.9,1.8-3.9,2.6-6.5,2.7-4.3.2-8.6,1.2-12.9,1.8.4-4.3-3.8-4.2-6.4-6,1.2-3.6,4-5.3,7.5-6.2,4.5,6.2,10,10.1,18.2,7.7h.1ZM119,118.6c.5.4.6.5.8.6,2,.8,4,1.7,4.9,4,0,.2.6.4.8.4,1.7-.3,3.5-.7,5-1.1-1.9-1.6-3.9-3.2-5.6-5-1.4-1.5-2.1-1.7-3.7-.4-.6.5-1.3,1-2.1,1.6h-.1Z"/>
  <path class="cls-1" d="M60.7,122c1.9,4.6,3.8,9.2,5.7,13.6-1,.3-2.3.7-3.6,1-.3,0-.7,0-.9-.2-3.6-3.8-4.5-10.5-1-14.4h-.2ZM63,134.4c.2,0,.4-.1.6-.2-.9-1.9-1.8-3.9-2.9-6.1,0,2.7.7,4.7,2.3,6.4h0Z"/>
  <path class="cls-1" d="M73.3,176.5c-1,.8-2,1.5-3,2.2-2-1.2-2.6-2.9-1.4-4.5.8-1.1,1.7-1.2,2.6-.2.7.8,1.2,1.7,1.8,2.5Z"/>
  <path class="cls-1" d="M88.3,208.9c0-.1.2-.3.6-.7-.2.6-.3.8-.4.9l-.2-.2h0Z"/>
  <path class="cls-1" d="M149.2,117.3h-.3s.1-.2.2-.2l.2.2h0Z"/>
  <path class="cls-1" d="M140.3,85.8h-.2c0-.1.1,0,.2,0h0Z"/>
  <path class="cls-1" d="M460,116.8c2-7,6-12.1,12.2-15.4,3.3-1.7,6.7-2.5,10.4-1.5,4.6,1.3,6.2,5.6,3.8,9.8-.6,1-1,2.2-1.2,3.4-.3,1.6.4,2.4,2,2,1.3-.3,2.5-.9,4.1-1.4-.3.7-.4,1.2-.7,1.5-1.8,1.6-4,2.5-6.4,2.2-3.9-.6-5.5-5.1-3.1-8.7.7-1,1.3-2.1,1.6-3.2.7-3.1-.8-4.8-3.9-4.6-2.7.1-4.8,1.3-6.5,3.4-2.9,3.8-4.6,8.1-5.8,12.7-2.1,8-2.4,16.2-1.9,24.7.9-.8,2.1-1.5,2.7-2.5.9-1.5,1.6-3.2,2.2-4.8,2.2-5.4,1.9-4.7,7.1-3.6,3.5.7,6.1,2.9,7.9,5.9,2.7,4.4,2,9.8-1.8,13.7-1.8,1.9-4,3.5-6.1,5.2-.5.4-1,.8-1.6,1.2,6.3,1.1,7.6,6,8.4,11,.5,2.9.6,5.9.9,8.8,0,.4.2.8.3,1.3.2,1.3,1,1.4,2,1,.7-.3,1.4-.8,2.2-1.2,1,1.3.7,2.2-.6,3.2-3.2,2.4-5.8,5.3-7.6,8.9-.4.8-.9,1.1-1.5.6-.9-.7-2-1.5-2.5-2.5-1.5-3-1.7-6.2-1.8-9.5-.2-4.8-.2-9.7-.4-14.6,0-.9-.2-1.9-.5-2.8-.3-1.1-1-1.5-2.2-.9-.7.3-2,.7-2.3.4-.9-1,.3-1.6.9-2.2,1.5-1.6,3.2-3.1,4.7-4.7,1.7-1.8,3.3-3.7,3.7-6.3.4-2.8-.9-4.8-2.9-6.4-1.9-1.5-4.2-1.8-6.1-.5s-3.5,3.1-5.2,4.7c-.2.2-.1.6-.1.8v31.6c0,.1,0,.3.2.6.4-.1.8-.3,1.2-.3h2c-.3.8-.4,1.7-.9,2.4-.7.8-1.8,1.2-2.5,2-1.8,2.1-3.6,4.3-5.3,6.5-.8,1-1.5,1.7-2.8,1.3-1.4-.4-1.4-1.5-1.4-2.7v-66.1c0-2.7-.7-5.4-1.3-8.1-.5-2.3-2-4-3.8-5.5-.3-.2-.3-.6-.5-1,.4,0,.8-.3,1.1-.1,3.8,1.4,6.4,4.1,8.4,7.5.5.9.9,1.8,1.5,2.9h-.3Z"/>
  <path class="cls-1" d="M466.3,154v-7.4c0-.5.3-1,.6-1.4.5-.7,1-1.3,1.6-1.9,2.2-2.1,4.3-2.4,6.2-.9,2.2,1.7,2.6,4,1.4,6.4-1.3-.3-2.5-.8-3.7-.7-2,.2-3.4,1.5-4.6,3.1s-1,1.6-1.7,2.8h.2ZM474.8,145.8c-.7-1.8-1.8-2.4-3.2-2-1.4.4-3.4,2.9-3.3,4.1,1-.5,2-1,3-1.3,1.1-.3,2.2-.5,3.5-.7h0Z"/>
  <path class="cls-1" d="M466.2,135.9c-.1-.3-.4-.7-.4-1,.2-7.2.4-14.4,3-21.1.9-2.2,2.4-4.3,3.9-6.2,1.2-1.5,3.1-2.1,5-2.3.4,0,1.1.5,1.1.9s-.5,1.3-.8,1.3c-4.5.4-6.3,3.7-7.9,7.2-1.8,4.2-2.5,8.7-2.9,13.2-.3,2.6-.4,5.2-.6,7.8-.1,0-.3.1-.4.2h0Z"/>
  <path class="cls-1" d="M466.1,174.5c0-.2-.3-.6-.3-.9-.2-5.9-.2-11.7,1.9-17.3.7-1.8,1.8-3.5,3-5,.6-.7,1.7-1,2.7-1.3.2,0,.8.4,1,.8.1.2-.2.9-.4,1-4.9,1.8-6.2,6-6.9,10.5-.6,4-.6,8.2-.9,12.3h-.1Z"/>
  <path class="cls-1" d="M444.3,101.2c-.3.8-.5,1.8-1,2.4-3.2,4.1-4.8,8.8-4.8,13.9-.1,20.2,0,40.3,0,60.5v.6h.4c.1-.5.4-1,.4-1.5,0-4.7-.2-9.4,0-14.1.2-3.3.8-6.6,1.5-9.9.2-1,1.1-1.9,1.8-2.7.4-.3,1.3,0,1.9,0,0,.7.2,1.9-.2,2.1-3.3,2.3-3.7,5.7-3.9,9.1-.3,5.5-.4,11-.5,16.1.8.3,1.8.6,1.8.7-.1.8-.2,1.9-.8,2.2-3.7,2.1-6,5.7-8.3,9-.8,1.2-1.7,1.1-2.8.8-1-.3-1.3-1.1-1.3-2.2v-65.6c0-2.9-.7-5.9-1.6-8.6-.6-1.7-2.2-3.1-3.3-4.7-.3-.4-.5-.8-.7-1.2.5,0,1.1-.2,1.5,0,3.8,1.5,6.6,4,8.3,7.7.2.5.5,1,.8,1.5h.2c1.2-6.8,4-12.8,10.2-16.5,0,0,.1.2.2.3h.2Z"/>
  <path class="cls-1" d="M444.1,101h.4s0,.2-.1.2c0,0-.1-.2-.2-.3h0Z"/>
  <path class="cls-1" d="M224.7,114.9c.2-.4.2-.8.5-1.1,3.1-3.3,6.7-5.8,11.5-5.9,3.2,0,4.9,3,3.3,5.8-.3.6-.7,1.2-.9,1.8-.1.5-.1,1.3.1,1.5.5.3,1.3.4,1.8.2,1.3-.5,2.6-1.3,3.9-1.8.6-.2,1.2-.2,1.8-.3,0,.2,0,.3.1.5-.8.6-1.7,1.2-2.5,1.7-2.2,1.4-4.4,2.8-6.7,4.1-1.6.9-3.4,1.1-5.2.5-2.5-.8-3.5-3.2-2.3-5.5.2-.3.5-.5.5-.9.2-.7.2-1.4.4-2.2-.7,0-1.5-.3-2.2-.2-.6.1-1.2.6-1.7,1-.7.4-1.4.8-2.2,1.2l-.4-.4h.2Z"/>
  <path class="cls-1" d="M227.9,116.1h.4c0,.1,0,.2-.1.4l-.2-.3h0Z"/>
  <path class="cls-1" d="M242.1,114.4h-.4l.2-.2.2.2Z"/>
  <path class="cls-1" d="M273,153.2c0-.9.1-1.7,0-2.5-.6-2.7-3.3-4.1-5.7-2.8-3.4,1.8-4.8,5-5.7,8.5-.1.5-.2,1-.5,1.8-1.2-7-.6-13,4.9-17.8,4.3,4.2,9.3,7.9,12.5,13.2,1.8,3,2.1,6.1,1.8,9.6-.5,4.9-2.2,9.5-3.9,14,0,.2-.2.4-.6,1,.4-2.1-.9-2.9-1.9-3.8-2.5-2.2-5-4.6-5.9-7.9-.7-2.4-1.1-5-1.1-7.5s2.3-5.3,6.1-5.8h0ZM263.3,148.1c1.6-1,3.1-1.9,4.8-2.9-.7-.6-1.3-1.2-2-1.8-1.9,1.8-2.7,3.3-2.9,4.7,0,0-.1.2,0,0,0,.3,0,.2,0,0h.1ZM275.6,173.4c.1-.2.3-.4.3-.6.8-3.3,1.8-6.5,2.4-9.8.6-3.9-.4-7.5-3.3-10.5-.3,1.8-1.1,2.8-2.4,2.9-2.5.4-3.7,1.7-3.9,4.2-.3,5.9,2.2,10.3,6.8,13.8h.1Z"/>
  <path class="cls-1" d="M271.1,151.4c-4.7,1.8-6.5,4.9-6.2,10.1.3,5.7,2.8,10.2,7.1,13.9.7.6,1.4,1.3,2.1,2,0,.1-.1.3-.2.4-.4-.1-.9-.2-1.1-.4-2.5-2.8-5.1-5.6-7.3-8.6-3.7-5.2-3.1-13.2.9-17.6.4-.4.7-.8,1.2-1.1,1.7-1.2,3-.6,3.6,1.4h-.1Z"/>
  <path class="cls-1" d="M391.1,159.2c-.5-4.1,0-8,1.7-11.8.1-.3.2-.5.4-.8,2.3-4.5,4.6-5,8.6-2,4.5,3.4,7,8,8.3,13.3.9,3.4,1.2,7,.6,10.5-.6,3.8-2.7,6.8-5.6,9.7-2.4-2.7-5.1-5.2-7-8.1-2.5-3.8-3.1-8.1-.8-12.4,1-1.8,2.4-2.9,4.5-3.4,1.5-.3,2.5-1.9,2.2-3.5-.3-1.5-2-2.9-3.5-2.6-4.8.8-7.3,4.1-8.7,8.4-.3.9-.5,1.8-.7,2.8h0ZM395,148.1c1.7-.7,3.3-1.5,5-2.2v-.4c-1-.2-2.4-.9-3-.4-1,.6-1.4,2-2,3.1h0q0,.1,0,0h0ZM405.1,174.9c5.8-5.1,4.3-16.9.7-22.1-1.1,2.4-1.4,2.5-4,3.4-.9.3-1.8,1-2.4,1.7-2.2,2.9-1.8,6.1-.6,9.2,1.2,3.2,3.8,5.4,6.3,7.8Z"/>
  <path class="cls-1" d="M403,178.9c-.4-.1-1.1,0-1.3-.3-3.5-3.6-7.4-7-8.4-12.3-.7-3.9-.7-7.7,1.1-11.3s2.9-4.2,5.6-4.9c.9-.2,1.6-.2,1.9.7s-.2,1.3-1.2,1.6c-3.7,1-6.5,4.8-6.7,8.6-.3,5.1,1.3,9.5,4.9,13.2l4.2,4.2c0,.1,0,.3-.1.4h0Z"/>
  <path class="cls-1" d="M128.8,194c-3.5-2.6-5.7-5.7-4.9-10.4.4-2.3,1.8-3.7,3.6-4.9,1.8-1.1,3.7-2,5.6-3,2.4-1.3,3.3-3.6,2.1-5.8-1.3-2.4-3.9-2.9-5.8-.9-.9.9-1.4,2-2.1,3.1-.2.2-.3.6-.5.7-7.2,3.2-9.6,9.8-7.3,17.7,0,0-.2.1-.2.2-2.8,0-2.6-2.2-2.8-3.9-1.1-9,4.3-18.7,13.3-21.4,3.6-1.1,7.3-.9,10.7,1.1,2,1.2,3.4,2.8,3.4,5.4s-.5,2-1.6,2.5c-1.8.8-3.7,1.5-5.5,2.3s-3.7,1.7-5.5,2.6c-5.3,2.7-5.6,9.9-2.9,13.6.2.3.4.6.5.9,0,0-.1.1-.2.2h.1ZM123.4,172.4c1.3-.4,2.4-1,2.8-2.4,0-.1-.3-.3-.4-.4-.8.9-1.6,1.9-2.3,2.8h-.3v.2s.2-.1.3-.2h0ZM137.1,174.5c1.5-.6,2.5-1.1,3.6-1.5,1.3-.5,1.4-1.4.9-2.5-.6-1.4-3.2-3.7-5.8-3.3,1.5,2.1,2.5,4.3,1.2,7.3h.1Z"/>
  <path class="cls-1" d="M140.6,148.6c4.9,2.9,8.4,7.1,11.3,11.8,5.9,9.6,2.8,23.5-2.3,29.5-2.5,3-5.6,5.2-9.5,5.9h-.8c1-1.4,1-2.9.8-4.5-1.5-.1-3-.2-4.5-.3v-.6c.5-.2,1-.5,1.6-.6,1.9-.5,3.8-.9,5.6-1.5,7.6-2.6,9.4-7.2,8.7-14.2-.7-7.7-5.5-12.4-12.9-14.8,1.7,0,3-.6,3.4-2,.3-1.3.5-2.7.3-4-.3-1.5-1.2-2.9-1.8-4.4l.2-.2h-.1ZM152.7,169.8c.4-4.6-5.5-13.9-8.1-15.1-.4,1.5-.7,2.9-1.1,4.5,4.3,2.2,7.3,5.7,9.2,10.6h0ZM148.6,188.5c-.1-.2-.2-.3-.3-.5-.3,0-.6.2-.9.3-1.1.6-2.2,1.2-3.4,1.7-1.9.7-2,1-1.3,3.4,2-1.7,3.9-3.3,5.9-4.9ZM153,170.1v.2h0v-.2Z"/>
  <path class="cls-1" d="M135.9,154.5c-.7,1.7-.3,3.2,1.3,4-3.5.3-7,.5-10.2.8,0-1.9.3-4.2.5-6.5,1.7-.4,3.8-.8,5.9-1.2.8.9,1.6,1.8,2.6,2.9h-.1ZM129.3,157c1,0,1.9-.2,2.8-.1,1,0,1.6-.2,1.4-1.4-.2-.9-.6-1.6-1.8-1.4q-2.3.4-2.5,2.9h.1Z"/>
  <path class="cls-1" d="M140.4,148.8c0-.1-.2-.3-.3-.4l.4.2-.2.2h.1Z"/>
  <path class="cls-1" d="M119.5,190.5v.3s-.2,0-.3-.1c0,0,.2-.1.2-.2h.1Z"/>
  <path class="cls-1" d="M128.9,193.9s.2.2.2.3h-.4s.1-.1.2-.2h0Z"/>
  <path class="cls-1" d="M139.4,195.9v.2h-.2s0-.1.1-.2h0Z"/>
  <path class="cls-1" d="M85.9,146.6c-2.5-3.4-5.1-6.7-7.5-10.1-2.2-3.1-3.9-6.5-4.6-10.2-.6-3.2-.5-6.3,1.6-9,1.8-2.3,3.6-4.7,5.4-7,1.9-2.6,2.8-5.4,0-8.7-1.1-1.3-.8-2,.7-2.7.6-.3,1.1-.5,1.3-.6,1.1,4.1,2.1,8.1,3.1,12.1s.2,1.1,0,1.4c-7.1,8.7-6.7,18.2-3,28.1.8,2.1,1.9,4,2.9,6s0,.5.2.8c0,0-.2,0-.3.1v-.2ZM84.1,109.8c-.2,0-.3,0-.5-.1-1.7,2.1-3.4,4.2-5,6.4-1.5,2-3.3,4-3.3,6.6,0,4,1.6,7.5,3.8,11.2,0-.7,0-1-.2-1.3,0-3.2-.5-6.5-.2-9.7.3-4.1,2.2-7.7,4.6-11,.4-.6.5-1.5.8-2.2h0Z"/>
  <path class="cls-1" d="M67.7,121.1c-2.1-8.1-1.3-15.7,3.3-22.8,2.4-3.7,5.5-6.6,10.1-7.6.2,0,.5-.1.7-.1h1.6v6.7c-1.1-.9-2-1.7-3-2.4-.3-.2-.7-.4-1-.3-4.8,1.5-6.1,5.6-3.4,9,1,1.3.9,2,0,3.2-1.5,1.7-2.8,3.6-4.1,5.4-1.9,2.7-3.6,5.5-4.1,8.9h0ZM72.3,100.1c-2.2,2.3-4.4,9.9-3.5,12.8,1.6-2.2,3.3-4.4,5-6.7.3-.4.6-1.2.4-1.6-.5-1.6-1.2-3.1-1.8-4.5h0Z"/>
  <path class="cls-1" d="M126,220.4c0-3.6-1.5-6.3-4.5-8.1-2.8-1.7-5.8-1.2-8.5.5-1.6,1.1-3,2.4-4.4,3.8-1.4,1.3-2.8,1.1-3.7-.6-1.2-2.5-.7-5.4,1.3-7.5,3.7-3.7,9.1-5,14.4-1.2,3.1,2.3,5.5,5.1,5.9,9.1,0,1.3-.3,2.7-.5,4.1h0,0ZM107,215.4c3.6-3.9,7.6-6.9,13.4-5.8-4.2-3.3-8-3.4-12-.5-1.7,1.3-3.1,4-1.4,6.3Z"/>
  <path class="cls-1" d="M93.4,212.9c2-1,3.7-1.9,5.4-2.8-.6,6.3,1.4,11.6,7.3,14.9-.8,1.2-1.5,2.4-2.4,3.7-4.4-1.4-10.7-8-10.3-15.8h0ZM102.9,225.9c-3.7-3.2-5.6-7.3-6.2-12.1-1.1,0-1.6.5-1.2,1.5.7,1.9,1.2,4,2.2,5.8,1.1,2.1,2.9,3.8,5.2,4.8h0Z"/>
  <path class="cls-1" d="M101.7,204.8c-.2-1.9-.4-3.7-.5-5.5,0-.3,0-.7.3-.8,3-2.5,6.2-4.4,10.2-3.9.4,0,.9.3,1.1.7.7,1.2,1.3,2.5,2.1,4-5.1.3-9.6,1.8-13.2,5.7v-.2ZM111.6,197.1c-1.1-1-2.9-.9-5.3.3-2.6,1.3-2.9,1.7-2.7,2.7,2.6-1,5.3-2,8-3.1h0Z"/>
  <path class="cls-1" d="M126.1,220.4c-1,3.8-3.4,6.6-6.8,9,.5-2.9,1.1-5.5-1.8-7.3.9-.8,1.7-1.5,2.3-2.1,1.1.6,2.1,1.4,3.2,1.7,1.4.4,2.1-.8,3.1-1.5h0v.2Z"/>
  <path class="cls-1" d="M122.1,197.8c3,1.2,6.1,2.5,9.2,3.5,1.6.6,3.3.9,4.9,1.1.6,0,1.3-.5,1.9-.6,6.1-.4,11.1-2.9,15.2-7.3,3.8-4,6-9,7.1-14.4,1-4.9,1.4-9.9.2-14.8-2.1-8.1-6.8-14.3-13.3-19.3-4.4-3.4-9.3-5.6-14.9-6.8,1-1.2,1.8-2.3,2.8-3.3s1.1-.3,1.6-.3c7.7,1.4,13.6,5.6,18.1,11.9,3.9,5.4,6.2,11.5,7.1,18,.5,3.7.9,7.5.6,11.1-.9,10.5-5.2,19.2-14.7,24.5-7.8,4.3-19.2,3-25.3-2.8-.2-.2-.3-.4-.5-.5l.2-.2-.2.2ZM149.1,144.4c-1.7-2.9-10.5-7.4-12.5-6.5,4,2.1,8.3,4.4,12.5,6.5Z"/>
  <path class="cls-1" d="M121.9,197.9s0-.2-.2-.3h.4l-.2.2h0Z"/>
  <path class="cls-1" d="M133.6,85.1c-2-.6-3.8-1.1-5.6-1.6-2.6-.6-3.8-2.8-5.6-4.4,0-.1-.2-.3-.2-.5,0-2.6-2.3-2.8-4.1-3.8-.5,2.4-1.9,1.8-3.5,1.4-1-.3-2.1-.2-3.2-.2s-2.2,0-3.4-.3c-.9-.3-2.3,0-3.2.7-1,.7-1.8,1.9-2.6,2.9-.8,1-1.4,2.2-2.2,3.2-2.8,3.5-4.7,7.3-4.7,11.8-.8-1.5-1.7-3.1-2.6-4.6,0-.2-.3-.5-.5-.7-2.1-1.3-1.5-3-.8-4.9,5.5-14.6,21.8-17.9,31.6-13.1,5.6,2.8,9.2,7.3,10.6,13.4v.8h0ZM130.8,82.1c-1.4-3.4-3.5-6.2-6.5-8.2-4.2-2.7-8.7-3.5-13.6-2.8-8.6,1.2-14.4,5.8-17.6,13.9-.6,1.4,0,2.3,1,2.8,2.4-3.6,4.7-7.2,7.1-10.8,1.8-2.7,4.6-4,7.1-3.6,1.4.3,2.9.4,4.3.5.7,0,1.5,0,2.2.1.9.3,1.5,0,1.8-.8.4-1,1-1.1,1.9-.6,1,.6,2,1.1,3,1.5,1.6.6,2.6,1.5,2.5,3.3,0,.3.2.6.4.9,1.7,1.8,3.5,3.5,6.4,3.7h0Z"/>
  <path class="cls-1" d="M89.8,95.1c.5,1,.9,2.1,1.5,3.3,1.3-.9,2.6-1.8,4-2.7.5,2,1.1,3.9,1.6,5.9-1.7,1.3-3.4,2.7-5.3,4.2-1.3-3.5-2.1-7-1.8-10.7ZM92.7,102.5c.5-1,2.3-.9,1.5-2.6,0-.2-.9-.4-1.2-.2-1.5.6-.9,1.6-.2,2.8h-.1Z"/>
  <path class="cls-1" d="M61.8,148.8c.3-1.5.6-2.8.9-4.4,1.7,1.1,3.1,2,4.7,2.9,1.5.9,3.1,1.7,4.6,2.9-3.3-.5-6.6-.9-10.2-1.4Z"/>
  <path class="cls-1" d="M66.5,154.8c5.8.9,10.9,2.3,15.9,4.9-2.5.4-12.5-2.6-15.9-4.9Z"/>
  <path class="cls-1" d="M98.6,172.4c0-.2-.3-.3-.4-.5,0,0,.2-.2.3-.2,0,.2.2.4.2.6,0,0,0,0-.2.2h0Z"/>
  <path class="cls-1" d="M98.8,172.1c0,.2,0,.4.2.6h-.2c0-.2,0-.3,0-.5,0,0,0-.1.2-.2h0Z"/>
  <path class="cls-1" d="M125.8,97.3c1.5.8,2.9,1.6,4.4,2.4-.7.9-1.3,1.9-2.1,2.7-.4.4-1.3.4-2,.4-3.1-.3-5.7.7-7.7,2.9-.9.9-1.4,2.1-2.2,3.3-4,0-7.5-1.9-10.8-4.6,1.6-1.4,3.2-2.7,4.8-4.1,2.4,2.1,5.2,2.6,8.4,2,3.1-.6,5.4-2.5,7.2-5h0ZM114.9,107.2c.6-.9,1-1.6,1.4-2.3-1.7-.5-3.3-.8-4.8-1.4-1.4-.6-2-.2-2.8,1.3,2.1.8,4,1.6,6.1,2.5h.1Z"/>
  <path class="cls-1" d="M110,81.3c.8-.1,1.8-.5,2.8-.5,3,0,3.4.5,3.9,3.6.5,2.7,1.7,5.1,3.3,7.3.5.6,1.1,1.6.9,2.2-.4,1.3-1.2,2.4-2.7,2.8-1.8.5-3.3.4-5.2-.3,0-2.7.6-5.4,0-7.9-.5-2.4-2-4.7-3.2-7.2h.2ZM114.9,86.3v.6h.3c0-.2-.2-.3-.3-.5-.4-3.6-.3-3.3-1.8-3.4.6,1.2,1.2,2.3,1.8,3.4h0ZM115.3,95.2c1-.3,2.1-.5,3-.9.2,0,.5-.8.3-1.1-1.1-1.9-2.2-3.7-3.4-5.6v7.5h0Z"/>
  <path class="cls-1" d="M76.6,197.9c-8.1.2-16.3-3.9-18-11.1-1.4-5.6-.3-10.5,4.1-14.5.2-.2.4-.3.6-.4,0,.2,0,.4,0,.4-3.8,6.4-1.4,14.8,3.9,19.5,2.3,2.1,5.1,3.6,7.7,5.3.4.3.9.5,1.6.8h.1ZM60.2,184.6c0,2.5,1.5,5.3,3,5.8-1-1.9-2-3.8-3-5.8Z"/>
  <path class="cls-1" d="M40.5,161.6c1.3-.1,2.7-.2,4-.4,3.9-.5,6.5-2.7,8.2-6.1.4-.8.8-1.1,1.8-1.2,2.3-.2,4,.3,5.3,2.4.9,1.4,2.6,2.4,4,3.7-7.8,1-15.5,2.9-23.4,1.7h0ZM59.3,158.6c-.8-1-1.2-1.9-1.9-2.2-.9-.3-2.2-.4-2.9,0-1,.7-1.5,2.1-2.3,3.3,2.4-.4,4.6-.7,7.1-1.1h0Z"/>
  <path class="cls-1" d="M43.3,148.1c1.3-.6,2.7-1.3,4.1-2,.3.8.6,1.4,1,2.2h-5.1v-.3h0Z"/>
  <path class="cls-1" d="M130.1,209.2c2.6.6,5.2,1.1,7.6,1.6-1.9,1.6-4,3.3-5.9,4.9-.6-2-1.3-4.2-1.9-6.3,0,0,.1,0,.2-.2h0Z"/>
  <path class="cls-1" d="M129.9,209.4v-.4s.1.1.2.2c0,0-.1.1-.2.2h0Z"/>
  <path class="cls-1" d="M129.8,227.6c2.5-3.7,4.9-7.5,8.4-10.5,2.6-2.3,5.1-2.5,7.8-.9-4.8,4.6-9.9,8.8-16,11.5h-.1c0-.1,0-.1,0-.1ZM140.9,217.8c-1,.7-2,1.4-3,2.1.2.2.3.4.5.6.8-.9,1.7-1.8,2.5-2.7,0,0,.2-.1.3-.2,0,0-.2.1-.3.2Z"/>
  <path class="cls-1" d="M129.9,227.8c-.1,0-.2,0-.3.1,0,0,.1-.2.2-.2h.1Z"/>
  <path class="cls-1" d="M93.9,123.6c3.5,4.6,7.1,9.2,10.6,13.8.2.3.2.9,0,1.2-.4.7-1,1.3-1.6,2.1-3.7-5.3-8.6-10-8.9-17.1h0Z"/>
  <path class="cls-1" d="M133.4,106c.4-.6.8-1.2,1.2-1.8,1.9-2.5,1.2-2.6,4.3-.9,2.9,1.6,5.5,3.6,6.4,7.1.4,1.6-.5,3.7-2.1,4.5s-3.1.5-4.4-1c-1-1.2-1.8-2.5-2.6-3.8-.5-.7-.8-1.4-1.3-2.1-.5-.7-1-1.3-1.5-2h0ZM143.6,111.6c-.2-.6-.2-.9-.3-1.2-1.2-2.6-3.3-4.3-5.8-5.6-.2-.1-.9,0-1.1.3-.2.4-.3,1.1-.1,1.4,1.3,2,2.6,3.9,4,5.9.4.6.9,1.4,1.7.8.7-.4,1.2-1.1,1.6-1.6h0Z"/>
  <path class="cls-1" d="M113.8,141.1c0-.2-.4-.7-.7-1.3,4.4-3.1,9.3-3.8,14.7-4.4-.8,1.2-1.2,2.3-2,3-.4.4-1.3.3-2,.4-3.3.7-6.5,1.4-10,2.2h0Z"/>
  <path class="cls-1" d="M101.4,98.5c-1.9-3.1-1.1-8.3,1.6-11.3.8,2,1.7,3.9,2.4,5.8.5,1.2,0,2.2-.9,3-1,.8-2,1.6-3.1,2.5ZM103,91.8h-.4c-.2,1-.3,2-.5,3.3,2.1-1,1.3-2.2.9-3.3Z"/>
  <path class="cls-1" d="M117.2,147.8c-.2-.5-.3-.8-.5-1.3,1.6-.2,3.1-.4,4.9-.7-1.1,2.3-3.3.7-4.4,2Z"/>
  <path class="cls-1" d="M46.9,154c-2.5,2.8-5.6,3.1-8.5.6,2.9-.2,5.6-.4,8.5-.6Z"/>
</svg>