<?xml version="1.0" encoding="UTF-8"?>
<svg id="Calque_1" data-name="Calque 1" xmlns="http://www.w3.org/2000/svg" version="1.1" viewBox="0 0 500 300">
  <defs>
    <style>
      .cls-1 {
        fill: #75683b;
        stroke-width: 0px;
      }
    </style>
  </defs>
  <path class="cls-1" d="M4.4,24.4c.5.4,1,.7,1.4,1.1,1.5,1.7,2.6,4,4.4,5,3.7,2.1,7.9,3.6,11.8,5.3.7.3,1.3.8,2.1,1.2.6-.4,1.3-.9,2-1.4.1.1.3.2.4.4-.8,1-1.6,2.1-2.5,3.3,1,.4,2,.8,2.9,1.1,0,.2,0,.4-.1.6-1.9-.4-3.7-.8-5.6-1.2v-.6h2.1c-1.6-1.9-3.5-2.3-5.4-2.4-.6,0-1.3-.4-1.9-.6-.2,0-.4-.4-.7-.5-5.7-1.4-8.2-6.2-11-10.6v-.8h0Z"/>
  <path class="cls-1" d="M257.7,88.7c1.1,0,1.6-.3,2-1.4.7-2,1.7-3.8,2.6-5.8.3-.7.5-1.5.8-2.5.4,0,.9,0,1.3.2,1.8-3.7,3.6-24.5,2.2-25.8-.4,1.5-.8,3-1.1,4.3-1.8-2-3.6-3.8-5.7-6.1,2.6-.4,5-.9,8-1.4,1.4-5.9,2.8-12.3,4.3-18.6h.4c.2.6.2,1.2.5,1.7.3.6.8,1.1,1.3,1.6.2-.6.7-1.1.7-1.7,0-1.4,0-2.9,1.3-3.7.6,1.1,1.1,2.1,1.9,3.5-.5.2-1.1.5-1.8.8.2,0,.3.1.5.2-.2.6-.5,1.3-.7,1.9-.4,1.6.1,3,1.5,3.7,2.4,1.2,3.3,3,3,5.6,0,.6.7,1.3,1.2,1.9.5.6,1.1,1.1,1.8,1.7-.6-4.8-1.2-9.4-1.8-14.1h1c.9,6.3,1.5,12.9,2.9,19.3,1,4.6.7,8.9-.2,13.4-.7,3.4-.9,7-1.3,10.8h5.4c-.5,3.1-.9,5.9-1.2,8.7-.1.9.2,1.9.3,2.8.1,1.5.2,3,0,4.5-.7-2.1-1.4-4.2-2.1-6.3-.3,0-.5.1-.8.2.2,1.5.5,3.1.7,4.6.4,2.4.8,4.8,1.2,7.3.6,3.8,2,5,5.8,4.7.7,0,1.5-.1,2.5-.2-1.1,1.5-2.4,2.9-.9,4.6v.2c-2.6,3.1,1.9,6.6-.8,9.6-.4-.2-1.2-.6-2.3-1.1-.7,8.5,2.1,16.4,2.5,24.8-.6-.3-.9-.5-1.9-1.1.6,3.9,1,7.3,1.5,10.8.2,1.1.3,2.3.7,3.4.4,1,1.1,2.3,2,2.8,3.7,2,7.8,2.4,11.9,2.5,1.4,0,1.8-.7,1.6-1.9-.6-3.8-1.2-7.5-1.9-11.3-.2-1.2-.4-2.1,0-3.4.5-1.6.1-3.5.1-5.2-.2,0-.4-.1-.5-.2-.1.2-.2.4-.5,1-.1-1-.3-1.7-.3-2.4-.1-7.4-.4-14.7-.3-22.1,0-3.1,1.1-6.2-.6-9.3-.4-.7.5-2.1.8-3.1.9-3.3.9-6.5-.4-10-1.4,1.1-3,1.2-3.1,3.3,0,1.2-1.4,2.4-2.2,3.5-.1,0-.3-.2-.4-.3.5-1,.9-2,1.3-2.7-1.2-.9-2.2-1.7-3.3-2.5,1.2-.2,2.3-.1,2.9-.6,1.3-1.2,1.3-2.7.4-4,.8-.1,2,0,2.3-.4.8-.9,1.3-1.9.8-3.5-.6-1.9-1.1-3.6-2.5-5.1-.2-.2,0-1,.2-2,.8,1,1.2,1.5,2.1,2.5.9-2.2,1.7-4,2.4-5.9.1-.4-.4-1-.6-1.5-.5.3-1.3.6-1.5,1-.4,1.1-.4,2.2-.6,3.4-1.5-2.1-1.1-4.5,1-5.5,1.9-.9,2-2,1.3-3.8-.8-1.9-1.3-4-1.9-6-.2-.6,0-1.4.5-2.1.3.7.6,1.4,1,2.2,1.8-2.6,1.2-6.9-1.4-8,.7-.8,1.3-1.5,1.7-2-1.6-3.8-.4-8.2-2.8-11.4-1,.2-1.8.4-2.9.7.5-2.3,3.3-2.1,3.1-4.3-.2-1.5.5-3.5-1.9-3.9.5-2.3,4.1-3,2.9-6.1-.9.7-1.6,1.3-2.3,1.8,0-.1-.2-.3-.3-.4.6-.8,1.3-1.6,1.9-2.4,1.2-1.5,1.4-3.2.4-4.7-1.4-1.9.2-2.5,1.5-3.5.2,1.1.4,2.1.6,3.3,2.4-3.7,1.2-7.7,1.7-11.5.7,6.5,2.3,12.7,4.9,18.8,0-.5.2-1.1.3-1.6,1.3,1.4,1.4,3.2,0,5.2,0-.9-.1-1.5-.2-2.3-1.5,1.3-1.4,1.6,1.7,5.5-.7.4-1.4.7-2.3,1.3,2.9,1,4.1,2.7,4.5,5.6.9,6.3,2.6,12.5,4,18.8.9,4.3,1.8,8.7,2.6,13,.2,1.3.9,2.9-1.2,3.5-.3,0-.4,1.3-.3,1.9,1,3.9,2.1,7.7,3.1,11.6.2.7.3,1.5.5,2.2.7,2.3,1.4,4.7,2,7h.7c.3-2.6.7-5.3,1-7.9.5-5,1-9.9,1.5-14.9,0-.5.2-1,0-1.4-.2-.6-.5-1.1-.8-1.7-.6.3-1.3.6-1.9,1-.6.5-1.1,1.2-1.6,1.8-.5-.9-1.1-1.8-1.4-2.8-.2-.7,0-1.5,0-2.2h.5c.3.4.6.8.9,1.2h.3c.7-.3,1.4-1,2.1-.9,1.8.1,2.4-.8,2.6-2.4,1.1-7,2.3-14,3.4-21,0-.3,0-.6.1-.8.6-1.1,1.2-2.1,1.9-3.2,2.2,2.4,4.5.1,6.7-.9,2.8-1.4,5.3-1,7.7.7,1.8,1.3,1.8,2.4.8,4.3-.9,1.7-1.9,3.6-1.9,5.4.3,8.5.9,17,1.4,26,1.1-1,1.8-1.5,2.6-2.3-.7,4.7-.6,4.9,3.1,4.7-.8,2.7-.3,4,1.9,4.7-.2.5-.2,1.1-.5,1.5s-.8.6-1.2.9c-.3-.4-.6-.7-.7-1.2-.4-2-2.3-4.4-4.7-5.5,2,12.4,3.9,24.5,5.9,36.8.9-1,1.5-1.8,2.2-2.6l.4.3c-.3.6-.8,1.2-1,1.8-.4,2.1-.7,4.2-1,6.3,0,.3,0,.9.2,1,2.7,1.4,1.8,4.3,2.5,6.5.2.8.4,1.6.5,2.4.2,1.8,1.1,2.5,2.9,1.9.5-.2,1-.1,1.7-.1-3.3,2-2.2,4.9-1.9,7.6.6,4.2,1.3,8.4,1.9,12.6-.2,0-.4,0-.6.1-.6-2.6-1.3-5.1-1.9-7.7h-.7c.1,6.4,1.6,12.5,2.8,18.9.5-.2.9-.3,1.7-.6.6,3.8,1.3,7.6,1.9,11.4-.2,0-.4,0-.5.1-.6-2.1-1.1-4.2-1.7-6.3h-.7c.1,1.1,0,2.3.4,3.4.9,3.3,2.1,6.5,3,9.7.3,1.3.3,2.7.2,4.1,0,1-.3,1.8,1.1,1.8,2.4,0,4.1,1.1,5,3.6-.5.2-1.1.4-1.7.6v.6c.5,1.6,1.1,3.1,1.6,4.7,0,.3-.2,1-.6,1.2-.6.5-1.3.8-1.9,1-1.1.4-2.8.3-3.3,1-.5.8,0,2.3.1,3.5,0,1.1.2,2.2.3,3.5-.4-.7-.8-1.2-1.4-2.3v3.2c0,1,.7,2-.9,2.8-1,.5-.2,2.1.9,2.6,2.7,1.2,2.8,3.9,2.9,6.1.1,1.7-1.9,1.3-3.5.6.8-.7,1.6-1.3,2.4-2-.2-.2-.3-.5-.5-.7-1.2.7-2.4,1.4-4,2.3.3-2.3,1.3-3.4,3.3-4-2.4-.8-2.8-2.8-3.2-4.7-.7-3.5-1.4-6.9-2.1-10.4-.2-.9-.5-1.7-.8-2.7-.6.3-1,.5-1.7.9.1-2.1.2-4,.3-6-1.3.2-2.1.2-1.8-1.6.2-1.1-.4-2.4-.6-3.6-1.1-6.1-2.1-12.2-3.2-18.3-.6-3.2-1.5-6.4-2-9.6-.9-6.3-1.7-12.6-2.5-18.9,0-.6-.3-1.1-.8-1.6v5.7h-.5c-.3-2.4-.6-4.7-.9-7.1-.2,0-.4,0-.7-.1.8-.3,1.6-.6,2.9-1.2-1.6-.8-2.9-1.5-4.1-2.1.4-1,1.2-2.1,1.5-3.4.2-.8.2-2-.3-2.5-1.8-1.9-1.3-3.8-.7-6,.3.4.6.7,1,1.2,1.3-2,1-3.9.6-5.8-.4-1.9-.8-3.8-1.2-5.7-.7-3.6-1.5-7.1-2.1-10.8-1-6.5-1.9-12.9-2.9-19.4-.1-1-.4-1.9-.6-2.8h-.6c-.1,1.6-.3,3.2-.4,4.7,0,2.3,0,4.5-.1,6.8-.2,1.7-.9,3.4-1.3,5.1-.7,3.2-1.7,6.5-2.1,9.7-.6,6.2-.8,12.4-1.1,18.6,0,.8.5,1.6,1,3-3.3,4.7-1.3,10.9-2.7,16.7-.4-.2-.7-.3-1.3-.4-.4,5.9-.8,11.8-1.3,18.2-1.7-6.2-2.2-12.2-6-17.4.2-.4.7-1.2,1.2-2-.9-.4-1.6-.7-2.3-1,2.7-3.2,1.3-6.8.9-10.2-1.2-10-4.4-19.6-7.2-29.3-.9-3.1-1.3-6.4-2.1-9.6-.3-1.4-.3-3.2-2.7-2.9,0,1.7-.1,3.4,0,5,1,10.3,1.8,20.7,3.3,30.9,1.7,11.3,2.1,22.5,2.4,33.9,0,2.3.3,4.5,1.6,6.6.7,1.2.8,2.8,1.1,4.3-.2,0-.3,0-.5.1-.3-.6-.7-1.2-1-1.9h-.5c.2,1.6.4,3.3.8,4.9.4,1.9,1.2,3.8,1.5,5.7.1.8-.6,1.7-.9,2.6-.3.8-.9,1.6-.7,2.3.7,3.4,1.7,6.9,2.5,10.3.2.8.5,1.5.8,2.2-.2,0-.4.2-.6.3-.7-1-1.5-1.9-1.9-3-.9-2-1.8-3.6-4-2.6-.8-1.4-1.3-2.8-2.1-3.9-.9-1.1-1.1-2-.3-3.1.8-1.2.5-2.2-.3-3.3-.9-1.4-1.5-3.1-2.3-4.8-1.2,1-2.5,2-4.2,3.4-.3-2.1-.5-3.7-.6-5.3-.3-5.2-.6-10.5-.8-15.7,0-1.7-.6-2.3-2.4-2.5-3.9-.4-7.7-1.1-11.9-1.8.6,3.2,1.1,6.3,1.7,9.5,1.6,8.6,3.3,17.3,4.9,25.9.4,2.3-.2,4.4-.8,6.7-.8,2.8-.6,6-.3,9.1.3,4.1,1.1,8.2,1.7,12.4.2,1.2.1,2.4-.3,3.7-.5-1.5-1.1-2.9-1.5-4.4-1.3-4.6-2.5-9.2-3.7-13.8-1.2-4.5-2.5-9-3.9-13.4-.3-.8-1.5-1.3-2.2-1.8,2-.4,2.3-2,1.9-4.2-1.7-8.5-3.2-17-4.9-25.5-.6-3.3-1.3-6.6-2-10,0-.4-.3-.8-.8-1.2v1.9c-1.9-.3-3.7-.6-5.7-1,0-.5-.2-1-.3-1.6-.8,0-1.5.1-2.3.2,0-.5.1-.8.2-1.1v-.5c-.1,0-.3.1-.4.2l-1.4.7c-.2-.8-.4-1.6-.6-2.3,0,.1-.2.3-.3.4-1.6-.7-3.2-1.3-5-2-.3,3-.5,6-.8,9,0,.8-.2,1.6-.3,2.4-.3,1.2-.2,2.2,1.7,2.2-2.3,4.7-6.2,7.4-10.3,10.3-.3-2.9-2.4-2.3-4.2-2.6.6-.7,1.3-1.2,1.5-1.8.4-.8.6-1.8.5-2.7-.1-3.1-.3-6.2.6-9.1h.5c.3.6.5,1.1,1,2.2.1-1.5.2-2.5.2-3.4,0-4.8,0-9.6.2-14.3.1-3.7-.2-7.3-1.4-10.9-.3-1,0-2.1-.1-3.1,0-.6,0-1.3-.3-1.7-2.4-3.6-2.6-7.7-2.7-11.8,0-1.4-.2-2.3-2.1-2.5-3.5-.4-4-3.2-1.1-6.9.7,1,1.5,1.9,2.2,2.9.3,0,.5-.2.8-.3.2-3.5.5-6.9.8-10.5,1.9-.9,1.9-1.2.4-3.7.6,0,1.1-.1,2-.2-.4-1.1-.7-1.9-1-2.8h-.1ZM275.8,126.1c.7,1.2,1.8,1.4,2.7.7,1-.7,2.3-1.7,2.4-2.6,0-1.8-.6-3.6-1.2-5.3-.2-.5-1.1-1-1.8-1.1-4.3-.6-6.6.9-7.2,5.2-.6,4.6-.7,9.3-1.4,13.8-.5,3.3.6,5.3,3.4,7,1.4.8,2.6,2.2,3.9,3.3-.2.2-.3.4-.5.6-2.2-1.4-4.3-2.9-6.5-4.3-.1.8,0,1.5.4,1.7,4.2,2.7,8.5,5.3,12.8,7.8,1.2.7,2.2-.3,2.6-1.6.2-.8.2-1.6.1-2.4-.6-3.5-1.4-6.9-1.9-10.4-.2-1.5-.6-2.6-2.2-3.1-.4-.1-.7-.7-1.1-1,0-.1.2-.3.3-.4h1.8c-.3-1.8-.4-3.4-.8-5-.1-.5-.7-1.4-1-1.4-.6,0-1.4.4-1.9.9-.3.3-.3.9-.4,1.5-2.1-1.5-2.7-2.4-2.6-4h.1ZM264.8,81.1c-.2,0-.4-.1-.6-.2-.3.6-.8,1.2-1,1.9-.3,1.4-.3,3-.7,4.4-1.1,3.9-2.4,7.7-3.4,11.6-.5,2-.6,4.2-.9,6.3.3.1.5.2.8.3,1.5-1.7,2.9-3.3,4.6-5.3-1.2-.2-1.7-.3-2-.4.4-.5.9-.9,1.2-1.3-.3-.8-.8-1.5-.6-1.9,2.6-4.9.9-10.4,2.6-15.4h0ZM262,109.6h-.6c-.3.6-.6,1.7-1.1,1.8-1.8.5-1.6,1.9-1.6,3.1s0,3.3.4,4.9c.4,1.7,1.2,3.2,1.9,4.9.3,0,.5-.1.8-.2-1.7-4.9,1.8-9.6.3-14.5h0ZM336.2,76.4c-2.1,5-3,10.3-3.6,15.7,2.8-4.9,2.4-10.5,3.6-15.7ZM321.3,73c.3,0,.6-.2.8-.3-.8-3-1.6-6-2.4-9-.4,0-.7.2-1.1.3.9,3,1.8,6,2.6,9h.1ZM278.5,97.3c-1.3,3.6-1.1,5,.7,6.2.9-2.2-.2-4-.7-6.2ZM330.6,107.9c.3-2.1.7-4.2,1.1-6.7-1.8,2.1-2.3,4.6-1.1,6.7ZM318.1,56.8c-.9,2.8-.8,3.4,1,4.7-.4-1.8-.7-3.2-1-4.7ZM372.6,198.3c0,1.3-.1,2.6-.2,3.8,1.9-.2,2-.9.2-3.8ZM292.3,140c.5-.9,1-1.3.9-1.7-.2-.6-.7-1-1-1.5-.3.4-.9.8-.9,1.1,0,.6.5,1.1,1,2.1h0ZM320.7,195.5c.3,0,.6,0,.9.1,1-1.3.6-2.6-.4-3.9-.1,1.3-.3,2.5-.4,3.8h-.1Z"/>
  <path class="cls-1" d="M68.8,141.5c.5.2,1,.4,1.8.8-3.1-27.5-.4-54.9-2.6-83-2.4,1.8-4.4,3.2-6.3,4.6-1.1.8-2.2,1.5-3.2,2.3h0c.4-.6.7-1.5,1.2-2,1.9-1.6,3.9-3.2,5.9-4.7,2.7-1.8,3.5-3.7,1.9-6.5-.8-1.5-.2-2.2.8-3.1,1.8-1.5,3.5-3,5.3-4.6-1.1-.9-1.8-1.4-2.4-1.9,0,0,0-.1.2-.2,3.2.7,6.3,1.5,10.1,2.4-1.7.6-2.8,1-4.2,1.5,2.7,1.3,5.4.2,6.8-1.7.7-1,2.5-1.1,4.1-1.7.5,5.2,1,9.8,1.3,14.4.3,3.3,2,5.7,5,6.9,2,.8,3.2,2.2,4.3,3.8.7,1.1,1.6,2.1,2.5,3.1.2,0,.4-.1.6-.2.2-1,.3-1.9.5-3.3.7,1.4,1.3,2.6,1.9,3.9-.4,0-.6.1-.8.1h-1.7c0,.4,0,1.2,0,1.3.5.3,1.3.5,1.8.3,1.8-.9,3.4-2,5.1-3,.7-.4,1.3-.8,2-1.2,0,.2.2.3.3.5-1.6,1.2-3.2,2.3-4.8,3.5-.7.5-1.5,1-2.1,1.7-.4.5-.4,1.3-.5,1.9,1.5-.7,2.6-1.2,3.8-1.8-.6,1.7-1,3-1.4,4.4,1.4.3,2.8.5,4.2.8-.9.6-2.3,1.1-2.9,2.1-.4.7.5,2,1,3-1.5,7.1,4,33,8.5,36.7.4-2.7.8-5.1,1.1-7.6,1.1-9.9,2.2-19.8,3.3-29.7,0-1.3,0-2.8-.2-4.1-.2-.9-.9-1.8-1.4-2.6-.2,0-.5.2-.7.3.5,1.8.9,3.5,1.4,5.6-1.4-1.2-2.7-4.9-2.1-6.1,0-.3.5-.7.8-.8,1.7-.4,1.9-1.6,1.8-3-.6-9.3-1.1-18.5-1.8-27.8-.3-3.5-.5-3.5-4-4.3-.3,0-.7-.2-1-.3-.2,0-.3-.2-.8-.7,1.3,0,2.1,0,2.9.2,2.9.2,4.3-.9,3.9-3.7-.3-2.3,2-2.8,2.4-4.6.2-1.1.9-2.1,1.5-3.4,0,0,.6,0,1.2.2.4-2.3.9-4.5,1.3-6.8.2,0,.5,0,.7,0,.9,2.3.2,4.6-.4,6.8-.4,1.6-1.3,3.1,0,4.7.9,1.2,1.5,2.7,2.3,4,.2,0,.4,0,.6-.1-.3.5-.7.9-1.3,1.8,1.3.6,2.6,1.1,3.8,1.8.5.3,1.2.9,1.2,1.3-.1,5-.4,10.1-.5,15.1-.1,6,0,12,0,18s-.1,1.1-.3,1.7c-.6-.2-1.1-.3-1.8-.6v2.9c0,4.8.5,9.7,0,14.5-.6,4.3,1.1,8.2,1.1,12.3,0,8.5,0,16.9.3,25.4,0,2.2.6,4.3.9,6.6,1.1,0,1.6,0,2.3-.1,0,.4.1.7.2,1,.4,6.1.7,12.1,1.2,18.2.3,3.2.7,6.3,1.3,9.5.6,3.1,3.1,4.6,5.5,6.3.4.3.8.5,1.2.8-.1.2-.3.4-.4.6-2.7-1.7-5.3-3.4-8.3-5.3.3,3.1-1.5,4.6-3.3,6-.7.6-1.7.8-3,1.3.2-1.4.3-2.2.5-2.9l-.4-.3c-.7,1-1.4,2-2.3,3.2-.7-.8-1.3-1.7-2.1-2.7-1.4.6-2.9,1.3-4.5,1.9l-.3-.5c1-.8,2-1.6,3-2.4,0,0,0-.2,0-.3-1.7.7-3.3,1.4-5,2.1,0-.2-.2-.4-.3-.6.8-.5,1.5-1.1,2.3-1.5,4.1-2.2,4.4-4.2,1.1-7.8-1,.5-2,1.1-3,1.6,0-.1-.2-.2-.4-.4.8-1.5,1.7-3-.2-4.4-.5.4-1,.8-1.9,1.6.2-1.5.2-2.7.4-3.8.3-2-.2-3.5-1.8-4.8-2.4-1.9-4.6-4-6.9-6,.2-.2.4-.4.5-.7,2.1,1.6,4.2,3.3,6.6,5.2v-1.7c-.6-4-1-8-2.6-11.9-2.1-5-3.9-10.1-5.8-15.2-.2-.5-.4-1.1-.7-1.7-.3.4-.5.6-.8,1-.5-1.5-1-2.9-1.5-4.5-2.2,3.9-4.2,7.5-4.1,11.8,0,2.3-.2,4.5-1.6,6.5.3-2.8.7-5.6,1-8.4-.3-.1-.5-.2-.8-.3-1.5,1.4-3,2.7-4.6,4.1h0c.7-1.4,1.3-2.8,2.1-4,1.3-2,2-4,1.4-6.4-.2-.8,0-1.6,0-2.7,1,1.7,1.8,3,2.6,4.3l1.2-1.2c-.8-.2-1.2-.3-2-.5.5-.7.9-1.7,1.4-1.7,1.7-.3,2-1.5,1.9-2.7,0-2.3-.4-4.6-.7-6.9,0-.7-.7-1.6-1.3-2-3.3-2.2-6.8-4.3-10.6-6.7,0,1.4-.3,2.5-.3,3.6-.2,5.6-1.4,10.9-3.3,16.1-.8,2.2-1.9,4.2-4.6,4.6-1.3.2-1,1.2-.5,1.8.8,1.1,1.8,2,2.6,3.1.3.4.6,1.3.4,1.7-4.8,7.5-3.9,15.7-2.9,23.8,1.1,8.7,2.8,17.3,4.2,25.7-.3-.4-.7-1-1.3-2-.5,2-1,3.6-1.5,5.6-.9-.8-1.6-1.4-2.7-2.3.5,3.5,1,6.4,1.5,9.5.7-.4,1.1-.6,1.6-.9-.8,3.4-3.4,6.3-2.6,10.2-1.2-.7-1.3-.8-1-2.8,0-1.1.2-2.1.4-3.9-1.2.9-1.9,1.4-3.1,2.3-.3-1.8-.6-3.5-1-5.4-2.4.4-2.5-1.3-2.6-3-.2-3.8-.3-7.6-.4-11.5q0-3.7-3.7-4.1c-.2,0-.5,0-1.6-.3,6-1.9,3-6.1,3.6-9.6.3.1.6.2,1,.3v-2.2c-1.3.2-2.3.4-3.4.6,1-4.5,1.3-8.7,0-13-.5-1.8,0-3.9,0-5.9.2,0,.5-.1.7-.2,0,.4.3.7.4,1.1l.5-.3-1.7-5.3s.2-.2.3-.2l.3.7ZM98.9,72.3c0,0,.3-.2,0,0,.2-.2,0-.1,0,0,0-.4-.2-.8-.2-1.2l-3.3-3.9c-.2.2-.4.4-.6.6,1.2,1.2,2.4,2.4,3.6,3.7.2.3.4.6.5.9h0ZM91.3,89.9c-1.5,3.7-2.1,7.5-1.6,11.4,0,.8.7,1.7,1.3,2.2,2.9,2,6,3.9,9,5.8,0-.1.3-.2.4-.3-.4-1.4-.5-2.8-1.1-4-2.6-5-5.3-9.9-8.1-15.1h0ZM94.2,70.7c4.1,5.8,5.1,13.1,9.8,19.1.3-5.6-2-10.1-3.8-14.7-.7.4-1.4.7-2.5,1.3.6-3.3-1-4.9-3.6-5.8h0ZM79.7,124.9c2.3-1.3,2.4-9,0-11.6v11.6ZM77.9,188.7c-.4,2.8-.7,5.4-1,7.9,0,.4.4.9.6,1.3.4-.3,1.1-.4,1.1-.8.5-2.9.5-5.7-.8-8.5h.1ZM134.5,151.3h.8c-.1-2.3-.2-4.7-.3-7h-.7c-.5,2.4-.9,4.8.2,7.1h0Z"/>
  <path class="cls-1" d="M366.5,112.2c2.1-3.4,4.2-6.9,6.4-10.5-2.3-.8-1.8-2.7-1.7-4.6.1-2.2,0-4.5-.5-6.7-.1-.7-1.2-1.8-1.9-1.9-2.1-.2-3.9-.5-4.6-2.8,0-.2-.4-.3-.6-.3.4-.8.9-1.6,1.4-2.5,2.2-.3,4.9-3.7,4.8-6.2-.2-2.9-.3-5.9-.7-8.8-.1-1-1.1-1.9-1.8-2.7-.6-.6-1.5-.9-2.4-1.3.3-.9.5-1.7.8-2.6-1.8-.5-3.6-1-5.4-1.4v-.7c.7,0,1.4-.1,2.1-.1,2.7,0,3.3-.8,3.2-3.5,0-.8.8-1.7,1-2.6.3-1.1.3-2.2.5-3.3-.5,0-1.3.2-2.3.4,2-3.1,5.9-1.9,7.6-3.4,1.7,0,2.9.2,4,0,2.6-.5,4.2,0,5.4,2.4.6,1.3,1.6,1.8,2.9,1.8,4.5,0,9,0,13.5.3,1.8,0,3.6.8,5.4.9.9,0,2.3-.2,2.8-.9,1.3-1.7,2.2-3.7,3.2-5.5.1-.2.2-.7.3-.7,2.5-.2,2.2-2.4,3-4.1.7.3,1.2.5,1.8.7,0-.2.2-.4.2-.6.3-1.9,1.2-3.4,3.2-4.1.7-.2,1.1-1.3,1.7-1.9,1-1.1,2.1-2.2,3.1-3.3,1-1,2.3-1.8,3-3,2.6-4,7.3-4.8,10.7-7.6.2.2.3.4.5.6-.9.8-1.8,1.5-2.7,2.3-4.4,3.8-8.8,7.6-13.2,11.3-1.2,1-2.5,1.7-3.7,2.6-.4.3-.4,1-.6,1.4-.5,1.1-.9,2.2-1.5,3.1-.8,1.2-1.8,2.4-2.7,3.6-1.2,1.7-2.4,3.5-3.7,5.1-1,1.3-.9,2.1.6,2.6,2.3.7,4.6,1.2,6.9,1.9,1.8.6,3.6,1.3,5.5,1.9,0,.2,0,.5-.1.7h-9.7c-.1.3-.2.5-.3.8,1.7,1.1,3.3,2.1,5.1,3.3-1.4,1.4-4.1-.2-4.9,2.3h-.2c-2.4-2-5.8-1.2-8.4-2.9-1.1-.7-2.2-.3-2.8.7-1.4,2.3-2.7,4.7-3.9,7-.8,1.5-1.4,3.1-2.2,4.8-1.8-.5-2.7.9-3.5,2.7-.7,1.7-1.4,3.3-2.4,5.5,1.1-.7,1.9-1.2,2.8-1.7.3,1.3,1.4,2.2,2.8,1.4.9-.6,1.4-1.9,2.3-3.1.2.6.4.9.5,1.3.5,1.7,1.5,1.8,3.1,1.4,2.8-.6,5.7-.8,8.6-1.1.8,0,1.6.4,2.9.8-2.9,1.8-5.6,2-8.4,2.4-1.1.1-2.2,0-3.3.2-1.5.1-1.9.9-1.1,2.2,4.7,7.6,10.6,14.1,18.2,18.8,6.7,4.1,14.3,6.2,22,7.9.4,0,.8.1,1.2.2,0-.2.2-.4.2-.6-3.5-1.3-6.9-2.7-10.4-4v-.2c2.1.3,4.3.5,6.4.8.1-.3.2-.5.4-.8-3.5-2.4-7-4.7-10.4-7.1,0,0,.4-.1,1.1-.4-1.1-1.7-2.2-3.3-3.3-4.9-.3,0-.5.2-.8.3v2.7c-.1,0-.2.2-.3.3-.2-.5-.5-1-.5-1.5,0-.9.3-1.7.4-2.6.6-3.5-.3-4.4-4.4-3.8.3-1.2.4-2.4.9-3.3,3.3-6.2,3.9-13,4-19.8,0-3.1,0-6.3-.1-9.4,0-1.2-.5-2.3-.8-3.7.8.4,1.5.7,2.2,1.1.2-.1.3-.2.5-.3-.6-1.1-1.3-2.2-2.1-3.5,1,.5,1.8,1.2,2.3,1,.7-.3,1.3-1.2,1.6-2,.9-1.8,1.6-3.7,2.1-4.8,2.7-2.2,4.9-4,6.7-5.6.9.6,1.7,1.6,2.5,1.6,1.6,0,3.3-.4,3.6-2.6,2.3,2.1,3.6,2.2,6.4.3,0,2.5-.2,2.3-2.4,2.6-5.1.7-10.5.8-14.2,5.2v.5s.1-.2.2-.3c2.4-.4,4.8-1,7.2-1.3,2.1-.2,4.2.7,6.4,0,1.4-.5,2.2.6,1.6,2.6,1.4-.7,2.4-1.3,3.5-1.7,1.4-.6,2.6-.5,3.3,1.2.2.5,1.1.9,1.7,1.2,1.1.6,2.3,1.1,3.3,1.5-.8.7-1.4,1.2-2,1.8.5.4,1,.9,1.5,1.3.3.3.7.7.9,1.1.8,1.9,1,13.4.2,15.9-.4-2.1-.7-3.8-1.1-6.1-2.6,4.3-1.3,8.3-.9,12.2,1,9.1,2.3,18.2,3.6,27.4.3,2.5-.8,4.3-3.1,6-.3-1.4-.7-2.4-.7-3.5v-6.1c0-2.6.6-5.2-1.3-7.6-.8-1-.9-3.2-.4-4.5,1.5-4.3.4-8.5,0-12.7,0-.7-.3-1.3-.5-2.2-.4.3-.7.6-1.4,1.2-.2-1.9-.5-3.5-.5-5,.2-3.9-1-7.1-4.6-9.7v15.6s-.2.1-.3.2c-.3-.7-.8-1.4-.8-2-.2-3.5-.3-6.9-.4-10.4,0-1.5-.2-2.9-.3-4.4-.2,0-.4-.2-.5-.3-.7.8-1.5,1.6-2.2,2.4-3.8,5-6.7,10.5-8.6,16.6-.2.6-.3,1.2-.6,1.7-1.5,2.8-2.3,5.5,1.2,7.6.3.2.4.5.5.8,0,0,0,.2-.1.6-.8-.5-1.5-1-2.6-1.8.2.7.3,1.1.4,1.5-.1,0-.2.2-.3.3-.5-.3-1-.6-1.7-1.1.1,6.9,4.5,10.1,10.3,12.7-.9,0-1.4.1-2.2.2.7,1,1.2,1.9,1.9,2.6,4.5,4.5,8.9,9,13.5,13.4,2.3,2.2,4.6,4.4,7.1,6.5,8.4,7.2,13.7,16.5,18.5,26.2,2.1,4.2,4.3,8.3,6.5,12.8-.7,0-1.1.2-1.7.2.4,1,.8,2,1.2,3.2-.7,0-1.2-.1-1.9-.2,1,1.7,1.7,1.7,3,.5.6,6.7-4.9,13.1-11.5,13.4-1.6,0-3.4-.4-4,1.8-2.9.7-4.4,3.9-7.8,4.1-2.3.1-4.6,1.1-6.8,2.1-5.9,2.7-12.2,3.9-18.6,4.2-7.1.3-14.2.5-21.3.7-.5,0-1,0-1.4-.1-3.8-2.5-7.5-5-10.3-8.6,3.2,1.1,5.3,4.4,9.2,4-2.3-1.8-4.6-3.5-6.9-5.3-1.4-1-2.7-2-4.2-2.9-3.4-2-4.4-5.3-4.9-8.9.3.4.6.8.7,1.3,2.3,6.8,8.3,9.7,14.1,12.2,2.6,1.1,5.5,1.6,8.1,3,.6.3,1.4.5,2.2.5h23c-.2-.3-.3-.7-.5-1.1,5.2-.4,9.7-1.9,12.7-6.4,1.9-2.8,1.8-3.8-1.4-5.2-5.5-2.5-7.7-7.2-8.8-12.7v-1.5c2,3,3.8,5.7,5.6,8.3,0,0-.4,0-.7.2v.4c1.2.4,2.5.8,3.7,1.2h0c-.5.2-1,.5-1.5.7.2.3.3.6.5.9,1.6,0,3.1.2,4.7.3.3,0,.8-.3.9-.6,3.2-5.5,6.3-11.1,4.9-17.7-.7-3.6-2.1-7.2-3.8-10.4-4.8-9-11.2-16.9-17.6-24.8-1.1-1.3-2.6-2.6-4.1-3.2-5.1-2-10.4-3.7-15.6-5.4-1.1-.3-2.4,0-3.8,0v-1.2c-5.1-1.1-9.1-3.5-12.4-8h-2.3v-.4h1.6c.2-.2.4-.5.6-.7-.7-.4-1.6-.8-2.2-1.4-1.8-1.7-3.7-3.4-5.3-5.3-1.5-1.6-2.8-3.4-4-5.1-1.3-1.8-2.9-1.6-4.6-1.1-3.2.9-6.5,1.9-9.7,2.9-.1,0-.2.1-.6.3v23.2h-.6c-.2-1.2-.5-2.3-.7-3.5-.6,2.8-1.6,5.9.1,8.2,3.5,4.6,3.1,10,3.7,15.1.3,2.3.7,4.7,1.1,7,0,.2.2.6,0,.7-2.9,4.7-1.7,8.9,1.7,12.8,2.6,3,5.2,5.9,8.9,7.6.7-.7,1.2-1.3,2.2-2.4v3.1c.8.1,1.5.3,2.2.3,2.9,0,5.7-.1,8.6-.3,2.3-.1,4.5-.5,6.2-2.3.4-.4,1.4-.4,2-.3,3.1.6,6.1,1.3,9.1,1.8,1.7.3,3.1-.1,2.5-3.1,1.9,1.5,3.2,2.5,4.8,3.7v-2.5c1.2.8,2.2,1.4,3.5,2.2-.2-1.2-.4-2.1-.6-3,.1,0,.2-.1.3-.2,1.3,1.8,2.7,3.6,4,5.4-.1.2-.2.4-.3.7-3.4-1-6.9-1.9-9.9,1.2-3.1-3.7-6.9-1.7-10.7-1-.6.1-1.2.5-1.7.3-3.5-1-6.8-.1-10,.9-1,.3-1.8,1.2-3.1,2,2.9,1.2,5.2,2.3,7.5,3.3v.4c-.5,0-1,.1-1.4,0-1-.3-2-.5-2.9-1.1-6.5-3.9-13.5-2.5-20.4-1.9-4.1.4-8.5,5.9-8.4,9.8-1.2.6-1.8,0-2.2-1.1-2.3-6.2-4.2-12.6-4.3-19.2v-17.8c0-2.9-.5-5.6-1.5-8.4-1.9-5.7-3.2-11.7-4.7-17.5-.3-1.2-.7-2.5-1.1-4-.7.5-1.2.8-1.7,1.2-.1-.1-.2-.2-.3-.3h0ZM484.8,173.5c1.4.7,1.9-.4,2.1-1.3s0-2,0-3c-.5,0-1.3,0-1.4.1-.3,1.4-.5,2.8-.7,4.2-.5,0-.9,0-1.5.1v1.6c-.6,0-1.2-.1-1.7-.2,0,.1-.1.3-.2.4.6.4,1.3.7,1.9,1.1.5-.8.9-1.6,1.4-2.4v-.6h.1ZM399.1,61.5c-3.9-.5-13.4.4-16.7,1.7-.6.2-1.3,1.1-1.3,1.6.3,4.9.6,9.8,1.2,14.7.2,2.3,1.7,2.8,3.3,1.3,2.8-2.8,5.4-5.9,6-10.1h1.5c-.1-.6-.2-1.1-.3-1.3,2.4-2.6,5.5-4.3,6.3-8h0ZM374.2,103.9c-.8.8-1.2,1.1-1.6,1.5-2.7,3.2-2.8,5-.7,8.9.2.3,0,.7.1,1,.4,3.3.8,6.6,1.4,9.9.2,1.2.8,2.3,1.3,4,.5-1,1-1.4.9-1.9-.4-7.6-.9-15.2-1.5-23.3h.1ZM395.2,163.7c.1-.3.2-.5.3-.8-2.8-3.2-5.5-6.5-8.3-9.7-.1,0-.3.1-.4.2.2,3.5.3,7,.5,10.9,2.8-.2,5.3-.4,7.9-.6ZM433.8,50.8c-2.8-.9-3.7-.8-4.8.9-2.8,4.1-3.7,8.6-2.6,13.7,2.5-4.8,4.9-9.6,7.5-14.5h-.1ZM432.1,61.2l.6.3c1-1.8,1.9-3.6,2.9-5.4,1.4-2.4,2.7-4.9,6-5.2.9,0,1.8-.8,2.6-1.2-1.6-.3-3-.2-4.5-.2-3,0-4.8,1.6-5.8,4.2-.7,1.8-1.7,3.5-2.6,5.4,2-.1.8,1.2.9,2h-.1ZM482.6,157.2c.2,6.3-1.6,12.1-5.2,17.5,5.9,0,7.7-9.6,5.2-17.5ZM467.8,133c-.2.1-.4.3-.7.4,2.2,3.4,4.4,6.8,6.5,10.2.2-.1.5-.3.7-.4-1.9-3.6-3.5-7.4-6.6-10.2h.1ZM476.3,179.2c1.5-.4,2.9-.8,4.2-1.3.4-.1.5-.8.7-1.2-.5-.2-1.1-.8-1.5-.7-1.3.3-2.5.8-3.7,1.4-.3.1-.5.8-.5,1.2s.5.4.8.6ZM427.8,68.8c1-2.4,2-4.8,3-7.2h-.3c-1.5,2.3-3.1,4.6-4.6,6.9.4,0,1,.2,1.9.4h0ZM384.3,123.4c-.3,0-.6,0-.9.1.3,2.2.7,4.3,1,6.5.4-2.2.9-4.5,0-6.6h-.1ZM397.8,85.8v-.9h-3.4c-.2,0-.6.7-.6,1.1s.6.6.9.6c1.1-.2,2.1-.5,3.2-.8h-.1Z"/>
  <path class="cls-1" d="M166.2,106.8c1.4-3,3.1-5.7,6.5-6.9,2.7-1,3.4-3.2,3.3-5.9,0-1.2.6-2.3.8-3.5.1-.6,0-1.3,0-1.9-.8-4.1-.9-8.2-.6-12.3h.5c.8,4.7,1.6,9.5,2.3,14.2h.8c0-.7.3-1.4.2-2.2-.2-3.2-.5-6.4-.7-9.6-.3-5.2-.5-10.5-.9-15.7-.1-1.6-.3-3.3-2.2-4.9v4.8h-.7c-.3-1.2-.6-2.4-.9-3.7-1.2.5-2.4.9-3.6,1.4,0,0-.1-.2-.2-.2,1.6-1.4,3.2-2.8,4.2-3.7,1.7-1.1,2.9-1.8,4.1-2.7,0,0-.4-1.3-.8-1.4-.7-.2-1.5,0-2.5,0,.5-.4,1-.9,1.6-1.3,2-1,4-2,6.1-2.9.9-.4,1.9-.9,2.9-1,2.5-.4,3.9,1.4,3.1,3.8-.2.5.2,1.7.6,1.9,2.6,1,5.2,1.8,7.8,2.7l.2-.5c-.7-.6-1.3-1.3-2-1.9,1.3-.8,2.6-1.5,4.3-2.5-.4,1-.7,1.6-1,2.3.7.5,1.3,1,2.2,1.6-.7.4-1.2.8-1.8,1.2,7.3,2.9,15.3,3.3,22.8,6.8-.8.5-1.2.8-1.5.8-2.9-.2-5.9-.3-8.8-.8-5-.8-10-1.9-15.3-2.9.1,1.3.2,2.1.3,2.9l-.5-.2c-.4.6-1,1.2-1,1.8,0,1.3.2,2.4-1.1,3.4-.6.4-.5,1.8-.6,2.7v4.1c-.3-.3-.6-.5-1.1-.9-1.6,6.2-2.1,12.2-1.2,18.5,3.2.2,6.4.3,9.6.5,2.8.2,5.8,1.3,8.3.6,2.4-.7,3.5-.7,5.4,1,1.5,1.3,4.2,1.2,6.4,1.8.4,1.6-.4,2.7-2,3.1-2.8.7-5.3,1.5-8.3-.6-2.5-1.7-5.9-2.4-9-2.8-3.3-.3-6.7.3-10.5.6,1.7,1,3.1,1.8,4.3,2.4-1.4.9-3.2,1.5-3.9,2.7-.8,1.3-.9,3.3-.7,4.9.2,2.1,1.1,4.2,1.3,6.3.2,1.8-.2,3.6-.2,5.4s.5,1.1.9,1.6q-1.1-.4-1.2,1.3c0,6.1-.1,12.3-.1,18.4,0,12.4.8,24.8,2.4,37.2.4,2.9,0,5.8,0,8.7s-.4,6.4-.3,9.6c.4,14.1,1,28.1,1.4,42.2,0,1.5-.2,3-.4,4.4-.5,3.3-1.3,6.7-1.5,10-.2,2.9-.1,6.1,3.4,8-1.1,0-2.1.1-3.2,0-1.4-.2-2.1.1-2,1.6,0,1.5-.3,3.1,1.8,3.8.6.2.8,1.4,1.1,1.8-1,1.4-2,2.9-2.9,4.3-.2.3-.3.6-.3.9,0,1,.2,2,.4,3.3.4.2,1.3.6,1.7.8-.9,2.4-2,4.4-2.4,6.5-.5,2.1-.3,4.4-.9,6.8-.3-.7-.8-1.4-.8-2.2-.1-1.1-.2-2.4.1-3.5.6-2.3.3-4.4-.6-6.6-.3-.8-.1-1.8-.2-2.6h.6c-.4-.6-.9-1.1-1.3-1.5,1-1.2.4-2.5-1.7-3.9.3-.2.6-.5.9-.7.3-.1.6-.2.7-.2.8-2.9,1.5-5.6,2.3-8.3-3.3-.6-2.4-2.3-.8-4.6-.6-1.1-1.2-2-1.4-3-1.3-4.3-1.2-8.7-1.2-13.2s-.2-8.7-.5-13.1c-.1-1.5-1-2.9-1.5-4.4-.1-.3-.5-.7-.4-.9,1.5-2.2.3-4.5.2-6.8-.3-9.5-.7-19-1.2-28.4-.2-4-.7-8-1.3-12-.2-1.6-1-3.2-1.6-5.2,1.1,1.2,2,2.1,2.8,3,.4-1,.7-1.8,1.1-2.6,0-.2.2-.5.2-.8-.4-2.5-.7-5-1.2-7.8-1,2.2-1.9,4.4-2.9,6.6-.2,0-.4,0-.6-.1,0-1.3-.2-2.7,0-4,.6-3.5,1.4-7.1,2.3-10.6,1.4-5.4,0-10.7-.6-15.3-.8-.7-1.4-.9-1.4-1.2,0-2.5,0-5.1.4-7.7.2.5.5,1,1,2.1,1.1-10.3,1.3-20.1-.3-29.8h-.6v3.8c0,1.3.2,2.6.2,3.9s-.2,2.7-.5,4.1c-1.9-3.4-1.8-7.2-2.6-11.4-1.2.8-2.3,1.4-3.2,2.2-7.6,7.1-12.4,15.8-14.4,26-.1.5-.2,1.1-.3,1.6,0,.2-.2.3-.3.5h-.6c.3-2.5.3-4.9.8-7.4.3-1.6,1.3-3,1.8-4.5.2-.7,0-1.5-.1-2.2h0c1.8,0,3.8-2.5,2.8-3.9-1.3-1.8-.1-2.9.5-4.3.3-.6.9-1,1.4-1.4-.4,1-.8,2.1-1.3,3.1.2.1.3.2.5.4,1.4-1.7,2.8-3.4,4.2-5.2l-.5-.5c-.5.5-1,1-1.5,1.4-.5.3-1,.6-1.5.8v-.2ZM191.4,251.4h-.3c0,1,0,2.1.3,3,0,.3.9.5,1.3.7,0-.4.4-1,.2-1.3-.4-.9-1-1.7-1.5-2.5h0Z"/>
  <path class="cls-1" d="M225.6,42.2c.1,0,.2-.2.3-.2,3.4,0,3.4-.1,3.9-3.6.2-1.6.8-3.2,1.2-4.7.9-3.5.3-4.2-3.6-3.5.9-.8,1.3-1.4,1.9-1.6,1.7-.7,2.5-2,2.7-3.8.4-3.4.9-6.8,1.4-10.7,1.1,2.4,2,4.3,2.9,6.2-.1,0-.2,0-.3.2-.4-.4-.8-.7-1.3-1.1-1.4,1.8-1.2,2.8,0,4.4.7.9.9,2.4.9,3.5-.3,3.7.2,7.1,1.4,11.1.8-2.2,1.5-4,2.2-5.8.2,0,.5.2.7.3-.5,1.3-.9,2.7-1.5,4.3.7-.2,1.1-.4,1.9-.6-.9,2.9-1.7,5.5-2.6,8-.3,1-.7,1.7.5,2.6.7.6.6,2.1,1.1,3.1.4.9,1,1.7,1.5,2.6.5.8,1.1,1.6,1.3,2.5.3,1.3.2,2.7.4,4.1.1.7.6,1.4.9,2,.2,0,.5,0,.7-.1.1-2,.2-3.9.3-6.3,2.2,3.6,0,8.2,3.7,10.8-.9,1-2.9-.4-2.2,2.2-.7-.6-1-.9-1.8-1.7-.4,2.6-1,4.7-1.1,6.9-.9,12.4-1.7,24.8-2.5,37.2-.4,6.5-.9,13.1-1.3,19.6,0,.6-.2,1.2-.3,1.8h-.5v-16.4c-2.5,4.2-3.6,45.9-1.9,58,8,.8,16.1,1.6,24.1,2.4.2.3.4.5.6.8l-3.7,1.9c.3.3.5.7.8,1,.9-.3,1.8-.6,2.7-.9,0,.2.2.3.3.5-.7.5-1.5.9-2.3,1.4.2,2.9,2.4,2.9,4.7,3-1.9,2.2-4.4,1.6-6.7,1.6.6-.4,1.2-.8,2.2-1.5-1.7-.1-3.1,0-4.4-.4-1.4-.3-2.8-.8-4.1-1.5-3-1.6-6.1-2.2-9.9-1.7.6.9.8,1.7,1.4,2.2,1.4,1.2,2.8,2.4,4.4,3.3,4.6,2.6,9.2,5,13.8,7.4.6.3,1.2.7,1.7,1.3-3-.8-6.2-1.2-8.9-2.6-4.5-2.2-8.9-4.8-12.9-7.8-3.6-2.6-7-3.8-11.1-1.9-.4.2-.8.3-1.2.4-.2,0-.4,0-.4-.4-.8-.6-1.6-1.4-2.5-1.7-1-.3-2.1,0-3.7,0,6.3-6.3,2.8-10.2-2.2-13.9,1.6.7,3.2,1.5,4.8,2.2.1-.2.2-.4.4-.6-.3-.8-.5-1.6-.8-2.4.2-.2.5-.4.7-.6.3.7.5,1.4.8,2.2,1.4-2.1,1.3-3.7.2-4.9-.5-.5-.8-1.2-1-1.9-1.1-3.6-2.1-7.3-3.3-10.9-2.3-7.3-2.5-14.8-2.7-22.3.2,0,.5,0,.7-.1.3,1.9.6,3.7.9,5.6,1,5.7,1.9,11.4,2.9,17.1.2,1.1.7,2.1,1.1,3.1h.6c.2-1.4.3-2.8.5-4.2.4.2.7.4,1.2.7,0-.6.2-1.2.3-1.8.6-23.1,1.2-46.3,1.7-69.4,0-4.4-.3-8.9-.3-13.3s.4-1.5.5-2.2v-1.3c-.3-1.3-.8-2.5-1-3.8-.6-3.4-.2-7.3-5.1-8.4l.4-.4,1.8-.2s-.2-.2-.2-.3c1.3-1.1,2.5-2.3,4-3.6-.8-.7-1.7-1.4-2.7-2.2h0v-.3ZM226.5,47.2c.1.3.3.5.4.8.8-.4,1.6-.7,2.3-1.2,0,0-.3-.7-.4-1.1-.8.5-1.5,1-2.3,1.5Z"/>
  <path class="cls-1" d="M54.5,165.4c-.4-2.2-.9-4.4-1.3-6.6.2,0,.4-.1.6-.2.4.9.9,1.8,1.3,2.8.5,1.2.7,2.5,1.5,3.6.8,1.2.8,2,0,3.2-.4.6,0,1.8,0,3-.4.3-1.1.9-1.8,1.6,2.1,1,1.9,2.4-.4,4.2.6.4,1.2.7,2.2,1.2-.9.5-1.3.7-2,1.1.8.4,1.2.7,1.6.8,2.5.5,2.8,1.1,1.5,3.3-.7,1.3-1.2,2.8-1.9,4.4-.4-.7-.8-1.4-1.2-2.2h-.6c-.2,2.9-.4,5.8-.5,8.7h-.5c-1.5-4.5-2.9-9-4.4-13.5-2.4,3-.2,6.1-1,9.1h-.6c-.3-1.3-.7-2.5-.9-3.8-.4-2.3-1.2-4-4-3.8-.5,0-1-.3-1.8-.6.6-.4,1-.6,1.3-.8.5-.3,1-.5,1.5-.8-.5-.5-.9-1.1-1.5-1.5-.8-.5-1.6-.9-1.9-1v-4.7c-.9-.2-1.6-.4-2.5-.6.5-3,1.5-5.5,4.8-7-1.1-.4-1.9-.7-3-1.1.8-.7,1.4-1.2,2.2-1.9-.7-.2-1.2-.3-1.9-.5,1-1.3,1.3-2.4,0-3.8-.5-.5-.2-1.6-.3-2.1,1.3.8,2.5,1.5,3.6,2.3,0-.2.2-.3.4-.5-.4-3-.9-6-1.3-9-2-12.5-3.7-25.1-6.2-37.5-1.7-8.4-3.1-17-6.4-25.1-.8-2-2-3.8-2.9-5.8-.5-1-.9-2.1-1.2-3.2-.9-3.7-1.8-7.4-2.5-11.2-.2-1.1-.2-2.3.2-3.4.6-1.8-.3-1.9-1.6-1.7-.7,0-1.3.2-2.1-.1.6-.3,1.3-.6,1.7-1.1.4-.4.8-1.2.7-1.7-.2-.7-.7-1.5-1.7-.6h-.5c-2.1-2-4.6-1.1-7-1.1h-1.3c2.1-.8,4-1.1,5.5-2,3.1-1.9,6.7-2.2,10-3.3.4-.1.9-.3,1.1-.5,1-2.4,3.2-2.2,5.2-2.4.9,0,2,.2,2.9,0,1-.2,2.2-.6,3-1.3,1.6-1.5,3.9-1.4,5.1.3,0,.2.3.5.3.7-.9,6-.3,12.2-3.4,17.8-.7,1.2-.2,2.1,1.3,2.3.9.1,1.8.4,3.1.6-.8.6-1.2,1-1.7,1.4,1.3,1.2,1,2.1-.4,3-.5.3-.8,1.5-.6,2.2,2.1,11.5,2.1,23.2,2.8,34.9.2,4.2.7,8.4,1.1,12.6.2,1.9,1,3.4,3,4.3.8.4,1.3,1.8,1.4,2.8,0,1.3-.3,2.8-.8,4-2,4.6-1.4,9.3-.4,14,1,4.5,2.1,9.1,3.3,13.6.4,1.5,1.2,2.8,1.8,4.2.2,0,.4-.1.6-.2l-.5.2ZM52.8,179.5c-.3,0-.5.2-.8.3-.5,2.3-.2,2.9,2,3.2-.5-1.3-.8-2.4-1.2-3.5Z"/>
  <path class="cls-1" d="M18,27.1c.5-.4,1-.7,1.7-1.2,0-.3,0-.8-.1-1.3-.4-3.6,2.3-6.3,5.9-5.2,3.1.9,5.9,2.6,8.8,4,.8.4,1.4,1.3,2.2,1.4,2.7.4,3.6,2.1,4.1,4.5.2,1.3,1.2,2.4,1.8,3.6.2,0,.3-.1.5-.2-.2.5-.4,1-.5,1.3-2.7-1.1-3.3,1.6-4.9,2.4-.8.4-1.5.8-2.5.9.4-.7.7-1.3,1.2-2.3h-5.4c-1.9.1-3.5-.4-5-1.7-1.2-1-2.8-1.6-4.2-2.4-2.6-1.7-5.3-3.3-7.8-5.1-.7-.5-1-1.7-1.1-2.7,1.6,1.4,3.3,2.9,4.9,4.3h.5c0-.2,0-.3-.1-.5v.2ZM34.7,33.1c2.4,1.7,3.1,1.5,5.2-1.5-1.9.6-3.3.9-5.2,1.5ZM36.3,27.9c-.4.2-.7.3-1.1.5.4.9.9,1.9,1.3,2.8.4-.2,1.1-.6,1.1-.6-.4-.9-.9-1.8-1.3-2.6h0Z"/>
  <path class="cls-1" d="M31.9,112.9c.1,0,.7.4,1.4.7-.6,1.3-1.5,1.4-1.9,0-.6-1.8-1.2-3.8-1.2-5.7,0-5.4-1-10.6-2.7-15.8-.8-2.4-1-5-1.1-7.6.2.3.5.5.5.8,1.8,7.8,3.6,15.6,5.3,23.5.2,1.1-.2,2.4-.4,4h.1Z"/>
  <path class="cls-1" d="M42.6,24.4c3.3,1.9,4,3.6,3,6.9-.6,2-1.4,3.9-2.5,5.7,1-4.3,4.4-8.5-.5-12.6Z"/>
  <path class="cls-1" d="M298.8,45.8c1.3-.6,2.7-1.2,4-1.9.2,1.3.6,2.6.7,3.8s0,2.4,0,3.6h-.6c-.1-.9-.2-1.8-.3-2.7q-.2-2.7-2.9-2.7h-1v-.3.2Z"/>
  <path class="cls-1" d="M181,180c-.6-2.9-1.1-5.8-1.7-8.9,1.9.4,2.7,4,2.4,8.7-.2,0-.5.1-.7.2h0Z"/>
  <path class="cls-1" d="M32.8,141.5c-1-3.6-1.9-7.1-2.9-10.7.3,0,.6-.2.9-.2l2.9,10.8c-.3,0-.6.1-.9.2h0Z"/>
  <path class="cls-1" d="M23.3,16.4c-1.6,1.4-2.8,2.4-4,3.4-.5.4-1,.8-1.5,1.1-.3.2-.7.3-1,.4,0-.4-.3-.9-.1-1.2,1.4-2.2,3.3-3.5,6.6-3.7Z"/>
  <path class="cls-1" d="M467.8,123.4c-2.8-1.8-5.6-3.5-8.4-5.3.1-.2.2-.4.3-.5,3,1.5,6.2,2.6,8.7,5-.2.3-.4.6-.6.9h0Z"/>
  <path class="cls-1" d="M34.4,122.2c-.8-1.4-2-2.2-1.3-4,.2-.6-.5-1.5-.8-2.3,1.8-.2,2.8,2.7,2.1,6.3Z"/>
  <path class="cls-1" d="M135.3,125.1c2.1,1.9,2.9,5.4,1.5,6.9-.6-2.5-1.1-4.7-1.5-6.9Z"/>
  <path class="cls-1" d="M418.6,41.5c2.1-2.5,4.1-5,6.2-7.5.3.2.5.5.8.7-2.3,2.3-4.6,4.6-6.8,6.9,0,0-.1-.1-.2-.2h0Z"/>
  <path class="cls-1" d="M133.6,91.9v-9.3h.5v9.3h-.5Z"/>
  <path class="cls-1" d="M226.2,98.6c.2,2.9.3,5.9.5,8.8h-.6v-8.9h.2,0Z"/>
  <path class="cls-1" d="M73.7,42.1h6v.7c-2,.2-4,.3-6,.5v-1.1h0Z"/>
  <path class="cls-1" d="M275.3,193.8c2,.1,4,.3,6,.4v.9l-6-.3v-1Z"/>
  <path class="cls-1" d="M228.1,37.8c-1.7-1.4-1.5-3.1.3-5.6,2,2-1.6,3.6-.3,5.6Z"/>
  <path class="cls-1" d="M462.8,52.8c1,2.4,1.9,4.7,2.9,7.1l-.8.3c-1-2.4-1.9-4.8-2.9-7.2.3,0,.5-.1.8-.2h0Z"/>
  <path class="cls-1" d="M135.7,115.5l.4,7.5h-.7c-.2-2.5-.5-5-.7-7.5h1Z"/>
  <path class="cls-1" d="M370.8,231.3c-.6-1.1-1-1.9-1.3-2.6,1.2-.5,2.4-1,3.5-1.5l.5.6c-.8,1-1.6,2-2.7,3.4h0Z"/>
  <path class="cls-1" d="M256.3,87c-.9,2.5-1.8,5.1-2.8,7.6-.2,0-.4-.2-.7-.2l2.8-7.6c.2,0,.4.2.6.3h.1Z"/>
  <path class="cls-1" d="M30.8,19.6c1.9-.8,3.3-.4,4.6,1.9-1.9-.5-3.4-.8-4.8-1.2,0-.2.1-.5.2-.7Z"/>
  <path class="cls-1" d="M225.5,116.2c-.1,1.9-.3,3.7-.4,5.6h-.7c-.7-1.9,0-3.8.6-5.6h.5,0Z"/>
  <path class="cls-1" d="M366.8,112.6c-1,1.4-1.9,2.9-2.9,4.3-.2,0-.3-.1-.5-.2.3-1.4.7-2.8.9-3.7.8-.3,1.5-.5,2.1-.7.1.1.2.2.3.3h.1Z"/>
  <path class="cls-1" d="M181,115.3c.2,1.7.4,3.5.6,5.2h-.9c-.1-1.8-.3-3.5-.4-5.3h.7,0Z"/>
  <path class="cls-1" d="M25.1,43.2l-4.8-1.8c.1-.3.2-.6.3-.9,1.6.6,3.3,1.2,4.9,1.8-.1.3-.3.6-.4.9Z"/>
  <path class="cls-1" d="M7.9,18c0,1.8-.2,3.6-.3,5.5-1.3-2-1.2-3.7.3-5.5Z"/>
  <path class="cls-1" d="M495.5,145.3c-1.5-1.7-2.9-3.4-4.4-5.2.1,0,.2-.1.3-.2,1.3,1.8,2.7,3.6,4,5.4h.1Z"/>
  <path class="cls-1" d="M314.8,192.3c-1-.4-1.6-.6-2.7-1.1,1.2-1.1,2.1-2,3-2.9l.6.6c-.6.4-1.3.9-2,1.4.4.7.7,1.2,1.2,2h-.1Z"/>
  <path class="cls-1" d="M96.1,64c-.8-.4-1.6-.7-2.3-1.2-.9-.7-1.6-1.6-2.3-2.5,0-.1.3-.3.4-.4,1.4,1.4,2.8,2.7,4.2,4.1h0Z"/>
  <path class="cls-1" d="M96.1,64c0,0-.2.2,0,0-.2.2,0,0,0,0h0Z"/>
  <path class="cls-1" d="M161.6,116.4h0Z"/>
  <path class="cls-1" d="M483.6,135c-.1-.1-.3-.3-.4-.4,0-.1.2-.2.2-.4.2.2.4.4.5.5-.1,0-.2.2-.4.2h0Z"/>
  <path class="cls-1" d="M483.8,134.8c.1.1.3.3.4.4-.1,0-.2.2-.3.2-.1-.1-.3-.3-.4-.4.1,0,.2-.2.4-.2h-.1Z"/>
  <path class="cls-1" d="M484.3,135.2c.1.1.2.3.4.4,0,0-.2.1-.3.2-.1-.1-.3-.3-.4-.4.1,0,.2-.2.3-.2Z"/>
  <path class="cls-1" d="M484.8,136.2l-.4-.4s.2-.2.3-.2c.1.1.2.3.3.4,0,0-.1.1-.2.2h0Z"/>
  <path class="cls-1" d="M485,136c0,.2.1.4.2.6h0c-.1-.1-.3-.3-.4-.4,0,0,.1-.1.2-.2h0Z"/>
  <path class="cls-1" d="M485.5,137.4c0-.2-.2-.5-.2-.7h0c0,.2.2.5.3.7h0Z"/>
  <path class="cls-1" d="M485.5,137.4c0-.1.2-.3.3-.4l.2.2c-.2,0-.3,0-.5.1h0Z"/>
  <path class="cls-1" d="M482.8,133.8c.1.1.3.3.4.4,0,.1-.2.2-.2.4-.1-.1-.3-.3-.4-.4,0-.1.1-.3.2-.4Z"/>
  <path class="cls-1" d="M491.1,139.2c0,.2.2.4.3.7,0,0-.2.1-.3.2v-.9h0Z"/>
  <path class="cls-1" d="M68.5,141.8v-.5s.2.2.2.3c0,0-.2.2-.3.2h.1Z"/>
  <path class="cls-1" d="M93.9,134.3s-.2.1-.3.2h0c0-.1.2-.2.3-.3h0Z"/>
  <path class="cls-1" d="M495.3,145.3h.4v.2c-.1,0-.2-.1-.3-.2h-.1Z"/>
  <path class="cls-1" d="M482.7,134.2c0-.2-.2-.4-.3-.5.2,0,.3.1.5.2,0,.1-.1.3-.2.4h0Z"/>
  <path class="cls-1" d="M423.6,98.8v.6c-.1-.1-.2-.2-.4-.3.1,0,.2-.2.3-.3h.1Z"/>
  <path class="cls-1" d="M482,132.9c0,.2.2.3.3.5-.2,0-.4-.2-.6-.3.1,0,.2-.2.3-.2h0Z"/>
  <path class="cls-1" d="M257.7,88.7h-.3v-.2s.1.2.2.3h0Z"/>
  <path class="cls-1" d="M434.6,89.3v.5c-.1,0-.2-.2-.3-.3,0,0,.2-.2.3-.3h0Z"/>
  <path class="cls-1" d="M481.6,133.2c-.1-.1-.3-.3-.4-.4.1,0,.2-.1.3-.2.1.1.3.3.4.4-.1,0-.2.2-.3.2Z"/>
  <polygon class="cls-1" points="459.2 171.6 459.1 171.6 459.2 171.5 459.2 171.6"/>
  <path class="cls-1" d="M481.3,132.8v-.7h0c.1.1.3.3.4.4,0,0-.2.2-.3.2h-.1Z"/>
  <path class="cls-1" d="M480.8,131.4c0,.2.2.5.3.7h0c-.1-.2-.2-.5-.3-.7h0Z"/>
  <path class="cls-1" d="M302.1,29.5l.6-.3c0,.1.2.3.3.4-.3,0-.6,0-.9-.1h0Z"/>
  <path class="cls-1" d="M302.1,29.5s.2.2.3.3c0,0,0-.1-.1-.1,0,0-.1,0-.2-.1h0Z"/>
  <polygon class="cls-1" points="225.5 42.1 225.6 42.1 225.6 42.2 225.5 42.1"/>
  <path class="cls-1" d="M418.6,42.3v-.8s.1.1.2.2c0,.2-.2.4-.3.6h0Z"/>
  <path class="cls-1" d="M480.8,131.4c0,.1-.2.2,0,0-.2.2-.1,0,0,0h0Z"/>
  <path class="cls-1" d="M418.6,42.2h-.4s0-.1.1-.2c0,0,.2.2.3.2h0Z"/>
  <path class="cls-1" d="M58.5,66.2s0,.2-.2.2v-.2h.3,0Z"/>
  <path class="cls-1" d="M491.1,139.2c-.1.1-.2.3-.3.4,0,0,0-.1-.1-.2.1,0,.3-.1.4-.2h0Z"/>
  <path class="cls-1" d="M275.8,126.1c0,.1-.2.2,0,0-.2.2-.1,0,0,0h0Z"/>
</svg>