<?xml version="1.0" encoding="UTF-8"?>
<svg id="Calque_1" data-name="Calque 1" xmlns="http://www.w3.org/2000/svg" version="1.1" viewBox="0 0 500 300">
  <defs>
    <style>
      .cls-1 {
        fill: #75683b;
        stroke-width: 0px;
      }
    </style>
  </defs>
  <path class="cls-1" d="M142.8,142.2c-3.9,8.1-7.7,16.2-11.6,24.3-.5.9-1.3,1.7-2,2.5-.7-.9-1.6-1.6-2.1-2.6-3.7-7.9-7.3-15.9-11.4-23.8,0,7.1,0,14.3,0,21.4,0,.9,1.9,1.7,2.9,2.5.5.5,1.1.9,1.6,1.4-.5.4-1.1,1-1.6,1.1h-10c-.6,0-1.1-.7-1.7-1,.5-.5,1-1.3,1.6-1.3,2.9-.2,3.3-1.9,3.3-4.3v-24.5c0-2.4-.8-3.8-3.3-4.1-.6,0-1.1-.9-1.7-1.4.6-.4,1.2-.8,1.9-1.1.3-.1.6,0,.9,0,6.6-1.4,10.4,1.1,12.6,7.8,2.1,6.4,5.5,12.3,8.6,19,3.9-8.3,7.7-16.1,11.3-23.9,1-2.2,2.1-3.3,4.7-3,2.1.3,4.2,0,6.3.1.8,0,1.6.8,3,1.5-3.9,1.4-5.8,3.9-5.8,7.5v22.3c0,2.3.6,3.8,3.2,4,.6,0,1.1.8,1.7,1.3-.7.4-1.3,1-2,1.1h-12.9c-.6,0-1.3-.7-1.9-1.1.6-.4,1.1-1.1,1.8-1.2,1.8-.3,3.2-.8,3.2-3.1v-21.3h-.7Z"/>
  <path class="cls-1" d="M293.8,151.9c3.4,4.4,6.5,8.6,9.9,12.7.8,1,2.3,1.3,3.4,2,.5.3,1,.7,1.5,1.1-.6.5-1.1,1.3-1.7,1.3-2.3.2-4.6.2-6.9,0-.8,0-1.8-.9-2.3-1.7-3.1-4.2-6.1-8.5-9.2-12.7-.9-1.1-2.4-1.8-3.6-2.6-.3.2-.5.4-.8.6,0,3.9-.2,7.9.1,11.8,0,.8,1.9,1.4,2.8,2.2.6.4,1.2.9,1.7,1.3-.6.4-1.3,1.1-1.9,1.1-4.3.1-8.6,0-12.9,0s-1.3-.7-1.9-1.1c.6-.4,1.1-1.2,1.7-1.2,2.6-.2,3.3-1.7,3.3-4v-25.1c0-2.2-.6-3.6-3.1-3.8-.6,0-1.2-1-1.9-1.5.7-.3,1.3-1,2-1,5.6,0,11.3-.3,16.9,0,7.5.4,12.1,5.3,11.4,11.4-.4,3.7-2.5,6.1-5.7,7.7-.9.5-1.9.8-3,1.4h.2ZM284,149.4c2.7-.5,5.1-.5,7.2-1.3,4-1.4,5.6-5.6,3.9-9.6-1.2-2.9-6.9-4.9-9.8-3.4-.6.3-1.2,1.2-1.2,1.9-.1,3.8,0,7.7,0,12.3h-.1Z"/>
  <path class="cls-1" d="M43.7,140.7v21.6c0,2.4.6,4,3.3,4.3.6,0,1.1.9,1.6,1.4-.6.3-1.1,1-1.7,1-3.3,0-6.7.1-10,0-.6,0-1.2-.8-1.8-1.3.5-.4,1.1-1,1.6-1.1,2.8-.1,3.4-1.8,3.3-4.2v-24.5c0-2.3-.6-3.8-3.2-4.1-.6,0-1.2-.9-1.8-1.3.7-.4,1.5-.8,2.2-1.2h.3c5.3-.9,9.1.9,12.3,5.5,4.8,6.9,10.4,13.3,16.2,20.5,0-7.5,0-14.3,0-21,0-.8-1.9-1.6-2.9-2.4-.6-.5-1.2-.9-1.7-1.4.6-.4,1.3-1.1,1.9-1.1,3.2-.1,6.5-.1,9.7,0,.6,0,1.3.7,1.9,1.1-.6.4-1.2,1.3-1.8,1.3-2.8,0-3.1,1.9-3.1,4.1v28.9c0,1-.6,2-.9,3-.9-.5-2.1-.9-2.7-1.6-6.8-8.1-13.4-16.3-20.1-24.5-.6-.8-1.3-1.5-2.5-2.9h0Z"/>
  <path class="cls-1" d="M329.4,141.1v22.6c0,3.2,2.8,2.7,4.7,3.3.1.3.2.6.3.9-.9.4-1.7,1.1-2.6,1.1-9.1.6-10.4.3-11.1-1.8,3.3-.9,4.9-3.2,4.9-6.7v-22c0-2.7-.4-4.5-3.6-4.7-.6,0-1.1-1-1.7-1.5.1-.2.2-.5.4-.7,3.1,0,6.2-.2,9.3.1,1.2.1,2.3,1.5,3.2,2.6,5.7,7,11.3,14.1,16.9,21.1.3.4.7.8,1.6,1.9v-13.1c0-4.1,0-2.3,0-3.5.2-3.4.5-6.8-4.3-7.3-.3,0-.5-.8-.9-1.6h13.7c.1.2.2.4.3.7-.7.5-1.5,1.4-2.2,1.3-2.9-.1-2.9,1.8-2.9,3.7v28.9c0,1.1-.7,2.2-1.1,3.2-1-.6-2.2-.9-2.8-1.7-4.6-5.5-9-11.1-13.6-16.6-2.7-3.3-5.5-6.5-8.7-10.3h.2Z"/>
  <path class="cls-1" d="M411.8,140.8v22.8c0,2.1,1.4,2.8,3.2,3.1s1,.9,1.5,1.4c-.6.3-1.1,1-1.7,1-3.2,0-6.5.1-9.7,0-.6,0-1.3-.7-1.9-1.1.5-.4,1.1-1.2,1.7-1.3,2.2-.2,3.2-1.3,3.2-3.4v-26.1c0-2.2-1.3-3.1-3.3-3.4-.6,0-1-1-1.5-1.5.6-.3,1.1-.9,1.7-1,2.4-.1,4.8-.2,7.2,0,.7,0,1.6.8,2.1,1.4,6,7.3,11.9,14.6,17.9,22,.5.6,1,1.2,2,2.4,0-7.4.1-14.2-.1-20.9,0-.9-1.9-1.6-2.9-2.5-.6-.5-1.2-.9-1.8-1.4.6-.4,1.3-1.1,1.9-1.1,3.2-.1,6.5-.1,9.7,0,.6,0,1.3.7,1.9,1.1-.6.5-1.2,1.3-1.8,1.3-2.7.1-3.2,1.8-3.2,4v28.6c0,1.1-.6,2.2-.9,3.4-1.1-.7-2.4-1.2-3.1-2.1-6.9-8.3-13.7-16.6-20.5-25-.3-.4-.7-.8-1.6-1.9v.2Z"/>
  <path class="cls-1" d="M489.3,130.5c.3,4,.6,8.1.9,12.1l-.8.5c-.6-.6-1.4-1.2-1.8-1.9-3.2-6.1-6.8-8.2-14.4-7-5.1.8-7.4,5-8.7,9.7-1.5,5.5-.9,10.8,1.7,15.8,3.2,6.2,9.7,8.8,15.9,6.2.8-.3,1.8-1.5,1.8-2.4.2-3.4,0-6.9,0-10.4s-1-2.7-2.9-2.9c-.9,0-1.7-.8-2.5-1.2.1-.3.3-.6.4-.9.6,0,1.2-.2,1.8-.2h13.5c.2.3.3.5.5.8-.7.5-1.5,1-2,1.6-.7.8-1.8,1.6-1.9,2.5-.2,3.2-.3,6.5,0,9.7.3,3-.8,4.5-3.5,5.5-7.6,2.9-18.9,2.4-25.1-3.2-6.8-6.2-7.6-17.1-3.1-24.9,4.3-7.6,13.1-11.3,22.1-8.9,2.6.7,5,2.2,7.2-.7,0-.1.6,0,1.1.1h-.2Z"/>
  <path class="cls-1" d="M206.9,150c0,10.5-8.6,19.7-18.6,19.8-10,0-18.9-9.1-19-19.5s8.7-19.7,18.7-19.8,18.9,9,18.9,19.5h0ZM200.2,150.1c-.9-3.3-1.4-6.6-2.7-9.7-1.6-3.8-4.6-6.2-8.9-6.3-4.5-.2-7.6,2.1-9.5,5.9-3.3,6.7-3.3,13.5,0,20.2,1.9,3.8,5.1,6.1,9.6,5.9,4.4-.2,7.3-2.6,8.9-6.3,1.3-3,1.8-6.4,2.7-9.7h-.1Z"/>
  <path class="cls-1" d="M219.5,131.3h15.8c.4,0,.8.7,1.3,1.1-.5.5-1,1.5-1.4,1.4-3.5-.3-3.3,2.1-3.3,4.3v19.2c0,5.4,2.6,8.3,7.4,8.7,5.9.5,9.8-2,10.8-7.1.4-2,.5-4.2.5-6.2v-15.1c0-2.3-.4-4.2-3.6-3.8-.6,0-1.3-.8-2.4-1.6,1.3-.4,2-.7,2.7-.7h10.7c.5,0,1,.7,1.5,1.1-.4.4-1,1.3-1.3,1.3-3.6-.6-3.6,1.8-3.6,4.2-.1,6.6-.4,13.1-.5,19.7-.1,5.8-4.9,11.2-12.2,11.7-3.5.3-7.1-.5-10.6-1.2-2.6-.5-6-5.7-6-8.7-.2-7.1-.3-14.2-.3-21.3s-.6-4.8-4-4.7c-.6,0-1.1-.9-1.7-1.4.1-.4.2-.7.3-1.1v.2Z"/>
  <path class="cls-1" d="M13.7,169.1h-6.6c-.6,0-1.2-.8-1.8-1.2.5-.4,1-1.1,1.6-1.1,3-.1,3.5-2,3.5-4.5v-24.1c0-2.5-.4-4.3-3.5-4.4-.5,0-1-.8-1.5-1.2.6-.4,1.2-1.2,1.8-1.2,4.5-.1,9,0,13.5,0s1.1.7,1.6,1.1c-.5.4-.9,1.3-1.4,1.3-3.6,0-3.6,2.3-3.6,4.9v23.5c0,2.6.4,4.6,3.6,4.6s.9.8,1.4,1.2c-.5.4-1.1,1.1-1.6,1.1-2.3.1-4.6,0-6.9,0h-.1Z"/>
  <path class="cls-1" d="M372.4,167.4c4-.9,6-3.1,6-6.6v-22.9c0-2.4-.4-4.1-3.3-4.1s-1.1-.9-1.6-1.4c.7-.4,1.3-1,2-1h12.8c.7,0,1.3.7,2,1-.6.5-1.2,1.4-1.9,1.4-2.3.1-3,1.4-3,3.5v25.7c0,2.3.9,3.5,3.3,3.7.6,0,1.1.8,1.7,1.3-.6.4-1.3,1.1-1.9,1.1-4.3,0-8.6.1-12.8,0-.8,0-1.6-.8-3.1-1.6h-.2Z"/>
</svg>