<?xml version="1.0" encoding="UTF-8"?>
<svg id="Calque_1" data-name="Calque 1" xmlns="http://www.w3.org/2000/svg" version="1.1" viewBox="0 0 500 300">
  <defs>
    <style>
      .cls-1 {
        fill: #75683b;
        stroke-width: 0px;
      }
    </style>
  </defs>
  <path class="cls-1" d="M90.7,250.5c-.8-3.4-1.6-6.7-2.3-10.1-4.2-17.9-14.1-32.8-25-47.1-6.1-7.9-12.2-15.8-21-20.9-4.5-2.6-9.2-4.3-14.5-3.4-5.5.9-9.6,5.1-9.7,10.6-.1,9.9,5.3,21.1,15.9,26.1-1.1-2.9-2.4-5.5-3.1-8.2-2.4-9,1.2-16,7.4-22.3,2-2.1,3.6-1.8,5.5.8-6.1,3.7-10,9-10,16.2s3.1,12.5,8.7,17.8c-1.9-.2-3.1-.1-4.2-.5-11.8-3.3-19.2-11.2-23.4-22.4-2.5-6.8-5.2-13.6-8-20.2-1.1-2.5-2.8-4.7-4.1-7.2,7,5,15.1,4.5,23,5,4.2.3,8.5.7,12.6,1.6,6,1.3,11,4.6,15.1,9,7.2,7.7,14.2,15.8,21.3,23.7,2.8,3.2,5.5,6.4,8.8,10.1v-38.2c3.6,1.7,6.6,3,9.3,4.6.8.5,1.2,2.2,1.3,3.3,0,6.2,0,12.4,0,19.7,5.1-7.4,9.5-13.8,13.3-19.4-3.5-4.5-7.6-8.6-10.1-13.5-3.2-6.1-2.3-12.9,0-19.2,3.2-9.1,7-18,10-27.2,1.2-3.6.5-7.4-1.8-10.8-3.1,3.5-6,6.9-9,10.3-.4-.2-.8-.5-1.2-.7.6-1.3.9-3,1.9-3.9,7.4-6.8,9.2-15,6.7-24.5-.4-1.6-.8-3.3-1.2-4.7,5.7,6.2,6.8,14.6,10.1,22.3,1.2-.8,2.5-1.6,3.9-2.5-7.2,16.1-15.1,31.6-18,48.9-1.1,6.3,1.2,11.8,5.9,16,4.9,4.4,10.8,6.7,17.6,6.7h357.8c4.5,0,9-.2,13.5-.2s2.2.1,3.4.2v1.1c-.8.1-1.6.4-2.4.4-4.6,0-9.2-.2-13.8-.2H172.3c-9.7,0-19.4,1.2-28.4,5.3-3.8,1.7-7.5,4-10.9,6.5-5.3,3.9-6.7,9.5-5,16.9-6.3-7.1-12-13.4-17.8-20,.7-.6,1.4-1.3,2.4-2.2,3.2,3.4,6.2,6.6,9.4,10.1,7.2-9.4,19-10.3,28.2-16.6h-6.2c-5.5,0-10.9.2-16.4,0-8.8-.4-15.3,3.6-20.2,10.3-10.6,14.6-14.6,31.4-15.1,49.3,0,4.5,0,9,0,13.5h-1l-.6-.2Z"/>
  <path class="cls-1" d="M93.8,166.5c-3.3-1.2-6.7-2.4-10.3-3.7v-82.6c-.6,0-1,0-1.2.2-12.1,6.6-22.3,15.3-30.1,26.8-1.5,2.2-2.4,5.1-2.9,7.8-1.5,8.8,7.9,17.7,17.4,16.5,2.7-.3,5.5-1.1,8-2,2.6-.9,5-2.3,7.5-3.5l.7.7c-.9.8-1.6,1.8-2.6,2.4-11,6-21.5,4.1-31.7-1.9-4.4-2.6-8.6-5.3-12.4-7.6,1.4-1.5,3.1-2.8,4.2-4.5,3.4-5.4,5.9-11.5,10-16.3,5.8-6.6,12.7-12.3,19.1-18.3,4.7-4.4,9.5-8.7,14.1-13.2,5.1-4.9,7.7-11.2,10.3-17.9v117.2h-.1Z"/>
  <path class="cls-1" d="M442.2,167.6h-10.7c2.7-9.8,1.3-19.9,1.2-30,0-1.4-1.4-2.8-2.2-4.2,2.4-.6,5.4-1.4,8.7-2.2v7.3c10.6-11.5,20.7-11.1,26.9.7,1.1-1.7,2.2-3.4,3.4-5.1.3.1.6.2.9.3-5.6,8.6-3.9,18.1-3.9,27.4s1.3,4.1,2,6h-11.3c.7-2.7,1.8-5.4,1.9-8.2.3-5.7.2-11.4,0-17.1-.2-6.7-3.6-10.5-9.1-10.3-3.5.1-6.2,1.9-7.4,5-1.4,3.6-2.3,7.4-2.7,11.2-.5,4-.4,8,0,12,.2,2.6,1.3,5,2.1,7.5l.2-.3Z"/>
  <path class="cls-1" d="M158.2,167.6h-11.3c.7-1.8,2.1-3.6,2.2-5.5.2-6.8.4-13.6-.1-20.3-.4-5.8-4.2-9.5-9-9.8-5.4-.4-9.6,2.3-10.5,8.4-1.1,7.5-1.1,15.2-1.2,22.8,0,1.5,1.5,2.9,2.4,4.3h-12.3c.7-1.9,2.3-4.2,2.4-6.6.3-7.2.2-14.3,0-21.5,0-2-1.2-4-2-6.3,2.3-.5,5.2-1.1,8.4-1.9v8.3c3.3-7.4,9-9.7,16.5-9.1,7.3.6,12.4,5.6,12.7,13,.2,5.6-.1,11.2.1,16.8.1,2.6,1.2,5.1,1.7,7.5h0Z"/>
  <path class="cls-1" d="M224.3,130.3c15.1,0,24.7,12.7,19.6,26.1-2.9,7.5-10.2,12.1-19.4,12.1s-16.5-4.6-19.4-12.1-1.1-15.6,4.8-21c3.6-3.3,8.6-5.1,14.4-5.1h0ZM237.7,149.5c-.8-3.6-1.2-7.3-2.4-10.8-1.7-5-5.7-7.4-11-7.3-5.1.1-8.9,2.4-10.7,7.2-2.6,7.1-2.6,14.3,0,21.3,1.8,5,5.7,7.4,10.9,7.4s9.1-2.4,10.9-7.4c1.1-3.3,1.5-6.8,2.3-10.5h0Z"/>
  <path class="cls-1" d="M164,159.4c2.8,7.9,18.6,10.7,24.7,5,1.6-1.5,2.5-4.8,2.2-7.1-.2-1.6-2.9-3.5-4.8-4.1-3.7-1-7.7-1-11.5-1.7-7.8-1.4-11.4-6.1-9.7-12.5,1-3.6,3.6-5.8,6.9-7,8-2.9,15.9-2.2,24,.8-.7,2-1.3,3.8-2.1,6-3.4-7-9.1-8.2-15.7-7-4.1.8-6.5,3.7-6.6,7.5,0,3.3,1.9,5.4,6.4,6.1,3.9.7,7.9.9,11.9,1.6,5.3,1,7.7,3.2,8.3,7.3.8,4.7-1.3,8.7-5.8,11.1-6.7,3.6-13.8,3.2-21,2.4-2.9-.3-5.8-1.3-9-2,.6-2.5,1.1-4.5,1.6-6.6l.2.2Z"/>
  <path class="cls-1" d="M394.3,131.2v19.5c0,2.7,0,5.4.6,8,1.6,6.7,6.3,9.4,13.1,7.8.5-.1,1.1,0,1.7.2-5.2,2.8-10.6,2.6-15.9.6-4.6-1.8-6.3-5.9-6.5-10.5-.3-6.1,0-12.1-.2-18.2,0-1.7-.9-3.4-1.5-5.4,2.3-.5,5.3-1.1,8.7-1.9h0Z"/>
  <path class="cls-1" d="M288.8,167.6h-11.5c.7-2.5,1.9-5,2.1-7.6.3-4.8,0-9.7,0-14.5,0-10.7-2-12.9-12.5-13.7,7.9-3.8,14.5-1.2,19.4,7.3.9-1.4,1.8-2.9,2.7-4.4.3.1.6.2.9.3-4.7,8.7-3.4,18.1-3.2,27.3,0,1.7,1.3,3.4,2,5.2h.1Z"/>
  <path class="cls-1" d="M360.1,167.6h-11.1c.7-1.8,2.1-3.9,2.2-6,.3-6.2.5-12.4,0-18.5-.7-8.7-4.6-11.3-14.5-11,7.9-5.6,20.6.2,21.5,10.1.5,5.8,0,11.6.3,17.4.1,2.7,1,5.3,1.6,8Z"/>
  <path class="cls-1" d="M333,167.6h-12.7c.8-2.1,2.3-4.3,2.4-6.6.3-7.1.3-14.3,0-21.4,0-2.1-1.2-4.1-2-6.4,2.2-.5,5-1.1,8.3-1.9v9.2c1.4-2.3,2.2-3.6,3-4.9-.7,5.6-2,11-2,16.5s-1.9,11.1,3,15.7v-.2Z"/>
  <path class="cls-1" d="M259.3,131.2v8c1.3-1.6,2.1-2.7,2.9-3.7-2.6,10.8-3.9,21.5,0,32.1h-10.6c.5-2.5,1.3-5,1.4-7.5.2-7,.2-14.1,0-21.1,0-1.9-1.2-3.7-1.9-5.7,1.9-.5,4.8-1.2,8.3-2.1h0Z"/>
  <path class="cls-1" d="M314.7,167.6h-11.1c.7-2.4,2-4.8,2.1-7.3.4-4.9.2-9.9.2-14.9,0-10.7-1.8-12.7-12.2-13.6,8.1-4.3,17.3-.4,18.5,8.5,1,6.9.4,14,.8,21,.1,2.1,1,4.1,1.6,6.3h.1Z"/>
  <path class="cls-1" d="M473.7,131.7c9.9-4.8,18.8,1,19.2,12.7.2,5.9,0,11.9.2,17.8,0,1.8,1.1,3.6,1.7,5.4h-11.2c.7-2.3,2-4.8,2.2-7.3.4-4.8.1-9.7.1-14.5,0-11.1-1.5-12.8-12.1-14h-.1Z"/>
  <path class="cls-1" d="M367.5,133.2c2.4-.6,5.4-1.3,8.9-2.1v24c0,1.9-.3,4,0,5.8.5,2.3,1.7,4.5,2.5,6.6h-14.2c3.9-1.5,4.4-4.3,4.4-7.4,0-7.1.1-14.3,0-21.4,0-1.7-1-3.4-1.6-5.5h0Z"/>
  <path class="cls-1" d="M414,132.8c2.2-.4,5.1-1,8.5-1.6v24.1c0,1.9-.2,3.9.2,5.8.5,2.3,1.6,4.4,2.4,6.5-4.8.3-7.9-1.9-9.4-6.8-.5.9-1.1,1.8-1.6,2.7,2.5-10.6,2.5-20.5,0-30.5v-.2Z"/>
  <path class="cls-1" d="M106,178.9c-.8.9-1.6,1.7-1.9,2-5.3-3.5-10-7.8-15.5-10.2-11.7-5.2-23.8-6.4-35.9-.6-1.1.5-2.9-.3-4.3-.8,13.6-8.7,38.3-10.2,57.6,9.6Z"/>
  <path class="cls-1" d="M373.4,126.4c-3.8-.3-5.6-1.8-5-4.2.4-1.5,2.2-3.5,3.8-3.8,2.4-.5,4.3,1.5,4,3.9-.2,1.7-2,3.2-2.8,4.2h0Z"/>
</svg>