<?xml version="1.0" encoding="UTF-8"?>
<svg id="Calque_1" data-name="Calque 1" xmlns="http://www.w3.org/2000/svg" version="1.1" viewBox="0 0 500 300">
  <defs>
    <style>
      .cls-1 {
        fill: #76693b;
      }

      .cls-1, .cls-2 {
        stroke-width: 0px;
      }

      .cls-2 {
        fill: #131215;
      }
    </style>
  </defs>
  <path class="cls-1" d="M1.6,167.6c2.5,1.1,4.9,2.1,7.6,3,6.7,2.3,13.5,2.6,20.4.7,2.5-.7,4.6-1.9,6.7-3.5,6.2-4.4,12.7-5.8,19.7-3,3.7,1.4,7,1.1,10.4-.9,4.2-2.5,8.3-2.3,12.3.4,1.6,1.1,3.3,1.8,5.3,1.9,3.5.4,5.6-1.4,6.5-5.1,1.1-4.7.2-9.3,0-14.1-.5-4.9-.7-9.7.5-14.4.7-3.3,2.1-6.5,6-7,4-.5,7,1.1,9,4.7,0,.4.4.5.4.5,5.6-5.5,11.1-11.1,16.9-16.4,10.9-10.2,23.4-17.4,38.2-20.4,2.5-.5,4.9-.7,7.4-.4-5.8,3.2-10.4,7.7-14.2,12.8-3.9,5.1-7.2,10.5-10.4,16.7,4-1.6,7.4-1.4,10.4,1.6.4.2,0,.9.9.9,0-.5,0-1.1-.4-1.4-.5-3.2-2.1-6.2-3-9.3,3.5.5,11.6,8.3,18.1,16.2,5.1,6.3,10,12.7,14.1,20.6,0-8.4,1.1-16,2.5-23.6,1.4-7.2,4.6-13.4,10.4-18.1-3.5,7-5.1,14.6-6.3,22.9,3.2-1.8,5.6-3.9,8.1-5.8,4.9-4.2,9.5-8.8,13.5-14.1,1.2-1.6,1.6-3,.5-4.9-1.1-1.8-1.4-3.9-2.3-5.8s-1.8-2.8-3.9-.7c-1.1-2.8-4.7-3-5.5-5.8-1.1-4.2-3-8.6,0-13.2.4,1.2.5,2.5.9,3.5.4.7.2,2.1,1.6,1.9,1.1-.2,2.6,0,3-1.6,0-.4,0-.7.5-.7.4,1.8-.9,3.9.9,6,2.3-2.1-1.1-4,0-5.8.4-.4,1.1.4,1.8-.4.5-1.2-.4-2.8.7-4.2.4.7.7,1.2,1.2,2.1,1.1-2.5-.5-4.2-.5-6.3h-1.4v-3.2c0-1.4.4-3-1.6-3.5-1.1-.4,0-1.8-1.1-2.3.9-1.2-.4-1.9-.7-2.8-.2-.5-.4-1.4-1.4-1.4s-.9,1.1-1.4,1.9c-.9-2.3-.2-4.4,0-6.3.2-1.1.4-2.1.2-3.2-.7-4.7,1.2-9,3.3-13.2s5.1-3.7,7.7-.9c2.8,3,6,5.5,9.3,7.9,1.9,1.4,3.2,3.5,5.6,4,2.8.7,5.8.5,8.6.2.7,0,1.6,0,2.3-.4,6.2-.9,10.4,2.5,14.6,6.2,3.2,2.8,6.5,5.3,10.9,6,2.3.4,3.9,1.2,4.7,3.5s3,3.3,5.3,3.3,5.6.4,7.9,2.8c0,0-1.2,0-.5.7,10.9,0,20.9,3.9,29.7,10-4.7,2.6-9.1,6.2-13.9,8.8-3,1.6-5.5,4.6-9.1,4.9-1.8.2-1.9,1.4-1.4,2.8.5,1.4,1.4,2.6,2.5,3.7,2.8,2.6,4.7,5.8,7.7,8.1,1.4,1.1,1.9,2.6,2.8,4,2.1,3.9,3.9,8.1,6.5,11.6-1.8,0-3-.5-5.5-3s-2.6-3.7-3.9-5.6c-1.2-1.8-2.1-3.7-4-5.3-1.4,6.3-3.7,12-7.4,16.9-.4.5-.5,1.1-.4,1.6,1.4,6.2-.9,11.6-3,17.1-.9,2.5-2.1,4.7-2.3,7.9,4.4-6.3,10-5.6,16-3.7,3.2,1.1,6,2.8,8.8,4.6-.4-3-.7-5.8-1.1-8.6,0-1.1-.9-1.1-1.4-1.2-3.3-1.2-6.5-3-9.5-5.3,5.1.4,10,1.6,15.3,1.2.7,5.3,1.2,10.5,1.9,15.8,2.8-13.9,7-27.1,14.4-39.6,7.4,8.1,10.7,17.8,14.1,27.6,1.4-4.4,1.2-10-.7-16-1.1-3-2.1-6-3.9-8.8-.2-.4-.5-.7,0-1.1h0c8.4,4.2,16.9,8.4,26,12.1-4.7,3.9-9.3,7.6-14.6,11.1,5.8.2,11.1-1.1,16.4-1.9,1.8,5.6,4.2,10.7,6.3,16,.4-4-.5-7.9-1.4-11.8-3.7-16.9-10.9-32.2-21.6-45.9-3.5-4.4-7.6-8.3-12.7-10.9,3.2-.4,6.3,0,9.3.7,12.8,3.2,24.1,9.5,34.1,18.1,6.5,5.8,12.5,12.1,18.6,18.5.7-1.1,1.4-1.9,2.1-2.8,4.2-4.6,10.7-3.3,12.8,2.6,1.8,5.3,1.4,10.9,1.1,16.4-.4,4.6-1.2,9.1-.2,13.7s3.9,6.2,8.3,4.9c1.6-.5,3-1.2,4.4-2.1,3.3-1.9,6.9-2.3,10.2-.2,4.2,2.5,8.4,2.6,13,1.1,6.3-2.3,12.1-.7,17.2,3,4.2,3,8.8,4.9,14.1,5.1,7.2.4,13.9-1.2,20-4.7.2,0,.4-.4.7,0-2.1,2.3-4.7,3.7-7.7,4.9-10.2,3.9-20,3-29.5-2.5-3-1.8-6.2-3-9.7-2.8-1.8,0-3.5.5-5.3,1.2-4.2,1.9-8.6,1.8-12.7-.4-3.9-1.9-7.4-1.9-10.9.2s-1.9,1.1-3,1.4c-6.2,2.3-10.9-.4-12.7-6.5-1.8-6-1.4-12-.7-17.9.4-3.2.7-6.3.4-9.7,0-.9-.4-1.8-.5-2.5-.5-1.4-1.6-2.3-3.2-2.6s-2.6.5-3.5,1.8c-1.8,2.6-2.5,5.5-2.6,8.4-1.4,19.5.9,38.5,7.6,56.8.5,1.2,1.6,2.5,1.2,4-6.2-8.8-9.3-18.5-11.3-28.7-1.9-10.5-2.8-21.3-1.8-32,.4-3.9-.9-6-3.3-8.6-8.6-9.1-17.2-18.1-28.1-24.8-3.2-1.9-6.3-3.9-9.8-4.9-.2-.4-.5-.5-.9-.4,0,.2.4.4.5.7,12,15.6,18.8,33.6,22,52.9,1.6,9.8,2.1,19.7-.9,29.5-2.3,7.9-6.7,14.6-11.8,20.9-.2.4-.5.7-.9,1.2,7.2,8.8,14.8,17.4,24.3,24.1-10.7-4.9-18.8-12.7-26.4-21.8-19.5,19.7-40.6,37.1-65.6,49.2,23-15.1,43.8-32.9,62.4-53.6-2.8-4.2-5.6-8.4-8.1-13-5.3-9.5-7.9-19.9-9.8-30.4-.7-3.7-2.1-7-4.9-9.7-4.4-4.2-9.8-3-12.1,2.8-1.4,3.9-1.6,7.9-2.5,12-2.6,13.2-3.3,26.9-7.4,39.9-2.8,9.1-7.4,17.6-12.5,25.7-.4.5-.5,1.4-1.6,1.2,6.3-12,10.9-24.3,13.4-37.4,1.6-9,1.1-17.9-3.2-26.4-3.2-6.3-8.8-9.1-15.3-10.4-2.3-.5-4.2,0-5.5,2.3-1.2,1.9-.4,3.9.7,5.5,2.1,3.5,5.3,6.3,7.6,9.7,1.6,2.3,3.2,4.7,3.2,7.7,0,4.4-2.6,7.6-6.9,8.4-3.9.9-7.7,0-11.4-.2-2.1-.2-4.2-.4-6.3-.2-3,0-5.1,1.6-6.2,4.2s-.4,5.1,1.4,7.2c4.2,4.4,9.7,6.5,15.5,7.7-5.5,2.5-17.2-2.6-21.6-9.5-2.3,5.8-6.5,8.8-12.8,8.4-4.6-.4-8.6-3.5-10.4-8.4-4.9,8.3-12.8,9.8-21.6,9.7,4.9-1.1,9.5-3,13.5-6,4-3.2,4.9-7,2.5-10.5-1.2-1.8-3-2.5-5.1-2.6-4.4-.4-8.8.5-13.2.9-2.1,0-4.2,0-6.3-.7-4.4-1.6-6.5-5.6-5.3-10,1.1-4,3.9-6.9,6.5-10,1.4-1.8,3-3.5,4-5.5,1.1-1.8,1.8-3.3.5-5.3-1.2-2.1-3.3-2.6-5.5-2.3-8.1,1.6-14.6,5.8-17.2,15.1s-2.3,18.6,0,27.8c2.6,10.2,6.2,20.2,11.1,29.5.4.7.9,1.4.4,2.3-7.4-11.3-13.5-23.2-16-36.6-1.6-8.4-2.8-16.9-3.9-25.3-1.9-14.2-8.4-26.4-17.6-37.3-1.6-1.8-3.2-3.5-4.7-5.3-.2-.2-.5-.4-1.4-1.2,6.3,28,3.3,53.6-14.4,76.3,9.3,10.9,19.5,20.6,30.2,29.5,10.7,9.1,21.8,17.6,33.6,25-25.5-12.3-47.1-29.7-67-49.9-7.6,9-15.8,17.2-26.9,22,6.7-4,20-17.2,24.6-24.6-5.1-6.2-9.5-12.8-12.1-20.4-3-9-3-18.1-1.9-27.3,2.3-17.8,7.9-34.3,17.4-49.4,1.6-2.6,3.5-5.1,5.6-8.1-7.4,3-13.5,6.9-19.2,11.4-8.1,6.7-15.5,14.1-22.3,22-.7.9-1.2,1.6-1.1,2.6,1.1,6.7.7,13.4.2,19.9-.7,10.9-2.3,21.4-6.5,31.6-1.4,3.7-3.2,7.2-5.5,10.4-.4.5-.5,1.2-1.4.9,4.2-8.6,6.3-17.9,7.7-27.3,1.4-8.6,2.1-17.4,1.9-26.2,0-4-.4-8.1-1.8-12-.2-.5-.4-1.1-.5-1.6-.9-1.9-1.8-3.9-4.4-3.5-2.1.2-3.3,1.9-3.7,4.7-.5,4.7.2,9.3.7,14.1.4,4.7,0,9.3-1.2,13.9-1.8,6-6.3,8.4-12.5,6.3-1.6-.5-3-1.2-4.4-1.9-2.8-1.4-5.6-1.6-8.3-.2-4.9,2.5-9.8,2.6-15.1.5-4.2-1.8-8.6-1.2-12.7,1.2-5.8,3.5-12,5.8-18.8,5.6-7.2,0-13.9-2.1-19.5-7-.2-.2-.4-.2-.5,0v-.5l1.4-.4.3.9ZM156,151.4c.2,0,.4.4.7.4,0-.4,0-.7-.4-.9-2.5-4.6-5.8-8.6-8.6-13.2-1.8,4.2-3.3,7.9-5.1,12,4.9-1.4,9.3-.9,13.4,1.8h0ZM291.7,81.4c-.2-.2-.4-.5-.7,0,0,0,.2.2.4.4,0,.7.2,1.6-.7,1.9-.5-.4.2-1.2-.9-1.6-.4,1.2-.5,2.6-2.1,3-.5-.9-.5-1.8-.4-2.8-1.4.9,0,2.5-1.2,3.2-1.4-.5,0-2.1-1.2-2.6-1.1.7.4,1.8-.4,2.5-.7,0-.7-1.1-1.4-.7.4,1.1.5,2.1-.5,3-.5-.9,0-2.1-1.1-3.2,0,1.4-.7,2.1-1.4,2.6.7,2.5,2.5,4,3.5,6,3-.5,1.1-4.7,3.9-5.5.9.7.2,1.8,1.2,2.1,1.6-.7,1.6-2.6,2.6-3.9.9.2,0,1.2,1.2,1.6,1.9-3.5,5.6-1.4,8.6-1.9.9,3.5,3.3-1.1,5.1.9s3.7-1.1,5.8-.9c-2.8-.2-4.4-2.3-6.5-3.5-1.6-1.1-3.5-1.6-5.3-1.8-1.6-.4-3.7-.5-4,2.1-1.1-1.2-2.1-1.2-3.2,0,0-.7-.4-1.1-.4-1.4-.4,0-.4,1.1-1.1.5h.2ZM221.9,142.9c-6.3-4.9-10.4-11.6-13.2-19.2-4.9,4.6-10.4,8.3-16,12.1,1.9,3.5,3.2,7,3.7,10.9,3.9-.5,7.6-.7,11.3-1.6-3.3,2.6-7.2,4.6-11.1,6.2,0,3.2-.7,6.2-1.4,9.5,4-2.6,7.9-4.7,12.3-5.8,4.6-.9,8.8-.5,11.8,3.7,3,4.2,1.9,8.1-.5,12-1.6,2.6-3.5,4.7-5.5,7-1.4,1.8-2.8,3.7-3.5,5.8-1.1,3.2.4,5.3,3.7,5.5,3.3,0,6.5-.5,9.8-.9,6.5-.5,12.8,0,16.7,6.3,2.3-4.7,6-7.4,11.1-7.4s9,2.6,11.3,7.6c1.4-3,3.7-4.9,6.7-5.8,3.2-1.1,6.5-1.2,9.7-.9,3.3.5,6.7,1.1,10,.9,3.3,0,4.7-2.3,3.7-5.3-.7-1.9-1.8-3.9-3.2-5.5-3-3.7-6.2-7.2-9.1-11.1-3-3.7-3.5-7.9-1.9-12.5.9-2.8,2.1-5.8,3.2-8.6,1.4-3.9,2.3-7.6,1.4-11.6-.2-1.1,0-1.8.7-2.6,1.9-2.5,3.7-5.1,4.7-8.1.4-.9.7-2.3-.4-2.6-1.9-.5-3.2-1.1-1.8-3.3-1.6-.4-1.1,1.9-2.6,1.6,0-1.2.4-2.3.5-3.3v-.5c-.2,0-.4,0-.4.4-.9.5-.9,1.9-2.5,2.6,1.1-2.3,3.2-4,1.1-6.5-.7-.4-1.1,1.1-1.8,1.1-.4-1.1.5-1.4.7-1.9,0-.2.4-.5,0-.7,0,0-.4.2-.5.4-.9-.5-1.9-1.1-2.5-1.8-.5-1.1-.7-2.3-.9-3.5-.9-.2-1.2,1.4-2.1.4.5-.5,1.2-.9,1.6-1.4,1.9-3.2,4.7-4,8.4-3.3,1.6.4,2.3-.7,1.6-2.5-1.9.4-3.9.4-5.6,1.4,0-.9-.4-1.6-.2-2.1.7-2.5,1.9-4.9-1.4-6.7.5-3.3-1.8-1.2-2.6-1.4-.9-1.8,0-2.3,1.9-2.5-1.8-.2-.9-2.1-1.9-2.6-.5.5,0,1.6-1.1,1.9-.4-.9-.5-1.8-.5-2.8-.4,1.6-2.1,2.5-1.6,4.4-1.2-.7-2.1-1.2-1.9-2.5,0-1.4.2-2.3-.5-3.9-.9-1.9-1.9-4.6-1.6-6.7.4-2.1,0-3.3-1.6-4.2.5-.2.7-.4,1.1-.5-1.4-1.8-3.9-1.8-5.8-3.5.4,1.1-.2,1.4-.4,1.6-2.6-2.5-5.3-4.9-8.1-7.6-.5,2.1.5,3.7.5,5.6.9-1.1-.2-2.3,1.1-3.3-.5,3.3,1.1,4.9,4,4.7,0,1.2-1.6.9-1.4,1.9,2.5,1.2,2.5,2.3,0,4-.5-.4-.5-1.2-.5-1.2-1.8,0-1.1,1.2-1.6,1.6-1.6.2-3,0-4.2-.9-3.2-2.5-6.2-5.1-9-7.9s-1.4-1.8-2.8-1.4c0,.9.5,1.8,0,2.8-1.2,0-2.3.4-2.8,1.4,3.5.7,5.6,2.6,6,6.7.7-1.8,0-3.3,1.6-4.2,1.1,1.2,0,3.2,1.4,4.4.5-.9-.4-1.8.4-2.6.4.9.7,1.8.9,2.6.7,0,1.1-.9,1.9-.9.7,1.2-.4,2.6.4,4,1.2-.7,2.6-1.1,2.5.7,0,1.6-.5,3.3-.5,4.9-1.4.2-1.1-2.8-2.8-1.2,0-.4-.4-.5-.5-.9-.7-1.8-2.6-2.6-3.3-4.2-1.1,0-.5,1.2-1.6,1.2-.7-2.1-1.4-4.2-2.1-6.5-.5.4-.9.5-1.4.9,0-1.6-.2-3.2-.5-4.6-1.2,0-1.9,1.2-3.2,1.1-.5-.9-1.1-1.9-2.1-2.5-.5.2-.9.7-1.2,1.4.4.5,2.1.7.9,2.3-.7-.9-1.9-.9-3-1.1-1.9-.5-3.9-.7-3.3-3.7.4-1.6-3.2-3-4.7-1.9.5.9,1.8,1.4,1.4,2.6-.7.2-.9-1.2-1.9-.5,2.5,3.3,6,5.1,9.8,6.3-1.2.5-2.6,0-3.7.9-.4,1.4,1.1,1.8,1.4,2.6.5,1.1.7,2.3.9,3.3v3c-1.2-2.3-.7-4.9-2.5-7.6-.2,1.9.5,4.4-.7,4.4-1.8,0-1.6,1.4-1.6,1.9,0,1.2-.7,1.9-1.6,2.6-.5.2-.5.7-.7,1.1-1.1,3.5-1.4,6.9-.5,10.5,2.1,0,2.5,1.8,3.2,3.2.5,1.4.5,3.5,1.4,4,2.1,1.2,2.5,3.3,3.5,5.1,1.4,2.1,1.6,4.7,3.3,6.9.7-2.5-1.6-4.2-1.1-6.5,3.2,5.3,7.7,9.8,8.4,16.5-.9-.7-.9-1.8-1.8-2.1-.4.4,0,1.1-.7,1.2-1.2-3.3-1.8-7-3.9-10,0,1.9,0,4,.5,5.6,0,1.1-1.2,0-1.2.9.7,1.2,1.2,2.3.7,4.4-.5-2.5-2.3-3.5-3-5.6,0,.9,0,1.4-.2,2.1-1.2-1.4-1.2-3.2-1.6-4.7-.4-1.4-1.1-2.5-2.6-2.3,0-2.1-2.5-2.8-3-4.7-.4,2.5.7,4,2.6,5.3.2,1.8,1.8,3.7-.2,5.3-1.4-1.8-.4-5.1-3.2-6.5-1.1,3.2,0,5.6.9,8.3,0,.2.2.5-.4.7-1.1-.7,0-2.5-1.8-3.2.5,2.8-.7,5.3-1.1,8.1-1.1-1.2-.7-2.6-1.4-3.9-1.1,2.1.7,3.9.7,5.8-.9.2-.5-1.1-1.4-.9.7,2.5-.5,4.7-1.1,7-.7,3,.7,4.9,1.8,7.2l-.4.5.5-.2h.2ZM358.8,202.9c7.2-8.6,12.7-17.8,10.2-29.9-1.6-7.6-4.6-14.4-7.6-21.4-5.3.9-10.4,1.8-15.6,1.1-2.8,18.6,2.5,35,12.8,50.3h.2ZM144.4,203.1c4.2-6.7,7.9-13.7,10.5-20.9,2.1-5.6,3.5-11.4,3.2-17.4-.2-5.5-2.8-9.1-7-10.5-4.4-1.4-8.4-.2-11.3,3.7-5.3,7.7-7,16.5-6,25.7.9,7.6,5.5,13.5,10.5,19.5h.1ZM243.9,198.9c0,4.4,3.3,7.7,7.6,7.7s7.6-3.3,7.6-7.6-3.3-7.6-7.6-7.6-7.6,3.2-7.7,7.4h.2,0ZM144,134.5c-.9-.7-1.6-1.4-2.1-2.1s-1.1-1.6-1.6-2.6c-4.6,10.7-7.6,21.6-8.1,33.2,3.7-9.7,8.4-18.6,11.8-28.5h0ZM321.2,146.5c4.9-1.8,9.1-1.9,13.9.5-2.1-5.8-4.6-10.9-7.7-16.2-2.8,4.9-4,10.2-6.2,15.5v.2h0ZM150.5,135.2c2.6,3.9,5.1,7.6,7.7,11.4-.4-6.3-1.1-12-2.6-17.8-.4,3.2-2.3,5.1-5.3,6.3h.2ZM343.9,132.8c1.9,3.9,2.3,7.6,3,11.3,2.8-1.9,5.3-3.9,7.6-6.3-3.5-1.6-6.7-3.2-10.5-4.9h-.1ZM190.2,162.8c2.1-7.9,2.3-15.3-1.2-22.9-.7,7.7,0,15.1,1.2,22.9ZM148.1,131.7c2.1,0,3.9-1.4,3.9-3s-1.9-3.2-4-3.2-3.9,1.6-4,3c0,1.6,1.9,3.2,4,3.2h.2,0ZM217.9,132.8c-1.1-3.3-1.1-6.7-1.8-9.8-.9-3.2-.9-6.7-2.6-10.2-1.1,7.6,1.4,13.9,4.4,20h0ZM240.9,55.9c1.4,2.3,3.5,1.8,5.6,1.6,1.9,0,3.2,2.5,5.3,1.6.7,1.4,1.2,2.6,1.8,3.9.2-.2.5-.2.5-.4.4-2.6-1.2-4.6-4.6-6.2-2.8-1.4-5.6-1.4-8.8-.5h.2ZM213.5,62.4c.5-1.8,2.5-3.3,1.4-5.6-1.9,1.8-1.6,3.7-1.4,5.6ZM200.8,89.9c2.3-2.3-.7-3.7-.4-5.6-.5,1.8-1.4,3.7.4,5.6ZM211.7,41.7c.4,2.1.7,3.5.5,5.1,1.9-.7,1.9-2.1-.5-5.1ZM205.9,57.9c-1.9,1.4-1.8,3.3-1.4,5.1.9-1.4,2.1-2.8,1.4-5.1ZM247.2,67c1.2.9,1.9.5,2.5,0,.5-.7.5-1.4-.5-2.1,0,1.2-.5,2.1-2.1,2.3l.2-.2h0ZM295.4,81.6c.2-.4.4-.5.4-.7v-.4s-.4.2-.4.4c0,0,0,.4.2.7h-.2ZM241.2,63.3c-.4-.2-.4-.4-.5-.5h-.4c-.2.4,0,.4.2.5h.7Z"/>
  <path class="cls-2" d="M336.5,124.8h-.4.4Z"/>
  <path class="cls-1" d="M260,109c.5-3.7.9-7.4,0-11.1,1.8,3,.9,6.5,1.4,9.8,1.1-.9.7-1.8.7-2.6,0-1.8,0-3.3,1.2-4.9,1.8-2.5,2.3-5.6,2.1-8.8,0-.9-.4-1.9.9-2.8.5,1.8-.5,3.3,0,4.9.9-.5,0-1.4.5-2.1,1.6,1.4.5,8.1-1.4,10,0-.2-.4-.5-.5-.7-1.2,3,0,6-.5,9.3-1.8-1.1-1.1-2.8-1.6-4-.5,2.3-1.9,4.2-1.6,6.9-2.1-.7-.4-3-1.9-3.7h0l.7-.2h0Z"/>
  <path class="cls-1" d="M253.4,105.3c-.4,1.1-.4,2.3-.4,3.2,0,1.8-1.6,1.6-2.1,2.6-.4.5-1.1,0-1.4-.7-.4-.9-.5-1.8-.9-3,1.4.5.9,2.3,2.5,2.6-.4-1.9.9-4-1.8-5.1-.2,0-.4-.5-.4-.9.2-2.6-1.6-4.6-2.5-6.9-.5-1.2,0-2.1.5-3.5.4,1.8,1.6,2.5,2.6,3.3,1.9,1.6,2.8,4,1.9,6.5,0,.4,0,.7-.4,1.2.7.2,1.2.9,2.1.4h0v.2h.3Z"/>
  <path class="cls-1" d="M246.5,122.7c-1.8-3-3.5-5.8-3.7-9.1-.2-2.3-1.1-4.4-2.6-6.2-.5-.5-1.2-1.1-.7-2.1,1.8,1.1,2.6,3.2,3.7,4.7.9-.9-.4-1.4,0-2.3,1.1,1.1,1.4,2.1,1.1,3.5-.5,1.6-.4,2.5,1.6,2.8,1.4.4,2.5,1.4,3,2.6-.9-.2-2.1,0-2.5-1.4,0-.5-.7-.9-1.4-.5-.5.4-.4.9-.2,1.2.5,1.4,1.1,2.8,1.6,4.2.2.7.9,1.2.5,2.3l-.4.2h0Z"/>
  <path class="cls-1" d="M260,109c-.7.9-1.6.9-2.3.5.2-3.2-1.1-6.3-.4-9.7,1.1.9,1.6,1.8,1.2,2.8-.9,2.1.4,3.9.4,6s.4,1.4,1.2.5h0l-.2-.2h0Z"/>
  <path class="cls-1" d="M256.4,113.4c-1.8-2.5-2.5-4.9-.7-7.6h0c1.2,2.5.9,4.9.7,7.4v.2h0Z"/>
  <path class="cls-1" d="M226.5,90c0-1.6-1.6-3.3.9-4.2.9-.4,1.6.4,1.4,1.2-.2,1.2.7,3.5-2.3,3h0Z"/>
  <path class="cls-1" d="M233.3,77.4c3,1.6,3.3,5.1,5.8,7-3-1.1-5.1-3.7-5.8-7Z"/>
  <path class="cls-1" d="M272.2,106.9c1.8-2.6,2.1-5.6,3.7-8.1.9,1.2,0,2.3-.9,3-1.1,1.1.7,1.8,0,2.8s-1.4,1.8-2.8,2.3h0Z"/>
  <path class="cls-1" d="M253.4,105.5c0-1.1,0-2.3-.2-3.2-.5-1.4.4-1.6,1.1-2.1,1.1,1.8,1.1,2.5-.9,5.3h0Z"/>
  <path class="cls-1" d="M229.8,86.5c.7.7,2.3,0,2.3,1.6s-.5.9-1.1.7c-.9-.4-2.5-.5-1.2-2.3h0Z"/>
  <path class="cls-1" d="M239.7,82.3c-1.6-.9-1.8-2.1-1.8-3.9,1.9.5,1.1,2.6,2.1,3.5l-.4.4h0Z"/>
  <path class="cls-1" d="M235.6,103.4c0,1.9,1.6,2.5,1.6,3.9-2.3-1.2-2.8-1.9-1.6-3.9Z"/>
  <path class="cls-1" d="M255.5,85.5c-.5-1.2-.4-2.5-1.8-3,1.2.9,1.8,1.9,1.8,3Z"/>
  <path class="cls-1" d="M222.2,142.4c.4.2.4.5.4.9-.2,0-.4-.4-.7-.4l.4-.5h0Z"/>
  <path class="cls-1" d="M240.9,82.5c-.5.9-.9.2-1.2-.2l.4-.4c.4.2.7.4.9.5h0Z"/>
  <path class="cls-2" d="M241.1,83.2h0v-.4h0v.4Z"/>
  <path class="cls-1" d="M240.9,82.5c0,.2,0,.4.2.5h0c-.2,0-.5.2-.5-.2l.4-.4h0Z"/>
</svg>