<?xml version="1.0" encoding="UTF-8"?>
<svg id="Calque_1" data-name="Calque 1" xmlns="http://www.w3.org/2000/svg" version="1.1" viewBox="0 0 500 300">
  <defs>
    <style>
      .cls-1 {
        fill: #75683b;
        stroke-width: 0px;
      }
    </style>
  </defs>
  <path class="cls-1" d="M332,228.3c5.9-4.3,8.1-10.2,7.7-17.4-.3-7-4.9-10.2-11.1-7.3-.2-.2-.3-.4-.4-.5,2-1,3.9-2.8,5.8-3,7.4-.6,12.2-4.4,13.9-11.5,0-.4.2-.9.6-1.4.7,5.7,3.2,10.7,7.9,13.5,4.4,2.6,9.6,3.7,14.5,5.3,1.2.4,2.5.5,3.7.7,3.9.6,5.8-.7,6.5-4.6,1.3-8,2.4-16.1,3.6-24.1,1.3-9.7,2.6-19.4,3.9-29.1,0-.4-.2-.9-.4-1.9-2.7,1.2-5.4,2.2-7.7,3.4-5.8,3.2-11.5,6.7-17.2,10.2-5.1,3.1-10.3,6.4-15,10.1-4.3,3.3-8.5,6.9-9.4,13.1-.2,1.3-2.6,2.2-3.3,3.7-1.1,2.3-1.5,4.9-3.1,7.5.3-3.9.6-7.6.9-11.5.2-2.1,1.3-4.8.4-6.2-2.2-3.7-5.4-6.4-10.2-6.1-5.9.4-7.6,1.3-8.6,7.2-1,5.3-1,10.8-1.3,16.2,0,1.5,0,3.1,0,5.6-2.7-9.2-1.3-17.4.4-26.4-4.3,2.5-8.7,3-11.1,7-1,1.6-2.2,3.1-3.3,4.6-1.7,2.1-2.2,3.9,1.3,5.1-1.6.4-2.8.7-3.3.9-1.6-.6-3-1.7-3.9-1.4-4.5,1.6-4.1,5.8-4.8,9.9,2.2.3,4.3.5,6.8.8v-7.8h.8c0,2.5.3,4.9.4,7.6,1.3.2,2.2.4,3.3.4v.5c-3.5.2-7,.4-10.2.6.6,4,1.2,7.2,1.8,10.5-.4.2-.9.3-1.3.4.5-4.4-.8-7.5-4.7-9.6-4-2.2-8-2.4-9.7.6-2,3.7-2.2,9.3,1.8,11.4,2.4,1.3,4.9,2.8,7,4.5,1,.8,1.5,2.2,1.8,3.7-3.2-4.9-8.7-6-13.4-8.2-4.4-2-9.2,0-12.2,3.9-1.5,2-3.8,3.3-5.3,5.2-2.4,2.9-4.5,6-6.7,9-3.1,4-2.6,8,1,11.8,7.8,8.2,16,16.1,23,24.9,5.9,7.5,9.4,16.5,12,25.6,0,.4,0,.9-.6,1.7-8.9-21.7-23.5-38.9-41.1-54.5-7.6,9.2-15.1,17.5-21.7,26.6-2.7,3.7-3.6,8.8-5.2,13.3-.5,1.4-.8,3-1.5,4.3.4-9.9,3.1-19,9.4-26.8,4.8-5.9,9.2-12.1,13.9-18.2,1.6-2.2,1.4-3.5-.5-5.4-5.8-5.2-11-11.2-17.2-15.8-4.8-3.5-10.7-5.8-16.4-7.8-1.4-.5-4.8,1.3-5.8,3-3.9,6.1-4.2,12.9-2.3,19.8.3,1.1.4,2.2.3,3.4-3.7-6.4-3.9-13.1-1.6-20,1.2-3.5,2.7-6.8,3.7-10.3,1.4-4.8-.8-7.7-5.9-8.7-.5,0-.8-1.4-1.6-3.1-2.2,2.4-4,4.5-5.8,6.5-1.2-2.4,1.5-6.8,5-7.9.9-.3,2.3-1,2.4-1.7,1.3-5.5,3-11-.5-16.3-3.1-4.9-5.9-10-8.7-15.1-1.3-2.3-3.7-4.9-8.1-3.7-6.4,1.7-12.6,4.1-16.5,9.1-2.6,3.2-4.7,7.9-3.5,13.2,2.6,12.4,5.8,24.5,11.7,35.7.4.7.4,1.6.4,2.5-.4.2-.8.3-1.3.4-3.3-8.2-6.7-16.4-9.9-24.6-1.6-4.1-2.7-8.5-4.6-12.4-.7-1.4-3.1-2.2-4.8-3-.8-.4-2,0-3.1-.5,1.4-.4,2.9-.9,4.3-1.3-2.8-7.7-13.9-17.4-18.3-16.7-2.1-1.9-3.5-3.3-4.9-4.7-.4.2-.7.4-1.1.5v26.7h-1.6v-24.9c0-3-.6-4.9-3.6-6.4-6.5-3.1-12.8-6.5-20.1-10.2,0,7.1-.2,13.2,0,19.4.3,7.4.8,14.7,1.3,22,.4,4.4,1,8.8,1.4,13.2.4,3.9,2.8,5.8,6.2,5.8,9.1.4,17.5-2,24.9-7.5,1.3-.9,1.8-2.7,2.8-4,1.1-1.5,2.2-3,3.4-4.4l.8.6c-.5.7-1.1,1.4-1.5,2.2-2.5,3.7-1.2,7.4,3.2,8.2,2.4.4,4.9,0,8.1,0-5.4,4.1-10.3,8.9-9.4,15.6.8,6.8,6.5,10.1,12.9,11.9-7.5-.4-12.2,4.2-12.3,11.8,0,3.1-.6,6.2-1.5,9.4,0-1.3-.2-2.5-.4-3.8-.6-3.7-1.3-7.4-2-11,0-.3-.7-.5-1.1-.7-10.3-4.1-20.7-7-31.9-6.7-1.9,0-3.3.5-3.1,2.8,1.2,8.2,2.3,16.4,7.1,23.5.8,1.3,1.9,2.3,3.1,3.3,4.6,4,8.9,2.5,10.4-3.3.3-1.1.6-2.2,1.2-4.3.7,5.3,0,9.2-4,11.5-6.8,4.1-9,10.5-9.2,18,0,4.6-1.9,8.3-4.7,9.9-.2-.4-.6-1.1-.4-1.3,5.5-6.8,5-10.1-1.6-16.6-3.3-3.2-7.1-4.2-11.2-3.1-1.8.5-3.1,2.8-4.8,4-1.6,1.2-3.5,2-5.5,3.1-.7-10-9.1-9-15.6-11.2.5-.2.8-.4,1.2-.4,4.8,0,7.5-2.4,9.9-6.4,5-8.3,8.1-16.9,7.9-26.6,0-4-1.4-5.2-5.1-4-4.3,1.3-8.5,3.2-12.8,4.9-3.9,1.4-7.5,3.1-10.1,6.7-1.9,2.5-1.5,4.3.2,6.3,1.5,1.7,3.3,3.1,4.9,4.8.3-.3.5-.6.7-.9,0-.2,0-.4-.2-.6-4.8,2-6.7-1-8.4-4.7-2.2-5.1-6-7.5-11.9-6.6-2.9.4-6,0-9-.6-1.3-.3-2.4-1.8-3.4-3.2,3.5,1.5,6.7,3.3,10,0,6-6.6,9.4-15.8-.5-22.9-1,.5-2.1,1.1-3.1,1.7-.3-.2-.5-.4-.8-.6,2.2-1,4.3-2.7,6.6-2.8,3.7-.3,7-2.4,7.8-6.2.4-2.3.6-4.8.9-7.2.7-5.2,1.6-5.9,7.6-6.2-.5.4-.8.7-1.2.9-5.4,2.2-6.3,5.1-3.3,10.3,5.7,9.9,16.1,11.4,25.7,10.1,4.2-.6,6.2-3.5,6.2-7.9,0-12.1-.4-24.2-.6-36.3v-20.3c-2.2-.2-3.8-.4-5.2-.4v-.4c1.3-.3,2.7-.6,4.4-1-.4-5.5-1-10.9-1.3-16.3-.6-12.6-1.1-25.2-1.9-37.7-.2-2.4-.8-5.5-2.4-7.1-2.2-2.2-6.2-1.1-8.4,2.4-3.4,5.5-6.2,11.2-9.4,16.8-3.8,6.6-7.5,13.3-11.7,19.6-2.2,3.4-6.4,2.3-9.9,2.2-2.5,0-5.1-.3-7.6-.4v1c.9,0,1.8.4,2.7.3,3.4-.6,6.7-1.3,10.1-2.1,3.7-.8,6-3.4,6.7-6.7,1.5-6.5,2.7-13.1,3.1-19.7.2-4-1.3-8.2-5.2-10.7-.5-.4-1.2-1.5-1-2.2,1.3-5,3.1-10,4.2-15.1,1.6-7.7.4-14.7-6.7-19.6-.4-.3-.6-.7-1-1.2,1.4-3,4-2.2,6-1.5,6.5,2.4,13,5.1,19.3,7.8,1,.4,1.9.9,3.2,1.6-2.3-5.9-11.6-10.3-26-12.3,1-2.1,2-4,3-6,2.7-5.9-1-10.3-3.7-14.8-2.2-3.7-5-7-8.1-10.1-2-2.1-4.8-3.5-7-5.8,3.5,1,7.2,1.7,10.5,3.1,7.9,3.4,16.2,6.2,22.2,12.8,6.7,7.3,13.1,14.8,19.4,22.4,13.6,16.2,24.3,34.4,35.1,52.5.7,1.3,1.7,2.4,3,4,1.3-1.8,2.3-3.2,3.2-4.8,5.1-8.5,10.3-16.9,15.2-25.5,1.8-3.1,2-6,0-9.4-2.6-4.5-2.2-8.3,1.1-14.1-.3,2.9-.6,4.9-.6,6.8,0,6.4,2.7,8.1,8.4,5.3.5-.3,1.1-.4,1.8-.7-1.6-2-3.1-3.9-4.8-6,.9,0,1.2-.3,1.3-.2,5.2,5.4,7.4,5.4,13,0,1.4-1.3,3.1-2.4,5.2-3.1-2.8,3.5-5.6,6.9-8.4,10.5,12,9.6,18.3,22.2,25.2,34.5,3,5.3,6.4,10.3,9.6,15.5.4,0,.9,0,1.4.2.5-1.6,1.6-3.2,1.6-4.9,0-7.3-4.9-12.2-8.7-17.7-1.9-2.7-3.2-5.7-4.9-8.5.3-.2.6-.4.9-.5,4,5.2,7.9,10.5,12.1,15.6,5.7,6.9,8.4,15.3,12.1,23.2,3.6,7.6,6.7,15.6,13.6,21,.5.4,1.2,1.2,1.8,1.3,8.4,1,16.5.2,24.4-3.1.5-.3,1-2.6.5-3.1-1.3-1.6-3.1-2.7-4.8-4.5,1.8.7,4,1,5.4,2.2,2.7,2.2,5,2.5,8.3,1.3,2.3-.9,5-.8,7.7-.4-2.9,1.3-5.8,2.7-9.5,4.5,3.1,2.2,5.4,4.1,8,5.5,2.2,1.1,4.1.4,6-1.7,7.3-8,11.3-17.7,15.6-27.4,1.3-2.9,2.8-5.7,4.2-8.5.3.3.5.5.8.8v10.2c2.8-4.9,2.3-8.7,1.3-12-2.5-7-4.2-14.3-6.2-21.4,0-.3.3-.6.6-1.3,1.6,4.4,2.9,8.5,4.7,12.5,1.3,2.7,3,5.3,4.9,7.5,2.9,3.1,5.6,3.3,9.2,1,4.4-3,8.6-6.1,13-9.3,3.1-2.3,4-5.4,3.3-9.3-1-5.4-1.6-10.9-2.5-16.3.4,0,.6-.2,1-.3,1.6,6.6,3.1,13.1,4.9,20.1,3.3-.4,5.3-3.1,7.6-5.2,4.2-3.8,6-8.9,7.4-14.3.9-3.4,2.2-6.7,3.9-9.8,2-3.7,0-8.3-4.3-8.9-1.5-.2-3.1,0-4.6-.2-1.8-.4-3.4-1-5.6-1.7,2.4-3.7,4.9-1.6,6.9-1.3,3.4.5,6.8,1.9,10.3,2,9.8.3,19.6,0,29.4.8-9.4,3.9-19.2-.5-29,.7.3.7.3,1.3.5,1.3,5.9,2.3,10.3,7.1,15.5,10.5,1.6,1.1,4,.9,6.1,1.1.9,0,1.9-.4,2.8-.7.3.4.5.7.8,1.1-.4,0-1,.2-1.4.4-6,3.4-8.2,6.7-6.4,13.3,2.1,7.3,5.5,14.1,8.5,21,.5,1.2,1.8,2.1,3.1,3.5,4.9-4.7,9.9-9.1,14.3-13.9,9.5-10.3,18.8-20.7,28.2-31,7.8-8.6,15.6-17.4,23.6-25.9,2.5-2.6,5.8-4.5,9-6.6,6.5-4.3,13-8.6,19.6-13,.5-.4,1.3-.4,1.9-.4.3.4.5.7.7,1.2-1.7,1.3-3.3,3.1-5.3,3.9-5.9,2.1-9.7,6.5-13.7,11.1-5.6,6.6-7.1,13.4-3.9,21.3,1.2,2.8-1.3,2.9-2.8,3.4-9.1,3.5-17.2,8.5-23.7,15.7.2.3.4.5.4.8,2.8-1.6,5.5-3.2,8.3-4.9,4.5-2.7,8.9-5.5,13.4-8,1.2-.6,2.7-.7,5.3-1.4-5.8,8.3-9.4,15.8-4.3,25.5-9.2-1-18.1-1.7-26,3.7,1.3-.2,2.7-.4,4-.4,6.6-.4,13.1-1,19.7-1s4.4,1.7,1.9,4.9c-1.5,2-4,3.5-4.9,5.8-2.4,5.6-5.6,11.2-6.2,17.1-.9,9.4,3.9,16.9,11.5,22.8-1.1-.3-2.2-.4-3.2-.8-7.1-3.5-12.6-8.5-15.6-16.2-1.9-5-4.6-9.7-7-14.5-.8-1.6-1.9-3.1-2.8-4.6-.7.4-1.5.7-2.2,1.1-2.3,16.1-4.8,32.1-7.1,48.4,2.1.2,3.9.3,6.7.4-1.5.4-2.2.6-2.7.6-3.1,0-4.6,1.3-4.9,4.4-1.5,12.2-3.3,24.4-4.9,36.6-.7,6-1.1,12.1-1.5,18.3-.3,4,1.3,6.7,5.9,7.4,12.2,1.9,21.2-3.6,29-11.9,2-2.2,3-5.7.5-8.8,3.6,1.3,4,4.2,3.2,7.4-1.2,4.8.4,8.5,3.9,11.6,1.1,1,2.9,1.2,4.9,1.9-.5.6-1.3,1.8-2.3,2.6-4,3.3-6,11.4-4,15.6,2.2,4.4,3.7,5.2,8.8,5.4-1.7.6-3.4,1.5-5.2,2-8.1,1.8-11.9,6.1-12.3,14.1,0,1.3-1.3,2.6-2.6,3.8,2.7-3.6.4-6.4-.8-9.6-4.5-11.1-14.2-12.5-24.2-13.5-1.5-.2-3.9,1.2-4.6,2.4-4.1,7.3-.7,25.1,5.7,30.5,1.2,1,2.9,1.4,4.3,2.1,1.1.4,2.1.9,3.1,1.7-8.5-.7-11.2,4.9-13.8,11.2-.7,1.7-2.2,3-3.9,4.9-1.6-8.8-3.5-10.3-12.6-10.4-4.4,0-9,2.2-13.3,3.9-1.3.5-2,2.6-3.6,3.9.3-1.3.4-2.6.8-4,1.6-6-1-12.6-6.3-15.7-3.2-1.9-4.6-4.5-4.3-9.1,1.5,3.1,2.6,6,6.7,5.9,3.5,0,6.7-.9,7.9-4.1,2.7-6.8,5.3-13.7,7.2-20.8,1.2-4.3-.6-5.4-5.2-5.8-8.1-.8-14.3,3.4-20.5,7.4-2.9,1.9-4.6,5.5-6.7,8.2-3.1-12-4.7-13.3-13-12.8,0-.2-.3-.3-.4-.4l.4,1ZM310.3,151.6c.3.3.5.4.8.7-.6.5-1.3,1.1-2,1.8,5.8,1.9,7.6.9,8.3-4.4.4-2.2.9-4.5,1.3-6.7.5-2.5,0-4.1-2.9-5.1-3-1-4.3.6-4.8,2.7-.7,3.6-.6,7.4-.9,11.1h0ZM311.8,116.7c.3.4.4.6.7,1-1.3,1.3-2.8,2.5-4,4-.6.8-1,2.2-.6,3.1.2.6,1.9,1.4,2.5,1.2,3.9-1.5,7.7-3.2,11.4-5.1.6-.4,1-2.1.9-3.1-.6-6.2-1.5-12.4-2.4-20-4.4,4-8.2,7.3-11.8,10.7-3.8,3.6-4,6.7-1.1,11.8,1.4-1.3,2.9-2.4,4.3-3.7h0ZM340.4,114.6c5-2,5.8-6.1,5.7-10.8,0-.3.2-.4.2-.7.8-9.2,1.5-18.3,2.3-27.4-.4-.2-.9-.3-1.3-.4-9.3,12.4-10.3,28-16.3,42.2,3.8-1.2,6.7-2.1,9.6-3-2.5,1.5-5.2,2.9-7.5,4.7-1.3,1-2.5,2.6-2.7,4.1-.3,3.7,0,7.6.3,11.2q.4,6.6,6.9,7.3c.2,0,.4.4.7.9-2.2.2-4.1.4-6.5.5.6,2.1.9,4,1.7,5.7.5,1.2,1.8,2,2.7,2.9.8-1.1,2.2-2.1,2.3-3.2,1.2-5.5,2.1-11,3-16.5,1-5.8,1.8-11.7,2.8-17.7-1.7,0-2.9.2-4,.3ZM218.9,200.1c-.9-.3-1.7-.6-2.6-.9-.7,4.2.9,8,4,9.2v-3.8c1.1.5,2.2,1.1,3.1,1.6-2.3,3.8-2.2,5.6.9,8.9,2.2,2.3,4,4.9,6.2,7.3,4,4.5,7.9,9,12.1,13.9,3.1-5.1,5.7-9.8,8.9-14,5-6.8,5.3-14.2,3.9-22.1h-3.6c-5.6.5-11.2.7-16.7,1.7-3.7.6-7.3,2.4-10.9,3.7.2-.5,0-1.4.4-1.7,1.7-1.3,3.4-2.6,5.3-3.7,2.8-1.6,5.6-3.7,8.6-4.3,4-.8,8.1-.4,12.2-.4,3.5,0,4.8-1.8,4.8-4.9s.2-6.7,0-9.9c0-.9-.4-2.4-1.1-2.6-.9-.3-2.2.2-3.1.7-1.5.9-2.8,2.2-4.1,3.3-1.8,1.6-5.3,1.7-5,5.4,0,.2-.8.5-1.2.4-.3,0-.4-.6-.6-1-1.5-2.2.3-4.1.4-6.2,0,0,.4-.2.8-.4.3.7.5,1.4,1.3,3.2,1.3-3.1,2.7-5.1,2.9-7.3,0-2-.8-4.6-2.2-5.8-2.5-2.1-3.8,1.1-5.5,2.2-.9.6-2,1.2-3.8,2.2.5-2.5.8-3.7,1.1-5-3.1-.4-5,.5-6.4,3.1-2.9,5.9-5.9,11.8-9.1,17.6-1.6,3.1-3,6-1.2,9.4h0ZM159.1,128.8c.2,0,.4-.2.6-.3.5.8,1.1,1.6,1.6,2.3,1.5,1.7,8.3,1.1,9.3-.9,2.9-5.5,5.6-11.1,5.9-17.4.4-5,.4-5.2-4.6-6.4-3.7-.8-4.1-1.2-4.9-3.2,2.7.8,5.8,1.7,9.5,2.9-.4-7.8-3.1-13.8-6.8-19.2-1.3-2-4.3-3.7-6.7-4-3.1-.3-5.6,2-6.6,5.3-.6,2-1.4,4-2.3,6.4-1.3-6.7,1.4-12.1,6.8-14.5,4.1-1.8,5.1-3.4,4-7.7-1.3-5.3-4-9.8-9.6-12-1.2,2-2.3,3.9-3.4,5.9-3.8,6.9-7.5,13.9-6.7,22.2,1.3,14,2.5,28.1,3.9,42.1,0,.7,1.1,1.9,1.7,2,2.7.2,5.5,0,8.3,0,0-1.6-.2-2.7-.3-3.7h.3ZM99.3,90.5v49.6c7.8,2.2,14.9,4.1,21.9,6.1,5-9.9-8.3-44.1-21.9-55.8ZM396.3,93.9c-.4-.2-.7-.4-1.2-.5-7.3,7.6-16.5,13.7-20.3,24.3-3.5,9.8-5.3,20-5,31.2,5.8-1.4,11.1-2.9,16.4-4,1.9-.4,2.3-1.1,2.6-3,1.5-10.4,3.4-20.9,5-31.2.9-5.6,1.7-11.2,2.6-16.8h0ZM358.6,98.9c-2.6,17.2-5.1,33.2-7.6,49.3h3.2c-1.7,1.5-3.1,2.8-4.6,4.1.3.4.4.6.7,1,5.8-1.4,11.6-2.9,17.6-4.3,0-11.2.4-22.2-.2-33.2-.4-6.3-4.2-11.4-9.2-16.9h0ZM135,103.5c-.9.4-1.2.4-1.3.5-9,12.6-11.5,26.5-9.2,41.6,0,.8.5,2,1.1,2.2,4.8,1.4,9.6,2.6,15.3,4.1-.9-6.1-1.6-11.6-2.6-17.1,0-.7-1.7-1.2-1.7-1.2.6-1.9,1.5-3.4,1.5-4.9-.2-4.1-.8-8.4-1.3-12.5-.5-4.2-1.2-8.4-1.8-12.7h0ZM151.8,157c2.4-1.3,4.7-1.7,5.8-3.1,2.6-3.2,4.7-6.9,6.8-10.5,1.1-1.8-1-7.6-3-8-3.8-.9-7.6-1.3-11.9-2,.8,8,1.4,15.3,2.2,23.7ZM266.3,192.3c.4.3.9.5,1.3.8,3.8-1.8,8.5-2.9,10.9-5.8,1.4-1.7,1.4-6.7-.9-9.9,2.5-1.4,1.6-3.1-.6-3.5-2.9-.4-6,.2-8.9.6-.7,0-1.6,1.7-1.6,2.7-.2,5,0,10,0,15h-.2ZM209.3,190.6c3.9-5.8,6.2-10.5,5.6-16.4-.3-2.1-.4-3.4-3.1-2.6-3.1,1-6.3,1.4-10.6,2.4,2.8,5.5,5.3,10.6,8.3,16.5h0ZM177.1,138.6c-.2,2.6-1.3,5.8-.2,6.9,3.4,3.9,7.1,8.2,13.7,5.7v-10.6c-4.5-.6-8.5-1.2-13.5-1.9h0ZM213.1,169.1c.7-10.3-2.6-13.1-12.7-11.2.4,4.6,1,9.3,1.4,13.9,4-1,7.6-1.9,11.2-2.7ZM278.4,161.7c-.7-1.9-1.4-3.6-2.1-5.1.5-.8,1.3-1.9,2.4-3.4-3.7-.6-6.7-1.1-9.6-1.5-.3,0-.6-.3-.7-.2-.7.6-1.8,1.3-2,2.1-.4,1.2,0,2.5,0,3.8,0,5.8,2.2,7.5,7.8,6.1,1.2-.3,2.3-.8,4.2-1.5v-.2ZM241.2,166.2c1.5-1.2,3.1-2.2,4.3-3.4,2.4-2.6,4.7-5.4,6.7-8.3.7-1,.8-3,.3-4-.4-.9-2.2-1.5-3.4-1.4-3.5.3-5.6,3-6.5,7.9.7.2,1.4.4,2.4.6-6.5,4.2-7.4,6.7-3.8,8.6h0ZM199.9,141.7c.3,3.9.5,7.5.7,11,2,.4,3.4.8,4.9,1.2,1.5.4,3,.8,4.7,1.3-1.5-10.9-2.9-12.7-10.3-13.4ZM349.6,69c.4-6.9-1.9-13.1-5.8-15.5-4.1,7.1-1.8,13.7,5.8,15.5ZM300.4,154.2v-12.1c-.4-.3-.9-.4-1.3-.7-2.7,3.1-5.5,6.2-8.5,9.6,3.6,1.2,6.4,2.1,9.9,3.2ZM288.1,148.9c6.2-3.3,7.6-14.1,2.5-19.1-.9,6.7-1.7,13-2.5,19.1ZM189.4,133.5c-1.2-4.5-2.2-8.3-3.2-12.1-.4,0-.7,0-1.1,0-1.7,3.4-3.4,6.8-5.3,10.6,3.1.4,5.7.8,9.5,1.3h0ZM195.3,196.8c4.7,2.5,10.9.6,11.8-3.7-5.9-2.5-8.4-1.8-11.8,3.7ZM307.8,164.5c7.1-.9,8.1-1.9,7.8-8h-6.5c-.4,2.8-.9,5.4-1.3,8ZM289.1,161.8c4.2-2.2,7.6-3.8,10.8-5.4,0-.3,0-.5-.2-.8-3.6-.5-7.3-1-11.4-1.6.3,2.9.4,4.9.8,7.8h0ZM202.2,124.6c-4.1,2.9-3.3,6.3-3.1,9.9,1.7,0,3.2.2,5.2.4-.8-3.6-1.4-6.6-2.2-10.3h0ZM295.9,187.1c0-5.3-2.6-8.8-6.6-9.5,0,4.7,2.2,7.6,6.6,9.5ZM278.1,137.3c-2.7,2-4.5,3.4-6.8,5.2,2.4,1.3,4.4,2.4,6.8,3.8v-9ZM153.9,172.7c2.2-6.1,1.5-11.6-1.7-13.9.5,4.5,1.1,8.8,1.7,13.9ZM299.6,159.1c-4.6,3.1-5.4,6.1-2.6,11.1.9-4,1.7-7.2,2.6-11.1ZM219.2,148.6c0,7.5.4,8,5.5,7.6-2-2.7-3.8-5.1-5.5-7.6ZM227,158.5c-2.5-.2-4.1-.3-6.4-.4.9,2.3,1.6,4,2.5,6.3,1.3-2.1,2.3-3.5,3.8-5.8h0ZM226.3,145.3c1.7,2.7,2.8,4.5,4.2,6.8.7-2.1,1.3-3.5,1.9-5.3-1.9-.4-3.5-.9-6.1-1.5h0ZM319.3,161.1c4.9-.2,4-2.6,2.7-5.3-.7,1.5-1.5,3.1-2.7,5.3ZM296,122.8c.4-.4.8-1,1.2-1.4l-4.9-3.8-1,1.3c1.6,1.3,3.2,2.7,4.8,4h0Z"/>
  <path class="cls-1" d="M139,187.7c.4-.4.9-.7,1.3-1.2.2.2.4.4.5.6-.4.4-.6.7-1,1.1-.3-.2-.5-.4-.8-.6h0Z"/>
  <path class="cls-1" d="M36,208.7c-.5.2-1,.4-1.5.4.3-.4.4-.7.7-1.1.3.2.5.4.8.6Z"/>
  <polygon class="cls-1" points="450.5 230.9 450.4 230.5 450.2 230.9 450.5 230.9"/>
  <path class="cls-1" d="M287.3,101c.4-.2.7-.3,1.1-.4,0,.4-.2.8-.3,1.3-.3-.3-.5-.5-.8-.8h0Z"/>
  <path class="cls-1" d="M141.3,186.1c.3,0,.5-.3.8-.4-.2.3-.3.5-.4.7-.2-.2-.3-.3-.4-.4h0Z"/>
  <path class="cls-1" d="M328.6,203.6h-1.2c.3-.2.4-.4.7-.6.2.2.4.4.4.5h0Z"/>
  <path class="cls-1" d="M332.4,228.8c-.4,0-.7,0-1.1,0,.2-.2.4-.4.6-.5l.4.4Z"/>
  <path class="cls-1" d="M140.4,186.6c.3-.2.6-.4.9-.5,0,.2.3.3.4.4-.3.3-.5.5-.7.8-.2-.2-.4-.4-.5-.6h0Z"/>
  <path class="cls-1" d="M158.5,126.5c.4.4.6.6.6.9s-.3.5-.4.8c-.2-.2-.4-.4-.4-.5,0-.3,0-.6.2-1.2h0Z"/>
  <path class="cls-1" d="M223.4,206.3v-.9h.8c-.3.3-.5.5-.8.8h0Z"/>
  <path class="cls-1" d="M219.6,202.5c-.3-.8-.5-1.6-.8-2.4.3.8.5,1.6.8,2.4Z"/>
  <path class="cls-1" d="M220.3,204.8c-.3-.8-.5-1.6-.8-2.4.3.8.5,1.6.8,2.4Z"/>
  <path class="cls-1" d="M311.8,116.7c.4-.2.7-.4,1.1-.6,0,.5-.3,1.1-.4,1.6-.3-.4-.4-.6-.7-1h0Z"/>
  <path class="cls-1" d="M311.3,151c.3-.5.4-1.1.7-1.6l1,.9c-.4.5-.8,1-1.3,1.5-.2-.3-.3-.5-.4-.8Z"/>
  <path class="cls-1" d="M310.3,151.6c.4-.2.6-.4,1-.5.2.3.3.5.4.8,0,.3-.3.4-.5.4-.3-.3-.5-.4-.8-.7h0Z"/>
</svg>