<?xml version="1.0" encoding="UTF-8"?>
<svg id="Calque_1" data-name="Calque 1" xmlns="http://www.w3.org/2000/svg" version="1.1" viewBox="0 0 500 300">
  <defs>
    <style>
      .cls-1 {
        fill: #75683b;
        stroke-width: 0px;
      }
    </style>
  </defs>
  <path class="cls-1" d="M170.4,152.9c-1.4,1.4-2.8,2.8-4.1,4.3-1.7,2-1.4,3.5.7,5,1.2.8,2.5,1.6,3.7,2.4.6.5,1,1.2,1.4,2-4.9-3.5-9.4-1.5-13.9.6-4.7,2.2-7.8,5.9-9.6,10.8-1.1,3.1-3.3,5.3-6.4,7.1,1.9-2.9,3.6-5.4,5.3-8-.2,0-.3-.1-.5-.2-2.8,1.9-5.5,3.8-8.3,5.6-.1-.2-.3-.3-.4-.5,1.6-1.6,3.2-3.2,4.8-4.9.2-.2.3-.3.5-.5-.5,0-1-.1-1.4-.2-4.5,0-8.4,1.5-11.5,4.8-1.6,1.7-2.1,3.8-1.5,6,.1.5,1,.8,1.6,1.2,0,.4,0,.7.1,1.1,3.6,3.3,7.7,1.9,12,.8-5.9,4.5-14.7,2-16-4.3-.7-3.2,1.9-7.6,5.8-9.7,4.8-2.5,9.8-4.7,15.3-5.4,1-.1,2-1.1,2.8-1.8,1.7-1.7,3.3-3.5,5.1-5.3-3.9,1.4-7.8,2.8-11.9,4.3,3.5-2.5,6.8-4.3,9.4-6.9,2.8-2.8,2.7-6.7,2.5-10.5-.2-.1-.3-.3-.5-.4-.7.1-1.5.3-2.2.4.5-1,.7-2.4,1.5-3,3-2.2,1.6-5.1,1.8-8-1,.7-1.7,1.1-2.5,1.6,0-1.1-.1-1.8-.1-2.6.8-.4,1.5-.8,2.3-1.1,0-.2-.2-.4-.3-.6-.5-.1-1-.3-1.8-.5,2-3.2,0-4.3-2.8-4.8,1.6-.5,2.8-.8,4.4-1.3-1.9-.6-3.4-1.1-4.9-1.6,2.2-.4,4.2-.8,4.6-3.2.4-2.6-1.7-3.5-3.5-4.1-.9-.3-2,0-3.4.2-.4-1.1-1.5-1.1-2.9,0-1.1.9-2.3,1.9-3.4,2.8-.2-.1-.3-.3-.5-.4,2.3-5.3,6.7-7,12-7s5.7,2.2,8.3,4.4c.5-.7,1.2-1.6,1.9-2.5.2,0,.3.1.5.2-.8,2.6-1.6,5.2-2.3,7.9.3.2.6.3.9.5,1.5-2.7,3.1-5.3,4.5-8,1.3-2.5,2.5-5,4.6-7,1.9-1.8,3.7-3.8,5.7-6,0-.3,0-1.1-.2-1.8,5.6-3.7,6.9-4.2,10.6-3.7-3.6.4-5.9,2.2-6.6,5.8-.1.7.3,1.6.6,2.8-3.9,4.4-5.2,10-3.6,16.3.4,1.6,1.2,3.3,2.2,4.6,1.4,2,2.1,2,4.5,1v2.8c.3.2.5.3.8.5.5-.8.9-1.6,1.3-2.2.3,1.2.4,3.2.9,3.4,1.2.3,2.6-.4,4.5-.8-3,2.5-5.6,4.8-8.3,7.1-.1-.1-.2-.3-.4-.4.3-1.1.7-2.1,1-3.2-1.8,1.1-3,2-4.3,2.7-2.5,1.4-5.1,2.6-7.8,3.9,3.7,2.5,7,4.8,10.4,7,.5.4,1.3.4,1.9.6,0,.3.3.6.3.8,0,.8-.3,1.5-.4,2.3.6,0,1.2,0,1.8-.1-.2-.8-.4-1.7-.6-2.5,0-.2-.3-.4-.4-.5-.6-2-1.1-4.1-1.5-5.5,1.9,1.8,4.3,3.9,6.6,6,.4.2.7.4,1.1.6,0-.1.2-.2.2-.3-.3-.3-.6-.6-1-.9.7-2.4,1.4-4.9,2.3-8.1-2.1,1.3-3.5,2.2-4.9,3.1l-.4-.4c1.9-1.9,3.7-3.8,5.6-5.7l-.5-.6c-2.8.7-4.9,2.5-6.4,5.2-.3-.2-.5-.5-.8-.7,1.8-2.4,3.3-5.2,5.6-7.1,2.1-1.7,1.6-3.4,1.5-5.3,0-1.9-.9-3.2-2.9-3.7-1.1-.3-2.3-.6-4-1h6.9c-.5-1.4-1.1-2.7-1.7-4.3-.8.2-1.6.3-2.6.6.4-.8.6-1.5,1.1-2.7-1.9.2-3.4.3-4.9.5,3.6-3,5.3-2.9,10.9,1.1,10.2-6.5,17.1-15.5,20.3-27.3.2.1.5.2.7.3-.7,2.7-1.4,5.3-2,7.8,4.1-2,8.2-4,12.8-6.2-.2-.6-.6-1.7-.7-2.8,0-1.6.1-3.2.2-4.7,0-1.3.5-2.8,0-3.8-1.1-2-1.1-3.6,0-5.6.5-.9,0-2.3,0-3.5-.1-1.5-.8-3-.4-4.4.6-2.6.8-4.9-.6-7.4-1.2-2.2-1.6-4.8-2.5-7.2-1.5-4.1-3-8.1-4.6-12.1-.2-.5-.4-1-.8-2,2.9,3.7,5.5,6.9,8,10.1.3.4.6.9,1.1,1.1,5.2,2.1,7,6.9,9.2,11.4-.7.3-1.4.6-2.1.8.1-.8.7-1.9.4-2.4-1.7-2.4-3.5-4.8-5.4-7-.5-.6-1.6-.5-2.1-.7-.3,1.8-.6,3.2-.8,4.7,1.1.6,2.3,1.2,3.5,1.8-.3.9-.5,1.6-.8,2.4,1.2,0,2.1.1,3.2.2-.1.9-.2,1.6-.3,2.2.5-.2,1-.3,1.4-.4.6,1.3,1.3,2.5,1.8,3.6.5-.2.9-.4,1.3-.6.4.9.8,1.8,1.2,2.8-.4,1.9-.3,2.1.9,2.3.2.8.4,1.6.7,2.4.4,1.2.8,2.3,1,2.8.7.2.8.3,1,.3.1,1-.8,2.5,1.2,2.7h0c.7,1.1,1.4,2.3,2,3.4,1-.8,2.6-1.4,2.8-2.4,1.2-5.8,2.5-11.5,3.1-17.4.7-6.2.7-12.5,1.1-18.7,0-.6.1-1.3.5-1.9.4,4.6.6,9.3,1.2,13.9.9,7.2,2,14.4,3.3,21.6.3,1.5.1,3.6,2.5,3.9-1.6,3.6-3.3,7.1-4.9,10.7.1,0,.3,0,.4.1.5-.4,1-.8,1.8-1.4.7-1.6,1.5-3.6,2.4-5.8.2.3.3.6.7,1.3.3-2,.6-3.5.8-4.9.3-.6.7-1.2,1-1.8.1,0,.3-.2.4-.3,2.3-.5,1.5-2.6,2-4,.4-.4,1-.7,1.1-1.2.7-1.8,1.2-3.6,1.8-5.3h0c.6-.2,1.6-.1,1.9-.5,1.2-2.2,2.3-4.4,3.5-6.9-.6,0-1.1.2-1.6.3-.2-.7-.3-1.5-.5-2.2.2,0,.3,0,.5.1.7.2,1.4.3,2.1.5.7-.3,1.4-.6,2.2-.9h0c.6.4,1.3.9,2.3,1.6-.1-2-.2-3.4-.3-4.8,1.8-.6,2.9-1.6,2.1-3.7.7-.3,1.4-.5,2.4-.9-1-.8-.4-3-2.5-1.6,0-.4-.3-.9-.2-1.1,3-3.1,6.1-6.1,9.5-9.4-1,2.1-1.9,4-2.7,5.8-1,2.4-1.8,4.8-2.7,7.2-.8,1.8-1.8,3.5-2.6,5.3-1,2.2-2.1,4.3-2.7,6.6-.3.9.2,2.1.7,3,.9,1.8,1.2,3.4-.2,5-1,1.2-1.2,2.2,0,3.7,1.7,2.3,1.3,3.8-.9,5.7.6,1.4,2.1,3.3,1.6,4.1-1.6,3-.6,5.8-.3,8.8.2,1.9-.2,3.9,0,6,.4,3.5-.5,7.1-.9,10.6v6.1c.3,0,.9.1,1.3-.1,7.1-3.3,8.6-8.8,5.3-15.6-1-2.1-2.8-4-4.2-5.9.1-.1.2-.3.3-.4,1.4.9,2.7,1.7,4.5,2.9-.2-2.6-.4-4.8-.6-7,3.3,9,9.8,15.5,17.1,22.4.1-2.2.2-3.9.3-5.5h.4c.2,1.2.1,2.5.6,3.6.6,1.4,1.6,2.8,2.6,3.9,1,1.1,2.2,1.2,3.6.1,2.4-1.7,5.1-1.7,7.6,0,1.8,1.2,3.2,2.9,2.8,5.8-.5-.9-.7-1.5-1.1-2.1-1.3-2-3.2-2.3-5.1-1.1-2.2,1.4-3.6,5.5-2.7,7.9.2.5.4,1.1.3,1.9-.8-1-1.6-1.9-2.5-2.9-3.6,2.6-4.1,3.9-3,8.2-2.4-.7-4.4-.3-5.8,2.3,2.4,1.3,4.9,2.6,7.2,4,.4.2,2,.2.6,1.5-.2.2.6,2,1.3,2.6,2.6,2.4,5.4,4.7,8,6.9-.3,0-1.2,0-2-.1s-1.6-.5-3-.9c3.2,5.9,7.5,9.2,13.6,10.6-6.4,1.9-11.9,2.4-20.3-5.6-.8,2.6-1.5,4.9-2.4,7.9,0-2.7-.3-4.9,0-7.1.8-5.6-1.8-10.1-4.8-14.6-.2,1-.3,2-.6,3.7-.8-2-1.6-3.3-1.7-4.6-.2-2.5-1.8-3.5-3.8-3.2-1,.2-1.8,1.9-2.6,2.8-.5-.4-1.4-1.2-2.4-1.9-.2,1.3-.6,2.6-.7,3.9-.1,2.3,0,4.6,0,7,2.1-.8,3.5-2.8,4.4-6.1.5.6,1.1,1.2,1.7,1.9.2.1.3.2.5.4-1.6,2.7-3.2,5.4-4.8,8.2,0,0-.7-.2-1.4-.5-.2.6-.5,1.3-.5,1.9.3,3.5.6,7,1.6,10.4-.5,1-1,2.1-1.5,3.1-3-6.3-6.1-12.5-9.1-18.8.2-.1.5-.2.7-.3.7,1.1,1.4,2.2,2.2,3.5.4-1.7-.4-3.3-2.4-5,1.1-.1,1.9-.2,2.6-.3.5-4.2-.5-5.7-4-5.8.5-.5.8-1.4,1.4-1.6,2.5-.9,2.5-2.7,2.3-4.8-2.9.6-4.7,2.6-4.6,5.2,0,.4.6.7,1,1-1,1.2-1.2,2.4-.7,4,.8,2.7.5,5.8,1.6,8.4,1.9,4.6,4.2,9.1,6.7,13.5,1,1.9.9,4.6,3.5,5.4l-.3.3c-.7,0-1.5,0-2.1.3-1.5.7-2.9,1.5-4.3,2.3-.4-1.6-.9-3.2-1.3-4.9-3.7,2-7.3,2.7-10.4-.2,2.9-1.2,5.9-2.5,9.2-3.9-.6-1.6-1.1-3-1.5-4.1-.9.9-1.5,1.8-2.3,2.3-1.3.8-2.8,1.4-4.2,2.2-2.8,1.5-5.5,3.2-8.4,4.5-1.2.5-2.8,0-4.3,0,5.6-1.3,9.8-4.6,13.7-8.1,3.2-2.9,3.8-5.2,1.8-9.3-4.9-10.1-9.6-20.3-14.3-30.4-.7-1.5-1.4-3.1-2.1-4.7-.3,2.2-.3,4.2-.4,6.2-.3,8.2-.8,16.3-1,24.5-.2,8.3,0,16.5,0,24.8s.8,3.3,2.6,3.7c2,.5,4.1.7,6.2.9,5.6.7,11-.1,16.4-1.8,2.6-.8,4.4-3.9,7.7-2.8h0c1.1.5,2.1,1,3.2,1.5,8,4,16.9,4.9,25.5,7.3-3.7.2-7.3.4-11,.7-1.3,0-2.5.2-3.8.3-1.6,0-3.3.1-4.9.2-3,.9-5.9,1.8-8.9,2.7-1.2.4-2.4.8-3.6,1.2-.9-.4-1.8-.8-2.7-1.3-.2,0-.3,0-.5-.1-7.6-3.1-18.9-4.3-25.2-2.7.2.2.3.4.5.6-.3.9-.6,1.8-.9,2.8-.1.4-.3.7-.4,1.1.3.5.6,1.1.9,1.6,0,.3.2.7.2,1,.7,1.6,1.4,3.2,2,4.8.2.3.3.5.5.8.3.4.7.8,1,1.2h0c.6.6,1.2,1.1,1.8,1.6-.2.6-.2,1.3-.5,1.8-.9,1.5-2,3-2.9,4.5l-.6,1.5c-.4.6-.8,1.1-1.1,1.7-.3.4-.5.9-.8,1.3-.4,1.1-.9,2.2-1.3,3.3,0,.1-.2.3-.2.4v.8c-.1.4-.2.9-.4,1.3,0,.2,0,.4-.1.6,0,.3-.1.6-.2.8l-.4,1.8c-.2.7-.3,1.4-.5,2.1-.2,1.3-.3,2.7-.6,3.9-.1.5-.6.8-1,1.3-.5-3.4-1-6.8-1.4-10.1h0c-.2-1.1-.4-2.3-.6-3.4-1-5.3-4.3-9.3-7.5-13.3,4.6-2,5.7-6.1,6.8-10.2.2-1,.4-2.1.6-3.1l-.4-.4c-2.3-.1-4.5-.3-6.8-.4h-8.4c-.9.2-1.7.3-2.6.5h-.5l-2.1.5c-2.8.7-5.6,1.5-8.4,2.2-1-.2-1.9-.4-2.9-.6-1.3-.5-2.6-1-3.8-1.6-1.2-.4-2.3-.8-3.5-1.2-2.7-.8-5.4-1.7-8.2-2.5l-.2.7c2.4.8,4.8,1.6,7.2,2.4-2.3-.4-4.6-.7-6.8-1.3-3.7-.9-7.3-2-11-3,5.1-.5,10.4-1,15.7-1.5.7-.1,1.4-.2,2.1-.3.3,0,.7-.1,1-.2.4-.1.8-.2,1.1-.3h0c0-.1,0,0,0,0,2.3-1.3,4.5-2.6,6.8-3.7.8-.4,1.9-.9,2.7-.7,8.7,2.6,17.7,3.5,26.7,3.7.7,0,1.3-.2,2-.3v-.5c-2.2,0-4.4-.2-6.6-.3v-.4h7v-54.6c-1.3,2.6-2.7,4.9-3.8,7.3-4,8.7-7.8,17.5-12,26.1-1.2,2.4-1.1,3.9.6,5.8,3.4,4,5.8,8.9,11.4,10.5-7.1.8-10.5-4.8-15-8.8-2.1,3.7-3.7,7.4-1.9,11.9.5,0,1.4.3,2.6.5-3.4.4-8.3-.9-11.1-2.9,2.7,0,2.2-2.5,2.8-3.9,1.3-2.9,2-6.1,2.9-9.2.6-.6,1.6-1.1,1.6-1.7,0-2,3-3.1,1.5-5.5,0,0,.6-.4.9-.6.5-.4,1.5-.9,1.4-1.2-.3-1.4-.1-2.1,1.1-3.2.9-.8.7-2.7,1.8-4.1,1.3-1.7,1.4-4.3,2-6.5.2.4.3.7.7,1.5.2-1.8.4-3.1.6-4.5.3.4.5.7.7,1,1.3-3.2,2.6-6.4,3.9-9.5,1.2-3,2.5-5.9,3.8-8.9.7-1.5,1.3-3.1,2-4.6,1-2.2,1.9-4.4,2.9-6.5-.2,0-.4-.2-.7-.3-.4.2-.7.5-.9.6v-4.9c-2.5.6-4.8.6-6.2,1.7-1.3,1-1.7,3.2-2.5,4.9-.5-3.7-1.1-7.3-1.6-10.8.1-.2.2-.4.4-.5,2.5.5,5,1.1,7.9,1.7-5.3-11.1-10.3-21.6-15.3-32-.3,0-.6,0-.8.1-.1.5-.5,1.2-.4,1.6.7,1.9.7,3.6-.7,5.3-.4.5-.2,2,.3,2.8,1.2,1.9,1.4,3.7.5,5.6-.8,1.6-.6,3,.6,4.2-.7,0-1.4.1-2.6.2.4,1.3.7,2.5,1,3.7.3,0,.6-.1.9-.2.2-1.2.4-2.5.6-3.7.2.6.7,1.4.5,1.8-1.2,2.7-.7,5.5-.8,8.3,0,2.2-1.6,4.4.2,6.6.2.3.1.9,0,1.3-1,1.9-2.1,3.8-.3,5.9.1.2,0,.6-.2,1-.2,1.2-.9,2.7-.5,3.7.4.8-.5,3.1,1.8,2.5l.4.4c-1.6,2-3,4.1-3,6.8s-.5,3.6.2,4.6c2.3,3.1-.9,6.3.7,9.3,0,0,.1.1.1.2,0,1.1,0,2.1-.2,3.2-.1,1-.4,2-.6,3-.5,2.7-.2,5.7-2.2,8,0-1.5-.2-2.9-.2-4.4s-.3-2,.2-2.5c1.8-2,.9-3.7-.2-5.7-1.9,1.8-3.7,3.5-5.7,5.4,2.2,2.5,4.1,4.8,6.1,7.1-.4,1.9-.8,3.7-1.3,5.6h-.7c-1.7-2.2-3.4-4.5-5.3-6.5-.3-.3-2,0-2.6.7-3.5,3.4-6.9,7-10.3,10.5-.8.8-1.8,1.6-2.7,2.3-.5-.8-1.2-1.5-1.5-2.3-1-2.1-1.9-4.3-2.8-6.5-.2.1-.5.2-.7.3-.8,7-.8,7.2,3.6,8.9,3.8,2.4,7.8,2.1,12,1.2.2.2.4.5.5.7-5,2.5-10.3,3.1-16.2,1.4.5,1.3.8,2.2.9,2.4-2.3.7-4.6,1.2-6.8,2.1-4.1,1.7-8.2,3.1-11.5,3,3.5-1.5,7.9-3.2,12.3-5.2.7-.3,1.3-1.5,1.4-2.3,0-.7-.7-1.6-1.4-2-3.2-2.1-6.5-4.1-9.7-6.1,0-1.3.2-2.4.3-3.8-1.1.5-1.7.9-2,1-2.3-3.7-4.5-7.4-6.9-10.9-.5-.7-1.8-.9-2.7-1.4,0-.3.1-.6,0-.7-2.2-2-6.2-2.3-8.4-.3-2,1.8-1,4.3-.8,6.8,1.9-.9,3.5-2,5.1-3,.7-.4,1.7-.6,2.5-.9l-.9-.5ZM272.6,147.7c-.5-.7-.9-1.3-1.7-2.3v3c.6-.2,1-.4,1.4-.5.2,1.3.4,2.6.7,3.9.3-.1.6-.2.9-.3-.4-1.3-.9-2.5-1.3-3.8h0ZM276.6,139.6c2.7-1,3.9-2.7,3.3-5.8-.3-1.3,0-2.8,0-4.2,0-2.5-.7-2.9-3-3,0,1.2.5,2.5.2,3.6-.5,1.8-1.1,3.3,0,5.3.4.8-.5,2.4-.8,3.6l-.6.9c.4-.2.7-.3,1.1-.5h-.2ZM171.6,137c-.2-.2-.4-.3-.6-.5,2.7-4.2,2.9-8.4.4-11.5-3.7,5-2.4,10.5-2.5,16.7,1.8-1.8,3-3.1,4.5-4.7h-1.8,0ZM258.2,105.1c-2.7,3.5-1.7,6.9.2,10.3,1.9,3.5,3.7,7,5.5,10.4l-.9.5c-1.9-3.4-3.7-6.7-5.6-10.1l-.8.4c1,2.1,2.2,4.1,3.1,6.2,1.1,2.8,3.6,4.7,3.9,8.1.2,2.7,1.7,5.2,2.8,8.2,1.2-2.2,1-3.1-2.1-10,.1-.1.2-.2.4-.3.7,1,1.5,2,2.1,3.1,2.4,5.1,4.7,10.3,7,15.5.2,0,.5,0,.7-.1,0-2.8-2.8-5.8.5-8-.3-3.7-1.7-7.6-.7-10.6,1.2-3.5-.4-4.6-2.2-6.4-.2-.2-.3-.4-.5-.6,0-.1.2-.2.3-.3.8.3,1.7.7,2.4,1,.5-1.4,1-2.8,1.6-4.4-1.7-1.3-1.4-3-.3-5,.4-.8.3-1.9.2-2.8-.1-3.6-1.3-7.6-.3-10.8,1.2-3.9-2.1-7.8.9-11.3v-5.9c0-.8-.2-1.7-.2-2.5v-5.3c0-1.1.3-2.2.5-3.4-.4-.1-.9-.3-1.3-.4-5.7,11.5-11.4,23-17.1,34.5h-.1ZM212.2,122c-.2,0-.5,0-.7.1.4,3.9.9,7.8,1.2,11.8.4,5.1,3.7,7.6,8.1,9.1,1.1.4,2.4.4,3.5.9,1.7.7,3.1-.8,2.8-1.5-1.5-3.1.2-6.2-.2-9.2-.2-1.7-1-3.2.2-4.9.4-.5.2-1.5.3-2.3-6,2.4-11.3,1.5-15.2-4h0ZM216.7,149c-3.9-5-4.2-5.1-10.6-2.1,2.3,1.2,4.4,2.3,6.3,3.3-2.9,2.9-3.9,3.1-7.2.7-1.8-1.3-3.3-3.2-4.9-4.9,0,0,.9-1.5,1.2-1.4,2.7.4,4.4-1,6.5-3.2-2.6-2.7-5.1-5.4-8.1-8.5-.5,7.9-1,14.8-1.3,21.7,0,.8.5,1.8,1.1,2.4,1.5,1.4,3.2,2.5,4.9,3.9,1.1-2,2.3-4.1,3.5-6.2.3.3.6.7.9,1.2,2.5-2.3,4.9-4.5,7.5-6.8h.2ZM218.2,119.9c2.1,3.3,4.5,5.3,8.2,5.1.3-2.9.9-5.5.2-8.3-.3-1.2.6-2.7,1-4.2-.2-.5-.4-1.2-.7-2-1-3.1,1.8-6.5-.8-9.7-4.5,2.5-7.6,6.5-8.4,11.8-.5,3.3,1.3,5.9,4.2,7.8-1.1-.2-2.1-.3-3.7-.5h0ZM291,137.2c3.9-2.8,7.6-4.4,9.5-8.2-3.4-2.1-6.6-4.1-9.5-5.9v14.1h0ZM207.5,136v-10.1c0-.9-.4-2.4-1-2.6-.8-.3-2.1.2-3,.7-2.3,1.5-3.2,3.6-2.1,5,1.9,2.3,3.9,4.5,6.1,7h0ZM166.7,137.7c-3.9,1.3-4.8,2.6-4.3,6.7,1.5-.7,3-1.3,4.3-1.9v-4.8ZM194.3,167.3v-6.8c-1.6.2-3,.4-5,.7,1.8,2.2,3.2,3.9,5,6.2h0ZM248.5,100.5c.4-.4.9-.8.8-1-1.2-3.1-2.4-6.2-3.7-9.3,0-.1-.6-.2-.9,0-.2.1-.5.6-.5.7,1.3,3.2,2.7,6.4,4.2,9.6h0ZM252.9,105.8c-.2.1-.5.2-.7.3,1.2,6,2.4,8.5,5.2,9.4-1.7-3.6-3.1-6.6-4.5-9.7ZM286.5,133.9v5.6c3.6-1.9,3.7-3.2,0-5.6ZM295.7,139.7c2.3,1.5,4.6,0,5.6-3.5-2,1.2-3.7,2.3-5.6,3.5ZM289.7,122.8c-1.1,1.2-1.9,2.1-2.7,2.9,1,.9,1.9,1.6,3,2.6-.1-2-.2-3.5-.3-5.5ZM289.6,133.9c.2-2.4-.2-4-2.7-4.2-1.4,2.8,1.2,3,2.7,4.2ZM166.7,130.2c-1.5,1.6-2.8,2.9-4.3,4.4,3.5-.4,4.4-1.2,4.3-4.4ZM261.3,88.6h-.4c0,.4.1.7.2,1.1h.3c0-.4,0-.7-.1-1.1Z"/>
  <path class="cls-1" d="M7.3,176.1c0-2.1-.3-4.2-.4-6.2.2-2.4.4-4.9.6-7.3.3-1.7.5-3.5.8-5.2,0-.8,0-1.6-.1-2.3.2-.2.4-.3.6-.5.3-.2.7-.3.8-.6,1.4-4.1,2.8-8.2,4.2-12.2.3-1,.6-2,1-3,.9-1.4,1.7-2.9,2.6-4.3v-1.1c.7-.3,1.7-.5,2.1-1.1.9-1.4,1.6-3,2.4-4.5,1.9,1,1.5-1.1,2.1-1.7.4-.7.8-1.5,1.3-2.1.3-.4.8-.8,1.2-1.1.7-.3,1.4-.6,2.1-.8,1.5-1.5,3-3,4.6-4.5.7-1,1.5-2,2.2-3,2.4.4,4-1.1,5.2-2.7,1-1.3,2-1.6,3.5-1.9,3.3-.6,6.5-1.3,9.8-2-.8-2.3-1.9-3-5.6-3.3,5.6-3.7,1.4-7.5,0-11.1-1.6-4.4-4-8.5-5.6-13.1.4.6.9,1.2,1.3,1.8,3.4,5.5,6.8,11.1,10.3,16.5.6,1,2,2.2,3,2.2,1.8,0,2.6-1.7,2.7-3.6,0-.2.2-.4.3-.6.3,0,.5,0,.8.1-.4,1.7-.7,3.4-1.2,5.1-.9,3-.3,5.5,2,7.5,1.3,1,2,1.4,3.1-.5,3.4-5.6,3.7-11.8,3.8-18.3,2.3,7.6,0,14.9,0,22.7,1-.7,1.4-1,2-1.4.9,13,6.3,23.9,15.7,33.6,0-3.5-2.2-4.7-4.8-6.6,1.6.2,2.3.3,3.5.4,3.6-14.6,7.3-29.2,15.8-42,8.3-12.6,18.4-23.7,30.4-32.9,12-9.2,24.9-16.8,39.5-21.2,0,.2.2.4.3.6-1.7.7-3.5,1.5-5.2,2.3-12.1,5.4-22.5,13.3-32.1,22.2-9.4,8.7-17.6,18.5-24.2,29.5-5.5,9.1-8.9,18.9-10.3,29.4-.9,7-2.3,14.1-2.5,21.2-.2,5.6.9,11.2,1.8,16.8.2,1.2,1.9,2.1,3.2,3.3-.4.3-1.3.9-2.2,1.6,0,4,3.9,2.9,5.9,4.7-.8.3-1.4.5-2.3.9,2.1,3.1,4,6.1,6,9,2.9,4.1,5.8,8.2,8.9,12.2.6.8,1.8,1.2,2.8,1.8h0c0,.7-.2,1.6,0,2.1,5.5,9.7,11.1,19.3,16.7,29,.5.9.8,2,.7,3.2-2.8-4.5-5.7-9-8.4-13.5-8.3-14-18.5-26.6-28.7-39.1-1.8-2.2-2.3-2.1-4.4.2.2-6.3-3.2-10.6-7.2-14.9,0,1.3,0,2.6-.2,3.9h-.3c-.4-1.7-.8-3.5-1.5-6-1.8,1.6-3.3,2.9-5.4,4.9,1-2.5,1.5-4.7,2.7-6.4,1-1.4,1.2-2.7.7-4.1-2-5.3-4.5-10.3-10-13.3.8-.3,1.4-.6,2.3-.9-.4-.8-.7-1.5-1.3-2.7-.9,1.2-1.5,2-1.9,2.5-1.2-3.4-2.6-7.3-3.9-11.1-.4,0-.8.1-1.2.2v7.6c-.6-.4-1.1-.8-1.7-1.2-.7,2.2-1.3,4.2-2,6.2-.6,1.8,0,4-1.7,5.8.2.3.7,1,1.3,2,1.4-4.2,2.7-8.1,3.9-12,.8,2.2,2.7,4.2,1.1,6.8,0,.2.6.8.9,1.2-2.2,2.9-4.3,5.8-2.2,9.7,1,1.9,1.7,3.8,2.5,5.8.9,2.3.6,4.6-.5,6.8-1.1-2-2.2-3.8-3.3-5.6,0,0-1,.4-1.5.7-.3-1.5-.6-3.2-1-5.1-3.7,3.3-3.8,7.6-4.5,11.7-.5-1-.9-1.9-1.5-3.2-.6.9-.9,1.5-1.5,2.3,3.2,1.8,4.4,5.9,8.7,6.3-.6.5-1,.8-1.7,1.3,1.2.5,2.1.9,3.4,1.4-1,.5-1.6.8-2.5,1.3,6.9,12.5,7.8,25,.5,37.6,5.3-12.8,4.3-24.6-5.9-35.2-.4.6-.6,1-.8,1.3s-.3.6-.6,1.3c-.2-1.3-.4-2.3-.6-3.8-1.2,1.1-2,1.8-2.4,2.1,0-2.7,0-5.6-.5-8.5-.2-1.6-1.3-1.3-2.5-.4-3.6,2.6-4.3,6.1-4.3,10.2-1.4-3.8-1.9-7.5,0-11.3,1.6-3,2.9-6.1,4.2-8.7,0,0,0,.5.3,1.2.2,0,.4.2.7.2,1.1-2.4,2.3-4.9,3.4-7.3,1.6.8,2.1-1.4,3.1-2.4.4-.5.4-2,0-2.5-2.5-3.1-5.2-6.2-8-9.1-2.5-2.6-3.6-5.4-3-9.6.8,3.1,2.8,4.3,4.5,5.9,1.7,1.6,2.7,2.3,4.7,1.3,2.1-1.2,2.9-3.1,2.5-5.7,2.4,1.2,2.6-.7,2.1-1.8-1-2.3,0-4.2.4-6.3.7-5.8-.5-10.9-4.2-16.3-6.2,5.7-6.7,12.7-5.5,20.4-2.2-3.5-5.6-3.9-8.9-3.3-3.2.6-6.5,1.6-9.2,3.3-6.6,4.2-11.4,10.2-15.2,17-9.3,16.2-8.4,33.1-2.6,50,2,5.9,5.8,11.1,8.8,16.7-.2.1-.3.2-.5.3-2.8-3.8-5.5-7.6-8.3-11.4-.8-1.2-1.7-2.4-2.5-3.6h0c0-.1-.1-.2-.1-.2-.2-.3-.4-.7-.6-1-.8-1.8-1.7-3.6-2.5-5.5l-.5-1.2c-.4-1.1-.7-2.2-1.1-3.3h0c-.6-2.5-1.2-4.9-1.8-7.4-.2-.8-.3-1.7-.5-2.5-.1-.3-.2-.7-.3-1l-.5-2.7c0-1-.2-2.1-.2-3.1l-.4-.2Z"/>
  <path class="cls-1" d="M474.2,125.9c.4.4.8.7,1.1,1.1.8.6,1.6,1.2,2.4,1.7l1.1,1c.4.9.9,1.7,1.3,2.6.2.3.3.6.5.9.5.5.9,1.1,1.4,1.6.3.3.5.7.8,1l.8,1.1c.3.7.7,1.4,1,2.1.7,1.6,2.8,2.6,2.1,4.8.3.9.6,1.9,1,2.8.4.6.7,1.2,1.1,1.8,0,.2.1.3.2.5.5,1,1,2,1.5,3.1.1,1.1.3,2.2.4,3.2.3,1,.7,1.9,1,2.9l.2.7c.1.4.2.7.4,1.1-.2.9-.4,1.7-.5,2.6.1,1.2.3,2.5.4,3.7,0,.3.2.6.3,1,0,1.6.2,3.1.3,4.7,0,.9.1,1.7.2,2.6v2.1c-.1.9-.2,1.7-.3,2.6v2.6c-.1.5-.3,1-.4,1.6,0,.5,0,1-.1,1.6-.1.5-.3.9-.4,1.4v.8c-.3,1.2-.7,2.4-1,3.6,0,.3-.1.7-.2,1-.1.5-.3,1.1-.4,1.6-.1.3-.3.7-.4,1-.5,1.2-1,2.4-1.4,3.7l-.6,2.1v1c-.1.3-.2.7-.3,1l-.9,2c-1.6.8-.2,1.5.1,2.2h0c-3,.8-3.8,3.8-5.7,5.7-.2.4-.5.7-.7,1.1-.3.4-.7.9-1,1.3-.9.8-1.7,1.6-2.6,2.4l-.2-.2c1.6-3,3.2-6,4.8-9,5-8.8,6.1-18.4,5.8-28.2-.2-9.5-2.8-18.5-7.5-26.8-.6-1-1.5-1.9-2.4-2.8-4.8-4.5-10-8.3-16.8-9.1-2.6-.3-4.9.4-6.6,2.6-.4-.5-.7-.9-1.6-2.2-.8,4.3-1.5,7.9-2.1,11.3-1.3-.9.6-3.9-2.3-4.3,2.8-5.3,3.2-11.1,2.2-17,1.9-.3,2.2-6.3.2-9.8-1.3,4.5-2.4,8.9-4.8,12.7.3-2.9.6-5.7.8-8.4,0-.6-.5-1.6-1-1.9-.4-.2-1.5.4-1.9.9-1.4,2-2.7,4.1-4.2,6.3,1.4.5,2.1.8,2.9,1.2-6.3,2.7-10.2,8.1-14.5,13-1.1,1.2-2,2.6-2.9,4-2.1,3.2-1.8,5,1.3,7.4.3.3.7.5,1,.7,0,.2-.2.5-.2.7-2-.5-4-1-6.7-1.7-1,2.9-2.1,6.2-3.2,9.4,0,0-.5-.7-1-1.3-.3.1-.5.3-.8.4.6,1.4.8,3.1,1.8,4,3.8,3.4,4.3,5.1,1.7,10.1,1.2-4.7-.7-7.2-5.3-8-.2.8-.4,1.4-.7,2.3-.4-.8-.7-1.5-1.1-2.5-3.8,1.9-7.3,3.8-10.5,7.3,1.5.2,2.3.3,3.3.5-8,4.6-13.1,11.9-18.6,18.9-6.3,8.1-13.2,15.7-19.1,24-7.3,10.2-13.8,21-20.7,31.5-.3.4-.5.8-1.3,1,2.5-4.4,4.7-9,7.5-13.2,8.5-13,17.3-25.8,26-38.7,4.8-7.2,9.7-14.3,14.3-21.6,1.4-2.3,2.2-5,3.1-7.1,0,.2.2,1,.3,1.9.2,0,.4.1.6.2.7-1.8,1.4-3.6,2.4-6,.2,1.1.3,1.7.4,2.4,6-5.8,7.2-12.5,4.7-20.1.1-.1.3-.2.4-.4,1.3,2.3,2.6,4.6,3.9,6.8,6.1-8.6,11-17.6,3.9-28.4.3-.1.6-.2.9-.4,1.6,2.2,3.1,4.4,4.7,6.6,3.3-7.5,2.5-11.9-2.6-16.3,1.6.4,3.3.7,4.9,1.1,0-9.6-3.4-18.2-8-26.4-3.9-7.1-8.2-13.9-13.9-19.7-1.5-1.5-3.2-2.9-5-4.1-10.2-7.6-21.1-14-33-18.6-6.5-2.5-13.1-4.8-19.8-7-2.4-.8-4.9-1.2-7.4-1.7v-.7c4.5.7,9.3.8,13.6,2.2,12.5,4.1,24.9,8.5,37.2,13.1,15,5.6,25.8,16.3,34.2,29.6,3.8,6,7,12.3,10.7,19,.8-1,1.8-2.1,2.8-3.2.1,0,.3,0,.4.1-.5,1.2-1,2.4-1.4,3.6-.3,1-.2,2.1-.4,3.2h3.4c-1.6,2.8-3.1,5.6-4.7,8.3.2.2.4.4.6.7,1.3-.8,2.6-1.5,4.4-2.6-1,1.7-1.9,3-2.7,4.4-1.3,2.5-3,4.9-2.3,8,0,.3-.3.7-.5,1-.9,1.4-1.9,2.7-2.8,4.1.3.3.6.6.9.8,1-.8,2.1-1.5,2.9-2.4,3.8-4.7,5.7-10.1,7.5-15.9,1.6-5.1,1.9-10.7,4.9-15.4-.1,2.6-.3,5.2-.4,7.7.3,0,.6.2.9.3,1.3-1.9,2.6-3.7,3.9-5.6.1,0,.3.2.4.3-.1,1.2-.5,2.5-.3,3.7.1,1,.8,2,1.4,2.8.1.1,1.5-.2,1.6-.6.5-1.1.8-2.3.9-3.5,0-.9-.4-1.9-.3-2.7.4-2.6,1.3-5.1,1.5-7.7.3-3.9,0-7.8,0-11.7h.7c.6,5.7,1.2,11.3,1.8,17.4,6.8-6.1,13.4-12.1,20.1-18.1.2.2.4.4.7.7-2,2.2-4.1,4.2-5.9,6.6-3.3,4.4-6.8,8.8-9.6,13.6-1.2,2.1-2.1,4.3-4.2,5.7-.3.2-.4.9-.9,1.8,1.2-.2,2-.4,2.8-.5.9,1.3-1.1,4.5,2.6,4.2.9.5,1.9.9,2.8,1.4h0c.2,0,.3-.1.5-.2.4.2.7.4,1.1.6h-.2v.3c.4.3.8.6,1.2.9.1,0,.3.2.4.3.4.2.8.4,1.3.7,1,.5,1.9,1,2.9,1.5.7.3,1.3.6,2,.8.2.5.4.9.6,1.4.5.5.9,1.1,1.4,1.6.2.3.5.6.7,1h.1Z"/>
  <path class="cls-1" d="M368.1,115.6c-2,2.7-4,5.4-6.1,8.1,3.6,2.3,8.4.8,9.6-2.8,1-2.9,1.9-5.9,3.2-8.8-.2,2.7-.4,5.4-.6,8.6,4.1-2.9,7.1-6.7,7.3-10.7.2-3.4,1.8-6.4,1.5-9.8-.3-3.4-.5-6.8-.7-10.5,3.5,7.5,1.8,15.5,3,23.2,1-.4,1.8-.8,3.1-1.4-2.2,4.4-.3,8.4,5.1,10.8-.6-4-1.1-7.8-1.6-11.5l.3-.2c.6,1.3,1.3,2.7,1.8,4,.9,2.2,1.7,4.5,2.6,6.8,1.4,3.5,3.7,4.4,7,2.6,1.4-.7,2.6-1.7,4-2.5.7-.4,1.5-.8,2.3-1.1h0c-1.2,1.7-2.4,3.3-3.8,5.1.9,0,1.7,0,3.2-.1-4.4,2.2-4,5.2-2.8,8.4,2,5.3,3.4,10.7,1.7,16.4v-2.7c.4-5.3-2.3-8.9-6.3-11.8-3.2-2.3-4.7-2.1-7.5.7-.6.6-1.1,1.3-2.1,1.8.9-2.1,1.8-4.2,2.9-6.6-1.4-.6-2.9-1.3-4.3-1.9-1.5-.8-3-1.6-4.7-2.6v4.8c1-.3,1.8-.5,2.6-.7-3.2,3.2-2.4,6.7-.2,10.8-1.4-.6-2.2-1-2.9-1.2v14.1c3-1.6,5.5-2.9,8.1-4.2.1.2.2.3.3.5-1.9,1.5-3.9,2.9-5.6,4.6-.8.9-1.7,2.4-1.5,3.4.3,1.6,1.9,2,3.6,1.8.7-.1,1.5,0,2.3.3-5.6,1.3-9.5,4.9-13.3,8.7-1.9,1.9-3.5,4.3-5.4,6.2-2.9,2.9-6.9,3.2-10.7,3.4-4.4.2-8.8,0-13.6,0,4-1.7,7.9-1.3,11.7-1.4,1.8,0,3.6-.1,5.4-.3,5.1-.6,6.4-5.1,8.5-8.6,2-3.4,3.2-7.1.3-10.9.8.3,1.5.5,2.3.8,1.6-3.9.8-7.3-1.7-7.8,1.1-1,2.3-2,3.4-3.1-.2-.2-.3-.5-.5-.7-.7,0-1.3.2-1.4.2.6-3.3,1.1-6.8,1.7-10.2-.3-.1-.5-.2-.8-.4-1.8,1.2-3.6,2.4-5.4,3.6-.2-.1-.4-.3-.6-.4,5.1-3.4,7.7-7.7,5.5-13.7-3.2.5-5.3,2.7-5.4,5.9-.6-.4-1.2-.7-1.9-1.1-.2,3.1.1,3.4,3.5,3.5-2.8,1.4-2.9,1.4-9.8-3.3-.3,2.6-.6,4.9-.9,7.4-2.5-4.3-2.1-9-2.2-14-4.7,6-3.8,12.1,1.6,16.9-1.9-.9-3.8-1.8-5.7-2.7-2.7,7,.9,15,8,17.3-3.7.3-7.8-.3-11,1.2s-5.5,5-8,7.4c0-.3.2-1,.4-2.5-4.3,3.7-8.1,7.1-12.1,10.3-4.1,3.3-8.6,5.6-13.5,6.2,2.6-1.9,5.6-3.8,8.3-6.1,2.9-2.4,4.2-5.7,4.7-9.3-.3-.2-.5-.4-.8-.6-.5,1-1,2.1-1.5,3.1l-.7-.7c.2-1.1.7-2.2.7-3.3-.3-4.3-4-4.8-7.1-3.8-1.8.6-3.5,1.4-5.4,1.9-.7.2-1.7-.2-2.4-.6,5.1-.9,5.5-1.2,6.6-6.1,1-4.4-.3-8-3.7-10.3-.5-.3-1-.6-1.5-.9.1-.2.2-.5.3-.7,1.9.9,3.7,1.7,5.6,2.6,0-9.8.7-20-8.3-27.6.3-.1.6-.3.8-.4.4.3.8.6,1.3.8,1.9,1.2,2.9,4,6,3.2.5-.1,1.4.9,2.1,1.4.5-1.3.6-2.8,1.5-3.6s2.4-1,3.8-1.5c-1.2,1.3-2.5,2.1-3,3.3-.7,1.5.7,2.7,2.3,2.2,2.6-.7,5.7-4.6,5.8-7.3.1-3,0-6.1.3-9.2.5,2.1,1,4.1,1.7,6.8,2.5-6.1,3.6-11.9,4.2-17.9h0c.2,2.6.4,5.1.5,7.7.2,2.8.4,5.5.7,8.3.1.9.6,1.8,1.1,3.2.6-1.6,1.1-2.8,1.6-3.9h.6c-.2,2.2-.5,4.5-.7,6.7-.3,2.8,2.3,6.7,4.7,6.8,1.1,0,2.6-.4,3.3-1.2.6-.7.4-2.2.5-3.2.6.2,1.3,1.6,2,4.3,3.4-2.8,6.7-5.5,10.1-8.2.1.2.2.3.4.5h.4ZM339.5,142.6c-.1-4.9.4-9.9-2.5-14.5-3.8,3.6.4,7.7-1,11.7-1.3-2.5-2.5-4.6-3.6-6.7-.3,0-.6.1-.9.2,0,3.2-.1,6.3,0,9.5.2,4.3,2.8,5.8,6.7,4.3,1.7-.6,3.3-1.4,4.9-2-.6,1.4-1.7,2.3-2.2,3.4-.4,1.1-.2,2.4-.2,3.6,1.3,0,2.8.5,3.8,0,2.8-1.5,4.4-4.1,5-7.2.3-1.5-.3-2-1.7-1.5-1.1.4-2.1.8-3.2,1.2,0-.9.3-1.4.6-1.8,1.6-2.1,3.5-4.1,4.9-6.4,1.4-2.1.4-3.8-2.1-4.3s-4.7.6-6,3.5c-1,2.2-1.7,4.6-2.6,6.9h.1ZM323.9,121.2s.1-.1.2-.2c-.1,0-.2-.1-.3-.2,0,0-.1,0-.2.1.1,0,.2.1.3.2h0Z"/>
  <path class="cls-1" d="M153.2,150.9v6.7h-.4c-.1-1-.2-2-.4-2.9-.7-2.9-2.8-3.7-4.9-1.5-2.5,2.5-5.9,4.6-5.1,9.1-.4-.9-.7-1.8-1.2-3-3.1,3-4.7,6.3-4.5,10.5-.3-1.1-.5-2.1-1-3.8-1.3,2.2-2.3,4-3.5,6.1,1-7.4,6.5-14.1,2-21.2,1.6.5,3.5,1.2,5.5,1.8.1,0,.5-.8.6-1.1-4.5-1.5-4.2-5.6-5.9-8.9-3.7.2-7.9-.5-11.5,2.1,0-5-.2-5.2-2.5-4.6-.3,1.4-.4,2.6-.7,3.8-.6,2.9-1.3,5.7-2,8.6-.5,2.1-1.1,4.1-1.5,6.2,0,.5.3,1,.4,1.5,1.1,6.8,1.7,13.5-1,20.1.2-1.4.4-2.7.6-4.1.9-6.3-1.3-11.5-5.3-16.2-2.6-3.1-5.1-6.4-6.9-10-1.5-3.1-2-6.7-3-10.1.2,0,.4-.1.6-.2.9,1.7,1.6,3.6,2.8,5.1,1.3,1.5,3.1,2.7,5.1,3.6-.4-1.1-.8-2.2-1.2-3.3-.4-1.1-.8-2.2-.6-3.6.3.8.4,1.7.9,2.2.9.9,2.1,1.7,3.2,2.3.2.1,1.4-.9,1.4-1.4,0-1.3,0-3.2-.7-3.8-1.8-1.2-4.1-2-6.2-2.5-1.5-.3-3.1,0-4.9.2,1.8-.9,3.4-1.5,4.8-2.5,3-2,4.1-5.2,3-8.6-.2-.5-.9-.9-1.5-1-1.1-.2-2.3,0-3.4-.6,1.4-.1,2.8-.3,4.4-.4-.2-1.9-.4-4.1-.6-6.2.2,0,.4,0,.6-.1.2,1.1.4,2.3.6,3.4.7,3.5,3.2,4.5,5.7,1.8,3.2-3.5,6.6-7.1,8.8-11.2,4-7.5,7.3-15.4,10.4-22.1-.1,2.1-.5,5.3-.4,8.6.2,8.5,2.8,16.3,6.6,23.8.2.3.8.5,1.2.7.2.1.3.3.5.4.1.6.1,1.3.5,1.8,1.8,2.5,4.2,3.7,7.5,3.8-2,1.2-5.1-.2-5.2,3.7,1-.7,2-1.4,2.8-1.9,1,1.1,2.2,2.3,3.2,3.5.8.9,1.6,2,2.4,2.9-2.7-1.3-5.5-2.4-7.8.6-.9,1.2-1.4,2.8-2,4.1-.6-.1-1.5-.3-2.4-.4,0,.9-.5,2,0,2.7.5.9,1.6,1.7,2.6,2.2.2.1,1.4-.9,1.6-1.5.5-1.8.8-3.7,1.2-5.5h.4c.3,1.7.6,3.5,1,5.5,3.2-1.8,2-5.2,3.1-7.7.5,3.1.6,6.1.9,9.1.1,1.1.9,2.2,1.5,3.3h-.2ZM122.1,129.8l.5.5c-.2,2.2,0,4.3,2.5,5.8.2-1.4.4-2.6.7-4.4.3,1.4.5,2.2.7,3,.4,1.3,1.2,2.4,2.8,2,3-.8,6.5-.1,8-4.2.2.2.3.4.5.6v2.3c.3,0,.7,0,1,.1.2-1.3.8-2.8.4-3.8-1.9-3.8-4.1-7.5-6.3-11.2-.2,0-.5.2-.7.3v7.4h-.3l-1.1-5h-.5c-.5,1.7-1,3.5-1.5,5.2h-.4c-.2-3.3-.3-6.6-.5-9.8-5.2,4.2-7.5,9.7-9.7,15.7.2.2.9.7,1.4,1.1.9-2.1,1.6-3.9,2.4-5.7h.1ZM114.3,132.8c0-4.3-.7-5.2-3.6-5.1,1.1,1.6,2.2,3.1,3.6,5.1Z"/>
  <path class="cls-1" d="M277.1,245.6c-.6-1-1.2-2.1-1.9-3.2-1,.3-2,.6-3.3,1,.1-.8.3-1.6.4-2.4-1.7-.3-3.3-.5-4.5-.7.7-.8,1.6-1.9,2.9-3.4-2-.5-3.4-.9-5-1.3,1.1-.6,2.2-1.1,3.8-1.9-2.2-.9-4-1.7-6.2-2.6,2.1-.7,3.8-1.3,5.7-1.9-.7-1-1.3-1.9-2-3h3c-.9-1.4-1.5-2.5-2.2-3.7,1.4.2,2.9.5,4.6.8,0-.6-.1-1-.2-1.7,2.3.2,4.3-1.2,3.4-3-1.4-3-1.1-5.9-1.2-8.9,0-2.1-1.4-4-.3-6.3.3-.7.2-2.1-.4-2.6-1.6-1.6-.9-3.1-.3-4.8.4-1.1.2-2.5.2-3.7.7-1.3.9-1.3,2.7.3-1.1.3-1.7,1.2-1,2.2,1.4,2.2,1.7,4.2.1,6.5-.3.5.2,1.8.5,2.6.8,1.8,1.3,3.5.1,5.4-.4.6-.2,2.1.3,2.7,1.7,2,1.8,3.8,0,5.6.3.9.7,1.7,1,2.5-.2,0-.5.1-.7.2-.3,1-.7,2-1,3,.2.1.4.3.6.4.7-.2,1.3-.5,2-.7.6-.4,1.1-.8,1.7-1.2.3-.2.7-.4,1-.6.4.7.8,1.4,1.1,1.8-.4.8-.9,1.5-1,2.2,0,.2,1.1.9,1.4.8.5-.2.9-.9,1.3-1.4.1-.1.4-.1.6-.2.4.6.8,1.1,1.2,1.7.1-.2.3-.4.4-.6.4,1.2.8,2.3,1.3,4-.3.7-3.9-.1-2.1,2.8.6,0,1.4-.1,2.1-.2h1.5v-.4c-.3-.1-.7-.3-1-.4.9,0,1.8,0,2.6.1,1,.2,1.9.7,3.1,1.1-2.2.5-4.2.9-6.7,1.5,1.4,1,2.1,1.6,3.1,2.4-.9,0-1.7.1-2.6.2.3.5.6.8.9,1.3-.8,0-1.4.2-2.4.3.7,1.4,1.3,2.6,2.3,4.6-3.7-2.5-6.4-1.7-8.7,1.1-.6-.5-1.3-1-2.6-2v4.1l.4-.4ZM283.9,232.6c-.3,0-.6-.1-.9-.2-.7,1.3-1.4,2.7-2.1,4,1.2-.2,2.5-.4,3.8-.5-.3-1.2-.6-2.2-.8-3.3ZM278.2,229c-.8,1-1.6,1.8-2,2.6-.1.3.6,1.5.9,1.5.9,0,1.8-.4,2.8-.7-.7-1.3-1.1-2.1-1.8-3.4h.1ZM271.7,237.8c.2.2.5.3.7.5,1.2-.4,2.3-.9,4-1.5-.9-.9-1.5-1.5-2.2-2.1-.9,1.1-1.7,2.1-2.6,3.2h.1ZM280,237.1l-.2-.7c-1,.2-2,.4-2.9.6.2,1,.5,2.1.7,3.1h.7c.6-1,1.2-2,1.8-3h-.1ZM279.7,224.5c-.4-.2-.8-.5-1.2-.7-.5.9-1.1,1.8-1.6,2.7.6.3,1.3.6,1.9.8l1-2.9h0ZM283.8,229.6c-.3-.4-.5-.8-.8-1.2-.9.4-1.8.9-2.8,1.3l1.3,1.7c.7-.6,1.5-1.2,2.2-1.9h0ZM273.9,241.3c0,.3-.1.5-.2.8.5,0,1,0,1.5.1v-.6c-.4-.1-.9-.2-1.4-.3h.1ZM285.2,236.1s-.2.1-.2.2.1.2.2.4c0,0,.2-.1.2-.2s-.1-.2-.2-.3h0Z"/>
  <path class="cls-1" d="M224.9,219.4c0,2,1.1,2.4,2.8,2-.1.2-.3.3-.4.5-.4.3-.7.6-1.1.8.2.2.4.5.6.7.3-.4.7-.8,1-1.1,0-.3-.1-.6-.2-.9.5-.4.9-.8,1.7-1.4v3.1c.3-.1.6-.2.9-.4-.7.6-1.5,1.3-2.2,1.9.6,2.7,2.1,1.7,3.6,1,.9.7,1.9,1.4,2.9,2.2-.6.8-1.4,1.8-2.2,2.8-.5,0-1.1-.1-1.8-.2,0,.8-.2,1.9.2,2.4,1.4,1.7,3.1,3.2,4.9,5-1.6-.4-3.1-.7-5.4-1.2,1.2,2,2,3.3,2.8,4.6-1.7-.4-3.6-1.5-5.1-1.1-1.6.4-2.9,2.2-4.1,3.6-.7.9-.8,2.2-1.3,3.5-1.4-2-.4-5.6-4.3-5.3v.3c.2,0,.5-.1.4-.1-.3-1.1-.3-2.4-2.1-1.9-1.2.3-2.4.6-3.9,1,1-1.7,1.8-3,2.7-4.6-1.2-.4-2.2-.7-3.2-1-.2-.2-.3-.5-.5-.7,1.1-.3,2.2-.5,3.3-.8-.3-.4-.7-.8-1-1.2-1.3-.5-2.7-.9-4.6-1.5,1.9-.9,3.4-1.5,5-2.2-.5-.8-.9-1.3-1.3-2,4.7-1.3,2.1-3.8.8-6.3,1.6.6,2.9,1.1,4.5,1.8,0-1.4.1-2.5.2-4.1.9,1.2,1.6,2,2.3,2.9.7-.9,1.4-1.8,2-2.6,0,0,.2.2.3.3-.1.8-.4,1.5-.4,2.3s.3,1.1.5,1.6c0,.1.9,0,.9,0,.2-.5.3-1,.3-1.6s0-1.2.1-1.8l.4-.3ZM225.4,231c-.4-.2-1-.6-1.2-.4-.9.5-1.7,1.1-2.5,1.7.6.6,1.2,1.2,1.8,1.8.6-.7,1.2-1.4,1.7-2.1.2-.3.1-.7.1-1.1,2.9.2,3.3-.2,3-3-1.7.4-3.6.5-2.9,3.1h0ZM226.7,238.3c.2-.2.5-.4.7-.7-.2-1.1-.4-2.2-.6-3.3l-.8-.3c-.5.9-1.5,1.7-1.5,2.6s1.4,1.1,2.2,1.7h0ZM217.8,227.9c-.2.2-.4.5-.6.7.7.8,1.3,1.9,2.2,2.4.3.2,1.3-1,2.5-2-1.9-.5-3-.8-4.1-1.1h0ZM218.5,239c1.2-.9,1.9-1.3,2.6-1.9.3-.2.6-.8.5-1-.1-.4-.6-.9-.9-.9s-.9.3-1.1.7c-.4.8-.6,1.7-1.1,3.1h0Z"/>
  <path class="cls-1" d="M294.9,193.8c0,.5,0,1.1.1,1.6v.7l.3-.7h.5c.4.9.8,1.7,1.2,2.6.4,1.4.9,2.8,1.3,4.2,0,.7.2,1.4.2,2.1h.2l.3-2h.5c.2.6.4,1.3.5,1.9,1.1,2.4,3.1,4.5,3.2,7.4,0,.2.7.4.9.7,1.2,2.2,2.3,4.5,3.4,6.6.4-1.1,1-2.6,1.5-4.1.2,0,.3,0,.5.1-.3,1.1-.7,2.1-1,3.2-.3,1.2-.5,2.5-.7,3.3-1.3-.2-2.5-.4-3.8-.7-.8-.2-1.8-.3-2.2-.9-1.6-2.2-3.2-4.5-4.5-6.9-2.6-5-5-10.1-7.6-15-.6-1.2-1.8-2.1-2.9-3.2,0,0,.3-.4.6-.7,2.9-1,5.9-2,8.8-3-.2.8-.4,1.5-.5,2.3-.5-.3-.9-.6-1.4-.8,0,0-.4.6-.6.9.4.1.7.2,1.1.3h.1Z"/>
  <path class="cls-1" d="M215.9,194.9c.7.3,1.4.7,2.1,1v1.1c-2.8,6.3-5.6,12.7-8.4,19-1.4,3.3-2.5,6.9-7,7.3-1,0-1.8,1.3-2.5,1.9-.3-1.6-.6-3.4-.9-5.2,1.4,1.1,2.2.6,2.7-1.3.5-1.6,1.3-3.1,1.9-4.7.2-.1.4-.3.6-.4,1.1-2.3,2.2-4.6,3.3-6.8,0,.6,0,1.1-.1,1.7h.4c0-.5-.1-1.1-.2-1.6,0-.7.1-1.4.2-2.1.3.1.7.2,1.1.4v-3.4c2.3-1.5,4-5.7,3.1-7.5,1.2.2,2.4.4,3.6.5h0ZM207.3,210.3s0-.1-.1-.1h-.2s0,.2.2.2h.2,0ZM201.4,222c-.2-.2-.4-.4-.5-.6-.1.2-.3.3-.3.5s.2.4.4.6c.1-.2.3-.3.5-.5h0ZM211.1,200.8h-.1v.3h.2v-.2h0Z"/>
  <path class="cls-1" d="M450.7,154.4h1c0,1-.3,2.2-.2,3.4.1,1.3.3,2.6.9,3.8,2.8,5.7,1.5,12,2.4,18,0,.2-.3.4-.8.9-.2-.7-.4-1.2-.4-1.7,0-2.7.6-5.6-.2-8-.9-3-.3-6.2-1.8-9.1-.8,3.1-2.7,5.7-2.2,9.4.5,3.8-.4,7.8-.6,11.7,0,1.4.3,2.7.3,4.1s-.4,2.5-.5,3.8v2.3c0,1.3,0,2.5-.6,3.8-.1-1.2-.3-2.4-.5-4.2-2.3,4.1-.4,7.4,0,10.7-.3.7-.8,1.4-.9,2.2-.1,2.3.2,4.7-.1,7-.3,2.2-1.1,4.4-1.7,6.9,0-3.4-1.2-7.3.3-9.3,1.6-2.2-.5-3.1,0-4.6.7-1.8.7-3.9.7-5.8s-.7-1.4-1.2-2.4c.9-2.2,2.1-4.9,2.9-7.6.5-1.7.9-4.4,0-5.2-2.3-2.1-.6-3.6-.2-5.5.4-1.8-.4-3.8-.5-5.7,0-.6,0-1.2.3-1.8.8-2.3,2-4.5,2.5-6.8.7-3.2.8-6.4,1.2-9.9v-.4Z"/>
  <path class="cls-1" d="M227.4,193.3c-1.8,1.2-2.9,2.5-1,4.4v.2c-1.7,3.7.7,7.7-1.2,11.4-.3.6-.3,1.8,0,2.2,1.5,1.4.8,2.5,0,3.9-.5,1.1-.5,2.4-.7,3.7h-1.4s-.2-.2-.3-.3c-.2-.8-.2-1.8-.7-2.5-1.1-1.5-1-2.7,0-4.2.5-.8.4-2,.6-3.1.2-1.6.3-3.2.5-4.8.1-.8.8-1.9.5-2.2-1.7-2.2-1-4.2.4-6.4-1.3,0-2.3-.1-3.3-.2,2.1-.7,4.2-1.4,6.3-2.1h.3Z"/>
  <path class="cls-1" d="M444.2,164.3v10.9c.9-.5,1.3-.8,1.6-1-.9,3.9-1.8,7.9-2.9,12.4-1.7-2.6,2.4-5.7-1.5-7.2,2.3-1.1,2.3-3.1,2.1-5.5-.3-3.2,0-6.4,0-9.6h.7,0Z"/>
  <path class="cls-1" d="M440.3,188.9c.5,3.2,1.1,6.4,1.4,9.6.1,1-.8,2.2-.9,3.3-.1,1.7.1,3.5.1,5.2s-.2,1.4-.3,2.1h-.7v-20h.3v-.2Z"/>
  <path class="cls-1" d="M473.7,83.4c3.4-3.2,6.7-6.4,10.5-10-3.5,3.9-6.6,7.4-9.6,10.8-.3-.3-.6-.6-.9-.9h0Z"/>
  <path class="cls-1" d="M347.3,181.5c-.2,1.6-.4,3.4-.6,4.9-1.7-1.4-1.5-3.7.6-4.9Z"/>
  <path class="cls-1" d="M34.6,114c-.5-2.7,2.1-1.1,3-2-.8.6-1.6,1.3-2.4,1.9h-.6Z"/>
  <path class="cls-1" d="M287,178.6c.2-.3.3-.7.5-1,.8,1.1,1.6,2.1,2.4,3.2-.8-.2-1.6-.4-2.4-.6h0c-.3-.4-.5-.9-.8-1.3l.3-.3h0Z"/>
  <path class="cls-1" d="M287.6,177.7c-.5-1.2-1.1-2.3-1.6-3.5.5,1.2,1.1,2.3,1.6,3.5Z"/>
  <path class="cls-1" d="M32.5,116c0,.3,0,.6-.2.9-.7.4-1.5.8-2.2,1.2.8-.7,1.6-1.4,2.4-2.1h0Z"/>
  <path class="cls-1" d="M343.2,256.1c0,.4.2.9.3,1.3h-.5c0-.4.2-.8.3-1.2h0Z"/>
  <path class="cls-1" d="M188.8,148c-.3.3-.6.7-.9,1-.1,0-.2-.2-.3-.3.3-.4.5-.8.8-1.1l.4.4h0Z"/>
  <path class="cls-1" d="M307.1,211.9c-.1-.3-.2-.5-.3-.8.2.2.5.3.7.5-.1.1-.2.2-.4.3h0Z"/>
  <path class="cls-1" d="M347.9,187l.3.3c-.2,0-.3.2-.5.2,0,0-.1-.3-.2-.4.1,0,.3-.1.4-.2h0Z"/>
  <path class="cls-1" d="M34.6,113.9c-.4.4-.7.7-1.1,1.1.4-.4.7-.7,1.1-1.1Z"/>
  <path class="cls-1" d="M316.9,115.5c.1.2.3.3.4.5-.1,0-.3.3-.3.2-.2,0-.4-.3-.5-.4.1,0,.2-.2.4-.3Z"/>
  <path class="cls-1" d="M307.4,211.5c.2.3.4.6.6.9v.2c-.4-.2-.7-.5-1-.7.1-.1.2-.2.4-.3h0Z"/>
  <path class="cls-1" d="M280.1,102.5l-.5-.4h.8c-.1.1-.2.3-.3.4Z"/>
  <path class="cls-1" d="M26.6,218.7c0,.4,0,.7.1,1.1h-.3c-.1-.3-.2-.6-.3-.9.2-.1.3-.2.5-.3h0Z"/>
  <path class="cls-1" d="M308.1,212.5c.2.4.3.7.5,1.1l-.2.2c-.2-.4-.3-.7-.5-1.1v-.2h.2Z"/>
  <path class="cls-1" d="M183.3,142.9c.2-.3.5-.6.7-.9.1.1.2.3.4.4-.3.2-.5.5-.8.7l-.3-.3h0Z"/>
  <path class="cls-1" d="M367.7,115l.7-.4c-.1.3-.2.6-.3,1-.1-.2-.2-.3-.4-.5h0Z"/>
  <path class="cls-1" d="M403.5,152.1c-.1-.3-.3-.6-.4-.9.3.2.5.4.8.6-.1.1-.3.2-.4.4h0Z"/>
  <path class="cls-1" d="M138.8,182.6c-.3,0-.7.2-1,.3,0-.1,0-.2-.1-.3.3-.1.5-.3.8-.4.1.2.3.3.4.5h0Z"/>
  <path class="cls-1" d="M410,120.4c0-.1.1-.3.2-.4h-.3c0,.1.1.2.2.4h-.1Z"/>
  <path class="cls-1" d="M183.6,143.2c-.1.2-.3.3-.4.5,0-.3.1-.5.2-.8l.3.3h-.1Z"/>
  <path class="cls-1" d="M170.5,152.9c0-.2-.2-.4-.3-.6.3,0,.6-.2.8-.3-.2.3-.4.6-.6.9h.1Z"/>
  <path class="cls-1" d="M33,115.5c-.2.2-.4.4-.6.6.2-.2.4-.4.6-.6Z"/>
  <path class="cls-1" d="M33.6,114.9c-.2.2-.4.4-.6.6.2-.2.4-.4.6-.6Z"/>
  <path class="cls-1" d="M171,152.1l.6-.6-.6.6Z"/>
  <path class="cls-1" d="M343.4,94.6h0Z"/>
  <path class="cls-1" d="M388.9,131.2c.2-.2.4-.4.6-.6-.2.2-.4.4-.6.6Z"/>
  <path class="cls-1" d="M389.4,130.7l.6-.6-.6.6Z"/>
  <path class="cls-1" d="M171.5,151.6l.6-.6-.6.6Z"/>
  <path class="cls-1" d="M308.6,213.5c.1.2.2.4.4.6l-.2.2c-.1-.2-.2-.4-.3-.6l.2-.2h-.1Z"/>
  <path class="cls-1" d="M292.1,150.9c.2,0,.3-.2.5-.3v.7c-.2-.1-.3-.2-.5-.4Z"/>
  <path class="cls-1" d="M121,198.3c0-.2-.3-.3-.4-.5,0,0,.2-.2.4-.3v.7h0Z"/>
  <path class="cls-1" d="M121,198.3c-.2.1-.4.2-.6.3h0c0-.2,0-.4,0-.6.2,0,.5.1.7.2h0Z"/>
  <path class="cls-1" d="M393.9,150.6h.6c-.1.1-.2.3-.3.4-.1-.2-.2-.3-.3-.5h0Z"/>
  <path class="cls-1" d="M344.5,255.2c-.1,0-.2.1-.4.2l-.2-.2c.1,0,.2-.1.3-.2,0,0,.1,0,.2.2h.1Z"/>
  <path class="cls-1" d="M343.2,256.2c.2,0,.5,0,.7-.1l-.2.4c-.2-.1-.3-.2-.5-.4h0Z"/>
  <path class="cls-1" d="M230.8,122.5c.5-.6,1.1-1.2,1.6-1.8.2.1.3.3.5.4-.6.6-1.1,1.2-1.7,1.8l-.4-.4h0Z"/>
  <path class="cls-1" d="M237.8,102.6c-.3,0-.6-.2-.9-.3v-.3h1.2c-.1.2-.2.4-.4.5h0Z"/>
  <path class="cls-1" d="M231,181.9c.1,0,.3.1.4.2,0,0-.2.2-.3.2s-.3,0-.4-.1c0,0,.2-.2.3-.3h0Z"/>
  <path class="cls-1" d="M153.7,141.9l-.2.2c0-.1-.1-.2-.2-.3l.2-.2c0,.1.1.2.2.3Z"/>
  <path class="cls-1" d="M153.2,138.4l.6.6-.6-.6Z"/>
  <path class="cls-1" d="M8.1,154.9c-.2-.4-.3-.7-.8-1.7.8.7,1.1.9,1.4,1.2-.2.2-.4.3-.6.5Z"/>
  <path class="cls-1" d="M233.7,69.6l1.1-1.1-1.1,1.1Z"/>
  <path class="cls-1" d="M278.3,181.4c.4,0,.9-.1,1.3-.2v.4h-1.3v-.2h0Z"/>
  <path class="cls-1" d="M270.6,101.7c-5.4,3.2-4.2,8.9-5.2,13.8h-.8c.1-2,.2-3.9.4-6.2-.6.4-1.1.7-1.6,1-.6-1.6-1-3.2-3.5-2.7-2,.4-.8-1.9-1.7-2.5h0c.1,0,.4.2.4.2,1.3-2.3,3.4-2.3,5.6-2.4,2.1-.1,4.1-1,6.1-1.6.1.1.2.2.3.4h0Z"/>
  <path class="cls-1" d="M264.3,129.3c-.3-.9-.5-1.8-.8-2.8.3,0,.6-.1,1-.2,0,.9.1,1.7.2,2.6-.1.1-.2.2-.4.3h0Z"/>
  <path class="cls-1" d="M270.3,101.4c.3-.1.6-.3.9-.4-.2.3-.4.5-.6.8-.1-.1-.2-.2-.3-.4h0Z"/>
  <path class="cls-1" d="M171.6,137c-.4.1-.7.2-1.1.3.2-.3.4-.5.5-.8.2.2.4.3.6.5Z"/>
  <path class="cls-1" d="M138,131.3c0,.5,0,.9-.1,1.4h-.4c0-.5.1-.9.2-1.4h.3Z"/>
  <path class="cls-1" d="M122.1,129.8c.2-.3.5-.6.7-.9,0,0,.2.1.3.2l-.6,1.2-.5-.5h0Z"/>
</svg>