<?xml version="1.0" encoding="UTF-8"?>
<svg id="Calque_1" data-name="Calque 1" xmlns="http://www.w3.org/2000/svg" version="1.1" viewBox="0 0 500 300">
  <defs>
    <style>
      .cls-1 {
        fill: #75683b;
        stroke-width: 0px;
      }
    </style>
  </defs>
  <path class="cls-1" d="M159.4,97.8c1.2-2.1,1.9-4.6,3.5-6.1,9.6-9.1,19.5-18.1,29.5-27.3-7.4-8.8-19.2-10.8-28.6-17.8,1.1,0,2.2-.5,3.1-.2,9.8,2.9,19.7,6,27.6,13.1,2.3,2.1,4,2.2,6.8.8,5-2.5,10.2-4.4,16.3-7.1-7-2.2-12.6-4.1-15.6-9.7-3.2-6.1-2-11.9,3.6-16.1,1.5-1.1,3.2-1.8,4.7-2.9,7.6-5.8,15-1.3,16.3,7.3,2.7-1.1,5.3-2.2,8.2-3.2-7.3-3.5-8-10-1.8-14.2,1.4-1,2.8-1.8,4.2-2.7,1-1.3,2.1-2.5,3-3.7-.7-.4-1.3-.8-2-1.1-.4,1.5-.8,2.9-1.2,4.4,0,0,0,.3.2.5-3.1,0-4.3-1.7-3.6-4.4,1-3.7,3.8-4.5,7.2-3.2,2.7,1,4.2,2.9,3,5.9-.5,1.2-1.6,2.1-2.5,3.1,8.8,7.1,8.8,9.1.6,16.2,5,3.3,10.3,3,15.2,0-7.9-5.2-8.7-10.7.4-16.1-1.8-2.5-5-5.2-.9-7.8,1.8-1.1,5.5-1.5,6.9-.3,1.4,1.1.9,4.5.4,6.7,2.2,2.8,4.3,5.6,6.3,8.5.3.5-.9,1.9-1.7,3.3-1.4-2.8-2.1-4.8-3.3-6.3-3.2-3.5-6.3-3.2-9.4.7-2.8,3.7.5,5.7,2.8,7.2,4.4,2.6,9.2,4.4,13.9,6.7,2.2-9.7,8-12.3,16.2-7.6,11.2,6.4,13.7,15.5,5.7,22.4-3.3,2.8-7.9,4.4-12.1,6.7,1.5.8,3.5,2.2,5.7,3.1,8.2,3.6,15.4,5.2,23.5-2,5-4.4,12.9-5.4,19.6-7.9.9-.3,1.9,0,3.2.9-9.5,5.1-19.1,10.1-29.2,15.4,12.6,11.5,24.1,22,35.6,32.5-.6.7-1.1,1.3-1.7,2-12-9.9-24-19.7-36-29.7-7,8.4-10.3,20.8-8.7,32.9,9.9-4.3,19.6-8.5,29.5-12.9.3.4.6.9.8,1.3-1.3,1.1-2.4,2.6-3.8,3.2-7.4,3.5-14.8,7.3-22.4,10.3-3.3,1.4-4.5,2.7-4.4,6.4.4,25.6.6,51.3.6,76.9s0,8.5,8.1,12.1c7.8,3.3,15.1,7.6,22.7,11.5-.4.8-.7,1.6-1.1,2.3-9.5-4.1-19.1-8.2-29.4-12.6-.3,12.3,1.6,23.1,8.4,32.9,12.2-10.1,24.2-20,36.1-30,.5.5.9,1,1.4,1.5-3.5,3.7-6.9,7.6-10.6,11.1-3.7,3.6-7.8,7-11.8,10.4-4,3.5-8.2,6.9-13.4,11.3,10.1,5.3,19.5,10.2,28.9,15.1,0,.4,0,.8-.2,1.1-1.5,0-2.9,0-4.2-.4-9.1-3-18.3-5.9-25.8-12.4-.8-.7-2.3-1.6-3-1.3-7.5,2.8-14.9,5.8-22.3,9.8h6.2c8.6.4,14.9,7,14.2,15.5-.2,2.3-1.5,4.8-3,6.5-2.1,2.2-4.7,3.7-7.4,5.3-7.9,4.8-14.1,1.6-15.1-8.2-7.2,2.3-14.4,4.1-18.8,11.1,1.5,2.1,2.8,3.9,4,5.8-.4.4-.8.9-1.2,1.3-2-1.9-4.7-3.3-5.8-5.6-2.5-5.2,2.7-7.2,5.3-10-4.8-3.1-9.6-3.3-14.3,0,8,6.3,8,10.8-.7,15.6,1.6,2.8,5,5.8.5,8.7-1.4.9-3.8,1.8-4.9,1.2-1.6-.9-3.7-3.5-3.3-4.8,1-3.6-.7-5.5-2.9-7.7-3.9-3.8-2.4-9,3.8-12.2-2.9-1.3-5.6-2.4-7.8-3.2-1.4,2.8-2.2,5.6-3.9,7.4-4.6,4.6-6.1,4.4-14.6-.7-7.2-4.2-9.4-8.7-7.7-15.2,1.7-6,7.5-10.4,14.4-10.7h5.5c0-.4.3-.9.4-1.3-4.4-1.7-9-2.8-13.2-5-7.4-3.9-13.1-3.7-20,2-5.5,4.4-13.5,5.8-20.3,8.4-.9.4-2.1,0-3.1,0-.2-.5-.4-1-.5-1.5,5-2.4,10-4.5,14.8-7.1,4.8-2.6,9.4-5.4,14.1-8.3-11.9-10.9-22.9-20.8-33.9-30.8.6-.7,1.1-1.3,1.7-2,11.5,9.4,22.9,18.8,34.7,28.4,6.5-9.7,8.2-20.1,8.4-32.2-9.9,4.3-19.2,8.4-28.3,12.4-.3-.4-.5-.9-.8-1.3.9-.8,1.7-1.9,2.7-2.4,6.4-3.3,12.7-7.3,19.5-9.5,5.7-1.9,7.3-4.2,7.2-10.1-.4-26.5-.3-53.1,0-79.5,0-3.9-1.3-5.2-4.8-6.6-7.7-3-14.9-7-22.3-10.7-1.1-.6-1.9-1.7-2.8-2.5.2-.4.5-.9.7-1.3,9.7,4.2,19.5,8.4,29.9,12.9,0-12.2-1.6-23-9-32.9-9.7,8.2-19.3,16.1-28.8,24.1-2.5,2.1-5.1,3.7-7.7,5.6h0v.3ZM210.7,268.6l-1,1.3c.2.2.5.3.7.5,0-.6.2-1.2.3-1.8-2.7-3.5-1.1-6.7,3.3-7.9,5.5-1.5,10.9-3.2,16.4-4.9v-2c-4.3-.7-8.6-1.7-13-1.9-5.6-.3-11,3.7-13,8.7-1.5,3.9,1.8,8.1,6.2,8h0ZM285.9,270.5c4.9,1.4,7.2-2.6,8.9-5.5,1-1.7,0-5.4-1.5-7.5-3.8-6-14.5-8.4-24.3-2,5.6,1.8,10.9,3.2,16,5.3,2.3.9,4,2.9,6,4.4-1.7,1.8-3.3,3.4-5,5.2-1.9.2-3.8.4-5.7.6v-4.9c-.4-.2-.8-.3-1.3-.5-.7,1.7-2.3,3.7-1.8,4.9.7,1.6,2.9,3.1,4.7,3.3,1.5.2,4.7.2,3.9-3.3h0ZM230.4,237.2c1.9-.3,4.4,0,5.5-1,3.6-3.4,7-7.3,9.8-11.4,1.5-2.2,2.8-5.6,2.1-7.8-3.6-10.8-14.5-22.2-29.9-18.5-2.7,6.9-5.2,13.5-7.7,20-.5,1.5-1,3.6-.3,4.6,3.7,4.9,0,4.5-3.2,4.9-.3,5.6,2.5,10.3,7,11.8,4.8,1.5,10.4.3,15.7,0,0,0,.2-1.5.3-2.2.2-.2.4-.4.6-.6h0ZM281.1,156.9h-64.2v36.4c14.9,2.9,26,9.8,33.1,20.5,5.3-14.1,16.1-19.8,30.9-20v-36.8h0ZM248.8,87.9c-4.9,13.9-17,18.4-31.7,18.7v35.7h64.4v-34.4c-6.7-2.1-13.6-2.8-19-6.1-5.3-3.2-9.1-8.9-13.8-13.8h0ZM218.4,101.6c15.6,3.5,25-7.5,29.5-18.3.5-1.2.4-3.1-.2-4.3-5.7-10.9-14.2-20.9-29.7-19.9-7,.5-11.4,5.2-10.5,12.2,1.4,1.1,2.8,2.4,3.1,3.8.6,2.4,0,5.1.8,7.5,2.1,6.3,4.5,12.5,7,19.2h0ZM292.6,228.2c-2.9-.4-6.2-.6-3.2-5,.6-.9-.3-2.8-.8-4.2-2.6-6.9-5.3-13.7-8.2-21.1-3.1.3-7,0-10.4,1-8.7,2.5-14.1,8.7-17.8,16.7-2.8,5.8,2.3,9.3,4.5,13.6.4.8.8,1.5,1.4,2.2,5.8,6.7,13,10.4,21.8,10.3,7.5,0,12.8-5.7,12.8-13.3h0ZM292.6,71.2c-.3-5.7-3.8-11.3-8.2-12-9.7-1.6-18.5.9-25.2,8.2-9.9,10.7-10.3,15.2-3,24.7,5.5,7.1,12.7,11.1,21.9,9.7,1.3-.2,2.8-1.8,3.4-3.1,1.5-3.7,2.5-7.6,3.7-11.4,1.2-3.6,4.2-7.6,3.4-10.7-1.1-4.5,1-4.7,3.8-5.3h0ZM276.6,55c-18.7-8.6-15.6-8.6-23.8-4.1,1.7,1.1,3.2,2.1,3.9,2.6h-15.1c1.6-.9,3.1-1.8,4.8-2.7-9.5-6.9-15.8,2-23.9,3.9,14,.9,20.1,11.5,27.1,21.7,6.5-10.8,13.6-20,26.9-21.4h0ZM223.9,244.7v1.3c7.4,1.2,13.6,9.7,22.4,3.1-.7-1-1.3-2-2.5-3.8,8.7,4.4,13.6-1.8,19.5-4-4.7-5.9-9-11.3-13.5-16.8-3.1,4.1-6.3,8.3-9.5,12.4-1.6,2-2.8,4.6-4.9,5.4-3.5,1.4-7.6,1.7-11.4,2.4h0ZM268.2,44.3c10.3,6.5,20.1,5.2,25.6-2.3,3.1-4.3,2.3-7.4-2.8-9.7-.5,4.3-2.5,6.5-7.2,7.1-5,.7-9.7,2.9-15.7,4.9h0ZM206.7,33.1c-3.7,3.2-3.9,5.9-.4,9.9,4.9,5.7,15,8.2,23.8,1.9-6.1-6.9-18.5-1.8-23.4-11.9h0ZM222.6,37.6c7,2,13,8.8,22.5,4.4-4.5-1.3-8.2-2.3-12.8-3.5,4.5-1.7,8-2.8,11.4-4.1-3.5-4.5-7.1-3-10.9-1.2-3.3,1.7-6.9,2.9-10.2,4.4ZM221.6,262.2c6.1,2.3,12.1,4.4,18,6.6,1.4-1.1,2.8-2.2,4.5-3.4-4.2-1.4-8.2-2.7-12-3.9,2-1.2,3.8-1.1,5.7-1.6,1.7-.5,3.2-1.5,5.3-2.5-8.7-3.5-14.1,4.5-21.5,4.9h0ZM256.1,34.5c3.5,1.4,6.7,2.6,10.6,4-3.5,1.4-6.4,2.5-9.2,3.5l.4,1.4c7.4.3,13.7-3.9,21.2-5.7-5.4-2-10-3.3-14.3-5.5-3.4-1.7-5.8-1.5-8.5,2.3h0ZM276,245.9c-9-7.1-15.6-1.4-22.8,3,9.2,7,15.2-2.4,22.8-3ZM276.9,262.1c-7.2-2.1-12.4-6.3-19.1-5.9-.2.6-.4,1.3-.6,1.9,2.9.9,6,1.8,10.1,3-4.4,1.7-8.1,2.9-12,4.4,2,1.4,3.4,2.4,4.8,3.4,5.1-2.1,10.1-4.1,16.6-6.9h0ZM236.7,27.4c9-4.8,9.1-5.9,2.3-12.9-8.6,3.5-9.1,5.8-2.3,12.9ZM237.7,272.5c-7.6,5.4-7.2,8.6,1.3,12.6,7.6-6,7.4-7.8-1.3-12.6ZM243.3,253.6c4.4,3.7,8.5,2.3,12.8,0-4.3-3.8-8.4-3.8-12.8,0h0ZM242.9,44.9c5.8,5.4,6.9,5.4,14,0h-14ZM256.4,262.6v-2.4h-13v2.4h13.1,0ZM219.7,265.6c-.3.3-.5.6-.8.9.4,1.3,1.5,3.3,1.1,3.7-1.4,1.2-3.3,1.8-5,2.7,2.1.8,4.3.9,6.2,0,1-.4,1.8-2.7,1.5-3.7-.4-1.4-2-2.4-2.9-3.5ZM204,232.3c-1.2.8-2.5,1.6-4.3,2.8,2.9,1.5,4.6,2.3,7,3.4-1.1-2.7-1.9-4.4-2.7-6.2h0ZM262.1,5.2c-1.8,2.1-3.4,3.3-3.2,3.8.6,1.2,2,2,3.9,3.8-.3-2.9-.4-4.5-.7-7.7Z"/>
  <path class="cls-1" d="M361,214.1c-4.6,2.3-9.2,4.4-13.8,6.6,0,.6,0,1.1,0,1.2,15.5,10.8,31.2,21.2,50.3,24.9,6,1.2,11.4.7,16.2-3.1,6.6-5.2,12.6-10.8,12.4-20.2,0-.5.2-1,.4-1.5,0-.3.5-.5.9-.9,3.6,1.2,3.2,4.1,2.8,6.9-2,10.4-15.3,26-32.7,23-12.9-2.3-24.4-7.6-35.1-14.6-8.8-5.8-17.7-11.7-26.5-17.7-1.5-1-2.8-2.2-4-3.3.3-.5.6-1,.9-1.5,4,2.1,8,4,11.9,6.1,7.4-8.4,17.1-13.5,28-15.1,10.7-1.6,21.6-1.4,32.1-1.9-.4-.5-1.3-1.7-2.6-3.3,4.4-2.8,8.6-5.5,12.7-8.4,1.4-1,2.7-3,2.7-4.7.2-22.3.2-44.6,0-66.9,0-1.7-1.6-3.8-3-4.9-3.7-2.7-8-4.8-12.5-7.6,4.7-3.7,8.9-7,13.3-10.4,4.8,3.4,9.3,7.1,14.1,10,1.8,1.1,4.8,1.5,6.7.8,7.1-2.7,14.1-5.5,20.9-8.9,3.7-1.9,6.2-1.2,9.2,1.4,22.8,19,26.1,52.7,13.7,73.3-7.7,12.7-19.5,19.3-32.5,25.2-8.4,3.9-15.6,4-22.9-1-5-3.4-8.7-2.8-12.3,2-1.3,1.7-3.1,2.9-5,4.8,6.4,3.3,14,4.4,17.1,12.6-2.2-.9-4.4-1.6-6.4-2.8-15.3-9.2-31.6-8.7-48.2-4.5-3,.8-5.7,3.1-8.5,4.7h0-.2ZM434,188.9c5.3,1.3,10.3,2.8,15.4,3.4,1.9.3,4.6-.5,6-1.9,10.9-10.6,13.7-23.8,13.8-38.6,0-17.4-7.1-30.8-18.5-42.8-.9-1-3-1.5-4.3-1.2-4.2,1-8.3,2.5-12.5,3.7v77.3h0Z"/>
  <path class="cls-1" d="M53.4,206c-1.7,0-2.7.5-3.4.2-14.8-5.2-26.7-13.7-31.9-29.3-6.3-19.1-7-38.5-.5-57.5,2.2-6.2,7.2-11.8,12-16.5,5.8-5.8,12.8-8.4,20.7-2.7,9.8,7.1,19.6,7.2,28.7-1.8,2.3-2.3,4.4-2.2,7.1,0,2.8,2.4,6,4.2,10,7-4.3,2.2-7.9,4.2-11.6,5.9-2.5,1.1-3.4,2.5-3.4,5.3.2,17.1,0,34.1.2,51.2,0,2,1.8,4.5,3.3,5.9,3.2,2.7,7,4.7,11.2,7.5-4.3,2.9-8.1,5.7-12,8.1-.9.5-2.8-.2-3.9-1-4.8-3.3-9.5-6.9-14.5-10.4-3.6,3.2-7.1,6.5-10.7,9.4-.9.7-2.6.6-3.8.9.6-1.2,1.1-2.5,1.7-3.6,0-.3.5-.5.8-.7,9.5-4.7,11.2-12.5,10.7-22.4-.9-15.3-.3-30.8-.2-46.1,0-3.2-.9-5.1-3.9-6-.8-.2-1.5-.7-2.3-1.1-8.8-3.9-13.9-3-18.7,5.6-3.3,6-5.8,13-6.9,19.8-2.2,13.2-1.5,26.5,1,39.7,2.4,12.5,8.4,22.6,18.4,30.5.6.5,1,1.2,2,2.3v-.2Z"/>
  <path class="cls-1" d="M75.1,83.4c-7.9,2.2-15.7,4.5-23.6,6.6-12.8,3.4-27.7-1.7-34.7-11.8-6.8-9.8-4-24.4,5.9-30.8,7.6-5,22.2-1.8,25.2,5.6,2.2,5.2,0,10.9-5.2,13.8-5.3,2.9-13.7,1.8-15.9-2.8-1.1-2.2-1.3-6,0-7.9,1.4-2.1,4.9-3.9,7.5-3.7,2.6,0,4.9,2.8,7.4,4.3-1,1.6-1.7,3.9-3.1,4.4-2.1.8-4.6.2-7.1.2,2.1,3.4,5.7,4.2,9,2.2,3.6-2.2,4.7-6.1,2.8-9.3-2.7-4.4-6.6-6.5-11.7-6.2-6.2.4-10.4,3.9-12.7,9.4-5,12.1,4.5,27.2,17.8,28.8,12.3,1.4,23.6-2.2,35-6.2-3.6-3.7-3.4-8.1-1.3-11.9,5.2-9.1,11.4-17.9,22.8-18.7,7-.5,14.6.5,21.1,3,9.1,3.5,17.7,8.8,26.2,13.9,7.6,4.4,14.7,9.4,22,14.2,1.8,1.2,3.3,2.6,5,3.8-.3.6-.7,1.2-1,1.8-4.2-2.4-8.4-4.6-12.6-7h0c-15.7-10.6-31.2-21.6-50.4-25.4-2.8-.6-6-1.3-8.8-.8-12.8,2.2-21.4,13.2-21,25.8,22.4-6.2,44.5-8.8,64.8,6.2-2.2.4-4.2,0-6.2-.6-3.8-1.3-7.5-3-11.3-4.2-15.8-5.1-31.2-3.8-46.2,3.3l.2-.2v.2Z"/>
  <path class="cls-1" d="M138.1,212.3c-21-8.9-41.7-8.1-61.9,4.7l-.9-1.9c1.5-1.6,2.7-3.4,4.4-4.5,6.6-4.3,13.9-7,21.8-7,11.3,0,22.8-1.4,33.4,3.4,5.9,2.7,11.5,6.3,17.1,9.6,1,.6,1.6,1.9,2.4,2.9-.3.5-.6.9-.9,1.4-4.6-2.4-9.2-4.7-13.7-7-5.4,6.4-12.8,9.3-20.4,10.5-16.7,2.6-33.1,1.5-49.1-5-10.1-4.1-20.8-6.8-32-5.9-8.3.6-14.5,4.3-17.9,12-3,7.1-4.3,14.2.9,21.1,5.4,7.2,16.9,7.3,22.2,0,2.2-2.9.8-7.9-2.8-10-4-2.5-8.2-1.2-10.4,2.9,2.5-.4,5.2-1.1,7.9-1.1s3,1.4,3.3,2.5c.3,1.4-.3,3.5-1.3,4.4-3.1,2.7-7.3,3.9-10.6,1.2-2.1-1.7-3.8-5.3-3.6-7.9.4-4.3,4.1-6.2,8.4-6.6,5.6-.5,10.4.8,13.4,6.2,2.4,4.4,1.2,8.5-1.7,12.3-.8,1-1.9,2.1-3,2.6-14.3,6.3-30-2.4-29.4-17.7.6-14.4,10.9-24.9,25.4-25.7,11.7-.7,22.1,3.5,32.9,6.5,9.6,2.7,19.5,5.7,29.4,6.6,7,.7,14.2-1.6,21.2-3.2,5.3-1.3,10.4-3.8,15.5-5.9v-1.6h0Z"/>
  <path class="cls-1" d="M113.4,170.7c0-6.8-.4-12.9,0-19,.8-9.9-4.2-16.2-12.9-21.4,0,10.9-.2,21.2.2,31.5,0,1.7,3,3.1,4.5,4.8,1.4,1.6,2.7,3.2,3.9,4.9-2.9.7-6.3,2.7-8.8,1.9-3.5-1-6.7-3.8-9.6-6.3-1.1-.9-1.6-2.8-1.7-4.4-.2-8.5-.2-17.2,0-25.8,0-1.4.9-3.3,2-4.1,8-5.2,16.6-5.2,25-1.5,6.3,2.8,7.9,9.4,8.4,15.7.5,5.7.3,11.5,0,17.2,0,1.4-1.9,3.1-3.3,3.9-2.4,1.2-5.2,1.7-7.7,2.4v.2Z"/>
  <path class="cls-1" d="M177.5,130.7c-2.8.2-5,.4-8.6.7,6.7-8.8,12.6-16.6,18.6-24.5.4,0,.7.2,1.1.3v14.9c2.9-.6,5.2-1.1,7.5-1.5,2.2,9.3,1.7,10.1-7.3,10.7v7.3c0,9.6.2,19.3,0,28.9-.2,4.7.6,8.5,5.1,11,1.6.9,2.8,2.4,4.9,4-3.2,2.9-5.9,5.4-8.8,8.2-3.7-3.7-7.6-7.3-11-11.2-1-1.2-1.1-3.4-1.1-5.2,0-13.7,0-27.3,0-41,0-.8-.2-1.7-.3-2.7h0Z"/>
  <path class="cls-1" d="M350.6,144.9c.7-3.3.8-7.7-4.4-9.7-1.7-.7-3.6-.9-5.5-.7-1.8.2-3.6.9-5.3,1.6-5.1,2.2-9.1,1.8-11.1-4.2,6.1-4.5,7.1-4.4,11.8,1.2,3.2-1.1,6.5-2.3,9.8-3.4,6.6-2.5,15.8,4,15.8,11.1s.2,7.5,0,11.1c-.5,7.2-.5,14,8.6,16-5.8,6.8-7.6,7.3-13.7,2.3-3.4-2.9-6.5-3-10.4-1.4-5.4,2.3-11.1,3.8-16.6,5.9-3.3,1.3-4.7,0-4.9-3.3-.4-8.6,1.1-17,8.9-21.7,4.5-2.8,10.6-2.9,16.9-4.5h0ZM350.5,149.9c-4.7-2.1-9.1-1.8-12.7,1.8s-4.1,12.1-1.7,17c.8-.2,1.6-.5,2.4-.7,8.6-2.7,12.6-8.7,12-18.1Z"/>
  <path class="cls-1" d="M315.9,180c-3.7,3.5-7.5,7-11.4,10.6l-7.5-7.5c.6-.8.9-1.7,1.5-2.1,6.4-4.4,7.7-10.4,7.3-17.9-.6-11.6-.4-23.3,0-34.9.2-4.7-.9-8.1-5.1-10.3-1.2-.6-2.1-1.7-3.8-3,2.9-2.4,5.7-4.5,8.8-7.1,2.7,2.4,6,5,8.9,8.2,1.2,1.3,1.7,3.6,1.7,5.4,0,17.4,0,34.7,0,52.1,0,2.1.9,4.1,1.3,6.2-.6,0-1.3,0-1.9.2h0Z"/>
  <path class="cls-1" d="M457,54c2.5-.6,5-1.4,7.5-1.9,4-.7,7.3,1.1,8.6,4.6,1.5,3.6.7,7.4-3.1,9.7-4.7,2.9-12.6,2-16.3-2-3.6-3.9-4-9.6-.6-14.3,1.2-1.6,2.8-2.9,4.6-3.7,6.4-2.8,18.2-.3,23,4.5,6.2,6.3,7.6,14.8,3.9,23.3-5.2,11.9-20.1,19.3-33.8,16.1-10.3-2.4-20.4-5.6-30.5-8.9-17.2-5.7-34-5.7-50.6,2-2.8,1.3-5.7,1.9-8.8,2.2,5.1-5.6,11.6-8.5,18.8-9.7,14.4-2.5,28.7-2,42.8,2.6,10.5,3.3,21.1,6.8,31.9,8.2,17,2.2,26.8-6.8,27.2-23.7.3-11.3-11.9-18.3-21.6-12.9-1.3.7-1.9,2.8-2.8,4.3-.6.2-1.8.6-1.7.7.5,2.5.3,5.8,1.9,7.1,2,1.7,5.5,2.4,8.1,2,1.8-.3,3-3.2,4.5-5-.4-.4-.8-.8-1.3-1.1-.8,4-3.8,4.5-6.9,4.1-4.7-.6-4.9-4.3-4.7-8h-.2Z"/>
  <path class="cls-1" d="M360.8,214.3c3.6,1.2,7.5,2,11,3.4,15.2,6.7,30.6,6.9,46.3,2,6.1-2,12.3-3.5,18.2-6,8.8-3.5,18-4.1,27.3-3.6,9.4.5,19.6,9.7,22.6,20.4,2.3,8-1.4,16.9-9.1,22.2-8.6,6-22.7,2.4-25.6-6.7-1.5-4.6,1.2-10.4,5.9-12.6,5.4-2.5,12.8-1.3,15.3,2.6,2.3,3.4,1.5,7.9-1.8,10.3-2.9,2.3-10.4,2-12.1-.9-.8-1.4-1-4.5-.2-5,2-1.2,4.6-1.9,6.9-1.7,1.2,0,2.3,2.5,4.1,4.8-.2-1.9,0-4.2-.7-4.8-2.2-1.5-5-3.2-7.4-2.9-3.9.5-6.4,3.5-6.1,8,.2,4,4.2,7.7,9,8.2,12,1.4,19.6-7.5,17.2-19.8-2.4-12-10-18.1-22.3-18.5-12.8-.4-24.5,3.9-36.2,8.1-14.6,5.1-29.5,5.2-44.3,2.6-5.8-1-11-4.7-16.5-7.4-.7-.3-.8-1.8-1.2-2.8h0c0,0-.3.2-.3.2Z"/>
  <path class="cls-1" d="M157.6,168.4c-4.2,2.8-6.7,4.4-9.4,6.2-4.3-2.8-8.5-5.7-12.5-8.4,0-8.5,0-17.3,0-25.9,0-1-1.7-2.2-2.8-2.9-1.8-1.2-3.7-2-5.8-2.9,6-6.3,7.6-6.9,13.8-2.6,4.3,3,7.7,2.8,12.2.3,8.3-4.7,8.4-4.3,15.9,2.8-3.1,2.3-6.2,4.4-9.5,6.9-1.4-2.5-2.6-4.5-3.6-6.4-5.6,1.6-8.4,5.1-8.4,10.6v3c0,7.9-2.4,16.8,10.4,19.3h0Z"/>
  <path class="cls-1" d="M391.8,133.3c12.4-6.7,19.8-2.3,19.7,10.4,0,8.1,0,16.1-.9,24.1-.9,7.9-10.1,15.6-18.1,15.9-.5,0-1.1-.8-2-1.5,9.6-6.7,10.9-16.4,10.2-26.9-.2-2.8,0-5.7,0-8.5.2-6.1.4-12.1-8.9-13.5h0Z"/>
  <path class="cls-1" d="M376.9,166.4c0-8.7,0-17.3,0-25.8,0-1.1-1.6-2.4-2.8-3-1.8-1.2-3.7-2-5.8-2.9,4.5-4.5,10.8-4.1,19,1.3,0,8.8,0,17.4.2,25.8,0,1.2,2,2.4,3.2,3.3,1.7,1.4,3.4,2.6,5.2,3.8-6.6,6.5-6.8,6.5-13.4,1.5-2-1.5-4-2.8-5.5-3.8h0Z"/>
  <path class="cls-1" d="M345.8,79.2c-4.3,2.4-8.6,4.7-13,7.1-.3-.3-.5-.6-.8-1,.3-.6.4-1.6.9-1.9,17-10.2,31.9-23.7,50.9-30.8,8.6-3.2,17.4-5,26.5-2.5,9.3,2.6,20,15.9,19.6,24.6,0,1.6-1,3-1.6,4.6-.5,0-1,0-1.5,0-.5-1.5-1.2-2.9-1.4-4.5-1.1-14.3-15.9-24.2-30-21-19,4.3-34.5,14.6-49.9,25.5l.2-.2h0Z"/>
  <path class="cls-1" d="M165.5,217.4c-4.7,3-9.4,6.2-14,9.2-12.4,8.1-24,17.6-38.5,21.6-5.9,1.7-12.2,2.7-18.3,2.6-10.4,0-24-13.2-25.2-23.5-.2-2.1.8-4.2,1.3-6.4h1.8c.5,1.3,1.2,2.5,1.3,3.7,1.5,15.4,16.1,25.2,31,21.7,17.5-4.2,32-13.7,46.6-23.4,4.1-2.8,8.6-5.1,13-7.7.4.7.8,1.4,1.2,2.1h0Z"/>
  <path class="cls-1" d="M154,79.4c-1.1,1.7-1.8,3.8-3.2,5.1-8.7,7.1-18.9,11.2-30,12.1-11.4.9-23,1.8-33.9-2.9-3.3-1.5-6.5-3.4-9.4-5.7-1.3-.9-1.6-3-2.4-4.5l-.2.2c2.1.7,4.1,1.3,6.1,2.1,7.1,2.5,14,6.1,21.2,7.1,12.7,1.8,25.4,1,37-6.2,4.6-2.8,9.9-4.7,14.8-7.1h0Z"/>
  <path class="cls-1" d="M345.7,79.4c4.8,2.4,9.8,4.4,14.3,7.3,12.2,7.6,25.5,7.9,38.9,6,6.8-1,13.2-4.6,19.6-7,1.7-.6,3.4-1.4,5.4-1.5-3.4,6.7-9.5,9.6-15.9,10.9-20.7,4.1-40.9,3.3-58.7-10-1.7-1.3-2.5-3.8-3.6-5.8l-.2.2h0Z"/>
  <path class="cls-1" d="M159.2,97.7c.9,1.3,1.6,2.6,2.6,3.7,2.6,3,6.3,5.7,7.6,9.1,2.5,6.7-.6,11.6-7.2,14.6-6,2.7-15.1,1-17.9-3.8-1.3-2.3-1.8-5.5-1.3-8,1.3-5.7,5.6-9.2,11.5-12.8-.5,2.2-.6,3.2-1.1,4.1-1,1.6-2.2,2.9-3.3,4.4-4.1,5.7-4.5,9.7-1.2,12,5.3,3.5,13.8,2.1,16-3.5,1-2.4.4-6.6-1.2-8.5-3.7-4.5-8.5-8.1-12.9-12.1-2-1.8-3.8-3.6-5.7-5.4.3-.4.6-.9.9-1.3,1.9,1,3.7,2.1,5.6,3,2.6,1.5,5.1,2.9,7.8,4.4h-.2Z"/>
  <path class="cls-1" d="M343.9,101.7c7.2.6,12.3,8.4,13,12.8.6,4.3-1.3,7.5-4.9,9.7-5.8,3.4-13.1,3-18-1-5.3-4.2-6.8-11.3-2.2-15.9,5.7-5.8,12.6-10.5,19-15.7.4-.3,1.2,0,2.5,1-3.5,3.1-7.2,6.2-10.6,9.4-2.5,2.3-5.1,4.4-7.3,7-3.5,4.3-2.4,9.5,2.4,12.6,3.8,2.5,13.2,1.5,14.1-2.1.7-2.5-.3-5.9-1.5-8.4-1.5-3.1-3.9-5.9-6.4-9.3h0Z"/>
  <path class="cls-1" d="M145.5,208.5c3.7-3.3,7.4-6.6,11.1-9.9,2.4-2.2,5.2-4,6.9-6.6,1.5-2.3,3.2-6.1,2.4-7.9-1.5-2.9-4.9-6.1-7.9-6.6-3.2-.5-8,1.2-10.1,3.5-1.3,1.4.9,6.3,2.2,9.3,1.2,2.8,3.2,5,4.3,8-6.2-2.1-10.2-6.1-11.4-12.2-1.5-7.6,6.7-14.3,14.8-12.5,5.4,1.2,10.3,3.3,11.9,9.4s-1.3,10.4-5.7,14c-4.4,3.6-8.9,7.2-13.6,10.6-1.2.9-2.7,1.4-4,2.2-.3-.5-.6-.9-.9-1.4h0Z"/>
  <path class="cls-1" d="M352.6,209.9c-7.9-5.2-16.4-10-21.5-18.2-5.5-8.8,1.4-16.5,11.8-18.1,6-.9,13,4.4,14,9.3.9,4.4-4.3,14-12.5,15.4,2.2-3.2,4-5.7,5.6-8.3,2.1-3.3,5.2-6.9.9-10.7-3.9-3.4-11.8-2.8-15.2.9-3.7,4.1-3.7,7.7.5,11.9,4,4,8.4,7.7,12.7,11.5,1.7,1.6,3.4,3,5.1,4.6l-1.5,1.5h.2Z"/>
  <path class="cls-1" d="M261.6,293.1c.6-1.7,1.2-3.2,1.9-5.2,3.2,2.1,2.8,4.5,1,6.7-1.9,2.3-4.3,2.9-7,.6-2.3-2.1-3.7-4.1-1-6.7,1.6-1.5,3.6-2.3,5.2-3.7,2.1-1.9,3.8-4.1,5.8-6.2.6-.6,1.3-1.1,1.9-1.7.4.8,1.5,1.9,1.2,2.3-1.4,2.2-2.8,4.4-4.6,6.1-1.6,1.5-3.9,1.9-5.5,3.3-.9.8-.8,2.7-1.1,4,.8,0,1.5.3,2.3.4h0Z"/>
  <path class="cls-1" d="M323,189.4c-2-2.6-4-5.1-6-7.7l1.8-1.4c2,2.6,4,5.1,6,7.7-.6.5-1.2,1-1.8,1.4Z"/>
  <path class="cls-1" d="M317.9,179.8c-.2.5-.4,1-.6,1.4-.4-.4-.9-.8-1.3-1.2.6,0,1.3,0,1.9-.2h0Z"/>
  <path class="cls-1" d="M229.9,237.7c-.3-.3-.6-.5-.8-.8.5,0,.9.2,1.4.3-.2.2-.4.4-.6.6h0Z"/>
</svg>