<?xml version="1.0" encoding="UTF-8"?>
<svg id="Calque_1" data-name="Calque 1" xmlns="http://www.w3.org/2000/svg" version="1.1" viewBox="0 0 500 300">
  <defs>
    <style>
      .cls-1 {
        fill: #75683b;
        stroke-width: 0px;
      }
    </style>
  </defs>
  <path class="cls-1" d="M145.8,223.4c-18.6-7-35.1-17.2-49.3-31.2-1.2-1.2-2.8-2.3-4.3-2.9-1-.4-2.3,0-3.3.4-.4.1-.8,1.1-.7,1.5.1.5.9.8,1.4,1.2.4-.5.8-1.1,1.2-1.8.1.2.7.7.6,1.1-.1.6-.6,1.2-1.1,1.5-1,.6-2.2.4-2.9-.6-.8-1-.8-2.1,0-3.2,1.2-1.7,3.4-2.3,5.3-1.4,1.4.7,2.8,1.7,4,2.7,4.7,4,9.4,8.2,14.1,12.3.6.5,1.2.9,1.8,1.2,0,0,.2-.2.3-.3-.3-.4-.6-.7-1-1-4.5-4.1-9.2-8.1-13.6-12.4-2.9-2.8-5.4-5.9-8.1-8.8-1.1-1.2-2.3-2.1-3.7-2.9-.5-.3-1.9,0-2.3.5s-.3,1.7,0,2.4c.6,1.2,1.6,1.1,2.9-.3.1,0,.2.1.4.2-.4.6-.8,1.6-1.4,1.8-.8.1-2,0-2.6-.5-1.2-1-1.2-3.5-.1-4.8.9-1.2,2.5-1.5,4-.3,1.4,1,2.6,2.3,3.8,3.6,3.4,3.7,6.7,7.6,10,11.3.4.4.9.8,1.6,1.1-.1-.3-.2-.6-.4-.8-2.3-2.9-4.8-5.9-7.2-8.8-5.6-6.9-9.7-14.7-13.2-22.8-.8-1.8-1.2-4-3.4-4.8,0,0,.1-.1.2-.2,1.8.4,2.1,0,2.3-2.1h.4v2.1c0,.4-.3,1-.1,1.4,3.1,7.8,6.7,15.3,11.7,22.1.1.2.4.4.5.5,0,.1.1.4.1.5h.2c0-.2,0-.4,0-.7-3.2-6.2-5.6-12.8-7.6-19.5-1.8-6.2-3.9-12.5-5.9-18.6-.7-2.2-1.4-4.4-2.3-6.5-.4-1-1.4-1.8-2.9-1,.4.4.7.8,1,1.1,0,0,0,.2-.1.3-.4-.2-1.2-.4-1.3-.7-.2-.5-.1-1.3.2-1.7s1.3-.7,1.8-.4c.9.5,1.9,1.2,2.3,2.1,1,2,1.6,4.1,2.3,6.2,1,3.2,1.8,6.3,2.7,9.5.2,0,.4,0,.6-.1-.4-2.6-.9-5.3-1.5-7.9-1-5.1-1.9-10.3-3.2-15.4-.5-2.1-1.8-4.2-2.9-6.2-.3-.6-1-1.1-1.6-1.5-.8-.5-1.6-.6-2.1.4-.4.9,0,1.5,1,1.8.2,0,.4,0,.6.1,0,.1,0,.3,0,.4-.6.1-1.3.7-1.8.4-.6-.3-1.3-1-1.4-1.7,0-.8.2-2.1.8-2.4.9-.4,2.4-.7,3.2-.2,1.2.8,2.6,2.1,3.1,3.5,1.3,3.4,2.2,6.9,3.2,10.3.3,1,.5,2.1,1,3.1-.7-10.4-1.2-20.8-1.8-31-2.8-.9-3.1-1.2-3.1-2.6.7.3,1.6,1.1,2.4,1,1.4-.2,1.5-1.5,1.2-3.1,1.2,1.2,1.1,2.2.4,3.4-.2.4-.5,1-.4,1.3,1.6,6.7,1.3,13.7,1.9,20.6,0,.3,0,.5.3.8,0-.5.3-1,.3-1.5.6-13.6,3.4-26.8,9.2-39.3,2.2-4.8,4-9.7,4.9-14.9.4-2.7.5-5.4-.2-8-1.4-5.4-6.9-8.4-11.5-6.4-4,1.8-5.8,7.6-3.6,11.3,1.2,2.1,4.2,3.3,6.5,2.6,2.5-.7,3.7-3.3,2.6-5.6-.2-.4-.5-.9-.8-1.3,1.2.4,2.1,1.6,2.1,3.3.1,2.8-1.3,5.1-3.7,5.8-2.6.8-5.8-.4-7.3-2.8-1.7-2.6-1.8-5.5-1-8.4,1-3.7,3.2-6.2,6.9-7,3.9-.7,7.2.7,9.5,3.9,2.7,3.7,3.1,7.8,2,12.2-1.5,6.5-4.3,12.5-6.8,18.6-2.7,6.5-4.6,13.1-5.7,20,0,.4-.2.7-.3,1,0,0,.1,0,.2,0l.4-.9c4.5-12.1,9.9-23.8,17-34.6,2.6-3.9,5.3-7.7,8-11.4,2.1-3,4.3-5.9,4.9-9.8.1-1.2-.1-2.3-1.4-2.9-1.1-.5-2.1-.1-2.8.7s-.7,1.2-.6,1.7c.2.7.8,1.2,1.2,1.8.5-.4,1-.9,1.6-1.5,0,.3.4,1.1.2,1.5-.4.5-1.2,1-1.8,1-.8-.1-1.8-.6-2.3-1.2-.7-1,0-3.3.9-4.3,1-1,2.3-1.2,3.6-.7,1.5.6,2.6,2.1,2.3,3.5-.4,1.8-.9,3.7-1.8,5.3-1.2,2.2-2.6,4.3-4.2,6.2-6,7.4-10.6,15.8-15,24.3.3-.4.7-.7.9-1,11.4-17.8,26.8-31.7,43.4-44.5,3.7-2.9,7.3-5.7,10-9.5,3.6-5,4.8-10.6,4-16.7-.9-5.6-4.4-9.2-10.1-10.5-4.8-1-10.6,1.3-13.5,5.5-2.1,3-3.2,6.4-2.8,10.1.7,6.1,7.3,10.1,13,7.9,3.3-1.2,4.5-6.2,2.1-8.9-1.2-1.4-3.7-1.5-5.1-.3l-.9.9c.1-1.8,1.4-3.2,3.3-3.8,1.5-.4,3.5.4,4.5,2.1,3.1,4.7.4,11.3-5,12.5-6.8,1.5-12.2-2.1-13.5-9.1-1.7-8.7,4-16.7,12.9-18.6,8.7-1.8,15.5,3.2,16.7,11.9,1.4,10.3-2.8,18.2-10.5,24.4-9,7.3-18,14.6-26.1,22.9-.3.3-.5.6-.7,1.1.4-.2.9-.4,1.2-.7,11.8-9,24.7-15.9,38.2-21.9,1-.4,1.7-.8,1.8-2.1,0-1,.8-1.8,2-2.1,0,.1.1.3,0,.3-.9,1-1.5,2-.6,3.2,1,1.4,2.4,1.1,3.8.6,0,0,0,0,.1.1-1.1,1.6-2.6,2-4.3,1-.4-.2-1.2-.4-1.6-.2-11.5,4.8-22.6,10.6-32.9,17.8-.4.3-.7.6-1.1.9v.6c16.1-8.6,33-13,51.1-13-3,.6-6.1,1-9.1,1.8-10.6,2.6-20,7.1-27.4,15.3-6.5,7-10.1,15.6-11.3,24.9-2.1,15.5,3.4,28.7,13.1,40.4,6.6,8,14.7,14.1,23.8,19.1,3.2,1.8,6.5,3.7,9.8,5.5,9.5-19.1,29.3-28.2,45.8-28,.6-2.3.4-2.7-1.8-3.2-4.2-.9-7.2-3.2-8.6-7.3-1.2-3.7-2.4-7.5-3.5-11.3-2.3-8.3-5.9-15.8-12.8-21.4-12-9.9-28.3-7.1-37.9,4.9-7.5,9.3-7.1,21.3.5,30.1,7.4,8.4,19.4,9.5,27.7,2.4,7.9-6.7,7.4-18.1-.9-23.6-4.6-3.1-11.7-2.9-16,.5-3.6,2.8-4.5,7.9-2.1,11.7,1.5,2.4,3.8,3.4,6.7,3.2,2.3-.1,3.7-1.5,3.8-3.4.1-1.8-1-3.2-3.1-3.8,1.7-.7,3.2-.6,4.3.4,1.5,1.4,2,3.6,1.2,5.4-.7,1.7-2,2.7-3.7,3.4-5.6,2.1-11.5-1.5-12.6-7.8-.8-4.7,1.4-9.2,5.8-11.6,5.7-3.2,14.6-3.2,20.2,3.4,4.9,5.7,5.2,14.3.4,20.4-5.6,7.1-13.2,9.7-21.9,7.5-9-2.2-16.7-8.7-18.6-19.7-1.4-7.9,1.8-20.9,13.2-27.1,8.4-4.6,17.4-5.4,26.6-2.9,20,5.4,32.6,18.1,37.6,38.3.6,2.4.7,5,1.1,7.6,0,.5.4,1,.6,1.5.2-.4.6-.9.6-1.4,1.1-13.4-1.9-25.6-9.8-36.5-9.4-12.9-22.1-20.1-38-21.6-1.2-.1-2.3,0-3.6.2-1.1,0-2.3.2-3.4,0,1.3-.6,2.6-1,4-1.7,3.3-1.8,6.7-3.5,9.9-5.5,4-2.5,7-5.9,9.5-10,2.1-3.5,4.2-7,6.3-10.5,1.2-2.1,2.1-2.5,3.7-2.8-2.8,4.1-2.6,8.4-1.2,12.8.4,1.5,1.5,2.9,2.7,3.9,3,2.5,6,5.1,9.5,7,7,3.9,13.4,8.4,19.1,14,0,0,.1.1.2.2.2.1.4.3.6.4,0,0,.1.1.2.2h0c0-.1-.2-.1-.3-.1,0-.2-.1-.4-.2-.7,0-.1-.1-.3-.2-.4-3.1-4.4-6.2-8.8-9.4-13.2-2.8-3.9-5.7-7.7-6.8-12.5-1.3-5.6,1.4-13.6,9.9-14.5,3.7-.4,6.7,1.2,8.8,4.3,2,3,2.2,6.4.6,9.6-2.1,4.2-8.3,5.4-12,2.6-3.1-2.3-2.9-8.1.3-10.2,1.5-1,3.1-.8,4.6-.1,1.3.6,1.8,1.8,1.9,3.2,0,1.3-.5,2.3-1.7,2.9-1.3.7-2.1.4-2.6-1.2.1,0,.3,0,.4,0,1.2.4,2.1.4,2.4-1,.3-1.3-.5-2.1-1.7-2.4-1.9-.6-3.4.2-4.1,2.1-1.3,3.6.7,6.7,4.5,6.9,3.8.2,6-1,7-3.8,1.2-3.4,0-7.3-2.9-9.2-3.2-2.1-6.5-2.2-9.8-.3-3.4,2-4.3,5.2-4.1,8.8.1,3.5,1.4,6.7,3.4,9.5,4.3,6,8.7,12,13.1,18,3.3,4.5,6.6,9.2,9.9,13.8.3.4.5.7.8,1,.1,0,.2,0,.4-.1-.7-1.8-1.4-3.5-2-5.3-.7-2-1.4-4-1.8-6.1-.4-2,1-3.5,2.8-3.8,2.1-.3,4.1.8,4.4,2.7.1.7-.2,1.8-.7,2.3s-1.4,0-2.3,0c1-.6,1.6-1,2.2-1.3-.7-.8-1.4-1.9-2.3-2.2-1.1-.4-2.2.4-2.5,1.5-.2.7-.2,1.6,0,2.3,2.2,6.1,4.4,12.2,6.7,18.3,0,.1.1.3.2.4.1,0,.2-.1.4-.1-.4-1.8-1-3.5-1.2-5.3-.3-1.5-.5-3-.4-4.5.2-2.3,2.1-3.6,4.3-3.2,2,.3,3.2,2,2.8,4.1-.1.7-.9,1.5-1.5,1.9-.4.3-1.2,0-1.8-.3,1.2-.4,2.4-.5,2.3-2.1-.1-1.4-1.1-1.9-2.3-2.1-1.2-.1-2.6.8-2.5,2.2,0,2.4.3,5,1,7.3,3.7,12,6.4,24.3,7,36.9.1,3.2.4,6.3.9,9.5,0-1.4.4-2.7.3-4.1-.2-6.3-.4-12.5-.7-18.9-.2-4.9-1.2-9.8,0-14.7.5-2.3,1.4-4.8,2.8-6.8,3.7-5.4,10.4-4.8,13.6.7,2.6,4.5,1.9,9-1.7,11.6-2,1.4-4.7,1.3-6.5-.2-1.8-1.5-2.3-4.3-1.2-6.4.6-1,1.5-1.8,2.6-1.5.8.2,1.5.9,2.1,1.2-1.1.4-2.3.5-2.9,1.2-1,1.1-.7,3.2.3,4.2,1.7,1.7,4.7,1.4,6-.6,2.3-3.4,1-9.2-2.5-11.3-3.4-2.1-7.8-.7-10.1,3.2-1.5,2.6-2.2,5.6-2.1,8.5.1,5.4.7,10.9,1,16.3.7,11.2,0,22.2-2.1,33.2-.7,3.7-1.5,7.5-2.2,11.3,0,.4-.1.7-.2,1h.2l.3-.8c.7-2.7,1.3-5.4,2-8.1.4-2,1-3.9,2.6-5.4,1.7-1.5,4.1-1.7,5.4-.1.6.7,1,2,.8,2.8-.3.9-1.3,1.7-2.2,2.1-.5.2-1.5-.4-2.1-.8-.2-.2.2-1.2.4-1.6.7.5,1.1,1,1.5,1.3.4-.4,1-.9,1-1.4,0-1-.4-2.1-1.5-1.9-1,.1-2.2.7-2.7,1.4-.9,1.2-1.5,2.6-1.8,4-.6,2.3-.9,4.5-1.2,6.8.9-.4,1.8-.9,2.8-1,1.8-.4,3.7.9,4,2.6.3,1.7-.8,3.2-2.6,3.6-1.1.2-1.9-.1-2.3-1.1-.4-1,.4-1.5,1.2-1.9h0c.2.6.4,1.6.7,1.7,1,.1,1.5-.6,1.5-1.5,0-1.1-.4-2-1.5-1.8-1,0-2.1.4-2.8,1-1.2,1.2-2.3,2.6-3.2,4.1-4.3,8.1-8.3,16.2-13.8,23.6-1.3,1.8-2.8,3.4-4.2,5.1-.1.1-.3.3-.4.4,0,0,0,.1.1.1.1-.1.3-.2.5-.4,4.9-2.9,9.9-5.6,14.7-8.6,1.8-1,3.3-2.3,3.4-4.7,0-1.4-.7-2.1-1.7-1.6-.4.2-.8.7-.8,1,0,.4.5.8,1,1.5-.4,0-1,.3-1.3,0-.4-.4-.7-1-.7-1.5,0-1,1.5-2.4,2.5-2.4,1.5,0,1.8,1.1,2.1,2.3.3,1.8-.3,3.2-1.6,4.3-1.5,1.2-3.2,2.3-4.8,3.4-1.5,1-3,1.8-4.5,2.8-.1,0-.4.1-.5.2v.2c.2,0,.4,0,.7-.1,7-3.1,14.1-5.7,21.6-7.2,2.4-.4,4.9-.8,7.4-1.1,1,0,1.3-.4,1.3-1.4v-7.2c-3.2.4-5.9,1.8-8.1,3.4.8-3.4,1.6-6.9,2.4-10.5,1.6.4,3.5.9,5.7,1.5v-33c0-4.7-2.1-6.5-6.8-5.7-.7.1-1.4.3-2.2.4.4-1.8,1.5-2.8,3.2-3.2,2.3-.5,3.2-2,3.2-4.1,0-1.8.2-3.7.4-5.9,3.4,4.7,7.6,8.4,12.8,10.1-.4,1.2-1.2,2.3-1.2,3.5-.1,3.2,0,6.4.1,9.7.5-1.2.9-2.5,1.5-3.7.7-1.5,1.2-3.1,2.3-4.3,3.4-3.7,3.9-8.2,4.2-12.8,0-.5,0-1,.1-1.5,0-.2.2-.4.5-1.2.5.9,1,1.4,1.2,2.1.3,2,.7,4,.6,6-.1,4.9,1.7,9.1,4.2,13.1,5.1,8.4,6.5,17.4,4.3,26.9-.4,1.9-1.5,3.7-2.3,5.5-.1,0-.3,0-.4-.1.2-1.7.5-3.4.7-5.1.6-6.4-.6-12.3-4.8-17.4-3.2-3.9-5.7-8.1-6.5-13.5-.4.7-.7,1-1,1.5-3,5-4.5,10.3-4.6,16.1-.1,5.4,0,10.8,0,16.2s.4,1.4,1,1.7c6,4.1,12.4,5.4,19.1,1.6-.8,2.3-6,5.6-9.2,5.9-3.4.4-5.1,0-10.9-2.7v7.8c2.6.3,5.1.6,7.6,1,11.4,1.8,22.2,5.6,32.6,10.3,7.8,3.5,15.6,7.1,23.3,10.6,4.5,1.9,9.2,2.6,14,1.4,4.1-1,7.2-3.4,8.3-7.8.4-1.8,0-3.4-1.4-4.7-3.3-3.4-10.6-4.8-15-2.7-1.8.9-2.9,2.3-2.9,4.4s1.1,3.4,2.9,4c1.4.5,2.9.8,4.3.9,2.1.1,3.3-.8,3.5-2.3.1-1.5-.4-2.1-2.6-2.8,1.8-.8,3.1-.5,3.9.7,1,1.5.6,3.4-.8,4.6-3.4,2.7-11.2,1-13-3-1.2-2.6-.4-5.4,2.2-7.2,3.2-2.1,6.9-2.4,10.6-2.1,2.7.3,5.3,1.2,7.5,2.9,3.2,2.4,4.1,5.8,2.5,9.4-2,4.5-5.7,6.6-10.3,7.3-7.1,1-13.6-1-20-3.9-7.7-3.5-15.4-7.2-23.2-10.5-4.2-1.8-8.7-2.9-13-4.3-.5-.1-1-.2-1.5-.2,4.1,2.3,7.3,5.5,10.4,9,1.5,1.6,3.2,3.1,5.1,4.4.8.6,2,.9,3,.9s1.6-.6,2.1-1.2c.2-.3,0-1.5-.4-1.8-.6-.4-1.5-.2-2.6-.4.7-.4,1.2-1,1.8-1s1.8.6,2,1.1c.2,1,.3,2.4-.3,2.9-.8.7-2.2,1.1-3.4,1.1-2.1,0-3.9-1.1-5.4-2.5-1.3-1.2-2.6-2.4-3.7-3.7-7.3-8.1-16.7-11.7-27.3-12.5h-1c0,7.6-.4,15,1.2,22.4.4,1.5,1.2,2.9,1.8,4.4-5.5,2.2-7.6,7.4-9,12.8-1,3.7-1.3,7.6-1.9,11.3,0,.4,0,.8-.1,1.2-.1,0-.3.1-.4.2-.3-.4-.7-.7-.8-1.2-.1-.3,0-.7,0-1.1v-50.3c-3.2.5-6.4.8-9.5,1.5-14.7,3.2-28,9.8-40.2,18.6,0,0-.1.1-.2.2-.1,0-.2.1-.4.2-.1,0-.3.2-.4.3,0,0,0,0,0,.1.1,0,.4-.1.5-.3.1,0,.3,0,.4-.1,3.4-1.8,6.9-3.5,10.3-5.4,3.4-1.8,7-3.2,10.8-3.7,3.3-.5,6.7,1.2,8.5,4.3,1.9,3.2,1.6,7.5-.6,10.3-2.1,2.6-5.9,3.9-9.1,3-3.4-1-5.4-4.7-4.5-8.3.8-3.4,3.9-5.4,7.5-4.6,2,.4,3.2,2.1,3,4.1-.1,1.5-1.1,2.3-2.9,2.3.4-.4.7-.8,1-1.2.9-1.5.4-2.9-1.2-3.4-1.7-.6-3.4-.2-4.4,1-1.2,1.5-1.5,3.1-.6,4.8,1.5,2.8,4,4,7,3.4,2.7-.6,4.9-3.3,5-6.2,0-4.6-1.9-7-7.6-7.4-3.3-.2-6.5.7-9.5,2.2-7.1,3.5-14.2,7.2-21.3,10.8.9,0,1.8,0,2.6.4,1.1.4,2.3.7,3.2,1.4,1.7,1.2,2.1,3.9,1.1,5.5-1.2,1.9-3.8,2.7-5.7,1.8-1.2-.5-1.8-1.5-1.8-2.9,0-1.1.1-2.2,1.3-2.6.9-.2,2-.2,2.8.1,1.1.5,1.3,1.6.6,2.6-.6.8-1.4,1.3-2.1.4.4-.5.8-.9,1.2-1.3-.4-.3-.9-.9-1.4-.9-1,0-1.4.5-1.4,1.5,0,2.1,2.1,3.3,4,2.3,1.2-.7,2.1-1.7,2.1-3.2s-.7-2.9-2.2-3.7c-2.5-1.2-5.1-.7-7.6-.1-.7.1-1.5.5-2.2.7-1.1.3-1.8.7-2.1,2.1-.6,2.4-3.6,3.4-5.5,1.8-1-.8-1.8-.8-2.9-.2.7.8,1.3,1.7,2,2.5,5.6,7.3,9.8,15.2,11.3,24.3,4.1,24.4-11.1,41.1-30.4,44.2-14.2,2.2-27.1-1.7-36.2-13.6-12.3-15.9-6.3-37,5-46.3,3.8-3.2,8.2-4.9,13-6.2h-6c-6.2-.2-12.5-.4-18.7-.6-1.9,0-3.8-.1-5.7,0-.7,0-1.4.6-2,1.1-.3.3-.4,1-.3,1.3.2.4.9.7,1.4.9.3,0,.7-.4,1-.6-.2-.4-.4-.7-.9-1.4.7.1,1.6.2,1.7.4,0,.7,0,1.5-.3,1.9-1,1.1-2.6,1-3.6,0-1-1.1-.8-2.6.5-3.5,1.8-1.2,3.8-1.2,5.9-1.1,1.7.1,3.4.4,5.1.5.5,0,1,0,1.5-.3-2.4-.3-4.9-.5-7.3-.9-4.5-.7-9-1.5-13.5-2.1-1.8-.2-3.7,0-5.4.5s-2.1,2.3-1,3.3c.4.4,1.2.6,1.8.6s.9-.7.8-.9c-.1-.5-.7-.9-1.2-1.6.9.1,2.1,0,2.2.4.3.7.3,1.8,0,2.4-.8,1.4-2.7,1.7-4,.8-1.5-1-1.9-3.5-.7-4.8.8-.9,2-1.5,3.1-1.8,3-.9,5.9.2,8.9.7.7,0,1.3.2,2.1,0-.3-.1-.6-.4-.9-.4-6.5-2.1-12.6-4.8-18.6-8.1-5.1-2.9-10.4-5.4-16.3-6.3-1.3-.2-2.9-.2-4.1.1-3.7,1-5.1,6.1-2.6,9,1.2,1.5,3.9,1.9,5.7,1,1.5-.7,2.1-2.3,1.6-4.4-.2-1-.6-1.8-1.8-1.8s-1.9.4-2.1,1.5c0,.1-.1.2-.3.4-.7-1.9-.4-3,1-3.7,1.9-.9,3.9-.3,4.8,1.5,1.2,2.3,1,4.5-.6,6.6-1.6,2.2-3.9,2.8-6.5,2.3-3.9-.7-6.1-4.9-4.6-8.7,1.6-4,5.9-6.4,10.3-5.4,6.3,1.5,12.1,4.3,17.8,7.1,7.8,3.9,15.8,7,24.3,9.1.3,0,.7,0,1,.1v-.2c-.2,0-.5-.2-.7-.3v-.2ZM143.5,176.1s.1.1.2.1v-.2s-.1,0-.2,0v-.5c-2.4-2.9-4.3-6.5-8.3-7.6-.1.1-.2.3-.4.4,2.8,2.5,5.6,4.9,8.4,7.4.1,0,.2.2.4.3h-.1ZM126.3,62.9c-.1,0-.4.1-.5.2h0c.2.1.4,0,.7,0,.1-.1.4-.3.5-.4,0,0,0-.1-.1-.2-.2.1-.4.3-.6.4h0ZM164.9,182.6c1.2.1,1.8-.6,2.6-1.5-1.8-.8-1.8,1-2.6,1.5h0c0,0,0,0-.1,0h0ZM152.2,188s-.1-.1-.2-.1h0c0,.1.1.1.2.1-.2,2.1,1.7,1.7,2.8,2.6,0-2.1-1.6-2.1-2.8-2.6ZM151.1,195c-1.2,1-3.4.9-3.2,3.2,1.9-.1,2.1-.3,3.4-3.2,0,0,0-.1.1-.2,0,0-.2,0-.3.1h0ZM171,200.8c0,0,.1-.1,0,0,.1-.1,0,0,0,0,.5.7,1.1,1.3,1.6,2,2.7,3.2,6.1,5.4,10.1,6.6v.2s0,0,.1-.1h-.2c0-.1,0-.3,0-.4-3-3.6-6.9-6.1-10.9-8.4-.1,0-.4,0-.7,0h0ZM196.2,233.8c0,0,0,.1,0,.2,0,0,0-.1,0-.1h-.2c-1.2-2-2.3-4-3.4-5.9,0-.1-.5-.3-.8-.2-2.9.3-5.8.7-8.7,1,.7.4,1.3.4,2,.7,3.7,1.5,7.3,3,11,4.5h0ZM147.5,183c0,0,.1.1.3.1v-.4c-.7-1-1.4-2-2.3-2.8-1.2-1.2-2.8-2.1-4-3.2-2.9-2.6-5.8-5.3-8.8-8.1-.4.4-.9.7-1.5,1.2,1.5,1.4,2.7,2.8,4.2,3.9,4,3.1,8.1,6,12.2,9h0ZM149.7,188s.1.1.1.2v-.4c-.6-.7-1-1.6-1.7-2.1-6-3.5-11.4-7.8-16.6-12.5-.4-.4-.9-.8-1.3-1.2-.1,0-.3.1-.4.2.2.9.2,2,.7,2.7,1,1.5,1.9,3,3.2,4.1,4.6,4,10.2,6.5,15.8,9h.1ZM167.6,194.6s.1,0,.2-.1h0s0,0-.1.1c.8,2.2,2.6,3.2,4.6,4.3,5.1,2.6,9.5,5.9,13.1,10.5.7.9,1.6.7,2.1-.4.6-1.3,0-3.2-1.2-4.1-5.4-3.9-11.2-7.3-17.2-10.1-.4-.2-1-.1-1.4-.2h0ZM174.4,207.3c-.1,0-.4-.1-.5-.3,0,0,0,0,0,.1.1.1.3.2.4.4,1.8,2.1,3.4,4.3,4.2,7,0,.4.6.7.9,1,3.9,2.6,7.8,5.1,11.7,7.7h.6c-.1-.4-.1-1-.4-1.3-1.2-2.1-2.3-4-3.5-6.1-1.3-2.3-2.7-4.3-5.8-4.5-.9,0-1.8-.6-2.6-1-1.7-1-3.3-1.9-4.9-2.9h0ZM116.9,91.9c-2.1,4.2-3.3,8.7-4,13.4-1.7,12,0,23.6,3.9,34.9,3.3,9.5,8.2,18.1,15.3,25.3.4.4,1.1,1,1.6.9,2.3-.3,4,.6,5.6,2,1,.8,1.9,1.7,2.8,2.5-.1-.4-.4-.9-.6-1.4-.6-1.8-1.2-3.6-1.6-5.4-.1-.9-.4-1.3-1.2-1.8-3.9-2.2-7.4-5-10.3-8.4-10.7-12-14.6-26.5-14.8-42.2,0-6.7,1.4-13.2,3.3-19.6,0-.2,0-.4.1-.7h-.2c0,.1-.1.4-.1.5h.1ZM198.8,84h-.7v.2c.1,0,.4,0,.5.1,7.9,6.5,12.4,15,14.8,24.7,1,3.7,2.1,7.3,3.4,10.9.4,1.2,1.2,2.3,2.2,3.1,2.3,1.8,5,2.3,7.8,2.8,1.7-14.5-12-34.8-28-41.8h0ZM222.1,184.5c2.5,1,3.9,0,3.8-2.8,0-1.8-1.2-3.4-3-4-3.4-1.2-7.1,1.3-7.3,5-.3,6.6,4.5,11.2,11.2,10.2,7-1,11.9-5.1,14.3-11.7,4-10.9,1.2-20.6-5.9-29.3-2.4-2.9-4-5.9-3.2-9.8.2-1,.3-2.1.4-3.2-1-.3-1.9-.5-3.1-.8-3.7,17.1-15.2,27.7-29.5,35.9,11.4,12.9,11.5,29.7,1.8,42,1.5,1.4,3,2.7,4.5,4.2,1.5,1.5,3.4,1.2,4.5-.7.8-1.5,2.3-2.5,4-2,1.4.4,2.4,0,3.4-.6.9-.5,1.8-.9,2.6-1.4,8.4-4.9,16.1-10.8,21.5-19,7.6-11.6,10.2-24.5,9.2-38.1-.6-7.3-3.1-14.1-8.1-19.6-2.2-2.4-4.8-4.4-8-5.9.2,1.1-.9,2.1.4,3,4.8,3.4,7.9,7.9,9.5,13.4,3.9,13.1,1.4,25.2-5.4,36.7-2.6,4.4-6.6,7-11.7,8-7.8,1.4-14.3-4.3-13.5-11.9.5-4.6,3.3-7,7.8-6.5,3.9.4,6.5,5.2,4.4,8.7-.5.8-1.8,1.5-2.7,1.6-.6,0-1.3-1-2-1.5h0ZM141.2,63.2c-7.6,5.1-13.5,11.7-18,19.7-7,12.5-9.1,25.8-6.8,39.8,1.5,9.5,4.8,18.4,10.6,26.3,3.6,4.9,8.1,8.9,13.4,11.8,2.3-3.4,5.4-3.9,8.4-1.2,1.3,1.2,2.5,2.7,3.2,4.3,1.8,3.9,3.3,7.9,4.7,12,.4,1.3,1,2.1,2.3,2.2,2.2.2,3.5,1.2,3.7,3.5,0,0,.1,0,.4.3.9-3.4,3.3-3.4,5.9-2.9,1,3.2-1.2,4.4-4,5.7,2.9.1,3.4,1.5,3.2,3.5,0,.4.5,1,1,1.2,2.4,1.2,4.9,2.3,7.4,3.6,3.7,1.8,7.3,3.8,9.5,7.3s5.2,5.9,8.3,8.5c.8.7,1.5,1.4,2.3,2.1.9.8,1.8,1.6,2.8,2.6.4-.7.7-1.2.9-1.7,5.6-11.6,3-26-6.3-35-.4-.3-1.1-.4-1.6-.4-5.1,1-10.1.4-14.4-2.6-.9-.6-1.8-1.6-2.1-2.6-.7-2.6-1-5.4-1.4-8,0-.4-.4-.6-1-.8-5.8-3.2-11.7-6.1-17.2-9.5-9.8-6.1-18.2-13.6-24.3-23.6-9.5-15.5-11.1-31.8-3.7-48.6,3-6.8,7.6-12.4,13-17.5,0-.1.1-.3.1-.4-.2,0-.4.1-.6.2h0ZM149.7,193.6c-2.2-.6-3.7-1.4-3.6-3.7,0-1.2-.7-1.7-1.8-2.2-2.9-1.5-5.8-2.9-8.4-4.7-2.2-1.5-4.3-3.5-6-5.6-1.5-1.7-2.1-3.9-1.5-6.3.1-.4-.2-1.1-.6-1.5-2.6-3.6-5.6-6.9-8-10.7-6-9.9-9.1-20.8-10.6-32.3-2-15.9,1.2-30.7,10.1-44.2,7.2-10.9,16.9-19.2,28.2-25.7.4-.3,1-.6,1.4-.9-.8-.1-1.6,0-2.3.1-10.2,4-19.4,9.5-27.4,17.2-9.6,9.2-15.8,20.6-20.4,32.9-5.4,14.5-7.3,29.4-4,44.7,3.8,18.2,11.8,34.4,24.1,48.3,17.6,20,39.7,29.3,66.4,26.9,1.4-.1,2.8-.4,4-1.9-3.7-2.3-7.3-4.6-10.9-6.9-1,3.4-2.4,4.3-5.6,3.7-1.2-.2-2.5-.6-3.4-1.2-1.7-1.1-3.2-2.4-4.6-3.9-3.4-3.6-5.6-7.9-7-12.6-.2-.7-.7-1.5-1.3-1.6-2.2-.6-3.9-1.5-3.9-4.1,0,0,0,0-.3-.2-.9,3.4-3.6,3.2-6.1,3.4-.9-3.3,0-5.6,3.6-6.9h0ZM187.7,259.2c-2.4-3.6-5.9-5.9-10.1-6.2-2.5-.2-5-.4-7.2,1.2-1,.8-1.3,1.5-.8,2.9,2.3,5.4,11.1,11.1,18.9,7.6,7.9-3.6,12.4-12,10.9-20.9-.1-1-.4-2-1.1-2.6-6.8-6.9-14.9-10.2-24.5-7.7-11.1,2.9-18.4,9.7-20.9,21.1-2.5,11.4,1,21,9.7,28.3,8.1,6.8,17.7,8.8,28,7.1,24.9-4.1,31.7-25,28.9-41.8-1.5-8.7-6.1-16.1-11.4-23-.3-.4-1-.6-1.4-.4-.4,0-.8.7-1,1.1-.7,2.7-3.9,3.7-5.7,1.8-.8-.9-1.5-1-2.5-.7-.6.1-1.2.3-1.8.4,1.2,2.9,2.3,5.6,3.4,8.4.4.8.8,1.5,1.3,2.2,6.2,7.2,9.2,15.4,7,24.9-1.5,6.8-5.2,12.1-12,14.6-4.8,1.7-9.7,1.8-14.6,1-8.8-1.5-14.4-6.9-16.1-15.6-.4-2.3,0-4.5,1-6.7.2-.5.4-1.1.4-1.6-.4-3.9.6-7.4,2.9-10.6,2.6-3.5,7.6-5.1,11-3.5,2.6,1.2,4.3,3.3,5.1,6.1-3.1-3.6-6.8-4.9-11.3-3-3.3,1.4-5.3,5.1-5.1,9,3.5-2.3,7.3-2.3,11.1-.9,3.7,1.5,6.6,3.9,7.9,7.8h0ZM252.1,178.3h.4c.1-.2.3-.4.4-.7,2.6-7.3,4.3-14.7,4.8-22.4,1-17.1-2.3-33.5-9.3-49-5.4-11.8-12.6-22.3-23-30.4-8.7-6.8-18.5-10.7-29.7-10.9-2.1,0-4.3.5-6.5.8,13.9,3.4,25,10.9,33.1,22.4,8.1,11.6,11,24.7,9.5,38.7,1,.2,1.9.4,2.9.6v-5.6c1.5.6,2.8,1.2,4.2,1.8,0-1.2,0-2.2.1-3.4,1.8.6,3.5,1.2,5.1,1.7-.4,1.9-.7,3.6-1,5.3-1-.4-1.8-.9-2.9-1.5.1,2.1.2,3.7.3,5.4-1.5-.7-3.1-1.4-4.6-2.1-.6,1.5-.1,2.1,1.2,2.7,2,1,3.9,2.1,5.5,3.4,7.3,5.9,10.1,14.2,10.9,23.1.7,6.7.2,13.4-1.4,20h0ZM228.2,138.2l-.4-.2c-.2.4-.5.8-.7,1.2-2.1,7.2-6.5,12.8-12.4,17.2-1.3,1-2.9,1.8-4.5,2.3-3.4,1.1-6-.4-6.7-3.9-.2-1-.7-1.1-1.5-1.2-3.2-.7-4.9-3-4.2-6.2.4-1.5,1.1-3.1,2.1-4.3,1.3-1.5,2.9-2.9,4.6-4.1,5.6-4,11.7-6.1,18.6-6.2,0-.9.2-1.8.3-2.6-16.9-1.4-40,12.8-44.6,27.4.7.4,1.3.9,2.1,1.3,5.7,3.7,11.3,7.8,16.2,12.5,1,1,1.7,1,2.8.4,13.6-6.5,22.4-17.2,27.6-31.3.3-.8.5-1.7.8-2.6h0ZM200.8,244.6v1.7c0,4.7-.9,9.2-3.2,13.4-2.7,4.9-6.5,8.7-12.4,9.1-7.2.6-12.7-2.6-16.8-8.4-.3-.4-.5-.8-.8-1.2-.4,1.2-.6,2.3-.3,3.3,1.3,5.4,4.4,9.3,9.5,11.6,3.9,1.8,8,2.2,12.2,1.8,5.9-.5,10.7-3,13.6-8.4,4.3-7.9,2.8-15.6-1.8-22.9h0ZM244.5,171.5c4.3-11.8-1-30.7-9.8-34.8-1.3,6.4-.9,8.4,3,13.6.7,1,1.4,2,2.1,2.9,1.8,2.3,2.8,5.1,3.3,8,.5,3.5,1,7.1,1.5,10.3h0ZM222.8,133.7c-1.2.1-2.2.1-3.2.3-7.1,1-13.1,4-17.9,9.4-1,1.2-1.8,2.8-2.3,4.3-.6,2.5.9,4,3.6,4,.5-3.2,2.1-6,4.5-8.2,3.7-3.4,8.1-5.5,13.1-6.4,1-.1,1.3-.6,1.5-1.4.1-.6.3-1.2.5-2.1h0ZM158.4,198.3c1.1,4.6,2.6,9,5.2,12.8,1.9,2.7,3.9,5.4,7,6.9,1.3.7,2.9.7,4.5.9.4,0,1.2-.7,1.4-1.2.5-1,.2-1.8-1-2.3-5.7-2.7-10.3-6.7-12.6-12.7-.9-2.2-2.4-3.4-4.5-4.4h0ZM205.3,154c.6,2.5,2.3,3.7,4.8,2.9,1.4-.4,2.7-1,3.9-1.9,5.1-3.6,8.7-8.4,10.9-14.2.4-1,.7-2,1.1-3.2-1.3.3-2.6-.4-3.2,1.3-3,8.1-9.4,12.5-17.4,15h0ZM205.3,152.2c7.7-2.1,12.8-6.8,16.1-13.9-6.3.4-16.5,8.1-16.1,13.9ZM198.8,215.4c-3.2-2.8-6.1-5.4-9.2-8.1-.4,2-.6,3.7-2.3,4.3,2.1,3.4,4,6.6,6.1,10.1,1.8-2,3.5-4,5.5-6.2h0ZM156.1,180.1c-.3-1-.4-2-.8-2.8-1.8-4.6-3.7-9.2-5.6-13.7-.7-1.7-2.1-2.9-4-3.5-1.3-.4-2.5-.3-3.2,1-.1.3,0,1,.1,1.2,4.9,4,8,9.2,10.3,14.9.6,1.5,1.5,2.3,3.1,2.9h.1ZM112.2,130.6c-.4,9.7,10.6,33,17.8,38,.4-.4,1-.9,1.5-1.3-10.2-10.3-16.1-22.8-19.2-36.7h0ZM191.6,174.4c-4.5-4-9.1-7-14.2-9.8.1,2.6,0,5.3,2,6.9,3.4,2.8,7.6,3.4,12.3,2.9h0ZM205,222.3c0,0,0-.1.1-.2-1.6-1.5-3.2-3.1-4.8-4.5-2.1,1.7-4.3,3.4-6.5,5.3.3.6.6,1.2,1,1.8.6-.1,1-.2,1.5-.3,1.5-.3,3-.4,4-1.9.7-1,2.1-1.2,3.3-.7.4.1,1,.3,1.4.5h0ZM176,213.3c-2.6-4.9-6.6-7.9-11.2-10.9,2.3,5.4,5.9,8.7,11.2,10.9ZM141.7,164.2c1.2,5.4,4.5,8.9,8.5,12.3-.4-3.2-5.3-10.1-8.5-12.3ZM162.2,195.9c.5,1.8,1,3.6,3,4.5,1.2.5,2.1,1.5,3.2,2.2,1,.7,2,1.5,3,2.2-2.3-3.7-4.1-8.1-9.2-8.9h0ZM183,200.2c0-.1.1-.4.3-.5-5-4.4-11.2-6.6-17.2-9.2.4.7.8,1.2,1.5,1.5,4.8,2.6,9.6,5.1,14.4,7.6.4.2.7.4,1.2.5h0ZM144.8,173.8c2.1,3.4,3.7,7.3,8.1,8.4-.2-1.3-.7-2.3-1.9-3.2-1.8-1.2-3.4-2.9-5.1-4.3-.4-.3-.7-.7-1.1-1h0ZM236.5,124.4c-.1,1.2-.3,2.3-.4,3.3,1,.3,1.8.6,2.8.9v-3.5c-.7-.2-1.5-.4-2.3-.7ZM233.2,135.6c-1-.4-2-.7-2.9-1-.2,1-.4,1.8-.7,2.7,1,.3,1.9.5,2.9.8.2-.9.4-1.6.7-2.6h0ZM224.1,133.7c-.2,1.2-.4,2.1-.5,3,1.9.1,2.9-.8,3.1-2.8-.8,0-1.6-.1-2.5-.2h0ZM160.9,191.3c.5,3.1,3.3,2.7,5,4.2-.4-3.2-2.9-3.1-5-4.2ZM230.5,133.6c1,.3,1.9.6,2.9,1,.1-.8.3-1.5.4-2.3-.9-.4-1.8-.7-2.8-1.1-.1.8-.4,1.5-.5,2.4ZM224.4,128.6c1,0,1.8.1,2.8.1v-2.2c-1-.2-1.9-.4-2.9-.6,0,1,.1,1.7.1,2.6ZM224.4,130c0,1-.1,1.8-.1,2.8,1,0,1.8,0,2.7.1,0-1,.1-1.7.1-2.6-.9,0-1.7-.2-2.7-.3h0ZM231.5,127.7c0,.8-.1,1.3-.2,2,1,.3,1.9.5,2.9.8.1-.7.3-1.2.4-1.9-1-.3-1.9-.6-3.1-.9h0ZM157.5,193.7c-.3,2.3,1.6,2.7,3,3.6-.2-2-.9-3.4-3-3.6ZM154.2,186.8c-.4-2.6-2.6-2.5-4.1-3.7.4,2.5,2.3,2.8,4.1,3.7ZM161.3,183.1q-.7-2.9-3.2-3c0,2.1,1.8,2.1,3.2,3ZM154.4,196c0,2.9.4,3.2,2.2,3.1-.1-1.5-.4-2.8-2.2-3.1ZM240.7,122c-.4,2.4-.4,2.5,1.5,2.9,0-.8.2-1.6.3-2.5-.6-.1-1.1-.3-1.8-.4ZM163.7,190.3c-.3-2-2.1-1.8-3.5-2.7.1,2.4,2.3,1.9,3.5,2.7ZM148.2,189.6c0,2.1,1.8,1.7,3.1,2.6-.2-2.1-2-2-3.1-2.6ZM156.8,184.7c.2-2,0-2.2-2.3-2.5.8.8,1.5,1.7,2.3,2.5ZM162.3,186.5c-.2-1.7-1.8-1.7-3.1-2.3.3,2.1,2.1,1.7,3.1,2.3ZM230,129.3c0-.7.1-1.3.1-2.1-.5,0-.9-.1-1.3-.2-.1,1.3.2,2,1.1,2.3h0ZM155.5,194.6c.3-2.1-1-2.3-2.1-2.7-.1.1-.3.3-.4.4.7.7,1.5,1.4,2.4,2.3h0ZM157,189.9c0,1,.7,1.7,2,2.1,0-.9-.8-1.6-2-2.1ZM228.7,130.6c-.2,1.6,0,2.4.5,2.6.4-1.5.3-2.3-.5-2.6ZM156.3,185.9c-.2.2-.4.4-.6.7.7.6,1.4,1.2,2.1,1.8.2-.2.4-.4.6-.7-.7-.6-1.4-1.2-2.1-1.8h0ZM227.7,136.9l.6.3c.3-.9.6-1.8,1-2.7l-.6-.3c-.9.6-.5,1.8-.9,2.6h0ZM164.7,186.4c-.1.1-.3.2-.4.4.7.6,1.2,1.1,2.1,1.8.6-2.1-.9-1.8-1.6-2.2h0ZM256.9,97h-.4c0,.4.1.7.2,1h.1v-1ZM112.9,204.2c-.1.1-.2.2-.3.3v.2c.3,0,.4,0,.5-.1,0,0-.1-.2-.2-.4h0Z"/>
  <path class="cls-1" d="M407.5,183.6c-2.3,1-4.4,1.5-6.7,0-1.7-1.1-3.7-.9-5.2,0,.7-2.7,1.6-5.6,2.3-8.4.2-.9.1-1.8.1-2.8v-84.3c0-3.5-.6-7-1.4-10.4-1-3.9-2.5-4.8-6.5-5,2.1-4.5,7.3-6.2,9.4-10.8.4,6.5,5.8,9.5,10,13.6-2.1.3-2.6,1.5-2.6,2.6-.6,4.9-1.4,9.8-1.5,14.7-.2,14.3,0,28.5,0,42.8v10c4.4-6.1,8.4-11.8,10.1-18.9.6,3.7,1.2,7.6,1.8,11.3.8,4.3,2.2,8.3,4.2,12.2,1.8,3.6,3.4,7.3,4.8,11.1,2,5,2.1,10.2,1,15.5-1.4,6.1-3.4,12-7.6,16.9-1.1,1.3-2.6,2.4-3.9,3.5-.4.3-1,.4-1.5.6,6.6-6.9,7.9-15.3,7.2-24.3-.6-6.9-3-13.2-6.5-19.1-2-3.3-3.7-6.6-4.1-10.9-1,1-1.6,1.8-2.3,2.6-2.1,2.7-3.1,5.7-3.1,9.1v22.2c0,2.3.5,4.5,2.1,6.4h-.1Z"/>
  <path class="cls-1" d="M381,177.1c.7-.2,1.6-.7,2.1-.5.8.4,1.7,1.3,1.9,2.1.5,1.8.2,3.6-1.5,4.8-1.8,1.2-3.8,1.6-5.9.5-2.9-1.5-5-3.9-6.7-6.6-1.1-1.7-2-3.5-3.2-5.1-1.1-1.5-2.5-2.7-3.7-4,1.9-.8,2.9-2.6,3-4.8.1-2.4.1-4.8.1-7.3v-23.7c0-2.4-.3-2.7-2.6-3.2-.9-.1-1.8-.2-2.9-.4,4.7-3.1,8.2-7,10.6-12,2.4-4.8,2.9-10.1,3.4-15.4.3,0,.5,0,.8.1-.4,8.4-.7,16.9-1,25.5h6.3v2.1h-6.2v1.6c0,12.2,0,24.3,0,36.5,0,3.2.7,6.4,1.1,9.5.1,1,.7,1.9,1.2,2.6.5.7,1.4,1.2,2.2,1.5,1,.3,2.2.2,2.5-1.1.3-1.2-.3-2-1.7-2.1v-.7h0Z"/>
  <path class="cls-1" d="M342,122.7c.2,1,.5,1.9.7,2.9.3,1.6.4,3.3.9,4.8,1.2,4,3.9,6.4,8.4,6.7-1.4,1.5-2.7,2.9-4,4.3-2.2,2.6-4.4,5.2-5.1,8.6-.2,1-.1,2.3.1,3.3.3,1,1.5,1.4,2.3,1,.5-.3,1-1.3,1-2,0-.5-1-1-1.6-1.6.2-.1.8-.8,1.2-.7.7.2,1.7.7,2.1,1.3,1.2,2.1-.8,5.2-3.4,5.1-2.9,0-5.1-2.3-4.6-5.1.4-2.1,1.2-4,2.1-5.9.5-1,.5-1.5,0-2.3-.6-.7-1.1-1.4-1.7-2.1-1-1-1.9-1.8-3.2-3.1-.1,1.2-.4,2-.4,2.8v24.9c0,3.2.6,6.3,2.1,9.2,2.8,5.4,7,6.8,12.8,4.3-1.7,2.4-3.7,3.9-6.2,4-1.9.1-4,0-5.8-.7-3.7-1.3-7.3-1.4-10.9-.3-.2,0-.4,0-.7.1,2.1-7.9,1.2-15.9,1.4-23.8v-7.9c0-2.1-.2-2.3-2.6-1.8.4-1,.6-1.9,1.1-2.6,2.3-3.2,4.6-6.4,7.1-9.4,2.6-3.2,4.3-6.6,5.1-10.6.2-1.1.6-2.2,1-3.4h.9Z"/>
  <path class="cls-1" d="M178.6,33.3c-.5.3-1.2,1-1.5.8-.5-.3-1.1-1-1.2-1.5,0-.4.7-1.2,1.1-1.3.7,0,.9-.3,1.2-.9.2-.5,1-.8,1.8-1,.1-.6.3-1.1.4-1.7-.1,1.9,1.2,1.9,2.4,2h0c-1.1,1-2.1.5-3.1-.8-.4.8-1,1.5-.9,2s1.1.7,1.6,1c-.9,1-1.5.8-2.9-1.4-.4,1-1,1.8-.9,2.3.2.8,1.1,1,1.9.4h0Z"/>
  <path class="cls-1" d="M170.6,40.5c-.4.9-1.3,1.2-2.5,1.1-1.2-.1-2-1-2.1-2.1-.1-1.2.4-2.2,1.9-2.8-.7,1.2-1.5,2.5-.2,3.4.7.5,1.9.4,2.9.5h0Z"/>
  <path class="cls-1" d="M173.5,37.7c-.6.9-1.4,1.4-2.3.9-.7-.4-1.3-1.1-1.4-1.8,0-.7.5-1.4,1-1.9,0,.8-.3,1.9,0,2.2.7.5,1.7.4,2.6.6h.1Z"/>
  <path class="cls-1" d="M77.6,99.8c2.5,1,3.2.5,3.2-1.7.1,0,.2,0,.4,0,0,.6.4,1.3.2,1.8-.3.6-1,1.4-1.6,1.4s-1.6-.6-2.4-.9l.3-.5h0Z"/>
  <path class="cls-1" d="M174,33.1c0,.7-.3,1.6,0,1.9.4.4,1.3.4,2.3.7-.8.2-1.5.6-2.1.4-.5-.1-1.2-.9-1.2-1.3s.6-1.2.9-1.9c0,0,0,0,.1.1h0Z"/>
  <path class="cls-1" d="M79.9,95.7c-.4.7-.5,1.6-1,2-1,.7-1.8,0-2.3-1,.7.1,1.4.5,1.8.3.5-.2.7-1,1.1-1.5.1,0,.3.1.4.1h0Z"/>
  <path class="cls-1" d="M186.6,25.1c-.6.5-1,1-1.2,1-.4,0-.7-.6-1.1-.9.3-.3.6-.9,1-.9s.7.4,1.4.8h0Z"/>
  <path class="cls-1" d="M75.5,94c.8.4,1.5.9,1.7.7.5-.2.7-.9,1.3-1.6-.1.7,0,1.5-.4,1.8-.3.4-1,.6-1.5.4s-.7-.7-1.2-1.3h0Z"/>
  <path class="cls-1" d="M77.7,154c1.6.4,1.9.1,2-1.6h.4c0,.7,0,1.5-.2,1.9-.7.9-1.6.8-2.3-.1,0,0,0,0,.1-.1h0Z"/>
  <path class="cls-1" d="M174,32.9c.1,0,.4,0,.5,0-.1,0-.3.1-.4.2,0,0,0,0-.1-.1Z"/>
  <path class="cls-1" d="M167.1,42.4c0,0,.1-.1.2-.2,0,.1,0,.2-.1.4,0,0,0,0-.1-.1h0Z"/>
  <path class="cls-1" d="M78.5,156.6v-.5c0,0,.2.1.3.3,0,0-.1.1-.2.2h0Z"/>
  <polygon class="cls-1" points="173.5 37.8 173.4 37.7 173.5 37.7 173.5 37.8"/>
  <polygon class="cls-1" points="178.6 33.2 178.6 33.3 178.6 33.3 178.6 33.2"/>
  <path class="cls-1" d="M267.5,169.4h.2-.2Z"/>
  <path class="cls-1" d="M77.6,154.1v-.4c0,0,.1.2.2.3,0,0,0,0-.1.1h0Z"/>
  <polygon class="cls-1" points="182.8 29.7 182.8 29.6 182.9 29.7 182.8 29.7"/>
  <path class="cls-1" d="M222.1,184.5c0,0-.1-.1-.2-.2h0s0,0,.1.2h0Z"/>
</svg>