<?xml version="1.0" encoding="UTF-8"?>
<svg id="Calque_1" data-name="Calque 1" xmlns="http://www.w3.org/2000/svg" version="1.1" viewBox="0 0 500 300">
  <defs>
    <style>
      .cls-1 {
        fill: #75683b;
      }

      .cls-1, .cls-2 {
        stroke-width: 0px;
      }

      .cls-2 {
        fill: #272e38;
      }
    </style>
  </defs>
  <path class="cls-1" d="M363,181.6c2.6-.6,5.2-1.6,7.8-1.8,2.3-.2,3.5-1.1,4.4-3,1.2-2.5,2.6-4.9,4.2-7.8-1.1.2-1.7.3-2.2.4-5.1,1.4-9.4-1.9-9.2-7.2,0-2.6.5-5.1.8-7.5-3.6,3-7.3,6-11.3,9.3-.3-.1-1.3-.6-2.8-1.2,2.2-1.2,4.5-2,6-3.5,2.9-2.9,5.6-6.1,8-9.4,2.6-3.6,4.8-7.7,7.3-11.4,2.9-4.2,7-7,11.9-8.5,5.6-1.7,8.1,0,8.3,6,0,.6.1,1.2.3,2.4,1-1.6,2.1-2.6,2.4-3.9,1.4-5.8,5.7-5.4,10.6-4.7-2.9,5.1-5.8,10.1-8.6,15.1-3.2,5.7-6.5,11.3-9.7,17.1-.5.9-.9,2.3-.5,3.2.2.6,2,1,2.9.7,2.1-.8,4.7-1.5,6.1-3.1,3.9-4.7,7.5-9.6,10.8-14.7,4.3-6.6,8-13.6,15.7-16.9,1.3-.5,2.6-1,4-1.3,4.3-.8,6,.7,6,5.1v3.5c.3.1.5.3.8.4.8-1.3,1.9-2.6,2.4-4,1.6-4.8,4.8-6.4,10.1-4.8-.6,1.4-1.2,2.9-2,4.3-4.8,8.4-9.7,16.7-14.4,25.2-.9,1.6-1,3.7-1.5,5.6,1.9.2,3.9.3,5.8.5v.9c-2.6,1-5.2,2.6-7.8,2.7-1.8,0-3.6-1.9-5.4-3,0-.4.1-.8.2-1.3-1.4,1-2.9,2-4.2,3.1-2.4,2-4.9,2.6-7.7,1.2-2.8-1.4-4.1-3.7-4-6.7.1-2.4.5-4.9.8-8.3-2,2.3-3.3,4.1-4.9,5.7-2.8,2.9-5.6,6-8.8,8.4-3.4,2.6-4.4,2-6.6-2.2-2.5,4.2-5,8.2-7.6,12.6,8.3.6,15.9,2.1,22.9,5.9,6.9,3.7,12.2,8.7,15.2,16,1.7,4.2,2.1,8.5.7,13.3-.4-3.4-.3-6.5-1.2-9.4-3.6-12.8-13.4-18.9-25.3-22.3-3.5-1-7.2-1.2-10.8-1.7-1.8-.3-3,.3-4.1,2.1-5,7.7-11.1,14.5-18.4,20.1-.5.4-1.2.7-2.3,1.3,5.1-7.8,9.8-15,14.5-22.3-.2-.3-.5-.6-.7-.9-2.7.4-5.4.8-8.1,1.2-.3-.2-.5-.4-.8-.6h0ZM433.9,138.2c-.4-1-.7-3.2-1.7-3.5-1.5-.5-3.4.3-5,.8-.8.2-1.5.9-2,1.6-3.2,4.7-6.6,9.2-9.3,14.2-1.8,3.3-2.8,7.2-3.6,10.9-.3,1.4.4,3.8,1.5,4.5,1,.6,3.5.2,4.6-.7,2.6-2.2,5.1-4.7,7.1-7.4,4.5-5.8,7.2-12.4,8.4-20.3h0ZM393.3,138.4c-.5-1.1-.9-3.4-2-3.8-1.4-.5-3.7.1-4.9,1.1-8.2,6.5-12.6,15.3-14.5,25.3-.3,1.7.7,3.7,1.1,5.6,2-.5,4.4-.5,5.8-1.7,2.6-2.2,4.9-4.9,6.8-7.6,3.9-5.5,6.4-11.6,7.6-18.9h.1ZM409.4,154.6s-.1-.2-.2-.2c0,0-.2.1-.2.2.1,0,.2.2.3.2,0,0,0-.1.1-.2h0Z"/>
  <path class="cls-1" d="M24.7,101.3c-10.3,0-16.9,6-23,13,3.6-9,10-15,19.4-16,5.6-.6,9.7-2.9,13.8-6.2,4.1-3.3,8.8-5.5,14-6.1,2-.3,4.1.2,6.3.6-9.1,1.1-16.4,5.4-23,11.8,2,.9,3.8,1.6,5.6,2.5,5.6-5.9,12.5-9.3,20.6-10.4,5.9-.7,13,1.8,15.2,8,.8,2.3,2.4,3.3,4.5,4.2,1.4.6,2.7,1.5,4.3,2.7-7,.4-5.5,5.2-5.7,9.2-.5,8.1-3.1,15.5-7,22.5-6.2,11.3-14.7,20.4-25.5,27.2-6.4,4-13.6,6.4-21.3,6.1-5.3-.2-8.6-3.2-10.5-7.7-3.9-9.2-3.8-18.7-1.8-28.2,2.4-11.5,6-22.6,13.6-32,.2-.3.3-.7.6-1.4v.2ZM54.3,126.7c-13.6-1.2-23.7,4.3-32.6,12.9-.2-.2-.4-.4-.6-.7.4-2.2.8-4.4,1.3-7.3-2.8,2-5.1,3.6-7.3,5.2-.4.3-.9.8-.9,1.2-1.1,9.2-.9,18.2,3.5,26.7,1.5,2.8,6,4.5,9.1,4,8-1.4,14.7-5.2,20.7-10.4,10.9-9.3,19.6-20.2,23.1-34.4,1.1-4.7,1.4-9.6,2.3-15.2-7.9,2.7-14.6,5-21.2,7.3.9,3.6,1.7,6.8,2.7,10.7h-.1ZM41.1,102.2c3.2,3.9,6.1,7.5,8.9,11,7.6-3.2,15.3-6.4,23.4-9.9-3-1.3-5.8-2.4-8.6-3.6v-.7c1.7.2,3.2.4,4.8.6.4-4-2.3-4.7-5.2-5.2-9.4-1.5-16.9,2.2-23.4,7.9h0ZM16.8,132.4c4.7-1.9,7.6-5.2,8.5-10.1.3-1.3.7-2.7,1.4-3.9,2.7-5.1,5.4-10.1,8.2-15.2-4.4-2.4-5.8-2.3-8.4,2.1-3,5-5.8,10.2-8.1,15.6-1.5,3.5-3,7.4-1.6,11.5h0ZM48.7,113.6c-2.8-2.7-5.3-5.1-7.8-7.5-1.8-1.7-3.3-1.1-4.5.7-2.5,3.7-5.1,7.2-7.2,11-1.5,2.6-2.3,5.5-3.6,8.8,7.9-4.5,15.2-8.5,23.2-13h-.1ZM49.4,116.5c-7.8,4.2-15.2,8.1-22.5,12-2.7,1.4-3,3.7-2.9,6.3,4.3-2.8,8.3-5.9,12.8-8.2,4.4-2.3,9.2-3.9,13.9-5.9-.3-1.2-.7-2.3-1.3-4.2h0Z"/>
  <path class="cls-1" d="M353.2,86.4c-8.9,1-15.9,5.5-22.5,11.7,2.1.9,4,1.7,5.9,2.6,4.9-5.4,11-8.6,18-10,7.1-1.4,14.8,0,18.2,8.7.4,1,1.7,1.8,2.7,2.5,1.6,1,3.4,1.9,5.2,2.8-.4.7-.5,1-.6,1-4,.6-5,2.7-4.9,6.8.3,9-2.9,17.2-7.2,25-5.7,10.1-13.3,18.4-22.8,25.1-6.7,4.7-14.3,7.4-22.5,7.8-5.7.3-10.1-3-12.1-8.4-4.3-11.3-3.1-22.6,0-33.8,2.5-9.1,5.8-18,11.9-25.5.2-.3.4-.7.9-1.7-10.5.3-17.3,6.1-23.3,13.3,3.8-9,10.2-15.4,20-16.3,5.5-.5,9.2-2.9,13.2-6,5.8-4.5,12.3-7.3,20-5.5h-.1ZM321.1,131.2c-2.9,2-5.1,3.6-7.3,5.3-.6.5-1.1,1.4-1.2,2.1-.6,7-.7,13.8,1.6,20.7,2.9,8.7,7.2,11.2,15.8,8,18.6-7.1,30.5-21.1,37.9-39,2.5-6,3.6-12.5,2.7-19.6-7.1,2.4-13.8,4.7-20.4,7,.9,3.6,1.7,6.8,2.8,10.8-13.7-1.4-23.8,4.4-32.9,12.8l-.6-.8c.5-2.2,1-4.3,1.6-7.3h0ZM348.7,112.8c7.5-3.1,15.2-6.4,23.3-9.8-2.9-1.3-5.7-2.5-8.4-3.7,0-.2.1-.5.2-.7,1.6.2,3.1.5,4.7.7.2-.3.5-.6.7-.9-1.3-1.3-2.3-3.2-3.9-3.8-9.3-3.6-21.5,2.3-25.5,7.5,3,3.6,5.9,7.1,8.8,10.6h0ZM315.4,133c2.6-2.4,5.7-3.9,6.6-6.3,3.4-8.2,5.9-16.8,12.2-23.5-5.1-2.9-6.4-2.7-9.1,1.6-2.4,3.9-4.9,7.9-6.7,12.1-2.1,4.7-4.2,9.6-3,16h0ZM347.2,113.4c-2.2-2.4-4.1-4.8-6.5-6.8-3.5-2.9-3.7-2.8-6.4.8-4.2,5.5-7.9,11.3-9.6,18.5,7.5-4.2,14.7-8.2,22.5-12.6h0ZM347.9,116.1c-7.8,4.2-15.3,7.9-22.4,12.2-1.8,1.1-2.6,3.9-3.9,5.9.4.3.7.6,1.1,1,7.4-7.5,16.7-11.6,26.7-14.4-.5-1.6-.8-2.7-1.4-4.6h-.1Z"/>
  <path class="cls-1" d="M112.5,150.3c3-3.7,5.8-7.7,9.2-11.1,3.3-3.2,7-6.1,10.9-8.4,3.8-2.2,6.7-.2,7.1,4.2.1,1.3,0,2.6,0,3.9-.1,1.3-.4,2.5,0,4,2.1-3.5,4.2-7,6.2-10.6,4.7-8.4,9.5-16.8,14-25.4,1.6-3.1,3.3-4.8,6.9-4,.8.2,1.7.1,2.9.2-4.5,8.1-8.8,15.9-13.2,23.7-6.6,11.9-13.2,23.9-19.8,35.8-.2.3-.4.6-.4.8,0,1.1,0,2.2.1,3.3,1-.3,2.4-.2,3.1-.8,3.4-3.2,6.6-6.4,9.8-9.8,7.1-7.4,14.1-15,21.4-22.2,1.8-1.8,4.5-3.1,7-3.8,5.5-1.5,10,3.4,8.5,8.9-3,11.2-11.2,16.8-24.3,16.5-.1.2-.4.4-.5.7-1.4,5.1-.6,9.4,2,11,2.5,1.6,6.6,0,10.5-3.8.8-.8,1.6-1.6,3-1.9-.3.6-.5,1.3-.9,1.7-1.5,1.4-2.9,2.9-4.5,4.1-3,2.4-6.1,4.2-10,2-4-2.3-6.4-7.1-5.7-11.4.4-2.3.8-4.6.6-7.2-1.1,1.1-2.2,2.1-3.3,3.2-4.9,5-9.4,10.4-14.6,14.9-4.4,3.8-9,1.6-10.2-4.4-2.2,1.6-4.3,3.2-6.5,4.6-3.5,2.3-6.6,1.5-8.4-2.3-2.4-5-1.5-10,.8-14.8h0c-.4,0-.9-.1-1.3-.2v-1.5h-.4ZM117.1,162.4c.6,1.2,1.1,3.6,2.6,4.4,1.1.6,3.6-.7,5-1.8,5.5-4.4,8.8-10.5,11.2-16.9s2.1-6.6,2.2-9.9c0-3.8-2.3-4.9-5.5-2.7-2.4,1.7-4.6,3.9-6.4,6.2-4.7,5.8-7.7,12.5-9.1,20.7h0ZM161.6,153.2c10.8,2.3,21.1-5.9,21.8-14.7.2-1.9-.3-4.8-1.5-5.7-1.3-.9-4.6-.7-5.9.4-3.6,3.1-6.8,6.7-9.7,10.5-2,2.7-3.2,6.1-4.8,9.4h0Z"/>
  <path class="cls-1" d="M217.7,139.6c3.9-4.3,8.2-7.7,13.9-9,2.3-.5,5-.7,6,1.6.6,1.4-.1,3.7-.9,5.2-4,7.6-8.3,15-12.4,22.6-1,1.8-2.6,4-.6,5.5,1.7,1.3,4.3,2,6.5,1.9,4-.2,6.8-2.9,9.4-5.7.6-.7,1.2-1.5,2.2-2.6,0,.9.3,1.5.2,1.8-2.8,4.6-6.2,8.3-11.8,9.6-5,1.2-7.8-1.5-10.2-4.9-2.3-3.4-2.1-7.1-.2-10.7,2.9-5.4,5.9-10.7,8.8-16.1.5-1,.4-2.4.6-3.6-1.3,0-2.7-.2-3.9.3-1.7.6-3.2,1.8-4.7,2.7-.9.5-1.8.9-2.7,1.3h-.2Z"/>
  <path class="cls-1" d="M437.4,166.6v-.9c5.9-3.3,9.8-7.6,9-14.9-.2-1.6-.2-3.2,0-4.8,1.3-8.3,7.7-16.4,17.1-16.3,3.7,0,5.5,1.6,5.5,5.2s-.2,6.5-1,9.5c-2.3,9.2-8.6,16.3-12.8,24.6-.3.6-1.5,1-2.4,1.1-1.7.2-3.4,0-5.8,0,2.8-5,5.4-9.8,8-14.5,3.6-6.4,7.3-12.6,10.7-19.1.6-1.2.8-3.5,0-4.4s-2.9-1.2-4.3-1c-8.1,1.5-13.7,8.6-14,17.4v3.6c0,7.6-2.8,11.6-10,14.3v.2Z"/>
  <path class="cls-1" d="M498.3,160.8c-1.4,5.2-7.7,9.8-12.4,9.7-4.6,0-9.2-3.6-10-8.5-.4-2.2.1-5,1.1-7,2.8-5.7,6.2-11.1,9.2-16.6.5-1,.4-2.4.6-3.6-1.3,0-2.6-.2-3.9,0-1.1.1-2.1.6-3.2.9-.1-.4-.3-.7-.4-1.1,3.7-1.5,7.3-3.3,11.1-4.3,1.5-.4,3.8.6,5,1.8.6.6-.1,3.1-.9,4.5-4.5,8.2-9.2,16.2-13.7,24.4-.7,1.2-.8,3.8-.1,4.4,1.7,1.3,4.2,2.6,6,2.2,3-.7,5.7-2.6,8.5-4.1.9-.5,1.6-1.4,3-2.7h0Z"/>
  <path class="cls-1" d="M90.6,146.6c-3.4,5.6-6.5,10.7-9.6,15.8-.5.8-.9,1.7-1.3,2.6-2.9,5.6-3.6,5.9-10.4,4.8,1.7-3,3.4-6,5.1-8.9,3.7-6.4,7.4-12.8,11-19.3.9-1.6,1.6-3.8,1.1-5.4-.5-1.7-2.3-3.9-3.9-4.3-1.4-.3-3.9,1.1-4.9,2.5-2.9,3.9-2.8,8.7-2.3,13.3.2,1.8.5,3.6.7,5.7-2.6-1.5-4.9-2.8-7.2-4.2v-.4c1.6.4,3.2.7,4.7,1.1,0-4-.3-8.3,0-12.5.4-3.8,3.9-6.8,7.1-7.4,5.1-.9,7.7,2.9,9.2,9.1.4,1.7,0,3.6,0,5.4,0,.8.4,1.7.5,1.9v.2Z"/>
  <path class="cls-1" d="M189.7,170.1c1.9-3.5,3.8-7.2,5.8-10.8,3.8-6.7,7.6-13.4,11.5-20.2,3.3-5.7,2.7-6.9-3.6-8.1,4.6-1.8,8.1.2,8.1,5.3s-.9,11-4,15.9c-2.6,4.2-5.2,8.4-7.3,12.9-2.2,4.6-5.1,6.9-10.4,5h-.1Z"/>
  <path class="cls-1" d="M363,181.6c.3.2.5.4.8.6-8.7,3.1-17.2,6.7-24.3,12.8-1.8,1.5-3.4,3.3-4.9,5.1-2.2,2.8-2.3,6-.3,9s5,3.9,8.5,3.3c1-.2,2.1-.4,3.3-.6-2.7,2.9-10.1,3.1-13.5.5-3.1-2.3-3.6-8.4-.5-12.4,2.1-2.8,4.6-5.5,7.5-7.5,7.1-5,14.9-8.9,23.5-10.9h-.1Z"/>
  <path class="cls-1" d="M112.5,150.3v1.5c-2.1,1.5-3.9,3.5-6.2,4.3-4,1.5-7.6-.5-8.9-4.5-.8-2.3-1-4.8-1.5-7.2-.6,0-1.5.2-1.8.2,1.4-2.1,2.8-4.4,4.4-6.6,1.8-2.4,3.6-4.7,5.6-6.9.6-.6,2.7-.7,3-.3.6,1,1,2.6.6,3.7-.3,1.1-1.5,2-2.5,2.8-1.6,1.3-3.2,2.6-5,3.5-2.3,1.2-2.8,3-2.8,5.2,0,3.4.7,6.5,3.9,8.3,3.2,1.9,6,.1,8.5-1.8.9-.7,1.8-1.6,2.6-2.3h.1Z"/>
  <path class="cls-1" d="M182.8,152.6l6.2-11.3c.3.1.5.3.8.4-2,3.8-4,7.5-5.9,11.3-.3-.2-.7-.3-1-.5h-.1Z"/>
  <path class="cls-1" d="M359.3,203.9c-2.8,2-5.6,4-8.4,5.9l-.4-.6c2.7-2.1,5.3-4.2,8-6.3.3.3.5.7.8,1Z"/>
  <path class="cls-1" d="M113.8,152h0Z"/>
  <path class="cls-2" d="M409.4,154.6s0,.1-.1.2c-.1,0-.2-.2-.3-.2l.2-.2s.1.1.2.2h0Z"/>
</svg>