<?xml version="1.0" encoding="UTF-8"?>
<svg id="Calque_1" data-name="Calque 1" xmlns="http://www.w3.org/2000/svg" version="1.1" viewBox="0 0 500 300">
  <defs>
    <style>
      .cls-1 {
        fill: #75683b;
        stroke-width: 0px;
      }
    </style>
  </defs>
  <path class="cls-1" d="M425.6,178.2c3.5-6.5,6.2-13.4,5.2-20.9-.9-6.4-2.8-12.8-4.3-19.1-.2-.7-.4-1.4-.6-2.1.9-.9,2.2-1.6,2.5-2.6,1.2-5.1,2.1-10.2,3.1-15.3.8-4.1.4-7.8-2.7-11,7.2-.3,14.4-.9,21.6-.6,3.2.1,6.3,2,9.9,3.3-2.4,3-4.2,4-7.2,3.2-2.4-.6-5-.9-7.4-.8-1,0-1.9,1.8-2.8,2.8,1.1.7,2.2,2,3.3,2,2.7-.1,5.6-.5,8.1-1.4,6.2-2.5,11.5-6.6,15.9-11.6,1.5-1.7,2.3-4.1,3-6.2.7-2.4,1.7-2.4,3.3-.9.3.3.6.6.9.9,4.2,5.1,9.6,6.2,15.9,5.1,1.3-.2,2.6-.2,4.2-.2-.6,3.3-3,3.6-5,4.2-8.4,2.7-17,5-25.3,7.9-19.8,6.9-31.6,27.2-25.8,48.2,1.1,3.9,2.9,7.5,4.3,11.3,1.5,4.4,3.4,8.8,4.1,13.4.4,2.6-1,5.7-2.2,8.3-.4.9-3,1.7-4,1.3-1.3-.5-2.3-2.2-3.2-3.6-.3-.4.3-1.7.9-2.1.3-.2,1.3.4,2,.7.7.3,1.6,1.2,1.9,1,.6-.4,1.1-1.3,1.2-2,.4-2.8-.9-5.2-3.6-5.6-4.2-.6-8.6-.6-12.9-.6s-2.5.5-3.7.8c.5-2.6,2.3-5.3-.6-7.7h0Z"/>
  <path class="cls-1" d="M272.1,150.1c-1.9,3.7-4,7.4-5.7,11.2-1.2,2.9,0,4,3.2,3.5-.4,2.7.3,6.1-4.5,5.8,1.7,7,3.3,13.6,4.9,20.2-2.5-4.2-4.9-8.4-7.5-12.6-1.3-2.2-2.5-4.7-4.4-6.2-2.1-1.6-5-2.9-7.6-3.1-2.9-.3-5.1,2.6-4.5,4.6,1,3.4,3.1.1,5.5,1-1.1,1.1-2,2.6-2.8,2.6-1.5,0-4-.5-4.4-1.4-.7-1.8-1.1-4.8,0-6,3.4-3.9,7.4-7.2,11.3-10.7,3.3-3,5.9-6.2,5-11-.4-2.5-1.6-4.4-4.2-5.1-2.2-.6-2.9-1.6-1.1-3.6s2-4.3.1-6.3c-2.1-2.2-4.2-.8-6,.5-3.7,2.7-4.5,8.2-1.4,11.6,2.3,2.5,1.8,3.7-.8,5.4-3.9,2.6-5.3,6.7-5.8,11.2-1,8.6,0,16.6,5.8,23.6,1.6,2,2.7,4.6,3.6,7,.3.9-.4,2.3-1.1,3.3-1.4-4.7-5.1-7.4-11.2-7.7-3.1-.1-6.2.3-9.2.5-.5-1.1-.9-2.2-1.4-3.2,5.7-7.7,6.7-16.4,3-24.7-2.1-4.6-2.2-7.7-.5-12.1,1.8-4.6.9-9.6-1.3-14.2,2.6-.8,3-2.6,1.8-4.7-.5-1-1.7-1.6-2.6-2.3,6.6.6,12.7-.2,17.7-5.1.5-.5,1.7-.4,2.5-.6.2,1.2.5,2.4.7,3.9,6.5-.7,13.8-2.6,19.8,3.2-4.8,6.8-3.3,14.4-3.1,22.5,1.9-2.8,3.6-4.8,5.9-1.4l.3.4Z"/>
  <path class="cls-1" d="M59.7,169c2.5,2.1,5.8,1.8,9.9-1,2.1,1.7,4,3.8,6.3,5,2.8,1.4,7.4-.4,9.2-3.1,2.1-3.1,2-7-1-9.5-2.4-2-5.3-3.5-8-5.1-4-2.3-8.2-4.3-12.2-6.5-1-2.7-1.9-5.4-3-8-1.2-2.9-1-5.4,1.4-7.8,1.3-1.2,2.1-2.9,3.1-4.3,7.8,7.2,17.4,11.6,26.9,16.1,1.6.8,3.2,1.6,4.8,2.5-2.4.8-1.5,2.1-.9,3.7,1.1,2.8,2.3,5.8,2.3,8.7,0,5.5-.6,11-.8,16.5,0,1.7.5,3.5.7,5.2-4.1,2.2-8.2,4.6-12.4,6.5-8.3,3.7-16.8,4.3-25.5,1.1-1.3-.5-2.4-1.2-3.6-1.9,1.9-.3,2.4-1.5,1.9-3.2-.4-1.4-.9-2.8-1.5-4.1-1.3-2.8-1.2-5.2,1.1-7.5.8-.8.9-2.2,1.4-3.4h-.1Z"/>
  <path class="cls-1" d="M305.8,129.9c-2.2,2.9-4.5,5.6-6.5,8.6-7,10.1-9.2,20.9-4.4,32.6,2,4.9,3.9,9.9,5.5,14.9.7,2,.9,4.2.9,6.3s-1.8,3.5-4.2,3c-.7-.1-1.4-.8-2.1-1.3.5-.6.8-1.3,1.4-1.8,1.8-1.5,1.7-3.1-.5-4.1-3.9-1.8-7.8-1.6-11.8-.3-1.4.4-3.1.2-4.7.2.1-1.7-.1-3.5.5-4.9,3.9-8.9,6.2-18.1,5.4-27.9-.8-10-4.9-18.1-13.5-23.7h0c0-2.1,1.4-2.8,3.3-3.2,2.6-.5,4.5-1.9,5-4.7.5-3.1-.3-5.9-3.1-7.5-1.2-.7-3.1-.8-4.4-.4-2,.7-1.8,2.2,0,3.4.7.5,1,1.4,1.5,2.1-.9.2-2,.8-2.8.6-3.2-.8-4.5-5-2.1-7.4,1.2-1.2,3-2.3,4.6-2.4,9.7-.4,19.3-.4,29-.6.3,1.7.5,3.3.8,5-2,.3-4,.4-5.9,1-1,.3-2.3,1.6-2.3,2.4s1.4,1.8,2.3,2.3c1.1.6,2.4.6,3.6.9l.2-.5c0,.1.1.3.2.4,1.1,0,2.2-.1,3.4-.2.2,2.3.4,4.6.6,6.8v.4Z"/>
  <path class="cls-1" d="M329,143.3c8.1,7.6,18.3,11.1,28.5,14.3,8,2.6,13.5,7.2,15.9,15.4,1.4,4.6.6,9.3-2.3,11.7-.8-1.2-1.4-2.9-2.5-3.3-.8-.3-2.2,1.3-3.6,2.2-3.9-4.2-8-1.5-12.2.4-4.5,2-8.7,4.7-13.3,6.1-3.5,1-7.4.3-11.2.4-.8-2.2-1.4-4.6-2.5-6.7-2.2-4.3-2.3-4.5,1.5-7.6,1.4-1.2,2.8-2.5,4.3-3.9.8.8,1.5,1.5,2.2,2.1,1.9,1.7,4.1,1.9,6.1.4,2.2-1.5,3.1-3.9,1.6-6.1s-3.6-4.1-5.8-5.8c-2.9-2.2-6.1-3.9-9.1-5.8,2.3-1.2,1.5-2.7.5-4.2-1-1.4-2.1-2.8-3.3-4.4,3-.9,5.8-1.5,5.2-5.2h0Z"/>
  <path class="cls-1" d="M227.9,185.6c.5,1.1.9,2.2,1.4,3.2v.9c-.5.6-1,1.3-1.5,1.9-1.4-.7-3-1.2-4.3-2-5.8-3.9-12.2-4.8-18.9-3.2-6.5,1.5-12.9,3.4-19.4,5.1.3-.8.6-1.6.8-2.4.4-.3.8-.6,1.5-1-.8-.4-1.4-.7-2.1-1,.1-1.3.7-2.9.3-4-1.1-2.9,0-4.7,2.2-6.3,4.2.9,8.3,1.3,11.8-1.9h0c.2-.2.4-.5.7-.7h0c.6-.6,1.3-1.3,1.9-1.9h0c1.4-3.4,3.9-6.7,4.1-10.1.2-6.8-.5-13.8-1.4-20.6-.5-4.2-3.5-7-7.1-9.4-3.4-2.3-6.6-4.9-9.8-7.5-.8-.7-1.4-1.7-2.1-2.6l.6-.8c1,.5,2.2.7,3.1,1.4,6.3,5,13.5,6,21.1,4.9.7-.1,1.5-.2,2.2-.2,10.8-.6,16.5,6.7,12.9,16.9-1.1,3.2-3.5,6-5.7,8.7-.7.9-2.4,1.1-3.7,1.6-.4-1.8-1.4-3.8-1.2-5.5.2-1.8,1.8-3.3,2.6-5.1.5-1,.9-2.3.8-3.4-.1-1.1-1-2.1-1.6-3.1-1,.7-2.7,1.3-2.8,2.1-.5,3.9-1.2,7.9-.5,11.6,1,5.1,2.3,10.5,7.9,13.1.4.2.6,2.4,0,3.1-4.4,6.3-2.5,16.2,4.3,20.3.2-.7.3-1.4.5-2.1h0c.5,0,.9-.1,1.4-.2v.2Z"/>
  <path class="cls-1" d="M164,190.8c-4.4-1.5-8.7-3.4-13.2-4.3-11.7-2.3-22.4.9-32.4,7-1.4.9-2.9,1.6-4.4,2.5-.3-.7-.6-1.5-.9-2.2,3-2,6.1-3.9,9.1-5.9,5.6-3.7,8.9-8.8,9.4-15.5.3-3.9-.9-7.6-4.2-10.1-1.7-1.2-2-2.4-.5-4.2,1.1-1.4,1.8-3.1,2.7-4.6.4-.6.8-1.4,1.3-1.6,3.7-1.2,7.4-2.3,11.9-3.7v15.1c0,2.5,1.1,3,3.2,2.1,5.2-2.3,8-6.3,8.3-11.8.1-2.8.9-4.4,3.7-5.5,2.1-.8,3.8-2.6,5.7-4,.2,1.6.6,3.3.5,4.9-.4,5.4-1,10.9-1.3,16.3,0,.8.7,1.6,1.1,2.4-2.7,2-5.5,4-8.2,6-6.2,4.8-5.9,7.3,1,11,2.5,1.3,5.1,2.6,7.6,3.9-.1.7-.2,1.3-.4,2v.2Z"/>
  <path class="cls-1" d="M375.5,152.5c4.5,5,14.5,4.5,18.7-1,.6-.8,1.2-1.6,2.1-2.7,1.6,3.2-.1,5-1.7,6.6-5.1,5-11.5,5.9-18.1,4.4-3.2-.7-6.4-2.4-9.2-4.2-4.2-2.6-8.2-5.8-12.3-8.6-3.5-2.4-6.9-5-11.6-4.8-.3,0-.6-.2-.9-.3-.2-.1-.2-.3-1.3-1.5,1.2-.7,2.5-1.3,3.5-2.2,2.5-2.6,2.3-5.1-.9-6.8-5.5-3-11.2-3.9-16.9-.2v-3.4c0-3.1-.2-6.1-.3-9.2,7.5-3.8,18.7-1.7,25.7,4.9,2.1,2,4.1,4,5.9,6.2,3.6,4.5,8.3,6.8,13.7,8,.9.2,1.9.4,2.8.7,2.9.9,3.1,1.6.9,3.7-3.5,3.6-3.6,7.3-.2,10.5h0Z"/>
  <path class="cls-1" d="M65.3,128.7c-1,1.5-1.8,3.1-3.1,4.3-2.4,2.3-2.6,4.8-1.4,7.8,1.1,2.6,2,5.3,3,8-10.4-5.3-20.9-10.6-29.5-18.9-1.7-1.6-3.3-3.3-5-4.9.3-1,.3-2.5,1-2.8,2.8-1.5,2.8-3.7,2.1-6.2,7.4,1.8,13.2-.7,18.4-5.9,3.3-3.3,7.1-6,10.7-9,0,1.5.4,3.1,0,4.5-1.1,4-1.5,7.8,1.3,11.3-1.9,4.5-.4,8.3,2.4,11.8h0Z"/>
  <path class="cls-1" d="M62.9,117c-2.8-3.5-2.4-7.3-1.3-11.3.4-1.4,0-3,0-4.5,8-5.1,16.6-4.7,24.9-1.5,3.6,1.4,6.5,4.5,9.7,6.8.3.3.7.6,1,.9h.2v.2c.3,2.4.4,4.8.8,7.2.5,2.5,1.4,4.9,2.1,7.3.8,2.6.2,4.7-1.9,6.6-.9.8-1.1,2.3-1.6,3.5-4.7-.7-9.4-1.5-14.5-2.3,1.1-.9,2.1-1.7,3-2.6,1.5-1.4,3.1-2.6,4.2-4.3,1.8-2.8,1-6-1.4-8-5.2-4.3-20.1-5.5-25.4,2h.2Z"/>
  <path class="cls-1" d="M406.9,162.8c3.8-4.2,6.8-8.7,6.2-14.6-.3-2.4-1.5-4.6-2.4-6.9,0-.6,0-1.4.3-1.9,2-2.5,2.1-4.9.4-7.6-.2-.3.6-1.4,1-2.1.4.2.8.3,1.1.5,4.1,2.2,8,3.1,11-2.2.2.2.4.4.6.6-.1.8,0,1.7-.5,2.4-2.6,4.5-1.4,9.3-1.1,14,.4,6.5,1.2,13.1.9,19.6-.4,8.6-4.7,15-12.8,18.5-.8.3-1.5.8-2.2,1.2-.2-1.9-.7-3.7-.7-5.6,0-3.2.7-6.4.4-9.5-.2-2.2-1.6-4.4-2.4-6.6l.2.2Z"/>
  <path class="cls-1" d="M59.7,169c-.4,1.1-.6,2.6-1.4,3.4-2.3,2.3-2.4,4.7-1.1,7.5.6,1.3,1.1,2.7,1.5,4.1.5,1.7,0,2.9-1.9,3.2-7.6-3.5-12.7-9.7-18-15.8-3.3-3.8-7.2-7.1-10.8-10.6-.3-.2-.7-.4-1-.6h0c.5-.8.7-2,1.4-2.4,3.8-2.1,3.2-4.8,1.3-7.9-.3-.5-.4-1.2-.6-1.8,6.1-1,11,1.3,15.4,5.4,2.2,2,4.6,3.8,7,5.6,2.2,1.6,4.5,2.4,7,.3.5-.4,1.4-.4,2.4-.2-2.2,3.2-3,6.3-1.3,9.7h0Z"/>
  <path class="cls-1" d="M326.7,118.5c.1,3.1.2,6.1.3,9.2v3.4c-2.3,3.6-1.2,7,.7,10.3.2.3.4.6.7.9.2.3.5.6.7.9.5,3.6-2.2,4.3-5.2,5.2,1.2,1.7,2.3,3,3.3,4.4,1,1.5,1.8,3-.5,4.2-6.4-3.1-12.8-6.2-19.1-9.4-2-1-3.6-2.6-5.4-3.9.5-1.1,1.2-2.1,1.4-3.2.2-1.3,0-2.7,0-4,4.8-8.6,13.2-12.8,21.3-17.3.5-.2,1.1-.4,1.6-.6h.2Z"/>
  <path class="cls-1" d="M98.3,181.4c-.3-1.7-.8-3.5-.7-5.2.2-5.5.9-11,.8-16.5,0-2.9-1.3-5.9-2.3-8.7-.6-1.7-1.5-3,.9-3.7,4.4,2.1,9,4,13.3,6.4,4.7,2.6,8.4,6.5,10.9,11.3-.3,1.1-.7,2.2-.9,3.3l-2.1,8.4h0c-.3.3-.6.7-.9,1v1.4c-.6.3-1.1.5-1.7.8h-.7c-1-.1-2.1-.3-3.1-.4-3.9.4-7.7.8-11.6,1.1-.4.2-.8.3-1.3.5-.2,0-.4.1-.6.2h0Z"/>
  <path class="cls-1" d="M412.5,129.7c-.4.7-1.2,1.7-1,2.1,1.7,2.7,1.6,5.2-.4,7.6-.3.4-.2,1.2-.3,1.9-2.6-2-5.2-2.3-7.7.2-1.3,1.3-2.4,1.5-3.3-.6-1.4-3.2-2.9-3.3-5.5-1-2.7,2.4-3,5.7-3.5,9-.9,5.1-4.4,7.3-9.4,5.9-1.9-.5-2.6-1.3-2.1-3.4.7-3.3.7-6.8,1.6-10,.8-3,1.9-6.2,3.8-8.5,5.7-7.2,18.7-11.8,27.9-3v-.2Z"/>
  <path class="cls-1" d="M96.9,132c.5-1.2.7-2.7,1.6-3.5,2-1.9,2.6-4,1.9-6.6-.7-2.4-1.6-4.8-2.1-7.3-.5-2.3-.6-4.8-.8-7.2,5.4,5.3,10.7,10.7,16.4,15.7,2.1,1.8,5.1,2.6,7.7,3.8-.6,4.4-1.2,8.7-1.8,13.1,0,1.1-.5,2.3-.2,3.3.7,2.3,1.7,4.5,2.6,6.8-4.9-1.3-8.4-4.5-12.1-7.7-4.2-3.6-8.7-6.9-13.1-10.4h0Z"/>
  <path class="cls-1" d="M122.2,150.1c-.9-2.3-1.9-4.5-2.6-6.8-.3-1,0-2.2.2-3.3.6-4.4,1.2-8.7,1.8-13.1.7-1,1.5-2,2.6-3.6.8.6,2.4,1.5,3.4,2.9,1.5,2.2,3.4,2.7,5.8,2.2,4-.9,8-2.1,9-6.6,1-4.7-1.1-8.7-4.7-11.9-.9-.8-1.9-1.5-2.9-2.2.2-.4.3-.7.5-1.1,1.1.4,2.4.6,3.3,1.3,5.3,3.7,6.6,9.3,6.2,15.2-.4,6.4-1.3,12.7-1.9,19.1-.2,2.4-1.6,3.9-3.8,4.1-2.5.3-5.2,0-7.7-.5-.5,0-.6-2-.9-3.1-.8-3.5-1.4-7.1-2.3-10.5-.3-1.2-1.4-2.2-2.4-3.6-2.9,2.8-3.9,6-2.7,9,2.5,6.1,5.9,11.5,14,11-5,2.1-9.7,5-15.1,1.7l.2-.2Z"/>
  <path class="cls-1" d="M327.2,176.1c-3.8,3.1-3.7,3.3-1.5,7.6,1.1,2.1,1.7,4.4,2.5,6.7-7.1-1.7-12.6-5.9-17.5-11.1-2.4-2.6-4.9-5-7.3-7.6-.3-.2-.6-.5-.9-.7h0c.1-.8,0-1.9.4-2.5,1.9-2.5.9-4.3-.7-6.5-.8-1.1-.7-2.9-1-4.4,5.4,2.5,10.8,4.9,16.2,7.3,2.2,1,4.4,1.7,6.6,2.5-2.8,6.3-2.6,7,3.1,8.6h0Z"/>
  <path class="cls-1" d="M164,167.9c-.4-.8-1.2-1.6-1.1-2.4.4-5.4,1-10.9,1.3-16.3.1-1.6-.3-3.3-.5-4.9,6.6-9.6,6.3-19.2-1-30.4.6-.5,1.2-1.1,1.8-1.6,1.7,3.5,3.4,7,5,10.6.7,1.5.9,3.3,1.6,4.8,1.7,4.5,2.8,5,7.5,3.7.3,0,.6,0,1.8.3-.9,2.3-1.6,4.4-2.8,7.5,3.9-3.4,7.2-6.7,12.2-6.3-.1,1.3-.2,2.7-.3,4-.4.7-1,1.4-1.2,2.2-.8,2.2-1.8,2.8-4.1,1.5-1-.6-2.6-.3-3.9-.2-1.5.1-2.9.5-5.1.9-1.7,2.4-3.9,5.5-6,8.6-.6.9-1.3,1.9-1.3,2.8,0,1.8,0,4.3,1,5.2.9.8,3.4,0,5.1-.2.3,0,.6,0,1.3.3-2.1,4-5.8,6.4-9.5,8.7-.2.2-.5.3-.7.5h0c-.3.2-.6.4-.9.5-.1,0-.2.1-.3.2h0Z"/>
  <path class="cls-1" d="M406.9,162.8c.8,2.2,2.2,4.3,2.4,6.6.3,3.1-.4,6.3-.4,9.5s.4,3.7.7,5.6c-4.6,3.7-10.4,4.1-15.9,5.1-5.6,1-11.3,1.9-16.9,3.2-3.9.9-7.4,2.7-9.1,6.8-.2.6-.5,1.2-.8,1.8l-1.5-.7c.2-1.1,0-2.7.7-3.4,2.4-2.2,5-4.7,7.9-6.1,4.6-2.2,9.7-3.3,14.2-5.6,7.7-3.8,12.8-9.7,12.7-19,0-.8,1-1.9,1.9-2.4,1.3-.7,2.8-.9,4.2-1.4h-.1Z"/>
  <path class="cls-1" d="M270,190.9c-1.6-6.6-3.2-13.3-4.9-20.2,4.8.3,4.1-3.1,4.5-5.8,1.7-1.2,2.9-.8,3.2,1.2.3,2.1.4,4.2.5,6.3.5,15.7,10.9,25.9,26.6,26.3.6,0,1.3,0,1.9.1,1.2.5,2.5,1,3.7,1.5-2.9.5-5.7,1.3-8.6,1.3-6.9,0-13.5-1.5-19.7-4.6-2.4-1.2-4.3-3.3-6.4-5v-.6h0c-.2-.1-.5-.4-.7-.6h-.1Z"/>
  <path class="cls-1" d="M187.9,176.8c-2.1,1.6-3.2,3.4-2.2,6.3.4,1.1-.2,2.7-.3,4h-.9c-.5-.2-1-.3-1.6-.5-1.6-.9-3.1-1.8-4.7-2.7-3-1.6-6.1-3.2-9.1-4.9-.5-.3-1-.6-1.6-1,5.9-7.2,10.4-15.6,19.6-19.1-.2,2.7.2,5.1,2.8,6.6-1,1.3-2.2,2.6-3,4-1.5,2.6-1.3,5,.9,7.2h.1Z"/>
  <path class="cls-1" d="M376.7,161.9c4.6-.5,8.4-1,12.3-1.2.6,0,1.4,1,2,1.7,1.9,2.3,3.5,4.8,5.6,6.9,1.5,1.4,1.9,2.7,1.1,4.5-4,8.7-5.7,7.9-11.5,3.2-4.7-3.7-6.8-9.3-9.5-15.1Z"/>
  <path class="cls-1" d="M305.8,129.9c-.2-2.3-.4-4.6-.6-6.8,3.2-1.7,6.4-3.4,9.6-5.1h-.1c.2-.2.5-.4.7-.7h-.1c2.6-2.2,5.4-4.3,7.6-6.9,1.6-1.9,2.5-4.4,3.8-6.9,2,1.7,3.9,3.3,5.8,4.9.4.2.7.5,1.1.7h0c.1,1.3.2,2.6.3,3.9h0c-.5.2-1.1.4-1.6.6h0c-.4.2-.9.4-1.3.6-8.8,3.6-16.8,8.4-24,14.6-.2.3-.4.6-.7.9-.1.2-.3.3-.5.3h0Z"/>
  <path class="cls-1" d="M428.8,107.1c3.1,3.1,3.5,6.9,2.7,11-1,5.1-1.9,10.3-3.1,15.3-.2,1-1.6,1.7-2.5,2.6-1.7-2.1-.3-3.8.6-5.6v-3.8c-.6-.1-1.5-.6-1.9-.4-4.1,2.6-4.7,2.5-7.7-1.9h5c5.1,0,6.7-1.6,6.6-6.7,0-4.9-3.1-8.2-7.2-8-.9,0-1.9.3-2.7.8-2.3,1.4-1.9,2.5,1.6,5.7-1.2.1-2.7.8-3.4.3-1.1-.8-2.5-2.6-2.3-3.7.2-1.8,1.3-4.2,2.7-4.8,2.3-1,5.1-1,7.7-1.2,1.2-.1,2.5.2,3.8.3h0Z"/>
  <path class="cls-1" d="M29.2,148.2c.2.6.2,1.3.6,1.8,2,3,2.5,5.7-1.3,7.9-.7.4-1,1.6-1.4,2.4-8.2-1.6-16.4-3.2-24.6-4.8v-1.1c1,0,2.1-.4,3-.2,4.3.9,8,0,11.8-2.4,3.6-2.2,7.4-4.3,11.9-3.6h0Z"/>
  <path class="cls-1" d="M190,165.5c-2.5-1.5-3-3.9-2.8-6.6,2.9-1.6,5.8-3,8.6-4.7,1.5-.9,2.6-2.4,3.9-3.6h0c2.9-2.9,3.4-6.7,1.1-10.3-2.6-4-6.5-5.2-11.3-3.5.1-1.3.2-2.7.3-4,6-.4,11.3,2.3,13.6,6.9,2.5,5.2,1.7,11.6-2.6,15.9-3.4,3.5-7.2,6.6-10.8,9.8h0Z"/>
  <path class="cls-1" d="M272.1,150.1c-2.3-3.4-4-1.4-5.9,1.4-.2-8.2-1.7-15.8,3.1-22.5.9.9,1.8,1.7,2.7,2.6h0c3.2,6.2,3.9,12.4.2,18.7v-.2Z"/>
  <path class="cls-1" d="M218.9,190.3c1.1.2,2.3.3,3.7.6-7.7,9.8-26.2,13.4-36.9,7.5,0-.6.1-1.2.2-1.9,6.1.5,12.2,1.3,18.3,1.3s10.6-3.4,14.7-7.4h0Z"/>
  <path class="cls-1" d="M301.4,157.7c.3,1.5.2,3.3,1,4.4,1.6,2.2,2.6,4,.7,6.5-.5.6-.3,1.6-.4,2.5-1.9-1.1-3.9-2.1-5.8-3.3-2.1-1.3-4.1-6.2-2.9-8.4.6-1.1,2.4-1.8,3.8-2.2,1.1-.3,2.5.3,3.7.5h-.1Z"/>
  <path class="cls-1" d="M32.4,116c.7,2.5.7,4.7-2.1,6.2-.6.3-.7,1.8-1,2.8-2.1-1.5-4.1-2.9-5.3-3.8-2,.5-3.6,1.5-4.4,1.1-1.8-1.1-1.9-4.2,0-5.5,1.7-1.1,4-1.8,6.1-1.9,2.1-.1,4.3.6,6.5,1h.2Z"/>
  <path class="cls-1" d="M425.6,178.2c2.9,2.3,1.1,5.1.6,7.7-4.1,2.4-8.1,5-12.3,7.3-2,1.1-4.2,1.9-6.3,2.8-.2-.4-.4-.7-.6-1,7.3-4.4,13.9-9.4,18.6-16.7h0Z"/>
  <path class="cls-1" d="M228.4,127.6c.9.8,2,1.4,2.6,2.3,1.2,2.1.8,3.9-1.8,4.7-2.7-4.8-7.4-7.4-11.9-10.2-1.1-.7-2.1-1.7-3.1-2.6.3-.4.6-.9.9-1.3,3.9,2.1,7.8,4.2,11.7,6.3.6.2,1.2.5,1.8.7h-.2Z"/>
  <path class="cls-1" d="M118.1,176.7l2.1-8.4c.3-1.1.6-2.2.9-3.3,3.9,5.6,4.6,13.2,1.5,16.6-1.5-1.6-3-3.3-4.5-4.9h0Z"/>
  <path class="cls-1" d="M252.5,201c.9-.9,1.6-2.1,2.7-2.6,4-2,8.1-3.8,12.2-5.5.7-.3,1.7.3,2.5.4-.5.6-.9,1.6-1.6,1.9-3.8,1.9-7.6,3.7-11.5,5.4-1.2.5-2.5.7-3.8,1.1-.2-.3-.4-.5-.5-.8h0Z"/>
  <path class="cls-1" d="M303.6,116.6c-.3-1.7-.5-3.3-.8-5,3.4.8,7,1.4,10.3,2.6,1,.3,1.5,2.1,2.2,3.2h.1c-.2.2-.5.4-.7.7h.1c-3.7-.5-7.5-1-11.2-1.5Z"/>
  <path class="cls-1" d="M185.9,196.5c0,.6-.1,1.2-.2,1.9h-.5c-.4-.2-.9-.3-1.3-.5-.2,0-.4,0-.6-.1-.6-.2-1.2-.4-1.8-.5-5.9-2.2-11.7-4.3-17.6-6.5.1-.6.2-1.3.4-1.9,5.3,2,10.6,3.9,15.9,5.8,1.9.7,3.8,1.2,5.7,1.8h0Z"/>
  <path class="cls-1" d="M305.4,200.4c-1.2-.5-2.5-1-3.7-1.5,1.6-.7,3.2-1.5,4.8-2.2h0c2.3-2.5,2.1-3-1.2-4.9.8-2.8,2.8-2.6,4.9-2h0c1.7,4.2,1.4,6.1-1.8,8.6-.2.3-.5.6-.7.9h0c-.3.2-.7.4-1,.6h0c-.4.2-.8.4-1.3.6h0Z"/>
  <path class="cls-1" d="M113.1,193.8c.3.7.6,1.5.9,2.2h0c-.2.2-.4.4-.7.6h0c-.2.2-.4.4-.7.6h0c-.3.2-.6.4-1,.7-.2.2-.5.4-.7.6-.3.2-.6.5-.9.7h0c-.2.2-.5.4-.7.6h0c-.3.2-.6.4-1,.7-1.6,1.2-3.2,2.4-4.9,3.6-.2-.3-.5-.6-.7-.9,2-4.5,6.4-6.6,10.1-9.3h.3Z"/>
  <path class="cls-1" d="M227.7,191.7c.5-.6,1-1.3,1.5-1.9,4,1.1,8,2.2,12,3.3,0,.4-.1.7-.2,1.1-3.6,1.2-7-.2-10.4-1.3-.6-.2-1.3-.5-1.9-.7h0c-.3-.2-.7-.4-1-.6h0Z"/>
  <path class="cls-1" d="M407,194.9c.2.3.4.7.6,1-3.8,2-7.6,3.9-11.3,5.9l-.8-1.5c3.1-3.2,7.1-4.6,11.5-5.4h0Z"/>
  <path class="cls-1" d="M274.3,157.2c2.6.2,5.2.4,7.9.7.4,0,.9,1,.8,1.4,0,.5-.7,1.2-1.2,1.2-2.9.3-5.5-.4-7.8-2l.2-1.3h.1Z"/>
  <path class="cls-1" d="M203.5,157.7c2.5.2,2.2,2,1.6,3.5-.8,2.1-4,3-6.7,1.8.9-1,1.7-1.9,2.5-2.8h0c.3-.2.6-.4.9-.6.1-.2.2-.3.4-.3.2-.3.4-.6.7-.9h0l.6-.6h0Z"/>
  <path class="cls-1" d="M159.5,199.4c3.6-1.4,7.3-2.8,10.9-4.3.2.5.4.9.5,1.4-2.7,1.1-5.5,2.3-8.2,3.4-.5.2-1,.4-1.5.5h0c-.6-.3-1.2-.7-1.8-1h.1Z"/>
  <path class="cls-1" d="M186,189.1c-.3.8-.6,1.6-.8,2.4-2,.6-4.1,1.1-6.1,1.7-.1-.5-.3-1-.4-1.4,2.5-.9,4.9-1.8,7.4-2.7h0Z"/>
  <path class="cls-1" d="M416,183.8c-.8,1.8-1.5,3.5-2.4,5.5-3.2-3.7-2.9-4.3,2.4-5.5Z"/>
  <path class="cls-1" d="M164.5,112.2c-.6.5-1.2,1.1-1.8,1.6-.7-1-1.6-2-2.2-3.1-.4-.7-.3-1.7-.4-2.6.8.4,1.6.8,2.5,1.3.2.3.4.6.7.9h0c.4.7.9,1.3,1.3,2h-.1Z"/>
  <path class="cls-1" d="M303.5,136.6c0,1.3.2,2.7,0,4-.2,1.1-.9,2.1-1.4,3.2-1.8-1.2-1.6-2.8-.6-4.4.6-1,1.4-1.9,2.1-2.8h-.1Z"/>
  <path class="cls-1" d="M334,112.9c-.1-1.3-.2-2.6-.3-3.9,2,.5,4,.9,6,1.4v1.2c-1.9.5-3.9.9-5.8,1.4h0Z"/>
  <path class="cls-1" d="M462.9,117.5c1.5-.2,3.1-.4,4.6-.6,0,.5.1,1.1.2,1.6-1.5.2-3.1.4-4.6.6,0-.6-.1-1.1-.2-1.7h0Z"/>
  <path class="cls-1" d="M159.5,199.4c.6.3,1.2.7,1.8,1-1.4.5-2.8,1.1-4.2,1.6-.2-.4-.4-.7-.5-1.1,1-.5,1.9-1,2.9-1.5Z"/>
  <path class="cls-1" d="M426.6,126.7v3.8-3.8Z"/>
  <path class="cls-1" d="M111.8,179.6c1,.1,2.1.3,3.1.4-1-.1-2.1-.3-3.1-.4Z"/>
  <path class="cls-1" d="M164.5,112.3c-.4-.7-.9-1.3-1.3-2,.4.7.9,1.3,1.3,2Z"/>
  <path class="cls-1" d="M228.5,127.6c-.6-.2-1.2-.5-1.8-.7.6.2,1.2.5,1.8.7Z"/>
  <path class="cls-1" d="M115.6,180c.6-.3,1.1-.5,1.7-.8-.6.2-1.1.5-1.7.8Z"/>
  <path class="cls-1" d="M183,186.5c.5.2,1,.3,1.6.5-.5-.2-1-.3-1.6-.5Z"/>
  <path class="cls-1" d="M326.4,118.6c-.5.2-1.1.4-1.6.6.5-.2,1.1-.4,1.6-.6Z"/>
  <path class="cls-1" d="M332.3,113.6c.5-.2,1.1-.4,1.6-.6-.5.2-1.1.4-1.6.6Z"/>
  <path class="cls-1" d="M228.8,192.2c.6.2,1.3.5,1.9.7-.6-.2-1.3-.5-1.9-.7Z"/>
  <path class="cls-1" d="M181.6,197.3c.6.2,1.2.4,1.8.5-.6-.2-1.2-.4-1.8-.5Z"/>
  <path class="cls-1" d="M161.2,200.4c.5-.2,1-.4,1.5-.5-.5.2-1,.4-1.5.5Z"/>
  <path class="cls-1" d="M99,181.2c.4-.2.8-.3,1.3-.5-.4.2-.8.3-1.3.5Z"/>
  <path class="cls-1" d="M27,160.2c.3.2.7.4,1,.6-.3-.2-.7-.4-1-.6Z"/>
  <path class="cls-1" d="M97.1,107.2c-.3-.3-.7-.6-1-.9.3.3.7.6,1,.9Z"/>
  <path class="cls-1" d="M331,114.1c.4-.2.9-.4,1.3-.6-.4.2-.9.4-1.3.6Z"/>
  <path class="cls-1" d="M117.2,177.8c.3-.3.6-.7.9-1-.3.3-.6.7-.9,1Z"/>
  <path class="cls-1" d="M269.9,190.9l.7.7-.7-.7Z"/>
  <path class="cls-1" d="M227.8,191.6c.3.2.7.4,1,.6-.3-.2-.7-.4-1-.6Z"/>
  <path class="cls-1" d="M270.7,191.5v.6c0-.2-.1-.4,0-.6Z"/>
  <path class="cls-1" d="M328.3,142.4c-.2-.3-.4-.6-.7-.9.2.3.4.6.7.9Z"/>
  <path class="cls-1" d="M163.2,110.4c-.2-.3-.4-.6-.7-.9.2.3.4.6.7.9Z"/>
  <path class="cls-1" d="M306.4,129.6c.2-.3.4-.6.7-.9-.2.3-.4.6-.7.9Z"/>
  <path class="cls-1" d="M333.6,109c-.4-.2-.7-.5-1.1-.7.4.2.7.5,1.1.7Z"/>
  <path class="cls-1" d="M165.1,167.2c.2-.2.5-.3.7-.5-.2.2-.5.3-.7.5Z"/>
  <path class="cls-1" d="M113.3,196.6c.2-.2.4-.4.7-.6-.2.2-.4.4-.7.6Z"/>
  <path class="cls-1" d="M112.7,197.2c.2-.2.4-.4.7-.6-.2.2-.4.4-.7.6Z"/>
  <path class="cls-1" d="M111.7,197.9c.3-.2.6-.4,1-.7-.3.2-.6.4-1,.7Z"/>
  <path class="cls-1" d="M164.3,167.8c.3-.2.6-.4.9-.5-.3.2-.6.4-.9.5Z"/>
  <path class="cls-1" d="M184,197.9c.4.2.9.3,1.3.5-.4-.2-.9-.3-1.3-.5Z"/>
  <path class="cls-1" d="M110.1,199.2c.3-.2.6-.5.9-.7-.3.2-.6.5-.9.7Z"/>
  <path class="cls-1" d="M307.7,199.2c.2-.3.5-.6.7-.9-.2.3-.5.6-.7.9Z"/>
  <path class="cls-1" d="M109.5,199.8c.2-.2.5-.4.7-.6-.2.2-.5.4-.7.6Z"/>
  <path class="cls-1" d="M306.7,199.8c.3-.2.7-.4,1-.6-.3.2-.7.4-1,.6Z"/>
  <path class="cls-1" d="M108.5,200.5c.3-.2.6-.4,1-.7-.3.2-.6.4-1,.7Z"/>
  <path class="cls-1" d="M302.6,171c.3.2.6.5.9.7-.3-.2-.6-.5-.9-.7Z"/>
  <path class="cls-1" d="M305.4,200.4c.4-.2.8-.4,1.3-.6-.4.2-.8.4-1.3.6Z"/>
  <path class="cls-1" d="M301.4,123.2h.4c0-.1-.1-.3-.2-.4l-.2.5h0Z"/>
</svg>