<?xml version="1.0" encoding="UTF-8"?>
<svg id="Calque_1" data-name="Calque 1" xmlns="http://www.w3.org/2000/svg" version="1.1" viewBox="0 0 500 300">
  <defs>
    <style>
      .cls-1 {
        fill: #75683b;
        stroke-width: 0px;
      }
    </style>
  </defs>
  <path class="cls-1" d="M247.2,87.8c10.8-13.8,24.5-23.5,41.3-28.7,36.8-11.3,75.9,5.6,93.1,40,.6,1.2,1.2,2.3,2,4,4.6-6.5,11.8-8.2,18.1-11.6,3.7-2,6.7-5,10.2-7.5,1.9-1.3,4-2.4,6-3.5,3.8,3.9,8.7,5.5,13.8,7,3.3.9,6.5,1.8,9.8,2.8,1.1.5,2.2,1,3.4,1.5-9.6,9.8-10.8,12.1-9,17.9,2.1-2.2,4.2-4.3,6-6.5,2.9-3.4,4.4-7.4,4.1-12-.1-1.9-.9-2.5-2.7-2.2.4-.8.8-1.7,1.5-3.2,1.5,2.2,2.6,3.7,3.8,5.5,2.9-8.7,2.7-16.5-3.3-23.4-5.3-6.1-14.7-6.3-19.9-.6-2.2,2.4-2.8,5.1-1.7,8.1.7,1.8,2,2.6,3.5.5,2.3-3.2,3.5-3.1,5.6.2-.2,3.8-1.4,5.4-4.7,4.9-1.9-.3-4.7-1.8-5.2-3.4-1-2.9-.5-6.2-.7-9.3,4.2-6.2,10.1-7.4,17-5.9.4.2.9.4,1.3.5,2.7,2,5.5,4,8.2,6.1.5.7,1,1.3,1.5,2h0c5.7,12.2,1.2,22.7-5.8,32.5,3.3,3.1,3.8,5.3,2.1,8.1-1.7,2.9-4.9,4-8.4,3.1-.8-.2-2-.2-2.5.2-1.7,1.6-3.1,3.4-4.9,5.3,3.7,1.1,6.8,2,9.9,3,4,2.6,8,5.2,12,7.8.6.6,1.1,1.3,1.7,1.9.2.2.3.5.5.7,7.7,13.5,6.4,26.9-.8,40-4.9,9-13.8,13.5-22.1,18.7-5.5-6-13-7.5-20.5-9.3-.2,1.1-.6,2.1-.5,3,.2,4.1-1.7,8.4,2.2,12.1,1.8,1.8,2.2,5.4,0,7.4-3.2,2.8-2.7,6.4-2.9,9.8-.2,4.9-.1,9.8,0,14.7,0,2.9.3,5.7,2.9,7.8,1.7,1.3,2,3.7,0,5.4-1.9,1.7-4,1.5-5.8-.3-1.8-1.7-1.4-3.7-.3-5.7.4-.6.8-1.3,1.2-1.9v-.8c0-.2,0-.4-.1-.6v-23.8c-2.3-1.5-4.3-2.8-6.4-4.2v-.5c7,2,7.9,1.2,6.5-5.7,0,0-.2-.1.4.4-2.6.6-4.7,1.4-6.9,1.4s-1-2.5-1.6-4.3c-1.6.9-3.7,1.9-5.5,3.2-1.8,1.2-3.2,2.9-5,4.2-5.7,4.2-12,3-16-2.9-2-2.9-2.3-5.9-1.6-9.1.7-3.3,1.8-6.6,2.7-9.8h-.6c-.3.2-.5.4-.7.7-5.3,6.7-10.3,13.5-11.8,22.3-1,5.6-.6,10.6,2.7,15.3,5.9,8.8,15.2,10.2,21.6,3.2,2.3-2.1,3-4.6,1.8-7.5-.3-.7-1-1.4-1.7-1.7-.3-.1-1.2.7-1.6,1.3-2.1,2.9-2.9,2.9-5.3.1,0-1.1.1-2.1.2-3.2,4.6-3.6,10-2.3,11,2.7,1.1,5.6-1.2,10.5-6.5,12.9-13.4,6.1-23-4.7-24.5-15.5-1-7.1.7-13.8,4.2-20v-1c-.2.2-.4.3-.6.5-5.6,3.7-11,7.7-16.8,11-10.1,5.7-21.1,9.1-32.6,8.9-7.6-.1-15.2-1.9-22.8-3.3-9.3-1.7-18.6-4.9-27.9-.2-.1,0-.4,0-1.3-.3,2.8-1.5,5.3-2.8,7.7-4.1h11.5c.2,0,.5.2.7.3,0-.3,0-.5-.1-.8-.5-.9-1.1-1.8-1.6-2.7l.6-.6c2.6,3.2,5.7,5.2,9.1,5.6.2-2.9.4-5.3.6-7.8.3,3.6,1.1,7,4.7,8.8,1.8.8,3.5,1.8,5.3,2.3,8.7,2.2,17.4,1.2,26.1-.5,19.9-3.9,34.7-16.1,48.1-30.3,3.5-3.6,7.1-7.1,10.6-10.6-3.2-3.6-9-5.2-12.4-3.3-1.3.7-2.1,2.5-2.8,3.9-.2.5.3,1.8.8,2.2.6.3,1.6,0,2.9-.1-.8-.9-1.2-1.3-1.6-1.7l.7-.7c.6.7,1.8,1.4,1.7,1.9,0,.8-1.2,2.2-1.6,2.2-1.8-.2-3.6-1-5.4-1.5v-1.9c1.2-1.6,2-3.7,3.5-4.7,4-2.5,8.4-2.2,12.9-.4-2.9-5.5-11.2-10.7-16.8-10.8-3,0-5.4,1.8-5.5,4.7,0,.9.7,1.8,1.1,2.6.9-.5,1.7-1,2.5-1.6.7-.5,1.5-1.7,1.8-1.5.9.5,2.4,1.5,2.3,2.1-.2,1.3-1,3-2.1,3.5-3.8,2.1-7.9-.5-8.4-5.1,1.8-2,3.6-3.9,5.3-5.9,2-.3,3.9-.7,5.9-1,0-.2.2-.5.3-.7-1.9-.7-3.8-1.5-5.3-2.1-.7-1.2-1.1-2.2-1.8-3-1.3-1.6-2.9-3-4-4.7-4.4-6.9-5.7-14.4-4.4-22.4,2-4,4-7.9,6-11.9-.2.8-.3,1.6-.6,2.4-1.8,5.6-2.6,11.3-1.8,17.2,8.3-2.6,9.1-14.2,5.2-19.5-.4-.5-1.5-.5-2.2-.7,1-1.1,1.9-2.5,3.2-3.1.4-.2,1.9,1.3,2.7,2.2.5.6.8,1.5,1.1,2.3.2,1.1.5,2.1.7,3.2,1.3,6.9-1.3,12.5-7.2,15.5-2.2,1.1-5.8,1.9-1.3,4.9.3.2.1,1.2.3,1.9,1.2,5.7,1.8,6.8,4.6,8.9v-1.7l3.6,5.2c.5.7.9,1.4,1.4,2.1h0c.5.6,1,1.2,1.5,1.8,4.9,4.6,9.9,9.2,14.8,13.7,1,1.4,1.9,1.2,2.8,0,2.4-2.6,4.8-5.2,7.2-7.8,1.2-1.2,2.3-2.5,3.7-4-11.5-6.2-20.2-14.2-22.5-27.5v-6.4c.1-.7.3-1.3.4-2,0-.4.1-.9.2-1.3.2-.7.4-1.3.6-2,.2-1.1.5-2.1.7-3.2,2-1.1,2.1-2.6,1.2-4.6-5.1-11-11.6-20.9-21.3-28.5-6.4-5-13.3-9.1-20.8-12.1-12.6-5-25.8-5.9-39-3.8-21.2,3.4-38.4,13.4-50.9,31.2-2,2.8-2.1,4.9.2,7.3.3.6.6,1.2.9,1.8.2.3.4.6.5.9,0,.2,0,.3.1.4.2.3.4.6.5.9,0,.2,0,.3.1.4.2.3.4.6.5.9,0,.2,0,.3.1.4.2.3.4.6.5.9,0,.2,0,.3.1.4.2.3.4.6.5.9,0,.2,0,.3.1.4.2.3.4.6.5.9.3.6.5,1.1.8,1.7,1.1,2.2,2.1,4.4,3.2,6.5.2.4.4.9.6,1.3,2.6,5.1,5.3,10.3,7.9,15.4.3-.1.6-.3,1-.4-.4-5.4-2.4-10.3-4.8-15v-1.2c1.3,2,2.9,4,3.7,6.2,1.8,4.6,3.2,9.4,4.8,14.1.9,2.5,2.6,3.3,5.1,1.9,1.5-1,3.1-2.1,4.6-3.1.3-1.2,1.3-2.8.9-3.6-2-3.4-4-6.9-6.7-9.8-3.8-4.2-8.2-7.8-12.3-11.7-.9-1.4-1.8-2.8-2.6-4.2,2.3.9,4,2.3,5.7,3.8,6.4,5.9,13.2,11.6,17.2,19.6,1.1,2.2,2,2.9,4.7,2,5.5-1.7,7.6.4,7,6.3,0,0,.1.2.4.6,8.1.5,15.9,3.1,23.4,6.6,1.7.8,3.6,1.3,5.4,2,1.2.8,2.4,1.5,3.7,2.3-1.7.3-3.2.3-4.6-.3-5-2-9.9-4.4-15-6.1-3.5-1.2-7.2-1.8-10.9-2.3-.7-.1-2.1.8-2.4,1.5-.9,1.9-1.5,4-2.1,6.1-1,3.4-.4,4.2,3.4,4,.9,0,1.7-.1,2.6-.2.9-.1,1.8-.3,2.6-.4h9.7c2.4.4,4.8.8,7.2,1.3-.2.2-.5.3-.7.5-6.8,1.6-14.1-1.5-21.3,2.7,6.2,2.3,12.1,3,18.1,3.3,6.4.9,12.8,1.7,19.2,2.6,10.8,1.6,21.5,3.7,30.2,11.2,2.4,2.4.9,4.1-1,5.9-6.1,6.1-13.8,9.2-21.7,12.1-6.4,2.4-13,3.3-19.3-1.1.7,6.1-.8,7.4-6,8-1.2.1-2.4.2-3.5,0-4.2-.6-8.3-1.4-12.5-2-8.2-1.1-16.3-2.5-19.7-12.2-1,1.1-1.7,1.7-2.2,2.5-1.5,2.5-2.7,5.2-4.4,7.6-4,5.7-8.2,11.4-16.6,10.4-1-.1-2.3.9-3.2,1.7-3.2,2.7-5.8,2.6-8.5-.5-.5-.6-1.5-.8-2.2-1.3-1.5-1.1-2.9-2.2-4.3-3.3,0-.9.1-1.7.2-2.6,1.6-1.2,2.8-3.1,1.2-4.6-3-2.6-2.7-5.9-2.7-9.2,1.3-4.9,2.9-9.7,6.7-13.3.9-1.4,1.8-2.8,2.6-4.3,2.1-4.3,2.1-4.4-2.7-4.8-4.6-.4-7.7-2.5-9.6-6.7-2.4-5.1-5.1-10-7.8-15-2.1-4-3.8-8-2.8-12.6,0-.3.1-.5.2-.8,1.7-1.2,3.4-2.4,5-3.6-3.9-1.7-6.4-5.1-7.2-9.6-.5-2.9-1.3-5.9-1-8.7.9-7,2.3-14,3.6-21,.2-.6.5-1.3.7-1.9.2-.4.4-.9.5-1.3.5-1.1.9-2.2,1.4-3.3.2-.4.5-.8.7-1.3,2.1,1.1,4.3,2.2,6.4,3.2.7.5,1.3,1,2,1.4l6.4,6.4c1,1.5,2,3,3.2,4.7.8-1.5,1.5-2.8,2.3-4.1v.3ZM402.3,167.8c1.9-.5,4.3,1.4,5.9-1.1v-2.6c0-2.4.4-4.8-.2-7.1-.5-1.9-1.7-4.1-3.3-5-.8-.5-3.4,1.3-4.6,2.6-4.6,4.7-9,9.7-13.5,14.5-2.4,2.5-4.7,5-6.4,6.8,4.6-2.1,9.8-4.5,15.1-7,2.3-.4,4.7-.8,7-1.2h0ZM402.9,135.5c1.1.3,2.1.6,3.2.9l4.7,1c1.6-1.2,3.2-2.3,4.9-3.5-9.7-2.6-19.1-4.1-26.3-10.9-.7-1.7-1.4-3.4-2.1-5.2,0-2.3-.2-4.5.1-6.7.8-4.8,3.5-7.7,7.9-8.6-.9,3.1-4,6.3.4,9.1,7.5,5.8,21,7.2,28,3.1,1.5,1.6,3,3.2,4.5,4.8,1.6-2,2.8-3.5,4-5,.8-.6,1.5-1.2,2.3-1.7-.3,0-.6,0-.9.1.3-9.5-7.3-10.3-13.2-12.9-.9-.4-1.8-.8-2.7-1-4.6-.9-9.3-2.5-13.9-2.5-13.6,0-23.2,11.3-20.6,23.5.7,1.9,1.1,4,2.2,5.6,3.6,5.3,9,7.7,15,9.2.4.1.8.3,1.2.4.5,0,.9.2,1.4.3h-.1ZM405.5,193.9c.7,0,1.3.2,2,.3.3-.4,1-.7,1-1.1v-10.7c-7.7-1.2-15.2-1.4-22.7.2-5,1.1-9.1,3.5-11,8.7-.8,2.3-.8,4.3,1.3,5.5,2.2,0,4.8-.4,6.1.8,1.3,1.1,1.3,3.8,1.9,5.9,3.6-.5,5.9-4.5,4.3-8.8-.4-1.2-1.7-2.4-2.8-2.8-.8-.2-2,1.1-3,1.6s-1.8.6-2.6.9c0-1.1-.2-3.1.3-3.3,2-.8,4.2-1.1,6.3-1.6,4.1,2,5.3,5.4,4.3,10.1,1.8-1.1,3.1-2,4.5-2.8s2.9-1.5,4.3-2.3c.4-.2.9-.3,1.3-.5.7,0,1.3-.1,2-.2h2.6,0ZM447.3,177.2c4.5-4.2,7.1-9.6,7.8-15.6,1.1-8.9-3-15.6-10.9-19.2-7-3.2-14.6-5.3-22-7.6-3.8-1.2-5.1-.4-6.7,3.4,6.2,1.7,12.6,2.9,18.6,5.3,4.6,1.8,9.2,4.5,12.9,7.8,6,5.5,5.5,14.7-.4,20.1.6-5.5-2.1-8.9-6.6-11.3-5.8-3.2-12.1-4.8-18.6-5.1-10.2-.5-10.2-.4-10.1,9.9v.7c-.4,2.1.6,3,2.6,2.9,6.5,2.4,12.9,4.8,19.4,7.3,2.4.9,4.6,2.4,7,3.3,2.6,1.1,5.1.7,6.9-1.7v-.2ZM437.5,112.3c3.2.8,5.9,1.1,7.5-1.7.5-.8,0-2.4-.2-3.5,0-.3-1.5-.1-2.3-.2.3,1,.6,2.1.9,3.2-.9-.3-2-.6-3.3-.9-.7.9-1.5,1.9-2.6,3.1h0ZM410.7,243.3c1-1.3,2.1-2.3,1.9-2.6-.6-1-1.5-1.9-2.5-2.5-.3-.2-2,1.3-1.9,1.4.6,1.1,1.4,2.1,2.5,3.7Z"/>
  <path class="cls-1" d="M2.5,133.5v-2.6c.4-.2.9-.5,1.3-.7,1.9-.1,2.7.7,2.8,2.6.2,2.4.4,4.8,1.1,7,.5,1.5,1.8,2.7,2.8,4.1.4-.2.7-.4,1.1-.6-.1-1-.3-2.1-.4-3.1.2,0,.3-.2.5-.3.7.9,1.3,1.8,2,2.7,1.7,2.6,3.5,5.2,5.2,7.9.2.2.4.4.7.6.8.8,1.7,1.5,2.5,2.3,2.4,2.3,4.8,4.6,7.3,6.8.6.5,1.2,1.1,1.9,1.6.9.6,1.8,1.2,2.7,1.8.4-.3.8-.5,1.2-.8,2.2-2.4,4.4-4.7,6.6-7.1,1.4-1.6,2.7-3.1,4.2-4.7-13-7.4-22.7-16.6-22.4-32.5,1.6-12.1,7.8-20.6,19.5-24.7,6-2.1,10.6-6.1,15.4-10,1.6-1.3,3.6-2,5.5-3,3.8,3.8,8.7,5.4,13.7,6.9.3,0,.5.1.8.2,1.3.4,2.6.8,3.9,1.2,1.9.5,3.9,1.1,5.8,1.6.9.5,1.8.9,2.8,1.4-8.8,7-10.9,11.8-8.9,17.9,2.5-2.9,5.5-5.4,7.2-8.5,1.6-3,2.1-6.6,2.8-10,.3-1.6-.7-2.6-2.5-2.2,0-1.9.6-2.9,2.6-2,.7,1.1,1.3,2.1,2.1,3.4.5-.4.9-.7,1-1,2.5-7.9,1.8-15.4-3.9-21.8-5-5.7-13.8-6.3-18.9-1.2-1.6,1.6-2.3,4.4-2.9,6.9-.2,1,1.1,2.3,1.8,3.5.9-.8,1.8-1.5,2.7-2.3.4-.4.7-.8,1.1-1.2,1.3.8,2.6,1.7,3.9,2.5.2,2.5-.6,4.1-3.2,4.8-2.7.7-5.1-.1-6.2-2.3-1.2-2.5-1.3-5.5-1.9-8.3,3-7.3,10.3-10.6,18.1-7.4,3.4,1.4,6.2,4.1,9.2,6.2,7.9,12.7,2.9,23.7-4.4,34.4,3.1,3,3.7,5.3,2,8.1-2,3.3-5,4.1-10.5,2.5-1.7,1.9-3.4,3.9-5.4,6.1,3,.8,5.5,1.5,8,2.2,2.1.9,4.2,1.8,6.2,2.7.7.4,1.5.9,2.2,1.3,1.9,1.5,3.7,3.1,5.6,4.6,7.1,8.1,8.2,17.8,6.7,27.9-2.5,16.7-13.7,26.4-28,33.3-5.1-6.4-12.7-7.3-20.1-9.3-.3,3.3-.7,6.2-.6,9.2,0,1.6.6,3.3,1.5,4.6,2.6,3.6,2.5,7.1-.5,10.5-.6.7-1.2,1.8-1.2,2.8-.2,6.7-.3,13.5-.4,20.2,0,2.9.3,5.4,2.8,7.6,1,.8,1,3.9.2,5.1-.6.9-3.3,1.1-4.8.8s-1.6-2.1-2.4-3.2c0-.6,0-1.5.3-1.9,3.3-3.2,2.1-7.1,2.1-10.8s0-10.4.2-15.5c0-2.2-.2-3.6-2.9-3.9-1.4-.2-2.6-1.9-3.9-2.9,2.1.5,4.2,1.1,6.6,1.7v-7.9c-5.7,4.1-6.5,3.9-8.7-2.5-3.2,2.4-6.2,4.7-9,7-3.6,2.9-7.5,4.3-12,2.2-4.8-2.2-7.1-6.3-6.6-11.1.4-4.4,2.4-8.6,3.6-12.9.2-.4.4-.9.6-1.3-.4.3-.7.5-1.1.8-6.3,7.3-12,14.9-13.6,24.7-1.1,7,0,13.1,5.5,18.1.2.2.4.4.7.6.6.5,1.2,1,1.9,1.5,1.7.6,3.5,1.2,5.2,1.9h2.7c3.3-.2,6.2-1.4,8.4-4,3.1-3.7,3.2-6.4,0-9.7-2,1.7-3.5,6.5-7,1.7l.4-3.2c2.1-2.5,4.8-2.1,7.6-1.8,1.2,1.5,2.4,2.9,3.5,4.4,0,8.4-3.8,13.5-11.1,14.4-8,1-13.9-2.3-17.7-9.7-.5-1-1.2-1.9-1.9-2.9-.2-1.4-.4-2.9-.6-4.3-1.4-12.3,4.2-21.9,12-30.6,4.4-4.8,8.9-9.5,13.3-14.2-2.9-3.7-9.2-5.3-12.7-3.1-1.1.7-2.1,2.2-2.3,3.5-.5,2.5.4,3,3.3,1.9-.4-.5-.8-1-1.2-1.4.2-.2.4-.4.6-.6.7.6,1.9,1.1,1.9,1.7s-.7,2.1-1.4,2.4c-2.7,1.2-5.3-.7-5.6-3.9,1.3-1.7,2.6-3.4,3.9-5.1,1.7-.3,3.5-.6,5.2-.9,2.4.4,4.8.7,7.1,1.1-2.7-5.2-10.9-10.3-16.6-10.3s-6.1,2.6-5.6,5.6c0,.7.9,1.6,1.5,1.7.6.1,1.6-.4,2.1-1,.4-.5.4-1.4.8-3.1,1.5,1.2,2.6,2,3.7,2.8-.1.8-.3,1.7-.4,2.5-3.7,2.9-6.4,2.8-9.6-.5-1.5-3.2,0-5.6,2.1-7.7,2.8-.9,5.7-1.9,9.1-3-2.3-.9-4.3-1.6-5.3-2-1.5-2.5-2.6-4.4-3.7-6.3-1.6-3-3.2-5.9-4.8-8.9v-.3ZM47.6,167.8c1.3,0,2.6.2,3.8,0,.9-.1,1.8-.7,2.7-1.1v-7.2c-.2-1.7-.2-3.5-.8-5.1-1.2-3.2-3.6-3.8-6-1.4-6.7,7-13.2,14.2-20.2,21.7,4.9-2.1,9.4-4.1,13.9-6,2.1-.3,4.3-.7,6.4-1h.2ZM53.4,194.1l.8-.6v-5.2c0-1.3,0-2.6.2-3.9.2-1.9-.7-2.6-2.4-2.6-5.4,0-10.9-.3-16.3,0-3.2.2-6.4,1.4-9.3,2.6-3.6,1.6-5.4,4.9-6.2,8.6-.5,2,1,3.7,2.7,3.7s4.5-.2,5.6.9c1.2,1.2,1,3.7,1.5,5.7,4.2-.7,6.6-6.6,3.8-10.3-1.5-2-3.3-1.9-5.1,0-.6.7-2,.7-3,1,.2-1.1.2-3,.7-3.2,1.9-.8,4-1,6.1-1.4,4.1,2,5.3,5.3,4.2,10.2,5.4-3.6,10.2-7.1,16.7-5.6h0ZM41.1,102.1c-.4,1.1-.7,2.2-1.2,3.3-1.2,2.5-.5,4.4,1.5,6,5.8,4.6,21.5,8.1,28.3,3.2,1.4,1.5,2.8,3.1,4.4,4.8,1.7-2,3-3.5,4.3-5.1,1.3-1.1,2.7-2.2.7-3.8-.2-.5-.3-1.1-.5-1.6-.6-1.5-.7-3.8-1.8-4.3-6.1-2.7-12.3-5.3-18.7-7.3-6.5-2-13.1-1.6-19.2,1.9-6.7,3.8-10.3,9.5-10.2,17.3,0,7.7,4.2,12.9,11.1,15.8,4.7,1.9,9.6,3.3,14.5,4.6,4,1.1,5.3.3,6.9-3.8-1.6-.3-3.2-.6-4.8-.9-7.2-1.6-14.5-3-20-8.6-5.7-5.8-4-19.6,4.8-21.3v-.2ZM59.9,168.1c2.5.7,5,1.2,7.4,2.2,5.8,2.5,11.4,5.2,17.1,7.8,3.1,1.4,6.2,2.1,8.8-1,0,0,.2,0,.3-.1,10.4-12,12.5-28.8-7.4-36.9-5.9-2.4-12.2-3.8-18.3-5.6-3.4-1-5.1,0-6.3,3.8,1.5.3,2.9.6,4.4.9,8.5,1.9,17,3.8,24.2,9,8.3,6.1,9.4,15.5,2.6,22.9.4-6.8-3.6-10.4-9.1-12.4-5.1-1.8-10.4-3.6-15.7-3.8-11.5-.6-10.6-1.6-10.7,10.3,0,2.1.6,3,2.7,2.7v.2ZM82.8,111.9c3.5,1.3,5.9,1.3,7.6-.7.7-.9.7-2.5.7-3.8s-1.4-.6-2.1-.9c-.3,1-.6,2-.9,3.1,0-.2-.2-.4-.3-.7-1.4.9-2.9,1.7-5,3h0ZM56.6,243.2c1-1.2,2.1-2.2,2-2.5-.7-1.1-1.7-2-2.7-2.7-.2-.1-1.9,1.3-1.8,1.6.5,1.1,1.4,2.1,2.5,3.6Z"/>
  <path class="cls-1" d="M212.7,117.2c3.4,6,6.5,12.2,4.8,19.3-1.2,5-3.6,9.7-5.3,14.6-.6,1.8-.9,3.8-1.5,6.1h-3.5c-.8-3.1-1.6-6.3-2.5-9.5-1.2,3.2-5.4,5.3-2.5,9.5h-4.9c-2.5-9.8-5.1-19.8-7.7-29.7-.7-2.8-1.8-5.5-2.7-8.3,1.2-1.1,2.3-2.1,3.6-3.2.3.5.6,1,.8,1.4,2.9,11.1,5.7,22.1,8.6,33.2h.9c1.3-3.3,2.8-6.6,3.7-10,1.7-6.2,1.5-12.3-3.5-17.2-1-1-2.1-1.8-3.1-2.8,1-1.7,2.1-3.4,3.3-5.4.8.9,1.3,1.6,1.9,2.3.5,1.1,1.1,2.1,1.6,3.2,2.8,5.3,4.5,10.9,2.9,16.8-1.3,4.8,1.4,8.5,1.8,12.8h.8c.7-1.6,1.4-3.2,2.2-4.8.7-2.4,1.5-4.7,2.2-7.1v-5.3c0-.4-.1-.8-.2-1.3-.1-1.2.1-2.7-.5-3.7-1.4-2.3-3.3-4.2-4.9-6.4-.5-.7-.5-1.9-.7-2.8.9-1.1,1.8-2.1,2.8-3.4.5.7,1,1.3,1.5,2v-.3Z"/>
  <path class="cls-1" d="M128.1,117.9c1.4,3.4,3.2,6.7,4.1,10.2,2.1,8.2-1.6,15.4-4.8,22.6-.9,1.9-1.2,4-1.8,6.4-2.5.3-4.2-1.3-4.9-4.8-.3-1.5-.5-3-1.1-4.5-1.3,2.9-4.8,5-2.6,9.2h-4.5c-3-11.4-6-22.9-9.1-34.3-.3-1-.8-1.9-1.3-2.9.9-1.1,1.8-2.3,2.8-3.3,0-.1.9.5,1.4.7,2.9,11.1,5.7,22.1,8.6,33.2h.9c.9-2.6,1.9-5.1,2.8-7.7.3-1,.6-2.1.9-3.1,2.5-6.9,0-14.3-5.8-18.4-.4-.3-.6-.8-1-1.3,1.2-1.5,2.3-2.9,3.7-4.6.4.5.8,1,1.2,1.4.6,1.1,1.2,2.3,1.8,3.4,2.6,4.7,4.8,9.8,3.4,15.2-1.5,5.6.6,10.2,2,16.2,1.2-2.7,2-4.6,2.8-6.4,3.8-8.9,4.2-17.2-4.3-24-.4-.3,0-1.5,0-2.4.9-1.1,1.8-2.1,2.8-3.3.7.9,1.3,1.8,2,2.7v-.2Z"/>
  <path class="cls-1" d="M182.2,118.6c6.2,10.5,7.6,21.2,1.7,32.3-1.4,2.6-3.3,4.9-5.1,7.4-9.4-9.5-12.8-21.7-7.1-34.8.4-1,.9-2,1.3-3,.1-.2.3-.5.4-.7,0,1.4.2,2.9-.1,4.3-2.7,11.4-.2,21.6,6.7,31.5.9-1.5,1.5-2.5,2.1-3.6h0c.4-1.2.7-2.3,1.1-3.5,0-.4.1-.8.2-1.2.2-1.1.4-2.2.5-3.3v-3.2c-.7-4.4-1-9-2.2-13.2-1.1-3.9-2.7-7.9-6.5-10.2,1-.8,1.9-1.7,3.1-2.8,1.4,1.5,2.6,2.8,3.8,4.2v-.2Z"/>
  <path class="cls-1" d="M168.5,103.3c-.6,1.6-1.7,3.2-1.7,4.8-.1,16.2,0,32.5,0,49h-4.4v-53.6c1.8-.4,3.7-.8,5.5-1.1.2,0,.4.6.7.9h-.1Z"/>
  <path class="cls-1" d="M160.9,102.8c-.8,1.5-2.2,2.9-2.2,4.4-.2,16.1-.1,32.1,0,48.2,0,.5.1,1,.2,1.7h-4.6v-52.3c0-.5.2-.9.3-1.4,1.3-.2,2.6-.5,3.9-.7h2.5,0Z"/>
  <path class="cls-1" d="M148.7,118c.6,2.7,1.5,5.4,1.6,8.1.2,10.3,0,20.5,0,31h-3.9c-.5-1.5-.9-2.9-1.4-4.3l-.4-.4.8-1c.2-.3.4-.6.5-.8v-11.7c0-2.5.2-5,0-7.5,0-.6-.9-1.1-1.4-1.7,2.4-3.1,2.1-6.3-1-9.4,1.1-1.3,2.1-2.7,3.4-4.3.6.8,1.2,1.4,1.8,2.1h0Z"/>
  <path class="cls-1" d="M477.3,117.8c.6,2.9,1.6,5.8,1.7,8.7.2,10.1,0,20.2,0,30.5h-4.3c0-10,.1-20.1-.1-30.2,0-2.4-1.5-4.7-2.3-7,1.1-1.3,2.2-2.5,3.4-3.9.5.7,1,1.3,1.5,2h0Z"/>
  <path class="cls-1" d="M486.7,118.6c1.1,2.1,1.6,4.2,1.5,6.8-.3,10.5-.1,21-.1,31.7h-4.2c0-10.6.1-21.2,0-31.7,0-2.1-1.3-4.1-2-6.2,1-1,2-2.1,3.1-3.3.6,1,1.2,1.9,1.8,2.7h0Z"/>
  <path class="cls-1" d="M466.4,118.4c.5,2.5,1.5,4.9,1.5,7.4.2,8.6.1,17.1,0,25.7,0,2.4.4,4.3,3.4,4.8-5,1.7-7.7,0-7.7-4.7,0-8.5.1-16.9-.1-25.4,0-2-1.5-3.9-2.3-5.9,1.1-1.5,2.2-2.9,3.4-4.6.6.9,1.2,1.8,1.8,2.6h0Z"/>
  <path class="cls-1" d="M495.2,117.9c.8,1.5,1.5,3,2.3,4.6-.3,1.9-.7,3.9-1,5.8,0,9.1,0,18.1-.1,27.2,0,.5.3,1,.5,1.5-1.3.2-2.6.3-3.9.5-.3-.3-.9-.7-.9-1,0-10.6.2-21.1.1-31.7,0-1.3-1.1-2.5-1.4-3.8-.1-.5.3-1.1.5-1.7,1-1.1,1.9-2.1,3-3.3.4.9.7,1.5.9,2h0Z"/>
  <path class="cls-1" d="M145.1,152.7c-1.3,1-2.6,1.9-3.9,2.9-3.1,2.2-5.2,1.8-7-1.6-2.3-4.2-2.4-8.5.3-12.6,1.1-1.7,2.4-3.3,3.7-4.9-3.3-2.8-1.8-5.9-.5-9,.3-.3.6-.7.9-1,.2.1.3.3.5.4,0,1.6-.2,3.2.1,4.7.2,1.2,1,2.7,2.5.9-.4.9-.8,1.9-1.3,2.8-1,1.9-2.3,3.7-3,5.7-1.7,4.5-.3,9.6,2.8,11.4.9.2,1.8.3,2.7.5.4-.2.7-.4,1.1-.6.3,0,.6,0,.8-.1l.4.4h-.1Z"/>
  <path class="cls-1" d="M271.9,218.9c1.3,4,.8,6-1.8,7.3s-7.8.5-9.8-2.7c-1.2-1.9-1.5-4.4-2.1-6.6,0-.4.2-.8.3-1.2.1-.5.2-.9.3-1.4.2-.6.5-1.2.7-1.9,1.7-1.4,1.5,0,1.2.9-1.1,3.3-.7,6.6,1.4,9.2,1.2,1.6,3.5,2.8,5.5,3.1,1.2.2,2.7-1.5,4.1-2.4-1.8-1.4-3-2.3-4.1-3.1.7-2.7,2.2-3,4.3-1.3h0Z"/>
  <path class="cls-1" d="M143.4,130.8c-.2.5-.4,1-.7,1.4.2-.5.4-1,.7-1.4Z"/>
  <path class="cls-1" d="M142.8,132.2c-.4.2-.8.3-1.3.5.4-.2.8-.3,1.3-.5Z"/>
  <path class="cls-1" d="M138.5,126.6c.2-.3.4-.7.7-1,.1,0,.2.1.4.2l-.5,1.2c-.2-.1-.3-.3-.5-.4h0Z"/>
  <path class="cls-1" d="M144.1,130.1l-.8.8.8-.8Z"/>
  <path class="cls-1" d="M144.8,129.5l-.8.8.8-.8Z"/>
  <path class="cls-1" d="M286.7,197.4c-.5,1.3-1,2.6-1.5,3.9-.3,0-.7-.2-1-.3.5-1.7,3.1-3.8,0-5-1.3-.5-3.3.9-5.6,1.6,1-1.5,2-2.9,2.9-4.2,3-.3,4,2,5.1,4h.1Z"/>
  <path class="cls-1" d="M331.1,142.6c0,.8.2,1.6.2,2.6h-5.9c0-15.9,0-31.7-.1-47.6v-5.9h-3.9c-.1-.4-.3-1.3-.3-1.3,6.3-2.2,6.2-8.8,8.8-13.4.3-.5-.8-2-1.5-2.8-1.6-1.9-1.6-3.9.1-5.4,1.3-1.1,3.3-2,4.7,0,.6.9,1.2,2.9.7,3.4-4.8,5.2-2.9,11.5-3.4,17.6,1.8.2,3.5.3,5.1.5,0,.2.1.4.2.6-.5.3-1,.6-1.5.9h-3.5v9c0,.7,0,1.3-.1,2v1.3c0,.4,0,.9-.1,1.3,0,5.3-.3,10.6-.2,15.9,0,6.5.3,12.9.5,19.4,0,.6,0,1.2.1,1.8h0Z"/>
  <path class="cls-1" d="M343,109.4c-.6,2.1-1.6,4.2-1.7,6.3-.2,8.2-.1,16.4,0,24.6,0,1.7.4,3.3.7,5.5-.8.9-2,2.3-3.2,3.6-1.1-1.7-2.1-3.2-3.1-4.9.4-.7.9-1.7,1.3-2.6v-43.2c0-.1,0-.3-.1-.4,0-.9-.6-2-.2-2.5,1.6-2,3.4-3.7,4.9-5.2-.2,5.3-.5,11.1-.6,16.9,0,1-.4,2.6,1.6,1.5.2.1.3.3.5.4h0Z"/>
  <path class="cls-1" d="M351.4,118.5c2,12,0,23.3-6.5,33.7-.4.7-1.4,1-2.2,1.5,4.4-12.2,6.7-24.6,3.4-37.4-.6-2.4-2.1-4.5-3.1-6.8-.2-.1-.3-.3-.5-.4,1.2-1.7,2.3-3.4,3.5-5.2h1c1.5,4.9,3,9.8,4.4,14.6h0Z"/>
  <path class="cls-1" d="M361.3,106.1c-.2.2-.5.5-.7.7.2-.2.5-.5.7-.7Z"/>
  <path class="cls-1" d="M88.9,109.1c.3.2.5.3.8.5-.2.2-.4.5-.6.4-.2,0-.4-.3-.7-.5,0-.1.3-.3.4-.4h0Z"/>
</svg>