<?xml version="1.0" encoding="UTF-8"?>
<svg id="Calque_1" data-name="Calque 1" xmlns="http://www.w3.org/2000/svg" version="1.1" viewBox="0 0 500 300">
  <defs>
    <style>
      .cls-1 {
        fill: #75683b;
        stroke-width: 0px;
      }
    </style>
  </defs>
  <path class="cls-1" d="M14.5,246.8c2.5-.5,5-1.7,7.4-1.3,16.1,2.7,32.4.4,48.5,2,9.9,1,19.5,1.5,29.3.2,2.1-.3,4.3,1.4,6.5,1.4,5.3,0,10.7.1,15.9-.8,4.4-.8,4.8-3.1,3-7.2-.7-1.6-1.1-3.5-1.1-5.2.3-20.6.9-41.1.9-61.7s-1.5-16.2-1.7-24.3c-.3-15.4,0-30.7,0-46.1s-.7-9-.6-13.5c0-2.4,1.2-4.8,1.7-7.2.3-1.2,1-2.8.5-3.4-.6-.7-2.6-1.1-3.4-.7-2,1-4.5,2.3-5.5,4.1-3.7,7.4-6.9,15-10.2,22.5-.2.5-.2,1.1-.5,1.6-4.8,11.2-9.5,22.5-14.6,33.6-1.4,3.1-3.9,5.8-5.8,8.7-.5-.2-1-.5-1.5-.7.2-1.4.3-2.9.5-4.3,3.6-19.4,12.3-36.8,21.2-54.1,5.7-11,11.1-22.2,16.5-33.4,2.1-4.3,1.1-5.8-3.7-6.2-2.7-.2-5.4,0-8,.2-13,.7-26.1,1.8-39.1,2-7.9.1-15.7-1.1-23.6-1.7-1.4-.1-3-.8-4.2-.3-8.9,3-17.7-1.1-26.6-.1-2.2.2-4.6-.7-6.8-1.6,5.5-3.4,11.5-4.6,17.4-2.9,7.7,2.2,15.4,1.6,23.1,1.5,17.8-.2,35.5-.4,53.3-.8,3.6,0,7.2-1.4,10.8-1.3,24.7.9,49.3,2.2,74,3,10.4.3,20.9-.6,31.3-.8,4.5,0,9,.4,13.5.6.4,0,.9.3,1.2.2,7.3-3.9,14.6,1,22-.2,7.4-1.2,15.2-.4,22.8-.4s15.5,0,23.3.2c10.7.3,21.4.8,32.1,1.2,1.1,0,2.2-.4,3.3-.4,3.4-.2,6.8-.3,10.3-.3s5.1.9,7,0c3.7-1.9,7.1-.9,10.9-.8,11.7.3,23.4,0,35-.2h10.6c6.3.1,12.6.4,19,.4,14.5,0,29-.2,43.4-.3,2.4,0,4.8-.9,7.1-.6,1.5.2,2.8,1.8,4.2,2.7-1.2,1-2.2,2.6-3.5,2.8-4.3.6-8.7,1.2-13,1-16.6-.6-33.2-1.4-49.9-2.1-5.5-.2-7.1,1.1-7.4,6.7-.2,4.2.3,8.4.4,12.7,0,2.7,0,5.3-.1,8,0,.8-.4,1.7-.3,2.5,1.3,9.6,2.8,19.2,3.9,28.8.3,3-.3,6.2-.6,9.2-1.7,18.2.7,36.3,2.2,54.4,0,.8.4,1.7.2,2.5-2.6,16.3-1.1,32.6-.7,49,0,2.4-.9,4.9-1.4,7.3-.2.9-.9,1.9-.8,2.8.6,4.9,1.4,9.9,2.1,14.3h37c12.3,0,24.6,0,37.8,2.1-3.6,3.5-7,3.6-10.5,3.5-14.3-.4-28.7-1.2-43-1-29,.5-58.1,1.9-87.1-.8-1,0-2-.3-2.9,0-14.4,4-28.9.8-43.3.1-6-.3-12.1.4-18.1.6-1.5,0-3.1.4-4.6.4-11.5-.2-23-.4-34.5-.9-15.3-.7-30.7-1.8-46-2.5-4.6-.2-9.3.7-13.9.8-13.5.4-27.1.5-40.6.9-11,.3-22,1-32.9,1.5h-2.1c-19.7-1.9-39.4-3.2-59.2-4-2.6-.1-5.3.7-7.9,1-1.1.2-2.2.5-3.3.4-6.1-.4-12.2-.8-18.3-1.5-2.5-.3-5-1-7.6-1.5,0-.8,0-1.5-.1-2.3h-.6ZM273.7,195.5c-2.3-1.5-3.7-2-4.3-3-3.2-4.9-6.3-9.9-9.2-15-3.7-6.6-7.1-13.4-10.7-20-.5-.8-1.7-1.3-2.5-1.9-.5,1-1.5,2-1.5,3.1-.2,3.7,0,7.3,0,11,.4,16.7.9,33.5,1.4,50.2,0,1.4.5,2.7.8,4.1.6,3.4,1.6,6.8,1.6,10.3s-.9,7-1.5,10.4c-.4,2.4.4,3.9,3,4,7,.2,14.1.5,21.1.6,13,0,26-.7,38.9.3,8.3.7,16.5.8,24.8.2,3.1-.2,3.8-1.6,3.7-4.6-.5-12.2-.8-24.5-1-36.8-.1-9.3.1-18.6,0-27.9,0-3.2-.6-6.4-1.5-9.5-3.2-10.5-4.8-21.1-3.8-32.1.9-9.9,3.3-19.5,2.5-29.8-1.4-16.9-1.1-34-1.4-51,0-2.6-1-3.6-3.4-3.7-4.4-.2-8.7-.8-13.1-.9-22.6-.2-45.1-.2-67.7-.3-3.8,0-4.4,1.8-3.3,4.8,2.5,7,4.7,14.2,7.5,21.1,7.2,17.4,18.3,33,23.5,51.3.9,3.2,2.4,6.4,2.8,9.7.3,2.5-.6,5.2-1,8.8-1.7-1.4-2.6-1.8-2.9-2.4-4.4-10.4-8.5-20.8-13-31.1s-9.2-20.5-14-30.6c-.5-1-2.2-2.2-3.3-2.1-.9,0-1.9,1.9-2.2,3.1-.5,2.3-.6,4.7-.7,7.1-.2,7.3-.6,14.6-.3,21.9.3,6.1,1,12.3,2.2,18.3,1.6,8,8.8,13.8,9,22.5,0,.6.7,1.2,1.1,1.8,5.8,9.8,11.6,19.6,17.3,29.4.4.6.7,1.3.8,1.9.2,1.8.2,3.7.4,6.9h-.1ZM131.2,75.1c-.4.1-.8.2-1.1.3-.7,6.5-3,13.2-1.9,19.3,2.3,13.8,2.4,27.5,2.5,41.3,0,12.5.8,25.1,1.2,37.6.1,3.9.4,7.8.2,11.7-.3,6.2-.9,12.4-1.3,18.5-.8,13.5-1.5,27-2,40.5,0,1.5,1.4,3.9,2.6,4.3,2.9.9,6.1,1.3,9.1,1.1,8.7-.4,17.3-1.4,26-1.9,5.1-.3,10.2,0,15.2-.5,4.7-.4,5.3-2,3.2-6.2s-1.6-3.3-1.9-5c-.6-3.7-.9-7.5-1.2-11.3-.2-3.3-.5-6.7-.2-10.1.3-4.2,1.5-8.3,1.5-12.5,0-12.8-.4-25.7-1-38.5-.6-14.9-1.7-29.8-2.3-44.7-.2-6.2.5-12.4.4-18.6,0-3.2-1.2-6.4-1.1-9.6.2-10.1.9-20.2,1.1-30.3.2-7.1,0-7.2-7.1-7.5-13.7-.5-27.3-.9-41-1.4-4.7-.1-5.6,1.1-3.6,5.5,2.4,5.6,4.9,11.1,7.6,16.5,8.6,17.6,17.9,34.9,23.1,54,.3,1.2,1,2.7,1.9,3.2,6,3.1,5.3,9.2,6.5,14.4.7,2.8-1.4,4.4-4,3.3-1.5-.7-3.1-2.2-3.7-3.7-3-7.2-5.5-14.7-8.4-22-5.8-14.9-11.7-29.8-17.7-44.7-.5-1.2-1.8-2.2-2.7-3.2v.2ZM376.8,152.7c-.4,0-.9.2-1.3.3-3-6.1-6.3-12.1-8.8-18.5-6.2-15.5-12-31.2-18.1-46.8-1-2.5-2.2-5-5.9-4.3-.3,4.8-1,9.6-.9,14.4.6,26.8,1.6,53.5,2.1,80.3.4,21.4.5,42.8.5,64.2s2.3,8.4,8.1,8.4c11.1,0,22.3.4,33.4.4s15.9-.6,23.9-1c-.4-5.2-.9-9.4-.9-13.5,0-12.4.7-24.8.5-37.2-.2-14.7-1-29.5-1.5-44.2-.1-4.1.2-8.3.1-12.4-.4-18-.8-36-1.4-54,0-1.8-1.5-3.5-2.3-5.3-1.6,1.2-3.8,2-4.7,3.6-2.2,3.7-4.2,7.7-5.6,11.8-4.7,13.6-9.1,27.2-13.6,40.9-1.4,4.3-2.5,8.6-3.7,12.9h0ZM186.7,53.9c.6,1.9.9,3.6,1.6,5.1,5.5,12.7,11,25.3,16.7,37.9,7.2,15.9,14.7,31.7,22,47.6.4.9.5,2,.7,3-.4.3-.8.6-1.2,1-2.2-1.9-4.7-3.6-6.6-5.8-1.7-2-2.7-4.6-4.1-6.9-3.3-5.4-5.3-11.3-7.3-17.3-2.5-7.4-6.4-14.3-9.9-21.4-1.8-3.6-3.6-7.3-5.9-10.7-2-2.9-3.9-2.6-4.9.9-.8,2.8-.8,5.8-.8,8.7v24c0,4.3-.4,8.9.8,12.9,2.6,8.9,9.2,15.6,14,23.4,7.6,12.3,17.4,23.4,21.8,37.5.4,1.1.5,2.4.9,4.3-4.5-1.4-7.4-3.3-8.7-7.3-.6-1.7-1.2-3.4-2.2-4.9-6-9.5-13.5-18-17.8-28.6-1-2.5-4.4-6.2-5.9-5.9-3.6.9-3.3,5-3.1,8.2.6,8.8,1.7,17.6,1.9,26.5.4,18.7.5,37.5.5,56.2s.8,4.5,3.4,4.8c4.6.5,9.2.6,13.9.8,6.4.3,12.9.5,19.3.7,5.7.1,11.4,0,17.3,0v-2.6c-.7-12.9-1.6-25.9-2.2-38.8-.5-11-.3-22-1.1-32.9-.6-8.7-2.9-17.3-3.1-26-.4-27.5,0-55-.1-82.5,0-11.7,0-11.9-11.6-13.1-12.6-1.3-25.3-2.1-38.4,1.1h.1ZM405.6,53.3h-11.5c-15.2,0-30.4-.1-45.7,0-6.2,0-7,.9-5.3,6.7,2.4,7.8,5.1,15.5,8.3,23,5,11.8,10.4,23.4,15.7,35.1,1.7,3.7,3.3,7.4,5.3,10.9.6,1.1,2.4,2,3.7,2.1.6,0,1.7-1.9,2.1-3.1,2-6.7,3.4-13.7,5.9-20.3,6.3-16.4,13.1-32.7,19.7-49,.6-1.5,1-3.1,1.7-5.4h0Z"/>
  <path class="cls-1" d="M482.7,37.5c-4.8.2-9.7.7-14.5.7-14.8-.1-29.6-.8-44.4-.7-19.2.1-38.3,1.2-57.5,1.2-87.8-.1-175.5-.4-263.3-.9-6,0-12.4,1.3-18.2-2-.5-.3-1.4-.3-2,0-7.6,2.8-15.3.9-23,.5-4.3-.2-8.6.7-12.9,1.2-1.3.1-2.5.8-3.7.7-11.3-.8-22.6-1.6-34-2.5,0-.4-.1-.9-.2-1.3.8-.7,1.5-1.7,2.5-1.9,6.6-1.8,13.2-3.6,20.3-2.1,3.3.7,6.9,1.5,10,.8,10.9-2.4,21.5-.7,32.3.3,8.6.8,17.4-.3,26.1-.5,1.6,0,3.4,0,4.8.7,3.7,1.9,7.3,2.6,11.3.6,1.2-.6,2.7-.7,4.1-.7,8.2.2,16.3.4,24.5.6,6.3.2,12.6.6,18.9.5,14.9-.2,29.8-.5,44.8-1,9.4-.3,18.7-1.4,28.2-.1,8.1,1,16.5-.5,24.8-.6,7.3,0,14.6.3,21.9.5,14.2.4,28.5.7,42.7,1.2,6.3.2,12.7,1,19,.9,10.8-.3,21.7-1.5,32.5-1.6,21-.1,42,0,63,.5,12.8.4,25.6,1.9,38.4,3,1.3.1,2.5.3,3.8.5v1.6h-.2Z"/>
  <path class="cls-1" d="M167.6,265.5c4.5-.8,9-1.6,13.9-2.4-.2,4.2,2.1,4.9,4.8,5.1,2.9.2,5.5-.1,5.1-5.1h73.6c16.2,0,32.4.1,48.5.3,10.6.1,21.2,1.3,31.7.7,18.9-1,37.7.5,56.6.8,9.3.1,18.5-1.9,27.8-2,12.9-.2,25.9.5,38.8.9,3.1,0,6.2.3,9.3.3s6.4.7,8.1,5h-6.6c-15.8-.3-31.6-.8-47.3-.7-7.6,0-15.2,1.2-22.8,1.6-2.5.2-5,0-7.5-.2-8.2-.5-16.3-1-24.5-1.5-10.8-.6-21.7-1.1-32.5-1.5-1.5,0-3,.5-4.5.7-2.1.3-4.1.8-6.2.8-4.7-.1-9.4-.8-14.1-.8-22.7-.2-45.4-.7-68.1-.2-19.3.4-38.5,2-57.8,2.8-3.7.2-7.5-.4-11.3-.9-4.9-.7-9.9-1.6-14.8-2.4,0-.4-.1-.8-.2-1.2h0Z"/>
  <path class="cls-1" d="M17.8,263.3c2.3-.8,4.5-2.1,6.8-2.2,3.6-.1,7.2.6,10.9,1,6,.6,11.9,1.7,17.9,1.7,24.4.2,48.7.2,73.1,0,10.8,0,21.7-.9,32.5-1.3,1.7,0,4.2-1.1,3.9,2-.1,1-2.5,2.3-3.9,2.4-9.4.3-18.9-.4-28.3.6-6.1.7-12,1-18.2.3-6.9-.9-14,.5-21.1.5s-11.2-.8-16.8-1.1c-2.5-.1-5,.3-7.5.2-11.8-.1-23.7-.2-35.5-.5-4.6-.1-9.1-1-13.6-1.6,0-.6-.1-1.3-.2-1.9h0Z"/>
  <path class="cls-1" d="M47.9,201c-4.3-.2-7-2.8-6.9-6.8,0-4.2,4.1-8.2,7.9-7.7,2.9.4,5.6,1.5,5.7,5,0,4.1-3.9,9.6-6.8,9.5h0Z"/>
  <path class="cls-1" d="M457.8,106.6c0,2.9-3.8,7.1-5.8,5.9-3.1-1.9-5.9-4.8-7.7-8-1.2-2.2,2.9-6.1,5.7-6.1s7.8,4.4,7.7,8.2h0Z"/>
  <path class="cls-1" d="M41.6,101.2c0-4,2.6-4.9,5.8-5,3.7-.2,7.5,3,7.4,6,0,2.6-5.1,7.1-8,7.2-2.3.1-5.2-4.5-5.2-8.2Z"/>
  <path class="cls-1" d="M457.5,193.1c0,2.9-4.4,7.8-6.9,7.8s-5.7-3.1-5.6-5.8c.2-4.1,3.5-7.8,6.9-7.8s5.6,2.9,5.5,5.8h.1Z"/>
  <path class="cls-1" d="M323.9,190c-2.4-1.7-5.2-2.9-7-5.1-7.7-9.1-15.1-18.5-22.7-27.8-.4-.4-.7-.9-1-1.4q-6.4-8-1.1-17c6.5-10.8,13.7-21,23.5-29.1.4-.4.8-1,1.3-1.1,1.9-.2,3.9-.3,5.8-.4-.4,1.6-.4,3.4-1.3,4.6-7,9.4-14,18.7-21.3,27.9-2.8,3.6-3.3,6.9-.5,10.6,7.6,9.8,15.1,19.6,22.7,29.4,1.3,1.7,2.9,3.1,4.1,4.8.6.8,1.1,2.2.8,2.9-.4.7-1.8,1-3.4,1.7h.1Z"/>
</svg>