<?xml version="1.0" encoding="UTF-8"?>
<svg id="Calque_1" data-name="Calque 1" xmlns="http://www.w3.org/2000/svg" version="1.1" viewBox="0 0 500 300">
  <defs>
    <style>
      .cls-1 {
        fill: #75683b;
        stroke-width: 0px;
      }
    </style>
  </defs>
  <path class="cls-1" d="M45.7,179.2c-.3-1-1.1-2.3-.8-2.8.5-.7,1.9-1.2,2.9-1.1,1.4.1,2.7.9,3.9,1.3v-11.8c-.4-.1-1.2-.5-2-.8-5.8-1.9-9.4-6.1-12.2-11.2-.6-1.1-1.2-2.2-1.8-3.3-.4-1.4-.8-2.9-1.3-4.6-7.4,6.8-15.3,7.3-23.8,3.1-2.4-2.4-4.8-5-4.3-8.5.2-2,1.5-4.5,3.1-5.5,1-.6,3.5,1,5.3,1.6-.6,1.1-1.2,2.3-2.1,4.1-.6-2-.8-3-1.1-4.1-2.6.6-3.4,2.3-3.5,4.4-.2,2.9,1.7,4.5,3.9,5.9,7.5,6.2,15.8,3.6,21.6-2.8.4-.5.5-1.3.5-2-1-16.1,9.9-26.1,23.4-30,1-.3,2-.5,3-.8,2.9-.4,5.9-.8,8.8-1.2,7.5-.1,14.8,1.2,21.8,4,0-1.4-.2-2.4-.3-3.4h0l4,4.7c2.6,1.6,5.2,3.3,7.9,4.7.6.3,1.7-.3,2.6-.5.6-.3,1.2-.5,2.4-1.1-1.9,3.5-.7,5.4,2,6.7,2.2,2.3,4.4,4.6,6.6,7,2.1,3.1,4.1,6.1,6.2,9.2.2.4.4.7.6,1.1,1.1,2.6,2.1,5.3,3.3,8.4.6-3.4,1.1-6.3,1.6-9.2,1.5-3.4,3-6.9,4.5-10.3.9-1.2,1.8-2.4,2.6-3.6.4-.5.8-1,1.1-1.4,1.9-1.8,3.8-3.6,5.5-5.5,1.2-1.3,2.2-2.7,3.4-4.3,1.5.7,1.7,1.7,0,3.5-2.7,2.8-5.6,5.5-8.4,8.2-.1,0-.3.2-.4.3.1,0,.3,0,.4.1v-.5c2.5-.4,5.1-.8,7.6-1.1v1.2c-4.2-.6-7,1.9-9.9,4.4-3.5,3.1-4.2,6.7-2.6,11,.7,1.8.9,3.8,1.1,5.8.2,1.9,0,3.8,0,5.7.3,0,.7.2,1,.3,1-2.6,2.1-5.1,3.1-7.7,1.2-1.2,2.3-2.8,3.8-3.6.8-.4,2.3.6,3.5,1-.6.7-1.2,2.2-1.8,2.1-2.9-.3-3.6,1.8-4.4,3.8v.8c.2-.1.4-.2.7-.3,2.7,1.1,1.1,3,.5,4.1-.7,1.4-2.2,2.4-3.4,3.6l-.6-.5c-1.1,2.9-2.2,5.8-3.4,8.7-3.5,8.6-8.5,16-16.8,20.7-.8.4-1.9.3-2.9.4,2.9-3.3,6.6-6.3,8.6-10.1,4-7.5,5.2-15.6,3.7-24.4-1.5-8.9-5.2-16.3-11.2-22.8-1.2-1.5-2.4-3-3.7-4.5-.9,2.1-1.7,3.9-2.6,5.9,1.1,1.1,2.1,2.2,3.2,3.3h0c.7.8,1.4,1.7,2,2.5,1.7,2.4,3.4,4.7,5,7.2,6.4,10.1,7.7,20.8,3,32-.5,1.3-.9,3.1-3,1.9v.2-.2c0,.3.3.8.2,1-2.1,2.4-4.2,4.7-6.4,7-5.1,1.9-9.9,1.6-14.4-1.5-3.3-3.6-4-7.4-1.4-11.7,1.2-2.1,2.4-4.6-2.2-4.7,2.1-2.4,4.1-2,5.9-.8,2.3,1.5,3.6,3.6,2.8,6.4-.4,1.5-1.2,2.9-1.9,4.3-2.3,4.6-.6,7.8,4.5,7.8s4.3-.8,5.9-2c4.1-3.2,4.5-9,1-14.2-3.3-4.8-6.9-9.4-10.6-14-4.5-5.6-5.5-11.5-2.8-18.2.5-.8.9-1.5,1.4-2.3,1.5-1.6,3-3.3,4.6-4.9-2.9-3.7-5.6-7.2-8.3-10.7-.2-.4-.5-.8-.7-1.2-.6-.8-1.3-1.6-1.9-2.4-.4-.5-.6-1.4-1.1-1.6-5.2-1.6-10.5-3-16-4.5.8,4.1,0,4.9-4.3,5.9-.4-.1-.8-.2-1.2-.3-.3-1.2-.7-2.4-1-3.6l-.7-.6c-1.1,2.2-2.2,4.5-3.3,6.7-.3-.4-.7-.7-1-1.1-.7.9-1.5,1.8-2.2,2.7-.5-.5-1.1-1.1-1.6-1.6.7-2.1,1.3-4.1,2-6.3.5.2,0,0,0,0-5.2,2-9.6,4.9-11.2,10.8-1,3.8-2.1,7.6-3.3,11.4-1.1,3.2-3.2,5.2-6.9,5.2s-3.7,2.1-4.3,4.9c1.9-.1,3.3-.2,4.7-.3.3.9.5,1.8.9,2.6.4.9.9,1.7,1.4,2.5h-4.7c1.7,2.8,3.2,3,5.5,1.6.9-.6,2.2-.6,3.4-.8-.8,3.7-3.3,4.2-6.7,3.2,0,.3,0,.5-.2.8,2.1,1.9,4.1,3.9,6.2,5.8,2.1,1.1,4.2,2.3,6.4,3.5,1.9-4.4,6-7.1,4.8-12,.5-2.9.9-5.9,1.4-8.8,1.6-3.8,3.2-7.6,4.9-11.3.5-.8,1.1-1.5,1.7-2.5-4.3-1.4-7.9-.2-10.8,2.6-2.9,2.7-1.7,5.8-.3,8.9.7,1.7,1.5,3.5,1.6,5.3.2,3.3-3.3,5.3-6.5,4,2.7-1.7,3.1-4,1.4-6.9-.7-1.2-1.2-2.4-1.8-3.6-.4-4,1.5-7,4.1-9.6,3.7-2.6,7.8-3.2,12.1-2.3.7.1,1.8-.1,2.4-.6,2.5-2.1,5-4.4,7.4-6.6,1.1-.6,2.1-1.3,3.2-1.9,1.7-.2,3.3-3.1,5,0-5.1,2.8-9.3,6.4-12.2,11.8,1,.7,1.9,1.4,2.8,2,.8,1,1.7,1.9,2.5,2.9,3,4.7,4,9.8,2.8,15.1-.4,1.9-1,3.6.4,5.2-.2,0-.4.1-.6.2-.9,0-2.1-.1-2.7.4-2.3,1.7-4.5,3.6-6.6,5.6-.7.6-1.4,2-1.2,2.6,2.2,4.7,4.7,9.4,7.1,14,1,1.3,2.1,2.6,3.1,3.9,1.5,1.9,3.2,2.8,5.9,1.9,1.7-.5,3.8.3,5.6.8,1.6.5,3,1.4,4.4,2.1,4.3,2.6,8.8,4.8,13.9,5.1,5.6,1.5,10.9.4,16-2.1,1.4-.6,2.7-1.7,3.5-3,.6-.9.2-2.5.3-3.7-.9.4-1.8.8-2.7,1.2-.3.1-.6.2-.9.2-.8-3.3-.2-4.3,3.1-4.7,3.1,3,3.4,6.5.2,9.2-2.3,2-5.2,3.6-8.1,4.4-6.5,1.8-12.8.8-18.9-1.9-1.4-.6-2.7-1.2-4.3-1.8.7,3.8,3,4.9,6.1,5.3,4.1.5,8.2,1.5,12.4,1.6,9.4.2,17.1-4,23-11.1,2.5-3,2.4-6,0-9.2-1.4-1.9-3-3.7-4.6-5.6-1.3-4.3-.7-6.9,1.7-8.3,1.3,1.9,2.6,3.7,3.8,5.5.2.2.3.4.5.6.9,1.8,2.2,3.6,2.6,5.6,1.8,8.3-1.7,14.7-8.1,19.6-10.7,8.2-23.1,10.3-36.2,9-2.6-.3-4.9-.5-6.4,2.2,0-1-.2-2-.3-3.1-1.9-.7-3.8-1.2-5.6-2-3.7-1.6-7.5-3-10.8-5.2-2.3-1.5-3.7-4.2-5.6-6.4-5.2-5.8-8.4-12.6-10.7-20-.2-1-.4-2-.5-2.9-3.9-.5-4.7-.1-4.7,3.1-.2,9.5,2.1,18.2,9.8,24.7,3.7,5,9.4,7.3,14.7,9.7,4.2,1.9,9,2.5,13.5,3.6,1.3.2,2.6.3,3.9.5,7.8,1.1,15.5.8,23.1-1.3,3.5-1.1,7.4-1.5,9.3-5.6,1-2.1,3.5-2,5.1-.7.9.7,1.5,2.5,1.2,3.6-.5,2.1-2.3,2.8-4.4,2.4-1.1-.2-2.2-.5-2.5-.6-.5,1.2-.6,2.1-1.1,2.7-11,11.6-27.3,14.2-42.4,6.7-3.4-2.6-6.7-5.3-8.4-9.5-.3-.8-1.5-1.3-2.4-1.7-8.2-4.2-15-9.8-19.1-18-1.5-.9-3-1.9-4.4-2.8.3-1.2.6-2.5,1.2-4.6-2,.7-3.4,1.3-4.8,1.8h-.8ZM111.7,143.1c0-.3.2-.7.4-1-.6-.7-1.1-1.5-1.7-2.2l-2.4-2.9c-.9-1.2-1.8-2.4-2.8-3.7-5.4,5.5-5.5,9.1-.5,13.3,1.4,1.2,2.9,2.4,4.3,3.5.8.9,1.7,1.9,2.5,2.8,5.1,5.6,8.1,11.9,7.1,19.7v1.4c.9-.9,1.4-2,1.5-3,0-3.5.3-7.1,0-10.6-.4-3.2-1.6-6.3-2.4-9.5-.7-3.5-3.5-3.9-6.3-4.4-2.2-.3-3.2-1.2-1.1-3.1h0c.6,0,1.1-.1,1.7-.2h-.2ZM96.2,117.2c-.3,0-.7-.2-1-.3,0,.2,0,.5.2.7,2.9,3.9,5.7,7.7,8.6,11.6.4-.2.8-.5,1.2-.7-1.6-2.9-.8-6.8-4.4-8.8-1.5-.9-3.1-1.7-4.6-2.6h0ZM83.1,210.6c9.3,6.5,19.2,6.4,29.4,2.5,4.2-1.7,8.4-3.4,11.6-6.8-.7-.1-1.3,0-1.9.1-6.2,2.4-12.7,3.2-19.4,3.2s-16.8-1.8-24.9-4.3c-.2-.1-.3-.2-.5-.3l-.2.2c.2,0,.3.2.5.3,1.8,1.7,3.6,3.4,5.4,5.2h0ZM77.7,144.7c-.5-3-5.8-2.5-3.7-6.5.5.1,1.2.3,1.9.4.2-.2.4-.4.5-.6-1.8-2.3-3.6-4.6-5.7-7.3-3.5,6.8-4.3,13.2-4.1,19.6,3.3.5,6.2.9,9.3,1.3.2-.4.5-1.1.4-1-1.3-1.7-3.2-3-3.1-4.1.2-1.8,1.6-3.5,4.4-1.9h0ZM122.2,178c9-4.7,12.3-27.2,6.3-36.5-.5,6.2-1.4,11.7-1.4,17.1s-1.6,13-4.9,19.4ZM51.5,115.8c-8,1.9-14.9,11.9-15.7,21.6,1.3-.8,2.6-1.1,3.1-1.9,4.3-6.6,8.5-13.3,12.6-19.7h0ZM82.8,186.1c4.1,2.3,8.2,4.5,12.4,6.8-2.2-5.7-6.9-8.3-12.4-6.8ZM67,160.2c.3.1.7.2,1,.3,2.4-2.2,4.7-4.4,7.3-6.9-3-1.5-6.1-1.7-7.8,0-1.2,1.2-.4,4.3-.5,6.5h0ZM46.6,125.9c-2.4,4.1-4.5,7.8-6.8,11.6,3.9.2,7.6-6.1,6.8-11.6ZM133.3,201.7c-1.1-.9-1.8-1.8-2.4-1.8s-1.3.9-2,1.4c.6.7,1.1,1.7,1.9,1.9.5.2,1.3-.8,2.5-1.6h0Z"/>
  <path class="cls-1" d="M160.2,210c-4.6-5.7-4.3-11.6-.6-17.5,2-3.2,3.9-6.3,5.9-9.5.4-.6.8-1.3,1.2-1.9,2.2-4,4.8-7.8,6.5-12,3.3-8,1.9-14.2-3.8-19.2-1.8-.7-4-2.3-5.4-1.8-2.5.8-4.2,3-3.9,6.3.3,3.4.1,6.8.2,10.2v13.2c1,.1,1.8.2,2.8.3-.2.6-.2,1.1-.5,1.4-2.3,2.6-4.7,5.2-7.1,7.7-.5.5-1.6.6-2.4.8-.3-1.3-.8-2.6-.8-3.8,0-17,0-34.1-.1-51.1,0-3.3-1.4-6.6-2.2-9.9-.9-1-1.8-2.1-2.8-3.3.5-.1,1-.3,1.4-.4,2.8,2.5,5.6,5,8.3,7.4,1.8-4.4,4.8-8.6,10-10.9,0,.7,0,1.4-.2,1.9-.8,1.6-1.8,3.1-2.7,4.6,2.7-1.5,4.3-4.5,8.5-2.9-.2.7-.9.9-1.6,1-3.5.7-5.1,3.3-6,6.2-1,3.4-1.6,6.9-2.3,10.3-.1.6-.3,1.1-.5,1.7h-.5c-.2-.9-.4-1.8-.5-2.7h-.4l-.4,5.2v7c3.7-1.8,4.9-5,6.2-8.2,1.1-1.8,2.6-2.2,4.3-1,2.3,1.5,4.5,3.2,6.7,4.8,6.9,10.1,6.4,20-.8,29.7-4,5.4-8.3,10.5-12.3,15.9-2.1,2.8-4.2,5.8-5.7,9-2.1,4.3-1,8.3,2.5,11.2,3.3,2.4,6.6,1.9,9.6-.3,3-2.2,5.6-5,8.7-7.2,1.2-.9,2.2-3.3,4.5-1.7-2.5,2.9-4.7,6.1-7.5,8.6-5.1,4.4-10.7,4.5-16.3,1h0ZM164.8,123.2c-.2-.2-.4-.3-.7-.5-.1.2-.4.5-.4.7,0,.3.3.5.4.8.2-.3.4-.7.6-1h0Z"/>
  <path class="cls-1" d="M397.6,202.4c-.3-.6-.6-1.2-1.2-2.2,5.7,1.4,9.8,4.5,13.6,8,2.6,2.4,5.3,4,8.9,2.8,5.1-.3,9.4-6.3,7.8-12.5-2.3-5.6-4.6-11.2-6.9-16.8-.4-1-.7-2-1.1-3-.4,0-.7-.2-1.1-.3-1.2,2.1-2.7,4-3.7,6.2-1.7,3.7-2.1,3.9-5.7,1.8-.4-.3-.9-.5-1.3-.8-9.3-9.4-11.1-20-4.8-33.3,2-4.1,5.1-7.8,8.1-11.3,3.3-3.8,7.8-4,12.4-2.4,2.7.9,5.3,2.3,7.8-.4.1-.1,1,.4,1.5.7-9.1,8.6-11,19-7.9,31.3.7-1.9,1.2-3.3,1.7-4.7.7-.3,1.5-.6,2.2-.9-2,3.4-2.6,6.9,0,10.5-1.1-.1-1.6-.2-2.3-.3,1.5,2.5,2.7,4.9,4.2,7,5.7,8.3,4.3,16.2-.8,24.3-3.3,5.2-12.9,9.6-20.1,6.1h0c-3.8-3.3-7.7-6.5-11.5-9.8h.2ZM412.4,175.5c-.5.5-.9,1-1.6,1.7,1.5.4,3,.7,4.4,1.1,1-.3,2-.6,2.7-.8-.3-4.1-.8-7.7-.9-11.3-.2-6.5,3.1-12,5.8-17.6.7-1,1.3-1.9,2.1-3-4.1-.6-7.7-1.2-11.3-1.7-3-.4-5.3.8-6.9,3.4-4,6.6-3,20.5,2.6,27.4-1-3.2-2.3-5.7-2.4-8.3-.2-2.7.6-5.5,1-8.2.9-1,1.8-2,2.8-2.9,1.3-1.2,2.6-1.3,3.3.6-3.4.7-5,3.1-5.8,6.3-1.5,5.5.4,9.8,4.3,13.5h0v-.2Z"/>
  <path class="cls-1" d="M277.7,126.6c-.2-1.6-.5-3.2-.4-4.8,0-1.3.6-2.5,1-3.8-.9-1-1.6-2.8-2.6-3-6-1.1-11.6,1.8-12,8.6-.2,3.9,1,7.3,3.5,10.1,4.2,4.7,8.7,9.3,13,13.9.8,1.2,1.6,2.5,2.4,3.7.6,2.6,1.6,5.1,1.9,7.8.7,5.4-2.2,9.8-4.8,14.2-2.8,4.7-5.5,9.5-8.8,15-3-1.6-6.6-3.4-10.1-5.2-3.8-3.3-6.4-7.4-7.7-12.3-.1-1.7-.3-3.4-.4-5,.4-8.7,5.3-15.4,10.3-22.2-1.3-2-2.7-3.9-3.9-6-3.6-6.4-2.3-14.4,3.1-19.8,4.9-4.9,12.6-5.8,18.8-2.3,1.5,2,2.6,4,1.3,6.5-1.2,2.4-1.6,4.4,2.5,4.2-2.5,2.1-4.8,1.2-7,.4h-.1ZM272.9,153.2c-1.1-1.1-2.3-2.2-3.4-3.2-.2-.2-.4-.3-.6-.5-1.5-1.4-3-2.9-4.6-4.4-3.9,3.5-6,7.5-5.8,12.7.2,6.4,2.7,11.7,6.8,16.4,1.4,1.6,3.2,3.1,5.1,4.2,1.2.7,3.1,2.7,3.9-.6,1-2.8,2.3-5.6,3-8.5,1.5-6.1.6-11.7-4.4-16.1Z"/>
  <path class="cls-1" d="M127.4,105c-.9-2.6-1.5-5.1,0-6.9,2.7.9,4.9,1.4,6.9,2.2,2.7,1,5.3,2.2,7.9,3.3,4.1,6.4,2.8,11.3-3.8,15.1-7.5,4.4-15.4,4.5-23.2,1.2-7.1-3-14-6.6-21.1-9.7-1.2-.5-2.7-.2-4.1-.3h-.7c-.7-.9-1.3-2.1-2.2-2.5-2.2-.9-4.5-1.5-6.9-2-7.1-1.5-14-1.4-20.4,2.7-2-1.1-.6-1.6.4-2.3,7.8-5.1,16.1-8.4,25.6-7.8.3,0,.6,0,.2,0,1.9-3.5,3.5-6.7,5.2-9.8,1.3.2,2.7.3,4.4.6-1.2.6-2.1,1-2.9,1.5s-1.6,1-3.1,2h3.3c0,3.1-1.4,4.8-4.3,4.9,0,.3-.2.5-.3.8,2.4.5,4.8,1.1,7.2,1.6,3.9,1.7,7.7,3.3,11.6,5,2.2,1.1,4.5,2.2,6.7,3.4,6.3,3.6,12.4,7.5,19.8,8.7,4.2.6,6.5-.4,8-3.5.7-3.4-.3-4.6-4.6-5-3.5-.3-7.1-.4-9.9-3.1h.3Z"/>
  <path class="cls-1" d="M386.4,186.9c-5.8-5.8-7.1-13.1-6.9-20.8v-2.4c.9-2.8,1.9-5.6,2.8-8.4,1.2-2.1,2.3-4.2,3.5-6.3.5-.8,1.1-1.5,1.7-2.4-2.8-.6-5-1.1-7.3-1.5-5-.7-8.4,2.2-8.5,7.2,0,5.4-.1,10.9,0,16.3,0,1.9.8,3.8,1.2,5.7.3,1.4.4,2.9.6,5.1-1.9,2.2-4.3,5.2-7,8.1-.4.5-1.5.3-2.3.4-.2-1.3-.7-2.6-.7-3.9v-35h-2.6c0-.7,0-1.3.2-1.6,2.3-2.6,4.7-5.2,7.1-7.8,1.8-1.9,3.2-.4,3.9,1,1.1,2,2.2,1.8,3.6.5,3.1-2.7,6.5-3.1,10.2-1.3,2.3,1.1,4.5,1.5,6.6-.6.3-.3,1.3.1,2,.2-8.8,8.4-10.7,18.7-8.3,30.1.4,1.1.8,2.1,1.1,3.2h0c.2.4.5.8.7,1.2h0l1.3,1.3h0c.3.6.6,1.3,1,2,1.2,1.1,2.1,3.1,4.2,1.3.8.1,1.7.3,2.5.4-1.2,1.7-2.8,3.3-3.6,5.2-2.1,4.9-2.5,5.1-7.1,2.6v.2Z"/>
  <path class="cls-1" d="M215.4,187.9c-1.9-1.6.1-2.4.8-3,7.3-7.3,9.9-24.5,4.9-33.5-1-1.1-1.8-2.6-3.1-3.2-1-.4-2.5.3-4.1.6.6-1.5,1.2-2.8,1.8-4.2.7-1.2,1.5-2.4,2.2-3.7,1.3-2.2,2.9-3,5.3-1.4,5.5,6.1,7.5,13.3,6.8,21.4,1.3-1.7,2.7-3.4,4-5,.8.2,1.6.4,2.3.6-.3.5-.5,1.1-1,1.4-3.5,2.3-5.2,5.5-4.9,9.7.2,3,.4,5.9.6,8.9-.4-.7-.7-1.3-1.1-2-.3-3.2-.6-6.3-.9-9.4-2.3,5.1-4.6,10.2-7.1,15.6,1.2.1,2.6.2,4,.4,1.9.2,3.9.8,5.8.7,3.1-.1,6.4-3.1,6.5-5.8,0-5.1,0-10.2-.2-15.2v-4.3c.1-2.4.2-4.8.3-7.4h-2.9c0-.7,0-1.2.2-1.4,2.3-2.8,4.6-5.6,7-8.3,1.4-1.6,2.6-.5,3.5.8v37.2h.3c.3-3.3.5-6.6.8-9.8.5-.6.9-1.3,1.4-1.9.8.1,1.5.3,2.3.4-3.6,3.7-4.9,7.7-2,12.5.2.3-.2,1-.6,1.4-2.3,2.5-4.5,5.1-6.9,7.5s-1.5.5-2.2.7c-.1-.2-.3-.3-.5-.2-.2-2.2-.4-4.4-.7-7.1-.7.8-1.2,1.3-1.6,1.9-4.1,5.2-7.1,6-13.6,4.5-2.3-.5-5,.5-7.4.8v-.2Z"/>
  <path class="cls-1" d="M325.9,155.1c2.4-5.2,5.1-10.2,9.5-14.1,3.5-3.1,7.4-3.7,11.6-2.5,3.1.9,6,2.7,8.9-.3.1-.1.8.4,1.3.6-1.1,1.3-2.2,2.5-3.2,3.8-5.9,7.2-8.1,18.7-4.8,26.4.7-1.3,1.4-2.5,2-3.6.7.1,1.3.2,2,.3-2.2,2.7-2.6,5.5-.5,8.5.3.4.6,1,.6,1.4,0,3.5,1.9,3.2,4.2,2.2.7.2,1.3.4,2,.5-1.3,1.9-2.8,3.8-3.7,5.9-1.9,4.2-2,4.4-6.4,2.7-1.2-1.2-2.3-2.4-3.5-3.7-.7-1.5-1.5-2.9-2.6-5.2-1.5,2.2-3.1,3.8-3.8,5.7-1.6,4.5-2.5,5.5-7.2,2-.4-.3-.9-.6-1.3-.8-4.2-4.6-6.4-10-7.6-16,0-4.7.7-9.4,2.5-13.8h0ZM335.7,173.9c.5.6,1,1.2,1.6,1.8v.2h.2c-.4.5-.8,1-1.5,1.9,1.5.3,2.7.5,4,.7,2.6.3,3.6-.5,2.9-3.4-1.5-5.9-1.2-11.8,1-17.5.9-2.4,2.1-4.8,3.1-7.1,1-1.5,2-3,3-4.6-3.6-.6-7-1.1-10.4-1.6-4.3-.6-6.9.7-8.4,4.8-2.8,8-2.8,15.9,1.5,23.6.2.5.4,1,.7,1.5.2,0,.4-.1.6-.2-.2-.7-.3-1.4-.5-2-1.8-5-3.1-9.9.4-14.8,1.7-.6,2.6-4.5,5.2-1.3-7.2,4.1-8.5,11.2-3.3,17.9v.2c.1,0-.1-.1-.1-.1Z"/>
  <path class="cls-1" d="M294.6,184.1c-2.4-3.5-3.3-7.3-3.3-11.5.1-8,0-16,0-24.3h-3.2c.7-1,1-1.7,1.5-2.3,2-2.1,4.1-4.1,5.9-6.4,1.1-1.5,2.1-1.9,3.6-.9,0,1.1.1,2.3.1,3.4v29.1c0,2.9.3,5.7,3.5,7,3.7,2.2,4.3,2.2,6.4-1.3,4.9-8.1,6.4-16.7,3-25.8-2.2-4.1-4-5-6.9-3.6,0-.8-.3-1.7,0-2.4.9-2,1.8-4,3-5.8.4-.7,1.7-1.5,2.2-1.3,2.3.8,4.4,2,6.6,3.1,4.5,7,6.6,14.5,3.3,22.4-1.9,4.4-4.8,8.5-7.7,12.4-3,4-6.4,7.6-9.9,11.7-3,0-5.7-1.7-8.2-3.8v.3Z"/>
  <path class="cls-1" d="M459,164.7c.3.4.7.8,1,1.1-3.2,3.4-1.2,7.2-.7,10.8.3,1.7,3.2,2.3,4.9,1.3.7.2,1.5.4,2.2.5-1.3,2-2.9,3.8-3.9,5.9-1.9,4.2-2.3,4.5-6.5,2.5-1.3-1.4-2.5-2.7-3.8-4.1-.6-1.3-1.3-2.7-1.9-4-.3,0-.7,0-1-.1-1.2,2.3-2.7,4.6-3.7,7-.9,2.3-2.3,2.9-4.3,1.6s-3.7-2.9-5.5-4.4c-.9-1.5-1.9-3-2.8-4.5-1.9-4.4-3.3-8.9-2.8-13.8,2.1-5.5,3.7-11.3,6.4-16.5,1.6-3.1,4.5-5.8,7.2-8.1,3.1-2.7,7-2.4,10.7-1.2,2.8.9,5.5,2.5,8-.4.1-.2,1,.3,1.6.5-5.7,5.8-9.6,12.4-9.4,20.8.1,3.6.5,7.1.8,11.2,1.4-2.6,2.3-4.3,3.3-6.1h.2ZM447.3,178.4c2.6.2,2.9-1.1,2.4-3.3-1.5-6.1-1.2-12.2,1.1-18,1.1-2.9,2.7-5.6,4-8.4.6-.9,1.3-1.8,2-2.9-3.5-.6-6.7-1.1-9.9-1.5-5.3-.8-7.9.8-9.4,5.9-1.9,6.6-1.9,13.2.6,19.7.2.6.6,1.1,1.1,1.6,1.4,1.6,3.3,3,4.1,4.9.9,2.2,2.3,2.3,4.1,2.1h-.1Z"/>
  <path class="cls-1" d="M189.6,187.9c-.2-1.3-.7-2.6-.7-3.9-.1-10.7-.1-21.3-.2-32-.1-1.1,1.4-3.3-1.6-2.4,0-.9-.2-2,.2-2.6,1.8-2.2,3.8-4.3,5.9-6.3.8-.7,2.2-.9,3.3-1.3.3,2.9.5,5.8.9,9.5,1.7-2.1,2.9-3.6,4.1-5.1.5-.5,1.1-1,1.4-1.6,1.5-3.3,3.6-3.6,6.3-1.6,3.7,4.6,3.9,7.4.6,12.4-1.2,1.8-2.7,3.5-4.1,5.1-1.1,1.2-1.4,2.4.1,3.4,2,1.4,1.7,3.1.6,4.9-1.1-1.1-2.3-2.1-3.4-3.2-1-2.9.5-5.1,2-7.3.3-1.7.6-3.5.9-5.2-2.5-4.2-4.9-4.4-7.6-.4-2.7,3.8-.7,8-1.4,11.8,1.3-2.6,2.6-5.1,3.9-7.6.5.4,1,.8,1.5,1.2-1,1.4-2.4,2.8-2.8,4.3-1.2,6-2.4,12,0,18,.2.5-.3,1.6-.8,2.1-1.9,2.3-3.9,4.5-6.1,6.6-.7.7-2,.8-3.1,1.1h.1Z"/>
  <path class="cls-1" d="M470.4,179v-29.9c-.7.2-1.2.3-1.8.4-1.7-1-.7-1.8.2-2.6,2-2.1,4.1-4.1,5.9-6.3,1.5-1.9,2.7-2.1,4,0v8.3c1.5-1.6,2.4-2.7,3.3-3.7,1-1.3,2.3-2.4,3-3.8,1.5-2.8,3.3-2.7,5.4-.9.4.3.9.5,1.3.8,3.2,4,2.5,7.9-.3,11.8-1,1.3-1.9,2.8-3.1,3.9-2.5,2.2-2.2,3.9.5,5.6-.2,1.3-.3,2.5-.5,4.5-1.7-2-2.8-3.2-3.8-4.5.7-2.3,1.5-4.5,2.2-6.8,1.5-1.9,2.2-3.8.3-5.8-1.4-.8-3.5-2.6-4-2.2-1.8,1.3-3.9,3.2-4.3,5.2-.6,3.3,0,6.8,0,10.3s-.2,8.5-.2,12.8.9.9,1.4,1.4c1.9.5,1.7,1.4.6,2.6-2.1,2.2-4.1,4.6-6.3,6.7-.7.7-2,.8-3.1,1.2-.2-2.1-.5-4.3-.7-6.4v-2.5h0Z"/>
  <path class="cls-1" d="M118.8,88.6c2,2.9,2.9,5.9,1.6,9.4-1.8,4.8-5.2,6.1-11.2,4.4-.2-.2-.4-.5-.6-.7.9,0,1.9,0,2.8.1,2.7.2,5.1-.5,6.4-3,1.6-3.1,2.2-6.4-.4-9.4-4.8-5.7-11.7-7.2-17.4-5.5-1.4.4-2.8.5-4.3.7,6-4.3,14.8-3.4,21.2,2.2.6.5,1.2,1.1,1.9,1.6v.2Z"/>
  <path class="cls-1" d="M175.2,123.1c.4-.8.8-1.7,1.2-2.5.3-.4.5-.8.8-1.2.7-2.8,0-3.6-2.7-3.8-1.6-.2-3.2-.8-4.9-1.2,4.1-1,8.1-.9,11.6,2,2.7,3.7-1.9,6.5-1.5,10,1,.3,1.9.6,2.9.9v.6h-5.3c-.7-1.5-1.3-3.1-2-4.6v-.2Z"/>
  <path class="cls-1" d="M422.4,199.5c-2.9-5.1-7.5-5.7-11.2-1.6-.5.5-1.1.9-1.6,1.3-.7-2.7,1.9-5.5,5.3-5.9,3.1-.4,5.3,1.2,7.4,3.2,0,1,0,2,.1,3h0Z"/>
  <path class="cls-1" d="M173.3,196.6l-1.6,1.6c-2.7-4-5.5-1.9-8.4-.3-.2-.2-.3-.3-.5-.5,1.2-1.1,2.4-2.2,3.6-3.4,2.8-.6,5,.6,7,2.5h-.1Z"/>
  <path class="cls-1" d="M141.3,202.9c1.9-1.7.9-2.8-1-3.1-1.4-.2-2.8.2-4.4.3,0-.5.1-1,.2-1.4h0c2.4-.5,4.8-1.7,7.1.5.1.2.3.5.4.7-.4,1.4-.8,2.8-1.1,4.2l-1.1-1.1h0Z"/>
  <path class="cls-1" d="M390.9,165.8c-2.4,2.8-2.1,5.7-.6,8.8-.3.2-.6.4-.8.6h0l-1.3-1.3h0c-.2-.4-.5-.9-.7-1.3h0c-.1-1.1-.2-2.1-.3-3.2.5-1.3,1-2.6,1.5-4,.7,0,1.4.1,2.1.2v.2Z"/>
  <path class="cls-1" d="M268.6,122.7c1.1-1.4,1.3-4,4.2-3h0c-1.5,2.4-3.1,4.7-4.6,7.1.2-1.4.3-2.8.5-4.1h-.1Z"/>
  <path class="cls-1" d="M309.1,155.8c-2.2,1.7-4.4,3.4-6.6,5.1-.1-.1-.3-.2-.4-.3l1.5-2.8c1.7-1,2.7-3.9,5.5-2h0Z"/>
  <path class="cls-1" d="M145.5,128.1c-.4,1-.8,2.1-1.1,3.1-.3-.2-.6-.4-.9-.7,0-1,.1-2.1.2-3.1.6.2,1.2.4,1.8.6h0Z"/>
  <path class="cls-1" d="M136.1,198.6c-.7-.2-1.5-.3-2.9-.6,2.4-1.7,4.5-3,6.5-4.6,1.4-1.2,3.6-2.2,2-4.8-.2-.3.8-1.4,1.2-2.1.5.6,1.3,1.1,1.4,1.8.3,3-1.7,4.7-3.7,6.4-1.5,1.3-3,2.6-4.5,3.9h0Z"/>
  <path class="cls-1" d="M123.1,141.2c-.2-.5-.3-.9-.5-1.4-.3-1.7-.5-3.4-.8-5,.7-2.8,1.5-5.6,2.2-8.4,2-1.1,4-2.1,6.6-.9-6.2,1.9-7.2,3.4-7.1,10,0,1.9-.2,3.8-.4,5.7h0Z"/>
  <path class="cls-1" d="M163.3,197.9c-.4.1-.7.3-1.1.4.2-.3.4-.6.6-.9.2.2.3.3.5.5Z"/>
  <path class="cls-1" d="M375.4,157.1c1.5-1.2,2.6-3.2,5-2,0,.5,0,1.2-.2,1.4-2,1.6-4.1,3.1-6.8,5.1.8-1.9,1.4-3.2,2-4.6h0Z"/>
  <path class="cls-1" d="M107.8,87.5c0,.4,0,.7.2,1.1,0,.4,0,.8-.3,1.2-1.2,2.3-2.4,4.7-3.6,7-2.1-3.5,0-6.1,1.9-8.8.6-.2,1.2-.3,1.8-.5Z"/>
  <path class="cls-1" d="M108,97.6c2.8.2,5-.5,6.3-3.2.3-.3.6-.5.9-.8.3.2.5.3.8.5-.9,1.2-1.5,3.1-2.7,3.6-1.8.7-4,.5-6.1.6l.7-.7h0Z"/>
  <path class="cls-1" d="M481.8,155c.7.2,1.4.5,2.1.7-1.4,2.3-2.7,4.5-4.5,7.5,0-3.5.5-6,2.4-8.3h0Z"/>
  <path class="cls-1" d="M162,164.6c-.1-.1-.3-.1-.5-.1.6-2.3,1.3-4.5,1.9-6.8,1.1-.9,2.2-1.9,3.4-2.6,1.1-.7,2.6-1.3,3.3.7-4.5,1.3-6.3,5.1-8.1,8.9h0Z"/>
  <path class="cls-1" d="M79.5,135.7c.3-3.6.5-7.1.8-10.7,1.8-2.3,3.5-4.5,5.3-6.8,1.8.4,3.6.7,5.4,1.1-7.9,1.3-11.8,6.4-10.3,14.5.8,4.2,2.8,8.2,4.2,12.2.3,0,.7-.1,1-.2-.2-2.6-.4-5.1-.6-7.7.2-.7.5-1.4.7-2,1.8-5.1,5.6-6.7,9.5-2.9v.8c-.4,0-.9.4-1.1.3-3.9-1.9-6.1-1.2-6.8,3.1-.5,2.8-.6,6.3.6,8.8,1.7,3.8,4.7,7,7.1,10.5,3.5,3.7,7,7.4,10.4,11.3.9,1.1,1.4,2.6,2.1,3.9-.3.2-.5.3-.8.5-7.7-8.7-15.4-17.3-23.1-26-1.4-3.5-2.9-7-4.3-10.6h0Z"/>
  <path class="cls-1" d="M80.6,156.2v-.9c.2.1.5.2.7.3.9.9,1.7,1.9,2.6,2.8,1.9,3.6,3.1,7.3.8,11.3-1.8,3.2-6.4,4.7-9.5,2.7-1-.6-1.5-2-1.6-3.4,1.4.7,2.8,1.3,4.2,2,1-.4,2.2-.5,3-1.1,3.2-2.7,3.2-8.6,0-12.3,0-.5-.2-1-.3-1.4h.1Z"/>
  <path class="cls-1" d="M109.8,177.3c.5,2.9-.2,5.5-2.8,7.1-1.3.8-3.4.6-5.3.8,1.9-1.6,3.5-2.7,4.5-4.1.4-.6-.4-2.1-.8-3.7-1.4,1-2.2,1.6-3.6,2.6,0-1.3-.3-2.3,0-2.8.5-.6,2-1.4,2.3-1.1,1.4,1.2,2.6,2.7,4,4.2.2-.8.5-2,.7-3.2.3,0,.6.1.9.2h.1Z"/>
  <path class="cls-1" d="M268.8,155.8c-7,3.5-5.5,9.2-4,15-3.2-3.3-2.9-7.2-2.3-11.2.9-1.4,1.6-2.8,2.6-4,1.2-1.5,2.6-1.5,3.7.3h0Z"/>
  <path class="cls-1" d="M445.9,155.7c-3.7,1.2-5.5,4.1-6.5,7.9-.4-.2-.8-.4-1.1-.6.5-1.7,1.1-3.4,1.6-5.1.8-.8,1.6-1.7,2.4-2.4,1.3-1.2,2.5-1.4,3.6.2h0Z"/>
</svg>