<?xml version="1.0" encoding="UTF-8"?>
<svg id="Calque_1" data-name="Calque 1" xmlns="http://www.w3.org/2000/svg" version="1.1" viewBox="0 0 500 300">
  <defs>
    <style>
      .cls-1 {
        fill: #75683b;
        stroke-width: 0px;
      }
    </style>
  </defs>
  <path class="cls-1" d="M217.1,74.1c1.6,1.6,3.3,3.1,5.5,5.2,1.1-5.6,2.1-10.2,3-14.8h1.3v15.2c2.1-.2,3.5-.4,5.2-.6.3-7.7-.7-15.4,5.1-22.7-.7,8.4-4.7,15.9.1,23,6.8-1.2,7.8-6.5,7.9-11.5.2-13.6-.1-27.3-.4-40.9,0-5.5-1.6-10.4-5.9-14.5-1.8-1.6-2.1-4.8-2.8-6.9,4,2.1,7.7,3.9,11.5,5.8,1.3-2.6,2.6-5.1,3.6-7.4,0,0,.1.8.4,1.5.9,2.1,2.1,5.8,2.8,5.7,2.8-.4,5.6-1.6,8-3.1,1.2-.8,1.8-2.7,2.6-4.2.9,5-.4,8.1-3.5,11.7-1.7,2.1-3.5,4.7-3.6,7.2-.5,15.8-.5,31.7-.6,47.5,0,.6,0,1.3.2,2,.9,3.7,1.8,8.1,6.6,7.5,4.7-.6,4.2-5.2,3.9-8.6-.4-4.7-1.6-9.3-2-14,3.3,4,5.4,8.4,5.1,13.8,0,1.8-.6,3.8-.3,5.5.2,1.3,1.6,2.3,2.5,3.5,1.1-1.1,3-2,3.2-3.1.4-3.5.1-7.1,1.1-10.8.9,4.4,1.8,8.9,2.9,13.8,1.8-1.3,3.5-2.3,5-3.4.4.1.7.3,1.1.5-1.3,2.8-2.8,5.6-4.1,8.3,1.1,1.8,2.3,3.7,3.4,5.5-.2.1-.5.4-.7.5-1.1-.9-2.1-1.6-3.3-2.5-2.3,4.9-3.6,10.3-6.9,14-5.4,6.1-7.9,12.7-8.1,20.5,0,2.3-1,4.6-2.3,6.7-.2-4.4-.5-8.9-.7-13.5-9.4,2.4-9.8,14.9-1.5,23.7-6.5,7-6.7,14.9-2.7,23.2.4.8.4,2,0,2.8-4.1,8.6-3.4,17.8-3.4,26.9,0,24.9.6,49.7,0,74.6-.2,9.5-3,18.9-4.7,28.3h-1.3c-1.3-7.7-3.5-15.4-3.8-23-.7-26.4-.7-52.7-1.1-79,0-7.1.8-14.5-1.2-21.1-1.8-6.2-1.8-11.3-.1-17.4,1.6-5.7-1.8-10.8-6-15.2,6.5-5.2,7.6-12.4,6.7-20-.2-1.6-3.1-3-4.8-4.5l-1.9.4c-.4,5-.8,9.9-1.3,16.3-1.7-8.9-3.1-16.6-4.6-24.7-12.9,5.8-9.3,17.3-12.5,26.1-.4-2.3-1-4.6-.9-6.9.4-7.4-3.5-12.4-7.9-17.8-3.4-4-4.5-10-6.6-15,.4-.3.9-.5,1.3-.8,1,1.5,2,3,3,4.5,1.9,2.8,3.5,5.8,5.8,8.1,2.8,2.8,6.1,2.8,9.7.7,3.8-2.2,3.8-4.8,2.3-8.4s-2.6-7.2-4.1-11.2c-1.9.9-3.2,1.6-4.4,2.2-.2-.1-.4-.4-.6-.5,1.3-1.6,2.6-3.3,3.4-4.4-1.6-3.6-2.9-6.7-4.3-9.9.3-.3.6-.5.9-.8h-.1ZM274.8,88.8c-.5-.6-1-1.2-1.5-1.8-2.3.9-5.7,1.1-6.9,2.8-2.6,3.7-3,8.1.9,12.9,2.5-4.6,5-9.3,7.4-13.9h0ZM233.4,95c.6,2.2,1,4,1.4,5.7,4.3-9.4,2.3-13.6-4.5-12.5-.5,5.4.2,6.9,3.1,6.8h0Z"/>
  <path class="cls-1" d="M191.2,93.2c-1.8,4.3-3.6,8.4-5.8,13.5,10.1-3.1,12-5.5,11.3-13.5,10.5,12.8,12.8,27.8,15.9,42.7-3.1-6.8-6-13.7-9.4-20.4-1.1-2.2-4-5.7-4.9-5.4-3.8,1.3-7.3,3.9-10.8,6.3-.4.3.3,2.4.7,3.6,12.1,28.5,24.3,57.1,36.5,85.6.1.4,0,.9,0,3-9.4-16.2-23.3-24.9-37.7-33.8,4,.3,7.9.6,12.8,1-7.2-17.3-14-33.7-21.1-50.9-2.8,4.8-5.1,9-8.2,14.6-.9-10.6,8.1-18.9,2.4-29-9.4,21.2-14.8,42.7-17.1,65-1.3-3.8-2.3-7.7-4.1-11.1-6.8-13.5-21.7-15.8-32.3-5-7.9,8.1-12,18.2-15.1,28.8-.9,3-1.7,6.1-2.6,9.1h-1.3c0-2.5-.1-5,0-7.5,1.4-27.6,9.9-52.9,25-76,1.6-2.4,1.7-4.1.3-6.7-9.2-17.4-12.7-35.8-6.2-54.8,3.7-10.7,12.1-17.7,23.3-21-1.5,1.3-3.3,2.3-4.5,3.8-3.8,4.5-8.1,8.7-10.9,13.7-3.7,6.6,0,13.1,7.3,14.5,9.1,1.7,17.9,0,25.7-5.1,2.9-1.8,5-1.5,8.2-.2,6.8,2.7,14,4.4,21.1,6.1,4.6,1.1,9.4,1.5,14.1,3-8.4.4-16.7.9-25.1,1.3-8.5.4-10.6,3.3-7.7,11.1,1.3,3.5,3,6.9,5.3,12.2,2.1-2.8,3.3-4.7,4.7-6.3,1.3-1.4,3-2.6,5.3-4.3,0,8.2-10.3,13.6-5,22.1,3-3.8,5.8-7.4,8.6-11,.4.3.7.6,1.1.9h0ZM124.9,66.3c-4.4,9.1-1.8,30.5,4.7,39.8,5-5.2,10.1-10.6,15.1-15.9.4.4.8.7,1.1,1.1-4.9,8.2-9.8,16.4-15.2,25.4-3,.2-9.6,15.3-11.5,29.5,5.5-1,11.2-3.3,16.4-2.6,5.5.8,10.6,4.6,15.9,7.1,2.1-15.7,6.9-30.2,14.2-43.9,1.4-2.7,2.8-6.4,2.1-9-2.5-7.9-6.1-15.3-9.1-23-1.1-2.8-2.8-3.7-5.8-3.5-8.5.6-16.9.1-24.6-4.1-1-.6-2.2-.6-3.3-.9h0Z"/>
  <path class="cls-1" d="M315.5,82.3c3,2.6,6.1,5.1,9.8,8.1,1.9-5,3.8-9.6,5.5-14.2,1.4-3.8-.4-6.1-3.9-6.7-5.2-.9-10.3-1.3-15.6-1.6-5.5-.3-11.1,0-16.6,0,0-.4,0-.9,0-1.3,7.3-1.1,14.6-2.3,22-3.1,5.7-.6,11.1-1.6,15.5-5.3,2.6-2.1,4.9-1.3,7.9-.1,6.2,2.5,12.6,4.7,19.1,5.8,5,.8,11.1.6,13.9-5,2.9-5.7,1.4-11.7-2.7-16.6-2.9-3.4-6.4-6.2-10.3-9.9,2.2.7,4,1.1,5.5,1.9,11.7,6.4,16.5,16.6,18.3,29.6,2.3,16.3-1.6,30.7-9.1,44.7-.6,1.1-.3,3.3.5,4.5,13,19.3,20.1,40.8,23.7,63.5,1,6,.6,12,.9,17.5-3.6-8.1-7.3-16.7-11.3-25.1-1.3-2.8-3.6-5.2-5.4-7.9-8.5-13.2-30.5-9.2-35.1,6.2-1.1,3.5-1.8,7.2-3.4,10.9-.6-23.4-7.9-45.2-15.9-67.7-3.4,3.7-3.9,6.7-2.6,10.5,2.1,6,3.9,12.1,4.7,18.6-2.6-4.6-5.3-9.2-8.6-15.1-7.3,17.9-14,34.4-21,51.7,4.9-.6,8.6-1,14.1-1.6-14.9,10.5-31,17.4-39.7,32.9,12.3-28.5,24.5-57,36.8-85.5,2.3-5.3,1.5-6.8-5.8-10.8-4.3-2.4-6.7-.6-8.4,3.1-2.5,5.5-4.7,11.2-7.1,16.8-.8,1.8-1.5,3.6-2.8,5.2,2.4-15.2,5.8-30,15.8-42.4.2.2.5.4.8.6-1.8,6.5.7,9.8,10.4,12.5-1.8-5-3.5-9.5-5.2-14,.4-.2.8-.4,1.2-.7,2.6,3.8,5.2,7.7,8,11.8,2.3-3.1,2.6-5.9.6-9.3-2.1-3.6-3.5-7.7-5.1-11.5.3-.2.6-.5.9-.7v-.2ZM371.3,106.7c4.6-12.3,9.1-24.1,6.2-37.1-.5-2.2-.6-4.5-3.6-2.9-8,4.5-16.6,5.1-25.5,4.6-1.7,0-4.5.8-5.1,2-3.6,7.2-7,14.6-9.7,22.2-1,2.8-.3,6.5.8,9.5,3.7,10.8,8,21.3,11.8,32.1,1.5,4.4,2.1,9,3.2,13.5,5.8-2.6,10.8-6.2,16.2-6.9,5.2-.7,10.9,1.5,16.2,2.3-1.8-6.1-3-12.8-5.7-18.8-2.5-5.9-6.4-11.2-9.6-16.8-3.8-6.4-7.4-12.8-11.2-19.1.4-.3.8-.6,1.1-.9,5,5.3,9.8,10.7,15,16.3h0Z"/>
  <path class="cls-1" d="M279.9,135.5c-1.8-12.1-3.8-24.2,0-36.4,2.2,12.1,3.8,24.2,0,36.4Z"/>
  <path class="cls-1" d="M216.2,74.9c0-.4,0-.9-.1-1.3.4.2.6.4,1,.6-.3.3-.6.5-.9.8h0Z"/>
  <path class="cls-1" d="M314.6,83c0-.4,0-.9-.1-1.3.4.2.6.4,1,.6-.3.2-.6.5-.9.7h0Z"/>
  <path class="cls-1" d="M190.1,92.3l1-.7v1.6c-.4-.3-.7-.6-1.1-.9h0Z"/>
  <path class="cls-1" d="M304.1,93.6c.3-.2.6-.4.9-.6,0,.4,0,.9-.1,1.3-.3-.2-.5-.4-.8-.6h0Z"/>
</svg>