<?xml version="1.0" encoding="UTF-8"?>
<svg id="Calque_1" data-name="Calque 1" xmlns="http://www.w3.org/2000/svg" version="1.1" viewBox="0 0 500 300">
  <defs>
    <style>
      .cls-1 {
        fill: #75683b;
        stroke-width: 0px;
      }
    </style>
  </defs>
  <path class="cls-1" d="M344.6,183.1c0-2.1-.2-4.2-.2-6.3v-44.3c0-2-.5-4-.3-6,0-.7,1.1-1.7,1.8-1.9,9.1-2.6,18.3-5.1,27.4-7.6.7-.2,1.4-.1,2.2-.2-.1.7-.2,1.2-.4,2,1.5-.5,2.8-.8,4.5-1.3-.7-.6-1.2-.9-1.7-1.2,0-.2,0-.5.2-.5,4.8-1.4,9.6-2.9,14.4-4.2.8-.2,1.9-.2,2.7.2,8,4.1,16,8.3,24,12.5.8.4,1.5,1.1,2.2,1.7,0,5.3-.2,10.5-.2,15.8,0,8.4-.4,16.8,0,25.2.2,4.3,1.4,8.5,2.2,12.8.2,1,.2,1.9.4,3.5h-16c-1,0-1.9-1-2.8-1-3.2.3-6.3.9-9.5,1.2-.7,0-1.7-.3-2.2-.7-5.3-4.2-10.5-8.4-15.7-12.6-2-1.6-3.8-3.4-5.7-5.2v15c0,1.5.4,3.4-2.4,3.4-8.2-.1-16.4,0-24.7,0l-.2-.3ZM393.9,133.8c-7.8,2.3-15.1,4.5-22.3,6.6v5.1c-.2,4.2,0,8.2,3.8,11.1,4.6,3.4,8.8,7.2,13.4,10.6,1,.7,2.8.9,4,.5.7-.2,1.2-2,1.2-3.1v-30.9h-.1Z"/>
  <path class="cls-1" d="M84,171.6c0-2,.2-4.1.3-6.1v-48c1.6-.4,3.4-1,5.2-1,6.6-.2,13.2-.2,19.7-.3,1.3,0,2.8-.3,2.8,1.8-2.1,2.7-.2,5.6-.2,8.3-.2,13.1,0,26.1,0,39.5,1.3-.5,2.3-1,3.3-1.4,4-1.1,7.9-2.5,12-3.1,5.8-.8,7.8-3.6,7.1-9.3-.5-4-.2-8.1-.1-12.1,0-1.1.5-2.1.9-3.6-.3-.2-.9-.6-1.7-1.1.7-.6,1.3-1.2,1.3-1.2-.1-4-.2-7.4-.3-10.8,0-1,.2-2.1.1-3.1-.3-4.4-.4-4.4,3.9-3.6h9.5c3,0,6-.2,8.9.2,1.6.2,3.1,1.3,4.6,1.9-.2,8.4-.5,16.8-.5,25.2s0,18.3.5,27.4c.1,2.9-1,3.6-3.2,4.2-7.6,2.1-15.2,4.2-22.8,6.4-7.4,2.1-14.7,4.4-22.1,6.4-1.3.3-3,.4-4.1-.2-4.4-2.4-8.6-5-12.8-7.6-1-.6-1.6-1.9-2.7-2.3-2.8-1.2-5.7-2.1-8.6-3.1-.3-.6-.6-1.3-.8-1.9v-1.4h-.2Z"/>
  <path class="cls-1" d="M432.9,182.5c-2.7,0-1.7-1.4-1.7-3.1.1-5-.3-10-.5-15.1v-1.9c5.8.5,11.4,1,17,1.5,8,1,16,1.7,25-.7-1.2-1.1-1.9-2-2.7-2.2-12.6-2.6-25.2-5.1-37.8-7.6-.4-.9-1.2-1.8-1.2-2.7-.2-3.4-.2-6.7-.2-10.1s-.1-3-.2-4.5c.1-1.4.2-2.8.3-4.2,0-.8.2-1.7.2-2.5v-6.3c1.1-5.5-.7-5.8,7.5-6.3,9.3-.6,18.6-1.5,27.9-1.6,8.2,0,16.3,1.1,24.5,1.7.4,0,.7.4,1.1.6,2.1,6.4,2.2,12.9,1,18.9-13.8-.6-27-1.3-40-1.9-1.1,3.4-.3,4.6,2.5,4.3,1.1,0,2.2.3,3.3.5,4.2.9,8.4,1.8,12.6,2.6,7,1.3,14.1,2.6,21.1,3.9.4,0,.7.7,1.1,1.1v30.3c0,3.8-1.9,5.8-5.8,5.9h-.6c-6.7.1-13.4.3-20.1.4-6,0-11.9.3-17.9.2-5.5-.1-10.9-.7-16.4-1.1h0Z"/>
  <path class="cls-1" d="M270.8,118.6c1.1-.6,2.2-1.6,3.4-1.7,9.5-.8,18.9-2,28.4-2.1,8.1,0,16.3,1,24.4,1.7,2.3.2,4.6.9,6.8,1.4-.2,6.2-.4,12.5-.6,18.7h-2.2c-10.2-.6-20.3-1.3-30.5-1.8-2-.1-4.2.3-6.2.8-.5.1-1.1,2.3-1,2.4,1.7.9,3.5,2,5.4,2.4,3.2.5,6.5.3,9.6.8,8.3,1.5,16.6,3.2,24.7,4.8.3,3.2.9,6.3.9,9.3,0,6.4-.2,12.9-.3,19.3,0,2.3.8,5.4-.4,6.6-1.3,1.4-4.4,1.1-6.7,1.4-17.9,2.3-35.9,2.1-53.8-.4-.7,0-1.7-1.3-1.7-1.9-.1-3.7,0-7.5.1-11.2,0-2.4.1-4.9.2-7.3h.6c1.1.4,2.1,1,3.2,1.1,7.2.7,14.3,1.4,21.5,1.7,4.2.2,8.4.8,12.6-.1,2.3-.5,2.6-1.5,2.1-3.5-8.5-1.6-16.8-3.3-25.2-4.9-4-.8-8-1.7-12-1.9-2.8-.1-3.8-.8-3.5-3.6.4-3.6.6-7.3.7-10.9,0-4.3-.3-8.5-.2-12.8,0-.9,1-1.8,1.5-2.8-3.3-.7-1.1-3.7-2.1-5.6h.3Z"/>
  <path class="cls-1" d="M30.6,149.8v-3c.4-2.4.8-4.8,1.2-7.4h-10.3c-.1,1.1-.2,2.1-.4,3.4h-11.2c-.2-2.3-.6-4.7-.5-7,0-.5,1.4-1,2.4-1.7-3.7-.6-3.8-3.7-4.3-6.4-.6-3.5-.9-7.1-1.4-11.1h67.6c.9,0,1.7.4,2.6.6v22.2h-17.8v2.6c0,3.3,0,6.6.2,9.9.3,8.2-1.3,16.6,1.2,24.7.6,2,1,4.1,1.6,6.2h-13.2c-6.5,0-13.1-.1-19.6-.2,0-.2,0-.3-.2-.4.2-.8.3-1.6.5-2.4.8-3.1,2.1-6.1,2.2-9.3.3-6.4,0-12.9,0-19.3s-.3-1.1-.5-1.6v.2Z"/>
  <path class="cls-1" d="M206.9,139.9c-.5-.4-1-.8-1.5-1.2v-2.5c-2.1.2-4,.3-6.2.5,1.4,15.6-1.7,31.1,4.6,46.5h-29.5c-2-.3-2.6-.6-1.7-3.1.9-2.5,0-5.5,0-8.3v-20.3c0-1.1-.7-2.2-.6-3.3,0-1.3.6-2.6,1.3-3.8-1.7-3.9-1.9-6.1,0-8.3-1.7-6.7-3.3-12.9-5.1-19.6h10c10,0,19.9.2,29.9.3h14.2c.8,0,1.5.8,2.3,1.2-1.5,5.8-3.1,11.6-4.4,17.5-.9,4-1.8,4.6-6.1,4.2-2.4-.2-4.9.1-7.3.2h.1Z"/>
  <path class="cls-1" d="M231.4,183.1c-.3,0-.8,0-.9-.2-1.1-2.3,1.9-8.4,3.7-8.6-.5-2.1-1.5-4.3-1.5-6.5,0-8.3.3-16.6.3-24.9s-.3-11.5-.7-17.2c-.1-1.5-1.1-3.1-1.7-4.5-1.4-3-.4-4.8,2.8-4.8,9.2,0,18.4,0,27.7.3.8,0,1.5.9,2.3,1.4-1.1,4.6-2.8,9.1-3.1,13.8-.6,8.1-.4,16.3-.5,24.5,0,7-.5,14.1,2,21,.6,1.8.8,3.7,1.2,5.8-2.5,0-4.7.1-6.9,0-3.6-.2-7.5,1.3-10.5-2.2-.1-.2-1.5.2-1.7.6-1.4,2.9-3.3,1.6-5.3,1-1.1-.4-2.3-.6-3.4-.5-1.3.2-2.5.8-3.7,1.3v-.3Z"/>
</svg>