<?xml version="1.0" encoding="UTF-8"?>
<svg id="Calque_1" data-name="Calque 1" xmlns="http://www.w3.org/2000/svg" version="1.1" viewBox="0 0 500 300">
  <defs>
    <style>
      .cls-1 {
        fill: #75683b;
      }

      .cls-1, .cls-2 {
        stroke-width: 0px;
      }

      .cls-2 {
        fill: #842a04;
      }
    </style>
  </defs>
  <path class="cls-1" d="M391.2,186.7c1.3,1.4,2.7,2.8,4,4.2h-.1c.4.3.7.7,1.1,1.1h-.1c.4.3.7.6,1.1,1h0c.4.6.8,1.3,1.1,2v-.2c.3.4.6.8,1,1.1h-.1c.4.2.7.6,1.1,1h-.1c.4.3.7.6,1.1,1h-.1c.4.3.7.6,1.1,1h0c.4.6.8,1.3,1.1,2v-.2c.2.4.6.8,1,1.1h-.1c.4.2.7.6,1.1,1h-.1c.4.3.7.6,1.1,1h0c1.4,1.6,2.7,3.3,4.1,5h-.1c.4.3.7.6,1.1,1h-.1c.4.2.7.6,1.1,1h-.1c.4.3.7.6,1.1,1h0c.4.6.8,1.3,1.1,2v-.2c.2.4.6.8,1,1.1h-.1c.4.2.7.6,1.1,1h-.1c.4.3.7.6,1.1,1h-.1c.4.3.7.6,1.1,1h0c.4.6.8,1.3,1.1,2v-.2c.6.7,1.3,1.4,2,2.1h-.1c2,2.3,4.1,4.6,6.1,7h-.1c.4.3.7.7,1.1,1h-.1c.4.3.7.6,1.1,1h-.1c.4.3.7.6,1.1,1h0c.7.9,1.4,1.9,2.1,3h-.1c.4.3.7.6,1.1,1h-.1c.4.3.7.6,1.1,1h0c.4.6.8,1.3,1.1,2v-.2c.6.7,1.3,1.4,2,2.1h-.1c.4.3.7.7,1.1,1h0c.4.6.8,1.3,1.1,2v-.2c1.2,1.4,2.6,2.8,4,4.2h-.1c.4.3.7.7,1.1,1h-.1c.4.3.7.6,1.1,1h-.1c.4.3.7.6,1.1,1h0c.7.9,1.4,1.9,2.1,3h-.1c.4.3.7.6,1.1,1h0c.4.6.8,1.3,1.1,2v-.2c.2.4.6.8,1,1.1h-.1c.7.6,1.4,1.3,2.1,2h-.1c.4.3.7.7,1.1,1h0c2,2.3,4.1,4.6,6.1,7h-.1c.4.3.7.7,1.1,1h-.1c.4.3.7.6,1.1,1h0c.7.9,1.4,1.9,2.1,3h-.1c.4.3.7.6,1.1,1h-.1c.4.3.7.6,1.1,1h0c1.7,1.5,3.1,4.2,5,4.6,4.3,1,3.3,3.9,3.4,6.6,0,3.1-1.9,4-4.6,4H42c-3.8,0-7.7,0-11.5.1-.1-3.4-.2-6.7-.3-10.1,2.6-.4,5.1-1.2,7.7-1.2,17.7-.1,35.4,0,53.2-.1,1.8,0,3.6-.8,5.5-1.3V45.6c0-3.8,0-7.7.2-11.5,0-.7.2-1.3.4-2-.3-.2-.7-.3-1-.5-1.2,1.9-2.4,3.8-3.6,5.7h0c-1,1-2,2-3.1,3v-.2c-.3.7-.7,1.4-1,2.1h0c-.4.3-.7.6-1.1,1h0c-.7.9-1.4,1.9-2.1,3h0c-.4.3-.7.7-1.1,1h0c-.7.9-1.4,2-2.1,3h0c-.4.3-.7.6-1.1,1h0c-.4.3-.7.6-1.1,1h0c0-.1-5.1,6-5.1,6h0c-.7.6-1.4,1.3-2.1,2v-.2c-.3.7-.6,1.4-1,2.1h0c-.4.3-.7.7-1.1,1h0c-.4.3-.7.6-1.1,1v-.2c-.2.7-.6,1.4-1,2.1h0c-.4.3-.7.7-1.1,1h0c-.7.9-1.4,1.9-2.1,3h0c-.4.3-.7.6-1.1,1h0c-.4.3-.7.6-1.1,1h0c-1.4,1.6-2.7,3.3-4.1,5h0c-.4.3-.7.7-1.1,1h0c-.7.9-1.4,2-2.1,3h0c-.4.3-.7.6-1.1,1h0c-.4.3-.7.6-1.1,1h0c-.4.3-.7.7-1.1,1v-.2c-.3.7-.7,1.4-1,2.1h0c-.4.3-.7.6-1.1,1h0c-.4.3-.7.7-1.1,1v-.2c-.3.7-.7,1.4-1,2.1h0c-.4.3-.7.6-1.1,1h0c-.4.3-.7.7-1.1,1h0c-1.4,1.6-2.7,3.3-4.1,5h0c-.4.2-.7.6-1.1,1h0c-.4.3-.7.7-1.1,1v-.2c-.2.7-.6,1.4-1,2.1h0c-.4.3-.7.6-1.1,1h0c-.4.3-.7.6-1.1,1h0c-.4.3-.7.6-1.1,1h0c-1.4,0-2.8-.1-4.2-.1h0c-.4-.3-.8-.6-1.2-1h0c-.7-.3-1.4-.6-2.1-1h.1c-.4-.3-.8-.6-1.2-1h.1v-6.1h-.1c.7-.6,1.4-1.3,2.1-2.1v.2c.3-.7.7-1.4,1-2.1h0c.4-.3.7-.6,1.1-1h0c.4-.3.7-.6,1.1-1v.2c.3-.7.7-1.4,1-2.1h0c.4-.3.7-.7,1.1-1h0c.4-.3.7-.7,1.1-1h0c.4-.3.7-.7,1.1-1v.2c0,0,1-2.1,1-2.1h0c.4-.3.7-.7,1.1-1h0c.4-.3.7-.6,1.1-1h0c.4-.3.7-.6,1.1-1h0c1-1.2,2.1-2.6,3.1-4h0c.4-.2.7-.6,1.1-1h0c.7-.6,1.4-1.3,2.1-2v.2c.3-.7.6-1.4,1-2.1h0c.4-.3.7-.6,1.1-1h0c.4-.3.7-.6,1.1-1h0c0,.1,1.1-1,1.1-1v.2c.3-.7.7-1.4,1-2.1h0c.4-.3.7-.6,1.1-1h0c.4-.3.7-.6,1.1-1h0c0,.1,3.1-4,3.1-4h0c.4-.3.7-.7,1.1-1h0c.7-.6,1.4-1.3,2.1-2v.2c.3-.7.6-1.4,1-2.1h0c.4-.3.7-.6,1.1-1h0c.4-.3.7-.6,1.1-1h0c.4-.3.7-.7,1.1-1v.2c.3-.7.7-1.4,1-2.1h0c.4-.3.7-.7,1.1-1h0c.4-.3.7-.7,1.1-1h0c.4-.2.7-.6,1.1-1v.2c.3-.7.6-1.4,1-2.1h0c.4-.2.7-.6,1.1-1h0c1.4-1.6,2.7-3.3,4.1-5h0c.4-.2.7-.6,1.1-1h0c.4-.3.7-.7,1.1-1h0c.4-.2.7-.6,1.1-1h0c.4-.2.8-.6,1.1-1v.2c.2-.7.6-1.4,1-2.1h0c.4-.3.7-.6,1.1-1h0c.4-.3.7-.6,1.1-1v.2c.3-.7.6-1.4,1-2.1h0c.4-.3.7-.7,1.1-1h0c2-1.9,3.9-4,5.9-6-.2-.4-.4-.8-.6-1.2h-17.7c-13.1,0-26.2-.3-39.2-.5v-9.4c14.3-.2,28.6-.4,43-.5,44-.2,88-.4,132-.5,23.5,0,47,0,70.5,0,2,0,4-.5,5.9-.7,1-.2,1.9-.7,2.9-.7h86.5c2.6.3,5.3.7,7.9.7,29.1,0,58.2,0,87.4.2,2.6,0,5.2.8,7.8,1.2v10.1c-2.5,0-5,.4-7.4.4h-96.9c-.2.5-.3.9-.5,1.4l6,3.7h-.1c.4.4.8.7,1.1,1.1h-.1c1,.9,2.1,2,3.1,3h-.2c.7.3,1.4.6,2.1,1h-.1c.4.3.8.6,1.1,1h-.1c.4.2.8.6,1.1,1h-.1c1.4.9,2.7,2,4.1,3h-.1c.4.3.8.6,1.1,1h-.1c1,.6,2,1.3,3.1,2h-.1c.4.3.8.7,1.1,1h-.1c.4.3.8.6,1.1,1h-.1c2,1.6,4.1,3.3,6.1,5h-.1c1.1.9,2.1,2,3.2,3h-.2c.7.3,1.4.6,2.1,1h-.1c.4.4.8.7,1.1,1.1h-.1c.7.6,1.4,1.3,2.1,2h-.2c0-.1,2.1,1,2.1,1h-.1c.4.3.8.7,1.1,1h-.1c1.4.9,2.7,2,4.1,3h-.1c.4.3.8.7,1.1,1h-.1c.4.3.8.6,1.1,1h-.1c1.1.9,2.1,1.9,3.2,3h-.2c1,.6,2.1,1.3,3.1,2h-.1c.7.6,1.4,1.3,2.2,2h-.2c.7.3,1.4.6,2.1,1h-.1c.4.3.8.6,1.1,1h-.1c.4.2.8.6,1.1,1h-.2c.7.3,1.4.6,2.1,1h-.1c.4.4.7.7,1.1,1.1h-.1c.4.2.8.6,1.1,1h-.1c.4.2.8.6,1.1,1h-.1c.3,1.3.7,2.7,1,4.1h0c-.4.3-.8.7-1.1,1h.1c-.4.3-.8.6-1.1,1h.1c-.4.3-.8.6-1.1,1h.1c-.4.3-.7.6-1.1,1h.1c-.4.3-.8.6-1.1,1h.1c-.4.3-.7.6-1.1,1h.1c-.4.3-.7.6-1.1,1h.1c-.4.3-.7.6-1.1,1h.1c-.4.2-.8.6-1.1,1h.1c-1.4,1-2.7,2-4.1,3.1h.1c-.4.3-.8.7-1.1,1h.1c-3.7,3.6-7.4,7.3-11.1,11h.1c-.4.2-.8.6-1.1,1h.1c-.4.2-.8.6-1.1,1h.1c-.4.3-.8.6-1.1,1h.1l-6.1,6.1h0c0-.1-1.1,1-1.1,1h.1c-.4.3-.7.6-1.1,1h.1c-.4.3-.7.6-1.1,1h.1c-.4.3-.7.6-1.1,1h.1c-.4.3-.7.6-1.1,1h.1c-.4.3-.7.6-1.1,1h.1c-2.4,2-4.7,4.1-7.1,6.1h.1c-.4.2-.8.6-1.1,1h.1c-.4.2-.8.6-1.1,1h.1c-.4.2-.8.6-1.1,1h.1c-.4.2-.8.6-1.1,1h.1c-.4.3-.8.7-1.1,1h.1c-.4.3-.8.7-1.1,1h.1c-.4.3-.8.6-1.1,1h.1c-.4.2-.8.6-1.1,1h.1c-.4.2-.8.6-1.1,1h.1c-.4.3-.8.6-1.1,1h.1c-.4.3-.8.6-1.1,1h.1c-1.4,1-2.7,2-4.1,3.1h.1c-.4.2-.8.6-1.1,1h.1c-.4.3-.8.7-1.1,1h.1c-.4.3-.8.7-1.1,1h.1c-.4.2-.8.6-1.1,1h.1c-2.7,2.3-5.5,4.6-7.9,7.2-.6.7,0,2.5-.1,3.7h-.1c.4.3.7.6,1.1,1h-.1c.4.3.7.7,1.1,1h0c1,1.2,2.1,2.6,3.1,4h-.1c.4.3.7.6,1.1,1h-.1c.4.3.7.6,1.1,1h0c1,1.2,2.1,2.6,3.1,4h-.1c.4.3.7.6,1.1,1h-.1c.4.3.7.6,1.1,1h0c.4.6.8,1.3,1.1,2v-.2c1.3,1.4,2.6,2.8,4,4.2h-.1c.4.3.7.7,1.1,1h-.1c.4.3.7.6,1.1,1h0c.7.9,1.4,1.9,2.1,3h-.1c.4.3.7.6,1.1,1h-.1c.4.3.7.6,1.1,1h0c.4.6.8,1.3,1.1,2v-.2c.2.4.6.8,1,1.1h-.1c.4.2.7.6,1.1,1h-.1c.4.3.7.6,1.1,1h-.1c.4.3.7.6,1.1,1h0c.4.6.7,1.3,1.1,2v-.2l-1.7-.2ZM309.1,277.8c.4.4.7.8,1.1,1.1h-.2c1.9.3,3.7,1,5.6,1,9.3.1,18.7-.2,28,.2,4.9.2,6.6-1.2,6.6-6.4-.2-82.3-.2-164.6,0-246.9,0-4.9-1.6-6.2-6.3-6.2-31.3.2-62.6,0-93.9,0-1.7,0-3.3.8-5,1.3v166.7c0,2.6.1,5.6,1.4,7.6,3.6,5.6,7.8,10.7,11.8,16,.3.5.6,1,.9,1.5h-.1c.4.2.7.6,1.1,1h0c.4.6.8,1.3,1.1,2v-.2c.2.4.6.8,1,1.1h-.1c.4.3.7.6,1.1,1h0c.4.6.7,1.3,1.1,2v-.2c.6.7,1.3,1.4,2,2.2h0c1.4,1.6,2.7,3.3,4.1,5h-.1c.4.3.7.6,1.1,1h-.1c.4.3.7.6,1.1,1h0c.4.6.8,1.3,1.1,2v-.2c.3.4.6.8,1,1.1h-.1c.4.3.7.6,1.1,1h0c.7.9,1.4,2,2.1,3h0c.4.6.8,1.3,1.1,2v-.2c.6.7,1.3,1.4,2,2.2h-.1c1.7,1.9,3.4,4,5.1,6h-.1c.4.3.7.6,1.1,1h0c.7.9,1.4,1.9,2.1,3h-.1c.4.3.7.6,1.1,1h0c.4.6.8,1.3,1.1,2v-.2c.2.4.6.8,1,1.1h-.1c.4.3.7.6,1.1,1h0c.4.6.8,1.3,1.1,2v-.2c.6.7,1.3,1.4,2,2.1h0c.4.6.7,1.3,1.1,2v-.2c1.2,1.4,2.6,2.8,4,4.2h0c1,1.3,2.1,2.6,3.1,4h-.1c.4.3.7.6,1.1,1h0c.7.9,1.4,1.9,2.1,3h-.1c.4.3.7.6,1.1,1h0c.4.6.8,1.3,1.1,2h-.1c.4.2.7.6,1.1,1h-.1l-1.2.4ZM416,80.8c.4-.4.8-.7,1.1-1.1h-.1c3.9-1.6,3-3.3,0-4.9h.1c-.4-.3-.8-.7-1.1-1h.2c-.7-.2-1.4-.6-2.1-1h.1c-.4-.3-.8-.6-1.1-1h.1c-.4-.3-.8-.6-1.1-1h.1c-.4-.3-.8-.6-1.1-1h.2c-.7-.3-1.4-.7-2.1-1h.1c-.4-.3-.8-.6-1.1-1h.1c-1-.6-2.1-1.3-3.1-2h.1c-.4-.4-.7-.7-1.1-1.1h.1c-.4-.2-.8-.6-1.1-1h.1c-.4-.2-.8-.6-1.1-1h.1c0,.1-4.2-4-4.2-4h.2c-.7-.3-1.4-.6-2.1-1h.1c-.7-.6-1.4-1.3-2.1-2h.2c-.7-.3-1.4-.7-2.1-1h.1c-.4-.3-.8-.7-1.1-1h.1c-.4-.2-.8-.6-1.1-1h.2c-.7-.3-1.4-.6-2.1-1h.1c-.4-.3-.7-.7-1.1-1h.1c0,.1-1.1-1-1.1-1h.1c-.4-.3-.8-.6-1.1-1h.1c-2-1.6-4.1-3.3-6.1-5h.1c-.4-.3-.8-.7-1.1-1h.1c-.7-.6-1.4-1.3-2.2-2h.2c-.7-.3-1.4-.7-2.1-1h.1c-.4-.3-.8-.6-1.1-1h.1c-.4-.3-.8-.6-1.1-1h.1c-.7-.3-1.4-.6-2.1-1h.1c-.4-.4-.7-.7-1.1-1.1h.1c-.4-.3-.8-.6-1.1-1h.1c-.5-.2-1-.5-1.5-.8-1.3-1-2.6-2-3.8-3-.7.2-1.4.4-2,.6-.1.8-.3,1.6-.3,2.5v91.1c0,1.1.5,2.2.8,3.3.4,1,.7,2,1.1,3,.6-.5,1.1-1,1.7-1.6h0c2-2,4-4,6.1-6h0c.4-.3.7-.6,1.1-1h0c.4-.3.7-.6,1.1-1h0l1.1-1.1h0c1-.7,2-1.4,3-2.1h0c.6-.7,1.2-1.5,1.8-2.2.3-.3.7-.6,1-.9.3-.3.7-.6,1-1,.4-.3.7-.7,1.1-1,2-1.9,4.1-3.9,6.1-5.8.3-.3.7-.7,1-1s.7-.7,1-1,.7-.7,1-1c.5-.5,1-1,1.6-1.5.4-.3.7-.6,1.1-.9.7-.6,1.4-1.3,2.1-1.9.3-.3.7-.6,1-.9.3-.3.7-.6,1-1,.3-.3.7-.6,1-1,.4-.3.7-.7,1.1-1,2-2,4-3.9,6.1-5.9.3-.3.7-.7,1-1,.2-.2.4-.4.6-.5,1.5-1.2,3-2.4,4.4-3.6h-.1c0,.1,1.1-1,1.1-1h-.1c.4-.3.8-.6,1.1-1h-.1c.4-.3.8-.6,1.1-1h-.1c.4-.2.8-.6,1.1-1h-.1c.4-.3.8-.6,1.1-1h-.1l-.8.4ZM446.8,270.2c-.3-.4-.6-.8-.9-1.1-.3-.4-.6-.7-.9-1.1-.5-.5-.9-1-1.4-1.6l-.9-1.1c-.3-.4-.6-.7-.9-1.1s-.6-.7-.9-1.1-.6-.7-.9-1.1-.6-.7-.8-1.1l-1-1c-.3-.3-.6-.7-1-1-.7-.9-1.5-1.8-2.2-2.7-.3-.4-.6-.8-.9-1.2-.3-.3-.6-.7-.9-1-.5-.5-.9-1.1-1.4-1.6-.3-.4-.6-.8-.9-1.1-.3-.4-.6-.7-.9-1.1s-.6-.7-.9-1.1c-.5-.5-.9-1-1.4-1.6-.3-.4-.6-.8-.9-1.1-.3-.4-.6-.7-.9-1.1s-.6-.7-.9-1.1l-.9-1.1c-.3-.4-.6-.7-.9-1.1-.3-.3-.6-.7-1-1-.3-.3-.6-.7-1-1-.7-.9-1.5-1.8-2.2-2.8-.3-.4-.6-.8-.9-1.2l-1-1c-.4-.6-.9-1.1-1.3-1.7-.3-.4-.6-.8-.9-1.1-.3-.4-.6-.7-.9-1.1s-.6-.7-.9-1.1c-.5-.5-.9-1-1.4-1.6-.3-.4-.6-.8-.8-1.1-.9-1.1-1.8-2.1-2.7-3.2-.3-.4-.7-.7-1-1.1-.3-.3-.6-.7-.9-1-.7-.9-1.5-1.8-2.2-2.8-.3-.4-.7-.8-1-1.1l-.9-1.1-1-1c-.4-.5-.9-1.1-1.3-1.6-.3-.4-.6-.8-.9-1.2-.3-.4-.6-.7-.9-1.1s-.6-.7-.9-1.1c-.5-.6-.9-1.2-1.4-1.8-.9-1-1.8-2-2.8-3-.3-.4-.6-.7-.9-1.1s-.6-.7-.9-1.1c-.3-.3-.6-.7-.9-1-.5-.5-.9-1.1-1.4-1.6-.3-.4-.6-.8-.8-1.2-.3-.4-.6-.7-.9-1.1s-.6-.7-1-1.1c-.3-.4-.6-.7-.9-1.1-1-1.3-2.1-2.6-3.1-3.8-.3-.4-.6-.7-.9-1.1l-1.5-1.5c-1.5-1.8-3-3.7-4.5-5.5l-1-1c-.5-.5-1-1-1.5-1.6-.6-.8-1.1-1.5-1.7-2.3-.3-.4-.6-.7-1-1.1s-.6-.7-.9-1c-.5-.5-.9-1.1-1.4-1.6-.3-.4-.6-.8-.9-1.2-.3-.4-.6-.7-.9-1.1-.5-.5-.9-1.1-1.4-1.6s-.6-.6-.8-1c-.6-.8-1.3-1.5-1.9-2.3-.3.8-.6,1.6-.9,2.4-.1,1-.3,2-.3,3v98.4c0,1.5.5,2.9.7,4.4.2.1.3.3.5.4,1.6.5,3.2,1.5,4.8,1.5h83.5c1.3,0,2.6-.4,3.8-.6v-1c-.6-.2-1.2-.4-1.7-.7-.7-1-1.4-1.9-2.1-2.9-.3-.4-.6-.7-1-1.1s-1-1-1.4-1.6c-.3-.4-.6-.8-.9-1.2h-.1ZM193.2,260.9c-.3.4-.6.8-.9,1.1-1,1.3-2,2.6-3.1,3.9-.3.4-.7.7-1,1.1-.8,1.1-1.7,2.2-2.5,3.4-.5.5-1,1-1.5,1.6-.3.4-.6.8-.9,1.2-.7.9-1.4,1.9-2.1,2.8-.3.4-.6.7-.9,1.1-1.5,2.5-1.5,2.7,2.3,2.7h42.8c6.3,0,6.6-.3,6.6-6.9v-56.3c0-1.1-.2-2.2-.3-3.3-.3-.1-.6-.2-.9-.3-.6,1-1.1,2-1.7,3-.3.4-.5.8-.8,1.1-.3.4-.6.8-.9,1.1-.4.6-.8,1.1-1.3,1.7-.3.4-.6.7-1,1.1-1,1.3-2,2.6-3,3.9-.3.4-.7.7-1,1.1-1.6,2-3.2,4-4.8,6.1-.6.7-1.2,1.5-1.8,2.2-.4.6-.9,1.1-1.3,1.7-.3.4-.6.8-.9,1.2-.7.9-1.4,1.9-2.1,2.8-.3.3-.7.7-1,1-1.3,1.7-2.6,3.3-3.9,5-.3.4-.6.8-.9,1.2-.9,1.1-1.7,2.2-2.6,3.3-.5.6-1,1.1-1.4,1.7-1,1.3-2,2.6-3,3.9l-1,1.1c-.7,1-1.4,1.9-2.1,2.9-.3.3-.6.7-1,1v-.2ZM181.1,257.8h-.1c.4-.3.7-.6,1.1-1h-.1c1-1.3,2.1-2.6,3.1-4h0c.4-.3.7-.7,1.1-1h-.1c.4-.3.7-.6,1.1-1h-.1c.7-.6,1.4-1.3,2.1-2v.2c.3-.7.6-1.4,1-2.1h0c.4-.3.7-.6,1.1-1h-.1c.4-.3.7-.7,1.1-1v.2c.3-.7.7-1.4,1-2.1h0c.4-.3.7-.7,1.1-1h-.1c.4-.3.7-.6,1.1-1h-.1c.4-.3.7-.7,1.1-1v.2c.3-.7.7-1.4,1-2.1h0c.4-.3.7-.7,1.1-1h-.1c1-1.3,2.1-2.6,3.1-4h0c.4-.2.7-.6,1.1-1h-.1c.4-.3.7-.6,1.1-1h-.1c.7-.6,1.4-1.3,2.1-2v.2c.3-.7.7-1.4,1-2.1h0c.4-.3.7-.7,1.1-1h-.1c.7-.6,1.4-1.3,2.1-2v.2c.3-.7.6-1.4,1-2.1h0c.4-.3.7-.7,1.1-1v.2c.3-.7.6-1.4,1-2.1h0c.4-.3.7-.6,1.1-1h-.1c.4-.3.7-.6,1.1-1h-.1c1.7-1.9,3.4-4,5.1-6h-.1c.7-.6,1.4-1.3,2.1-2h-.1c.4-.2.8-.6,1.1-1v.2c.3-.7.7-1.4,1-2.1h0c.7-.9,1.4-1.9,2.1-3h0c.4-.3.7-.6,1.1-1h-.1c.4-.3.7-.6,1.1-1h-.1c.4-.3.7-.6,1.1-1v.2c.3-.7.7-1.4,1-2.1h0c.4-.3.7-.6,1.1-1h-.1c.4-.4.7-.9,1.1-1.5v.2c.2-2.1.7-4.3.7-6.4V28.1c0-4.7-1.1-6.6-6.4-6.6-35.3.2-70.6,0-105.9,0s-3.2.2-5.5.3c1,1.3,1.5,2,2.1,2.7h0c.4.3.7.7,1.1,1h0c.7.9,1.4,2,2.1,3h0c2.4,2.9,4.7,6,7.1,9h0c.4.3.7.6,1.1,1h0c.7.9,1.4,1.9,2.1,3h-.1c.4.3.7.6,1.1,1h0c.4.6.8,1.3,1.1,2v-.2c.2.4.6.8,1,1.2h-.1c.4.3.7.6,1.1,1h0c.4.6.8,1.3,1.1,2h-.1c.4.2.7.6,1.1,1h0c.4.6.7,1.3,1.1,2v-.2c.2.4.6.8,1,1.1h-.1c.7.6,1.4,1.3,2.1,2h0c1.4,1.6,2.7,3.3,4.1,5h0c.7.9,1.4,2,2.1,3h-.1c.4.3.7.6,1.1,1h0c.4.6.8,1.3,1.1,2v-.2c.3.4.6.8,1,1.1h-.1c.4.3.7.6,1.1,1h0c.4.6.8,1.3,1.1,2v-.2c.2.4.6.8,1,1.1h-.1c.4.3.7.6,1.1,1h0c.4.6.7,1.3,1.1,2v-.2c.6.7,1.3,1.4,2,2.1h0c1,1.3,2.1,2.6,3.1,4h-.1c.4.3.7.6,1.1,1h0c.7,1,1.4,2.1,2.1,3.2,1,1.1,2,2.3,3,3.4.3.5.6.9,1,1.4h0c.4.6.7,1.3,1.1,2v-.2c.2.4.6.8,1,1.2h-.1c.4.3.7.6,1.1,1h0c.4.6.7,1.3,1.1,2v-.2c1.4,2.9,4.5,5.7.9,9.2h.1c-1,.7-2.1,1.4-3.1,2.1h.1c-1.7.3-3.5.6-5.2.9h0c-.4-.6-.7-1.4-1.1-2.1v.2c-.3-.4-.6-.8-1-1.1h.1c-.4-.3-.7-.7-1.1-1h0c-.7-.9-1.4-2-2.1-3h0c-.4-.6-.7-1.3-1.1-2v.2c-.6-.7-1.3-1.4-2-2.2h0c-.7-.9-1.4-2-2.1-3h.1c-.4-.3-.7-.6-1.1-1h0c-.7-.9-1.4-1.9-2.1-3h.1c-.4-.3-.7-.6-1.1-1h0c-.4-.6-.7-1.3-1.1-2h.1c-.4-.2-.7-.6-1.1-1h0c-.7-.9-1.4-2-2.1-3h0c-.7-.9-1.4-2-2.1-3h0c-.4-.6-.7-1.3-1.1-2v.2c-1.6-2.1-3.3-4.1-5-6.2h0c-.7-.9-1.4-2-2.1-3h.1c-.4-.3-.7-.6-1.1-1h0c-.7-.9-1.4-2-2.1-3h0c-.7-.9-1.4-2-2.1-3h0c-.4-.6-.7-1.3-1.1-2v.2c-.2-.4-.6-.8-1-1.1h0c-.4-.6-.7-1.3-1.1-2v.2c-.6-.7-1.3-1.4-2-2.2h0c-1-1.3-2.1-2.6-3.1-4h0c-1-1.3-2.1-2.6-3.1-4h0c-.7-.9-1.4-2-2.1-3h0c-.4-.6-.7-1.3-1.1-2v.2c-.3-.3-.8-.7-1.2-1-1.5-1.9-3.1-3.8-4.6-5.6-.3,2.5-.9,4.9-.9,7.4v229.6c0,2.5.6,4.9.9,7.4,17.5.2,34.9.5,52.4.3,3.9,0,7.2-3,7-7.8h0c1.3-.7,2.8-1.2,3.8-2.2,2.2-2.2,4.2-4.6,6.3-7,.5-.7,1.1-1.4,1.6-2.1h0c.4-.3.7-.7,1.1-1l-1.1-.7ZM268,242.8h.1c-.4-.3-.7-.6-1.1-1h0c-1-1.2-2.1-2.6-3.1-4h.1c-.4-.3-.7-.6-1.1-1h0c-.7-.9-1.4-1.9-2.1-3h.1c-.4-.2-.7-.6-1.1-1h.1c-.4-.3-.7-.6-1.1-1h0c0,.1-1.1-2-1.1-2h.1c-.4-.2-.7-.6-1.1-1h.1c-.4-.3-.7-.6-1.1-1h0c-.7-.9-1.4-2-2.1-3h0c-.4-.6-.8-1.3-1.1-2v.2c-1.9-2.4-3.9-4.8-6-7.2h.1c-.4-.3-.8-.6-1.1-1h0c-.2-.5-.5-1.2-1.3-3.1-.4,2.1-.7,2.8-.7,3.6v59.8c0,1.3,1,2.6,1.6,3.9h-.2,44.6c-4.1.2-8.3.3-12.4.2-10.1-.2-20.2-.4-30.4-.6h45c.3-.8.6-1.5.9-2.3-3.5-3.3-7-6.7-10.5-10h0c-.2-1.1-.2-2.6-.8-3.5-3.6-5.2-7.3-10.3-11-15.4-.3-.5-.7-1-1-1.4h0c-.4-.6-.7-1.3-1.1-2v.2c-.2-.4-.6-.8-1-1.1l.8-.3Z"/>
  <path class="cls-1" d="M95.3,34.7c0,3.8-.2,7.7-.2,11.5v231.4c-6.3.1-12.6.4-18.9.4H31.8q-2.6,0-3,2.2c.1,3.4.2,6.7.3,10.1,0,.2.2.5.3.7v.2h447.4c0,.4.1.8.2,1.3-.9.3-1.8.8-2.8.9-1.3.2-2.7,0-4,0H33.8c-4.9,0-7.4-2.5-7.4-7.6v-9.8h59.2c8.2,0,7.6,1.1,7.6-7.4V41.7c-.4-.2-.8-.4-1.3-.6-18.4,23-36.8,46-55.4,69.2-4.7-3-9-5.8-13.3-8.7-.6-.4-.8-1.7-1.1-2.5.4-.3.8-.6,1.1-.8.3-.4.6-.7.9-1.1,1.1-1.3,2.1-2.6,3.2-3.9.3-.4.6-.7.9-1.1,1.4-1.7,2.7-3.3,4.1-5,.3-.4.6-.7.9-1.1,1.1-1.3,2.1-2.6,3.2-3.9.3-.4.6-.7.9-1.1,1.1-1.3,2.1-2.6,3.2-3.9.5-.5.9-1.1,1.4-1.6,1.2-1.5,2.4-2.9,3.6-4.4.3-.4.6-.7.9-1.1,1.4-1.6,2.7-3.3,4.1-4.9.3-.4.6-.7.9-1.1.8-.9,1.5-1.8,2.3-2.8.3-.4.6-.7.8-1.1.5-.6.9-1.1,1.4-1.7.6-.7,1.2-1.5,1.8-2.2.3-.4.6-.7.9-1.1.5-.6.9-1.1,1.4-1.7,1.2-1.5,2.4-2.9,3.6-4.4,1.1-1.3,2.1-2.6,3.2-3.9.3-.4.6-.7.8-1.1.3-.4.6-.8.9-1.1.7-.9,1.5-1.9,2.2-2.8.3-.4.6-.7.9-1.1.5-.6,1-1.1,1.5-1.7.3-.4.5-.7.8-1.1.3-.4.6-.7.9-1.1.3-.4.6-.7.9-1.1,2.6-3,5.1-6.1,8.5-10H30.3V6.6h447.6v17h-97l-.7,1.5c20.4,16.7,40.8,33.5,61.9,50.8-8.7,8.1-17,15.9-25.3,23.8-.3-.4-.5-.8-.8-1.2,2.1-2.6,4.3-5.1,6.4-7.7h-.1c.4-.3.8-.7,1.1-1h-.1c1.4-1,2.7-2,4.1-3.1h-.1c.4-.4.8-.7,1.1-1.1h-.1c.4-.3.7-.6,1.1-1h-.1c.4-.3.7-.6,1.1-1h-.1c.4-.3.7-.6,1.1-1h-.1c.4-.3.7-.6,1.1-1h-.1c.4-.3.7-.6,1.1-1h-.1c.4-.3.8-.6,1.1-1h-.1c.4-.3.8-.6,1.1-1h-.1c.4-.3.8-.7,1.1-1h0c3.8-2.3,1-3.1-1-4.1h.1c-.4-.3-.8-.6-1.1-1h.1c-.4-.3-.8-.6-1.1-1h.1c-.4-.3-.7-.6-1.1-1h.1c-.7-.4-1.4-.8-2.1-1.1h.2c-.4-.3-.8-.6-1.1-1h.1c-.4-.3-.8-.6-1.1-1h.1c-.7-.4-1.4-.8-2.1-1.1h.2c-.7-.6-1.4-1.3-2.2-2h.1c-1-.6-2.1-1.3-3.1-2h.2c-1.1-.9-2.1-2-3.2-3h.1c-.4-.3-.8-.6-1.1-1h.1c-.4-.3-.8-.6-1.1-1h.1c-1.4-1-2.7-2.1-4.1-3.1h.1c-.4-.3-.8-.6-1.1-1h.1c-.7-.4-1.4-.8-2.1-1.1h.2c-.7-.6-1.4-1.3-2.1-2h.1c-.4-.3-.8-.6-1.1-1h.1c-.7-.4-1.4-.8-2.1-1.1h.2c-1.1-.9-2.1-2-3.2-3h.1c-2-1.6-4.1-3.3-6.1-5h.1c-.4-.3-.8-.6-1.1-1h.1c-.4-.3-.8-.6-1.1-1h.1c-1-.7-2-1.4-3.1-2.1h.1c-.4-.3-.8-.6-1.1-1h.1c-1.4-1-2.7-2.1-4.1-3.1h.1c-.4-.3-.8-.6-1.1-1h.1c-.4-.3-.8-.6-1.1-1h.1c-.7-.4-1.4-.7-2.1-1.1h.2c-1-.9-2.1-2-3.1-3h.1c-.4-.3-.8-.6-1.1-1h.1c-1-1.1-1.9-2.1-3.6-4h97.4c1.7,0,3.4-.9,5.1-1.5v-10.1c-1.7-.8-3.3-2.2-5-2.2h-184.6c-1,0-1.9.4-2.9.7-2.7,0-5.3-.2-8-.2-57.1,0-114.1.3-171.2.4-22.8,0-45.6,0-68.4,0-1.3,0-2.5,1-3.8,1.6v9.4c.2.5.5,1.5.8,1.6,1.7.2,3.3,0,5,0h49.1c-1.3,2.5-2.2,4.3-3.2,6.1h0c-.4.3-.7.7-1.1,1h0c-.4.6-.8,1.3-1.1,2v-.2c-.3.4-.6.8-1,1.1h0c-.4.3-.7.7-1.1,1h0c-.4.6-.7,1.3-1.1,2v-.2c-.3.4-.7.8-1,1.1h0c-.4.3-.7.7-1.1,1h0c-.4.3-.7.7-1.1,1h0c-.4.3-.7.7-1.1,1h0c-1.4,1.6-2.7,3.3-4.1,5h0c-.4.3-.7.7-1.1,1h0c-.4.6-.8,1.3-1.1,2v-.2c-.3.4-.6.8-1,1.1h0c-.4.3-.7.7-1.1,1h0c-.4.3-.7.7-1.1,1h0c-.4.6-.8,1.3-1.1,2v-.2c-.3.4-.6.8-1,1.1h0c-.4.3-.7.7-1.1,1h0c-.4.3-.7.7-1.1,1h0c-.4.6-.7,1.3-1.1,2v-.2c-.6.7-1.3,1.4-2,2.1h0c-.4.3-.7.7-1.1,1h0c-1,1.3-2.1,2.6-3.1,4h0c-.4.3-.7.7-1.1,1h0c-.4.3-.7.7-1.1,1h0c-.4.6-.8,1.3-1.1,2v-.2c-.3.4-.6.8-1,1.1h0c-.4.3-.7.7-1.1,1h0c-.4.3-.7.7-1.1,1h0c-.4.6-.8,1.3-1.1,2v-.2c-.6.7-1.3,1.4-2,2.2h0c-.4.3-.7.7-1.1,1h0c-1,1.3-2.1,2.6-3.1,4h0c-.4.3-.7.7-1.1,1h0c-.4.3-.7.7-1.1,1h0c-.4.3-.7.7-1.1,1h0c-.4.6-.8,1.3-1.1,2v-.2c-.3.4-.6.8-1,1.1h0c-.4.3-.7.7-1.1,1h0c-.4.3-.7.7-1.1,1h0c-.4.6-.8,1.3-1.1,2v-.2c-.3.4-.6.8-1,1.1h0c-.4.3-.7.7-1.1,1h0c-.4.6-.8,1.3-1.1,2v-.2c-.6.7-1.3,1.4-2,2.2h.1c-1.6.9-3.2,1.9-4.7,3,.3.5.7,1.1,1,1.6,1.2.5,2.5,1,3.7,1.6h-.1c.4.3.8.6,1.2,1h-.1c.7.4,1.4.7,2.1,1.1h-.1c.4.3.8.6,1.2,1h0c1.4.9,2.8,3.8,4.2,0h0c.4-.4.7-.8,1.1-1.1h0c.4-.3.7-.7,1.1-1h0c.4-.3.7-.7,1.1-1h0c.4-.6.8-1.3,1.1-2v.2c.3-.4.6-.8,1-1.1h0c.4-.3.7-.7,1.1-1h0c1.4-1.6,2.7-3.3,4.1-5h0c.4-.3.7-.7,1.1-1h0c.4-.3.7-.7,1.1-1h0c.4-.6.8-1.3,1.1-2v.2c.3-.4.6-.8,1-1.1h0c.4-.3.7-.7,1.1-1h0c.4-.6.8-1.3,1.1-2v.2c.3-.4.6-.8,1-1.1h0c.4-.3.7-.7,1.1-1h0c.4-.3.7-.7,1.1-1h0c.7-.9,1.4-2,2.1-3h0c.4-.3.7-.7,1.1-1h0c1.4-1.6,2.7-3.3,4.1-5h0c.4-.3.7-.7,1.1-1h0c.4-.3.7-.6,1.1-1h0c.7-.9,1.4-2,2.1-3h0c.4-.3.7-.7,1.1-1h0c.4-.6.8-1.3,1.1-2v.2c.3-.4.6-.8,1-1.1h0c.4-.3.7-.7,1.1-1h0c.4-.6.8-1.3,1.1-2v.2c.6-.7,1.3-1.4,2-2.2h0c1.7-1.9,3.4-4,5.1-6h0c.4-.3.7-.7,1.1-1h0c.4-.3.7-.6,1.1-1h0c.7-.9,1.4-2,2.1-3h0c.4-.3.7-.7,1.1-1h0c.7-.9,1.4-2,2.1-3h0c.4-.3.7-.7,1.1-1h0c.4-.6.8-1.3,1.1-2v.2c.9-1,1.9-2.1,3-3.1h0c1.4-1.1,2.8-2.1,4.3-3.2l-.7,1.3Z"/>
  <path class="cls-1" d="M395.2,190.8c-.2-.8-.3-1.5-.9-3.8,2.3,2.2,3.6,3.2,4.7,4.5,19.9,23.5,39.7,47,59.5,70.6.9,1,1.5,2.1,2.3,3.2-.4.3-.8.6-1.2,1-1.9-1.8-3.7-3.7-5.6-5.5h0c-.4-.3-.7-.7-1.1-1h.1c-.7-.6-1.4-1.3-2.1-2h.1c-.4-.3-.8-.7-1.1-1v.2c-.3-.7-.7-1.4-1-2.1h0c-.4-.3-.7-.7-1.1-1h.1c-.7-.9-1.4-2-2.1-3h0c-.4-.3-.7-.6-1.1-1h.1c-.4-.3-.7-.7-1.1-1h.1c-.4-.3-.7-.7-1.1-1h.1c-1.4-1.3-2.7-2.7-4.1-4.1v.2c-.3-.7-.7-1.4-1-2.1h0c-.4-.3-.7-.7-1.1-1h.1c-.7-.6-1.4-1.3-2.1-2v.2c-.3-.7-.7-1.4-1-2.1h0c-.4-.3-.7-.7-1.1-1h.1c-.4-.3-.7-.7-1.1-1h.1c-.7-.9-1.4-2-2.1-3h0c-.4-.3-.7-.6-1.1-1h.1c-.4-.3-.7-.7-1.1-1h.1c-.4-.3-.7-.7-1.1-1h.1c-2-2.3-4.1-4.6-6.1-7h.1c-.7-.6-1.4-1.3-2.1-2v.2c-.3-.7-.7-1.4-1-2.1h0c-.4-.3-.7-.7-1.1-1h.1c-.4-.3-.7-.7-1.1-1h.1c-.4-.3-.7-.7-1.1-1h.1c-.4-.3-.7-.7-1.1-1v.2c-.3-.7-.7-1.4-1-2.1h0c-.4-.3-.7-.7-1.1-1h.1c-.4-.3-.7-.7-1.1-1h.1c-.4-.3-.7-.7-1.1-1h.1c-1.4-1.6-2.7-3.3-4.1-5h0c-.4-.3-.7-.7-1.1-1h.1c-.4-.3-.7-.7-1.1-1h.1c-.4-.3-.7-.7-1.1-1v.2c-.3-.7-.7-1.4-1-2.1h0c-.4-.3-.7-.7-1.1-1h.1c-.4-.3-.7-.7-1.1-1h.1c-.4-.3-.7-.7-1.1-1h.1c-.4-.3-.7-.7-1.1-1v.2c-.3-.7-.7-1.4-1-2.1h0c-.4-.3-.7-.7-1.1-1h.1c-.4-.3-.7-.7-1.1-1h.1l1.2-.6Z"/>
  <path class="cls-1" d="M413.9,102.4c-16.4,16-32.7,31.9-49.3,48,5.2,6.5,10.2,12.7,15.2,18.8-.4.3-.8.7-1.2,1-1.2-.8-2.4-1.7-3.6-2.5v.2c-.3-.7-.7-1.4-1-2.1h0c-.4-.3-.7-.7-1.1-1h.1c-.4-.3-.7-.7-1.1-1h.1c-1-1.3-2.1-2.6-3.1-4h0c-.4-.3-.7-.7-1.1-1h.1c-.4-.3-.7-.7-1.1-1h.1c-1-1.3-2.1-2.6-3.1-4h0c-.4-.3-.7-.7-1.1-1h.1c-.4-.3-.7-.7-1.1-1h.1c.7-1.3,1.1-2.8,2-4,1.9-2.4,4-4.6,6-6.9h-.1c.4-.3.8-.7,1.1-1h-.1c.4-.3.8-.7,1.1-1h-.1c.4-.3.8-.7,1.1-1h-.1c.4-.3.8-.7,1.1-1h-.1c1.4-1,2.7-2,4.1-3.1h-.1c.4-.4.8-.7,1.1-1.1h-.1c.4-.3.8-.6,1.1-1h-.1c.4-.3.8-.6,1.1-1h-.1c.4-.3.8-.6,1.1-1h-.1c.4-.3.8-.6,1.1-1h-.1c.4-.3.8-.7,1.1-1h-.1c.4-.3.8-.7,1.1-1h-.1c.4-.3.8-.7,1.1-1h-.1c.4-.3.8-.7,1.1-1h-.1c.4-.3.8-.7,1.1-1h-.1c.4-.3.8-.7,1.1-1h-.1c2.4-1.9,4.7-4,7.1-6h-.1c.4-.4.7-.7,1.1-1.1h-.1c.4-.3.7-.6,1.1-1h-.1c.4-.3.7-.6,1.1-1h-.1c.4-.3.7-.6,1.1-1h-.1c.4-.3.7-.6,1.1-1h-.1c.4-.3.7-.6,1.1-1h0c2-1.9,4.1-4,6.1-6h-.1c.4-.4.8-.7,1.1-1.1h-.1c.4-.3.8-.6,1.1-1h-.1c.4-.3.8-.6,1.1-1h-.1c.5,0,1.1-.3,1.6-.4.4.3.8.7,1.2,1l.3.3Z"/>
  <path class="cls-1" d="M379.9,169.3c5.3,6.1,10.7,12.3,16,18.4-.4.3-.7.7-1.1,1-1.2-.7-2.4-1.3-3.6-2v.2c-.4-.7-.7-1.4-1.1-2.1h0c-.4-.3-.7-.7-1.1-1h.1c-.4-.3-.7-.7-1.1-1h.1c-.4-.3-.7-.7-1.1-1h.1c-.4-.3-.7-.7-1.1-1v.2c-.3-.7-.7-1.4-1-2.1h0c-.4-.3-.7-.7-1.1-1h.1c-.4-.3-.7-.7-1.1-1h.1c-.7-.9-1.4-1.9-2.1-3h0c-.4-.3-.7-.6-1.1-1h.1c-.4-.3-.7-.7-1.1-1h.1c-.2-.4-.4-1-.5-1.5.4-.3.8-.7,1.2-1h.3Z"/>
  <path class="cls-1" d="M460.9,265.3c1,1.1,2.2,2.1,3.1,3.2,3.3,4.2,5.8,9.3,12.5,9.2-4.6,2.2-7.7.4-10.3-2.9h0c-.4-.3-.7-.7-1.1-1h.1c-.4-.3-.7-.7-1.1-1h.1c-.7-.9-1.4-1.9-2.1-3h0c-.4-.3-.7-.6-1.1-1h.1c-.4-.3-.7-.7-1.1-1h.1c-.2-.4-.3-1-.5-1.5.4-.3.8-.6,1.2-1h0Z"/>
  <path class="cls-1" d="M415,101.4c-.3.3-.7.7-1,1-.4-.3-.8-.7-1.2-1,.3-.3.7-.6,1-.9.4.3.8.6,1.2.9Z"/>
  <path class="cls-1" d="M416,100.4c-.3.3-.7.7-1,1-.4-.3-.8-.6-1.2-.9.3-.3.7-.6,1-1,.4.3.8.6,1.2.9Z"/>
  <path class="cls-1" d="M416.6,99.7c-.2.3-.4.5-.7.7-.4-.3-.8-.6-1.2-.9.3-.3.7-.7,1-1,.3.4.5.8.8,1.2h.1Z"/>
  <polygon class="cls-2" points="29.8 291.1 29.6 291.2 29.5 291 29.7 290.9 29.8 291.1"/>
  <path class="cls-1" d="M164.2,86.4c-1-1.1-2-2.3-3-3.4-.7-1.1-1.4-2.2-2.1-3.3h0c-.4-.3-.7-.7-1.1-1h.1c-1-1.3-2.1-2.6-3.1-4h0c-.7-.6-1.4-1.3-2.1-2v.2c-.3-.7-.6-1.4-1-2.1h0c-.4-.3-.7-.7-1.1-1h.1c-.4-.3-.7-.7-1.1-1v.2c-.3-.7-.7-1.4-1-2.1h0c-.4-.3-.7-.7-1.1-1h.1c-.4-.3-.7-.7-1.1-1v.2c-.3-.7-.7-1.4-1-2.1h0c-.4-.3-.7-.7-1.1-1h.1c-.7-.9-1.4-2-2.1-3h0c-1.4-1.6-2.7-3.3-4.1-5h0c-.7-.6-1.4-1.3-2.1-2.1h.1c-.4-.3-.8-.7-1.1-1v.2c-.3-.7-.6-1.4-1-2.1h0c-.4-.3-.7-.7-1.1-1h.1c-.4-.6-.8-1.3-1.1-2h0c-.4-.3-.7-.7-1.1-1h.1c-.4-.3-.7-.7-1.1-1.1v.2c-.3-.7-.7-1.4-1-2.1h0c-.4-.3-.7-.7-1.1-1h.1c-.7-.9-1.4-2-2.1-3h0c-.4-.3-.7-.7-1.1-1h0c-2.4-2.9-4.7-6-7.1-9h0c-.7-.9-1.4-2-2.1-3h0c-.4-.3-.7-.7-1.1-1h0c1.5-.6,3-1.8,4.5-1.8,35,0,70,0,105,0s3.2.2,5.4.3v173.3-.2c-.4.5-.7,1.1-1.1,1.6h.1c-.4.3-.7.7-1.1,1h0c-.4.6-.8,1.3-1.1,2v-.2c-.3.4-.6.8-1,1.1h.1c-.4.3-.7.7-1.1,1h.1c-.4.3-.7.7-1.1,1h0c-.7.9-1.4,2-2.1,3h0c-.4.6-.8,1.3-1.1,2v-.2c-.3.4-.7.8-1,1.1h.1c-.7.6-1.4,1.3-2.1,2.1h.1c-1.7,1.9-3.4,4-5.1,6h.1c-.4.3-.7.7-1.1,1h.1c-.4.3-.7.6-1.1,1h0c-.4.6-.8,1.3-1.1,2v-.2c-.3.4-.6.8-1,1.1h0c-.4.6-.8,1.3-1.1,2v-.2c-.6.7-1.3,1.4-2,2.1h.1c-.4.3-.7.7-1.1,1h0c-.4.6-.8,1.3-1.1,2v-.2c-.6.7-1.3,1.4-2,2.1h.1c-.4.3-.7.7-1.1,1h.1c-.4.3-.7.7-1.1,1h0c-1,1.3-2.1,2.6-3.1,4h.1c-.4.3-.7.7-1.1,1h0c-.4.6-.8,1.3-1.1,2v-.2c-.3.4-.6.8-1,1.1h.1c-.4.3-.7.7-1.1,1h.1c-.4.3-.7.7-1.1,1h0c-.4.6-.8,1.3-1.1,2v-.2c-.3.4-.6.8-1,1.1h.1c-.4.3-.7.7-1.1,1h0c-.4.6-.7,1.3-1.1,2v-.2c-.6.7-1.3,1.4-2,2.1h.1c-.4.3-.7.7-1.1,1h.1c-.4.3-.7.7-1.1,1h0c-1,1.3-2.1,2.6-3.1,4h.1c-.4.3-.7.7-1.1,1h.1c-.4.3-.7.7-1.1,1h0c-.5.6-1.1,1.3-1.6,2-2.1,2.3-4.1,4.8-6.3,7-1,1-2.5,1.5-3.8,2.2.3-.7.5-1.4.8-2.2h0c.4-.7.8-1.4,1.2-2.1v.2c1-1.1,2-2.1,3-3.2h-.1c.4-.3.7-.7,1.1-1.1h0c1-1.3,2.1-2.6,3.1-3.9h-.1c.4-.4.7-.7,1.1-1.1h0c.4-.6.8-1.3,1.2-2v.2c.6-.7,1.3-1.4,1.9-2.1h0c.4-.6.8-1.3,1.2-2v.2c.3-.4.6-.8,1-1.1h0c.7-.6,1.4-1.3,2-2h0c.4-.6.8-1.3,1.2-2v.2c1.2-1.4,2.6-2.8,3.9-4.2h0c.4-.3.7-.7,1.1-1.1h0c.7-1,1.4-2,2.1-3h-.1c.4-.4.7-.7,1.1-1.1h0c.4-.3.7-.6,1.1-1h0c.7-.9,1.4-1.9,2.1-2.9h0c.4-.3.7-.7,1.1-1h0c.4-.6.8-1.3,1.2-2v.2c.6-.7,1.3-1.4,1.9-2.1h-.1c.4-.3.7-.7,1.1-1h0c.4-.6.8-1.3,1.1-2v.2c.9-1,1.9-2.1,2.9-3.1h-.1c.4-.3.7-.7,1.1-1.1h0c.7-1.1,1.3-2.2,2-3.3,1-1.2,2-2.4,3-3.5.4-.4.7-.7,1.1-1.1h0c.4-.3.7-.6,1.1-1h0c.4-.3.7-.6,1.1-1h0c.4-.6.8-1.3,1.1-2h-.1c.4-.2.7-.6,1.1-1h0c.4-.3.7-.6,1.1-1h0c.4-.3.7-.6,1.1-1h0c.4-.6.8-1.3,1.2-2h-.1c.4-.2.7-.6,1.1-1h0c.4-.3.7-.6,1.1-1h0c.4-.3.7-.6,1.1-1h0c.4-.3.7-.6,1.1-1h0c.4-.6.8-1.3,1.1-2h0c.4-.2.7-.6,1.1-1h0c.4-.3.7-.6,1.1-1h0c.5-1.9,1.6-3.9,1.6-5.8V29.3c0-1.8-.2-3.5-.3-5.3h-108.6c19.6,25.8,38.7,50.8,58.1,76.2-2.9,2-5.4,3.7-7.8,5.4-2.4,1.7-4.9,3.3-7.3,4.9-3.5-4.3-6.6-8.2-9.7-12.1h0c-1-1.4-2-2.7-3-4.1h0c-.7-.9-1.4-2-2.1-3h0c-2.7-3.6-5.4-7.3-8-11h0c-1-1.3-2-2.7-3-4h0c-.7-.9-1.4-2-2.1-3h0c-.7-.9-1.4-2-2.1-3h0l-1-1h.1c-3.3-4.6-6.7-9.3-10-14h0c-3.3-4.7-6.5-9.4-9.8-14-.3.1-.7.3-1,.4v234.2c16.6,0,32.9,0,49.2-.1,1.2,0,2.3-1.5,3.5-2.2h0c.4-.4.7-.7,1.1-1.1h0c.4-.4.7-.7,1.1-1.1h0c.8-.6,1.5-1.2,2.3-1.9.1,4.8-3.1,7.8-7,7.8-17.4.3-34.9-.1-52.3-.3,0-1.7-.2-3.3-.2-5V40.6c0-2.7,0-5.3.2-8,1.5,1.9,3.1,3.8,4.6,5.6.5.3.9.7,1.4,1v-.2c.3.7.6,1.4,1,2.1h0c.7.9,1.4,2,2.1,3h0c1,1.3,2.1,2.6,3.1,4h0c1,1.3,2.1,2.7,3.1,4h0c.7.6,1.4,1.3,2.1,2.1v-.2c.3.7.6,1.4,1,2.2h0c.4.3.7.7,1.1,1v-.2c.3.7.6,1.4,1,2.1h0c.7.9,1.4,2,2.1,3h0c.7.9,1.4,2,2.1,3h0c.4.3.7.7,1.1,1h-.1c.7.9,1.4,2,2.1,3h0c1.7,2,3.4,4,5.1,6.1v-.2c.3.7.6,1.4,1,2.1h0c.7.9,1.4,2,2.1,3h0c.7.9,1.4,2,2.1,3h0c.4.3.7.7,1.1,1h-.1c.4.6.7,1.3,1.1,2h0c.4.3.7.7,1.1,1h-.1c.7.9,1.4,2,2.1,3h0c.4.3.7.7,1.1,1h-.1c.7.9,1.4,2,2.1,3h0c.7.6,1.4,1.3,2.1,2.1v-.2c.3.7.6,1.4,1,2.1h0c.7.9,1.4,2,2.1,3h0c.4.3.7.7,1.1,1h-.1c.4.3.7.7,1.1,1v-.2c.3.7.6,1.4,1,2.1h0c2.6,3.9,3.5-.4,5.2-1h-.1c1-.7,2.1-1.4,3.1-2.1h-.1c1.4-.9,2.9-1.8,5.1-3.1-2.3-2.4-4.2-4.2-6-6.1v.2c-.3-.7-.6-1.4-1-2.1h0c-.4-.3-.7-.7-1.1-1h.1c-.4-.3-.7-.7-1.1-1v.2c-.3-.7-.6-1.4-1-2.1h0c-.3-.4-.6-.8-1-1.3l-1.8.8Z"/>
  <path class="cls-1" d="M258.3,212.4c-4-5.3-8.2-10.5-11.8-16-1.3-2-1.4-5-1.4-7.6V22.1c1,0,2-.4,2.9-.4h97.5c1.1,0,2.2.4,3.3.6v256.5h-38.6.2c-.4-.3-.7-.7-1.1-1h.1c-.4-.3-.7-.7-1.1-1h.1c-.4-.6-.8-1.3-1.1-2h0c-.4-.3-.7-.7-1.1-1h.1c-.7-.9-1.4-2-2.1-3h0c-.4-.3-.7-.7-1.1-1h.1c-1-1.3-2.1-2.6-3.1-4h0c-1.4-1.3-2.7-2.7-4.1-4.1v.2c-.3-.7-.6-1.4-1-2.1h0c-.7-.6-1.4-1.3-2.1-2v.2c-.3-.7-.7-1.4-1-2.1h0c-.4-.3-.7-.7-1.1-1h.1c-.4-.3-.7-.7-1.1-1v.2c-.3-.7-.7-1.4-1-2.1h0c-.4-.3-.7-.7-1.1-1h.1c-.7-.9-1.4-2-2.1-3h0c-.4-.3-.7-.7-1.1-1h.1c-1.7-1.9-3.4-4-5.1-6h.1c-.7-.6-1.4-1.3-2.1-2.1v.2c-.3-.7-.7-1.4-1-2.1h0c-.7-.9-1.4-2-2.1-3h0c-.4-.3-.7-.7-1.1-1h.1c-.4-.3-.7-.7-1.1-1v.2c-.3-.7-.7-1.4-1-2.1h0c-.4-.3-.7-.7-1.1-1h.1c-.4-.3-.7-.7-1.1-1h.1c-1.4-1.6-2.7-3.3-4.1-5h0c-.7-.6-1.4-1.3-2.1-2.1v.2c-.3-.7-.6-1.4-1-2.1h0c-.4-.3-.7-.7-1.1-1h.1c-.4-.3-.7-.7-1.1-1v.2c-.3-.7-.7-1.4-1-2.1h0c-.4-.3-.7-.7-1.1-1h.1c-.3-.4-.6-.9-.9-1.4l1.1-.4ZM346.5,274.2c.1-1.8.3-3.6.3-5.4V40.6c0-1.7-.1-3.3-.2-5v-11.5h-99.7v6.7c0,51.3.1,102.6-.2,153.9,0,6.4,1.7,11.4,5.5,16.2,19.2,24.3,38.2,48.8,57.4,73.1,1,1.3,2.9,2.6,4.4,2.6,10,.2,20,.2,30,0,.8,0,1.7-1.6,2.5-2.5h0Z"/>
  <path class="cls-1" d="M362.9,30.9c1.3,1,2.6,2,3.8,3,.5.3,1,.6,1.5,1h-.1c.4.3.8.6,1.1,1h-.1c.4.3.7.6,1.1,1h-.1c.7.4,1.4.8,2.1,1.1h-.1c.4.3.8.6,1.1,1h-.1c.4.3.8.6,1.1,1h-.1c.7.4,1.4.8,2.1,1.1h-.2c.7.6,1.4,1.3,2.2,2h-.1c.4.3.8.6,1.1,1h-.1c2,1.7,4.1,3.4,6.1,5.1h-.1c.4.3.8.6,1.1,1h-.1c.4.3.8.6,1.1,1h-.1c.4.3.7.6,1.1,1h-.1c.7.4,1.4.8,2.1,1.1h-.2c.4.3.8.6,1.1,1h-.1c.4.3.8.6,1.1,1h-.1c.7.4,1.4.8,2.1,1.1h-.2c.7.6,1.4,1.3,2.1,2h-.1c.7.4,1.4.7,2.1,1.1h-.2c1.4,1.3,2.8,2.6,4.2,4h-.1c.4.3.8.6,1.1,1h-.1c.4.3.8.6,1.1,1h-.1c.4.3.7.6,1.1,1h-.1c1,.7,2.1,1.4,3.1,2.1h-.1c.4.3.8.6,1.1,1h-.1c.7.4,1.4.8,2.1,1.1h-.2c.4.3.8.6,1.1,1h-.1c.4.3.8.6,1.1,1h-.1c.4.3.8.6,1.1,1h-.1c.7.4,1.4.8,2.1,1.1h-.2c.4.3.8.7,1.1,1h-.1v4.9h.1c-.4.4-.8.7-1.1,1.1h.1c-.4.3-.8.6-1.1,1h.1c-.4.3-.8.6-1.1,1h.1c-.4.3-.8.6-1.1,1h.1c-.4.3-.8.6-1.1,1h.1c-.4.3-.8.6-1.1,1h.1-3c2.3-2.7,4.7-5.4,7.4-8.5-16.9-13.9-33.7-27.8-51-42.1v89.5c.4.2.8.5,1.2.7,2.6-2.8,5.1-5.5,7.7-8.3.9-.2,1.7-.4,2.6-.6v2.2h0c-1,.7-2,1.4-3,2.1h0c-.4.4-.7.7-1.1,1.1h0c-.4.4-.7.7-1.1,1.1h0c-.4.4-.7.7-1.1,1.1h0c-2,2-4,4-6.1,6h0c-.7-1.7-2.1-3.4-2.1-5.1-.1-29.5-.1-59,0-88.5,0-1.7.6-3.5,1-5.2l.7-1.4Z"/>
  <path class="cls-1" d="M245.5,278.8h.2c-.2-1.1-.5-2.3-.5-3.4v-57.3c0-1.1.6-2.1.8-3.2h0c.4.3.8.6,1.1,1h-.1c2,2.3,4,4.7,6.1,7.1v-.2c.3.7.7,1.4,1,2.1h0c.7.9,1.4,2,2.1,3h0c.4.3.7.7,1.1,1h-.1c.4.3.7.7,1.1,1h-.1c.4.6.8,1.3,1.1,2h0c.4.3.7.7,1.1,1h-.1c.4.3.7.7,1.1,1h-.1c.7.9,1.4,2,2.1,3h0c.4.3.7.7,1.1,1h-.1c1,1.3,2.1,2.6,3.1,4h0c.4.3.7.7,1.1,1h-.1c.4.3.7.7,1.1,1v-.2c.3.7.6,1.4,1,2.1h0c.3.4.7.9,1,1.3,3.7,5.1,7.4,10.2,11,15.4.6.9.5,2.3.8,3.5-.7-.6-1.4-1.3-2.1-1.9-.5-.6-.9-1.1-1.4-1.7-1-1.3-2-2.6-3-3.9s-2-2.7-3-4c-3.3-4.3-6.7-8.7-10-13-1-1.3-2-2.6-3-4-3.9-5.2-7.8-10.5-12.5-16.9v55.2h41.4c-2.3-3.6-4.4-6.8-6.4-9.9,3.5,3.3,7,6.7,10.5,10-.3.8-.6,1.5-.9,2.3h-45c-.6.1-1.2.2-1.8.4l-.7.2Z"/>
  <path class="cls-1" d="M430.9,251.1l.8,1.1c.5.5.9,1.1,1.4,1.6l.9,1.1c.3.4.6.7.9,1.1.7.9,1.5,1.9,2.2,2.8l1,1c.3.3.6.7,1,1,.3.4.6.7.9,1.1s.6.7.9,1.1.6.7.9,1.1.6.7.9,1.1.6.7.9,1.1c.5.5,1,1,1.5,1.6.3.4.6.7.9,1.1s.6.8.9,1.1c.3.4.5.8.8,1.2l1.5,1.5c.3.4.6.7.9,1.1.7,1,1.4,1.9,2.1,2.9-1,.4-2,1.1-3,1.1h-85c-.8,0-1.6-.3-2.4-.4,0-33.6,0-67.2.2-100.8,0-1.8,1.2-3.5,1.8-5.3.3.3.5.7.8,1,.5.5,1,1.1,1.5,1.6.3.4.6.7.9,1.1s.5.8.8,1.2c.5.5.9,1.1,1.4,1.6s.6.7.9,1c.3.4.6.7.9,1.1.6.8,1.1,1.6,1.7,2.3.5.5,1,1,1.5,1.6l1,1c1,1.4,2,2.9,3,4.3-.5.3-.9.6-1.4,1l-3.5-3.5c-2.7-3.3-5.3-6.5-8.8-10.8v99.6h83.7c-2.7-3.1-4.7-5.4-6.8-7.8-.3-.4-.6-.7-.9-1.1-.9-1.1-1.8-2.1-2.7-3.2-.5-.5-1-1.1-1.4-1.6-.3-.4-.6-.7-.9-1.1s-.6-.7-.9-1.1c-.6-.7-1.1-1.5-1.7-2.2-.5-.5-1-1.1-1.4-1.6-.3-.4-.6-.7-.9-1.1-1.7-2-3.3-4-5-6-.3-.4-.6-.7-.9-1.1-.9-1.1-1.8-2.1-2.8-3.2-.3-.3-.5-.7-.8-1-.5-.6-1-1.1-1.5-1.7-.3-.4-.6-.7-.9-1.1-.6-.7-1.1-1.5-1.7-2.2-.5-.5-1-1.1-1.5-1.6-.3-.4-.6-.8-.9-1.1-1.2-1.4-2.4-2.9-3.6-4.3-.5-.5-.9-1.1-1.4-1.6-.3-.4-.6-.7-.9-1.1-.3-.6-.7-1.2-1-1.8.4-.4.8-.8,1.2-1.3.7.6,1.5,1.2,2.2,1.8.3.4.5.8.8,1.1l1.5,1.5c.3.4.6.7.9,1.1s.6.7.9,1.1.6.7.9,1.1c.5.6.9,1.1,1.4,1.7.3.4.6.7.9,1.1s.6.7.9,1.1c.7.9,1.5,1.9,2.2,2.8l1,1c.3.3.6.7,1,1,.3.4.6.7.9,1.1s.6.7.9,1.1.6.7.9,1.1.6.7.9,1.1.6.7.8,1.1c.5.5,1,1,1.5,1.6.3.4.6.7.9,1.1s.6.7.9,1.1l-.3-.2Z"/>
  <path class="cls-1" d="M180.2,277c.3-.4.6-.7.9-1.1.7-1,1.4-1.9,2.2-2.9.3-.4.6-.7.9-1.1.5-.5,1-1,1.5-1.6.8-1.1,1.7-2.3,2.5-3.4.3-.4.6-.7.9-1.1,1-1.3,2.1-2.6,3.1-3.9.3-.4.6-.7.9-1.1.3-.3.6-.7,1-1,.7-1,1.4-1.9,2.1-2.9.3-.4.6-.7.9-1.1,1-1.3,2-2.6,3.1-3.9.5-.5,1-1,1.5-1.6.9-1.1,1.7-2.3,2.6-3.4.3-.4.6-.7.9-1.1,1.3-1.7,2.7-3.3,4-5,.3-.4.6-.7.9-1.1.7-1,1.4-1.9,2.2-2.9.3-.4.6-.7.9-1.1.5-.6.9-1.1,1.4-1.7.6-.7,1.2-1.5,1.8-2.2,1.6-2,3.3-4,4.9-6.1.3-.4.6-.7.9-1.1,1-1.3,2.1-2.6,3.1-3.9.3-.4.6-.7.9-1.1.4-.6.9-1.1,1.3-1.7.3-.4.6-.7.9-1.1.3-.4.6-.7.9-1.1.7.7,2,1.4,2,2.1.1,19.1,0,38.3.1,57.4,0,2.7-1.3,3.4-3.7,3.4h-44.4c-1,0-1.9-1.1-2.9-1.7h-.2ZM228.8,220.4c-15.3,19.1-29.8,37.1-44.9,55.9h44.9v-55.9h0Z"/>
  <path class="cls-1" d="M386,197.9c.3.4.6.7.9,1.1s.6.7.9,1.1.5.8.8,1.1c.5.5,1,1.1,1.4,1.6.3.3.6.7,1,1,.3.4.6.7.9,1.1s.6.7.9,1.1c.9,1.1,1.8,2.2,2.7,3.4l1.5,1.5c.3.4.6.7.9,1.1s.6.7.9,1.1.6.8.8,1.1c.5.5.9,1.1,1.4,1.6s.6.7.9,1c.3.4.6.7.9,1.1s.6.7.9,1.1c.7.9,1.5,1.9,2.2,2.8.3.3.6.7,1,1,.3.4.6.7.9,1.1.2.5.4,1,.5,1.5-.4.4-.8.8-1.2,1.3-.6-.5-1.1-.9-1.7-1.4-.3-.3-.5-.7-.8-1-.5-.6-1-1.1-1.5-1.7-1.1-1.3-2.1-2.5-3.2-3.8-.3-.4-.6-.7-.9-1.1s-.6-.8-.9-1.1c-1.5-1.8-3.1-3.6-4.6-5.4-1.3-1.6-2.7-3.3-4-4.9-.5-.5-1-1.1-1.5-1.6-.3-.4-.6-.7-.9-1.1-1.1-1.3-2.1-2.6-3.2-3.8-.3-.4-.6-.7-.9-1.1s-.6-.7-.9-1.1c-1.4-1.6-2.8-3.2-4.1-4.9-.3-.4-.6-.7-.9-1.1-.2-.5-.4-1-.6-1.5.5-.3.9-.6,1.4-1,.5.4,1,.8,1.5,1.2l1.5,1.5c.3.4.6.7.9,1.1,1,1.3,2.1,2.6,3.1,3.9.3.4.6.7.9,1.1h.2Z"/>
  <path class="cls-1" d="M376,116.7c.8-1.6,1.6-3.2,2.3-4.8h-.2c.4-.4.7-.7,1.1-1.1h-.1c1-.6,2-1.3,3-2h0c.4-.3.7-.7,1.1-1h0c.4-.4.7-.7,1.1-1.1h0c.4-.4.7-.7,1.1-1.1h0c.4-.3.7-.6,1.1-1h0c.4-.3.7-.6,1.1-1h0c.4-.4.7-.7,1.1-1.1h0c.4-.3.7-.6,1.1-1h0c.4-.3.7-.6,1.1-1h0c.7-.2,1.3-.5,2-.8.4.4.8.8,1.3,1.2-.3.4-.5.8-.8,1.2-.3.3-.7.6-1,.9l-1.5,1.5c-.3.3-.7.7-1,1s-.7.7-1,1-.7.7-1,1c-2,2-4.1,3.9-6.1,5.9-.3.3-.7.6-1,1-.3.3-.7.6-1,1-.3.3-.7.6-1,.9-.6,0-1.2.1-1.9.2l-.9.2Z"/>
  <path class="cls-1" d="M406.2,86c.6,0,1.3-.1,1.9-.2-.5,1.2-1,2.3-1.5,3.5-.3,0-.4.3-.5.6-.3.3-.7.7-1,1-2,2-4.1,3.9-6.1,5.9-.3.3-.7.6-1,1-.3.3-.7.6-1,1-.3.3-.7.6-1,1-.3.3-.7.6-1,.9-.5.2-.9.4-1.4.7-.4-.4-.8-.8-1.3-1.2.7-1,1.4-2.1,2.1-3.1h-.1c.4-.3.7-.7,1.1-1.1h-.1c.4-.3.7-.6,1.1-1h0c1.3-.9,2.7-2,4-3h0c.4-.4.7-.7,1.1-1.1h0c.4-.4.7-.7,1.1-1.1h0c.4-.3.7-.6,1.1-1h0c.4-.4.7-.7,1.1-1.1h0c.4-.4.7-.7,1.1-1.1h0c.4-.4.7-.7,1.1-1.1v.2l-.8.3Z"/>
</svg>