<?xml version="1.0" encoding="UTF-8"?>
<svg id="Calque_1" data-name="Calque 1" xmlns="http://www.w3.org/2000/svg" version="1.1" viewBox="0 0 500 300">
  <defs>
    <style>
      .cls-1 {
        fill: #75683b;
        stroke-width: 0px;
      }
    </style>
  </defs>
  <path class="cls-1" d="M483,200.2h-.4c-8.7,3.8-15.1-.2-20.9-6.2-3.4-3.6-7.1-7.4-10-11.4-1.5-2-1.6-4.9-2.4-7.4.4-.2.7-.4,1.3-.7,1.5,1.6,3.1,3.4,4.5,5.1,3.4,3.8,6.7,7.8,10.5,11.1,2.7,2.2,6.2,3.8,9.6,4.7,4.7,1.5,8.3-1.6,8.5-6.5,0-2.5-.4-5.1-.4-7.8,9.4,3.4,12.7,18.1,6.2,26.1-9.8,11.8-28.7,8.9-36.3.9-8-8.2-14-17.8-19.4-27.7-8.3-15.2-16.5-30.8-27.2-44.6-1.8-2.4-3.8-4.4-6.5-7.4-.4,4.9-1.3,8.9-1.1,12.9.4,8.9.4,17.8,2,26.3,3.1,16.5,12.7,28.7,27.4,37,.7.4,1.3.7,1.8,1.5-7.8-1.3-14.9-4.5-21.4-8.9-8.7-5.8-15.6-13.4-20.9-22.3-1.1-1.6-2.5-3.1-4-4.7,6.2-4.9,8-11.8,7.6-19.4-.7-10-1.6-19.8-2.7-29.7-.5-5.1-3.4-8.9-7.3-12.2-10.7-9.2-22.9-16.1-36.1-21.6,1.6.2,3.1.4,4.7.7s3.1.7,4.5,1.3c17,6,33,14.3,44.6,28.5,8.9,10.9,17,22.3,25.2,33.7,4.4,6,8.5,12.3,13.2,19.2.5-4.9.9-8.9,1.3-12.7.9-11.4,3.8-22.3,9.4-32.5,5.3-9.4,13.1-16.7,23.2-20.5,3.4-1.3,7.6-1.5,11.2-1.1,4.5.4,7.8,3.1,9.1,7.6,1.5,5.3-.5,10.5-4.7,13.4.9-2.4,2-4.7,2.4-7.1,1.3-5.4-1.6-8.7-7.1-8.9-6,0-10.3,2.9-14.5,6.5-12,10.7-16.9,24.8-19.2,40.3-1.3,8.3-.5,16.9.4,25.4,1.3,9.6,6.9,16.1,14,21.6,2.7,2,6.2,3.6,9.4,4.4,4.9,1.1,8.9-1.6,10.5-6.2l-.4-.5.4-.2h0Z"/>
  <path class="cls-1" d="M64.5,163.6c3.4-5.1,6.7-10,10.2-15.1,4.4,4.4,4.5,6.3,1.3,11.1-7.1,10.2-14,20.5-21.2,30.8-2.2,3.3-4.7,6.3-7.4,9.2-9.8,10.9-31.9,10.9-39-5.1-4.2-9.4,3.3-22.7,12.7-22.3-.7.9-1.3,1.6-1.8,2.4-2.5,3.4-2.7,8.5-.4,11.4,1.8,2.5,6.2,3.1,10.3,1.3,5.4-2.4,9.4-6.3,12.9-10.7,3.8-4.7,7.4-9.6,11.1-14.5.4,0,.7.2,1.1.4-.4,2.2-.2,4.9-1.5,6.5-5.1,7.3-9.8,15.1-17.4,20.3-7.8,5.4-14.1,5.1-21.2-1.1-.5,4.7,3.1,9.1,8.7,10,8.9,1.5,16-2.2,21.6-8.7,9.1-10.3,11.6-22.9,10.3-36.1-1.6-14.7-5.8-28.7-15.4-40.4-4.9-6-10.9-10.2-18.9-10.9-2.9-.2-6-.4-7.6,3.1-1.6,3.3-1.1,6.5,1.3,9.4.5.7,1.3,1.3,2,2.2-4.4-1.5-7.6-6.3-7.4-10.9,0-3.6,3.3-7.3,7.4-8.2,9.4-2,18.1-.2,25.8,6.2,5.8,4.9,9.2,11.1,12.5,17.6,6.2,12,10.7,24.5,9.8,38.3,0,1.1,0,2.2-.2,3.3.2,0,.4.2.5.4v.2h0Z"/>
  <path class="cls-1" d="M209.3,172.6c0-.7-.2-1.6-.5-2.4-.9-2.7-.4-4.2,2.4-5.6,3.1-1.6,6-4,8.9-6.2,1.3-1.1,2.4-2.5,3.3-3.8,3.8-6.2,2.5-8.3-4.5-8.7-2.4,0-4.7-.4-6.9-1.5h10.7c2.2,0,3.1-.4,3.6-2.7,3.4-15.2,11.8-26.8,26.3-33.4,10.2-4.4,19.8-3.4,29.4,3.6-4.2,4.5-8.2,9.1-12.2,13.4.5-4.9-.7-7.4-5.6-8.2-3.8-.5-8-.5-11.6.7-10.7,3.6-18,11.1-21.4,21.9-1.1,3.4-.4,4.4,3.3,4.4,9.4,0,19-.2,28.5-.4,3.8,0,4.7.7,3.4,4.2-1.3,3.6-2.9,7.3-4.4,11.1-.7-.7-1.1-.7-1.1-.9,0-7.8,0-8.2-7.8-9.1-6.9-.9-13.8-1.3-20.5-1.8l-.9.9c1.6,3.8,2.9,8,5.3,11.4,4.7,7.3,11.1,12.3,19.6,14.9,2.9.9,5.6,1.3,7.1-2.7,5.8,5.1,11.1,9.8,17,15.1-12,2.5-23,.7-33.6-4.4-10.9-5.3-17.4-14-20.7-26.3-1.6,3.3-2.9,5.8-4.5,8.3-2.2,3.6-4.5,7.3-8.7,8.7-1.1.4-2.5-.4-3.8-.7h0v.2h-.1Z"/>
  <path class="cls-1" d="M229.1,202.4c2.5.7,4.2,1.1,5.8,1.8,20,8.5,39.4,7.3,58-3.3,10.3-5.8,18.5-15.4,23.4-27-6.3-2.9-9.8-13.2-8.3-25.9,2.5,7.1,3.4,14.9,11.8,17.4.9-2.4,1.6-4.9,2.5-7.3.5,0,.9,0,1.1.2,12,6.5,12.9,8,7.1,20.5-10.9,23.8-29.2,37.7-55.7,40.4-13.4,1.5-25.6-1.6-37.2-8-3.4-1.8-6.9-4-8.7-8.9h.2,0Z"/>
  <path class="cls-1" d="M120.4,112.4c-4.7,7.6-8,15.8-9.6,24.5-1.5,7.8-2.2,15.6.7,23.2.9,2.4,2.9,4.4,4.2,6.2-2.7,3.8-5.6,8.3-8.7,12.7-8,11.1-18.5,18.5-31.6,22.1-.4,0-.5,0-1.5-.2,2.5-1.3,4.5-2.4,6.7-3.4,7.8-4.4,12.2-10.9,13.2-19.8.5-4-1.1-7.1-3.4-10-2.2-2.5-5.1-4.7-6.9-7.4-3.4-5.1-6.5-10.5-10-16.1-2.4,3.3-4.9,6.9-7.6,10.7-1.5-4.2-1.1-7.1,1.6-10.2,3.4-3.8,6.2-8.3,9.2-12.5.5-.7.9-1.6,1.8-2.2,4.2,13.6,11.8,24.5,21.9,34.1,0-7.6.2-14.9,0-22.1,0-3.8-2.7-2.5-5.8-1.1,6.2-12.3,15.4-20.7,25.8-28.1l-.2-.4h.2Z"/>
  <path class="cls-1" d="M165.4,152.9c-.7-10-1.3-19.8-2-29.7,3.6-.9,7.4-2,11.2-2.9-.5,10.5-1.3,21-1.5,31.7,0,10.7.9,21.2,6,31.2-3.6-1.5-9.4-6.5-14.3-13.1-3.8-5.3-7.4-10.5-10.7-16-3.4-5.4-6.5-11.2-9.8-16.9-.4,0-.7,0-.9.2.4,7.4.9,14.7,1.3,22.1.2,3.4.7,7.1.7,10.5s-.7,2.2-1.6,2.7c-3.6,2.2-7.3,4.2-11.1,6.3.5-3.3,1.1-6.9,1.6-10.5,2.4-13.8,3.4-27.4,0-41.2,0-.7.5-2,1.3-2.5,2.4-1.6,4.9-2.9,7.3-4.5,2-1.3,2.7-.9,3.8,1.3,4,8.2,8,16.5,12.3,24.5,1.5,2.7,3.8,5.1,5.6,7.4.2,0,.5-.4.7-.4v-.4.2h0Z"/>
  <path class="cls-1" d="M285.6,185.3c-8-3.3-11.8-11.2-19.2-15.4,3.8-4.9,4-10.3,3.8-15.8v-12.9c0-3.8,0-7.4-3.8-10,4.2-3.3,8.2-6.2,12.2-9.2.5-.4,1.3-.7,1.8-.5,7.4,1.1,14.9,2.9,20,8.9,4.5,5.4,4.9,7.4-.2,13.2-2.4,2.7-5.4,4.7-8.3,7.3,7.1,9.2,7.1,22.1,14.9,31.6-1.5-1.1-3.3-1.8-4.4-3.3-3.4-4.2-6.5-8.3-9.8-12.5-3.1-3.8-6-7.6-9.2-11.2-1.3-1.3-3.1-2-5.1-3.3-.9,12.3,2.5,22.9,7.3,33.2h.2-.2,0ZM278,145.8c6,.5,10.3-.9,13.8-4.5,2.9-2.9,2.5-6-.4-8.9-2.7-2.5-5.8-4.2-9.6-4.4-1.8,0-2.7.4-2.9,2.4-.2,5.1-.5,10-.9,15.4h0Z"/>
  <path class="cls-1" d="M361.4,130c1.8-3.4,3.6-7.1,5.6-10.5.4-.5,1.8-.5,2.7-.4,4.5.9,9.1,1.8,13.4,2.7-.7,4.7-2,10.2-2.2,15.6-.2,7.4.5,14.9.9,22.3v.7c4.4,6.5-1.6,10.3-3.4,15.1h-1.1c-2.4-4.4-5.3-2-8.2-.9-2.7.9-5.4,1.6-8,2.7-4.4,2-7.3,0-10.2-2.9-10.9-11.6-12.7-23.6-6.2-38.4,2.4-5.3,5.1-10.2,10-12.9-1.6,5.3-3.8,10.7-4.7,16.1-1.8,11.8.5,22.5,10.3,30.7,5.1,4.2,10.5,2.5,10.9-4,.5-9.4,0-19-.2-28.5,0-2.2-.7-4.5-1.1-6.7-.5-3.4-2-4.2-5.1-2.4-1.1.5-2,1.5-2.9,2.2-.4,0-.5-.4-.9-.5h.4Z"/>
  <path class="cls-1" d="M303.2,99c-6.3-2.5-12.3-5.6-18.5-7.3-13.6-3.6-27-2.2-39.9,3.1-12,4.7-21.6,12.5-28.5,23.6-.4.7-1.5,1.5-2.4,1.5h-12.2c7.4-17.2,28.7-37.9,58-39.4,16.9-.9,39.9,8.7,43.3,18.5h.2Z"/>
  <path class="cls-1" d="M228,130.4c-7.4-.4-14.7-1.5-21.9-.7-9.8.7-17.4,8.5-18.9,17.8-1.1,6.3,2,11.2,6.7,14.7,4.5,3.3,6,8,7.8,12.7-8.5,1.1-18.3-5.1-22.3-14-4.5-10-1.6-17.6,11.8-29.7-3.3.7-6,1.3-8.9,2-2-5.1-3.8-10-6-15.2,18.9,2.5,37.2,5.3,55.3,1.5-1.1,3.6-2.4,7.6-3.6,11.2v-.2h0Z"/>
  <path class="cls-1" d="M320.5,128.6c-.5.7-.7,2-1.5,2.2-3.4.9-4.5,2.2-3.1,5.4,1.1,2.5,2.9,5.1,4.9,6.7,4.4,3.4,9.1,6.3,13.4,9.8,5.1,4.2,7.8,9.8,6,16.5-1.1,3.8-3.3,6.5-7.8,8,.9-2.5,1.8-4.7,2.4-6.9.4-1.3.7-2.9,0-3.8-1.5-2-3.1-4-5.1-5.4-3.3-2.4-6.9-4.5-10.3-6.5-5.1-2.9-8.5-7.3-10.3-12.5-2.9-7.8-1.8-14.5,8.7-18.3.9,1.6,1.8,3.1,2.5,4.7h0l.2.2h0Z"/>
  <path class="cls-1" d="M168.1,82.1c-7.1,2-14.5,3.6-21.4,6.2-12,4.4-22.7,11.2-31.2,20.7-9.1,10.2-17.6,21-26.3,31.6-.7.9-1.5,2-2.2,2.9-3.8-3.4-4.2-5.6-1.5-9.4,12.9-18,27.6-33.7,47.5-43.7,9.2-4.5,19.2-6.7,29.2-8.3,2-.4,4,0,6,0v.4l-.2-.2v-.2h0Z"/>
  <path class="cls-1" d="M209.3,172.5c1.6,4.7,3.4,9.2,5.1,14,.5,1.3,1.1,2.4,1.8,3.6-.2.2-.4.4-.7.5-1.5-1.3-3.3-2.5-4.5-4-11.8-14.7-16.1-31.6-14.1-50.2,0-1.3,1.8-3.1,3.1-3.4,3.1-1.1,6.5-1.6,10.2-2.5-1.1,5.4-2.2,10.2-3.1,14.9-1.8,8.9-.9,17.6,1.6,26.1,0,.5.5.9.9,1.3h0l-.2-.2h-.1Z"/>
  <path class="cls-1" d="M129.7,120.2c-.2,17.2-2.9,33.9,1.3,50.8-4,1.8-8.3,3.8-13.1,5.8,3.6-9.4,4.4-19,4-28.8-.2-6.5-1.3-13.1-1.8-19.6,0-.7.5-2,1.1-2.4,2.5-2,5.3-3.8,8.5-6v.2h0Z"/>
  <path class="cls-1" d="M320.5,128.8c-1.8-4.5-3.6-9.1-5.6-13.6-1.6-3.4-3.6-6.9-5.8-10.9,4.4,0,6.9,1.8,8.9,4.4,10.3,12.5,16.1,26.7,17.4,43.3-3.8-2.7-7.4-4.9-10.7-7.6-.9-.7-.9-2.4-1.3-3.6-1.1-4-2-8.2-3.1-12.2h0l.2.2h0Z"/>
  <path class="cls-1" d="M399.7,110.3c5.1,5.6,10.5,11.1,15.4,16.9,7.3,9.1,14.3,18.3,21,27.7,1.3,1.6.9,4.5,1.3,6.7h-.9c-12.3-17-24.8-34.1-37.2-51,0,0,.2-.4.4-.5v.2h0Z"/>
  <path class="cls-1" d="M329.5,123.3c4.9,1.6,9.2,3.3,14.3,4.9-1.5,4.9-2.9,10.5-4.5,16.3-4.9-6.3-7.8-13.2-9.8-21.2Z"/>
</svg>