<?xml version="1.0" encoding="UTF-8"?>
<svg id="Calque_1" data-name="Calque 1" xmlns="http://www.w3.org/2000/svg" version="1.1" viewBox="0 0 500 300">
  <defs>
    <style>
      .cls-1 {
        fill: #75683b;
        stroke-width: 0px;
      }
    </style>
  </defs>
  <path class="cls-1" d="M17.4,148.8c3-4.1,4.3-8.4,3.7-13.8-.6-5.7,1-11.5,1.3-17.3.5-8,.7-16.1.8-24.1,0-.8-1-1.8-1.9-2.2-1.1-.5-2.5-.6-3.8-.8v-.8c1.3-.6,2.5-1.2,3.9-1.7,2.8-1.1,5.6-2,8.3-3.1,3.4-1.3,5.9-.3,7.6,2.9v67.3c1.2-1.3,2-2.1,2.7-2.9,1.1-1.1,2.2-2.2,3.3-3.4-1.4,3.8-2.5,7.7-4.3,11.2-2.5,5.1-1.4,9.2,3.7,12,.4.2.7.5,1.1.6,4.6,1.5,4.6,1.4,6-3.2,3.3-10.7,3-21.8,2.8-32.8,0-4,1.2-8.3-2.1-11.8-.5-.5-.4-2.2,0-3,3.5-7.7,2.1-15.8,2-23.7,0-1.8-2-3.5-3.1-5.2-1.1-1.9-2-3.8-3-5.7,6.9-.9,13.8-1.8,20.8-2.5,1.4-.1,3,.7,4.4,1,.2.5.4,1,.7,1.6-2,1.3-4.1,2.6-6.1,3.9,0,.5.2,1,.2,1.5,4,3,8,6.1,12,9.1l1.2-.8c-1.1-5.3-2.3-10.6-3.4-15.9-.2-1.2-.3-2.4-.5-3.7h0c1.6-1.5,3.1-3.1,4.8-4.5,1.2-1.1,1.1-2,.2-3.2-1-1.4-1.7-2.9-2.5-4.4.5.1,1.2,0,1.6.4,2.8,2.4,5.6,4.8,8.2,7.5,2.5,2.6,5.4,4.2,9,4.9,1.4.3,2.7.9,4.4,1.4-1.5,2.1-2.6,3.9-4,5.5-2.2,2.6-3,5.4-2.9,8.7.2,6.5.3,13.1,0,19.7-.2,3.7,1,6.5,3.6,8.9.7,1,1.4,1.9,2.1,2.9,0,.7-.2,1.3-.2,2h-.7c-1.1-.6-2.3-1.3-3.9-2.2-1.5,7.6-1.3,15-.5,22.1.5,4.2-.3,7.1-2.8,10-3.2,3.8-6.4,7.6-9.7,11.3-2,2.3-2.8,4.9-2.2,7.9.2,1.3.4,2.7.5,4.1.3,5.1-.9,6.3-6.3,6.4-3.9-1.1-7.9-2.1-11.8-3.5-2.9-1-5.7-2.4-8.6-3.7-4.5-3.6-4.5-3.5-8.8,0-1.8,1.4-4,3.5-5.8,3.2-5.5-.7-11-2.1-16.3-3.9-2.1-.7-3.6-.8-5.5,0-5.2,2.3-10.6,4.3-15.9,6.4v-1.7c9.6-6.8,15.2-15.9,14.2-27.9-.3-3.9-.3-7.5,1.2-11h.3ZM74.5,135.5c.2-1.2.4-2.5.6-3.9-2,0-3.8-.1-5.6,0-.7,0-1.7.8-1.8,1.2-.4,4.1-.7,8.3-1,12.9,1.9-.5,3.3-.9,4.7-1.3.6-.6,1.6-1,1.7-1.7.6-2.4.9-4.8,1.4-7.2ZM77.1,115.8v-2.5c.9-2.1,2-4.7-.2-6.2-3-2.2-6.6-3.7-10.1-5.6v25.5c1.6-1.1,2.8-2,4-2.8.2,0,.4,0,.5-.1.9-.6,1.8-1.2,2.7-1.8.4-.4.8-.7,1.2-1.1.2-.3.4-.6.6-.9v-1.1c.2-.3.4-.5.6-.8v-1.2c.2-.4.4-.9.5-1.3h.2ZM80.2,149.5l.5-4.4c-.3-.2-.6-.4-1-.6-2.8,2-5.7,3.8-8.4,5.9-1.7,1.4-4.1,3.1-4.3,4.9-.6,5.4-.5,10.9-.2,16.4,0,1.1,1.5,3.7,3.9,1.7,5.2-7.1,9.1-14.8,9.4-23.9h0ZM22.8,150.9c-4.1,4.9-2.1,9.5,0,14.9v-14.9h0Z"/>
  <path class="cls-1" d="M204.9,116.4v-.5c2.5-3,.2-5.9.3-8.5h-7.3c.2-.8.5-1.6.7-2.4h0c2.4-2.3,4.7-4.7,7.1-7h0c1.3-2.4,2.5-4.7,3.8-7.1h0c3.8-2.5,7.6-5,11-7.3,1.6,1.5,2.6,3.2,3.6,3.2,3.5-.1,7.6.6,9.7-3.6.2-.4.4-.8.5-1.3,1.4-2,.7-3.8-1.9-4.8-1.5-.5-3-.8-4.5-1.2.2-.5.4-1.1.6-1.6,3.8-.5,7.4,0,10.7,1.9h0c1.2,2.6,2.3,5.2,3.5,7.8,1,2.2.5,3.7-1.9,4.3-2.5.7-3.6,2.5-3.5,5,.1,2.6.7,5.2.8,7.8,0,1.2,1.4,3.1-1.2,3.4h0c-.9-1.1-1.8-2.2-2.6-3.3l-.5-.5c-.8-.9-1.6-1.8-1.8-2.1-5.4,1.6-10.1,3.1-15.2,4.6,2,3.4,3.7,6.3,5.5,9.4-2.2.4-4,.8-6,1.2.4,4.7,1.9,8.3,6.9,9.9,4.3,1.3,8.5,2.3,13,1.3.8-.2,2.5.6,2.8,1.4,1.3,2.9,2.2,5.9,3.1,9,.2.6-.5,1.5-.8,2.3-.4-.5-.8-1-1.2-1.4-1.1-2.2-3-3-5.4-2.9-4.4.3-8.8.5-13.2.8-.4,0-.8-.2-1.3-.3-.9,0-1.7.1-2.6.2,0,.8.2,1.5.3,2.3.1,1.2.5,2.5.4,3.7-.3,3.7-1.7,7.6-1.1,11.2.7,4,.5,7.6,0,11.4-.1.9,0,1.9,0,2.8,0,2.7.1,5.4.3,8.1,0,1.9.4,3.9.4,5.8s.3,3-.2,4.2c-2.6,5.8-1.6,11.3,1.7,16.4.6.9,1.8,1.3,2.7,1.9h0c-.3.6-.5,1.4-.9,1.9-3.3,3.3-4.2,7.3-3.6,11.9.7,5.1,2.2,9.7,5.7,13.6v2.7c-6.4-5-12.1-9.4-12.7-18.2-.4-5.7-.9-11.3,0-17,.4-2.3-.9-3.3-3.1-3.3h-3.4c1.2-1.6,2.5-2.5,2.8-3.6.7-3.1,1.8-6.4,1.4-9.5-.6-4.5-1.2-8.8.3-13.1,1.8-5.2-.3-10-.8-15-.6-5.5-1-11-1.6-17.2-2.1-.1-4.8-.3-7.6-.4,1.5-2.4,3.1-4.7,4.6-7.1.6-3.8,1.2-7.7,1.7-11.5v.3Z"/>
  <path class="cls-1" d="M253.9,211.8v-1.8c2.5-1.7,5.1-3.4,7.6-5.1,2.1-1.6,4.4-3,6.1-4.9,6.4-6.9,10.7-15,12.7-24.1.6-2.6-.6-5.4-.6-8.2s.4-3.8.6-5.7c.2-1.4.9-2.9.7-4.3-.6-5.6-1.7-11.2-2.3-16.8-.2-2.2.3-4.5.5-6.8.3-1.4.5-2.8.9-5.1-3.6,2.4-6.4,4.2-9.1,6.2-.6.4-.8,1.4-1,2.2-.7,2.3-1.3,4.7-2.1,6.9-1.8,4.8-2.8,9.5-.8,14.5,1.5,3.8,2.9,7.7,4.5,11.5.8,1.9.3,3.2-1.3,4.4-3.1,2.4-6.1,4.9-9.2,7.3-.5.4-1.5.3-2.2.4h0c-1.7-2.7-3.4-5.5-5.2-8.2,3.9-8.7,3.9-18,4-27.3,0-1.4.2-2.9-.4-4.1-2.1-4.1-.4-7.9,0-12.1,1-9,2.2-18.3-1.3-27.2-1.1-2.8-.3-4,2.1-5.5,4.6-3,8.8-6.8,13.5-9.8,1.8-1.1,4.4-.8,6.6-1.2-.8,1.3-1.4,2.9-2.5,3.7-7.1,5.3-9,12.4-7.9,20.8.5,3.7.2,7.5.3,11.3,0,.6.4,1.6.9,1.7,3.3,1.2,6.5,2.5,9.9,0,2.2-1.6,4.9-2.6,7.4-3.5.7-.3,2.4.2,2.8.9,3.3,5.4,5,11.2,2.8,17.5-.5,1.4-1.2,3.3-.7,4.3,2.9,4.8,2,10.1,2.5,15.2.2,1.8-.4,3.7-1.1,5.4-3.2,8.4-7.4,16.4-7.5,25.7,0,1.6-1.7,3.6-3.1,4.7-4.9,3.6-9.8,7-15,10.1-4.3,2.6-9,4.6-13.5,6.9h.4Z"/>
  <path class="cls-1" d="M357.6,161.6c3.7-10.8,1.8-20.5-5.6-29.3,4.6-3.9,8.5-8.2,14.9-9,2.9-.4,5.7-2.3,8.4-3.7,2.2-1.2,4.3-1.5,6.6-.2,1.2.7,2.6,1,3.8,1.6,3.8,1.9,7.7,3.4,12.1,1.8-.4,1.2-.7,2.3-1.2,3.5-.9,2-2.7,3.9-2.8,6-.3,7.5-.1,15,0,22.5.1,5.4.8,10.8.7,16.1,0,2.7.4,4,3.1,3.6,1.4-.2,2.8-1.3,4.2-1.9h0l2.6-2.6h1.8c-.8,2.3-1.3,4.9-2.3,7.1-2.2,4.7-5.3,6.1-10.3,4.9-2.3-.6-4.5-1.7-6.9-2.4-1.1-.3-2.6-.7-3.6-.3-5,1.9-10.1,3.8-12.7,9.4-5.2-2.3-9.2-5.9-10.5-11.2-1.3-5.2-1.4-10.6-2-15.9h-.3ZM376.8,173.2c3.8-2.6,5.4-8,3.8-12.9v-24.7c1-2.1,1.3-4-1.3-5.1-.1,0-.3-.1-.5,0-1-.6-2-1.5-3.1-1.9-3.9-1.2-4.3-1-4.9,3.1s-1,8.2-1.2,12.3c-.4,7.2-.8,14.3-.7,21.5,0,2.9,1.2,5.9,2,8.8,0,.3,1.2.7,1.7.6,1.5-.4,2.8-1,4.3-1.6h0Z"/>
  <path class="cls-1" d="M119.7,179.9c-.4-.4-.8-.8-1.2-1.2-.7-1.5-1.3-3-2-4.4-2.8-5.7-3.4-12-3.4-18.2s.2-14.4.9-21.6c.2-1.9,2.2-4,3.8-5.4,4.1-3.3,8.5-6.2,12.6-9.5,1.6-1.3,2.8-1.5,4.3,0,4.4,4.3,9.7,6.6,16,6.4-.1,1.2,0,2.5-.4,3.7-1.6,6.1-2.5,12.1-2.1,18.5.4,5.1-.2,10.3,0,15.5,0,4.1.7,8.1,3.9,11.3.9.9,1.5,2.1,2.7,3.9-9.5-1.7-16.8,1.6-24.3,4.5-1.4.5-2.9.8-4.4,1.2h0c-2.1-1.5-4.3-3-6.4-4.5v-.2ZM129.2,168.4c1.4.9,2.7,2,4.2,2.7,1.5.8,2.9.4,3-1.5.2-4.9.2-9.8.3-14.7v-.3c-2.6-3.2-1.2-6.5.1-9.5,2.6-5.9.9-10.6-3.4-14.9-.8-1.1-1.6-2.1-2.7-3.6-1.8,3.6-3.4,6.6-4.8,9.8-.4,1-.6,2.2-.4,3.3,1.2,7.6,2.5,15.2.9,22.9-.5,2.4.5,4.6,3,5.7h-.2Z"/>
  <path class="cls-1" d="M190.9,167.5c.2.2.4.3.5.5-.6.7-1.3,1.5-1.7,1.9.2,2.2.7,4.3.6,6.3,0,.6-1.6,1.2-2.4,1.8h0c0-.6,0-1.4-.3-1.9-1-1.3-1.9-2.8-3.3-3.6-.5-.3-2.2,1-3.1,1.9-3.1,2.9-5.9,6-9,8.9-3.7,3.5-8.1,4.9-13.1,4.3.5-.9.8-2.3,1.5-2.7,3.7-2,5-4.8,4.6-9-.3-2.5.8-5.1,1.2-7.7.4-2.8.8-5.6,1-8.5.3-3.2.6-6.4.6-9.7s-.5-6-.5-9,.4-3.7.6-5.5c.3-1.9,1.2-3.9.8-5.6-2.9-13-1.2-25.6,3.5-37.9.5-1.2,1.7-2.3,2.9-2.9,3.4-1.7,6.9-3.1,10.5-4.4,1.3-.5,3-.1,4.5-.2,2,1.2,3.9,2.4,5.9,3.6,0,.3,0,.7-.1,1-6.2.2-9.7,4.3-12.5,8.7-3.1,4.8-5.6,10.2-2.5,16.3.6,1.1.3,2.7,0,4-.4,2.9-1.2,5.8-1.4,8.7-.1,1.6.2,3.7,1.2,4.9,1.6,1.9,1.8,3.7,1.2,5.8-.5,1.7-.5,3.7-1.3,5.2-2.6,4.6-1.6,8.7.1,13.3,1.9,5.2,5.1,8.8,10,11.2v.3Z"/>
  <path class="cls-1" d="M309.3,182c0-3.7.2-7.3.1-11,0-2.2-.5-4.3-.9-6.4-.4-1.9-1.1-3.8-1.8-5.7-2-5.3,1.6-9.8,2.1-14.7.2-1.4.5-2.7.9-4,.8-3,1.2-5.8-3.4-6.2,4.7-3.3,9.5-5.8,13.1-9.5s5.9-8.6,9-13.3c.8,1.2,1.6,2.7,2.7,3.9,2.8,3.5,5.8,7,8.7,10.4.6.7,1.6,1.3,1.9,2.1.8,2.2,1.8,4.3,4,5.5-1.8,1.8-3.7,3.5-5.3,5.4-5.1,5.9-10.4,11.6-14.9,18-4.8,6.7-4.3,6.9.8,13.6,1.6,2,2.9,2.5,4.8.6,3-2.3,6.2-4.3,8.9-6.9,1.2-1.2,1.4-3.6,1.9-5.5.3-1.3.5-2.5,2.1-1,.2,1.1.4,2.3.7,3.4q1.4,5.9,7.4,6.3h0c-.5,3.6-3.5,3.2-5.9,3.6-8.9,1.7-16.9,4.8-20.8,14.1-.1.3-.6.5-1,.9-.9-.9-1.7-1.6-2.6-2.4h0c-1.5-1.7-3.1-3.4-4.6-5.1-.2-.2-.3-.4-.5-.5-.7-.8-1.4-1.9-2.2-2.1-.5-.1-1.5,1.2-2.1,2-1,1.5-1.9,3.2-2.9,4.7l-.2-.2ZM327.2,143.9c.6-1.1,1.2-2.2,1.8-3.3h.2v-.3c2.6-4.1,1.5-11-2.6-15.8-4.3,4-7.9,21.4-5.3,25.8,3.2-1.1,4.8-3.5,6-6.5h-.1Z"/>
  <path class="cls-1" d="M466.6,128.5c.2-.1.4-.3.5-.4,1.1-.9,2.2-1.8,3.3-2.8.2-.1.3-.2.5-.4.6-.5,1.2-1,1.9-1.6.9-.7,1.7-1.4,2.6-2.2.6-1.1,1.6-2.2,1.9-3.4.8-3.2,1.3-6.5,2-9.8h0c2.1-1.3,4.3-2.6,6.4-3.9h0c1.2-.4,2.4-.8,4.2-1.4-.4,1.7-.8,2.7-.9,3.7-.4,4.3-.8,8.5-1,12.8-.1,2.2,1.2,3.5,3.1,4.7,2.5,1.6,4.5,3.8,7.2,6.2-1.8.6-2.5.9-3.3,1.1-6.3,2-8.8,5.7-8.5,12.2.1,2.1,0,4.2,0,6.3-.2,3.2-.5,6.2,3.4,7.7-.6.8-.9,1.3-1.3,1.8-3,2.9-3,3.6-.2,6.9.5.6,1.1,1.5,1.8,1.7,1,.3,2.7.4,3.1-.2,1.2-1.5,1.8-3.4,2.7-5.2.2.1.3.1.5,0,1.2,2.5.9,4.8-.4,7.2-.9,1.5-1.6,3.2-2.1,4.9-1,3.1-3.1,4.8-6.3,5.4-2-1.9-3.8-4.1-6.1-5.5-2.5-1.5-5.5-2.4-8.4-3.2-1.8-.5-2.4-1.1-1.3-2.7.3-.4.7-.8,1.1-1.2,5.4-5.6,6-4.6.7-11.8-1.6-2.1-1.7-3.5,0-5.7,1.1-1.4,1.4-3.5,2.1-5.3v-6.4c-.2-.5-.4-1-.6-1.5-.6-.8-1.2-1.6-1.8-2.4-1.7-3.2-4.8-3.6-8.4-3.8.9-1.1,1.4-1.8,2-2.4l-.4.6Z"/>
  <path class="cls-1" d="M442.9,172.2c.2.3.3.6.5.8-2.3,5.3-7.3,6.5-12,8.3-4.6-3.2-9-6.5-13.7-9.6-1.5-1-4.2-6.5-3.4-8.1.1-.2.9-.1,1.3-.2.7.8,1.3,1.9,2.2,2.3.4.2,1.4-.7,2.2-1v-22.9c0-.5.1-1,.1-1.6-.2-4.5-2.1-5.5-6-3.5-1.6.8-3.2,1.5-5.2,2.5.2-1,.3-1.4.4-1.8.6-.6,1.3-1.1,1.9-1.7,1.3-1.1,2.6-2.2,3.9-3.4.4-.4.8-.8,1.2-1.2,1.2-2.8,2.5-5.6,3.7-8.4.2-.5.4-1,.6-1.4,1,.3,2.1.6,3.1.9h0c6.7,4.4,12.7,4.1,18.7-.6h0c1.9-.4,3.8-.9,5.7-1.3h1.9c2.1-.4,4.3-.9,6.4-1.3h0c-2,2.4-4.4,4.5-3.7,8.2.6,3.2-.9,5.5-3.5,7.2-1.6,1.1-3.1,2.6-4.7,3.8-.8.5-1.8.7-2.7,1.1.1-.2.1-.3,0-.5.4-1.1.8-2.2,1.2-3.2.3,0,.3-.2.3-.5-.2-1.1,0-2.6-.7-3.3-.5-.5-2.2-.5-3.1,0-6.1,2.7-9.8,7.2-10.3,14-.2,3.3-.5,6.6-.3,9.8,0,1.5,1.2,2.9,1.8,4.4.2,1.5.6,3,.5,4.5-.2,5,2,8.2,6.6,8.8,1.2.2,2.5-.6,3.7-.9.4,0,.9-.1,1.3-.2h.1Z"/>
  <path class="cls-1" d="M78.4,69.4c-.2-.4-.4-.9-.7-1.3h.6v1.3h0Z"/>
</svg>