<?xml version="1.0" encoding="UTF-8"?>
<svg id="Calque_1" data-name="Calque 1" xmlns="http://www.w3.org/2000/svg" version="1.1" viewBox="0 0 500 400">
  <defs>
    <style>
      .cls-1 {
        fill: #d8d8d8;
        stroke-width: 0px;
      }
    </style>
  </defs>
  <path class="cls-1" d="M489.3,76.7v1.2c0,19.3.3,38.5,0,57.8-.5,24.4-11.6,42.8-33.5,53.8-34.3,17.2-76.1-3.3-84.1-40.8-6.7-31.5,12.7-62.5,44-70.2,4.7-1.2,9.4-1.7,14.3-1.7,19.4,0,38.8,0,58.3,0,.3,0,.7,0,1.1,0Z"/>
  <path class="cls-1" d="M140,276.2h-1.1c-7.9,0-15.8,0-23.7,0-.8,0-1.1-.2-1.4-.9-3.6-9-7.3-18-11-27-.3-.8-.7-1.1-1.7-1.1-17.6,0-35.2,0-52.7,0-.9,0-1.3.3-1.6,1.1-3.5,9-7.1,18-10.7,27-.3.7-.6,1-1.4,1-8,0-16,0-24.2,0,0-.3.2-.6.3-.8,14.3-33,28.7-65.9,43-98.9,3.8-8.7,7.6-17.5,11.4-26.3.3-.7.7-.9,1.5-.9,5.8,0,11.7,0,17.5,0,.8,0,1.2.3,1.5,1,10.7,24.9,21.4,49.7,32.1,74.6,7.2,16.7,14.4,33.4,21.6,50.1.1.3.3.7.5,1.2ZM55.1,227.7h39.4c-6.5-17.2-13-34.2-19.5-51.6-6.7,17.3-13.3,34.4-19.9,51.6Z"/>
  <path class="cls-1" d="M203.3,190.2h20.6v12.2c.4-.3.7-.5.8-.7,5.6-8.2,13.7-12.3,23.3-13.6,12.8-1.8,24.3,1.4,34,10.2,7.3,6.7,11.5,15.1,13.2,24.8,1.9,11,1,21.7-3.9,31.9-6.2,12.9-16.3,20.9-30.6,23.2-9.7,1.6-19,.1-27.5-5.4-3-2-5.5-4.4-7.6-7.4-.1-.2-.3-.4-.4-.5,0,0-.1,0-.3-.2v58.7h-21.5v-133.2ZM274.1,233.1c0-5.7-1.3-10.9-3.9-15.8-7.7-14-24.6-14.6-33.9-8.2-15.3,10.5-16.4,34.6-2,46.3,10.3,8.3,25.2,6.9,33.4-3.2,4.6-5.6,6.3-12.3,6.5-19.1Z"/>
  <path class="cls-1" d="M381.2,276.1h-20v-11.1c-.4.2-.6.3-.7.5-4.3,6.8-10.8,10.4-18.4,11.9-9.6,1.9-18.9.9-27.6-3.9-6.3-3.5-10.8-8.7-12.3-16-1-4.8-.9-9.6.7-14.3,2-6,6.4-9.8,11.6-12.8,5.6-3.2,11.7-4.9,17.9-6,8.7-1.6,17.6-1.9,26.5-2,.6,0,1.2,0,1.7,0,1.2-5-1.3-11.2-5.7-14.1-5.1-3.4-10.9-4.3-16.8-3.7-7.9.8-14.6,4.3-20.6,9.7-3.7-4.3-7.4-8.6-11.1-13,3.4-3.2,7.2-5.8,11.4-7.8,9.6-4.7,19.8-6.4,30.4-5.6,5,.4,9.8,1.3,14.3,3.4,9.5,4.3,15.4,11.6,17.4,21.8.7,3.6,1.2,7.2,1.2,10.9.1,17.1,0,34.1,0,51.2s0,.7,0,1.1ZM360.7,236.9c-7.1,0-14.1,0-21,1.1-4.5.8-8.8,2.2-12.7,4.9-5.1,3.5-6.1,13.4,1.6,17.1.8.4,1.6.7,2.5,1,4,1.2,8.1,1.2,12.2.6,5.9-.8,10.9-3.4,14.1-8.6,3.1-4.9,3.5-10.4,3.3-16.1Z"/>
  <path class="cls-1" d="M196.7,139.8c-.5,6.1-1,12.1-1.4,17.9-2.9-.3-5.7-.8-8.6-.9-4.9-.1-8.9,1.7-11.4,6.1-1,1.8-1.7,3.9-2.1,6-.5,2.3-.6,4.8-.7,7.1,0,4.6,0,9.3,0,14.1h19.9v17.2h-19.8v68.8h-21.6v-68.8h-16.3v-17.2h16.3c0-.5,0-.9,0-1.3,0-5.7,0-11.4.3-17,.3-5.2,1.3-10.4,3.4-15.2,4.3-9.8,11.8-15.5,22.3-17.4,6.4-1.1,12.9-1.2,19.3.4.1,0,.2,0,.4.2Z"/>
</svg>