<?xml version="1.0" encoding="UTF-8"?>
<svg id="Calque_1" data-name="Calque 1" xmlns="http://www.w3.org/2000/svg" version="1.1" viewBox="0 0 500 400">
  <defs>
    <style>
      .cls-1 {
        fill: #fff;
      }

      .cls-1, .cls-2 {
        stroke-width: 0px;
      }

      .cls-2 {
        fill: #d8d8d8;
      }
    </style>
  </defs>
  <path class="cls-2" d="M146.2,324.9c-.5-.2-.9-.6-1.4-.7-22.6-2.7-41.6-12.5-56.7-29.6-15.8-17.9-23.2-39-22.2-62.9.9-21.4,8.8-40,23.2-55.8,1.6-1.8,3.5-3.4,5.2-5,0-.2,0-.4-.2-.5h-1.8c-8.5,0-17-.3-25.5.1-5.6.3-10.5-5.7-10.9-10-.8-9.3,4.2-17.5,13-21.5,8.2-3.7,16.8-5.3,25.6-6.6,6.1-.9,12.1-1.7,18.2-2.6,1.8-.3,3.5-.8,5.3-1.4,2.1-.6,3.8-1.9,4-4.3.3-2.5-.2-4.9-2.4-6.2-1.9-1.1-4.1-2-6.3-2.4-3.6-.7-7.3-.5-10.8.9-3.7,1.5-5.9,4.2-6,8.4h-36.6c.4-4.8,1.8-9,4.1-13,5.1-8.8,13.1-14.1,22.6-16.9,17.5-5.2,35.1-4.8,52.6.3,5.3,1.5,10.1,4,14.2,7.9,4.6,4.3,6.8,9.6,6.8,15.9v28c5.2.8,10.3,1.6,15.5,2.4v-55.6h35.6v10.6c3.1-5.2,6.8-8.8,11.9-10.7,5.8-2.2,11.7-2.3,17.6-.5.6.2,1.3,1.1,1.3,1.7v22.4h-10.5c-3.5,0-6.9.7-9.9,2.5-4.7,2.7-7,7-7.1,12.3-.1,12.5,0,25,0,37.4s.5,1.4,1.1,1.9c10,9.6,17.5,20.8,22.3,33.8,3.9,10.5,5.7,21.3,5.4,32.5-.5,21.8-7.9,40.9-22.3,57.1-15.1,17.1-34.2,26.9-56.9,29.5-.8,0-1.7.4-2.5.6h-15.7.2ZM83.9,270.7l-.2-.3h0c0,.1,0,.3.2.4,0,.3.2.6.3.9,5,9.7,11.6,18.1,20,25,20.1,16.3,42.9,21.8,68.1,16.3,19.1-4.2,34.6-14.5,46.2-30.2,13.6-18.4,18.2-39.2,14.2-61.6-3.4-18.6-12.6-34.1-27.2-46.2-17.4-14.5-37.6-20.6-60.1-17.8-27.5,3.4-47.7,18-61.1,42.2-.3.5-.3,1.1-.4,1.6h-.2v.2s.2-.1.2-.2c.5-.3,1-.6,1.5-.9,10.8-7,22.5-9.1,34.9-5.9,26.4,6.9,39.6,36.3,27.5,60.8-9.6,19.4-32.1,28.6-52.5,21.4-4-1.4-7.6-3.8-11.4-5.7h0ZM75.5,235.8c0,18.9,15.1,33.8,34.2,33.9,18.3,0,33.5-15.3,33.5-33.7s-15.1-33.6-33.4-33.9c-18.7-.2-34.4,15.2-34.3,33.8h0ZM98.6,166.9c6.9-5.7,14.4-10,22.4-13.4.5-.2,1.1-.8,1.2-1.2.2-1.3,0-2.7,0-4.2-2.5.9-4.7,1.6-6.9,2.4-4.4,1.5-8.8,2.7-13,4.6-5.1,2.2-6.5,7.4-3.7,11.9h0Z"/>
  <path class="cls-2" d="M306.2,75.1v18.4h22.9v23.6h-22.9v53.2h-2c-6.9,0-13.8-.2-20.8-.2s-15.2-6.9-15.5-15.6c-.3-11.7-.2-23.4-.2-35.1v-2.3h-15.8v-23.6h15.9v-18.4h38.4Z"/>
  <path class="cls-2" d="M14.9,231.6c.2-.4.6-.7.7-1.2,2.3-10.6,11.2-17.8,22-18.2,6.8-.2,12.7,1.6,17.8,6.1.3.3.5.6.9,1-1.7,1.9-3.3,3.8-5.1,5.9-4.7-4.4-10.1-6.7-16.6-5.2-3.5.8-6.2,2.9-8.3,5.8-4.7,6.7-3.7,17,2.2,22.2,5.1,4.6,14.3,6.4,22.7-1.9,1.7,1.7,3.3,3.4,5.1,5.2-2.6,2.9-5.8,5.3-9.7,6.5-8.7,2.7-16.9,1.7-24-4.4-4.3-3.7-6.7-8.6-7.5-14.2,0-.3-.2-.5-.4-.8v-7.1l.2.3Z"/>
  <path class="cls-2" d="M485.3,220.6h-14.6v37.8h-8.1v-37.9h-14.4v-7.6h36.6c.2,0,.3-.1.5-.2v7.8h0Z"/>
  <path class="cls-2" d="M371.2,150.9v19.5h-25.6c-2,0-3.3-.7-4.4-2.2-5-6.4-8-13.7-9-21.7-1-8.3-.5-16.4,2.3-24.3,3.9-11.2,11.5-19.2,22.1-24,18.3-8.2,37.1-8.6,55.7-1.6,15.3,5.7,23.9,17.6,27.1,33.5,1.2,6.2,1.3,12.5.8,18.9-.1,1.6-.7,2-2.2,2h-66.8ZM370.2,131.4h32.5c.1-4.7-1.1-8.9-4.7-11.9-4.1-3.5-9.1-3.8-14.2-3.6-8.7.5-14.1,6.5-13.5,15.5h0Z"/>
  <path class="cls-2" d="M295.9,213v45.5h-6.2c-.6,0-1.1-.8-1.5-1.3-7.5-9.6-15-19.2-22.4-28.9-.4-.5-.8-1-1.5-1.8v31.9h-7.9v-45.4h6.6c.6,0,1.2.7,1.6,1.2,7.4,9.5,14.7,18.9,22,28.4.3.4.7.8,1.4,1.6v-31.2h7.9Z"/>
  <path class="cls-2" d="M412.8,258.4h-8v-45.3c.1,0,.2-.2.3-.2,7.8,0,15.7-.3,23.5.3,10.3.7,15.9,10.1,12.4,19.6-1.5,4.1-4.6,6.5-8.6,8-.4.1-.7.2-1.3.4,4,5.7,8,11.3,12.2,17.2h-8.9c-.5,0-1.1-.8-1.5-1.3-3.1-4.4-6.2-8.8-9.3-13.3-.7-1-1.3-1.3-2.5-1.3-2.7.1-5.4,0-8.3,0v15.8h0ZM412.8,235.4c4.5,0,8.7.1,12.9,0,4.7-.2,7.9-3.3,8.1-7.4.2-4.2-2.7-7.3-7.7-7.6-4.4-.3-8.8,0-13.3,0v15.1h0Z"/>
  <path class="cls-2" d="M367.6,251.3h25.8v7.1h-33.8v-45.3h33.5v7h-25.5v11.8h22.6v7.2h-22.5v12.2h-.1Z"/>
  <path class="cls-2" d="M343.6,246.2c1.7,1.7,3.3,3.3,5,5-7,9.3-23,11.3-33.3,2.9-9.9-8.2-10.9-24.7-2.4-34.3,9.2-10.3,27.2-9.7,35.4-.5-.3.4-.5.7-.8,1.1-1.4,1.6-2.7,3.1-4.2,4.8-4.3-3.9-9.1-6.3-15-5.4-3.7.5-6.7,2.4-9.1,5.2-5.1,6.1-4.8,16.7.7,22.3,6.5,6.6,14.7,6.2,23.7-1.1h0Z"/>
  <path class="cls-1" d="M83.9,201s-.2.1-.2.2v-.2s.2,0,.2.1h0Z"/>
  <path class="cls-1" d="M83.8,270.8s0-.2-.2-.3h0c0-.1,0,.1.2.2h0Z"/>
</svg>