<?xml version="1.0" encoding="UTF-8"?>
<svg id="Calque_1" data-name="Calque 1" xmlns="http://www.w3.org/2000/svg" version="1.1" viewBox="0 0 400 400">
  <defs>
    <style>
      .cls-1 {
        fill: #d8d8d8;
        stroke-width: 0px;
      }
    </style>
  </defs>
  <path class="cls-1" d="M184.3.9c10,0,20,0,29.9,0,.5.2.9.6,1.5.7,9.5,1.4,19.1,2.2,28.4,4.3,45.1,10.4,82.5,33.5,111.1,69.9,39.2,49.7,52.2,106,38.8,167.8-10.1,46.8-34.8,84.9-72.8,113.9-48.1,36.7-102.3,49-161.6,37.2-43-8.6-79.1-29.9-108.2-62.6-26.4-29.6-42.6-64.1-48.3-103.5-.6-4.3-1.4-8.6-2.2-12.9,0-10.5,0-21,0-31.4.3-.7.6-1.4.8-2.2,1.2-7.6,2-15.3,3.5-22.8,7.3-35.5,23.3-66.7,47.8-93.3C84.9,31.2,124.3,10.2,171,3.1c4.4-.7,8.9-1.4,13.3-2.2ZM31.6,200.1c0,92.9,75.1,168.2,167.9,168.4,93.1.2,168.8-75.2,169-168.3.1-93.1-75.3-168.6-168.4-168.6-93.3,0-168.5,75.1-168.4,168.5Z"/>
  <path class="cls-1" d="M301.8,230.6c-9.7,37.2-49.1,79.8-108.4,76.3-57.7-3.5-98-49.5-100.5-101.5-2.8-59.2,41.1-107.9,98.3-112.2,60.2-4.6,100.3,37.7,110.7,76.2-10,0-20,0-29.9-.1-1,0-2.3-1.3-2.8-2.3-10.9-21.8-28.2-36-51.8-41.5-42.4-9.8-83,15.7-92.1,57.4-7.7,35.4,8.6,69.9,40,85.6,37.8,18.9,84.5,3.4,103.2-34.5,1.3-2.6,2.7-3.5,5.6-3.5,9.2.2,18.4,0,27.7,0Z"/>
</svg>