<?xml version="1.0" encoding="UTF-8"?>
<svg id="Calque_1" data-name="Calque 1" xmlns="http://www.w3.org/2000/svg" version="1.1" viewBox="0 0 500 400">
  <defs>
    <style>
      .cls-1 {
        fill: #d8d8d8;
        stroke-width: 0px;
      }
    </style>
  </defs>
  <path class="cls-1" d="M63.8,212.7c0-8.4,0-16.8,0-25.2.3-1.5.6-3,.7-4.5,2.1-23.9,8.7-46.6,19.8-67.9,18.6-35.7,45.8-62.8,81.6-80.9,38.5-19.4,79.1-24.6,121.2-16.2,38.5,7.7,71.4,26.1,98.3,54.8,29.2,31.1,45.9,68.1,49.8,110.6,2.4,25.4-.2,50.4-8.4,74.6-16.5,48.9-47.8,85.2-93.6,108.6-31.5,16.1-65.2,22-100.5,18.9-23-2-44.9-8.1-65.5-18.5-38.3-19.2-66.8-48.2-85.5-86.8-9-18.5-14.5-38.1-16.8-58.6-.3-2.9-.8-5.8-1.2-8.6ZM252.6,162c-.6-.2-1.2-.4-1.8-.6-8.4-3.2-16.8-6.5-25.2-9.7-1.6-.6-2.1-1.4-2.1-3.1,0-31.3,0-62.6,0-93.9,0-3.1-.9-5.6-3.7-7-2.9-1.5-5.5-.7-8.1,1.2-13.4,9.9-26.8,19.9-40.2,29.7-2.6,1.9-3.8,4.3-3.8,7.5,0,7,0,14.1,0,21.1,0,26.5,0,53.1,0,79.6,0,1.4-.4,2.2-1.5,3-7.6,5.3-15.1,10.7-22.6,16-2.5,1.8-3.7,4-3.7,7.1,0,17.9,0,35.7.1,53.6,0,1.9.6,4.1,1.7,5.8,15.8,24,31.8,48,47.7,72,1.9,2.9,4.3,4.1,7.7,4.1,38.3,0,76.5,0,114.8,0,5.2,0,6.8-1.1,8.8-5.8,9.6-23.2,19.2-46.4,28.8-69.6,1.2-2.8,1.7-5.6,1.7-8.6,0-42.5,0-84.9,0-127.4s0-19.7,0-29.6c0-3-1-5.4-3.5-7.3-13.6-9.9-27.1-19.9-40.6-29.9-2.5-1.8-5.1-2.5-7.9-1-2.8,1.4-3.7,3.9-3.7,7,0,30.6,0,61.2,0,91.8v2.7c-.9-.3-1.6-.6-2.3-.9-9.9-3.8-19.8-7.6-29.7-11.4-5.3-2.1-7.7-1.3-10.9,3.6Z"/>
  <path class="cls-1" d="M309,334.7c-.8,0-1.5,0-2.2,0-35.2,0-70.3,0-105.5,0-1.4,0-2.3-.3-3.2-1.6-14.5-22-29.1-43.9-43.6-65.9-.7-1-1.1-2.4-1.1-3.6,0-15.4,0-30.9,0-46.3,0-1.4.3-2.2,1.5-3,2.8-1.8,5.5-3.8,8.6-6,0,1.1,0,1.9,0,2.7,0,4.3,0,8.5,0,12.8,0,2.8,1.2,5.1,3.8,6.4,2.6,1.3,5,.9,7.3-.8q6.6-4.8,6.7-13.1c0-41.8,0-83.7,0-125.5,0-1.8.5-3,2-4.1,8.4-6.1,16.6-12.2,24.9-18.4.4-.3.9-.6,1.7-1.2v2.7c0,39.6,0,79.3,0,118.9,0,3.2.9,5.7,3.8,7.2,2.9,1.4,5.5.7,7.8-1.3.2-.1.3-.3.5-.4,4.3-2.3,5.9-5.8,5.6-10.8-.4-5.3,0-10.7,0-16.4,1.1.4,2,.6,2.9,1,8.3,3.2,16.5,6.4,24.8,9.6,5.4,2.1,7.8,1.3,10.8-3.8,8,3.1,16.1,6.2,24.1,9.4.5.2,1,1.1,1,1.6.1,1.6,0,3.3,0,5,0,2.7,1.2,4.6,3.5,5.9,2.4,1.3,4.8,1.1,7-.4,1.7-1.2,3.3-2.4,4.9-3.8,1.8-1.5,2.4-3.6,2.4-5.9,0-31.5,0-63,0-94.5v-2.5c.7.4,1.2.7,1.6,1,8.4,6.2,16.8,12.4,25.3,18.6,1.1.8,1.5,1.7,1.5,3.1,0,51,0,102,0,153,0,1.1-.2,2.2-.6,3.2-9.1,22-18.2,44-27.3,66-.1.3-.3.6-.5,1.1Z"/>
</svg>