<?xml version="1.0" encoding="UTF-8"?>
<svg id="Calque_1" data-name="Calque 1" xmlns="http://www.w3.org/2000/svg" version="1.1" viewBox="0 0 500 400">
  <defs>
    <style>
      .cls-1 {
        fill: #d8d8d8;
        stroke-width: 0px;
      }
    </style>
  </defs>
  <path class="cls-1" d="M3.9,190.4c10.9,0,21.8,0,32.7-.2.7,0,1.8-1.2,2.1-2,3.1-9,6-18.1,9-27.2.3-.8.5-1.6,1-2.9,2,6.2,4,12,5.9,17.7,1.4,4.2,2.8,8.4,4.1,12.6.5,1.6,1.3,1.9,2.8,1.9,10.3,0,20.7,0,31.2.4-5.3,3.9-10.6,7.7-15.8,11.6-3.1,2.3-6.2,4.6-9.4,6.8-1.3.9-1.5,1.7-1,3.2,3.3,9.9,6.4,19.8,9.8,30.2-6.3-4.5-12.2-8.8-18.1-13-2.5-1.8-5.1-3.6-7.6-5.5-1.3-1-2.2-1-3.6,0-8,5.9-16.1,11.7-24.2,17.5-.3.2-.7.5-1.4,1,1.5-4.7,2.8-9,4.2-13.3,1.8-5.5,3.5-11,5.4-16.5.6-1.7.4-2.7-1.2-3.8-7.8-5.6-15.6-11.4-23.4-17-.7-.5-1.6-.7-2.4-1,0-.2,0-.3,0-.5Z"/>
  <path class="cls-1" d="M496.1,179.3c-1.6,2.1-3,4.2-5.8,4.9-3.9,1-7.9-.9-9.4-4.7-1.5-3.8,0-8.2,3.7-10,3.6-1.9,8.2-.6,10.4,2.8.4.6.8,1.1,1.1,1.7v5.3ZM488.1,182.8c3.7,0,6.5-2.7,6.5-6.3,0-3.4-2.8-6.2-6.3-6.3-3.5,0-6.3,2.6-6.4,6.1,0,3.7,2.5,6.4,6.2,6.5Z"/>
  <path class="cls-1" d="M121.9,234.3c-3.7,0-7.4,0-11.1,0-1.4,0-2.5-.3-2.5-1.9,0-1.7-1.4-4,1.2-4.8,3.7-1.2,4.5-3.8,4.5-7.3,0-12.1,0-24.3,0-36.4,0-3.9-.4-4.7-4-5.9-2.7-.9-1.8-2.8-1.7-4.5,0-1.8,1.5-1.8,2.8-1.8,6.8,0,13.7,0,20.5,0,1.1,0,2.5-.4,2.6,1.4,0,1.6,1.2,3.8-1,4.7-2.8,1.2-3.5,3.2-3.3,6,.1,3,0,6.1,0,9.2,0,1.6.4,2.3,2.1,2.3,4-.1,8,0,12.1,0,1.5,0,2.1-.5,2-1.9,0-3.9.1-7.7-.3-11.6-.1-1.3-1.5-2.8-2.7-3.5-2.6-1.4-1.5-3.5-1.3-5.2,0-.5,1.8-1.2,2.8-1.2,6.7-.1,13.3,0,20,0,1.4,0,2.9,0,2.9,1.9,0,1.7.9,3.6-1.8,4.4-3.3,1-3.9,2.1-3.9,5.5,0,12.5,0,24.9,0,37.4,0,3.1.9,5.5,4.1,6.5,2.8.9,1.6,3.1,1.6,4.8,0,1.9-1.5,2-2.9,2-7.2,0-14.3,0-21.5,0-1.5,0-2.9-.1-2.9-2,0-1.8-1.2-4,1.6-4.8,3.1-.9,4.1-3.2,4.1-6.2,0-4.6,0-9.2.1-13.7,0-1.9-.6-2.7-2.7-2.6-3.8.1-7.6,0-11.3,0-1.6,0-2.3.6-2.2,2.3,0,4.7,0,9.5,0,14.2,0,3,1,5.2,4,6,2.8.8,1.7,3,1.7,4.8,0,2.1-1.5,2.1-3,2.1-3.5,0-7.1,0-10.6,0,0,0,0,0,0,0Z"/>
  <path class="cls-1" d="M364.3,204.9c4-2.7,6.9-5.5,9.4-8.7.9-1.2,0-2-1-2.4-2.7-.9-2-2.9-1.7-4.8.4-2,2.1-1.4,3.3-1.4,5.4,0,10.8,0,16.2,0,1.5,0,2.5.3,2.6,2,0,1.5.8,3.3-1.3,4.1-5.1,1.9-8.3,6.1-11.8,9.9-.4.4-.5,1.6-.2,2.1,3.8,6.8,7.7,13.5,11.7,20.2.5.9,1.9,1.3,3,1.7,2.6.8,1.6,2.7,1.6,4.4,0,1.7-.8,2.4-2.6,2.3-4-.1-8-.1-12,0-1.6,0-2.4-.5-3.1-2-2.5-5.1-5.2-10.1-7.9-15.2-.5-1-1.2-1.8-1.9-2.8-2.1,1.4-4.2,2.5-4.2,5.1,0,3.2-.4,6.6,3.5,8.1,2.4,1,1.3,3.1,1.2,4.8,0,2-1.6,1.9-3,1.9-6.2,0-12.4,0-18.6-.1-.9,0-2.5-.7-2.6-1.2-.3-1.8-1.4-4.2.8-5.2,3.3-1.5,3.8-4,3.8-7.1,0-12.9,0-25.9,0-38.8,0-2.5-.8-4.5-3.5-5.4-2.6-.9-1.4-3.1-1.3-4.7,0-1.7,1.5-1.3,2.6-1.4,4.4,0,8.8,0,13.3,0,3.2,0,3.6.4,3.6,3.6,0,9.4,0,18.8.1,28.2,0,.7,0,1.4,0,2.8Z"/>
  <path class="cls-1" d="M462.9,190.9c2.9-1.3,5.3-2.6,8-3.5,10.2-3.3,17.3,1.9,17.4,12.6,0,7.9,0,15.8,0,23.6,0,.9,0,1.9.2,3.2,1-.4,1.8-.7,2.4-1.1,1.3-.7,2.4-.7,3.4.5.9,1.1,1,2.2.2,3.5-3.4,5.4-13,6.8-17.8,2.5-2.4-2.2-3.1-5-3.1-8.1,0-6.8,0-13.7,0-20.5,0-1,0-1.9-.1-2.9-.2-1.9-.8-3.6-2.7-4.2-2.1-.6-4.3-.1-5.4,1.7-1.1,1.8-1.9,3.9-2,6-.3,5.7,0,11.4,0,17.1,0,2.6.7,4.8,3.4,5.8,2.8,1.1,1.5,3.4,1.3,5.2-.1,2-1.8,1.7-3.1,1.7-6.2,0-12.4,0-18.6,0-1.1,0-2.4.2-2.5-1.5,0-1.7-1.4-4,.8-5,3.2-1.5,3.8-3.9,3.8-7,0-7.2,0-14.5,0-21.7,0-2.4-.5-4.4-3-5.5-2.1-1-1.2-3-.8-4.5.2-.7,1.6-1.4,2.5-1.4,3.4-.2,6.7,0,10.1,0,2.6,0,5.5-.6,5.6,3.4Z"/>
  <path class="cls-1" d="M263.8,190.7c3.6-1.4,6.7-3,10-3.7,9-2,15.1,2.7,15.3,11.9.2,8.3,0,16.6,0,24.8,0,.9.2,1.8.3,3.1,1-.5,1.8-.8,2.4-1.1,1.2-.7,2.3-.7,3.2.4.9,1.1,1.2,2.1.4,3.5-2.4,4-8.4,6.1-13.9,4.7-4.6-1.2-7-4.5-7-9.9,0-7,0-14,0-21,0-.7,0-1.5,0-2.2-.3-2-.7-4-3.2-4.6-2.2-.5-4.8.6-5.8,2.8-.7,1.6-1.2,3.4-1.2,5.1-.1,5.6,0,11.3,0,16.9,0,2.7.7,4.9,3.5,6,2.6,1.1,1.4,3.2,1.3,5-.1,1.8-1.5,1.8-2.8,1.8-6.3,0-12.5,0-18.8,0-.9,0-2.4-.8-2.5-1.4-.3-1.7-1.5-4.1.9-5.2,3.1-1.4,3.7-3.7,3.7-6.6,0-7.3,0-14.6,0-21.9,0-2.4-.5-4.5-3.1-5.7-2-.9-.9-2.8-.8-4.3.2-1.6,1.3-1.6,2.5-1.6,3.6,0,7.2.1,10.8,0,2.5,0,4.8,0,5,3.2Z"/>
  <path class="cls-1" d="M417.9,186.3c8.7.3,15.6,3.7,20.4,11,3.6,5.6,2.9,9.6-3.1,12.4-6.6,3.1-13.5,5.5-20.3,8-3.2,1.2-3.6,2.5-1.1,4.9,3.5,3.4,7.9,3.6,12.2,2.1,2.9-1,5.6-2.7,8.1-4.4,2.2-1.5,3.6-1.9,5.4-.4,1.7,1.5,2.2,3.7.7,5.6-1.6,2-3.4,3.9-5.4,5.4-10.5,7.4-26.1,5.6-34.1-3.4-9.1-10.3-8-36.5,13.2-40.8,1.3-.3,2.7-.3,4-.4ZM409.7,205.7c.1,0,.2,0,.3.1,0,.4,0,.8,0,1.2,0,3.5,1,4.5,4.4,3.5,3-.8,5.9-1.9,8.8-3,2-.8,3.3-2.4,2.7-4.5-.6-2.2-1.4-4.5-2.8-6.2-3.4-4.1-9.2-3.3-11.4,1.6-1,2.3-1.4,4.9-2.1,7.3Z"/>
  <path class="cls-1" d="M167.6,211.1c0-11.7,5.9-20.5,16-23.8,10-3.2,22.3,1.5,27.4,10.5,3,5.4,2.2,9.1-3.3,11.7-6.5,3-13.4,5.3-20.1,8-1.1.4-3,1.4-3,1.9.2,1.3,1,2.7,2,3.6,3.4,2.9,7.5,3,11.4,1.7,2.9-1,5.6-2.6,8.2-4.4,2.4-1.6,3.8-2,5.5-.5,1.8,1.6,2.1,3.7.6,5.8-3.2,4.5-7.6,7.4-12.9,8.7-9.8,2.4-18.9,1.1-26.1-6.7-3.9-4.2-5.7-9.7-5.7-16.7ZM182,205.7c.1,0,.3,0,.4.1,0,.4-.1.8-.1,1.2,0,3.5,1,4.5,4.4,3.6,3-.8,5.9-1.9,8.8-3,2-.8,3.3-2.4,2.7-4.5-.6-2.2-1.5-4.7-2.9-6.4-3.4-4-9.1-3.1-11.2,1.7-1,2.3-1.4,4.9-2.1,7.3Z"/>
  <path class="cls-1" d="M319.2,186.3c8.9.4,16,4,20.7,11.7,3.1,5,2.3,8.9-2.9,11.4-6.8,3.2-13.9,5.7-20.9,8.4-2.9,1.1-3.4,2.5-1.1,4.8,3.4,3.3,7.7,3.6,11.9,2.3,3-.9,5.8-2.7,8.4-4.5,2.3-1.5,3.6-1.9,5.4-.5,1.8,1.4,2.2,3.8.8,5.8-2.4,3.6-5.8,6-9.7,7.6-11.1,4.8-24.1,1.7-30.7-7.1-10.5-14.1-2.7-36,14-39.5,1.4-.3,2.9-.3,4.3-.4ZM310.8,206.2c.4,4.7,1.2,5.4,5.7,4.1,2.2-.6,4.4-1.4,6.6-2.2,4.1-1.6,5.1-3.7,3.4-7.9-.5-1.2-1.1-2.3-1.9-3.3-3.4-4.1-9.2-3.5-11.5,1.3-1.2,2.5-1.6,5.3-2.3,8Z"/>
  <path class="cls-1" d="M235.5,206.2c0,5.1,0,10.3,0,15.4,0,2.6.7,4.7,3.3,5.8,2.7,1.1,1.4,3.4,1.3,5.3-.1,1.9-1.7,1.5-3,1.5-6.3,0-12.7,0-19-.1-.8,0-2.2-.7-2.3-1.3-.3-1.7-1.7-4.1.8-5.1,3.4-1.4,4-4,4-7.2,0-7,0-14,0-21,0-2.6-.3-4.8-3.1-6.1-2-1-1-3-.6-4.5.2-.6,1.5-1.3,2.3-1.3,4.7-.1,9.3,0,14,0,1.9,0,2.5.7,2.5,2.6,0,5.4,0,10.8,0,16.1Z"/>
  <path class="cls-1" d="M226.9,184.6c-4.6,0-8.3-3.5-8.2-7.9,0-4.3,3.7-7.8,8.1-7.8,4.5,0,8.1,3.4,8.2,7.7,0,4.5-3.5,8-8.1,8Z"/>
  <path class="cls-1" d="M78.5,242c-3.3-10.3-6.6-20.6-10-30.9.2,0,.3-.1.5-.2,3.3,10.3,6.6,20.7,9.9,31-.1,0-.3,0-.4,0Z"/>
  <path class="cls-1" d="M51.5,157.5c3.3,10,6.6,20.1,10,30.1-.2,0-.3.1-.5.2l-9.9-30.1c.1,0,.3-.1.4-.2Z"/>
  <path class="cls-1" d="M71.5,209.5c-.4.3-.9.7-1.3,1,0,0-.1-.2-.2-.3.4-.3.9-.7,1.3-1,0,0,.1.2.2.3Z"/>
  <path class="cls-1" d="M72,209.1c0-.1,0-.3,0-.4,0,0,.2-.1.2,0,0,0,.1.2.2.3-.1,0-.3.1-.4.2Z"/>
  <path class="cls-1" d="M484.5,172.2c2.5.8,5.2-1.1,6.6,1.6.4.8-.4,2.3-.7,3.5-.2,0-.4,0-.6-.1.6,1.1,1.3,2.2,2,3.4-3.3,1.4-2.7-3.4-5.4-3,0,.9-.1,1.9-.2,3.7-.8-.8-1.7-1.2-1.7-1.7-.1-2.3,0-4.6,0-7.4ZM486.3,173.2c0,1.5.1,2.1.2,3.4,1.3-.7,2.2-1.2,3-1.8-.9-.4-1.8-.9-3.2-1.6Z"/>
</svg>