<?xml version="1.0" encoding="UTF-8"?>
<svg id="Calque_1" data-name="Calque 1" xmlns="http://www.w3.org/2000/svg" version="1.1" viewBox="0 0 295 295">
  <defs>
    <style>
      .cls-1 {
        fill: #f5ba00;
        stroke-width: 0px;
      }
    </style>
  </defs>
  <path class="cls-1" d="M173.8,147.5c0,14.5-11.8,26.2-26.2,26.2s-26.2-11.8-26.2-26.2,11.7-26.2,26.2-26.2,26.2,11.8,26.2,26.2Z"/>
  <path class="cls-1" d="M192.9,76.7h-90.6c-16.2,0-29.4,13.2-29.4,29.4v82.9c0,16.2,13.2,29.4,29.4,29.4h90.6c16.2,0,29.4-13.2,29.4-29.4v-82.9c0-16.2-13.2-29.4-29.4-29.4ZM147.6,189.8c-23.3,0-42.2-18.9-42.2-42.2s18.9-42.2,42.2-42.2,42.2,18.9,42.2,42.2-18.9,42.2-42.2,42.2ZM193.7,112.2c-6.3,0-11.4-5.1-11.4-11.4s5.1-11.4,11.4-11.4,11.4,5.1,11.4,11.4-5.1,11.4-11.4,11.4ZM192.9,76.7h-90.6c-16.2,0-29.4,13.2-29.4,29.4v82.9c0,16.2,13.2,29.4,29.4,29.4h90.6c16.2,0,29.4-13.2,29.4-29.4v-82.9c0-16.2-13.2-29.4-29.4-29.4ZM147.6,189.8c-23.3,0-42.2-18.9-42.2-42.2s18.9-42.2,42.2-42.2,42.2,18.9,42.2,42.2-18.9,42.2-42.2,42.2ZM193.7,112.2c-6.3,0-11.4-5.1-11.4-11.4s5.1-11.4,11.4-11.4,11.4,5.1,11.4,11.4-5.1,11.4-11.4,11.4ZM151.6,1h-8.1C64.9,1,1.1,64.8,1.1,143.5v8.1c0,78.6,63.8,142.4,142.4,142.4h8.1c78.7,0,142.4-63.7,142.4-142.4v-8.1c-.1-78.7-63.8-142.5-142.4-142.5ZM238.3,189c0,25-20.4,45.4-45.4,45.4h-90.6c-25,0-45.4-20.4-45.4-45.4v-82.9c0-25,20.4-45.4,45.4-45.4h90.6c25,0,45.4,20.4,45.4,45.4v82.9h0ZM192.9,76.7h-90.6c-16.2,0-29.4,13.2-29.4,29.4v82.9c0,16.2,13.2,29.4,29.4,29.4h90.6c16.2,0,29.4-13.2,29.4-29.4v-82.9c0-16.2-13.2-29.4-29.4-29.4ZM147.6,189.8c-23.3,0-42.2-18.9-42.2-42.2s18.9-42.2,42.2-42.2,42.2,18.9,42.2,42.2-18.9,42.2-42.2,42.2ZM193.7,112.2c-6.3,0-11.4-5.1-11.4-11.4s5.1-11.4,11.4-11.4,11.4,5.1,11.4,11.4-5.1,11.4-11.4,11.4Z"/>
</svg>