<?xml version="1.0" encoding="UTF-8"?>
<svg id="Calque_1" data-name="Calque 1" xmlns="http://www.w3.org/2000/svg" version="1.1" viewBox="0 0 500 400">
  <defs>
    <style>
      .cls-1 {
        fill: #d8d8d8;
        stroke-width: 0px;
      }
    </style>
  </defs>
  <path class="cls-1" d="M124.2,127.9C128,53.3,189.4,7.4,246.9,6.6c83.8-1.2,131.8,69,130,128.7-2.3,76.5-66.7,128.9-135,124-71.3-5.1-120.6-66.1-117.7-131.4ZM132,132.9c0,66.9,53.1,119.7,120.3,119.7,64,0,117.6-54,117.8-118.6.2-67-53.1-120.4-120.2-120.3-64.7,0-117.9,53.9-117.8,119.2Z"/>
  <path class="cls-1" d="M271.7,366.6c1.5.7,2.7,1.2,3.9,1.7,0,.5,0,.8,0,1-2,3-3.5,7.6-6.3,8.6-2.9,1-7-1.5-10.1-2.3,0-11,0-21.8,0-32.6,0-6.5-.4-13.1-.1-19.6.1-3.2-2-4-4-4.3-1.2-.2-3.1,1.1-4.1,2.2-6.8,7.6-6.7,16.8-6.2,26.2.3,5.1,0,10.3.3,15.4.1,2,1.3,3.9,2.4,5.8-2.5,10.2-3.7,10.7-15.3,6.7,0-6,0-11.8,0-17.5,0-10.6,0-21.2,0-31.7,0-4.1,1.2-8.9-5.8-9.4,2.4-3.5,4.1-6.3,6.2-8.9.5-.7,2.3-1,3.2-.7,3.3,1.1,6.4,2.5,9.6,3.7-.2,4.4-.4,8.7-.7,14,1.3-1.3,2.1-1.7,2.5-2.4,2.7-4.5,5.2-9.2,8-13.6.7-1,2.8-2,3.9-1.6,4.5,1.3,8.8,3.2,13.2,4.8v11.9c.3.2.6.3.9.5.6-.7,1.4-1.3,1.8-2.1,2.5-4.5,4.7-9.1,7.4-13.5.6-1,2.7-1.8,3.8-1.5,4.4,1.3,8.6,3.1,12.8,4.7-2.7,16.8-.8,33.6-1.3,50.3,0,1.4,0,2.7,0,4.1,1.8.6,3.4,1.1,5.4,1.7-1.6,3.1-2.5,6.5-4.7,8.5-3.9,3.6-7.8-1-11.8-1.3-.9,0-2.3-1.8-2.3-2.7.1-13,.5-26.1.8-39.1,0-3.2-.2-6.4,0-9.6.2-2.6-.4-4.8-3-4.9-1.3,0-2.9,1.8-4.1,3.1-8,9.4-6.3,20.7-6.2,31.6,0,4.3,0,8.6,0,12.8Z"/>
  <path class="cls-1" d="M55.8,295c-.7,1.6-.8,3.2-1.6,3.8-3.3,2.2-4.1,5.3-4.1,9,.2,18.1.3,36.1.4,54.2,0,5.7,0,11.3-.3,17,0,1-.9,2.3-1.7,2.8-6.9,3.7-13.9,7.2-21.4,11.1-4.4-5.7-9.1-12.5-14.6-18.6-6.2-6.8-5.4-13.7-2.1-21.2.6-1.4,1.8-2.6,3.1-3.7.2,7,5.7,10.4,9.1,15,3.5,4.7,7.4,9.1,11.8,13.5,2.3-15.1.2-30.1,1-45.1-13.8-1.5-12.2-1.2-15.6,7.8,0-2.5,0-4.9,0-7.4,0-2.8-.1-5.6,0-8.3.1-1.2,1-2.4,1.5-3.5,1,.5,2,1.2,3,1.4,3.3.6,6.6.9,10,1.4,1.8-6.7-2.9-14.2,5.3-18.5l-.9-.7c-2.8.4-5.6.9-8.4,1.1-3.3.2-6.7.5-10,.1-3.8-.4-5.7.9-6.4,4.6-.3,1.6-1.1,3-2.5,4.5,0-7.1,0-14.2,0-21.3,0-.6.8-1.5,1.4-1.7.6-.1,1.4.4,2.2.7,1.6.7,3.2,1.9,4.9,1.9,11.7.2,23.3,0,35.8,0Z"/>
  <path class="cls-1" d="M145.5,314c0,6.2,0,11.7,0,17.2,0,16,0,32,.1,48,0,2.8-.8,3.9-3.7,4.8-3.1.9-6.2,3.1-8.5,5.4-2.5,2.5-4.6,3.2-7.9,1.9-3-1.2-6.3-1.8-9.6-2.2-3.1-.4-6.1,0-7.8,3.3-.3.6-1.4.9-2.5.9,1.8-7.6,7.6-11.6,14.6-15.6-4.9-1.4-8.9-2.6-12.5-3.7v-55.7c1.1-.6,3-1.2,4.6-2.3,2.7-1.8,5.5-3.6,7.8-5.8,2.2-2.2,3.6-3.7,7.2-2.1,6,2.7,12.5,4.2,18.2,6ZM120.6,318.6c0,15.6,0,30,.1,44.5,0,.9,1.5,2.5,2.4,2.6,1.1.2,3-.6,3.6-1.5,4.2-6.2,7.2-12.7,6.2-20.6-.5-4.1-.1-8.3-.2-12.5,0-2.6,0-5.2,0-8.4-3.3-1.1-7.4-2.5-12.2-4.1ZM122.7,377.8c3.9.9,6.8,1.6,9.9,2.3v-17.9c-.2,0-.5,0-.7-.1-2.9,4.9-5.8,9.9-9.1,15.7Z"/>
  <path class="cls-1" d="M60.1,375.6v-43.3c2.4-1,5-2.1,8-3.4-3.6-2.7-6.6-4.9-9.6-7.2.5-.7,1.1-1.3,1.6-2,1.7-.9,3.5-1.6,5-2.7,3.1-2.2,6.5-4.2,8.9-7,2.4-2.8,4.2-3,7.3-1.7,5.6,2.4,11.4,4.2,16.8,6.2-2.3,17.6-.4,34.7-1.1,51.8,1.9.7,3.4,1.2,5.5,1.9-2.1,3.3-4,6.3-6.1,9.1-.5.7-2,1.1-2.9.8-3.1-.8-6-1.8-9.2-2.8v-9c-.4-.2-.8-.4-1.1-.6-1.1,1.6-2.3,3.2-3.4,4.9-4.5,7.6-4.5,7.7-13.2,6.2-2.2-.4-4.3-.9-6.5-1.4ZM73.4,364.7c3.7,2.5,6,1.9,8.1-2,1.8-3.3,2.8-6.4,2.7-10.1-.2-6,0-11.9,0-17.9,0-2.3,0-4.5,0-7.6-3.7,1.9-6.6,3.3-9.5,4.9-.6.4-1.2,1.5-1.2,2.2,0,10.3,0,20.5,0,30.6ZM73.8,318.5c2.1,5.7,7.3,7.2,13.6,4-4.8-1.4-8.9-2.7-13.6-4Z"/>
  <path class="cls-1" d="M404.3,296c-2.3,3-4.1,7-7.2,8.8-3,1.7-7.3,1.3-11,1.7-.2-.4-.5-.8-.7-1.2-.1,1.2-.4,2.3-.4,3.5,0,23.5,0,46.9,0,70.4,0,3.7.5,7.2-4.6,8.2-1.3.2-2.2,2.6-3.4,3.8-.9.9-2.1,1.5-3.1,2.2-.6-1-1.8-2-1.8-3.1-.2-14.6-.3-29.2-.4-43.8,0-12.2,0-24.5,0-36.7,0-.6,0-1.1,0-1.7-.6-6.3-.5-6,5.3-7.9,2.6-.8,5.2-2.7,6.9-4.7,2.4-2.8,4.3-3.7,7.5-1.2,4.1,3.1,4.2,2.8,12.8,1.7Z"/>
  <path class="cls-1" d="M212.3,343.3c5.7-7.4,1-13.3-.4-19.4,0-.4-2.8-.6-2.9-.3-1.4,3.1-3.4,6.3-3.5,9.5-.5,9.7-.3,19.5,0,29.2,0,1.2,1.6,3.6,2.1,3.5,2.5-.4,5.3,4.2,7.5-.6.4-.8,2.1-1.1,3.2-1.6l.9,1.2c-2.5,4.2-5,8.4-7.7,12.5-.5.7-2.2,1-3.2.8-4.6-1-9.1-2.2-13.6-3.6-.9-.3-1.8-1.9-1.8-2.9,0-15.6.3-31.1.4-46.7,0-3.6,1.1-7.6-5.1-7.7,2.3-3.4,3.9-6.2,6-8.8.6-.7,2.2-1.1,3.2-.9,2.9.8,5.7,1.9,8.5,2.9-.3,3.7-.5,7-.7,10.4.4.2.9.4,1.3.5,1-1.2,2.2-2.4,3-3.8,1.9-3.1,3.5-6.3,5.4-9.3,1.5-2.4,3.3-2.3,4,.5,1.7,6.2,3.3,12.5,4.5,18.9,1.2,6.5-2.2,11.5-6.6,15.8-.6.6-2.3,0-4.4,0Z"/>
  <path class="cls-1" d="M168.2,363.8c4.5,1.2,8.1,2.3,11.7,3,1,.2,2.2-.9,3.3-1.4,1.1-.5,2.3-1.1,3.4-1.6.2.4.5.8.7,1.2-2.3,4.1-4.5,8.2-7,12.2-.5.7-2.1,1.3-3.1,1.1-6.8-1.5-13.5-3.1-20.1-4.9-.8-.2-1.7-2-1.7-3,.1-15.3.4-30.5.6-45.8,0-1.4-.7-2.7-.6-4.1,0-1.1.9-3,1.3-3,7.2-.2,10.3-5.9,14.4-10.5,5.1,5,10.1,9.9,15,15,.5.6.3,2.4-.2,3.2-5.1,9.1-10.5,17.9-15.3,27.1-1.7,3.2-1.6,7.4-2.4,11.5ZM169.9,323l-.9.5v24.4c3.5-4.6,6.1-9.4,8.7-14.2.2-.5,0-1.4-.3-1.9-2.5-3-5-5.8-7.5-8.7Z"/>
  <path class="cls-1" d="M482.4,366.7c.6-1.1.8-2.2,1.4-2.8.5-.5,1.8-.9,2.3-.6.6.3,1.1,1.8.8,2.3-2.2,3.9-4.5,7.6-7,11.3-.4.6-1.8,1.1-2.5.9-5.4-1.4-10.8-3-15.4-4.3,0-15.2,0-29.7,0-44.3,0-1.8-.1-3.6,0-5.4.4-3.8-.1-6.9-5.3-7.2,2.2-3.3,4-6.2,6.1-8.9.5-.7,2.1-1,3.1-.8,1.8.3,3.4,1.1,5.1,1.6,2.5.8,4.2,1.7,3,5-.6,1.8-.1,4-.1,7.4,1.6-1.5,2.7-2.1,3.3-3.1,1.9-3.1,3.5-6.3,5.4-9.3.7-1,2-1.6,3-2.4.7.9,1.6,1.7,1.9,2.8,1.5,4.8,2.8,9.6,4,14.4,1.9,7.7-.9,14.1-6.3,19.5-.5.5-1.6.5-2.4.7-.2-1-.9-2.3-.5-2.9,4.1-6.4-.9-11.8-1.9-17.6,0,0-2.8,0-3.1.5-1.4,3.2-3.2,6.6-3.4,10-.5,8.5-.1,17-.1,25.4q0,6.1,6.2,7.5c.7.1,1.3.3,2.3.5Z"/>
  <path class="cls-1" d="M439.7,307.1c5.8,5,11.5,9.9,16.9,14.5-5.7,10.1-11.2,19.1-15.9,28.5-1.9,3.8-2.2,8.5-3.3,13.1,5.3,1.4,9.5,2.5,14,3.6.7-1.3,1.3-2.5,2-3.8,2.6.3,3.5,1.3,1.8,3.7-.6.9-1.2,1.9-1.8,2.8q-5,8.7-14.7,6.4c-4-1-8.1-1.8-12-3.1-1.1-.3-2.5-1.9-2.4-2.9.1-6.5.7-13,.9-19.4.2-8.5.1-16.9,0-25.4,0-2.6-.6-5.2-.9-8.3,8.1.5,11.8-5.8,15.5-9.7ZM438,347c1.3-1.2,2-1.5,2.4-2.1,1.7-2.8,3.3-5.8,4.9-8.6,2.5-4.6-1.8-12.2-7.3-12.6v23.4Z"/>
  <path class="cls-1" d="M308,317.3c7.7.1,11.7-5.3,15.6-10.1,5.7,5.2,11.2,10.1,16.6,15-5.8,10.5-11.6,20.2-16.7,30.3-1.5,2.9-1.3,6.6-1.7,9.9,0,.5.9,1.4,1.5,1.6,3.3,1,6.6,2,10,2.7.8.2,1.8-.8,2.7-1.4,1.1-.6,2.1-1.3,3.2-2,.4.4.7.7,1.1,1.1-2.4,4.2-4.8,8.6-7.4,12.7-.5.7-2.4,1.1-3.5.8-6.5-1.5-12.9-3.1-19.2-4.9-.8-.2-1.8-1.9-1.8-2.9.2-14.6.5-29.1.7-43.7,0-2.9-.6-5.7-.9-9.2ZM323.1,323.1c-.4.2-.7.4-1.1.6v22.6c.4.1.8.3,1.3.4,2.5-4.5,4.9-9.1,7.3-13.7.2-.4,0-1.2-.3-1.5-2.4-2.8-4.8-5.6-7.2-8.4Z"/>
  <path class="cls-1" d="M395.7,314.2c4.2-5.2,9.2-11.4,14.5-18v9.8h11.5c-.1,6-3.1,9.1-8.2,9.8-1.1.1-2.9,1.9-2.9,2.9-.2,15-.3,30,0,45,0,1.6,2.9,3.1,5,5.3-1.2,2-2.8,5-4.6,7.8-.4.7-1.9,1.3-2.7,1.1-4-1.2-7.9-2.7-11.6-4.4-.4-.2.8-3,.8-4.6.2-11.2.3-22.5.4-33.7,0-4.9.3-9.7,0-14.6,0-1.9-1.3-3.7-2.3-6.4Z"/>
  <path class="cls-1" d="M343.3,317.8c0-1-.2-1.1-.1-1.2,5.2-11.1,7.1-11.6,18.1-5.3-1.7,17.5-.2,34.8-.6,52,0,1.8,2.9,3.8,5,6.2-1,1.7-2.4,4.5-4.2,7.2-.5.7-1.9,1.4-2.7,1.2-4.1-.8-8.2-1.9-11.9-2.8.5-4.7,1.2-8.5,1.2-12.3.1-12.2,0-24.4,0-36.7,0-4,.6-8-5-8.3Z"/>
  <path class="cls-1" d="M354.6,303.1c1-3.6,1.9-7.2,3-11.2,2.2,1,3.9,1.7,6,2.7-2.7,3.2-5.2,6.2-7.7,9.1l-1.3-.6Z"/>
  <path class="cls-1" d="M90.2,303.3c.9-3.4,1.9-6.7,3-10.6,2,.7,3.7,1.3,6.1,2.1-2.7,3.3-5.1,6.2-7.5,9-.5-.2-1-.4-1.6-.5Z"/>
  <path class="cls-1" d="M77.9,303.1c.9-3.3,1.9-6.6,3-10.4,2,.8,3.7,1.4,5.9,2.3-2.7,3.3-5,6.1-7.3,8.8-.5-.2-1-.5-1.5-.7Z"/>
  <path class="cls-1" d="M167.2,96.6c1.6-5.5,3.8-10.6,2.6-16.8-1.5-7.8,2-14.9,5.9-21.6.2-.3.6-.6,1-.7.2-.1.5,0,1.9-.3-.3,3.2-.5,6.3-.9,9.3,0,.8-.7,1.6-.7,2.4,0,1.5.5,3,.8,4.4,1.5-.7,3.5-1,4.3-2.1,2.3-3.1,4-6.7,6.2-9.9,1.7-2.5,3.6-5.4,8.4-3.6-5.2,8.6-10.2,16.8-15.3,25-6.7,10.8-9.2,22.1-4.8,34.9,2.6-9.3,4.9-18.1,7.5-26.9.4-1.2,1.5-2.2,2.3-3.4.5,1.3,1.5,2.7,1.4,3.9-.4,5.5-1,11-1.8,16.5-1,7.8.8,14.9,4.6,21.6.6,1,1.5,1.8,3.2,2.3-.7-9.6-1.4-19.1-2.2-30,1.9,1.2,3.9,1.7,4.4,2.9,1.8,4.3,3.5,8.8,4.4,13.3,1.4,7.5,3,14.7,9.2,19.9.8.6,1.8,1,3.8,2.1-.7-10-1.4-19-2-28,.5-.1.9-.3,1.4-.4,1.1,1.3,2.5,2.5,3.1,4,1.7,4.8,2.8,9.8,4.6,14.6,1.8,4.7,3.8,9.4,6.3,13.7.9,1.6,3.7,2.9,5.7,2.9,10.6.2,21.2-.1,31.8-.3.6,0,1.1,0,1.7,0,8.9,0,10.4-.8,13.3-9.5,1.8-5.2,3-10.7,4.1-16.1,1-4.7,3.3-8.4,7.3-11.9-.9,9.8-1.7,19-2.6,28.4,8.8-1,11-7,12.6-13.5,1.2-4.7,1.9-9.6,3.4-14.2.8-2.6,2.7-4.9,4.1-7.3.6.2,1.2.3,1.8.5-.6,9-1.3,18-1.9,26.9,2.8-.7,6.5-4.1,6.7-8.3.2-6.3-.7-12.6-1-18.9-.3-4.4-.5-8.8-.6-13.2,0-.8.8-1.6,1.2-2.4.5,0,1-.1,1.5-.2,3,9.7,5.9,19.5,8.8,29.1,2.8-5.9,4.2-12.2,1.8-19.2-2.1-6-3.8-12-9.7-16-2.1-1.4-2.9-4.9-4.1-7.5-2-4.4-3.9-8.9-5.7-13.4-.5-1.2-.6-2.5-.8-3.8,1.4,0,3.1-.5,4.2,0,1.4.6,2.8,1.9,3.5,3.3,2,3.5,3.6,7.2,5.5,10.7.7,1.4,1.8,2.5,2.7,3.8.4-.1.9-.3,1.3-.4,0-1.9.2-3.8,0-5.6-.5-3.3-1.8-6.5-1.9-9.8-.1-2.5,1-5,1.7-8.2,1.4,1.2,1.8,1.4,1.9,1.7,2.3,7.5,4.9,15,6.8,22.6.7,3-.5,6.3-.2,9.5.4,4,1.4,7.9,2.2,11.9.7,0,1.3,0,2,0,.6-2.8,1.1-5.6,1.7-8.5.9-4.1,1.7-8.1,2.8-12.1.3-1,1.9-1.6,2.9-2.3.4,1.1,1.1,2.2,1.1,3.3,0,5.1.2,10.4-.5,15.4-.6,4.1-2.4,8.1-4,12-2.4,5.9-5,11.7-7.5,17.5-.8,1.8-1.4,3.9-2.7,5.1-8.2,7.4-15.4,15.9-26.9,18.8-9,2.3-17.3,6.6-24.7,12.4-2.8,2.1-4.6,4.6-2.9,9.6,7.3-13.7,18.2-17.6,32-14.9,2.2,11.4-17.2,35.2-33.5,29.7.6,1.9,1,3.4,1.4,4.8.2.7.6,1.4.8,2.2.8,4.2,2.1,8.3,2.1,12.5-.2,10.2,5.4,18.9,6.6,28.7.3,2.3,1.8,6-1.4,6.4-3,.3-1.8-3.5-2.3-5.6-.8-3.6-1.9-7-3.7-10.5-.2,2.4-.4,4.8-.6,7.2-2.1-4.6-2.7-9.2-2-14.2.5-3.5.5-7.1.2-10.6-.4-4.6-1.3-9.2-1.9-13.6-2.5,2.9-2.9,8.6-7.4,9.6-1.1,3.3-1.5,6.4-3.1,8.7-.7,1-3.9.2-6.1-.4,2.2-2.9,4.8-5.2,1.9-8.3h-14.1c-2.4,3.4-.6,5.6,2.3,7.6,0,.4-.2.9-.3,1.3-2,0-5,.8-5.7-.2-1.7-2.2-2.2-5.3-3.3-8.3-5.3.9-3.8-5.5-7.3-9v18.3c-1.8-.2-2.8-.4-3.7-.5,2.7,10.8,3.5,21.4,1.9,32.1-.5,0-1.1,0-1.6.1-.3-7.6-.6-15.2-.9-22.9-.5,0-1,0-1.5,0-.8,4.7-1.3,9.5-2.4,14.2-.5,2-2.4,5.6-2.9,5.4-3.8-1.1-1.6-4.1-1.1-6.2,2.7-12.8,5.8-25.5,8.5-38.2,1-4.8,1.5-9.8,2.2-14.6.1-.7.8-1.3.6-.9,3.1,1.6,5.9,2.8,8.5,4.5,1.4.9,2.4,2.5,3.5,3.7,1.4-3.2-.6-12.2-3.6-13.6-1.3-.6-3.4-.2-4.9.5-1.9.9-2.2.6-3.6-1.1-4.4-5.1-9.6-9.5-15.8-12.4-.4.4-.8.9-1.2,1.3,2.7,2,5.4,4,8.1,6.1-.5.6-1,1.1-1.5,1.7-2.9-2.3-5.7-4.8-8.7-7-2.9-2.1-5.7-4.6-9.9-4.1,1.1,2.4,2,4.2,2.8,6-.2.1-.4.3-.7.4,2.4,2.4,4.9,4.8,7.5,7.3-.3.1-1,.4-2.6,1.1,2.8,1,4.8,1.7,7.1,2.6-.4.6-.7,1.2-1.1,1.8,3,1.5,6,3.1,8.9,4.6,0,.4-.2.9-.3,1.3-1.4,0-2.8.5-4,.1-10.9-3.6-19.4-9.6-22.2-21.5-.2-.9-.6-1.9-.9-2.8-1.7-5-.5-6.6,4.6-6.3,9.3.6,17.5,3.9,24.7,9.7,1,.8,1.8,2,3.8,3.1-.1-1,.2-2.5-.4-2.8-5.6-3.8-9.6-9.5-17.2-10.9-7.6-1.4-15.8-3.8-22-8.2-7.4-5.2-16.2-10.1-19.2-20-1.1-3.6-2.3-7.1-3.8-10.5-.6-1.3-1.7-2.5-2.8-3.4-3.2-2.5-4.8-5.7-5-9.6-.4-6.2-.9-12.5-1.1-18.7,0-1.2.8-2.4,1.3-3.7,1.1.9,2.8,1.5,3.2,2.6,1.4,4.2,2.4,8.5,3.6,12.7.6,2,1.3,4,2,6l1.4-.3ZM253.9,187.5c.2-1.6.1-2.9.5-4,1.8-5.2,3.6-10.3,5.5-15.5.2.2.4.4.5.6,1.5-1.5,3-3,4.6-4.5,4.8,1,5.2,4.8,6.1,8.1-2.2-.5-4.3-1.7-5.6-1.1-3.3,1.3-6.7,11.7-5.3,15.7,1.4-3.6,3.4-5.5,7.3-6.5,2.8-.7,4.8-4.5,7-7,.4-.5.2-1.9-.1-2.7-1.2-3.2-2.3-6.4-3.8-9.4-1.4-2.8-3.1-5.6-5.1-8.1-2.9-3.4-13.6-4.4-16.7-2.1-.8.6-2.1.7-4,1.2-.4.5-1.6,1.9-2.7,3.3-.3-.2-.5-.3-.8-.5.3-1.1.6-2.3.9-3.4-.4-.2-.7-.4-1.1-.6-1.7,5.5-8.4,7.4-9.6,14.6,2.1-1.1,3.3-1.7,4.6-2.4.9,1.1,1.7,2.1,2.3,2.8.9-.4,1.7-.7,2-.9,4.6,6.9,6.4,14.2,7,21.9.4,0,.8,0,1.2.1.7-3.5,1.3-7,2.2-11.5,2.3,4.3-.6,8.8,3.2,11.9ZM299.6,156c-.4-.3-.7-.6-1.1-.9-9.9,1.5-22,13.7-22.1,22,6.8,2,8.1-6,13.5-6.9-.8-1-1.2-1.5-1.7-2.2,1.8-.9,3.3-1.6,5.1-2.4-1.1-.6-1.7-1-1.7-1,2.7-2.9,5.3-5.7,8-8.6ZM234.9,151.1c-14.3-1-15.7-12.3-18.7-22.3-.3,3,.1,5.6.2,8.3.1,7.3,3,13.1,8.6,17.7,4.3,3.6,5.5,3.5,8.7-1.2.4-.7.7-1.4,1.3-2.6ZM160,90.6c-1.3,5.9,0,10.9,4.8,14.9,1.6,1.3,2.5,3.5,3.3,5.5,2.1,5.1,3.8,10.4,6.1,15.4.8,1.8,2.8,3,4.3,4.4.4-.3.8-.5,1.2-.8-.7-1.8-1-4.1-2.3-5.5-5.3-5.7-7-12.7-7.9-20.1-.1-1-.5-2.8-1-2.8-6.4-.9-7.4-5.9-8.6-11ZM285.2,126.3c-1.3,5.1-2.2,10.3-3.9,15.2-1.9,5.3-6.7,7.6-12.4,8.8,1.9,2.4,3.5,4.4,5.1,6.3,10.3-7.2,12-13.5,11.2-30.4ZM181.6,113.5c-4.2,14.6,3.6,28.1,16.5,26.8-1.5-1.6-2.4-3.6-3.8-3.9-5.1-1.2-7.3-4.8-8.8-9.1-1.5-4.5-2.7-9.2-4-13.8ZM196.9,117.5c-1.6,16.2,4.6,29.3,19,29.6-1.4-1.9-2.1-4.1-3.4-4.5-9.4-2.8-12.5-10.3-14.4-18.8-.5-2.1-.8-4.2-1.2-6.3ZM305.2,119.4c-.4,1.8-.8,3.7-1.4,5.5-1.9,6.7-3.7,13.7-11.6,16-3.7,1.1-5.1,3.6-5.8,7.1,16.7-7.8,18-6.8,18.8-28.5ZM328.3,70.5c-1,4.5-2.2,8-6.9,7.8,2.8,5.7,5.5,11.4,8.3,17,.2,0,.4-.1.6-.2-.7-8.2-1.3-16.5-2-24.7ZM330.9,103.7c2.4,8.1-3.6,14.8-7.3,22l1.9.9c2-3.3,4.7-6.4,5.8-10,2-6.4,3.9-12.7,8.6-17.8.2-.2-.1-.7-.2-1-2.7,1.8-5.4,3.6-8.8,5.9ZM171.4,96.5c.2,0,.5.2.7.3,2.7-6.5,5.4-13,8-19.2-2-.8-4.5-1.7-6.6-2.5-.7,6.9-1.3,14.2-2,21.4ZM319.6,114.6c-.1,2-.2,3.9-.4,5.9-.8,6.9-3.1,12.5-10.4,15-1.6.5-2.6,2.5-3.9,3.8,13.5-3.7,18.8-12.7,14.7-24.7ZM285.7,177.7c2.3-1.4,5.5-2.6,7.5-4.8,3.4-3.6,6-7.9,8.8-12,.2-.3-.8-1.3-.8-1.3-5.2,6.1-10.4,12.1-15.5,18.1ZM229.7,181.4c-.3.2-.7.3-1,.5,1.3,1.7,2.4,3.6,4,5.1.4.4,2-.5,3.4-.9-2.6-1.9-4.5-3.2-6.4-4.6Z"/>
  <path class="cls-1" d="M270.7,72.1h-15.3v35.1h-9v-35.1h-16v-7.9h15.9v-16.1c.7-.3.9-.5,1.2-.6q7.8-.8,7.8,6.9c0,3,0,6.1,0,9.6h15.4v8Z"/>
  <path class="cls-1" d="M286.9,27.8c-7.4,8.5-14.8,17-22.2,25.5.3.3.6.7.9,1,1.1-.8,2.4-1.5,3.4-2.3,7.8-6.5,15.6-13,23.4-19.5,1.1-.9,2.5-1.5,3.7-2.2.3.4.5.8.8,1.3-11.3,9.1-22.5,18.2-33.8,27.4.2.3.3.6.5.9,14.4-8,28.7-16.1,43.1-24.1.3.4.5.9.8,1.3-.7.6-1.3,1.2-2,1.6-13.1,7.3-26.2,14.6-39.5,21.6-2,1-4.6.7-8.2,1.2.7-3.8.7-7.5,2.2-10.5,4-7.9,8.8-15.5,13.3-23.1.9-1.5,1.9-2.9,2.8-4.3.5.3,1.1.6,1.6,1-6.1,10.2-12.1,20.4-18.2,30.6.3.2.5.4.8.6,4.2-5,8.4-10,12.8-14.9,4.2-4.8,7.9-10.1,12.7-14.4.4.5.8.9,1.2,1.4ZM263.2,56.4c.3-.2.5-.4.8-.7-.2-.2-.4-.5-.5-.5-.3.1-.7.4-1,.6.2.2.4.3.6.6Z"/>
  <path class="cls-1" d="M240.9,52.7c-5.4-9.4-10.8-18.9-16.1-28.3l1-.8c.8.8,1.8,1.5,2.4,2.5,4.9,8.7,10,17.3,14.5,26.2,1.3,2.5.6,5.9.8,8.3-1.8.3-2.8.5-3.8.5-.9,0-2,0-2.7-.4-13.7-7.9-27.4-15.9-41.1-23.9-.2-.1-.3-.4-.2-1.6,1.3.5,2.7.8,3.9,1.5,11.6,6.8,23.2,13.8,34.7,20.6,1,.6,2.1,1.1,3.7.9-10.7-9.1-21.3-18.1-32-27.2.2-.4.4-.8.6-1.2,1.2.6,2.4,1.1,3.4,2,7.6,6.5,15.1,13.1,22.7,19.6,1,.9,2.1,1.6,3.1,2.4.4-.4.7-.7,1.1-1.1-7-8.4-14-16.7-21-25.1.3-.3.6-.6.8-1,1.1.9,2.3,1.6,3.2,2.6,6.7,8,13.3,16.1,19.9,24.1.6.7,1.2,1.3,1.8,2,.2-.2.3-.3.5-.5-.5-.8-1-1.5-1.5-2.3ZM238.9,55.5c-.2-.3-.4-.5-.7-.8-.2.2-.5.4-.5.5.1.3.4.7.6,1,.2-.2.3-.4.6-.6Z"/>
  <path class="cls-1" d="M263.3,81.8c7.6,9.3,15.1,18.7,23,28.4-4.3-.8-27.9-30.9-27.8-34.8.6.3,1.5.8,1.6.7,3.4-3.1,5.7,0,8.1,1.4,12.2,7.1,24.4,14.3,36.6,21.6.7.4,1.3.9,1.9,1.4-.2.4-.5.8-.7,1.3-13.1-7.7-26.2-15.4-39.4-23.1-.8-.2-1.6-.4-2.4-.6,0,.2-.2.4-.2.6.5.3,1.1.6,1.6.9,10.7,9.2,21.5,18.4,32.2,27.7,1.1,1,2.1,2.2,3.2,3.3-.3.3-.7.7-1,1-11.9-10.2-23.8-20.3-35.8-30.5-.3-.3-.6-.5-.9-.8-.6-.5-1.3-.9-1.9-1.4-.1.2-.2.4-.4.5.5.6,1,1.2,1.5,1.8.2.2.4.4.6.6Z"/>
  <path class="cls-1" d="M237.7,233.4c1-5.8,2-11.5,3-17.3.6,0,1.1.2,1.7.3,0,5.1,2.1,10.2-1.6,15.4-1.7,2.3-1.3,6.1-1.8,9.3-.3,2-.7,4-1,6h-1.9c-.2-3.3-.3-6.4-.5-9.5h-.6c-.6,2.7-1.3,5.5-1.9,8.3-.5,0-1.1-.2-1.6-.3-.3-10.8,2.3-21.3,4-31.9,2.9,2.9,1.2,6.4,1.3,9.6,0,3.3,0,6.7,0,10,.3,0,.6,0,.9,0Z"/>
  <path class="cls-1" d="M239.8,75.6c3.7-1.4,3.9-1.2,3.4,4.1h0c-1.2.7-2.7,1.3-3.6,2.4-7.6,8.7-15.1,17.4-22.6,26.1-.6.7-1.5,1.3-2.2,2l-.8-.8c8.1-9.5,16.2-19,24.3-28.4.3-.3.5-.6.8-.9.4-.5.8-1,1.3-1.5-.1-.1-.3-.3-.4-.4-.6.4-1.2.9-1.8,1.3-.2.1-.4.3-.6.6-12.1,9.7-24.2,19.5-36.2,29.2-.3-.4-.6-.7-1-1.1,1-.9,2-1.9,3-2.8,10.6-8.5,21.2-17,31.8-25.6.8-.6,1.4-1.6,2-2.4,0,0,0,0,0,0l2.6-1.7s0,0,0,0Z"/>
  <path class="cls-1" d="M258.2,245.2c-.6-3.5-1.3-7-1.9-10.5-.2,0-.3,0-.5,0-.2,3.9-.5,7.8-.7,11.7h-1.9v-29.2c1.5.7,2.8,1.4,4.5,2.2.7,8.3,1.5,17,2.2,25.7-.6,0-1.2.1-1.8.2Z"/>
  <path class="cls-1" d="M313.4,143c12.1,14.7,24.3,29.3,36.3,44.2-.5.4-1.1.9-1.6,1.3-12.1-14.8-24.2-29.5-36.3-44.3.5-.4,1.1-.8,1.6-1.2Z"/>
  <path class="cls-1" d="M307.1,229.7c-5.6-15.9-11.2-31.7-16.8-47.6.6-.2,1.3-.5,1.9-.7,5.6,15.9,11.3,31.8,16.9,47.6-.7.2-1.4.4-2,.7Z"/>
  <path class="cls-1" d="M319.9,45c-17.1,5.9-33.4,11.5-49.7,17.1-.1-.3-.2-.7-.3-1,5.6-3.7,46.5-17.5,50-16.1Z"/>
  <path class="cls-1" d="M232.6,62c-16.3-6-32.5-11.9-48.8-17.9,0-.4.1-.8.2-1.2.9,0,1.9-.3,2.7,0,15.2,5.7,30.3,11.5,45.5,17.2.3.1.6.5.9.7l-.5,1.2Z"/>
  <path class="cls-1" d="M306.8,165.2c8.5,15,17,30.1,25.5,45.1l-1.8,1c-8.5-15.1-17-30.3-25.5-45.4.6-.2,1.1-.5,1.7-.7Z"/>
  <path class="cls-1" d="M150,183.6c11.1-13.7,22.9-26.8,34.5-40.1.4.3.8.7,1.2,1-11.4,13.4-22.7,26.8-34.1,40.2-.5-.4-1.1-.7-1.6-1.1Z"/>
  <path class="cls-1" d="M194.3,166.1c-8.4,14.5-16.8,29.1-25.2,43.6-.6-.3-1.1-.7-1.7-1,8.1-14.7,17-29,25.6-43.5.4.3.9.6,1.3.9Z"/>
  <path class="cls-1" d="M274.5,137.8c-5.7-16.3-11.5-32.7-17.2-49,.5-.2,1-.3,1.5-.5,5.8,16.3,11.7,32.7,17.5,49-.6.2-1.2.3-1.8.5Z"/>
  <path class="cls-1" d="M224.2,136.6c6.2-16.4,12.3-32.9,18.5-49.3l1.5.5c-6.1,16.4-12.2,32.9-18.3,49.3l-1.7-.5Z"/>
  <path class="cls-1" d="M190,227.5c4.5-13.9,10.1-27.3,15.3-41,.5.2,1,.4,1.6.6-5,13.7-10,27.3-15,41-.6-.2-1.3-.4-1.9-.6Z"/>
  <path class="cls-1" d="M237.3,77.2c-2,.9-4,1.7-5.9,2.8-11.7,6.6-23.4,13.3-35.1,19.9-.5.3-1.2.3-2.2-.2.6-.5,1.1-1.2,1.8-1.6,13.3-7.5,26.5-15,39.9-22.4,1-.6,2.6-.1,4-.1,0,0,0,0,0,0-.9.6-1.7,1.2-2.6,1.7,0,0,0,0,0,0Z"/>
  <path class="cls-1" d="M358.7,162.2c-11-9.5-22-19-33.6-29,3.9,0,33.4,25.2,33.6,29Z"/>
  <path class="cls-1" d="M268.9,74c13.8,5.2,27.7,10.4,41.5,15.6-.2.6-.4,1.1-.7,1.7-13.8-5.3-27.6-10.5-41.4-15.8.2-.5.3-1,.5-1.5Z"/>
  <path class="cls-1" d="M232.5,75.6c-14,5.1-27.9,10.2-41.9,15.2-.2-.6-.4-1.2-.6-1.7,14.1-5,28.1-10.1,42.2-15.1.1.5.2,1.1.3,1.6Z"/>
  <path class="cls-1" d="M243.2,79.6c0,1,.3,2.2-.1,3-7,12.2-14.1,24.3-21.2,36.4-.2.3-.6.5-.9.7-.4-.2-.8-.5-1.1-.7,7.8-13.1,15.6-26.3,23.4-39.4,0,0,0,0,0,0Z"/>
  <path class="cls-1" d="M274.3,68.1h33.9c0,.2,0,.5,0,.7h-33.9c0-.2,0-.5,0-.7Z"/>
  <path class="cls-1" d="M227.4,72.8c-13.2,2.3-26.5,4.6-40.1,7,1.9-2.5,34.5-8.7,40-8,0,.3,0,.7,0,1Z"/>
  <path class="cls-1" d="M274.3,71.6c13,2.4,26,4.8,39,7.2-.1.6-.2,1.3-.4,1.9-13-2.5-26-5-38.9-7.5.1-.5.2-1.1.3-1.6Z"/>
  <path class="cls-1" d="M227.2,68.1h-33.7v-.9h33.7c0,.3,0,.6,0,.9Z"/>
  <path class="cls-1" d="M261.6,214.7c3.1,4,6.1,26,3.5,28.4-1.6-9.6-3.2-18.9-4.8-28.2.4,0,.8-.2,1.3-.2Z"/>
  <path class="cls-1" d="M279.8,121.2c-7.4-13.3-14.9-26.5-22.3-39.8l1.3-.7c7.5,13.2,15,26.4,22.5,39.6-.5.3-1,.6-1.5.9Z"/>
  <path class="cls-1" d="M172.2,132.8c-10.1,8.3-20.3,16.7-30.4,25-.4-.4-.7-.9-1.1-1.3,9.7-8.9,20.4-16.6,30.5-25l1,1.3Z"/>
  <path class="cls-1" d="M235.6,142.2c2.5-12.5,4.8-24.7,7.3-37.5,1.7,5.1-4.3,35.2-7.3,37.5Z"/>
  <path class="cls-1" d="M249.5,217.2c4.1,9.8.9,19.3,1.9,28.6-.4.2-.8.4-1.2.6-.6-1.2-1.8-2.4-1.8-3.6-.2-7.9,0-15.8,0-23.7,0-.4.5-.9,1.2-2Z"/>
  <path class="cls-1" d="M362.7,135.8c-9.3-5.6-18.3-11-27.3-16.5,4.9-.5,26.9,13.3,27.3,16.5Z"/>
  <path class="cls-1" d="M304,60.4c-10,1.6-19.9,3.2-29.9,4.7,0-.6-.2-1.1-.3-1.7,9.9-1.7,19.9-3.4,29.8-5.1.1.7.2,1.4.3,2Z"/>
  <path class="cls-1" d="M164.1,117.9c-8.3,4.8-16.5,9.7-25.2,14.7.4-3,14.5-11.9,24.3-15.9.3.4.6.8.8,1.2Z"/>
  <path class="cls-1" d="M262.4,143.1c-1.8-10.7-3.6-21.3-5.5-32,.5,0,1-.2,1.5-.3,2,10.6,4,21.3,6,31.9-.7.1-1.3.2-2,.4Z"/>
  <path class="cls-1" d="M227,64.5c-9.6-1.8-19.2-3.5-28.7-5.3.1-.6.2-1.2.3-1.7,9.7,1.8,19.3,3.6,29,5.5-.2.5-.4,1-.6,1.6Z"/>
  <path class="cls-1" d="M235.6,21.9c2.9,8.6,5.9,17.1,8.8,25.7-.5.2-1.1.4-1.6.6-3.1-8.5-6.2-17-9.3-25.5.7-.3,1.4-.5,2.1-.8Z"/>
  <path class="cls-1" d="M257.3,48.3c3.2-8.8,6.4-17.6,9.6-26.4l2,.7c-3.3,8.7-6.7,17.4-10,26.1-.5-.1-1.1-.3-1.6-.4Z"/>
  <path class="cls-1" d="M245.2,247.5v-25.2c2.8,2.8,3.3,19,0,25.2Z"/>
  <path class="cls-1" d="M259,210.6c-4,2.7-12.5,2.9-15.6.4,3.5-3.8,12.3-4.1,15.6-.4Z"/>
  <path class="cls-1" d="M244.2,21.3c1.2,7.8,2.5,15.5,3.7,23.3-.6,0-1.2.2-1.8.3-1.3-7.7-2.7-15.5-4-23.2.7-.1,1.4-.3,2.1-.4Z"/>
  <path class="cls-1" d="M260.5,21.6c-1.5,7.8-3,15.6-4.5,23.4-.6-.1-1.2-.2-1.7-.3,1.4-7.8,2.7-15.6,4.1-23.4.7.1,1.4.3,2.2.4Z"/>
  <path class="cls-1" d="M250.5,143v-32c.3,0,.5,0,.8,0v32c-.3,0-.5,0-.8,0Z"/>
  <path class="cls-1" d="M360,110.6c-5.7-2.3-11.4-4.5-17.2-6.8.2-.6.5-1.2.7-1.8,5.8,2.2,11.6,4.5,17.4,6.7-.3.6-.6,1.3-.9,1.9Z"/>
  <path class="cls-1" d="M250.2,44.5v-23.2c.4,0,.7,0,1.1,0v23.3h-1.1Z"/>
  <path class="cls-1" d="M189.3,57.4c-5.8-1-11.6-2-17.8-3,2.5-2,12.4-.7,17.9,1.9,0,.4-.1.8-.2,1.1Z"/>
  <path class="cls-1" d="M268.1,219.6c2.5,4.6,2.2,9.8,1.6,15.1-1.2-4.9-2.4-9.7-3.6-14.6.7-.2,1.3-.3,2-.5Z"/>
  <path class="cls-1" d="M232.6,212.7c-.3,4.4-.6,8.9-.9,13.3-.4,0-.7,0-1.1,0v-13.3c.7,0,1.3,0,2,0Z"/>
  <path class="cls-1" d="M141.1,106.9c4.6-1.7,9.2-3.4,13.8-5.1.2.5.4,1,.6,1.6l-13.5,5.5c-.3-.7-.6-1.3-.9-2Z"/>
  <path class="cls-1" d="M243,249.6c-3.4-4-3.1-9.4,0-12.9v12.9Z"/>
  <path class="cls-1" d="M220.1,173c-5.8,0-7.4-3.6-9.5-6.7.3-.3.5-.7.8-1,2.6,2.3,5.2,4.7,8.7,7.7Z"/>
  <path class="cls-1" d="M272.4,202.6c.3,3,.7,6,1,9l-1.7.3c-.4-3-.9-6-1.3-8.9.7-.1,1.4-.2,2.1-.4Z"/>
  <path class="cls-1" d="M292.5,117.4c1.9,2.4,3.8,4.8,5.7,7.1-.5.4-1,.7-1.4,1.1-1.9-2.4-3.7-4.8-5.6-7.2.5-.3.9-.7,1.4-1Z"/>
</svg>