<?xml version="1.0" encoding="UTF-8"?>
<svg id="Calque_1" data-name="Calque 1" xmlns="http://www.w3.org/2000/svg" version="1.1" viewBox="0 0 295 295">
  <defs>
    <style>
      .cls-1 {
        fill: #d8d8d8;
        stroke-width: 0px;
      }
    </style>
  </defs>
  <path id="Arrow" class="cls-1" d="M57,190.8c.6,0,.9-.4.9-.8,0-.7.7-.8,1-.2.2.5-.1,1-.8,1.3-.3.1-.6.3-1.1.6.1-.3.1-.5,0-.4-.8.9-1.5,1.6-.9.4.4-.7.5-.9.9-.9ZM63.2,191.9c.2-.7-.5-1.4-.9-.9-.1.3,0,.6.2.9.4.4.5.4.6,0ZM57.6,194.5c0,.2,0,.3.3.4.5.1,1.8,1.4,1.9,1.9,0,.2.3.4.5.3s.7.1,1,.3c.7.4,1.3.1,1.2-.5,0-.2,0-.4.6-.8.6-.5.7-.6.5-.9-.2-.4-.7-.2-.7.3,0,.1-.1.4-.3.5-.5.4-1.6-.7-1.3-1.3.1-.2,0-.4,0-.5-.2,0-.2-.2,0-.4.8-.6.4-1.8-.7-2-.3,0-1.3.6-1.2,1.1-.3.2-.9,0-.7-.3.3-.4-.2-.7-.5-.4-1.1.9-.1,1.5-.4,2.2ZM48.8,184.4c0,0,.2,0,.7-.5-.3-.1-.7.2-.7.5ZM54.2,184.6c-.2.3,0,.8.2.8.8-.2.1-1.2-.2-.8ZM51.1,180.9c-.3.5-.2.6.4.4.6-.2.7-.5.2-.6-.3-.1-.5,0-.6.3ZM53.4,182.1c-.9-.7-1.5-.3-.9.7.2.4.4.8.5,1,.2.9,1.7-.7.4-1.7ZM55.5,190.5c-.7.6-.3.8.2.4.6-.5.4-.8-.2-.4ZM3.1,144.6c-.4.1-.2.7.3,1,.7.4.6-1.2-.3-1ZM2,141c.8.1.9,0,.2-.8-.6-.8-1.2-.9-1-.3,0,.2,0,.4,0,.5-.3.2.2.5.8.6ZM2.8,143.5c1.7,1.7,0-.4,0-.9,0-.5-.4-.7-.7-.3-.2.3,0,.4.7,1.2ZM2.5,136.7c-.6-.7-1-.4-1.3.9-.2.9-.2.9.5,1.3.9.6,1.6.2,1.1-.6-.2-.4-.3-.7,0-.9.2-.2.2-.4-.2-.8ZM47.6,176.6c.7,0,.7,0,1.1-.6.4-.7-.1-1.3-1-1.1-.4,0-.7,0-1-.1-.6.3.2,1.7,1,1.8ZM113.9,254.1c-.3.4.3,1,.7.8.6-.2.7-.6.3-.9-.4-.3-.7-.3-1,.1ZM109.3,250.1c-.6.5-2,.4-1.5,1,.2.2.4.1,1.1-.4.6-.4.9-.7.3-.7ZM103.3,248.9c-.6.9,1.1,0,1.2-.3,0-.3-.9,0-1.2.3ZM131.7,273.9c-.5.8-.4.9.5.4.9-.4.9-.4.8-1-.1-.5-.7-.2-1.3.6ZM148.4,274.9c-.9,1-1,1.3-.5,1.2.3,0,.6-.2,1.9-1.4,2-1.8,2-1.8,2.6-1.7.5,0,.5,0,.9-.5.9-1.4,6-4.2,4.7-6.3-.6-.9-1.9-.3-3.1,1.4-1,1.3-1.1,1-1.8,2.2-.3.5-.8,1.1-1.1,1.3-.8.6-1.1,1.1-3.5,3.7ZM32.8,170.9c-.3.4-.4.6-.1.4.8-.6.7-1.1.1-.4ZM67.6,198.4c-.3,0-.5,0-.8-.2-.4.3.2,1.2.7,1,.6-.2.7-.8.1-.8ZM93.3,228.2c-.4.4.2,1.3.8,1.1.6-.2,1-.5,1-.9,0-.4-1.4-.6-1.8-.2ZM84.4,215.5c-.6.4-.3.8.4.2.6-.5.3-.7-.4-.2ZM4,148.2c-.8-.4-.8,0-.2.6.6.7.8.7.7.2,0-.3,0-.3.4-.2.3,0,.5,0,.5,0,0-.2-.6-.5-.8-.4,0,0-.4,0-.6-.1ZM5.4,134.8c.2-.4-.2-.9-.7-.9-.4,0-.6,1.7-.3,2,.3.3-.2.5-.7.2-.4-.2-.5-.2-.9,0-.4-.6-.5-1-.2-1.2.1,0,.3-.6.3-1.1,0-.7.3-1.1.9-1.5.4-.3.9-.8,1-1.2.3-.7.5-.9,3.2-3.7,4.1-4.2,2.6-3.3,7.4-7.9,4.1-3.8,5-4.3,17.1-12.9,2-1.4,2.7-2.3,5.3-4.7,7.1-6.2,5.4-6.5,18.4-18.4,1.2-1.1,2.7-2.6,3.4-3.3.7-.8,1.5-1.5,1.8-1.7.6-.4,1.2-1.5,2.1-2.4.7-.7,8.5-9,9-9.6,5-5.4,4-3.6,5.5-5.4.3-.3,1.4-1.2,2.4-1.9,1-.7,1.9-1.4,1.9-1.4,0-.7,11.3-7.5,15.2-10.8,9.3-7.8,33.9-21.9,42.7-25.1q4.4-1.6,8.7-2.5c2.2-.5,5.8-.9,7.1-.8,3.9.2,10.9-.5,14.7,2.4,1.9,1.4,4.2,1.9,5,2.9.2.3.7.8,1.1,1.1,3.5,3.2,3.2,2.9,5.6,7,1.6,2.7,3.6,3.2,5.4,5.7,1.5,2,1.7,2.3,2.2,2.9,1.2,1.4,2,5.2,1.3,6.2-.9,1.3-1.3,2.8-1,3.9.2.7-.3,1-1.3,2.7-.8,1.3-5,3.8-7.1,4.2-1.5.3-3.1,1.5-4.8,2.1-.7.2-1.8.8-2.6,1.4-2.3,1.7-5.8,3.8-10.9,6.5-6.9,3.7-3,1.9-15.6,10-7.3,4.7-11.1,7.4-11.3,8,0,.1-3.2,2.2-7,4.6-10.4,6.6-7.8,5.3-13.8,9.3-1.3.9-2.7,2-3,2.3-.3.4-6.3,6.2-11.7,11.4,3,0,6.8-.2,9.7-.3,5.2-.2,8.6-.1,10.5.2,6.2,1,7.7.9,18.4,1,5.6,0,17.6.6,23.4.9,4.9.2,22.5,0,39,.6,16.5.5,32,1.9,32.7,1.9,7,.5,9.3.5,15.7,0,1.4-.1,2.9-.2,3.4-.3.5,0,1.3-.1,1.7-.2.4-.1,1.4-.2,2.3-.2,2.7-.1,9.1-.4,10.5-.4.7,0,1.4,0,1.5.1.2.4,1.6.5,2.8,0,1.3-.5,2.2-.4,2.8.3.3.3.6.4,1.3.2.6-.2,1,0,1.2.2.2.3.5.3,1,.1.9-.4,1.7-.5,1.7-.4,0,0,1.5.5,3.3,1,3.2.9,4,1.3,7.1,3.8,1.3,1,1.4,1.4.4,2.2-.9.8-1,2.1-.2,3.4.3.6.6,1.2.6,1.4,0,.2.2,1.3.4,2.4.3,1.1.6,2.5.6,3,.1.9.2,1,.5.7.5-.4.5-.4.4.3,0,.7.2,1,.6.6,0,.2,0,.6,0,.9.2.6,0,1-.2.7-.1-.1-.3,0-.3.1,0,.4.1.9.4,1,.4.2.4.5,0,1-.5.7-2,.6-2.5-.2-.8-1.3-1.5-2.3-1.9-2.3-.3,0-.5-.5-.7-1.5-.2-.8-.5-1.5-.5-1.5,0,0-.1-.5,0-1.1,0-.8,0-1.2-.5-1.7-.3-.4-.6-1.1-.6-1.6-.1-1.1-2-2.3-2.4-1.5-.2.5,0,2.7.3,2.8.3,0,1.3,1.9,1.4,2.3,0,.2.2.6.5.9.3.4.6,1,.7,1.5.1.5.4.9.6,1,.3.2.3.4.1,1.3-.2,1-.1,1.2.1,1.3.7.4,1.1,4.6.6,6.1-.2.4-.3,1-.3,1.4,0,.4-.2,1.1-.5,1.8-.5,1.1-.9,1.5-.6.5.3-.8,1-4.9.9-5.1-.1-.3-1.4.3-1.6.8-.2.4-.2.2-.2-.8,0-1.3-.1-1.6-.9-2.2-.4-.3-.4-.2-.5.3,0,.4,0,.7.2.8.2.1.3.6.2,1.7,0,.9,0,1.9.2,2.2.1.4.2.9,0,1.2,0,.3,0,.8,0,1.1.3,1.3-.4,2.5-2,3.7-.8.6-1.6,1.3-1.7,1.5-.1.3-.6.7-1,1-.4.3-.8.8-.9,1.1-.2.7-2,3.3-2.7,3.9-.3.3-.6.8-.8,1.2-.2.7-.3.7-.6.2-.4-.7-.5-.7-1.2.1-.5.5-.9.7-1.5.7-.5,0-1.2.2-1.6.5-.5.3-1.4.5-2.5.5-1,0-1.9,0-2.2.2-.2.1-1.1.3-1.9.5-.8.1-1.7.4-2.1.6-.4.2-1,.3-1.5.4-1.2,0-2.2.4-2.8,1-.4.4-1,.4-3,.2-2.5-.3-3.5-.2-5.1.4-.5.2-1.2.3-1.4.3-.3,0-1,.1-1.7.4-2.6.9-4.5,1.2-9.7,1.2-1.6,0-23.5,0-25,.3-2.5.3-14.5.3-14.7,0,0,0-.5,0-1,0-.5.1-1.4.3-2.1.3-.7,0-1.5.2-1.9.4-.3.2-1.8.1-3.4,0-1.5-.2-3.6-.3-4.5-.2-1.5.2-6.4.2-9.5,0-1.6-.1-8.6-.8-8.7-1-.2-.4-12-1.8-13.9-1.6-4.5.1-16.6-.1-17.7-.7-.4-.2-1.3-.4-1.9-.5-.6,0-1.6-.2-2.1-.3-1.7-.3-3.9-.4-4.4-.1-.3.1-1.9.1-3.6,0-1.7-.1-3.9-.1-4.9,0-5.5.7-10.4-.2-13.8-.8-6.8-1.1-5.9-.9-9-1.9,0,.2-.2.3-.3.4-.3.2-.5.5-.5.6,0,.2.8,0,.9-.3,0-.2.7.8.7,1.2.2,4.7,17.9,22.1,19.4,23.4,2.1,1.7,0,2.1,1.6,2.4.6.1.8.3,1,.8.2.4.4.7.7.7.6,0,.8.3.3.8-.3.3-.3.5,0,.5.6,0,1.2,1.1,1,1.6-.3.8,1.1,1.4,2.4,1,.5-.2.5-.1.4.5-.1.8,0,.9.8.7.9-.2,1.1,0,.9.9-.1.7-.1.7.4.6.6-.1.7,0,1.7,1.4.4.5.7.8.9.7.2,0,.3,0,.2.3,0,.5,2.2,2.8,2.7,2.8.2,0,.6.3.9.6,1.1,1.1.5-.5,4.1,3,.1.1.4.2.6.2.2,0,.2.2,0,.6-.2.6-.2.6.1.4.4-.3,1.3.3,1.1.7-.2.3,2.4,2.8,2.9,2.8.7,0,.6.5,3.8,2.9.3.3,1.2,1,1.9,1.7,2,1.8,2,.9,3.2,2.4,1.1,1.4,1.5.7,2.3,1.7.3.4.8.7,1.2.7.5,0,.6.1.6.5,0,.5.4.8,1.2.6.5,0,2.1,1,2,1.4-.2.4,1.4,2.4,2.4,2.6.6.1,1.7,1.1,1.5,1.3-.3.4,0,.6,1,.7,1.6.1.6,1.1,2.1,1.9,1.1.6,1.5,2.4.7,3.6-1.5,2.2,2.2.7,3,1.1.7.3,3.4.6,4.5,1.6.5.4,1.3.7,1.8.6.3,0,.5,0,.5.2,0,.2.4.3,1,.4,1.4.2,1.1.9,2,1.1.4,0,.7.3.7.4,0,.6,3.4,4.1,3.1,4.6,0,.2,0,.4,0,.5,0,.1,0,.3,0,.5-.6.8-.3,1.7.5,1.8.7,0,.8.1.6.9-.1.4-.1.8,0,.9.4.3.3.5-.7,2.6-.6,1.2-1,2.2-.9,2.3,0,0,0,.4-.2.6-.2.2-.4.7-.4,1-.1.7-2.3,3.8-3,4.3-.3.3-.7.6-.8.8-.3.6-4.4,3.6-5.4,3.9-3.8,1.4-3.9,2.3-6.2,3.3-.7.3-1.8,1.2-2.1,1.2-.2,0-.4,0-.6.2-.6.4-.9.3-.9-.3,0-.5,0-.6-.7-.6-1.8,0,.7-1.6.4-2.3-.5-1.6-1.1-2-2.1-1.5-.8.3-1.2.3-.5,0,.5-.2.3-.7-.1-.5-.1,0-.3,0-.4-.3-.5-1.4-3,.3-3.8,2.5-.3.9-4.2,3.8-5.4,5.1-1.7,1.8-3,1.1-4.8,3-3,3.1-2.5-.5-1.4-1.1.4-.2,1.6-1.6,2.5-2.3,2.5-2.1,4.3-4.8,2.9-4.3-1.8.6-3.5,2.9-4.8,4.4-1,1.2-2.3,1.4-1.5.2.8-1.1.6-1.7-.4-1.8s-1.3,0-2.9,1.3c-2,1.5-2.2,1.7-2.4,2.2-.1.4-.2.5-1.5,1.1q-1.5.8-1.4.2c0-.3.3-.5.6-.7.6-.3.6-.7,0-.4-.5.2-.9-.5-.6-.9.3-.5,0-.9-.4-.7-.4.2-1.4-.5-1.2-.8.1-.1,0-.5-.2-.9-.2-.3-.4-.9-.4-1.2,0-1-.9-.9-.7-1.6.1-.3,0-.7-.2-1s-.3-.6-.2-.8c.3-.5-1.2-1.4-2.3-2.3-.7-.6-.9-.6-1.2-.3-.5.4-.2,2,.3,1.9.3,0,.4,0,.3.4,0,.2.3.8.7,1.3.4.5.6,1,.5,1.1-.1.1,0,.4.1.6.5.6-.4,1-.7.7-.1-.2-.6-.3-1-.4-.8,0-.8,0-.5-1.1.4-1.8-.4-.6-1.2-1.9-.7-1.2-2.2-.1-1.9-1.3.2-1-.5-.3-1.6-1.3-.3-.3-.7-.5-.9-.5-.1,0-.2-.2,0-.4s.1-.6,0-.7c-.4-.4.7-1.8.2-1.9-.2,0-.2-.3,0-.7.5-.7.2-.6-1.3-1.8-.8-.6-2.7-1.1-3.4-.8-.9.4-1,.2-.2-.6.7-.7.4-1.7-.3-1.4-.6.2-1.6-.8-1.4-1.3.3-1.1-1.5-.9-1.9-2.4-.3-1.1-.5-.3-1.2-1-.7-.7-1.4-1-1.9-.9-1.1.5-3-3-4.1-2.6-.7.2-.7.1-.4-.4.6-.9-2-.8-2.2-2-.1-1.2-2.1-.2-1.5-1.1.3-.5-.1-.7-1.3-.8-.6,0-.7-.1-.4-.6.2-.5.2-.6-.4-.6-1.3,0-1.1-1.5-2.1-1.5-.4,0-.5-.2-.7-.7-.3-1.2-.5-1.6-.8-1.4-.5.2-1-.5-.7-1,.3-.5-.3-.8-.8-.4-.6.4-.8,0-.3-.6.3-.3.4-.5.2-.5-.2,0-.4-.1-.4-.1-2,1.2-1.1-.9-2-1-1.2,0-1.8-.5-1.4-1,.5-.5.2-1-.5-.7-.4.2-.4.2-.3-.3.2-.8-.4-1-1-.3-.8.8-1.2.3-.5-.7.6-.7.5-.9-.4-1-.6,0-.7-.2-.4-1.1.1-.4,0-.4-.4-.2-1,.4-.2-.5-1.2-.8-.5-.2-2.5-1.8-2.9-2.3-1.5-2.1-2.1-2.4-2.8-1.8-.6.5-.8.5-.5,0,.2-.3.4-1.3.2-1.5-.8.6-1,.5-.8,0,.2-.3-.7-1.5-1.3-2.6-.2-.4-.5-.7-.8-.7-.3,0-.4-.1-.4-.4,0-.9-2.7-2.7-3.7-4.6-.5-.9-.8-.9-1.1-.1-.2.4-.2.5-.7.5-.9.1-.8,0,.2-.8q.9-.7-.2-1.6c-.6-.5-1.1-1.1-1-1.2.3-.4-.4-1.5-2.8-4-1.3-1.5-2.4-2.8-2.4-3,0-.2-.2-.2-.6,0-.8.4-1.1.1-.4-.3.5-.3.4-.4-.4-1.6-.5-.7-1.1-1.3-1.3-1.2-.3,0-.3-.1,0-.6.6-.8.7-.8,2.2.6,1.9,1.6,2.1,1.1,2.4,1.4.3.3.9-.2.3-.4-.4-.1-.3-.2.3-.7.6-.5.7-.5,1-.1.3.5.2.9-.4,1.1-.7.2-.7.5,0,.7.6.2,1,.2.8,0-.2-.2.3-1,.7-1.1.3,0,.3,0,.2.2-.2.5.5.8.4,1.4-.1.8,3.1,2.3.3,2.3-.9,0-1.5.2-1.4.4.6,1,1.4,1.8,1.8,1.6.4-.3,1,.6.8,1.2-.2.4.9,2.1,1.2,2,.3-.9.4-1.1,1.3-1.4.8-.3,1.8.1,1.4.7-.3.4.1.7.7.5.6-.2,1.1.2.8.7-.3.5.3.3.7-.3.8-1.2,1.7-.5.7.2-.8.6-1,1.1-.4,1.1.3,0,.6,0,.7-.2.5-.4.4,0-.1.7-.7,1-.9,1.1-1,.7,0-.2-.4-.3-.7-.3-.6,0-.7,0-.5-.5.3-.7.2-1.1-.3-1.1-.4,0-1.2-.4-1.9-1.1-.8-.7-.6.8.2,1.8.4.6.8,1.1.7,1.3,0,.4,3.7,4.5,4.1,4.5.3,0,.4-.1.6-.6.2-.3.6-.8.9-1.1.4-.3.6-.6.6-.6.5-.6.7-.6.9-.5.1.1.4.2.6.1.4-.1.3,0-.7,1-.5.4-.2,1.1.4,1,.2,0,.4.3.6.7.4,1,.7,1.4,1.4,1.4,1.1,0,0,.9.8,1.8.4.4.4.6,0,1.2-.5.9-.1,1,.7.2.9-.9,1.3-.8,2.9.7,2.2,2.2,2.8,1.6,2.8,2.5,0,1.5.8,2.2-.1,2.5-.7.2-.8.5-.5.8.2.2.3.2.9-.3,1-.8,1.1-.6.2.3-1.3,1.3-.3,1.3-.9,1.7-.1.1.2.1.7,0,.7-.2,1-.1,1,.1,0,.5,1.3.5,1.9,0,.6-.5,2.3-.7,1.5-.2.2.3.3.3.4.6,0,.3.3.4.6.3,1.1-.4,1.1,1,0,1.3-.7.2-1.3,1-1.2,1.4.2.4.4.4.8-.2.4-.6,1.5-1.1,1.7-.9,0,0,.2.2.3.2.2.1-1.6,1.7-1.9,1.4-.3-.4-1.5,1-.6.8.2,0,.5,0,.6.1.3.3,1.1-.1,1.3-.7.2-.6.4-.7,1.5-.9,1.3-.2,1.6-.7.8-1.2-1.8-1-3.9-4.3-3.2-4.9.8-.7,0-1.5-1.2-1.2-1,.3-1.2.2-.6-.4.5-.6.3-1.3-.6-1.6-1.1-.4-2-1.2-1.8-1.6.1-.3,0-.3-.2-.2-.2.1-.6-.2-1.2-.8-.9-1.1-1.5-1.2-2-.3-.9,1.5-1.5-.5-.8-.9.7-.4.9-1.2.3-1.6-1.1-.6-1.5-.8-2-.7-.7.2-.8,0-.4-.7.4-.7.2-.9-.6-.8-.7.1-1.1-.4-.8-.9.2-.3.1-.4,0-.4-.2,0-.7-.3-1-.8-1-1.2-1.5-1.2-3.2-.3-1.4.9-1.6.9-1.5.5.1-.5,1.5-1.3,1.6-.9.1.5.8-.3.9-1.1,0-.9,0-1.1-.6-.6-.6.5-.7.4-.3-.4.5-1-.6-.4-.2-1.6.2-.6.2-.7-.2-.6-.3,0-.5,0-.5-.2,0-.2-.4-.4-.8-.4-.5,0-.7-.2-.6-.5,0-.4,0-.5-.6-.6-.7-.1-.5-.4-1.1-.6-.4-.1-.5-.3-.4-.7.2-.7,0-.8-.8-.3-.5.3-.8.5-.9.7-.5,1-1.4,1.3-2.5.8-.6-.2-.6-.3-.3-.8.2-.3.2-.6.1-.8-.3-.3,0-.7.6-.8.6-.1,2.1-.9,2.3-1.1,0,0-.3-.2-.7-.2-.9,0-1.1-.2-.5-.4.7-.2.6-.7-.3-2.4-.5-.8-.7-1-1.3-1-.6,0-.7,0-.6-.4.1-.5-.2-1-.7-.8-.2,0-.3-.1-.3-.6,0-.9-1.3-2.3-2.1-2.1-.6.3-.8,0-.5-.7.2-.3.2-.6,0-.6-.6,0-2.2-2-2-2.5.2-.5-.2-.8-.9-.7-.4,0-1.1-.7-.8-.9.9-.2,1.2-.6,1-.8-.1-.1-.1-.3,0-.5.3-.4-.5,0-1,.5-.5.5-.8.4-2.2.3-.4,0-.4-.1-.2-.6.2-.5.2-.5-.3-.4-1.2.2-1.7,0-1.2-.4.6-.6.5-1.1-.5-1.9-2.4-2-3.6-4.7-5.6-6.1-.3-.2-.6-.6-.5-.8,0-.3,0-.4-.4-.4-.4,0-.4,0-.2-.4.3-.5,0-.8-.4-.6-.2,0-.3,0-.3-.2,0-.5-.3-1-1.7-2.5-.9-1-1.2-1.5-1.1-1.8.1-.2,0-.3-.1-.4-.6,0-1.7-1.1-1.6-1.4.2-.7-2.6-.3-1.8.5.3.3.2.4-.8.9-1.2.6-.8,1-2.3.5-1.1-.4-1.2-.4-.9-.9.3-.5.2-.5-.3-.3-.4.2-.5.2-.4,0,.2-.5-.5-1.6-.9-1.4-.4.2-.4-.3-.9.2-.5.4-.5.3-.1-.4.6-.9-.1-1.7-1-1.3-.5.3-.6.3-.3,0,.7-.8.2-1-1.4-.6-1.3.4-.1-.2,0-1-1.1.4-2,.6-2.9.7-.2.3-.4.3-.3,0-1.5,0-1.1,0-1.7,0-.8,1-1.1,1.3-.8.7.4-.8.2-.7-.5,0-.2.3-.3.4-.4.6,0,0,0,0,.1-.2.7-1,.7-1.7,0-.8,0,.2-.2.2-.2,0,0-.3-.2,0-.5.9-.3.9,0,0,.1-1.5-1.8-.5-2.2-1.4-.2-2.1.3-.1.6-1.3.3-1.6-.2-.2-3.2-1.3-4-1.4-.4,0-.9-.2-1.1-.3-.3-.1-.6-.1-.6-.1-.2.1-1.3-.4-2-1.2-.7-.7-.7-.7-.3-1,.2-.2.3-.4.3-.6-.2-.8.7-.8,2.2-.2,1.3.6,1.5.6,2.1.3.5-.3.7-.3,1.2,0,.6.4,1.2.2.7-.3-.4-.4-.3-.5.5-.3.7.2,1.2-.4.8-1-1-1.5-2.5-.7-4.1-1.2-1.2-.4-1.1.5-1.9-.2-.8-.7-.7.2-2.3,0-.5,0-1.1,0-1.2,0-1,.6-3.2-.5-2.6-1.3.5-.7.4-.9-.8-1.4-.6-.2-1.2-.4-1.4-.4-1,0-2.7.4-3.6-.4-.2-.2-.5-.3-.6-.2-.1,0-.4,0-.7-.4-.3-.3-.6-.5-.8-.5-.7,0-.6-.6.2-.9.7-.3.7-.3.4-1.8-.4-1.8-1-2.7-1.5-2-.9,1.2-2.5-2.9-.7-1.2.3.3.6.4.7.3.2-.1.1-.2-.3-.6-.5-.4-.5-.6-.5-1,0-.4.1-.5.3-.3.6.6,1.2.2.8-.5-.3-.4.2-.7.6-.4.6.5-.9-2.5-1.2-1.3-.1.5-.2.5-.8-.3-.5-.7-.3-1.1.7-.5,0-1.1-2.5-.1-1.7-1.7.2-.3.2-.8,0-1.1-.5-.9.6-.5-.4-1.6-.8-.8-1-1.2-.7-1.6-.5-.6-.8-1.5-.6-1.9ZM284.9,140.6c.1,0,.1-.3,0-.7-.1-.5-.2-.5-.3-.3,0,.2,0,.5,0,.7,0,.2.2.3.3.3ZM169.8,262.3c.5-.4.2-.7-.3-.3-.5.4-.2.7.3.3ZM151,265.2c-.1,0-.4.2-.6.5.3.2.9-.6.6-.5ZM150.7,250c.3.2.5.4.3.6-.2.3,0,.5.5.7.7.2,2.5-1.8,1.4-1.9-.4,0-.4-.1,0-.5.2-.3.3-.6.2-.7-.1,0-.2-.3-.2-.5,0-.4-1.3-.3-1.7.1-.5.4-.4,1-.7,1.5-.2.2,0,.4.3.6ZM149.3,241.3c-.2,0-.4,0-.6,0-.5.3-.3.4.6,0ZM136.6,231.5c-.7,0-1.1.3-1.1.7,0,.4,0,.4.9.3,1-.2,1.2-1,.2-1ZM137,259.9c-.2-.1-.4-.4-.3-.5.2-.5-1-2.1-1.5-2-.6.2-.4,1,.4,1.4.5.3.2,1.2-.4,1.3,0,.4.2.6.2.8,0,.5,3.1-.2,1.6-1ZM140.6,236.2c-.3-.3-.5-.3-1.1.4-.5.5-.3.6.6.2q.8-.3.5-.6ZM136.2,264.7c.8.7.6-.2,1.6-.5.6-.2.9-.8,1.4-.9.5-.1.6-.4.3-.9-.2-.3-.4-.3-.9,0-.3.2-.7.4-.9.4-.3,0-1.1.6-1.5.7-.2,0-.5.2-.6.4,0,.4.2.6.5.8ZM135.1,263c.3,0,.5,0,.6.1.6-.5.7-.8.7-.8-.1-.1-1.6.2-1.9.4-.3.3,0,.5.6.3ZM131.6,230.4c.2,0,.3-.3.3-.5,0-.5-.2-.5-.5,0-.3.5-.2.7.2.5ZM130.3,227.9c.2-.3.4-.7.4-.7.1-.2-1.6.3-1.9.5-.2.1-.3.4-.3.5,0,.9,1.1.7,1.7-.3ZM125.6,218c-1.4.4-2.7,1.7-2.4,2.4.2.6.2.6.7.5,1.3-.4,2.1-1.2,2.3-2.2q.2-1-.6-.7ZM126.6,227.8c.5.1,1.4-.5,1.3-.8-.1-.3-.6-.2-1.3.2-.7.4-.7.4,0,.6ZM125.8,262.5c.3-.2.3-.4.1-.5-.4-.2-.6-.1-.7.3-.1.6.1.7.6.3ZM124.5,261.9c.6-.5,0-.6-.3-.3-.3.2-.2.4.3.3ZM123.8,261c.5,0,.9-.7.8-1.2-.2-.5-.8-.5-1.4,0-.4.4,0,1.2.6,1.2ZM123,240.5c.6-.1,1.2-1,.9-1.3-.2-.3-1.3,0-1.6.5-.3.4.3.9.8.8ZM120.8,222.6c.2-.4-.2-.5-.7,0-.3.2-.4.5-.4.5.1.1,1-.2,1.1-.4ZM119.5,221.3c.3-.3,0-.5-.5-.2-.5.6.2.5.5.2ZM105.8,234c-.4.3-.2.9.3.8.4,0,.5-.1.6-.6.2-.6-.3-.7-.9-.1ZM116.5,206.4c-.5-.3-1.4,0-1.6.6,0,.2-.4.6-.7.8-.4.3-.7.7-1,1.3-.5,1-.4,1.2.3,1,.3,0,.6,0,.7,0,.2.2,1.9-1,2.2-1.6,0-.2.4-.5.7-.8.6-.5.6-.6-.6-1.4ZM116.3,220.5c.3-.2,1.3-1.6,1.4-2,.3-.8-1.1.1-1.5,1-.3.6-.3,1.2,0,1ZM115.7,219.1c.4-.2.6-.7.4-.9-.8,1.1-.8,1.1-.4.9ZM113.5,216.7c.5,0,.5,0,.3.7-.4.8-.3.9.8.8,1,0,1.3-.3,1.5-1.1q.2-.7-.6-.4c-.5.2-.9.1-1.1,0-1-.9-1-1-1.3-.4-.2.4-.2.5.3.5ZM113.4,215.3c-.2-.2-1.5,0-1.6.3-.3.6,2.1.3,1.6-.3ZM110.4,226.6c.8-.4,1.2-.6,1.3-1.3.1-1.1-2-1-2.4.1-.2.7.6,1.5,1.1,1.2ZM105.3,239.3c1.7-.3,2.5-2.5.8-2.5-1.9,0-1.4,1.6-1.9,2.8.4-.1.8-.2,1.1-.3ZM84.4,220.4c-.3.3,0,.7.4.4.3-.3,0-.7-.4-.4ZM85.8,221.8c-.7.5-.3.4-.3.8,0,.5.8-.2.8-.7,0-.6,0-.6-.5-.2ZM87.5,223.7c0,.4.6.2.7,0,.1-.2-.4-.2-.7,0ZM90.5,225.6c-.2-.3-.4-.3-1,.4-.4.5,0,.9.6.7.6-.2.8-.7.4-1.1ZM97.9,234.6c-.3.3-.2.7.1.7,1-.3.3-1.1-.1-.7ZM103,238.7c-.1-.1-.3-.1-.3-.1,0,0,0,.2,0,.4,0,.4.6,0,.3-.3ZM100.7,232.9c0,.4-.3.7-.6,1-.6.7-.5,1,.4.6.5-.2.7-.2.9.2.2.5.3.5.7.2,1.1-.9.6-2.2-.6-1.6-.1-.3-.5-.8-.8-.5ZM98.7,227.3c0-.3-.5-.4-.7,0-.2.3,0,.6.7,0ZM91.2,194.5c.3-.5-.5-.7-.9-.3-.6.5.4,1.2.9.3ZM90.8,190c.3-.4-.2-.8-.8-.6-.3,0-.5.3-.6.4-.2.4,1.2.5,1.4.1ZM86.1,177.8c0-1.1-2.9.1-4.1,1.7-.4.5-.8,1-.8,1-.4.4.3.8,1,.6,1.2-.3,3.8-2.6,3.8-3.3ZM83.4,186c.7-.5.4-.7-.3-.3-.8.5-1,1.3.3.3ZM82.3,185.2c-.3-.3-.4-.3-.7,0-1.2,1.1,1.6.9.7,0ZM77.8,193.7c1.1-.6,1.4-1.6.4-1.4q-.6.2-.9.7c-.3.7,0,.9.5.6ZM73.9,204.9c-.2.3.3,1.7.6,1.6.4-.2,1.3-1.6,1.3-2.3,0-.3,0-.4,0-.4-.8.5-1.2.7-1.8,1.1ZM75.2,177.6c.6-.4,0-.5-.3-.3-.3.2-.2.3.3.3ZM69.6,165.9c0-.3-2.8.5-2.2,1.1,0,0,0,.3-.2.5-.2.3-.3.6,0,.5.9-.6,2.4-1.9,2.4-2ZM68.2,173.8c.7-.2,1.7-1.9.2-.6-.8.7-.8.8-.2.6ZM67.8,190.1c0-.1,0-.3-.1-.4-.3-.3-.6-.2-1.2.6-.3.4-.5.8-.5.8,0,0,1.7-.8,1.8-1ZM59.6,153.6c-.3.6-1.4.9-.8,1.4.5.5,2.1-.2,2.5-1-.6-.2-1.2-.3-1.7-.5ZM58.8,179.7c0,.4.2,1.4.5,1.1.5-.4,0-1.4-.5-1.1ZM62.4,184.5c.5-.4.2-.7-.3-.3-.5.4-.2.7.3.3ZM60.7,183.4c.2,0,.4,0,.4.2,0,.2.3.3.6.2.6-.2.6-.2,0-.9-.6-.8-1.2-.8-1.4,0,0,.6,0,.8.5.6ZM59.1,182.3c1.8.4,1.3-1.4.7-1.3-.2,0-.6.3-.9.6-.5.5-.5.5.2.7ZM46.1,172.3c.2-.2.5-.4.7-.5.6-.2.8-.9.2-1.1-1.5-.6-2,2.8-.9,1.6ZM44.4,173.3c.4-.3.4-.4,0-.4-.2,0-.4,0-.5.1-.3.3,0,.7.5.3ZM31.6,169h0c-.2.4-.2.4,0,0ZM14.9,143.4c.5.9.4,0,1.2.3.8.2.5-.4-.3-.7-1-.4-1.2-.2-.9.4ZM11.2,150c.6.4.9-.3.4-.9-.4-.5-.5-.5-.6-.2-.3.4-.2.8.2,1ZM64,196.1c-.3.2.7,1.3.9,1,.2-.3-.6-1.2-.9-1ZM2.2,146c-.9-.6-1-.3-.2.8.3.5.4.5.8.3.5-.3.5-.3-.6-1ZM9.8,150c-.4-.6-.5-.3-.1.4.5.8.9.8.1-.4ZM6.1,144c-.3.3-.3.4,0,.8.3.3.4.4.5.1.3-.7,0-1.4-.6-.9ZM43,176.8c-.2.4,0,.8.4.6.9-.7.2-1.8-.4-.6ZM35.9,171.2c0,.3,1.2-1,.9-.9-.3,0-.8.6-.9.9ZM8.1,151.6c-.2.3,0,.6.1.8.2-.3,0-.6-.1-.8ZM45.2,181.9c0-.2-.2-.3-.6-.2-.2.5,0,.5.6.2ZM44.8,185.7c.5,0,.5,0,.4.8-.2.8.2,1.4.8,1.4.4,0,.8-.6.6-.8-.3-.3-.2-1.4.2-1.8.2-.2.2-.4,0-.4-.2,0-.3-.3-.4-.6-.1-.9-.6,0-1.4-.8-2-1.7-2.2,2.4-.2,2.3ZM0,144.7c-.2.1.3.8.6.6.2-.1-.3-.8-.6-.6ZM6.3,147.1c-.4,0-.2.9.3,1.3.3.2.5.3.5.2,0-.1.2-.3.2-.3.1,0-.8-1.1-1.1-1.2ZM1.2,144.2c.4.4.7.2.6-.4,0-.4-.3-1.4-.2-1.8.2-.4-.8-1-1.2-.8-.6.3-.1,2,.8,3Z"/>
</svg>