<?xml version="1.0" encoding="UTF-8"?>
<svg id="Calque_1" data-name="Calque 1" xmlns="http://www.w3.org/2000/svg" version="1.1" viewBox="0 0 500 400">
  <defs>
    <style>
      .cls-1 {
        fill: #d8d8d8;
        stroke-width: 0px;
      }
    </style>
  </defs>
  <path class="cls-1" d="M166.6,8.6c-3.2,4.1-6,7.7-8.8,11.4-9.6,12.4-19.3,24.7-28.6,37.4-15.7,21.5-26.5,45.5-34.8,70.7-6.4,19.3-11.3,39.1-14.8,59.2-3.4,19.1-6.4,38.2-9,57.4-2.1,15.5-3.3,31.2-4.8,46.8-.4,4-.6,8.1-.9,12.2-1,10.2,4.7,19.5,14.3,22.8,6.8,2.3,13.9,3.7,21.1,3.1,9.4-.9,18.5-3.1,27.4-6.2,17-5.9,34-12.2,50.9-18.3,1.1-.4,1.6-1,1.8-2.1,5.3-23.1,10.9-46.2,15.9-69.3,2.2-10.4,3.2-21.1,4.8-31.6.2-1.2.1-2.5.2-4.2-2.2.5-4.2.8-6.2,1.5-10.1,3.2-19.5,7.9-28.9,12.5-2.8,1.4-5.5,2.8-8.6,4.3,4-12.6,5.7-25.4,7.3-38.4,7.7,2.5,15,.5,22.2-1.2,5.1-1.2,10.1-2.5,15.2-3.5,1.3-.3,1.4-1.1,1.5-2,2.2-10.3,3.5-20.8,3.4-31.4-.1-10.3-.9-20.7-1.5-31,0-1.4.2-1.9,1.5-2.5,13.7-6.2,27.5-12.3,41.1-18.8,11-5.3,21.3-12,31.4-18.9.6-.4,1.2-.8,2-1.3-1.8,16.2-4,32-7.2,47.7-3.2,15.6-6.9,31.2-10.4,47.2,4.8-.4,9.8-.6,14.8-1.4,13.6-2.1,26.8-6,39.9-10.2.6-.2,1.2-.4,1.8-.6,0,0,.2,0,.5.1-1.4,9.4-4,18.6-2.8,28.5-19.1-2.4-38.2-1.8-57.6-.6-1.6,7.3-3.4,14.8-4.9,22.3-3.9,19.4-6.5,38.9-8.5,58.6-1.8,17.2-3.6,34.4-5.2,51.6-.4,4.8.4,9.5,2.3,14,2,4.7,5.5,6.3,10.4,4.6,6.4-2.2,12.4-5.3,17.6-9.6,9.9-8.3,19.5-16.9,29.2-25.3,3.3-2.9,6.6-5.8,9.8-8.8.5-.4.8-1.4.7-2-5.2-20-1.4-38.4,11-54.7,12.3-16.1,26.4-30.4,43.9-40.9,12.8-7.6,26.3-13.1,41.1-15,5.4-.7,10.9-.6,16.3-.8,0,.2.2.4.2.7-.5.6-1,1.2-1.6,1.7-11.3,12.9-22.9,25.6-33.8,38.8-10.5,12.7-18.6,26.9-24.3,42.4-2.7,7.5-4.5,15.2-3.8,23.3.6,6.8,3.6,12.3,8.9,16.6,1.3,1,2.6,2,3.9,3,5,4,10.3,4.4,16,1.6,6.2-3.1,10.9-8,15.8-12.7,8.3-8,13-18.2,17.6-28.4,8.9-19.8,14.5-40.5,17.3-62.1,2.7-20.6,3.2-41.2,1.9-61.8-.8-12.9-1.6-25.9-2.9-38.8-2.4-23.6-6.6-46.9-13-69.7,0-.4-.2-.7-.3-1.3.4.3.6.4.8.5,11.5,15.8,23.6,31.2,33.8,47.9,9.3,15.2,17.4,31.1,22.7,48.2,3.1,10.1,5.2,20.5,7.1,30.9,2.5,13.3,3,26.9,2.9,40.4-.2,17.5-4.1,34.2-9.8,50.6-11.1,32.3-29.3,59.9-54.8,82.6-3.6,3.2-8.2,5.5-12.5,8-7.4,4.4-15,8.5-23.3,11-12.5,3.9-24.4,3-35.8-4.1-11.3-7-21.1-15.7-30.2-25.2-2.4-2.5-4.7-5-7.4-7.9-5.7,5.6-11.4,11-16.8,16.7-8,8.3-15.6,16.9-23.7,25-3.8,3.8-8.2,7-12.6,10.2-3.8,2.8-8.5,3.9-13.1,4.8-9.8,2-19.6,2.5-29.5.2-4.4-1-8.3-3-11.8-5.9-9.1-7.6-18.4-15.1-28.4-21.4-1.8-1.1-3.3-1.3-5.3-.2-19.2,9.4-38.3,19-57.6,28-18,8.4-36.6,15.3-55.9,20.1-9.2,2.3-18.5,4.3-27.9,5.9-3.7.6-7.8.4-11.5-.4-8.4-1.7-12.9-7.7-15.8-15.3-3.3-8.8-4.1-18.1-3.7-27.4.3-7.7,1.4-15.3,2.4-22.9,1.6-12.8,3.4-25.6,5.1-38.3,1.9-14.3,3.9-28.6,5.9-42.8,2-14.3,4.1-28.5,6.3-42.8,2.5-16.2,5.1-32.5,7.9-48.7,3.6-20.6,7.3-41.2,11.2-61.8,2.9-15.3,6.1-30.6,9.3-45.9.1-.6.8-1.4,1.4-1.6,23.8-7.9,47.5-15.8,71.3-23.4,12.2-3.9,24.7-7.1,37.1-10.7.6-.2,1.2-.3,2.3-.5Z"/>
</svg>