<?xml version="1.0" encoding="UTF-8"?>
<svg id="Calque_1" data-name="Calque 1" xmlns="http://www.w3.org/2000/svg" version="1.1" viewBox="0 0 500 400">
  <defs>
    <style>
      .cls-1 {
        fill: #d8d8d8;
        stroke-width: 0px;
      }
    </style>
  </defs>
  <path class="cls-1" d="M239.1,10.1c7,0,14,0,20.9,0,.4.1.8.3,1.2.3,4.6.4,9.3.7,13.9,1.3,19.5,2.6,38.1,8.1,55.9,16.5,61.9,29.3,103.5,89.9,108.4,158,1.9,27-1.7,53.3-11,78.7-31.5,86.4-120.6,137.9-211.2,122.1-28.9-5.1-55.4-16.1-78.9-33.7-45.9-34.4-71.9-80.1-77.5-137.3-.2-1.7-.5-3.5-.7-5.2,0-7.2,0-14.5,0-21.7.1-.4.3-.8.4-1.2,1.1-17.3,4.5-34.2,10.2-50.6C95.2,67.5,159.1,16.9,234.1,10.8c1.7-.1,3.4-.5,5-.7ZM249.9,40.6c-87.9,0-159.2,71.4-159.3,159.3,0,87.8,71.3,159.3,159,159.4,88.2,0,159.6-71.2,159.7-159.3,0-88-71.4-159.4-159.4-159.4Z"/>
  <path class="cls-1" d="M218.6,119.8c21.2,0,40.9,1.1,60.5,3.9,24.9,3.5,49.1,9.3,72,19.8,7.9,3.6,11.4,11.7,8.5,19.4-3,8.2-12.2,12.3-20.3,8.7-8.9-3.9-18-7.3-27.4-10-14.4-4.1-29-6.7-43.8-8.5-22.6-2.7-45.2-3.3-67.9-2.2-13,.7-26,2-38.9,3.3-9,.9-16.5-4.4-17.8-13.2-1.2-8.2,4.7-15.8,13.5-17,20.9-2.9,41.9-4,61.5-4.2Z"/>
  <path class="cls-1" d="M220.6,179.1c18,.3,36,1.3,53.9,3.8,22.4,3.2,44.1,8.4,64.8,17.8,6.1,2.8,9.9,8.8,9.4,14.9-.6,6.9-5,12.2-11.5,13.9-3.6.9-7,.5-10.4-1.1-17.3-7.9-35.5-12.3-54.2-15.1-24.2-3.6-48.5-4.2-72.8-2.9-10.8.6-21.6,1.7-32.4,2.9-8,.9-15.7-4.7-16.9-12.5-1.3-8.4,4.1-16.4,12.3-17.5,8.2-1.1,16.5-2.1,24.8-2.7,11-.8,22-1.1,33.1-1.6Z"/>
  <path class="cls-1" d="M314.5,285.1c-1.2-.4-3.6-.8-5.6-1.7-16.7-7.4-34.3-11.4-52.3-13.7-18.9-2.4-37.9-2.8-56.8-1.8-9.5.5-19,1.5-28.5,2.5-8.3.9-16.1-4.6-17.2-12.6-1.3-8.7,4.3-16.4,12.7-17.6,20.4-2.8,40.9-3.8,61.4-3.2,16.7.5,33.4,2,49.8,5.2,15.1,2.9,29.8,7.1,43.8,13.6,8.1,3.8,11.5,12.6,7.8,20.4-2.7,5.8-7.5,8.6-15,8.9Z"/>
</svg>