<?xml version="1.0" encoding="UTF-8"?>
<svg id="Calque_1" data-name="Calque 1" xmlns="http://www.w3.org/2000/svg" version="1.1" viewBox="0 0 295 295">
  <defs>
    <style>
      .cls-1 {
        fill: #f5ba00;
        stroke-width: 0px;
      }
    </style>
  </defs>
  <polygon class="cls-1" points="106.9 77 212.5 218.2 188.6 218.2 83 77 106.9 77"/>
  <path class="cls-1" d="M147.5,1C66.6,1,1,66.6,1,147.5s53.3,133.4,123,144.6c7.7,1.3,15.5,1.9,23.5,1.9s13.7-.5,20.4-1.4c71.3-9.9,126.1-71,126.1-145S228.4,1.1,147.5,1ZM182.9,229.4l-48.1-64.3-59.5,64.3h-15.3l68-73.4L60.5,65.7h52.1l44.3,59.2,54.8-59.2h15.3l-63.3,68.3,71.3,95.4h-52.1Z"/>
</svg>