<?xml version="1.0" encoding="UTF-8"?>
<svg id="Calque_1" data-name="Calque 1" xmlns="http://www.w3.org/2000/svg" version="1.1" viewBox="0 0 295 295">
  <defs>
    <style>
      .cls-1 {
        fill: #d8d8d8;
        stroke-width: 0px;
      }
    </style>
  </defs>
  <polygon class="cls-1" points="128.2 121.8 177.3 151.2 127.3 179.1 128.2 121.8"/>
  <path class="cls-1" d="M153.3,1.5h-7.5C67.2.3,2.6,63.1,1.5,141.7v7.5c-1.2,78.6,61.5,143.2,140.1,144.3h7.5c78.6,1.2,143.3-61.5,144.3-140.1v-7.5C294.7,67.2,231.9,2.6,153.3,1.5ZM239.2,183.4c-.9,8.4-2.4,17.3-8.1,23.6-5.6,6.2-13.7,8.6-22.3,9.4-4.4.3-8.8.4-13.1.3-33.3-.5-66.6-1.1-99.9-1.5-10.5-.1-21.9-.6-29.9-7.4-9.1-7.7-10.8-20.8-11.3-32.6-.9-16.2-.7-32.4.4-48.6.6-8.9,1.5-18,5.5-25.9,2.9-5.8,7.5-10.9,13.4-13.5,6.8-3.1,14-2.4,21.3-2.3,17.6.1,35.2.4,52.8.7,18.3.3,36.6.5,54.9.8,8.7.1,18,.5,24.9,5.6,9,6.5,11.3,18.9,12.3,30,1.8,20.5,1.5,41.1-.8,61.6Z"/>
</svg>